<svg width="74" height="64" viewBox="0 0 74 64" fill="none" xmlns="http://www.w3.org/2000/svg">
<path d="M26.5978 53V47.24H31.1498C31.3258 47.24 31.4858 47.2827 31.6298 47.368C31.7791 47.4533 31.8964 47.5707 31.9818 47.72C32.0671 47.864 32.1098 48.024 32.1098 48.2V49.424C32.1098 49.4987 32.0991 49.5733 32.0778 49.648C32.0618 49.7173 32.0378 49.784 32.0058 49.848C32.1231 50.024 32.2111 50.176 32.2698 50.304C32.3284 50.432 32.3578 50.5627 32.3578 50.696V52.04C32.3578 52.216 32.3151 52.3787 32.2298 52.528C32.1444 52.672 32.0271 52.7867 31.8778 52.872C31.7338 52.9573 31.5738 53 31.3978 53H26.5978ZM27.5578 52.352H31.3978C31.4831 52.352 31.5551 52.3227 31.6138 52.264C31.6778 52.2 31.7098 52.1253 31.7098 52.04V50.696C31.7098 50.6107 31.6778 50.5387 31.6138 50.48C31.5551 50.416 31.4831 50.384 31.3978 50.384H27.5578C27.4724 50.384 27.3978 50.416 27.3338 50.48C27.2751 50.5387 27.2458 50.6107 27.2458 50.696V52.04C27.2458 52.1253 27.2751 52.2 27.3338 52.264C27.3978 52.3227 27.4724 52.352 27.5578 52.352ZM27.5578 49.736H31.1498C31.2351 49.736 31.3071 49.7067 31.3658 49.648C31.4244 49.584 31.4538 49.5093 31.4538 49.424V48.2C31.4538 48.1147 31.4244 48.0427 31.3658 47.984C31.3071 47.92 31.2351 47.888 31.1498 47.888H27.5578C27.4724 47.888 27.3978 47.92 27.3338 47.984C27.2751 48.0427 27.2458 48.1147 27.2458 48.2V49.424C27.2458 49.5093 27.2751 49.584 27.3338 49.648C27.3978 49.7067 27.4724 49.736 27.5578 49.736ZM36.302 53V47.888H33.742V47.24H39.502V47.888H36.95V53H36.302ZM40.9003 53V47.24H41.7883L44.1803 50.088L46.5723 47.24H47.4603V53H46.8123V47.976L44.1803 51.104L41.5483 47.976V53H40.9003Z" fill="#B9B29D"/>
<path d="M11.5 50.1864L18.8979 63H24.5L27.5 60H46.5L49.5 63H55L62.3979 50.1864M11.5 50.1864L1 32L18.8979 1H55L72.8979 32L62.3979 50.1864M11.5 50.1864L17.5 41H56.5L62.3979 50.1864" stroke="#B9B29D"/>
</svg>
