<svg width="74" height="64" viewBox="0 0 74 64" fill="none" xmlns="http://www.w3.org/2000/svg">
<path d="M23.1115 53V47.24H23.7595V49.792H28.3595V47.24H29.0155V53H28.3595V50.448H23.7595V53H23.1115ZM30.7242 53V47.24H35.9802V47.888H31.3722V49.792H35.0762V50.448H31.3722V52.352H35.9802V53H30.7242ZM37.6492 53V48.2C37.6492 48.024 37.6918 47.864 37.7772 47.72C37.8625 47.5707 37.9772 47.4533 38.1212 47.368C38.2705 47.2827 38.4332 47.24 38.6092 47.24H42.4492C42.6252 47.24 42.7852 47.2827 42.9292 47.368C43.0785 47.4533 43.1958 47.5707 43.2812 47.72C43.3665 47.864 43.4092 48.024 43.4092 48.2V53H42.7612V50.896H38.2972V53H37.6492ZM38.2972 50.248H42.7612V48.2C42.7612 48.1147 42.7292 48.0427 42.6652 47.984C42.6065 47.92 42.5345 47.888 42.4492 47.888H38.6092C38.5238 47.888 38.4492 47.92 38.3852 47.984C38.3265 48.0427 38.2972 48.1147 38.2972 48.2V50.248ZM45.1367 53V47.24H49.9367C50.1127 47.24 50.2727 47.2827 50.4167 47.368C50.566 47.4533 50.6833 47.5707 50.7687 47.72C50.854 47.864 50.8967 48.024 50.8967 48.2V52.04C50.8967 52.216 50.854 52.3787 50.7687 52.528C50.6833 52.672 50.566 52.7867 50.4167 52.872C50.2727 52.9573 50.1127 53 49.9367 53H45.1367ZM46.0967 52.352H49.9367C50.022 52.352 50.094 52.3227 50.1527 52.264C50.2167 52.2 50.2487 52.1253 50.2487 52.04V48.2C50.2487 48.1147 50.2167 48.0427 50.1527 47.984C50.094 47.92 50.022 47.888 49.9367 47.888H46.0967C46.0113 47.888 45.9367 47.92 45.8727 47.984C45.814 48.0427 45.7847 48.1147 45.7847 48.2V52.04C45.7847 52.1253 45.814 52.2 45.8727 52.264C45.9367 52.3227 46.0113 52.352 46.0967 52.352Z" fill="#B9B29D"/>
<path fill-rule="evenodd" clip-rule="evenodd" d="M55.4326 0.75L73.4756 32L55.4326 63.25L55.2891 63.5H49.293L46.293 60.5H27.707L24.707 63.5H18.6094L0.422852 32L18.6094 0.5H55.2891L55.4326 0.75ZM12.0859 50.2031L17.4541 59.5H56.4434L61.8125 50.1992L56.2266 41.5H17.7705L12.0859 50.2031ZM1.57617 32L11.5254 49.2314L17.0811 40.7266L17.2295 40.5H56.7734L62.375 49.2256L72.3203 31.999L54.7119 1.5H19.1865L1.57617 32Z" fill="#B9B29D"/>
</svg>
