<svg width="74" height="100" viewBox="0 0 74 100" fill="none" xmlns="http://www.w3.org/2000/svg">
<path d="M20.038 89V83.232H20.686V88.352H25.798V89H20.038ZM27.0484 89V88.344H27.7044V89H27.0484ZM32.571 89V84.2C32.571 84.024 32.6137 83.864 32.699 83.72C32.7844 83.5707 32.899 83.4533 33.043 83.368C33.1924 83.2827 33.355 83.24 33.531 83.24H37.371C37.547 83.24 37.707 83.2827 37.851 83.368C38.0004 83.4533 38.1177 83.5707 38.203 83.72C38.2884 83.864 38.331 84.024 38.331 84.2V89H37.683V86.896H33.219V89H32.571ZM33.219 86.248H37.683V84.2C37.683 84.1147 37.651 84.0427 37.587 83.984C37.5284 83.92 37.4564 83.888 37.371 83.888H33.531C33.4457 83.888 33.371 83.92 33.307 83.984C33.2484 84.0427 33.219 84.1147 33.219 84.2V86.248ZM44.9065 89L43.0265 86.76H43.8745L45.7625 88.992V89H44.9065ZM40.0425 89V83.248H44.8425C45.0185 83.248 45.1785 83.2933 45.3225 83.384C45.4719 83.4693 45.5892 83.584 45.6745 83.728C45.7599 83.872 45.8025 84.032 45.8025 84.208V85.896C45.8025 86.072 45.7599 86.232 45.6745 86.376C45.5892 86.52 45.4719 86.6373 45.3225 86.728C45.1785 86.8133 45.0185 86.856 44.8425 86.856H40.6905V89H40.0425ZM41.0025 86.2H44.8425C44.9279 86.2 44.9999 86.1707 45.0585 86.112C45.1225 86.0533 45.1545 85.9813 45.1545 85.896V84.208C45.1545 84.1227 45.1225 84.0507 45.0585 83.992C44.9999 83.928 44.9279 83.896 44.8425 83.896H41.0025C40.9172 83.896 40.8425 83.928 40.7785 83.992C40.7199 84.0507 40.6905 84.1227 40.6905 84.208V85.896C40.6905 85.9813 40.7199 86.0533 40.7785 86.112C40.8425 86.1707 40.9172 86.2 41.0025 86.2ZM47.4441 89V83.24H48.3321L50.7241 86.088L53.1161 83.24H54.0041V89H53.3561V83.976L50.7241 87.104L48.0921 83.976V89H47.4441Z" fill="#B9B29D"/>
<path fill-rule="evenodd" clip-rule="evenodd" d="M55.4326 36.75L73.4756 68L55.4326 99.25L55.2891 99.5H49.293L46.293 96.5H27.707L24.707 99.5H18.6094L0.422852 68L18.6094 36.5H55.2891L55.4326 36.75ZM12.0859 86.2031L17.4541 95.5H56.4434L61.8125 86.1992L56.2266 77.5H17.7705L12.0859 86.2031ZM1.57617 68L11.5254 85.2314L17.0811 76.7266L17.2295 76.5H56.7734L62.375 85.2256L72.3203 67.999L54.7119 37.5H19.1865L1.57617 68Z" fill="#B9B29D"/>
</svg>
