<svg width="74" height="100" viewBox="0 0 74 100" fill="none" xmlns="http://www.w3.org/2000/svg">
<path d="M23.9083 89V83.953H24.4753V88.433H28.9483V89H23.9083ZM29.3424 89V88.426H29.9164V89H29.3424ZM32.7747 89V84.8C32.7747 84.646 32.812 84.506 32.8867 84.38C32.9613 84.2493 33.0617 84.1467 33.1877 84.072C33.3183 83.9973 33.4607 83.96 33.6147 83.96H36.9747C37.1287 83.96 37.2687 83.9973 37.3947 84.072C37.5253 84.1467 37.628 84.2493 37.7027 84.38C37.7773 84.506 37.8147 84.646 37.8147 84.8V89H37.2477V87.159H33.3417V89H32.7747ZM33.3417 86.592H37.2477V84.8C37.2477 84.7253 37.2197 84.6623 37.1637 84.611C37.1123 84.555 37.0493 84.527 36.9747 84.527H33.6147C33.54 84.527 33.4747 84.555 33.4187 84.611C33.3673 84.6623 33.3417 84.7253 33.3417 84.8V86.592ZM42.8682 89L41.2232 87.04H41.9652L43.6172 88.993V89H42.8682ZM38.6122 89V83.967H42.8122C42.9662 83.967 43.1062 84.0067 43.2322 84.086C43.3629 84.1607 43.4655 84.261 43.5402 84.387C43.6149 84.513 43.6522 84.653 43.6522 84.807V86.284C43.6522 86.438 43.6149 86.578 43.5402 86.704C43.4655 86.83 43.3629 86.9327 43.2322 87.012C43.1062 87.0867 42.9662 87.124 42.8122 87.124H39.1792V89H38.6122ZM39.4522 86.55H42.8122C42.8869 86.55 42.9499 86.5243 43.0012 86.473C43.0572 86.4217 43.0852 86.3587 43.0852 86.284V84.807C43.0852 84.7323 43.0572 84.6693 43.0012 84.618C42.9499 84.562 42.8869 84.534 42.8122 84.534H39.4522C39.3775 84.534 39.3122 84.562 39.2562 84.618C39.2049 84.6693 39.1792 84.7323 39.1792 84.807V86.284C39.1792 86.3587 39.2049 86.4217 39.2562 86.473C39.3122 86.5243 39.3775 86.55 39.4522 86.55ZM44.3886 89V83.96H45.1656L47.2586 86.452L49.3516 83.96H50.1286V89H49.5616V84.604L47.2586 87.341L44.9556 84.604V89H44.3886Z" fill="#B9B29D"/>
<path d="M55.4219 0.75L62.9326 13.7598L63.0771 14.0098L62.9326 14.2598L52.6895 31.999L56.5879 38.75L73.3311 67.75L73.4756 68L73.3311 68.25L62.8311 86.4365L55.4326 99.25L55.2891 99.5H49.293L46.293 96.5H27.707L24.707 99.5H18.6094L18.4648 99.25L11.0674 86.4365L0.567383 68.25L0.422852 68L0.567383 67.75L17.1621 39.0059L6.73633 21.7588L6.58398 21.5059L6.73145 21.25L10.8477 14.1211L18.5674 0.75L18.7109 0.5H55.2773L55.4219 0.75ZM48.207 99.5H25.793L28.293 97H45.707L48.207 99.5ZM12.0859 86.2031L17.5 95.5791V95.5H56.4434L61.8125 86.1992L56.2266 77.5H17.7705L12.0859 86.2031ZM1.57617 67.999L11.5254 85.2314L17.0811 76.7266L17.2295 76.5H56.7734L56.9209 76.7305L62.374 85.2256L72.3203 67.999L55.8662 39.5H18.0312L1.57617 67.999ZM11.8564 14.3701L25.7881 38.5H47.7832L51.6807 31.75L61.9229 14.0098L54.7002 1.5H19.2881L11.8564 14.3701Z" fill="#B9B29D"/>
</svg>
