<svg width="74" height="100" viewBox="0 0 74 100" fill="none" xmlns="http://www.w3.org/2000/svg">
<path d="M24.6568 53V47.953H25.2238V52.433H29.6968V53H24.6568ZM30.0909 53V52.426H30.6649V53H30.0909ZM33.5162 53V47.953H34.0832V52.433H38.5562V53H33.5162ZM38.9783 53V47.96H43.5773V48.527H39.5453V50.193H42.7863V50.767H39.5453V52.433H43.5773V53H38.9783ZM45.1636 53C45.0096 53 44.8673 52.9627 44.7366 52.888C44.6106 52.8133 44.5103 52.713 44.4356 52.587C44.361 52.4563 44.3236 52.314 44.3236 52.16V48.8C44.3236 48.646 44.361 48.506 44.4356 48.38C44.5103 48.2493 44.6106 48.1467 44.7366 48.072C44.8673 47.9973 45.0096 47.96 45.1636 47.96H48.5236C48.6776 47.96 48.8176 47.9973 48.9436 48.072C49.0743 48.1467 49.177 48.2493 49.2516 48.38C49.3263 48.506 49.3636 48.646 49.3636 48.8V49.003H48.7966V48.8C48.7966 48.7253 48.7686 48.6623 48.7126 48.611C48.6613 48.555 48.5983 48.527 48.5236 48.527H45.1636C45.089 48.527 45.0236 48.555 44.9676 48.611C44.9163 48.6623 44.8906 48.7253 44.8906 48.8V52.16C44.8906 52.2347 44.9163 52.3 44.9676 52.356C45.0236 52.4073 45.089 52.433 45.1636 52.433H48.5236C48.5983 52.433 48.6613 52.4073 48.7126 52.356C48.7686 52.3 48.7966 52.2347 48.7966 52.16V50.914H47.5506V50.34H49.3636V52.16C49.3636 52.314 49.3263 52.4563 49.2516 52.587C49.177 52.713 49.0743 52.8133 48.9436 52.888C48.8176 52.9627 48.6776 53 48.5236 53H45.1636Z" fill="#B9B29D"/>
<path fill-rule="evenodd" clip-rule="evenodd" d="M73.4756 32L52.6904 67.999L62.9395 85.75L63.083 86L62.9395 86.25L55.2891 99.5H48.793L45.793 96.5H28.207L25.207 99.5H18.7119L6.58691 78.5L16.9795 60.499L0.669922 32.25L0.524414 32L0.669922 31.75L18.7119 0.5H55.2891L73.4756 32ZM11.7129 85.3789L17.5566 95.5H56.4434L61.9287 85.999L47.4951 61H25.7891L11.7129 85.3789ZM12.1924 50.207L17.8457 60H56.1553L61.8076 50.207L56.1719 41.5H17.8291L12.1924 50.207ZM1.67871 31.999L11.6309 49.2344L17.1377 40.7285L17.2852 40.5H56.7158L56.8633 40.7285L62.3691 49.2344L72.3203 31.999L54.7119 1.5H19.2891L1.67871 31.999Z" fill="#B9B29D"/>
<path d="M45.5977 97.1494L47.9053 99.5H26.1143L28.4883 97.1455L28.6338 97H45.4502L45.5977 97.1494Z" fill="#B9B29D"/>
</svg>
