<svg width="74" height="100" viewBox="0 0 74 100" fill="none" xmlns="http://www.w3.org/2000/svg">
<path d="M20.8935 53V47.232H21.5415V52.352H26.6535V53H20.8935ZM27.9039 53V52.344H28.5599V53H27.9039ZM33.4185 53V47.232H34.0665V52.352H39.1785V53H33.4185ZM40.4609 53V47.24H45.7169V47.888H41.1089V49.792H44.8129V50.448H41.1089V52.352H45.7169V53H40.4609ZM48.3299 53C48.1539 53 47.9912 52.9573 47.8419 52.872C47.6979 52.7867 47.5832 52.672 47.4979 52.528C47.4125 52.3787 47.3699 52.216 47.3699 52.04V48.2C47.3699 48.024 47.4125 47.864 47.4979 47.72C47.5832 47.5707 47.6979 47.4533 47.8419 47.368C47.9912 47.2827 48.1539 47.24 48.3299 47.24H52.1699C52.3459 47.24 52.5059 47.2827 52.6499 47.368C52.7992 47.4533 52.9165 47.5707 53.0019 47.72C53.0872 47.864 53.1299 48.024 53.1299 48.2V48.432H52.4819V48.2C52.4819 48.1147 52.4499 48.0427 52.3859 47.984C52.3272 47.92 52.2552 47.888 52.1699 47.888H48.3299C48.2445 47.888 48.1699 47.92 48.1059 47.984C48.0472 48.0427 48.0179 48.1147 48.0179 48.2V52.04C48.0179 52.1253 48.0472 52.2 48.1059 52.264C48.1699 52.3227 48.2445 52.352 48.3299 52.352H52.1699C52.2552 52.352 52.3272 52.3227 52.3859 52.264C52.4499 52.2 52.4819 52.1253 52.4819 52.04V50.616H51.0579V49.96H53.1299V52.04C53.1299 52.216 53.0872 52.3787 53.0019 52.528C52.9165 52.672 52.7992 52.7867 52.6499 52.872C52.5059 52.9573 52.3459 53 52.1699 53H48.3299Z" fill="#444856"/>
<path d="M11.5 50.1864L18.8979 63H24.5L27.5 60H46.5L49.5 63H55L62.3979 50.1864M11.5 50.1864L1 32L18.8979 1H55L72.8979 32L62.3979 50.1864M11.5 50.1864L17.5 41H56.5L62.3979 50.1864" stroke="#444856"/>
</svg>
