<svg width="74" height="100" viewBox="0 0 74 100" fill="none" xmlns="http://www.w3.org/2000/svg">
<path d="M55.2891 0.5L55.4326 0.75L73.4756 32L55.4326 63.25L55.2891 63.5H49.293L46.293 60.5H27.707L24.707 63.5H18.6094L0.422852 32L18.6094 0.5H55.2891ZM12.0859 50.2031L19.1865 62.5H24.293L27.293 59.5H46.707L49.707 62.5H54.7119L61.8125 50.1992L56.2266 41.5H17.7705L12.0859 50.2031ZM1.57617 32L11.5254 49.2314L17.0811 40.7266L17.2295 40.5H56.7734L62.375 49.2256L72.3203 31.999L54.7119 1.5H19.1865L1.57617 32Z" fill="#B60F3C"/>
<path d="M61.8125 50.1992L54.5 62.866L49.9346 63L47.5031 61L57.5605 43.5781L61.8125 50.1992Z" fill="#B60F3C" fill-opacity="0.25"/>
<path d="M48.3076 41.5L37.915 59.5H27.5L24.9258 62L36.7607 41.5H48.3076Z" fill="#B60F3C" fill-opacity="0.25"/>
<path d="M26.3076 41.5L16.6846 58.167L12.0859 50.2031L17.7705 41.5H26.3076Z" fill="#B60F3C" fill-opacity="0.25"/>
<path d="M49.4014 1.5L26.8848 40.5H17.2295L17.0811 40.7266L11.5254 49.2314L10.9111 48.167L37.8545 1.5H49.4014Z" fill="#B60F3C" fill-opacity="0.25"/>
<path d="M72.3203 31.999L62.375 49.2256L58.123 42.6035L68.2832 25.0059L72.3203 31.999Z" fill="#B60F3C" fill-opacity="0.25"/>
<path d="M63.0566 15.9531L48.8848 40.5H37.3389L57.2832 5.95312L63.0566 15.9531Z" fill="#B60F3C" fill-opacity="0.25"/>
<path d="M27.4014 1.5L5.68359 39.1152L1.57617 32L19.1865 1.5H27.4014Z" fill="#B60F3C" fill-opacity="0.25"/>
<path d="M24.6568 53V47.953H25.2238V52.433H29.6968V53H24.6568ZM30.0909 53V52.426H30.6649V53H30.0909ZM33.5162 53V47.953H34.0832V52.433H38.5562V53H33.5162ZM38.9783 53V47.96H43.5773V48.527H39.5453V50.193H42.7863V50.767H39.5453V52.433H43.5773V53H38.9783ZM45.1636 53C45.0096 53 44.8673 52.9627 44.7366 52.888C44.6106 52.8133 44.5103 52.713 44.4356 52.587C44.361 52.4563 44.3236 52.314 44.3236 52.16V48.8C44.3236 48.646 44.361 48.506 44.4356 48.38C44.5103 48.2493 44.6106 48.1467 44.7366 48.072C44.8673 47.9973 45.0096 47.96 45.1636 47.96H48.5236C48.6776 47.96 48.8176 47.9973 48.9436 48.072C49.0743 48.1467 49.177 48.2493 49.2516 48.38C49.3263 48.506 49.3636 48.646 49.3636 48.8V49.003H48.7966V48.8C48.7966 48.7253 48.7686 48.6623 48.7126 48.611C48.6613 48.555 48.5983 48.527 48.5236 48.527H45.1636C45.089 48.527 45.0236 48.555 44.9676 48.611C44.9163 48.6623 44.8906 48.7253 44.8906 48.8V52.16C44.8906 52.2347 44.9163 52.3 44.9676 52.356C45.0236 52.4073 45.089 52.433 45.1636 52.433H48.5236C48.5983 52.433 48.6613 52.4073 48.7126 52.356C48.7686 52.3 48.7966 52.2347 48.7966 52.16V50.914H47.5506V50.34H49.3636V52.16C49.3636 52.314 49.3263 52.4563 49.2516 52.587C49.177 52.713 49.0743 52.8133 48.9436 52.888C48.8176 52.9627 48.6776 53 48.5236 53H45.1636Z" fill="#B60F3C"/>
</svg>
