<svg width="74" height="100" viewBox="0 0 74 100" fill="none" xmlns="http://www.w3.org/2000/svg">
<path d="M55.2891 36.5L55.4326 36.75L73.4756 68L55.4326 99.25L55.2891 99.5H49.293L46.293 96.5H27.707L24.707 99.5H18.6094L0.422852 68L18.6094 36.5H55.2891ZM12.0859 86.2031L19.1865 98.5H24.293L27.293 95.5H46.707L49.707 98.5H54.7119L61.8125 86.1992L56.2266 77.5H17.7705L12.0859 86.2031ZM1.57617 68L11.5254 85.2314L17.0811 76.7266L17.2295 76.5H56.7734L62.375 85.2256L72.3203 67.999L54.7119 37.5H19.1865L1.57617 68Z" fill="#B60F3C"/>
<path d="M61.8125 86.1992L54.5 98.866L49.9346 99L47.5031 97L57.5605 79.5781L61.8125 86.1992Z" fill="#B60F3C" fill-opacity="0.25"/>
<path d="M48.3076 77.5L37.915 95.5H27.5L24.9258 98L36.7607 77.5H48.3076Z" fill="#B60F3C" fill-opacity="0.25"/>
<path d="M26.3076 77.5L16.6846 94.167L12.0859 86.2031L17.7705 77.5H26.3076Z" fill="#B60F3C" fill-opacity="0.25"/>
<path d="M49.4014 37.5L26.8848 76.5H17.2295L17.0811 76.7266L11.5254 85.2314L10.9111 84.167L37.8545 37.5H49.4014Z" fill="#B60F3C" fill-opacity="0.25"/>
<path d="M72.3203 67.999L62.375 85.2256L58.123 78.6035L68.2832 61.0059L72.3203 67.999Z" fill="#B60F3C" fill-opacity="0.25"/>
<path d="M63.0566 51.9531L48.8848 76.5H37.3389L57.2832 41.9531L63.0566 51.9531Z" fill="#B60F3C" fill-opacity="0.25"/>
<path d="M27.4014 37.5L5.68359 75.1152L1.57617 68L19.1865 37.5H27.4014Z" fill="#B60F3C" fill-opacity="0.25"/>
<path d="M27.9966 89L26.3516 87.04H27.0936L28.7456 88.993V89H27.9966ZM23.7406 89V83.967H27.9406C28.0946 83.967 28.2346 84.0067 28.3606 84.086C28.4913 84.1607 28.594 84.261 28.6686 84.387C28.7433 84.513 28.7806 84.653 28.7806 84.807V86.284C28.7806 86.438 28.7433 86.578 28.6686 86.704C28.594 86.83 28.4913 86.9327 28.3606 87.012C28.2346 87.0867 28.0946 87.124 27.9406 87.124H24.3076V89H23.7406ZM24.5806 86.55H27.9406C28.0153 86.55 28.0783 86.5243 28.1296 86.473C28.1856 86.4217 28.2136 86.3587 28.2136 86.284V84.807C28.2136 84.7323 28.1856 84.6693 28.1296 84.618C28.0783 84.562 28.0153 84.534 27.9406 84.534H24.5806C24.506 84.534 24.4406 84.562 24.3846 84.618C24.3333 84.6693 24.3076 84.7323 24.3076 84.807V86.284C24.3076 86.3587 24.3333 86.4217 24.3846 86.473C24.4406 86.5243 24.506 86.55 24.5806 86.55ZM29.503 89V88.426H30.077V89H29.503ZM32.9353 89V84.8C32.9353 84.646 32.9726 84.506 33.0473 84.38C33.122 84.2493 33.2223 84.1467 33.3483 84.072C33.479 83.9973 33.6213 83.96 33.7753 83.96H37.1353C37.2893 83.96 37.4293 83.9973 37.5553 84.072C37.686 84.1467 37.7886 84.2493 37.8633 84.38C37.938 84.506 37.9753 84.646 37.9753 84.8V89H37.4083V87.159H33.5023V89H32.9353ZM33.5023 86.592H37.4083V84.8C37.4083 84.7253 37.3803 84.6623 37.3243 84.611C37.273 84.555 37.21 84.527 37.1353 84.527H33.7753C33.7006 84.527 33.6353 84.555 33.5793 84.611C33.528 84.6623 33.5023 84.7253 33.5023 84.8V86.592ZM43.0289 89L41.3839 87.04H42.1259L43.7779 88.993V89H43.0289ZM38.7729 89V83.967H42.9729C43.1269 83.967 43.2669 84.0067 43.3929 84.086C43.5235 84.1607 43.6262 84.261 43.7009 84.387C43.7755 84.513 43.8129 84.653 43.8129 84.807V86.284C43.8129 86.438 43.7755 86.578 43.7009 86.704C43.6262 86.83 43.5235 86.9327 43.3929 87.012C43.2669 87.0867 43.1269 87.124 42.9729 87.124H39.3399V89H38.7729ZM39.6129 86.55H42.9729C43.0475 86.55 43.1105 86.5243 43.1619 86.473C43.2179 86.4217 43.2459 86.3587 43.2459 86.284V84.807C43.2459 84.7323 43.2179 84.6693 43.1619 84.618C43.1105 84.562 43.0475 84.534 42.9729 84.534H39.6129C39.5382 84.534 39.4729 84.562 39.4169 84.618C39.3655 84.6693 39.3399 84.7323 39.3399 84.807V86.284C39.3399 86.3587 39.3655 86.4217 39.4169 86.473C39.4729 86.5243 39.5382 86.55 39.6129 86.55ZM44.5492 89V83.96H45.3262L47.4192 86.452L49.5122 83.96H50.2892V89H49.7222V84.604L47.4192 87.341L45.1162 84.604V89H44.5492Z" fill="#B60F3C"/>
</svg>
