<svg width="74" height="100" viewBox="0 0 74 100" fill="none" xmlns="http://www.w3.org/2000/svg">
<path d="M24.7104 89L22.8304 86.76H23.6784L25.5664 88.992V89H24.7104ZM19.8464 89V83.248H24.6464C24.8224 83.248 24.9824 83.2933 25.1264 83.384C25.2758 83.4693 25.3931 83.584 25.4784 83.728C25.5638 83.872 25.6064 84.032 25.6064 84.208V85.896C25.6064 86.072 25.5638 86.232 25.4784 86.376C25.3931 86.52 25.2758 86.6373 25.1264 86.728C24.9824 86.8133 24.8224 86.856 24.6464 86.856H20.4944V89H19.8464ZM20.8064 86.2H24.6464C24.7318 86.2 24.8038 86.1707 24.8624 86.112C24.9264 86.0533 24.9584 85.9813 24.9584 85.896V84.208C24.9584 84.1227 24.9264 84.0507 24.8624 83.992C24.8038 83.928 24.7318 83.896 24.6464 83.896H20.8064C20.7211 83.896 20.6464 83.928 20.5824 83.992C20.5238 84.0507 20.4944 84.1227 20.4944 84.208V85.896C20.4944 85.9813 20.5238 86.0533 20.5824 86.112C20.6464 86.1707 20.7211 86.2 20.8064 86.2ZM27.232 89V88.344H27.888V89H27.232ZM32.7546 89V84.2C32.7546 84.024 32.7973 83.864 32.8826 83.72C32.968 83.5707 33.0826 83.4533 33.2266 83.368C33.376 83.2827 33.5386 83.24 33.7146 83.24H37.5546C37.7306 83.24 37.8906 83.2827 38.0346 83.368C38.184 83.4533 38.3013 83.5707 38.3866 83.72C38.472 83.864 38.5146 84.024 38.5146 84.2V89H37.8666V86.896H33.4026V89H32.7546ZM33.4026 86.248H37.8666V84.2C37.8666 84.1147 37.8346 84.0427 37.7706 83.984C37.712 83.92 37.64 83.888 37.5546 83.888H33.7146C33.6293 83.888 33.5546 83.92 33.4906 83.984C33.432 84.0427 33.4026 84.1147 33.4026 84.2V86.248ZM45.0901 89L43.2101 86.76H44.0581L45.9461 88.992V89H45.0901ZM40.2261 89V83.248H45.0261C45.2021 83.248 45.3621 83.2933 45.5061 83.384C45.6555 83.4693 45.7728 83.584 45.8581 83.728C45.9435 83.872 45.9861 84.032 45.9861 84.208V85.896C45.9861 86.072 45.9435 86.232 45.8581 86.376C45.7728 86.52 45.6555 86.6373 45.5061 86.728C45.3621 86.8133 45.2021 86.856 45.0261 86.856H40.8741V89H40.2261ZM41.1861 86.2H45.0261C45.1115 86.2 45.1835 86.1707 45.2421 86.112C45.3061 86.0533 45.3381 85.9813 45.3381 85.896V84.208C45.3381 84.1227 45.3061 84.0507 45.2421 83.992C45.1835 83.928 45.1115 83.896 45.0261 83.896H41.1861C41.1008 83.896 41.0261 83.928 40.9621 83.992C40.9035 84.0507 40.8741 84.1227 40.8741 84.208V85.896C40.8741 85.9813 40.9035 86.0533 40.9621 86.112C41.0261 86.1707 41.1008 86.2 41.1861 86.2ZM47.6277 89V83.24H48.5157L50.9077 86.088L53.2997 83.24H54.1877V89H53.5397V83.976L50.9077 87.104L48.2757 83.976V89H47.6277Z" fill="#B9B29D"/>
<path fill-rule="evenodd" clip-rule="evenodd" d="M55.4326 36.75L73.4756 68L55.4326 99.25L55.2891 99.5H49.293L46.293 96.5H27.707L24.707 99.5H18.6094L0.422852 68L18.6094 36.5H55.2891L55.4326 36.75ZM12.0859 86.2031L17.4541 95.5H56.4434L61.8125 86.1992L56.2266 77.5H17.7705L12.0859 86.2031ZM1.57617 68L11.5254 85.2314L17.0811 76.7266L17.2295 76.5H56.7734L62.375 85.2256L72.3203 67.999L54.7119 37.5H19.1865L1.57617 68Z" fill="#B9B29D"/>
</svg>
