<svg width="74" height="100" viewBox="0 0 74 100" fill="none" xmlns="http://www.w3.org/2000/svg">
<path d="M27.9966 89L26.3516 87.04H27.0936L28.7456 88.993V89H27.9966ZM23.7406 89V83.967H27.9406C28.0946 83.967 28.2346 84.0067 28.3606 84.086C28.4913 84.1607 28.594 84.261 28.6686 84.387C28.7433 84.513 28.7806 84.653 28.7806 84.807V86.284C28.7806 86.438 28.7433 86.578 28.6686 86.704C28.594 86.83 28.4913 86.9327 28.3606 87.012C28.2346 87.0867 28.0946 87.124 27.9406 87.124H24.3076V89H23.7406ZM24.5806 86.55H27.9406C28.0153 86.55 28.0783 86.5243 28.1296 86.473C28.1856 86.4217 28.2136 86.3587 28.2136 86.284V84.807C28.2136 84.7323 28.1856 84.6693 28.1296 84.618C28.0783 84.562 28.0153 84.534 27.9406 84.534H24.5806C24.506 84.534 24.4406 84.562 24.3846 84.618C24.3333 84.6693 24.3076 84.7323 24.3076 84.807V86.284C24.3076 86.3587 24.3333 86.4217 24.3846 86.473C24.4406 86.5243 24.506 86.55 24.5806 86.55ZM29.503 89V88.426H30.077V89H29.503ZM32.9353 89V84.8C32.9353 84.646 32.9726 84.506 33.0473 84.38C33.122 84.2493 33.2223 84.1467 33.3483 84.072C33.479 83.9973 33.6213 83.96 33.7753 83.96H37.1353C37.2893 83.96 37.4293 83.9973 37.5553 84.072C37.686 84.1467 37.7886 84.2493 37.8633 84.38C37.938 84.506 37.9753 84.646 37.9753 84.8V89H37.4083V87.159H33.5023V89H32.9353ZM33.5023 86.592H37.4083V84.8C37.4083 84.7253 37.3803 84.6623 37.3243 84.611C37.273 84.555 37.21 84.527 37.1353 84.527H33.7753C33.7006 84.527 33.6353 84.555 33.5793 84.611C33.528 84.6623 33.5023 84.7253 33.5023 84.8V86.592ZM43.0289 89L41.3839 87.04H42.1259L43.7779 88.993V89H43.0289ZM38.7729 89V83.967H42.9729C43.1269 83.967 43.2669 84.0067 43.3929 84.086C43.5235 84.1607 43.6262 84.261 43.7009 84.387C43.7755 84.513 43.8129 84.653 43.8129 84.807V86.284C43.8129 86.438 43.7755 86.578 43.7009 86.704C43.6262 86.83 43.5235 86.9327 43.3929 87.012C43.2669 87.0867 43.1269 87.124 42.9729 87.124H39.3399V89H38.7729ZM39.6129 86.55H42.9729C43.0475 86.55 43.1105 86.5243 43.1619 86.473C43.2179 86.4217 43.2459 86.3587 43.2459 86.284V84.807C43.2459 84.7323 43.2179 84.6693 43.1619 84.618C43.1105 84.562 43.0475 84.534 42.9729 84.534H39.6129C39.5382 84.534 39.4729 84.562 39.4169 84.618C39.3655 84.6693 39.3399 84.7323 39.3399 84.807V86.284C39.3399 86.3587 39.3655 86.4217 39.4169 86.473C39.4729 86.5243 39.5382 86.55 39.6129 86.55ZM44.5492 89V83.96H45.3262L47.4192 86.452L49.5122 83.96H50.2892V89H49.7222V84.604L47.4192 87.341L45.1162 84.604V89H44.5492Z" fill="#B9B29D"/>
<path fill-rule="evenodd" clip-rule="evenodd" d="M10.8213 14.0098L21.209 31.999L0.422852 68L18.4658 99.25L18.6094 99.5H24.6055L27.6055 96.5H46.1914L49.1914 99.5H55.2891L73.4756 68L56.7363 39.0059L67.1621 21.7588L67.3145 21.5059L55.3311 0.75L55.1875 0.5H18.6211L10.8213 14.0098ZM61.8125 86.2031L56.3984 95.5791V95.5H17.4551L12.0859 86.1992L17.6719 77.5H56.1279L61.8125 86.2031ZM72.3223 67.999L62.373 85.2314L56.8174 76.7266L56.6689 76.5H17.125L16.9775 76.7305L11.5244 85.2256L1.57812 67.999L18.0322 39.5H55.8672L72.3223 67.999ZM66.1543 21.4941L55.873 38.5H49.2637L62.6182 15.3701L66.1543 21.4941ZM62.042 14.3701L48.1104 38.5H26.1152L11.9756 14.0098L19.1982 1.5H54.6104L62.042 14.3701Z" fill="#B9B29D"/>
</svg>
