<svg width="74" height="100" viewBox="0 0 74 100" fill="none" xmlns="http://www.w3.org/2000/svg">
<path d="M25.5659 53L23.6859 50.76H24.5339L26.4219 52.992V53H25.5659ZM20.7019 53V47.248H25.5019C25.6779 47.248 25.8379 47.2933 25.9819 47.384C26.1312 47.4693 26.2486 47.584 26.3339 47.728C26.4192 47.872 26.4619 48.032 26.4619 48.208V49.896C26.4619 50.072 26.4192 50.232 26.3339 50.376C26.2486 50.52 26.1312 50.6373 25.9819 50.728C25.8379 50.8133 25.6779 50.856 25.5019 50.856H21.3499V53H20.7019ZM21.6619 50.2H25.5019C25.5872 50.2 25.6592 50.1707 25.7179 50.112C25.7819 50.0533 25.8139 49.9813 25.8139 49.896V48.208C25.8139 48.1227 25.7819 48.0507 25.7179 47.992C25.6592 47.928 25.5872 47.896 25.5019 47.896H21.6619C21.5766 47.896 21.5019 47.928 21.4379 47.992C21.3792 48.0507 21.3499 48.1227 21.3499 48.208V49.896C21.3499 49.9813 21.3792 50.0533 21.4379 50.112C21.5019 50.1707 21.5766 50.2 21.6619 50.2ZM28.0875 53V52.344H28.7435V53H28.0875ZM33.6021 53V47.232H34.2501V52.352H39.3621V53H33.6021ZM40.6445 53V47.24H45.9005V47.888H41.2925V49.792H44.9965V50.448H41.2925V52.352H45.9005V53H40.6445ZM48.5135 53C48.3375 53 48.1748 52.9573 48.0255 52.872C47.8815 52.7867 47.7668 52.672 47.6815 52.528C47.5961 52.3787 47.5535 52.216 47.5535 52.04V48.2C47.5535 48.024 47.5961 47.864 47.6815 47.72C47.7668 47.5707 47.8815 47.4533 48.0255 47.368C48.1748 47.2827 48.3375 47.24 48.5135 47.24H52.3535C52.5295 47.24 52.6895 47.2827 52.8335 47.368C52.9828 47.4533 53.1001 47.5707 53.1855 47.72C53.2708 47.864 53.3135 48.024 53.3135 48.2V48.432H52.6655V48.2C52.6655 48.1147 52.6335 48.0427 52.5695 47.984C52.5108 47.92 52.4388 47.888 52.3535 47.888H48.5135C48.4281 47.888 48.3535 47.92 48.2895 47.984C48.2308 48.0427 48.2015 48.1147 48.2015 48.2V52.04C48.2015 52.1253 48.2308 52.2 48.2895 52.264C48.3535 52.3227 48.4281 52.352 48.5135 52.352H52.3535C52.4388 52.352 52.5108 52.3227 52.5695 52.264C52.6335 52.2 52.6655 52.1253 52.6655 52.04V50.616H51.2415V49.96H53.3135V52.04C53.3135 52.216 53.2708 52.3787 53.1855 52.528C53.1001 52.672 52.9828 52.7867 52.8335 52.872C52.6895 52.9573 52.5295 53 52.3535 53H48.5135Z" fill="#444856"/>
<path d="M11.5 50.1864L18.8979 63H24.5L27.5 60H46.5L49.5 63H55L62.3979 50.1864M11.5 50.1864L1 32L18.8979 1H55L72.8979 32L62.3979 50.1864M11.5 50.1864L17.5 41H56.5L62.3979 50.1864" stroke="#444856"/>
</svg>
