<svg width="74" height="100" viewBox="0 0 74 100" fill="none" xmlns="http://www.w3.org/2000/svg">
<path d="M28.7452 53L27.1002 51.04H27.8422L29.4942 52.993V53H28.7452ZM24.4892 53V47.967H28.6892C28.8432 47.967 28.9832 48.0067 29.1092 48.086C29.2398 48.1607 29.3425 48.261 29.4172 48.387C29.4918 48.513 29.5292 48.653 29.5292 48.807V50.284C29.5292 50.438 29.4918 50.578 29.4172 50.704C29.3425 50.83 29.2398 50.9327 29.1092 51.012C28.9832 51.0867 28.8432 51.124 28.6892 51.124H25.0562V53H24.4892ZM25.3292 50.55H28.6892C28.7638 50.55 28.8268 50.5243 28.8782 50.473C28.9342 50.4217 28.9622 50.3587 28.9622 50.284V48.807C28.9622 48.7323 28.9342 48.6693 28.8782 48.618C28.8268 48.562 28.7638 48.534 28.6892 48.534H25.3292C25.2545 48.534 25.1892 48.562 25.1332 48.618C25.0818 48.6693 25.0562 48.7323 25.0562 48.807V50.284C25.0562 50.3587 25.0818 50.4217 25.1332 50.473C25.1892 50.5243 25.2545 50.55 25.3292 50.55ZM30.2515 53V52.426H30.8255V53H30.2515ZM33.6768 53V47.953H34.2438V52.433H38.7168V53H33.6768ZM39.1389 53V47.96H43.7379V48.527H39.7059V50.193H42.9469V50.767H39.7059V52.433H43.7379V53H39.1389ZM45.3243 53C45.1703 53 45.028 52.9627 44.8973 52.888C44.7713 52.8133 44.671 52.713 44.5963 52.587C44.5216 52.4563 44.4843 52.314 44.4843 52.16V48.8C44.4843 48.646 44.5216 48.506 44.5963 48.38C44.671 48.2493 44.7713 48.1467 44.8973 48.072C45.028 47.9973 45.1703 47.96 45.3243 47.96H48.6843C48.8383 47.96 48.9783 47.9973 49.1043 48.072C49.235 48.1467 49.3376 48.2493 49.4123 48.38C49.487 48.506 49.5243 48.646 49.5243 48.8V49.003H48.9573V48.8C48.9573 48.7253 48.9293 48.6623 48.8733 48.611C48.822 48.555 48.759 48.527 48.6843 48.527H45.3243C45.2496 48.527 45.1843 48.555 45.1283 48.611C45.077 48.6623 45.0513 48.7253 45.0513 48.8V52.16C45.0513 52.2347 45.077 52.3 45.1283 52.356C45.1843 52.4073 45.2496 52.433 45.3243 52.433H48.6843C48.759 52.433 48.822 52.4073 48.8733 52.356C48.9293 52.3 48.9573 52.2347 48.9573 52.16V50.914H47.7113V50.34H49.5243V52.16C49.5243 52.314 49.487 52.4563 49.4123 52.587C49.3376 52.713 49.235 52.8133 49.1043 52.888C48.9783 52.9627 48.8383 53 48.6843 53H45.3243Z" fill="#B9B29D"/>
<path d="M21.8868 68L11.4945 86L19.0001 99H25.0001L28.0001 96H46.0001L49.0001 99H55.0001L62.864 85.3792M21.8868 68L17.5567 60.5M21.8868 68L26.217 60.5M56.4435 60.5L66.8358 78.5L62.864 85.3792M56.4435 60.5H48.5M56.4435 60.5L62.3939 50.1935M17.5567 60.5H26.217M17.5567 60.5L11.6062 50.1935M26.217 60.5H48.5M48.5 60.5L62.864 85.3792M62.3939 50.1935L72.8979 32L55.0001 1H19.0001L1.10223 32L11.6062 50.1935M62.3939 50.1935L56.4435 41H17.5567L11.6062 50.1935" stroke="#B9B29D"/>
</svg>
