<svg width="74" height="64" viewBox="0 0 74 64" fill="none" xmlns="http://www.w3.org/2000/svg">
<path d="M21.87 53V47.888H19.31V47.24H25.07V47.888H22.518V53H21.87ZM27.4123 53C27.2363 53 27.0736 52.9573 26.9243 52.872C26.7803 52.7867 26.6656 52.672 26.5803 52.528C26.495 52.3787 26.4523 52.216 26.4523 52.04V48.2C26.4523 48.024 26.495 47.864 26.5803 47.72C26.6656 47.5707 26.7803 47.4533 26.9243 47.368C27.0736 47.2827 27.2363 47.24 27.4123 47.24H31.2523C31.4283 47.24 31.5883 47.2827 31.7323 47.368C31.8816 47.4533 31.999 47.5707 32.0843 47.72C32.1696 47.864 32.2123 48.024 32.2123 48.2V52.04C32.2123 52.216 32.1696 52.3787 32.0843 52.528C31.999 52.672 31.8816 52.7867 31.7323 52.872C31.5883 52.9573 31.4283 53 31.2523 53H27.4123ZM27.4123 52.352H31.2523C31.3376 52.352 31.4096 52.3227 31.4683 52.264C31.5323 52.2 31.5643 52.1253 31.5643 52.04V48.2C31.5643 48.1147 31.5323 48.0427 31.4683 47.984C31.4096 47.92 31.3376 47.888 31.2523 47.888H27.4123C27.327 47.888 27.2523 47.92 27.1883 47.984C27.1296 48.0427 27.1003 48.1147 27.1003 48.2V52.04C27.1003 52.1253 27.1296 52.2 27.1883 52.264C27.2523 52.3227 27.327 52.352 27.4123 52.352ZM38.7573 53L36.8773 50.76H37.7253L39.6133 52.992V53H38.7573ZM33.8933 53V47.248H38.6933C38.8693 47.248 39.0293 47.2933 39.1733 47.384C39.3226 47.4693 39.44 47.584 39.5253 47.728C39.6106 47.872 39.6533 48.032 39.6533 48.208V49.896C39.6533 50.072 39.6106 50.232 39.5253 50.376C39.44 50.52 39.3226 50.6373 39.1733 50.728C39.0293 50.8133 38.8693 50.856 38.6933 50.856H34.5413V53H33.8933ZM34.8533 50.2H38.6933C38.7786 50.2 38.8506 50.1707 38.9093 50.112C38.9733 50.0533 39.0053 49.9813 39.0053 49.896V48.208C39.0053 48.1227 38.9733 48.0507 38.9093 47.992C38.8506 47.928 38.7786 47.896 38.6933 47.896H34.8533C34.768 47.896 34.6933 47.928 34.6293 47.992C34.5706 48.0507 34.5413 48.1227 34.5413 48.208V49.896C34.5413 49.9813 34.5706 50.0533 34.6293 50.112C34.6933 50.1707 34.768 50.2 34.8533 50.2ZM42.2149 53C42.0389 53 41.8762 52.9573 41.7269 52.872C41.5829 52.7867 41.4682 52.672 41.3829 52.528C41.2975 52.3787 41.2549 52.216 41.2549 52.04V51.816H41.9029V52.04C41.9029 52.1253 41.9322 52.2 41.9909 52.264C42.0549 52.3227 42.1295 52.352 42.2149 52.352H46.0549C46.1402 52.352 46.2122 52.3227 46.2709 52.264C46.3349 52.2 46.3669 52.1253 46.3669 52.04V50.752C46.3669 50.6667 46.3349 50.5947 46.2709 50.536C46.2122 50.4773 46.1402 50.448 46.0549 50.448H42.2149C42.0389 50.448 41.8762 50.4053 41.7269 50.32C41.5829 50.2293 41.4682 50.112 41.3829 49.968C41.2975 49.824 41.2549 49.664 41.2549 49.488V48.2C41.2549 48.024 41.2975 47.864 41.3829 47.72C41.4682 47.5707 41.5829 47.4533 41.7269 47.368C41.8762 47.2827 42.0389 47.24 42.2149 47.24H46.0549C46.2309 47.24 46.3909 47.2827 46.5349 47.368C46.6842 47.4533 46.8015 47.5707 46.8869 47.72C46.9722 47.864 47.0149 48.024 47.0149 48.2V48.424H46.3669V48.2C46.3669 48.1147 46.3349 48.0427 46.2709 47.984C46.2122 47.92 46.1402 47.888 46.0549 47.888H42.2149C42.1295 47.888 42.0549 47.92 41.9909 47.984C41.9322 48.0427 41.9029 48.1147 41.9029 48.2V49.488C41.9029 49.5733 41.9322 49.6453 41.9909 49.704C42.0549 49.7627 42.1295 49.792 42.2149 49.792H46.0549C46.2309 49.792 46.3909 49.8373 46.5349 49.928C46.6842 50.0133 46.8015 50.128 46.8869 50.272C46.9722 50.416 47.0149 50.576 47.0149 50.752V52.04C47.0149 52.216 46.9722 52.3787 46.8869 52.528C46.8015 52.672 46.6842 52.7867 46.5349 52.872C46.3909 52.9573 46.2309 53 46.0549 53H42.2149ZM49.617 53C49.441 53 49.2783 52.9573 49.129 52.872C48.985 52.7867 48.8703 52.672 48.785 52.528C48.6997 52.3787 48.657 52.216 48.657 52.04V48.2C48.657 48.024 48.6997 47.864 48.785 47.72C48.8703 47.5707 48.985 47.4533 49.129 47.368C49.2783 47.2827 49.441 47.24 49.617 47.24H53.457C53.633 47.24 53.793 47.2827 53.937 47.368C54.0863 47.4533 54.2037 47.5707 54.289 47.72C54.3743 47.864 54.417 48.024 54.417 48.2V52.04C54.417 52.216 54.3743 52.3787 54.289 52.528C54.2037 52.672 54.0863 52.7867 53.937 52.872C53.793 52.9573 53.633 53 53.457 53H49.617ZM49.617 52.352H53.457C53.5423 52.352 53.6143 52.3227 53.673 52.264C53.737 52.2 53.769 52.1253 53.769 52.04V48.2C53.769 48.1147 53.737 48.0427 53.673 47.984C53.6143 47.92 53.5423 47.888 53.457 47.888H49.617C49.5317 47.888 49.457 47.92 49.393 47.984C49.3343 48.0427 49.305 48.1147 49.305 48.2V52.04C49.305 52.1253 49.3343 52.2 49.393 52.264C49.457 52.3227 49.5317 52.352 49.617 52.352Z" fill="#444856"/>
<path d="M11.5 50.1864L18.8979 63H24.5L27.5 60H46.5L49.5 63H55L62.3979 50.1864M11.5 50.1864L1 32L18.8979 1H55L72.8979 32L62.3979 50.1864M11.5 50.1864L17.5 41H56.5L62.3979 50.1864" stroke="#444856"/>
</svg>
