<svg width="36" height="36" viewBox="0 0 36 36" fill="none" xmlns="http://www.w3.org/2000/svg">
<path d="M1 35H9.00072L9 36H0V27H1V35Z" fill="#444856"/>
<path d="M36 36H27V35H35V27H36V36Z" fill="#444856"/>
<path d="M9.00072 1H1V9H0V0H9L9.00072 1Z" fill="#444856"/>
<path d="M36 9H35V1H27V0H36V9Z" fill="#444856"/>
<path d="M5.76492 4.5C5.72218 4.5 5.67955 4.50247 5.63616 4.50687C4.94154 4.57762 4.4359 5.19752 4.5066 5.89224C4.57735 6.5868 5.19731 7.0925 5.89197 7.02164C6.58647 6.95105 7.09217 6.33109 7.02142 5.63643C6.95506 4.98516 6.4058 4.49984 5.76492 4.5ZM12.4219 5.00125C12.3966 5.00125 12.3704 5.00207 12.3447 5.00471C11.9338 5.04646 11.6351 5.41434 11.677 5.82523C11.7187 6.23611 12.0866 6.53483 12.4974 6.49297C12.9083 6.45123 13.2071 6.08511 13.1652 5.67422C13.126 5.28898 12.8009 5.00114 12.4219 5.00125ZM8.25749 5.98661C8.23223 5.98661 8.20751 5.98738 8.18191 5.99002C7.77102 6.03188 7.47054 6.39965 7.5124 6.81059C7.55426 7.22148 7.92203 7.5202 8.33297 7.47834C8.74386 7.43643 9.04258 7.07036 9.00072 6.65947C8.9615 6.27424 8.63652 5.9865 8.25749 5.98661ZM14.2845 6.63547C14.2434 6.63547 14.2025 6.6364 14.1609 6.64063C13.4942 6.70847 13.0081 7.30432 13.076 7.97097C13.1438 8.63756 13.7397 9.12371 14.4063 9.05587C15.0729 8.98797 15.5574 8.39207 15.4896 7.72542C15.4259 7.10052 14.8995 6.6353 14.2845 6.63547ZM10.1697 7.94531C10.097 7.94531 10.0239 7.94806 9.94994 7.95553C9.52823 7.99849 9.14761 8.16251 8.83757 8.40707C8.69432 8.28905 8.52906 8.20065 8.35137 8.147C8.17369 8.09334 7.98713 8.0755 7.80249 8.09451C7.0295 8.17333 6.46546 8.863 6.54423 9.63611C6.623 10.4092 7.31448 10.9714 8.08753 10.8927C8.11407 10.8899 8.14049 10.8865 8.16653 10.8823C8.41262 11.5095 8.94007 11.983 9.58102 12.1647C9.50742 12.3607 9.48038 12.5711 9.50202 12.7794C9.5781 13.5263 10.2467 14.0708 10.9937 13.9947C11.7408 13.9186 12.2835 13.2517 12.2075 12.5046C12.1898 12.3269 12.1371 12.1544 12.0526 11.9971C11.968 11.8397 11.8532 11.7007 11.7147 11.5878C12.1381 11.1483 12.3737 10.5328 12.307 9.87814C12.1942 8.77039 11.2597 7.94498 10.1697 7.94531ZM16.1504 10.3296C16.0403 10.3292 15.9303 10.3343 15.8208 10.345C14.0493 10.5255 12.7599 12.108 12.9404 13.8796C12.9667 14.1409 13.0249 14.398 13.1137 14.6452C12.1826 15.0703 11.5811 16.0526 11.6906 17.1274C11.8279 18.4768 13.0328 19.4587 14.3823 19.3213C14.6035 19.2986 14.8206 19.2461 15.0277 19.165C15.0303 19.2396 15.0354 19.3145 15.0431 19.3898C15.2139 21.0675 16.5821 22.3337 18.2137 22.4266C17.94 23.2615 17.8322 24.1654 17.927 25.0959C17.9297 25.1228 17.9325 25.1497 17.9356 25.1765C17.9184 25.1779 17.9013 25.1782 17.8841 25.18C16.8001 25.2903 16.0124 26.259 16.1228 27.3429C16.2332 28.4267 17.2001 29.2162 18.284 29.1059C18.7034 29.0638 19.0982 28.8881 19.4101 28.6046C20.7429 30.1888 22.8104 31.1081 25.0252 30.8825C28.5827 30.5203 31.1724 27.342 30.8101 23.7844C30.5885 21.6079 29.3132 19.7938 27.5416 18.7959C27.6464 18.3858 27.6815 17.9505 27.6361 17.505C27.429 15.4709 25.6121 13.9899 23.578 14.197C22.1911 14.3383 21.0628 15.2286 20.5499 16.4253C20.0036 15.9792 19.32 15.7031 18.5827 15.6665C19.1454 15.0181 19.4489 14.1489 19.3552 13.2273C19.186 11.5664 17.7847 10.3292 16.1504 10.3296ZM22.1259 10.4241C22.0713 10.4241 22.0167 10.427 21.9612 10.4326C21.0724 10.5231 20.4253 11.317 20.5158 12.2058C20.6063 13.0947 21.4002 13.7418 22.289 13.6513C23.1779 13.5608 23.825 12.7669 23.7344 11.8781C23.6495 11.0448 22.9458 10.4239 22.1259 10.4241ZM25.3978 11.8712C25.3725 11.8712 25.3462 11.8737 25.3206 11.8763C24.9097 11.9182 24.611 12.2843 24.6528 12.6951C24.6946 13.106 25.0625 13.4049 25.4733 13.3629C25.8842 13.3211 26.183 12.955 26.1411 12.5441C26.1019 12.1589 25.7768 11.8711 25.3978 11.8712ZM6.98539 14.7928C6.96012 14.7928 6.93556 14.7936 6.90991 14.7963C6.49902 14.838 6.19855 15.2041 6.2404 15.6151C6.27528 15.9579 6.53758 16.2218 6.86185 16.2759C6.83062 16.4225 6.8225 16.5732 6.83779 16.7223C6.91826 17.5126 7.62331 18.0884 8.41366 18.008C9.20397 17.9275 9.77981 17.2208 9.69939 16.4304C9.61886 15.6401 8.91387 15.0642 8.12341 15.1447C7.97045 15.1603 7.82097 15.2003 7.68066 15.2632C7.56926 14.9833 7.29482 14.7927 6.98539 14.7928ZM9.4093 18.9625C9.3725 18.9625 9.33503 18.9639 9.29768 18.9677C8.69986 19.0285 8.26518 19.5629 8.3261 20.1608C8.38691 20.7586 8.92123 21.1932 9.51911 21.1323C10.1169 21.0715 10.5515 20.5389 10.4907 19.9411C10.4336 19.3806 9.96081 18.9623 9.4093 18.9625ZM12.0889 21.0087C12.0075 21.0086 11.9261 21.0126 11.8451 21.0207C10.5338 21.1542 9.57959 22.3271 9.71324 23.6386C9.84672 24.95 11.0179 25.9042 12.3293 25.7706C12.8693 25.7162 13.3744 25.4787 13.7609 25.0977C14.054 25.2663 14.3928 25.3384 14.7291 25.3037C15.618 25.2131 16.2651 24.4192 16.1746 23.5304C16.084 22.6416 15.2902 21.9945 14.4014 22.085C14.3034 22.0949 14.2094 22.1137 14.118 22.1399C13.6929 21.4537 12.9322 21.0084 12.0889 21.0087Z" fill="#444856"/>
</svg>
