<svg width="36" height="36" viewBox="0 0 36 36" fill="none" xmlns="http://www.w3.org/2000/svg">
<path d="M1 35H9V36H0V27H1V35Z" fill="#444856"/>
<path d="M36 36H27V35H35V27H36V36Z" fill="#444856"/>
<path fill-rule="evenodd" clip-rule="evenodd" d="M12.3657 3.9375C16.2721 6.60358 18.9332 9.90898 20.5038 13.2693C33.3374 19.5314 37.4977 33.5999 18.8427 28.9308C15.5988 31.3941 10.2108 31.0362 3.375 25.2631C14.3269 32.1996 21.2131 23.4339 18.6021 13.6923C14.6523 11.6016 9.53027 10.3108 3.6991 10.8188C8.97925 9.91616 13.9296 10.6459 18.1489 12.2509C17.106 9.37784 15.2233 6.48306 12.3657 3.9375ZM21.3547 15.4067C23.1867 20.9177 22.1745 26.2436 19.0096 28.8007C29.8139 29.1129 28.8407 20.8712 21.3547 15.4067Z" fill="#444856"/>
<path d="M9 1H1V9H0V0H9V1Z" fill="#444856"/>
<path d="M36 9H35V1H27V0H36V9Z" fill="#444856"/>
</svg>
