<svg width="36" height="36" viewBox="0 0 36 36" fill="none" xmlns="http://www.w3.org/2000/svg">
<path d="M1 35H9V36H0V27H1V35ZM36 36H27V35H35V27H36V36ZM14.1709 22.002L14.0117 21.958L10.1445 24.1719L14.7256 32L9.17871 24.7227L4 26.416L14.1709 20.5947V22.002ZM25.3086 30.6406L32 27.918L25.3086 32L21.8164 29.0889V27.749L25.3086 30.6406ZM19.8164 27.5625H16.1709V9.95898L16.373 9.86426L18.4717 8.88379L19.4756 8.41699L19.4746 8.41602L19.8164 8.25781V27.5625ZM22.7891 16.9609L21.9805 17.582L32 25.1221L22.9385 19.4766L21.8164 20.6768V15.458L32 9.43457L22.7891 16.9609ZM10.9346 8.6123L13.29 9.63574L14.1709 10.6162V12.2676L12.6279 10.5498L8.11133 8.58691L9.2002 13.8721L14.125 14.8301L14.1709 14.2725V16.9219L11.8594 16.0518L11.6221 15.9844L11.4873 15.9121L8.61621 14.8301L4 13L8.07129 13.8594L6.89551 8.14844L6.88574 8.15918L4 5.48535L7.28613 7.02637L9.90234 8.16504L14.125 4L10.9346 8.6123ZM9 1H1V9H0V0H9V1ZM27.5 6.5L21.9805 9L21.916 7.40039L27 6L28.7363 4L27.5 6.5ZM36 9H35V1H27V0H36V9Z" fill="white"/>
</svg>
