<svg width="64" height="64" viewBox="0 0 64 64" fill="none" xmlns="http://www.w3.org/2000/svg">
<path d="M4 60H16V64H0V48H4V60Z" fill="white"/>
<path d="M64 64H48V60H60V48H64V64Z" fill="white"/>
<path d="M50.9424 15.6914L15.0967 52L12.4395 49.3086L48.2852 13L50.9424 15.6914Z" fill="white"/>
<path d="M47.2783 22.2734C47.932 22.7257 48.5693 23.2019 49.1895 23.7002C50.3156 24.6054 51.384 25.5823 52.3877 26.625C53.2551 27.5169 54.0778 28.4523 54.8525 29.4277C55.1932 29.8539 55.4992 30.2435 55.7646 30.624C56.0301 30.9791 56.2557 31.3246 56.4385 31.5859C56.6214 31.8472 56.7622 32.0871 56.8574 32.2344L57 32.4658L56.8564 32.6953C56.7612 32.8362 56.6204 33.0696 56.4375 33.3438C56.2547 33.6178 56.0292 33.9504 55.7637 34.3057C55.4982 34.6812 55.1935 35.0744 54.8516 35.502C54.0767 36.4775 53.2543 37.4137 52.3867 38.3057C51.383 39.3483 50.3146 40.3252 49.1885 41.2305C47.9915 42.1966 46.7259 43.0733 45.4033 43.8535C44.0516 44.6472 42.6391 45.3304 41.1797 45.8955C38.2464 47.0171 35.1353 47.5862 32 47.5752C29.1724 47.5665 26.3649 47.0923 23.6875 46.1709L28.3945 41.4023C30.1325 42.1219 32.0422 42.3051 33.8828 41.9297C35.7233 41.5542 37.4137 40.6358 38.7412 39.291C40.0686 37.9463 40.9741 36.2344 41.3447 34.3701C41.7153 32.5057 41.5344 30.572 40.8242 28.8115L47.2783 22.2734Z" fill="white"/>
<path d="M32 17.3555C34.6897 17.3455 37.3641 17.7632 39.9258 18.5938L35.208 23.3721C33.7697 22.8519 32.229 22.6896 30.7158 22.8984C29.2024 23.1073 27.7603 23.6821 26.5117 24.5732C25.2632 25.4644 24.2444 26.6463 23.541 28.0195C22.8376 29.3929 22.4701 30.9176 22.4697 32.4648C22.4674 33.577 22.6549 34.6813 23.0244 35.7285L16.4229 42.416C15.8667 42.0234 15.3293 41.6184 14.8115 41.2021C13.6856 40.299 12.6171 39.3246 11.6133 38.2842C10.7456 37.3963 9.92315 36.4643 9.14844 35.4922L8.66406 34.8809L8.23633 34.3008C7.97079 33.948 7.74532 33.6088 7.5625 33.3447C7.37966 33.0809 7.23874 32.846 7.14355 32.7002L7 32.4736L7.14355 32.2461C7.23877 32.1014 7.37957 31.8719 7.5625 31.6016C7.74527 31.3314 7.97089 30.9991 8.23633 30.6465L8.66406 30.0664L9.14844 29.4551C9.92311 28.4831 10.7457 27.5509 11.6133 26.6631C12.6172 25.6226 13.6856 24.6474 14.8115 23.7441C16.0092 22.7789 17.2747 21.9022 18.5967 21.1211C19.9486 20.3264 21.361 19.6417 22.8203 19.0742C25.7531 17.946 28.8629 17.3641 32 17.3555Z" fill="white"/>
<path d="M16 4H4V16H0V0H16V4Z" fill="white"/>
<path d="M64 16H60V4H48V0H64V16Z" fill="white"/>
</svg>
