<svg width="36" height="36" viewBox="0 0 36 36" fill="none" xmlns="http://www.w3.org/2000/svg">
<path d="M1 35H9V36H0V27H1V35Z" fill="#B9B29D"/>
<path d="M36 36H27V35H35V27H36V36Z" fill="#B9B29D"/>
<path d="M28.6551 8.82642L8.49188 29.25L6.99719 27.7361L27.1604 7.3125L28.6551 8.82642Z" fill="#B9B29D"/>
<path d="M26.5941 12.5288C26.9618 12.7832 27.3202 13.0511 27.6691 13.3314C28.3025 13.8406 28.9035 14.3901 29.4681 14.9766C29.956 15.4782 30.4187 16.0044 30.8546 16.5531C31.0462 16.7928 31.2183 17.012 31.3676 17.226C31.517 17.4258 31.6438 17.6201 31.7466 17.7671C31.8495 17.914 31.9287 18.049 31.9823 18.1318L32.0625 18.262L31.9818 18.3911C31.9282 18.4704 31.849 18.6017 31.7461 18.7559C31.6433 18.91 31.5164 19.0971 31.3671 19.2969C31.2177 19.5082 31.0463 19.7293 30.854 19.9698C30.4181 20.5186 29.9555 21.0452 29.4675 21.5469C28.903 22.1334 28.302 22.683 27.6685 23.1921C26.9952 23.7356 26.2833 24.2287 25.5394 24.6676C24.779 25.1141 23.9845 25.4983 23.1636 25.8162C21.5136 26.4471 19.7636 26.7672 18 26.761C16.4095 26.7561 14.8302 26.4894 13.3242 25.9711L15.9719 23.2888C16.9495 23.6936 18.0237 23.7966 19.0591 23.5854C20.0943 23.3742 21.0452 22.8576 21.7919 22.1012C22.5386 21.3448 23.0479 20.3818 23.2564 19.3332C23.4649 18.2845 23.3631 17.1967 22.9636 16.2065L26.5941 12.5288Z" fill="#B9B29D"/>
<path d="M18 9.76245C19.5129 9.75683 21.0173 9.9918 22.4583 10.459L19.8045 13.1468C18.9955 12.8542 18.1288 12.7629 17.2776 12.8804C16.4263 12.9979 15.6152 13.3212 14.9128 13.8224C14.2106 14.3237 13.6375 14.9885 13.2418 15.761C12.8461 16.5335 12.6394 17.3912 12.6392 18.2615C12.6379 18.887 12.7434 19.5082 12.9512 20.0973L9.23785 23.859C8.92501 23.6382 8.62272 23.4103 8.33148 23.1762C7.69817 22.6682 7.09714 22.1201 6.53247 21.5349C6.04441 21.0354 5.58177 20.5112 5.146 19.9644L4.87354 19.6205L4.63293 19.2942C4.48357 19.0958 4.35674 18.9049 4.25391 18.7564C4.15106 18.608 4.07179 18.4759 4.01825 18.3939L3.9375 18.2664L4.01825 18.1384C4.07181 18.057 4.15101 17.9279 4.25391 17.7759C4.35672 17.6239 4.48362 17.437 4.63293 17.2386L4.87354 16.9124L5.146 16.5685C5.58175 16.0217 6.04444 15.4974 6.53247 14.998C7.09716 14.4127 7.69813 13.8641 8.33148 13.3561C9.00515 12.8132 9.71701 12.32 10.4606 11.8806C11.2211 11.4336 12.0156 11.0485 12.8364 10.7292C14.4861 10.0946 16.2354 9.76733 18 9.76245Z" fill="#B9B29D"/>
<path d="M9 1H1V9H0V0H9V1Z" fill="#B9B29D"/>
<path d="M36 9H35V1H27V0H36V9Z" fill="#B9B29D"/>
</svg>
