<svg width="36" height="36" viewBox="0 0 36 36" fill="none" xmlns="http://www.w3.org/2000/svg">
<path d="M1 35H9V36H0V27H1V35Z" fill="#B9B29D"/>
<path d="M36 36H27V35H35V27H36V36Z" fill="#B9B29D"/>
<path d="M17.3584 3.375C20.9367 5.63811 27.6484 14.1632 25.9431 18.178C27.1787 17.1824 27.9562 16.5911 29.1412 12.3585C30.494 16.7698 31.1547 21.0866 28.2766 25.3015C29.3032 25.381 30.5781 24.6654 31.868 23.5745C32.8758 26.1399 29.8076 30.4053 26.3249 31.5H23.0394C25.1534 30.6412 25.7236 29.5596 26.5007 28.3387C26.9235 27.3703 26.6169 28.552 24.9857 27.3928C23.3546 26.2335 25.4014 23.1167 25.9827 22.1765C24.7227 22.1942 23.2871 21.9625 22.7752 21.2525C21.2406 19.1221 21.34 16.0148 21.4365 13.6571C19.3131 17.0337 16.9571 24.9843 13.3984 19.921C12.8471 24.7749 11.4091 24.1002 8.6369 23.5492C8.95283 26.9388 10.7611 29.1601 13.4517 31.5H10.3975C7.84552 30.1451 1.08275 21.8735 5.27783 17.2359C5.28257 21.912 9.25771 21.4787 12.0674 11.3698C15.9795 22.1187 19.3676 6.22947 17.3584 3.375Z" fill="#B9B29D"/>
<path d="M9 1H1V9H0V0H9V1Z" fill="#B9B29D"/>
<path d="M36 9H35V1H27V0H36V9Z" fill="#B9B29D"/>
</svg>
