<svg width="64" height="64" viewBox="0 0 64 64" fill="none" xmlns="http://www.w3.org/2000/svg">
<path d="M4 60H16V64H0V48H4V60Z" fill="white"/>
<path d="M64 64H48V60H60V48H64V64Z" fill="white"/>
<path d="M30.8594 6C37.2208 10.0233 49.1527 25.1791 46.1211 32.3164C48.3178 30.5466 49.7 29.4954 51.8066 21.9707C54.2116 29.813 55.3861 37.4874 50.2695 44.9805C52.0945 45.1218 54.3611 43.8496 56.6543 41.9102C58.4459 46.4709 52.9913 54.0538 46.7998 56H40.959C44.7171 54.4732 45.7308 52.5503 47.1123 50.3799C47.864 48.6584 47.3189 50.7591 44.4189 48.6982C41.5193 46.6373 45.1581 41.0964 46.1914 39.4248C43.9515 39.4563 41.3993 39.0445 40.4893 37.7822C37.761 33.9949 37.9378 28.4708 38.1094 24.2793C34.3344 30.2822 30.146 44.4166 23.8193 35.415C22.8393 44.0442 20.2828 42.8448 15.3545 41.8652C15.9161 47.8913 19.1309 51.8402 23.9141 56H18.4844C13.9476 53.5912 1.92488 38.8863 9.38281 30.6416C9.39123 38.9546 16.4582 38.1843 21.4531 20.2129C28.408 39.3221 34.4312 11.0746 30.8594 6Z" fill="white"/>
<path d="M16 4H4V16H0V0H16V4Z" fill="white"/>
<path d="M64 16H60V4H48V0H64V16Z" fill="white"/>
</svg>
