<svg width="10" height="10" viewBox="0 0 10 10" fill="none" xmlns="http://www.w3.org/2000/svg">
<path d="M8.57143 0C9.35938 0 10 0.640625 10 1.42857V8.57143C10 9.35938 9.35938 10 8.57143 10H1.42857C0.640625 10 0 9.35938 0 8.57143V1.42857C0 0.640625 0.640625 0 1.42857 0H8.57143ZM7.63393 2.53795C7.39509 2.36384 7.06027 2.41741 6.88616 2.65625L4.22098 6.32143L3.05804 5.15848C2.84821 4.94866 2.50893 4.94866 2.30134 5.15848C2.09375 5.3683 2.09152 5.70759 2.30134 5.91518L3.90848 7.52232C4.02009 7.63393 4.17411 7.68973 4.32812 7.67857C4.48214 7.66741 4.62723 7.58705 4.71875 7.45982L7.75223 3.28571C7.92634 3.04688 7.87277 2.71205 7.63393 2.53795Z" fill="#B9B29D"/>
</svg>
