<svg width="36" height="36" viewBox="0 0 36 36" fill="none" xmlns="http://www.w3.org/2000/svg">
<path d="M1 35H9V36H0V27H1V35ZM36 36H27V35H35V27H36V36ZM6.10254 4C9.10902 4 10.843 5.05482 11.7021 6.74316C11.7021 6.74316 11.2295 6.54644 11.1025 6.74316C9 10 12.1728 13.9142 10.7061 18.1045C10.6596 18.2371 10.6139 18.3706 10.5664 18.5029C8.25707 24.9381 7.70576 29.9919 10.9111 32C4.50002 31.9997 4.50037 24.9742 7.70605 17.8311C7.9301 16.9914 8.12809 16.1576 8.2832 15.3359C8.6279 11.8153 7.08523 10.0762 4.5 9.35645C6.42174 9.04456 7.82642 9.19417 8.72266 9.79395C8.56754 7.20291 7.76575 5.10359 6.10254 4ZM12.4707 29.2197C12.9046 29.3738 13.3553 29.4977 13.8213 29.5898C13.8261 29.5908 13.8311 29.5909 13.8359 29.5918C14.0563 29.6365 14.2728 29.6763 14.4834 29.7109L14.5029 29.7139C14.5968 29.7292 14.6888 29.7428 14.7783 29.7559L14.7793 29.7568C14.7952 29.7591 14.8517 29.7675 14.8945 29.7734C14.9941 29.7872 15.091 29.7993 15.1768 29.8096C15.2013 29.8125 15.2333 29.8153 15.2432 29.8164C15.3262 29.826 15.4092 29.8343 15.4922 29.8428C15.8873 30.7483 16.4892 31.4775 17.3232 32C14.8298 32 13.3071 30.9371 12.4707 29.2197ZM21.4023 28.9736C21.8858 30.2901 22.6651 31.3301 23.7344 32C20.9851 31.9999 19.3703 31.1744 18.498 29.8037C18.5449 29.7974 18.592 29.793 18.6387 29.7861C18.6579 29.7833 18.6736 29.781 18.6836 29.7793L18.7012 29.7764H18.6982C18.766 29.7659 18.8293 29.7561 18.8828 29.7471H18.8809C18.8809 29.7471 18.8837 29.7469 18.8887 29.7461C18.8961 29.7449 18.9153 29.742 18.9365 29.7383C19.0024 29.7268 19.0668 29.7143 19.1299 29.7021C19.1701 29.6944 19.2109 29.6871 19.252 29.6787L19.2529 29.6777C19.314 29.6652 19.3714 29.6531 19.4189 29.6426L19.5156 29.6211L19.5166 29.6201C19.5795 29.6055 19.6398 29.5913 19.6963 29.5771L19.6953 29.5762C19.7472 29.5632 19.8031 29.5493 19.8271 29.543C19.8709 29.5313 19.917 29.5183 19.9648 29.5049L20.1182 29.4609L20.1611 29.4482C20.1806 29.4425 20.2094 29.4338 20.2412 29.4238C20.2864 29.4097 20.3552 29.3871 20.3594 29.3857C20.4973 29.3408 20.6434 29.2902 20.793 29.2334L20.8076 29.2275C20.8076 29.2275 20.8044 29.2285 20.8018 29.2295C21.0032 29.1527 21.2028 29.0656 21.4023 28.9736ZM25.3379 4C31.749 4.00027 30.5078 11.1439 28.543 18.4971C27.285 23.1929 28.7502 25.4778 31.749 26.3115C29.8101 26.6234 28.3884 26.4734 27.4922 25.8496C27.5353 28.6698 28.3282 30.8586 30.1465 32C25.8714 32 24.3321 29.9993 24.0703 27.0498C24.4224 26.6669 24.7406 26.2492 25.0195 25.7939L25.0205 25.7949C25.8784 24.41 26.2656 22.8196 26.2656 21.1094C26.2656 19.7396 25.155 18.5387 25.4746 17.3193C27 11.5 28.4508 6.06207 25.3379 4ZM23.4551 11.6055H16.1113L15.8408 15.6289C15.8445 15.6278 15.8488 15.6261 15.8525 15.625C16.0238 15.5743 16.194 15.5316 16.3623 15.4941C16.3991 15.4859 16.436 15.4763 16.4727 15.4688C16.4924 15.4647 16.5125 15.4619 16.5322 15.458C16.7177 15.4215 16.9012 15.3923 17.083 15.3721C17.2696 15.3518 17.4637 15.3363 17.665 15.3252H17.6641C17.9096 15.3116 18.1663 15.3047 18.4336 15.3047C18.5586 15.3047 18.6817 15.307 18.8027 15.3115C18.9101 15.3155 19.0168 15.3215 19.1211 15.3291C19.1512 15.3313 19.1811 15.3344 19.2109 15.3369C19.2857 15.3431 19.3605 15.3493 19.4336 15.3574C19.4768 15.3622 19.5199 15.3686 19.5625 15.374C19.6279 15.3823 19.6928 15.3905 19.7568 15.4004C19.7875 15.4051 19.8182 15.41 19.8486 15.415C19.8643 15.4177 19.8799 15.4202 19.8955 15.4229H19.8965L20.0576 15.4531L20.1689 15.4766C20.2265 15.489 20.2835 15.5018 20.3398 15.5156C20.3872 15.5272 20.434 15.5402 20.4805 15.5527C20.525 15.5647 20.5695 15.577 20.6133 15.5898C20.6588 15.6032 20.7044 15.6175 20.749 15.6318C20.7992 15.6479 20.8493 15.6643 20.8984 15.6816C20.9345 15.6943 20.9703 15.7074 21.0059 15.7207C21.0599 15.741 21.1132 15.7624 21.166 15.7842C21.1981 15.7974 21.2301 15.8114 21.2617 15.8252C21.3095 15.8461 21.3567 15.8675 21.4033 15.8896C21.4442 15.909 21.4854 15.9289 21.5254 15.9492C21.5638 15.9687 21.602 15.9894 21.6396 16.0098C21.6774 16.0303 21.715 16.0509 21.752 16.0723C21.7945 16.0969 21.8364 16.1226 21.8779 16.1484C21.9119 16.1695 21.9462 16.19 21.9795 16.2119C22.0143 16.2348 22.0489 16.2594 22.083 16.2832C22.1219 16.3104 22.1613 16.3369 22.1992 16.3652C22.2283 16.387 22.2566 16.4102 22.2852 16.4326C22.3264 16.465 22.3682 16.4974 22.4082 16.5312C22.4337 16.5528 22.4584 16.5756 22.4834 16.5977C22.5212 16.6311 22.559 16.6645 22.5957 16.6992C22.6175 16.7199 22.6387 16.7416 22.6602 16.7627C22.7006 16.8025 22.7413 16.8423 22.7803 16.8838C23.7702 17.9277 24.2656 19.3365 24.2656 21.1094C24.2656 22.5133 23.9503 23.7243 23.3203 24.7412C22.714 25.7341 21.8711 26.503 20.793 27.0498C20.767 27.0631 20.7412 27.0769 20.7148 27.0898L20.4072 27.2324C20.303 27.2776 20.1969 27.3205 20.0898 27.3613L20.083 27.3633C19.9702 27.4061 19.8552 27.4466 19.7393 27.4844L19.6455 27.5146C19.6132 27.5247 19.5804 27.5343 19.5479 27.5439L19.4248 27.5791C19.3882 27.5894 19.3514 27.5996 19.3145 27.6094L19.209 27.6377C19.161 27.6497 19.1129 27.6616 19.0645 27.6729L18.9854 27.6904L18.8506 27.7188L18.751 27.7393L18.5928 27.7676L18.5498 27.7754C18.4865 27.7861 18.4225 27.7962 18.3584 27.8057L18.3486 27.8076L17.9844 27.8535C17.9145 27.861 17.8442 27.8669 17.7734 27.873L17.7725 27.8721C17.4702 27.8982 17.1597 27.9131 16.8408 27.9131C16.4963 27.9131 16.1419 27.8957 15.7783 27.8623C15.7742 27.8619 15.7698 27.8607 15.7656 27.8604C15.6684 27.8513 15.5703 27.8415 15.4717 27.8301C15.4527 27.8279 15.4331 27.8255 15.4141 27.8232C15.333 27.8135 15.251 27.8034 15.1689 27.792C15.1352 27.7873 15.1013 27.7823 15.0674 27.7773C14.9872 27.7656 14.9063 27.7535 14.8252 27.7402C14.8196 27.7393 14.8133 27.7382 14.8076 27.7373C14.6151 27.7056 14.4191 27.6701 14.2217 27.6299C13.3038 27.4499 12.5116 27.1392 11.8457 26.6982L12.8447 23.6748L12.9668 23.7803C13.2606 24.0228 13.6199 24.2392 14.0439 24.4297C14.1248 24.466 14.2085 24.5003 14.2939 24.5352C14.3412 24.5542 14.3888 24.5743 14.4375 24.5928C14.687 24.6872 14.9342 24.7633 15.1787 24.8223C15.2721 24.8448 15.3654 24.8645 15.458 24.8818C15.7699 24.9403 16.0774 24.9697 16.3809 24.9697C16.4615 24.9697 16.5434 24.968 16.626 24.9658C16.9654 24.9568 17.3202 24.9288 17.6914 24.8828H17.6924C17.7144 24.8801 17.7367 24.8788 17.7588 24.876C17.8752 24.859 17.9897 24.8372 18.1025 24.8115L18.4355 24.7227C18.518 24.6971 18.5991 24.6679 18.6797 24.6377C18.6974 24.6311 18.7148 24.624 18.7324 24.6172C18.8143 24.5853 18.8958 24.5526 18.9756 24.5156L19.1484 24.4307C19.2024 24.4014 19.2552 24.3698 19.3066 24.3369L19.457 24.2334C19.5205 24.186 19.5804 24.1337 19.6396 24.0801C19.8545 23.8857 20.0433 23.6522 20.2021 23.377C20.2645 23.2703 20.3188 23.1551 20.3672 23.0322C20.4076 22.9297 20.443 22.8209 20.4736 22.707C20.5704 22.3477 20.6201 21.9326 20.6201 21.4609C20.6201 21.3175 20.6133 21.1775 20.6006 21.042C20.596 20.994 20.5911 20.9464 20.585 20.8994C20.5714 20.7955 20.5536 20.6938 20.5322 20.5947C20.5221 20.5477 20.511 20.501 20.499 20.4551C20.4809 20.3852 20.4606 20.3163 20.4385 20.249C20.3498 19.9806 20.2285 19.7322 20.0752 19.5039C20.0027 19.396 19.9228 19.2926 19.8359 19.1934C19.749 19.0941 19.6552 18.9991 19.5537 18.9092C19.4855 18.8479 19.4148 18.7894 19.3408 18.7344C19.3341 18.7293 19.3271 18.7247 19.3203 18.7197C19.248 18.6669 19.173 18.617 19.0957 18.5693V18.5684C19.0056 18.5128 18.9126 18.4602 18.8154 18.4121C18.692 18.3511 18.5626 18.296 18.4277 18.2471C17.8838 18.0497 17.2468 17.9502 16.5166 17.9502C16.0127 17.9502 15.4994 17.9997 14.9775 18.0986C14.4646 18.1886 14.0009 18.3016 13.5869 18.4365C13.3245 18.5221 13.1075 18.6053 12.9355 18.6836C12.8363 18.7286 12.7517 18.7717 12.6826 18.8145L13.0332 8.74316H23.4551V11.6055ZM16.1387 19.9639C19.5537 19.7432 19 24 15.3701 22.7988C15.2971 22.7755 15.222 22.7506 15.1455 22.7217C15.1232 22.7132 15.1079 22.7064 15.0488 22.6826C14.9712 22.651 14.9126 22.6266 14.8633 22.6045C14.5229 22.4516 14.3141 22.3067 14.1904 22.1943L12.9072 21.0273L13.7178 20.5254C13.7262 20.5212 13.7404 20.5146 13.7617 20.5049L13.7646 20.5039C13.8519 20.4642 13.9959 20.4067 14.207 20.3379C14.5164 20.237 14.8866 20.145 15.3232 20.0684L15.3369 20.0664L15.3506 20.0635C15.6206 20.0123 15.8833 19.9804 16.1387 19.9639ZM23.543 13.6055C23.4688 13.9633 23.3864 14.3256 23.2959 14.6914L23.2266 14.6426C23.2127 14.6329 23.1427 14.5829 23.0791 14.541C23.0167 14.5 22.9364 14.451 22.9336 14.4492C22.897 14.4265 22.8284 14.3839 22.7539 14.3408C22.688 14.3027 22.6232 14.2675 22.5928 14.251C22.5507 14.2282 22.4933 14.1978 22.4307 14.166C22.3683 14.1343 22.3103 14.1055 22.2607 14.082C22.2016 14.054 22.1346 14.0237 22.0625 13.9922C22.0196 13.9735 21.9752 13.9544 21.9297 13.9355L21.709 13.8486C21.6752 13.8359 21.621 13.8155 21.5625 13.7949C21.4903 13.7695 21.4211 13.7464 21.3594 13.7266L21.1777 13.6709C21.107 13.6501 21.0374 13.6319 21.001 13.6221C20.9947 13.6204 20.9708 13.6139 20.9395 13.6055H23.543ZM9 1H1V9H0V0H9V1ZM36 9H35V1H27V0H36V9ZM12.5146 4C15.5208 4.00005 17.2053 5.05501 18.0039 6.74316H14.5732C14.1482 5.57231 13.4645 4.62918 12.5146 4ZM18.9258 4C21.3628 4 22.7861 5.04689 23.4717 6.74316H20.6992C20.4243 5.57076 19.8702 4.62548 18.9258 4Z" fill="white"/>
</svg>
