<svg width="64" height="64" viewBox="0 0 64 64" fill="none" xmlns="http://www.w3.org/2000/svg">
<path d="M4 60H16V64H0V48H4V60Z" fill="white"/>
<path d="M64 64H48V60H60V48H64V64Z" fill="white"/>
<path d="M37.1914 39.6406L22.6201 50.54L26.6992 56L9 55.1006L13.0732 37.7891L17.1709 43.2812L31.71 32.3711L37.1914 39.6406Z" fill="white"/>
<path d="M45.0176 49.5762L46.8379 48.3232L46.3242 54.0303L40.7998 52.499L42.6084 51.2461L39.2578 46.4395L41.6455 44.748L45.0176 49.5762Z" fill="white"/>
<path d="M48.7861 34.0098L57.2871 40.0156L54.2891 44.2764L45.7881 38.249L43.54 41.4395L40.8955 31.6328L51.0557 30.8193L48.7861 34.0098Z" fill="white"/>
<path d="M17.9736 28.1641L19.0664 25.3906L22.7705 32.1572L15.4453 34.5879L16.5391 31.8252L9.19531 28.9668L10.6094 25.2734L17.9736 28.1641Z" fill="white"/>
<path d="M39.6436 18.5498L34.8037 16.8262L30.2109 29.7373L23.7656 27.4463L28.3486 14.5352L23.5088 12.8164L35.0186 6L39.6436 18.5498Z" fill="white"/>
<path d="M53.6152 20.0811L56.0342 17.8428L56.4844 26.4082L47.9619 25.3057L50.3926 23.0674L44.418 16.623L47.6406 13.627L53.6152 20.0811Z" fill="white"/>
<path d="M15.626 7.61133L15.1094 14.0469L17.5137 14.2393L13.1279 18.7314L9.48828 13.585L11.9062 13.79L12.417 7.37012L15.626 7.61133Z" fill="white"/>
<path d="M16 4H4V16H0V0H16V4Z" fill="white"/>
<path d="M64 16H60V4H48V0H64V16Z" fill="white"/>
</svg>
