<svg width="36" height="36" viewBox="0 0 36 36" fill="none" xmlns="http://www.w3.org/2000/svg">
<path d="M1 35H9V36H0V27H1V35Z" fill="#B9B29D"/>
<path d="M36 36H27V35H35V27H36V36Z" fill="#B9B29D"/>
<path d="M20.9202 22.2979L12.7238 28.4288L15.0183 31.5L5.0625 30.9941L7.3537 21.2563L9.65863 24.3457L17.8369 18.2087L20.9202 22.2979Z" fill="#B9B29D"/>
<path d="M25.3224 27.8866L26.3463 27.1818L26.0574 30.392L22.9499 29.5307L23.9672 28.8259L22.0825 26.1222L23.4256 25.1708L25.3224 27.8866Z" fill="#B9B29D"/>
<path d="M27.4422 19.1305L32.224 22.5088L30.5376 24.9055L25.7558 21.5151L24.4913 23.3097L23.0037 17.7935L28.7188 17.3359L27.4422 19.1305Z" fill="#B9B29D"/>
<path d="M10.1102 15.8423L10.7249 14.2822L12.8084 18.0884L8.68799 19.4557L9.30322 17.9017L5.17236 16.2938L5.96777 14.2163L10.1102 15.8423Z" fill="#B9B29D"/>
<path d="M22.2995 10.4343L19.5771 9.46472L16.9937 16.7272L13.3682 15.4385L15.9461 8.17603L13.2237 7.20923L19.6979 3.375L22.2995 10.4343Z" fill="#B9B29D"/>
<path d="M30.1586 11.2956L31.5192 10.0366L31.7725 14.8546L26.9786 14.2344L28.3458 12.9754L24.9851 9.35046L26.7979 7.66516L30.1586 11.2956Z" fill="#B9B29D"/>
<path d="M8.78961 4.28137L8.49902 7.90137L9.85144 8.00958L7.38446 10.5364L5.33716 7.64154L6.69727 7.7569L6.98456 4.14569L8.78961 4.28137Z" fill="#B9B29D"/>
<path d="M9 1H1V9H0V0H9V1Z" fill="#B9B29D"/>
<path d="M36 9H35V1H27V0H36V9Z" fill="#B9B29D"/>
</svg>
