<svg width="36" height="36" viewBox="0 0 36 36" fill="none" xmlns="http://www.w3.org/2000/svg">
<path d="M1 35H9V36H0V27H1V35Z" fill="white"/>
<path d="M36 36H27V35H35V27H36V36Z" fill="white"/>
<path d="M9 1H1V9H0V0H9V1Z" fill="white"/>
<path d="M36 9H35V1H27V0H36V9Z" fill="white"/>
<path d="M32 4.02002L26.0588 4.02608V9.96002H32V4.02002ZM25 4.02708L21.6888 4.73678L19.8647 8.52273L13.8921 6.4079L11 9.96002H25V4.02708ZM4 11.0188V14.6441L4.73035 16.5254L6.62206 17.4894H17.4706V11.0188H4ZM18.5294 11.0188V17.4894H32V11.0188H18.5294ZM7.42906 21.936L4 22.5014V25.0188H9.94118V18.5483H6.78335L7.42906 21.936ZM11 18.5483V25.0188H25C22.1513 18.5523 24.9966 24.9459 22.1634 18.5483H11ZM4 26.0777V32.0177L15.7059 32.0038L17.4706 26.0777H4ZM18.5294 26.0777V29.3594C22.4157 32.0195 18.5215 29.3578 22.3999 31.9988L32 31.9888V26.0777H18.5294Z" fill="white"/>
</svg>
