<svg width="36" height="36" viewBox="0 0 36 36" fill="none" xmlns="http://www.w3.org/2000/svg">
<path d="M1 35H9V36H0V27H1V35ZM36 36H27V35H35V27H36V36ZM14.7256 32L10.2744 26.1602H11.3076L14.7256 32ZM25.3086 32L22.3848 29.5625H24.0068L25.3086 30.6406L32 27.918L25.3086 32ZM23.2744 21.541H25.542V24.1602H23.2744V27.5625H19.7373V24.1602H10.8271L10.6377 23.8633L13.874 16.8105L15.8555 12.4932L17.5771 8.74316H23.2744V21.541ZM8.36621 24.0186L8.87598 24.8213L4 26.416L8.42871 23.8809L8.36621 24.0186ZM32 25.1221L27.542 22.3438V21.7666L32 25.1221ZM16.9834 18.1934L15.4443 21.541H19.8994L20.0205 10.6738L16.9834 18.1934ZM10.9346 8.6123L13.29 9.63574L13.3691 9.72363L14.3994 10.8711L13.8975 11.9639L12.6279 10.5498L8.11133 8.58691L9.2002 13.8721L12.709 14.5537L11.998 16.1035L11.8594 16.0518L11.6221 15.9844L11.4873 15.9121L8.61621 14.8301L4 13L8.07129 13.8594L6.89551 8.14844L6.88574 8.15918L4 5.48535L7.28613 7.02637L9.90234 8.16504L14.125 4L10.9346 8.6123ZM25.2744 14.9297V13.4121L32 9.43457L25.2744 14.9297ZM9 1H1V9H0V0H9V1ZM36 9H35V1H27V0H36V9ZM27.5 6.5L25.2744 7.6123V6.74316H24.3018L27 6L28.7363 4L27.5 6.5ZM21.3984 6.74316H20.4775L19.6533 4L21.3984 6.74316Z" fill="white"/>
</svg>
