<svg width="36" height="36" viewBox="0 0 36 36" fill="none" xmlns="http://www.w3.org/2000/svg">
<path d="M1 35H9V36H0V27H1V35Z" fill="#444856"/>
<path d="M36 36H27V35H35V27H36V36Z" fill="#444856"/>
<path fill-rule="evenodd" clip-rule="evenodd" d="M19.5459 4C20.6922 4.01038 21.888 4.2326 23.1172 4.70508C20.6283 4.65474 18.6356 5.40209 17.0693 6.58789C20.801 5.13682 25.9716 4.96688 29.1611 10.4873C27.1505 8.85075 25.0304 8.2248 22.9902 8.24316C23.0928 8.29298 23.1949 8.34441 23.2959 8.39746C34.1942 13.6082 33.9718 27.027 25.9062 31.7354C28.7272 27.5672 29.4482 23.5564 29.1533 20.4795C29.1381 23.7989 27.9919 27.5106 23.5742 31.1006C24.2864 29.9228 24.7106 28.7543 24.9082 27.6152C22.7438 30.7404 18.9435 33.3917 13.4902 31.1885C15.3994 31.2271 17.0178 30.7973 18.376 30.0605C14.4537 30.6443 9.64334 30.3654 5.03418 24.6934C6.43025 25.5375 7.81387 25.9778 9.15039 26.1143C2.69597 20.3258 3.40557 10.162 8.54785 6.41797C6.36719 10.4499 6.33978 15.2894 7.37012 18.5322C7.36272 18.3677 7.3584 18.2015 7.3584 18.0352C7.35845 16.8156 7.55956 15.6421 7.93066 14.5469C9.37644 9.09409 13.8581 3.94871 19.5459 4ZM10.1367 12.542C9.52658 13.4411 9.07073 14.436 8.78906 15.4854C8.68838 17.1924 8.87235 19.4102 12.0869 20.1602C10.4752 20.3581 9.31885 19.8751 8.51172 19.1025C8.77081 21.5 9.89356 23.6355 11.5625 25.1934C11.5501 23.2579 12.3671 20.8398 15.4521 20.4062C12.9199 21.8005 12.7207 24.4437 13.2197 26.4414C14.5529 27.2387 16.0923 27.7276 17.7402 27.8105C16.9339 27.2371 16.2876 26.4421 15.9209 25.4873C15.0727 23.278 15.9956 20.5555 18.3203 19.6748C18.7679 19.5053 19.2416 19.4262 19.7109 19.4316C21.1185 19.4478 22.4897 20.23 23.0186 21.6543C23.5583 23.1084 22.9438 24.8961 21.3945 25.4619C20.2809 25.8684 18.9275 25.4409 18.3975 24.3242C18.2986 24.1487 18.2423 23.9462 18.2422 23.7305C18.2422 23.0609 18.7845 22.5176 19.4541 22.5176C20.1234 22.5176 20.6658 23.0602 20.666 23.7295C20.6664 24.0139 20.5668 24.29 20.3838 24.5078C20.595 24.5307 20.8142 24.5072 21.0186 24.4326C21.9422 24.0953 22.3343 22.9607 21.9912 22.0361C21.5162 20.7567 19.9674 20.2236 18.709 20.7002C17.0033 21.3465 16.2995 23.4155 16.9443 25.0947C17.4496 26.4103 18.6754 27.3707 20.0654 27.6416L20.0635 27.6543C21.8848 27.3124 23.5272 26.4674 24.8408 25.2686C25.456 22.4038 24.9892 20.3137 23.9023 19.1738C22.78 17.9969 20.9094 17.6633 18.3525 18.6318C15.5406 19.6966 13.1 19.3702 11.6211 17.8193C10.4799 16.6224 9.96383 14.7967 10.1367 12.542ZM18.3555 8.24902C19.3211 8.92634 20.0605 9.91623 20.3721 11.1035C20.9638 13.3594 19.7648 15.9261 17.3916 16.5361C15.565 17.0054 13.489 16.0243 13.0039 14.0869C12.6329 12.6043 13.4292 10.92 15.0088 10.5342C15.9812 10.2968 17.0591 10.6781 17.5986 11.5166C17.7978 11.7325 17.9208 12.0201 17.9209 12.3369C17.9209 13.0065 17.3774 13.5498 16.708 13.5498C16.0385 13.5497 15.4961 13.0063 15.4961 12.3369C15.4959 12.0584 15.5915 11.788 15.7676 11.5723C15.6028 11.5509 15.4329 11.5585 15.2686 11.5986C14.336 11.8265 13.8333 12.8863 14.0674 13.8213C14.392 15.117 15.8433 15.8026 17.1191 15.4746C18.851 15.0294 19.7592 13.0884 19.3115 11.3818C18.927 9.91685 17.665 8.79823 16.1865 8.46387C14.3826 8.84839 12.763 9.72867 11.4785 10.9561C10.8594 13.8272 11.3265 15.922 12.415 17.0635C13.5374 18.2402 15.4082 18.5744 17.9648 17.6064C20.7768 16.5415 23.2174 16.8662 24.6963 18.417C25.8511 19.628 26.3663 21.4827 26.1748 23.7744C26.842 22.8531 27.3532 21.8105 27.668 20.6855C27.7858 18.9615 27.6858 16.6394 24.3799 15.8682C24.6535 15.8346 24.9141 15.8205 25.1621 15.8242C26.3826 15.8426 27.2974 16.291 27.9688 16.9395C27.6854 14.3904 26.4264 12.1388 24.5723 10.5664C24.7381 12.5598 24.0706 15.3961 20.7041 15.8691C23.4372 14.3645 23.4528 11.406 22.8057 9.37305C21.4749 8.67138 19.9621 8.26721 18.3555 8.24902Z" fill="#444856"/>
<path d="M9 1H1V9H0V0H9V1Z" fill="#444856"/>
<path d="M36 9H35V1H27V0H36V9Z" fill="#444856"/>
</svg>
