<svg width="36" height="36" viewBox="0 0 36 36" fill="none" xmlns="http://www.w3.org/2000/svg">
<path d="M1 35H9V36H0V27H1V35Z" fill="#444856"/>
<path d="M36 36H27V35H35V27H36V36Z" fill="#444856"/>
<path fill-rule="evenodd" clip-rule="evenodd" d="M18.5625 5.625C24.75 5.625 30.9375 8.71879 30.9375 13.3594C30.9375 16.4532 28.6172 18 28.6172 21.0938C28.6172 23.4141 29.3906 23.4141 29.3906 24.9609C29.3906 25.7343 26.915 26.6111 24.75 27.2812V30.375H12.375V27.2812C12.3385 27.27 7.70552 25.8363 7.73438 24.9609C7.78248 23.5199 8.50781 23.414 8.50781 21.0938C8.50781 19.5469 6.15485 16.3798 6.18805 13.3594C6.18805 8.71873 12.3751 5.62505 18.5625 5.625ZM18.5625 20.3203C17.789 20.3207 16.2423 23.414 16.2422 24.1875C16.2422 25.7342 16.2423 25.7344 17.0156 25.7344H20.1094C20.8828 25.7344 20.8828 25.7344 20.8828 24.1875C20.8828 23.4141 19.3359 20.3203 18.5625 20.3203ZM13.9219 14.9062C12.2134 14.9064 10.8281 16.2915 10.8281 18C10.8281 19.7085 12.2134 21.0936 13.9219 21.0938C15.6305 21.0938 17.0156 19.7086 17.0156 18C17.0156 16.2914 15.6305 14.9062 13.9219 14.9062ZM23.2031 14.9062C21.4946 14.9063 20.1094 16.2915 20.1094 18C20.1094 19.7085 21.4946 21.0937 23.2031 21.0938C24.9116 21.0937 26.2968 19.7086 26.2969 18C26.2969 16.2914 24.9117 14.9062 23.2031 14.9062Z" fill="#444856"/>
<path d="M9 1H1V9H0V0H9V1Z" fill="#444856"/>
<path d="M36 9H35V1H27V0H36V9Z" fill="#444856"/>
</svg>
