<svg width="36" height="36" viewBox="0 0 36 36" fill="none" xmlns="http://www.w3.org/2000/svg">
<path d="M1 35H9V36H0V27L1 27.0104V35Z" fill="#B9B29D"/>
<path d="M36 36H27V35H35V27.0104L36 27V36Z" fill="#B9B29D"/>
<path d="M25.8673 12.8881C25.9478 13.9401 25.8308 15.0933 25.485 16.3521C24.1916 21.0606 18.7631 21.2674 18.763 24.8698C18.763 31.1024 11.4244 32.6795 10.0036 28.7507L12.6584 26.0975C12.8722 26.984 13.216 27.5672 13.7444 27.8438C13.9553 27.9537 14.19 28.0101 14.4278 28.0085C14.9644 28.0085 15.5876 27.7434 16.3109 27.2109L15.7544 26.4551C15.2548 26.8226 14.5759 27.2177 14.1784 27.0104C13.9371 26.8853 13.6439 26.4752 13.4566 25.2988L25.8673 12.8881Z" fill="#B9B29D"/>
<path d="M30.0119 7.41632L6.97522 30.453L5.625 29.1028L28.6617 6.0661L30.0119 7.41632Z" fill="#B9B29D"/>
<path d="M9.76904 12.3464C9.76904 5.67109 18.37 4.63348 21.3618 6.36658C22.6047 7.08403 23.6453 7.95302 24.4149 8.98517L16.2861 17.114C16.2469 17.0636 16.2058 17.0138 16.1636 16.9645C15.4244 16.1103 14.4157 15.692 13.3835 15.7901C13.3953 15.216 13.4011 14.6339 13.4011 14.0438C13.4891 13.7773 14.3235 12.6175 15.544 12.1531C16.3207 11.8554 17.0603 11.9355 17.7407 12.3882L18.2609 11.606C17.1877 10.892 15.9796 10.8455 14.7673 11.4714C14.3381 11.6985 13.9409 11.9813 13.5851 12.3118C13.9115 10.9433 14.6683 10.0274 15.8214 9.63116C17.5985 9.01947 20.0264 9.79644 20.8526 10.8484L21.5914 10.2684C20.5358 8.92338 17.7129 7.98515 15.5154 8.74182C14.6123 9.04336 13.8423 9.65031 13.338 10.4579C12.7603 11.3684 12.4653 12.5604 12.4618 13.9999C12.4583 15.4712 12.4238 16.8983 12.3904 18.278C12.3663 19.2836 12.3464 20.2114 12.3382 21.0597L9.76904 23.631V12.3464Z" fill="#B9B29D"/>
<path d="M13.3649 16.7371C14.1304 16.6303 14.8934 16.9324 15.4517 17.5781H15.4534C15.5104 17.6441 15.5638 17.7132 15.6138 17.7847L13.2885 20.1099C13.3007 19.5295 13.3145 18.9261 13.3297 18.2999C13.3434 17.7857 13.3551 17.2647 13.3649 16.7371Z" fill="#B9B29D"/>
<path d="M9 1H1V9H0V0H9V1Z" fill="#B9B29D"/>
<path d="M36 9H35V1H27V0H36V9Z" fill="#B9B29D"/>
</svg>
