<svg width="64" height="64" viewBox="0 0 64 64" fill="none" xmlns="http://www.w3.org/2000/svg">
<path d="M4 60H16V64H0V48H4V60Z" fill="white"/>
<path d="M64 64H48V60H60V48H64V64Z" fill="white"/>
<path d="M45.9863 22.9121C46.1294 24.7825 45.9214 26.8326 45.3066 29.0703C43.0073 37.441 33.3566 37.8087 33.3564 44.2129C33.3564 55.2932 20.31 58.0969 17.7842 51.1123L22.5039 46.3955C22.8839 47.9715 23.4952 49.0084 24.4346 49.5C24.8094 49.6954 25.2267 49.7958 25.6494 49.793C26.6034 49.793 27.7112 49.3217 28.9971 48.375L28.0078 47.0312C27.1196 47.6846 25.9127 48.387 25.2061 48.0186C24.7771 47.7961 24.2558 47.0669 23.9229 44.9756L45.9863 22.9121Z" fill="white"/>
<path d="M53.3545 13.1846L12.4004 54.1387L10 51.7383L50.9541 10.7842L53.3545 13.1846Z" fill="white"/>
<path d="M17.3672 21.9492C17.3672 10.0819 32.6577 8.2373 37.9766 11.3184C40.1862 12.5938 42.0361 14.1387 43.4043 15.9736L28.9531 30.4248C28.8833 30.3352 28.8104 30.2467 28.7354 30.1592C27.4212 28.6405 25.6278 27.897 23.793 28.0713C23.8139 27.0507 23.8242 26.0158 23.8242 24.9668C23.9807 24.493 25.4639 22.4311 27.6338 21.6055C29.0146 21.0763 30.3294 21.2188 31.5391 22.0234L32.4639 20.6328C30.556 19.3636 28.4082 19.281 26.2529 20.3936C25.49 20.7974 24.7838 21.3002 24.1514 21.8877C24.7316 19.4548 26.0771 17.8266 28.127 17.1221C31.2862 16.0346 35.6026 17.4159 37.0713 19.2861L38.3848 18.2549C36.5081 15.8638 31.4897 14.1958 27.583 15.541C25.9774 16.0771 24.6085 17.1561 23.7119 18.5918C22.685 20.2105 22.1606 22.3296 22.1543 24.8887C22.148 27.5043 22.0868 30.0414 22.0273 32.4941C21.9846 34.282 21.9492 35.9313 21.9346 37.4395L17.3672 42.0107V21.9492Z" fill="white"/>
<path d="M23.7598 29.7549C25.1208 29.565 26.4772 30.102 27.4697 31.25H27.4727C27.574 31.3674 27.6689 31.4901 27.7578 31.6172L23.624 35.751C23.6456 34.7192 23.6702 33.6464 23.6973 32.5332C23.7216 31.619 23.7423 30.6927 23.7598 29.7549Z" fill="white"/>
<path d="M16 4H4V16H0V0H16V4Z" fill="white"/>
<path d="M64 16H60V4H48V0H64V16Z" fill="white"/>
</svg>
