<svg width="36" height="36" viewBox="0 0 36 36" fill="none" xmlns="http://www.w3.org/2000/svg">
<path d="M1 35H9V36H0V27H1V35ZM36 36H27V35H35V27H36V36ZM5.60254 4C13.617 4 12.5828 11.4975 10.0664 18.5029C9.42104 20.3013 8.91311 21.9918 8.58594 23.5381L8.46191 24.1689C7.7871 27.844 8.22493 30.6304 10.4111 32C4.00002 31.9997 4.00037 24.9742 7.20605 17.8311C7.4301 16.9914 7.62809 16.1576 7.7832 15.3359C8.1279 11.8153 6.58523 10.0762 4 9.35645C5.92174 9.04456 7.32642 9.19417 8.22266 9.79395C8.06754 7.20291 7.26575 5.10359 5.60254 4ZM11.1914 26.1602C11.1914 26.1602 14.543 25.2414 14.5 26.5C14.408 29.1898 15.0514 30.8901 16.8232 32C13.0672 32 11.5117 29.5895 11.1914 26.1602ZM17.8555 29.5625C17.8555 29.5625 20.6012 28.3987 21.1455 29.5625C21.6318 30.6021 22.3298 31.4333 23.2344 32C20.3274 31.9999 18.6888 31.0771 17.8555 29.5625ZM25.2744 26.1602C25.8607 25.8263 27.002 26.1602 27.002 26.1602C27.0972 28.8304 27.8954 30.9008 29.6465 32C26.7443 32 25.1036 31.0774 24.2666 29.5625C24.2666 29.5625 24.6226 29.1118 25 29C26.274 28.6226 24.3062 26.7116 25.2744 26.1602ZM17.126 26.1602C17.126 26.1602 17.5029 26.115 17.7373 26.1602C18.954 26.3946 17.7373 29.333 17.7373 29.333C17.3092 28.4407 17.1331 27.3636 17.126 26.1602ZM23.2744 8.74316V21.541H25.542V24.1602H23.2744V27.5625H19.7373V24.1602H10.8271L10.6377 23.8633L11.3174 22.3799L11.3184 22.3789L17.5771 8.74316H23.2744ZM24.8379 4C31.249 4.00027 30.0078 11.1439 28.043 18.4971C26.785 23.1929 28.2502 25.4778 31.249 26.3115C29.6677 26.5659 28.4308 26.512 27.542 26.1455C27.542 26.1455 28 21.5 26 20C25.2916 19.4687 25.2744 19.541 25.2744 19.541V16.2051C26.6928 10.8865 27.7484 5.92796 24.8379 4ZM16.9834 18.1934L15.4443 21.541H19.8994L19.998 12.6826V12.6816L20.0205 10.6738L16.9834 18.1934ZM12.0146 4C15.0208 4.00005 16.7053 5.05501 17.5039 6.74316C17.5039 6.74316 16.7535 6.63328 16.2939 6.74316C14.739 7.11498 14.5859 10.4639 14.5859 10.4639C14.685 7.55551 13.8331 5.2045 12.0146 4ZM9 1H1V9H0V0H9V1ZM36 9H35V1H27V0H36V9ZM18.4258 4C20.8628 4 22.2861 5.04689 22.9717 6.74316C22.9717 6.74316 20.4464 7.79729 20.1992 6.74316C19.9243 5.57076 19.3702 4.62548 18.4258 4Z" fill="white"/>
</svg>
