<svg width="36" height="36" viewBox="0 0 36 36" fill="none" xmlns="http://www.w3.org/2000/svg">
<path d="M1 35H9V36H0V27H1V35Z" fill="white"/>
<path d="M36 36H27V35H35V27H36V36Z" fill="white"/>
<path d="M9 1H1V9H0V0H9V1Z" fill="white"/>
<path d="M36 9H35V1H27V0H36V9Z" fill="white"/>
<path d="M7.1001 4C6.18113 4 5.47836 4.36436 4.99143 5.09283C4.50823 5.81776 4.26662 6.87216 4.26662 8.25595C4.26662 9.63615 4.50829 10.6904 4.99155 11.419C5.47836 12.1438 6.18125 12.5062 7.10022 12.5062C8.01901 12.5062 8.72022 12.1438 9.20342 11.419C9.69023 10.6904 9.93363 9.63615 9.93363 8.25595C9.93363 6.87216 9.69023 5.81776 9.20342 5.09295C8.72016 4.36436 8.01894 4 7.1001 4ZM21.4216 4C20.5027 4 19.7998 4.36436 19.313 5.09283C18.8297 5.81776 18.588 6.87216 18.588 8.25595C18.588 9.63615 18.8297 10.6904 19.3129 11.419C19.7999 12.1438 20.5028 12.5062 21.4217 12.5062C22.3407 12.5062 23.0417 12.1438 23.5248 11.419C24.0118 10.6904 24.2553 9.63615 24.2553 8.25595C24.2553 6.87216 24.0118 5.81776 23.5248 5.09295C23.0416 4.36436 22.3405 4 21.4216 4ZM28.5824 4C27.6636 4 26.9606 4.36436 26.4737 5.09283C25.9905 5.81776 25.7489 6.87216 25.7489 8.25595C25.7489 9.63615 25.9904 10.6904 26.4737 11.419C26.9606 12.1438 27.6636 12.5062 28.5824 12.5062C29.5013 12.5062 30.2024 12.1438 30.6856 11.419C31.1725 10.6904 31.4159 9.63615 31.4159 8.25595C31.4159 6.87216 31.1725 5.81776 30.6855 5.09295C30.2023 4.36436 29.5013 4 28.5824 4ZM13.882 4.1484L11.9216 4.54375V5.55418L13.8929 5.15884V11.4134H12.0809V12.3471H16.8034V11.4134H14.9912V4.1484H13.882ZM7.1001 4.87874C7.67483 4.87874 8.105 5.16064 8.39057 5.72444C8.6798 6.28451 8.82435 7.12835 8.82435 8.25595C8.82435 9.37983 8.6798 10.2237 8.39057 10.7875C8.10494 11.3475 7.67483 11.6276 7.1001 11.6276C6.52897 11.6276 6.09891 11.3475 5.80969 10.7875C5.52418 10.2237 5.38137 9.37983 5.38137 8.25595C5.38137 7.12835 5.52418 6.28451 5.80969 5.72444C6.09891 5.16064 6.52897 4.87874 7.1001 4.87874ZM21.4216 4.87874C21.9964 4.87874 22.4266 5.16064 22.7121 5.72444C23.0013 6.28451 23.146 7.12835 23.146 8.25595C23.146 9.37983 23.0013 10.2237 22.7121 10.7875C22.4266 11.3475 21.9964 11.6276 21.4216 11.6276C20.8506 11.6276 20.4204 11.3475 20.1312 10.7875C19.8455 10.2237 19.7027 9.37983 19.7027 8.25595C19.7027 7.12835 19.8455 6.28451 20.1312 5.72444C20.4203 5.16064 20.8506 4.87874 21.4216 4.87874ZM28.5824 4.87874C29.1572 4.87874 29.5874 5.16064 29.8729 5.72444C30.1621 6.28451 30.3067 7.12835 30.3067 8.25595C30.3067 9.37983 30.1621 10.2237 29.8729 10.7875C29.5873 11.3475 29.1572 11.6276 28.5824 11.6276C28.0113 11.6276 27.5812 11.3475 27.2919 10.7875C27.0063 10.2237 26.8636 9.37983 26.8636 8.25595C26.8636 7.12835 27.0064 6.28451 27.2919 5.72444C27.5812 5.16064 28.0113 4.87874 28.5824 4.87874ZM7.1001 13.7469C6.18113 13.7469 5.47836 14.1112 4.99143 14.8398C4.50823 15.5646 4.26662 16.619 4.26662 18.0028C4.26662 19.383 4.50829 20.4373 4.99155 21.1658C5.47836 21.8906 6.18125 22.2531 7.10022 22.2531C8.01901 22.2531 8.72022 21.8906 9.20342 21.1658C9.69023 20.4373 9.93363 19.383 9.93363 18.0028C9.93363 16.619 9.69023 15.5646 9.20342 14.8398C8.72016 14.1112 8.01894 13.7469 7.1001 13.7469ZM14.2609 13.7469C13.3419 13.7469 12.639 14.1112 12.1522 14.8398C11.6689 15.5646 11.4273 16.619 11.4273 18.0028C11.4273 19.383 11.6688 20.4373 12.1521 21.1658C12.6389 21.8906 13.342 22.2531 14.2608 22.2531C15.1798 22.2531 15.8808 21.8906 16.3641 21.1658C16.8511 20.4373 17.0945 19.383 17.0945 18.0028C17.0945 16.619 16.8511 15.5646 16.3642 14.8398C15.881 14.1112 15.1798 13.7469 14.2609 13.7469ZM21.0428 13.8953L19.0823 14.2906V15.3011L21.0537 14.9055V21.1603H19.2417V22.0939H23.9642V21.1603H22.152V13.8953L21.0428 13.8953ZM28.2035 13.8953L26.2431 14.2906V15.3011L28.2146 14.9055V21.1603H26.4024V22.0939H31.125V21.1603H29.3129V13.8953L28.2035 13.8953ZM7.1001 14.6255C7.67489 14.6255 8.10507 14.9074 8.39063 15.4712C8.67986 16.0313 8.82441 16.8753 8.82441 18.0028C8.82441 19.1266 8.67986 19.9705 8.39063 20.5343C8.105 21.0944 7.67489 21.3745 7.10016 21.3745C6.52903 21.3745 6.09898 21.0945 5.80975 20.5343C5.52425 19.9705 5.38143 19.1266 5.38143 18.0028C5.38143 16.8753 5.52425 16.0313 5.80975 15.4712C6.09898 14.9074 6.52897 14.6255 7.1001 14.6255ZM14.2609 14.6255C14.8357 14.6255 15.2658 14.9074 15.5514 15.4712C15.8408 16.0313 15.9852 16.8753 15.9852 18.0028C15.9852 19.1266 15.8407 19.9705 15.5515 20.5343C15.266 21.0944 14.8358 21.3745 14.2611 21.3745C13.6899 21.3745 13.2598 21.0945 12.9706 20.5343C12.685 19.9705 12.5421 19.1266 12.5421 18.0028C12.5421 16.8753 12.685 16.0313 12.9706 15.4712C13.2598 14.9074 13.6898 14.6255 14.2609 14.6255ZM14.2609 23.4938C13.342 23.4938 12.6391 23.858 12.1523 24.5866C11.6689 25.3114 11.4273 26.3657 11.4273 27.7496C11.4273 29.1297 11.6689 30.1841 12.1522 30.9126C12.639 31.6375 13.342 32 14.2609 32C15.1798 32 15.8809 31.6374 16.3642 30.9126C16.8511 30.184 17.0946 29.1296 17.0946 27.7496C17.0946 26.3656 16.8512 25.3114 16.3643 24.5866C15.8811 23.858 15.1798 23.4938 14.2609 23.4938ZM21.4217 23.4938C20.5027 23.4938 19.7998 23.858 19.313 24.5866C18.8298 25.3114 18.5881 26.3657 18.5881 27.7496C18.5881 29.1297 18.8298 30.1841 19.313 30.9126C19.8 31.6375 20.5029 32 21.4218 32C22.3407 32 23.0418 31.6374 23.5248 30.9126C24.0118 30.184 24.2554 29.1296 24.2554 27.7496C24.2554 26.3656 24.0118 25.3114 23.5249 24.5866C23.0417 23.858 22.3406 23.4938 21.4217 23.4938ZM6.72127 23.6421L4.76088 24.0374V25.0478L6.73232 24.6525V30.9072H4.92002V31.8405H9.6426V30.9072H7.83055V23.642L6.72127 23.6421ZM28.2035 23.6421L26.2432 24.0374V25.0478L28.2146 24.6525V30.9072H26.4023V31.8405H31.1249V30.9072H29.3128V23.642L28.2035 23.6421ZM14.261 24.3724C14.8357 24.3724 15.2659 24.6543 15.5515 25.2181C15.8408 25.7782 15.9853 26.622 15.9853 27.7496C15.9853 28.8735 15.8408 29.7173 15.5515 30.2812C15.266 30.8412 14.8358 31.1213 14.2611 31.1213C13.69 31.1213 13.2598 30.8412 12.9706 30.2812C12.685 29.7173 12.5422 28.8735 12.5422 27.7496C12.5422 26.622 12.685 25.7782 12.9706 25.2181C13.2598 24.6543 13.6899 24.3724 14.261 24.3724ZM21.4218 24.3724C21.9966 24.3724 22.4267 24.6543 22.7122 25.2181C23.0015 25.7782 23.1461 26.622 23.1461 27.7496C23.1461 28.8735 23.0014 29.7173 22.7122 30.2812C22.4267 30.8412 21.9966 31.1213 21.4218 31.1213C20.8507 31.1213 20.4205 30.8412 20.1313 30.2812C19.8457 29.7173 19.7029 28.8735 19.7029 27.7496C19.7029 26.622 19.8457 25.7782 20.1313 25.2181C20.4205 24.6543 20.8507 24.3724 21.4218 24.3724Z" fill="white"/>
</svg>
