<svg width="36" height="36" viewBox="0 0 36 36" fill="none" xmlns="http://www.w3.org/2000/svg">
<path d="M1 35H9V36H0V27H1V35Z" fill="#444856"/>
<path d="M36 36H27V35H35V27H36V36Z" fill="#444856"/>
<path d="M9 1H1V9H0V0H9V1Z" fill="#444856"/>
<path d="M36 9H35V1H27V0H36V9Z" fill="#444856"/>
<path d="M17.3028 2.5V5.044C15.3589 5.12656 13.4316 5.63818 11.6715 6.57392L13.0179 8.94596C14.4673 8.19281 16.1102 7.76785 17.8513 7.76785C23.7265 7.76785 28.4772 12.6018 28.4772 18.58C28.4772 20.293 28.0851 21.9116 27.3902 23.3499L27.0147 23.1859L25.35 22.3899C24.0213 25.2399 21.1675 27.21 17.861 27.21C17.327 27.21 16.8043 27.1602 16.2984 27.0619L15.8345 29.1979C10.9255 28.2413 7.22329 23.8565 7.22329 18.58C7.22329 16.8621 7.61748 15.2392 8.31622 13.7979L5.96935 12.42C3.44038 17.4312 4.1912 23.6679 8.10394 27.914L6.14628 29.906L6.9778 30.7519L10.211 27.4619C11.7214 28.8085 13.5771 29.7617 15.6243 30.1679L15.1879 32.18C15.2832 32.2013 15.3776 32.2207 15.4728 32.2399H15.4749C15.8554 32.3166 16.2366 32.3775 16.6168 32.42H16.6187C16.8087 32.4411 16.9994 32.4571 17.1888 32.4699C17.4738 32.4891 17.7584 32.4992 18.0417 32.5C19.6742 32.5038 21.2717 32.203 22.7651 31.6319C22.9137 31.575 23.0629 31.516 23.2094 31.4539C23.9764 31.128 24.7121 30.7302 25.4069 30.2659C25.4841 30.2147 25.5607 30.1627 25.6368 30.1099C25.7891 30.0031 25.9392 29.8931 26.087 29.7799C26.7578 29.2685 27.3797 28.6939 27.9445 28.0637C28.0074 27.9931 28.0696 27.9218 28.1311 27.8498C28.1928 27.7785 28.2538 27.7065 28.314 27.6339V27.6318C28.374 27.5588 28.4342 27.4862 28.4929 27.4118V27.4097C28.5519 27.335 28.6102 27.2597 28.6677 27.1838C28.8409 26.9539 29.0067 26.7185 29.165 26.4778C29.218 26.3973 29.2708 26.3176 29.3223 26.2358C29.4425 26.0435 29.5579 25.8481 29.6682 25.6497L31.9759 26.6598L32.4397 25.5617L28.2864 23.7417C29.0277 22.1942 29.4474 20.458 29.454 18.6236H31.2189C31.2189 17.5567 31.0955 16.5039 30.8573 15.4838L33.4286 15.1739L33.291 13.9859L30.5313 14.3179C29.8217 12.1557 28.5887 10.21 26.946 8.65994C25.3994 7.2001 23.603 6.18442 21.7097 5.60586L22.3485 3.18192L21.2145 2.8719L20.5716 5.31197C19.8818 5.16745 19.1819 5.07851 18.4784 5.04599V2.5H17.3028ZM10.6554 7.17392C9.99519 7.60401 9.37364 8.09259 8.79796 8.63396L10.7025 10.5739H10.7044C11.1109 10.1984 11.5453 9.85539 12.0037 9.54801L10.6554 7.17392ZM7.97034 9.48394C7.44444 10.0733 6.97026 10.7084 6.55323 11.3819L8.89225 12.756C9.18709 12.2875 9.51696 11.8429 9.87894 11.426L7.97034 9.48394ZM13.2342 13.3919C11.8602 14.666 10.9758 16.5072 10.9758 18.5519C10.9758 22.4017 14.0581 25.538 17.8415 25.538C21.6249 25.538 24.7073 22.4017 24.7073 18.552H23.5318C23.5318 21.7544 20.9889 24.3421 17.8415 24.3421C14.6943 24.3421 12.1511 21.7544 12.1511 18.552C12.1511 16.8579 12.8825 15.3367 14.0263 14.2761L13.2342 13.3919ZM17.9299 14.8859C15.8202 14.8859 14.097 16.6392 14.097 18.786C14.097 20.9319 15.8199 22.684 17.9299 22.684C20.0396 22.684 21.7608 20.9327 21.7608 18.786C21.7608 16.64 20.0399 14.8859 17.9299 14.8859ZM17.9299 16.082C19.4044 16.082 20.5855 17.2864 20.5855 18.786C20.5855 19.1383 20.5194 19.4742 20.4006 19.7819C20.1882 19.0806 19.5458 18.572 18.7869 18.572C17.8547 18.572 17.0984 19.3414 17.0984 20.29C17.0977 20.7252 17.2601 21.1444 17.5526 21.4619C16.2584 21.2774 15.2725 20.1552 15.2725 18.7859C15.2713 18.4305 15.3392 18.0783 15.4724 17.7497C15.6055 17.4211 15.8012 17.1225 16.0482 16.8712C16.2952 16.6199 16.5886 16.4207 16.9116 16.2853C17.2345 16.1498 17.5806 16.0808 17.9299 16.082Z" fill="#444856"/>
</svg>
