<svg width="36" height="36" viewBox="0 0 36 36" fill="none" xmlns="http://www.w3.org/2000/svg">
<path d="M1 35H9V36H0V27H1V35Z" fill="white"/>
<path d="M36 36H27V35H35V27H36V36Z" fill="white"/>
<path d="M9 1H1V9H0V0H9V1Z" fill="white"/>
<path d="M36 9H35V1H27V0H36V9Z" fill="white"/>
<path d="M17.7738 8.5C13.9832 8.5 9.92531 10.9153 7.20768 13.3859C5.01004 15.3838 3.51325 17.3092 3 18C3.51325 18.6908 5.01004 20.6162 7.20768 22.6141C9.92525 25.0847 13.9832 27.5 17.7738 27.5C21.5643 27.5 25.6222 25.0847 28.3398 22.6141C30.5375 20.6162 32.0343 18.6908 32.5475 18C32.0343 17.3092 30.5375 15.3838 28.3398 13.3859C25.6223 10.9153 21.5643 8.5 17.7738 8.5ZM17.7738 9.94702C19.1754 9.94923 20.5521 10.3172 21.7679 11.0146C21.1874 11.2273 20.6862 11.613 20.332 12.1197C19.9777 12.6263 19.7875 13.2295 19.787 13.8477C19.7874 13.8572 19.7879 13.8667 19.7885 13.8762C19.3331 13.6522 18.8435 13.506 18.34 13.4435V11.9603H17.2075V13.4435C15.1292 13.7012 13.4749 15.3555 13.2173 17.4338H11.734V18.5662H13.2173C13.4749 20.6445 15.1292 22.2989 17.2075 22.5565V24.0397H18.34V22.5565C20.4183 22.2988 22.0727 20.6445 22.3302 18.5662H23.8135V17.4338H22.3302C22.3036 17.2211 22.262 17.0106 22.2057 16.8038C22.4034 16.8451 22.6048 16.8664 22.8069 16.8675C23.3262 16.8668 23.8366 16.7321 24.2887 16.4764C24.7409 16.2208 25.1194 15.8529 25.3878 15.4083C25.6751 16.2423 25.8234 17.1179 25.8267 18C25.8267 20.1358 24.9783 22.1841 23.4681 23.6943C21.9578 25.2045 19.9095 26.053 17.7738 26.053C15.638 26.053 13.5897 25.2045 12.0794 23.6943C10.5692 22.1841 9.72078 20.1358 9.72078 18C9.72078 15.8642 10.5692 13.8159 12.0794 12.3057C13.5897 10.7955 15.638 9.94702 17.7738 9.94702ZM17.2075 14.5862V15.9868H18.34V14.5862C19.8019 14.8247 20.949 15.9718 21.1876 17.4338H19.787V18.5662H21.1876C20.949 20.0282 19.8019 21.1753 18.34 21.4138V20.0132H17.2075V21.4138C15.7456 21.1753 14.5985 20.0282 14.3599 18.5662H15.7605V17.4338H14.3599C14.5985 15.9718 15.7456 14.8247 17.2075 14.5862Z" fill="white"/>
</svg>
