<svg width="36" height="36" viewBox="0 0 36 36" fill="none" xmlns="http://www.w3.org/2000/svg">
<path d="M1 35H9V36H0V27H1V35Z" fill="white"/>
<path d="M36 36H27V35H35V27H36V36Z" fill="white"/>
<path fill-rule="evenodd" clip-rule="evenodd" d="M5.71387 5.71387C6.05547 5.37227 6.61041 5.37248 6.95215 5.71387L30.2852 29.0479C30.6267 29.3896 30.6268 29.9435 30.2852 30.2852C29.9435 30.6268 29.3896 30.6267 29.0479 30.2852L22.9941 24.2314L17.3213 30.0771L17.3203 30.0762C17.1072 30.3061 16.8267 30.4633 16.5176 30.5205C16.1924 30.5806 15.8561 30.5281 15.5645 30.3721C15.2729 30.216 15.0426 29.965 14.9121 29.6611C14.7818 29.3574 14.759 29.0179 14.8467 28.6992L14.8564 28.666L17.0967 21.6426L17.1104 21.6016C17.1267 21.5575 17.1328 21.5095 17.127 21.4629C17.121 21.4163 17.103 21.3716 17.0762 21.333C17.0492 21.2945 17.0134 21.2629 16.9717 21.2412C16.9299 21.2195 16.8831 21.2079 16.8359 21.208H8.66699C8.28158 21.2088 7.90361 21.1004 7.57715 20.8955C7.25008 20.6901 6.98802 20.3962 6.82129 20.0479C6.65456 19.6994 6.58943 19.3104 6.63477 18.9268C6.68015 18.5432 6.8338 18.1799 7.07715 17.8799L7.12891 17.8223L11.7852 13.0234L5.71387 6.95215C5.37248 6.61041 5.37227 6.05547 5.71387 5.71387ZM8.42773 18.9961C8.39866 19.0362 8.37898 19.0825 8.37305 19.1318C8.36659 19.1864 8.37578 19.2423 8.39941 19.292C8.42321 19.3417 8.46113 19.3837 8.50781 19.4131C8.55456 19.4424 8.60887 19.4582 8.66406 19.458H16.833C17.1624 19.4573 17.4871 19.5365 17.7793 19.6885C18.0722 19.8408 18.324 20.0621 18.5127 20.333C18.7013 20.6039 18.8219 20.9167 18.8633 21.2441C18.9028 21.5574 18.8658 21.8751 18.7617 22.1729L18.7637 22.1738L16.9082 27.9893L21.7568 22.9941L13.0234 14.2607L8.42773 18.9961Z" fill="white"/>
<path d="M27.334 14.793C27.719 14.7923 28.0967 14.8998 28.4229 15.1045C28.7499 15.3099 29.013 15.6038 29.1797 15.9521C29.3463 16.3006 29.4106 16.6897 29.3652 17.0732C29.3199 17.4568 29.1662 17.8201 28.9229 18.1201C28.9067 18.14 28.8899 18.1594 28.8721 18.1777L26.8652 20.2461C26.529 20.5927 25.9748 20.6015 25.6279 20.2656C25.2811 19.9291 25.2729 19.3752 25.6094 19.0283L27.5732 17.001C27.6013 16.9614 27.6211 16.9165 27.627 16.8682C27.6334 16.8135 27.6242 16.7577 27.6006 16.708C27.5768 16.6584 27.5388 16.6162 27.4922 16.5869C27.4457 16.5578 27.3918 16.5419 27.3369 16.542H22.2656C21.7825 16.542 21.3908 16.1501 21.3906 15.667C21.3906 15.1837 21.7824 14.792 22.2656 14.792L27.334 14.793Z" fill="white"/>
<path d="M19.4824 5.47949C19.8075 5.41948 20.144 5.47201 20.4355 5.62793C20.7271 5.78393 20.9574 6.0341 21.0879 6.33789C21.2183 6.64162 21.2418 6.98107 21.1543 7.2998C21.1512 7.31099 21.148 7.32292 21.1445 7.33398L19.5371 12.3701C19.3903 12.8302 18.8986 13.0848 18.4385 12.9385C17.9781 12.7916 17.7234 12.2992 17.8701 11.8389L19.0908 8.00879L16.8936 10.2744C16.557 10.6211 16.003 10.6294 15.6562 10.293C15.3095 9.9564 15.3011 9.40243 15.6377 9.05566L18.6797 5.92188C18.8927 5.69228 19.1736 5.53669 19.4824 5.47949Z" fill="white"/>
<path d="M9 1H1V9H0V0H9V1Z" fill="white"/>
<path d="M36 9H35V1H27V0H36V9Z" fill="white"/>
</svg>
