<svg width="36" height="36" viewBox="0 0 36 36" fill="none" xmlns="http://www.w3.org/2000/svg">
<path d="M1 35H9V36H0V27H1V35ZM36 36H27V35H35V27H36V36ZM17.6904 8.28516C18.3439 8.28516 18.9504 8.33828 19.5098 8.44238L19.5078 8.44043C19.5297 8.4445 19.5515 8.4489 19.5732 8.45312C19.6049 8.45929 19.6366 8.46518 19.668 8.47168C19.749 8.48848 19.8292 8.50731 19.9082 8.52637C19.9163 8.52832 19.9246 8.53026 19.9326 8.53223C20.0074 8.55053 20.0813 8.5695 20.1543 8.58984C20.177 8.59618 20.2001 8.60284 20.2227 8.60938C20.2977 8.63113 20.3722 8.65379 20.4453 8.67773C20.4727 8.6867 20.5002 8.69678 20.5273 8.70605C20.5821 8.7248 20.6368 8.74367 20.6904 8.76367C20.7116 8.77156 20.7329 8.77902 20.7539 8.78711C20.8245 8.81434 20.8943 8.84361 20.9629 8.87305C20.9854 8.88273 21.0079 8.89242 21.0303 8.90234C21.0878 8.92789 21.1451 8.95431 21.2012 8.98145C21.213 8.98716 21.2256 8.99227 21.2373 8.99805L21.2617 9.01074C21.3261 9.04284 21.3897 9.07613 21.4521 9.11035C21.472 9.12125 21.492 9.13244 21.5117 9.14355C21.5686 9.17566 21.6244 9.20925 21.6797 9.24316C21.6884 9.24851 21.6974 9.2534 21.7061 9.25879C21.7701 9.29858 21.8327 9.34058 21.8945 9.38281C21.9119 9.39468 21.9301 9.40591 21.9473 9.41797C22.01 9.46193 22.0715 9.50719 22.1318 9.55371L22.333 9.71484C23.1113 10.3755 23.5787 11.2336 23.7344 12.2891C23.7733 12.5529 23.793 12.8296 23.793 13.1182L23.7871 13.373C23.7837 13.4504 23.7781 13.5275 23.7715 13.6045C23.769 13.6334 23.7656 13.6626 23.7627 13.6914C23.7572 13.7453 23.7511 13.7998 23.7441 13.8535C23.7409 13.8785 23.737 13.9037 23.7334 13.9287C23.7259 13.9811 23.718 14.0337 23.709 14.0859C23.7036 14.1172 23.6983 14.1485 23.6924 14.1797C23.6834 14.227 23.6733 14.2751 23.6631 14.3223C23.6546 14.3617 23.6451 14.4011 23.6357 14.4404C23.6273 14.476 23.6185 14.5114 23.6094 14.5469C23.599 14.5869 23.5884 14.6271 23.5771 14.667C23.5661 14.7063 23.5549 14.746 23.543 14.7852C23.531 14.8246 23.5187 14.864 23.5059 14.9033C23.4991 14.9241 23.4924 14.9451 23.4854 14.9658C23.467 15.0201 23.4487 15.0748 23.4287 15.1289C23.3984 15.2108 23.3658 15.2917 23.332 15.3711C23.3008 15.4443 23.2676 15.5168 23.2334 15.5879C23.2184 15.619 23.2021 15.6499 23.1865 15.6807C23.1655 15.7222 23.1441 15.7639 23.1221 15.8047C23.1034 15.8392 23.0838 15.8733 23.0645 15.9072C23.0458 15.9399 23.0272 15.9727 23.0078 16.0049C22.9881 16.0377 22.9677 16.0702 22.9473 16.1025C22.9219 16.1426 22.8957 16.1824 22.8691 16.2217C22.8499 16.2502 22.8303 16.2786 22.8105 16.3066C22.7892 16.3369 22.7672 16.3667 22.7451 16.3965C22.7194 16.4312 22.6936 16.4659 22.667 16.5C22.6438 16.5296 22.6196 16.5588 22.5957 16.5879C22.5707 16.6185 22.5463 16.6497 22.5205 16.6797C22.4755 16.732 22.4292 16.7833 22.3818 16.834C22.375 16.8413 22.3682 16.8491 22.3613 16.8564C21.8934 17.3424 21.327 17.6717 20.6611 17.8428C20.7087 17.8428 20.756 17.8431 20.8027 17.8447C21.0372 17.853 21.2611 17.8821 21.4736 17.9316C21.5587 17.9515 21.6421 17.9745 21.7236 18.001C21.805 18.0274 21.885 18.0569 21.9629 18.0898C22.1969 18.1889 22.4157 18.318 22.6182 18.4766C22.6603 18.509 22.7016 18.5432 22.7422 18.5771C22.7519 18.5853 22.7619 18.5933 22.7715 18.6016C22.8049 18.63 22.8378 18.659 22.8701 18.6885C22.877 18.6948 22.8838 18.7017 22.8906 18.708C23.3074 19.0939 23.6358 19.5657 23.874 20.124C24.1619 20.7989 24.3056 21.5146 24.3057 22.2705C24.3056 23.4584 23.9903 24.48 23.3604 25.335C22.7304 26.1808 21.885 26.834 20.8232 27.293C19.7703 27.743 18.5995 27.9678 17.3125 27.9678C16.2867 27.9677 15.2966 27.8418 14.3428 27.5898C13.3889 27.3379 12.5342 26.9412 11.7783 26.4014L12.9121 23.3232C13.4232 23.8163 14.0459 24.2027 14.7803 24.4814C14.7829 24.4824 14.7855 24.4834 14.7881 24.4844L15.0635 24.5791C15.2995 24.655 15.5353 24.7156 15.7686 24.7637C15.8468 24.7797 15.925 24.7947 16.0029 24.8076C16.0926 24.8225 16.1822 24.8349 16.2715 24.8457C16.3932 24.8603 16.5148 24.8719 16.6357 24.8789C16.7449 24.8852 16.8534 24.8896 16.9619 24.8896C17.5219 24.8896 18.0132 24.8275 18.4355 24.7051C18.6168 24.6525 18.7855 24.5886 18.9414 24.5137C19.1584 24.4091 19.3507 24.283 19.5186 24.1348C19.5585 24.0995 19.5976 24.0632 19.6348 24.0254C19.6421 24.0181 19.649 24.0103 19.6562 24.0029C20.0984 23.5522 20.3661 23.0146 20.46 22.3896C20.4642 22.3615 20.4682 22.3332 20.4717 22.3047C20.4731 22.2934 20.4743 22.2818 20.4756 22.2705C20.4846 22.1905 20.4916 22.1091 20.4951 22.0264L20.498 21.8652C20.498 21.7963 20.4964 21.7289 20.4932 21.6631C20.4927 21.6534 20.4927 21.6434 20.4922 21.6338C20.4641 21.1408 20.3441 20.7371 20.1328 20.4229L20.1318 20.4219C20.0796 20.3443 20.0224 20.2717 19.959 20.2051C19.7463 19.9705 19.4917 19.781 19.1963 19.6357C19.1585 19.6172 19.1201 19.6002 19.0811 19.583C18.9213 19.5131 18.7507 19.4538 18.5684 19.4082C17.9925 19.2643 17.3756 19.1924 16.7188 19.1924H15.2871V16.5195H16.7451L16.9502 16.5166C17.8076 16.4895 18.4796 16.2882 18.9678 15.915C19.0511 15.8513 19.1296 15.7828 19.2021 15.709C19.3523 15.5563 19.4814 15.3933 19.5898 15.2197C19.7163 15.0172 19.8142 14.8003 19.8838 14.5693C19.8929 14.539 19.902 14.5084 19.9102 14.4775C19.9247 14.4226 19.9378 14.367 19.9492 14.3105C19.9562 14.2762 19.963 14.241 19.9688 14.2061C19.9716 14.1887 19.974 14.1708 19.9766 14.1533C19.9818 14.1178 19.9871 14.082 19.9912 14.0459C19.994 14.0213 19.9958 13.9965 19.998 13.9717C20.0028 13.9184 20.0075 13.8641 20.0098 13.8096L20.0127 13.6572C20.0127 13.6474 20.0118 13.6376 20.0117 13.6279C20.0068 12.8903 19.8175 12.3537 19.4434 12.0166C19.4019 11.9793 19.3585 11.9435 19.3125 11.9111L19.2158 11.8486C19.0664 11.7575 18.8992 11.6787 18.7148 11.6133C18.6442 11.5882 18.5709 11.5653 18.4951 11.5439C18.2316 11.4699 17.9368 11.4182 17.6113 11.3896C17.4071 11.3717 17.1905 11.3623 16.9619 11.3623C16.6111 11.3623 16.1881 11.4259 15.6934 11.5518C15.2074 11.6778 14.7204 11.8625 14.2344 12.1055C13.7486 12.3484 13.3434 12.6499 13.0195 13.0098L11.6699 10.1475C11.7196 10.1042 11.7709 10.061 11.8242 10.0186C11.8372 10.0082 11.851 9.9976 11.8643 9.9873C11.8921 9.96563 11.9214 9.94528 11.9502 9.92383C11.9919 9.89281 12.0344 9.8616 12.0781 9.83105C12.1158 9.80468 12.1541 9.77798 12.1934 9.75195C12.2305 9.72733 12.2691 9.70301 12.3076 9.67871C12.3497 9.65213 12.3919 9.62483 12.4355 9.59863C12.4746 9.57525 12.5154 9.55335 12.5557 9.53027C12.7476 9.42017 12.9539 9.31323 13.1748 9.20996C13.183 9.20616 13.191 9.20205 13.1992 9.19824C13.4573 9.07851 13.7349 8.96206 14.0322 8.85156C14.5587 8.65759 15.1362 8.51338 15.7646 8.41895C15.7951 8.41436 15.8258 8.40963 15.8564 8.40527C15.9304 8.39481 16.0057 8.38606 16.0811 8.37695C16.1014 8.37448 16.1221 8.37151 16.1426 8.36914C16.3278 8.34778 16.5174 8.33062 16.7109 8.31738C16.7614 8.31391 16.8122 8.31053 16.8633 8.30762C16.9101 8.30496 16.9576 8.30298 17.0049 8.30078C17.0564 8.29838 17.1081 8.29579 17.1602 8.29395C17.2029 8.29244 17.2459 8.29118 17.2891 8.29004C17.3463 8.28852 17.404 8.28699 17.4619 8.28613H17.4629C17.538 8.28503 17.6142 8.28516 17.6904 8.28516ZM9 1H1V9H0V0H9V1ZM36 9L35 8.99805V1H27V0H36V9Z" fill="white"/>
<path d="M6.10254 4C9.55952 4 11.3322 5.39527 12.0293 7.54395C11.8687 7.62494 11.7126 7.7083 11.5615 7.79492L11.5166 7.82031C11.4929 7.83363 11.4528 7.85609 11.4082 7.88281L11.4062 7.88379C11.3379 7.92483 11.2625 7.97322 11.2402 7.9873L11.0889 8.08496L11.0869 8.08594C11.0257 8.12659 10.9696 8.16551 10.9326 8.19141C10.8643 8.2391 10.8022 8.2849 10.7559 8.31934C10.7559 8.31934 10.7544 8.32145 10.752 8.32324C10.7497 8.32491 10.7468 8.32643 10.7432 8.3291C10.7399 8.33148 10.7351 8.33452 10.7305 8.33789C10.7126 8.35092 10.6768 8.37705 10.6367 8.4082C10.6341 8.41024 10.6031 8.43407 10.5791 8.45312C10.4969 8.51848 10.4225 8.58215 10.3564 8.63965C10.3564 8.63965 10.2642 9.98273 10.3564 10.8351C10.5357 12.4915 11.6924 14.8867 11.6924 14.8867C11.3859 16.0793 10.9989 17.2988 10.5664 18.5029C8.25707 24.9381 7.70576 29.9919 10.9111 32C4.50002 31.9997 4.50037 24.9742 7.70605 17.8311C7.9301 16.9914 8.12809 16.1576 8.2832 15.3359C8.6279 11.8153 7.08523 10.0762 4.5 9.35645C6.42174 9.04456 7.82642 9.19417 8.72266 9.79395C8.56754 7.20291 7.76575 5.10359 6.10254 4Z" fill="white"/>
<path d="M12.377 29.0186C12.8438 29.2204 13.3285 29.3904 13.832 29.5234C14.3783 29.6677 14.933 29.7758 15.4951 29.8496C15.8903 30.752 16.4912 31.4788 17.3232 32C14.7338 32 13.191 30.8539 12.377 29.0186Z" fill="white"/>
<path d="M21.4814 29.1826C21.9691 30.4005 22.7222 31.3659 23.7344 32C21.051 31.9999 19.4469 31.2145 18.5605 29.9023C19.5804 29.7981 20.5571 29.5623 21.4814 29.1826Z" fill="white"/>
<path d="M25.3379 4C31.749 4.00027 30.5078 11.1439 28.543 18.4971C27.285 23.1929 28.7502 25.4778 31.749 26.3115C29.8101 26.6234 28.3884 26.4734 27.4922 25.8496C27.5353 28.6698 28.3282 30.8586 30.1465 32C26.0858 32 24.4931 30.195 24.1191 27.4863C24.4246 27.1928 24.7077 26.8746 24.9648 26.5293L24.9707 26.5215C25.8834 25.2827 26.3056 23.8327 26.3057 22.2705L26.2969 21.8906C26.2541 21.0086 26.0614 20.1535 25.7139 19.3389C25.5723 19.007 25.4047 18.6916 25.2129 18.3936C25.255 18.2063 25.2956 18.0186 25.3379 17.8311C26.9407 11.9234 28.5433 6.12335 25.3379 4Z" fill="white"/>
<path d="M20.9629 8.87305C20.9854 8.88273 21.0079 8.89242 21.0303 8.90234C21.0878 8.92789 21.1451 8.95431 21.2012 8.98145C21.213 8.98716 21.2256 8.99227 21.2373 8.99805L21.2617 9.01074C21.3261 9.04284 21.3897 9.07613 21.4521 9.11035C21.472 9.12125 21.492 9.13244 21.5117 9.14355C21.5686 9.17566 21.6244 9.20925 21.6797 9.24316C21.6884 9.24851 21.6974 9.2534 21.7061 9.25879C21.7701 9.29858 21.8327 9.34058 21.8945 9.38281C21.9119 9.39468 21.9301 9.40591 21.9473 9.41797C22.01 9.46193 22.0715 9.50719 22.1318 9.55371L22.333 9.71484C23.1113 10.3755 23.5787 11.2336 23.7344 12.2891C23.7422 12.3422 23.7476 12.396 23.7539 12.4502C23.5656 13.6453 23.2672 14.9071 22.8867 16.1943C22.8807 16.2034 22.8752 16.2127 22.8691 16.2217C22.8499 16.2502 22.8303 16.2786 22.8105 16.3066C22.7892 16.3369 22.7672 16.3667 22.7451 16.3965C22.7194 16.4312 22.6936 16.4659 22.667 16.5C22.6438 16.5296 22.6196 16.5588 22.5957 16.5879C22.5707 16.6185 22.5463 16.6497 22.5205 16.6797C22.4755 16.732 22.4292 16.7833 22.3818 16.834C22.375 16.8413 22.3682 16.8491 22.3613 16.8564C21.8934 17.3424 21.327 17.6717 20.6611 17.8428C20.7087 17.8428 20.756 17.8431 20.8027 17.8447C21.0372 17.853 21.2611 17.8821 21.4736 17.9316C21.5587 17.9515 21.6421 17.9745 21.7236 18.001C21.805 18.0274 21.885 18.0569 21.9629 18.0898C22.0543 18.1285 22.1428 18.1729 22.2295 18.2207C22.1966 18.3144 22.1654 18.4092 22.1318 18.5029C20.9576 21.769 20.5776 24.8016 20.958 27.2295C20.913 27.25 20.869 27.2732 20.8232 27.293C19.9023 27.6865 18.8911 27.9067 17.791 27.9561C17.6722 27.3571 17.6216 26.7072 17.625 26.0176C17.625 25.639 17.6518 25.2486 17.6963 24.8477C17.9624 24.817 18.209 24.7707 18.4355 24.7051C18.6168 24.6525 18.7855 24.5886 18.9414 24.5137C19.1584 24.4091 19.3507 24.283 19.5186 24.1348C19.5585 24.0995 19.5976 24.0632 19.6348 24.0254C19.6421 24.0181 19.649 24.0103 19.6562 24.0029C20.0984 23.5522 20.3661 23.0146 20.46 22.3896C20.4642 22.3615 20.4682 22.3332 20.4717 22.3047C20.4731 22.2934 20.4743 22.2818 20.4756 22.2705C20.4846 22.1905 20.4916 22.1091 20.4951 22.0264L20.498 21.8652C20.498 21.7963 20.4964 21.7289 20.4932 21.6631C20.4927 21.6534 20.4927 21.6434 20.4922 21.6338C20.4641 21.1408 20.3441 20.7371 20.1328 20.4229L20.1318 20.4219C20.0796 20.3443 20.0224 20.2717 19.959 20.2051C19.7463 19.9705 19.4917 19.781 19.1963 19.6357C19.1585 19.6172 19.1201 19.6002 19.0811 19.583C19.0119 19.5527 18.9405 19.5251 18.8672 19.499C19.0079 18.9458 19.1463 18.3889 19.2705 17.8311C20.1432 14.6146 20.9115 11.43 20.915 8.85352C20.9309 8.86025 20.9471 8.86627 20.9629 8.87305Z" fill="white"/>
<path d="M12.9121 23.3232C13.4232 23.8163 14.0459 24.2027 14.7803 24.4814C14.7829 24.4824 14.7855 24.4834 14.7881 24.4844L15.0518 24.5742C14.8969 25.7255 14.8635 26.7842 14.9639 27.7334C14.7553 27.6909 14.548 27.6441 14.3428 27.5898C13.3889 27.3379 12.5342 26.9412 11.7783 26.4014L12.9121 23.3232Z" fill="white"/>
<path d="M16.5 21C19.2929 21 19.2053 22.8893 17.5 23C16.0031 23.0971 14.5832 22.1563 14.3008 21.8838L13.584 21.1924L16.5 21Z" fill="white"/>
<path d="M16.9619 13.3623C17.1359 13.3623 17.2941 13.3693 17.4365 13.3818C17.6599 13.4015 17.8297 13.4338 17.9541 13.4688C17.973 13.4741 17.998 13.4703 18.0039 13.4844C18.0206 13.524 18.0113 13.5795 18.0117 13.6416L18.0107 13.7354V13.7402C18.0098 13.7524 18.008 13.7677 18.0059 13.792C18.0048 13.8032 18.0045 13.8136 18.0039 13.8203C18.0032 13.8284 18.0022 13.8316 18.002 13.835L17.998 13.8604C17.9969 13.8679 17.9959 13.8747 17.9951 13.8799C17.994 13.8864 17.9935 13.8922 17.9932 13.8945C17.9921 13.8998 17.9908 13.9062 17.9893 13.9141C17.9862 13.9292 17.9817 13.9463 17.9766 13.9658V13.9678C17.9751 13.9727 17.9724 13.98 17.9688 13.9922C17.959 14.0244 17.9481 14.0542 17.9355 14.082L17.8936 14.1602C17.8796 14.1826 17.8632 14.206 17.8438 14.2305L17.7764 14.3066L17.7529 14.3262C17.7024 14.3647 17.486 14.4966 16.8975 14.5166L16.7168 14.5195H14.4199C14.4302 14.4831 14.4392 14.4465 14.4492 14.4102L14.5059 14.3477C14.643 14.1953 14.8396 14.0393 15.1289 13.8945L15.4043 13.7646C15.6731 13.6465 15.9335 13.5552 16.1855 13.4893L16.1865 13.4902C16.5882 13.388 16.8354 13.3623 16.9619 13.3623Z" fill="white"/>
<path d="M17.6904 8.28516C17.9609 8.28516 18.2232 8.2964 18.4775 8.31445C18.6383 9.28521 18.6201 10.3753 18.4746 11.5381C18.2163 11.4671 17.9284 11.4175 17.6113 11.3896C17.4071 11.3717 17.1905 11.3623 16.9619 11.3623C16.6111 11.3623 16.1881 11.4259 15.6934 11.5518C15.4559 11.6133 15.2182 11.6888 14.9805 11.7783C15.1224 10.6302 15.1323 9.54875 15.0059 8.56445C15.2501 8.50781 15.5028 8.4583 15.7646 8.41895C15.7951 8.41436 15.8258 8.40963 15.8564 8.40527C15.9304 8.39481 16.0057 8.38606 16.0811 8.37695C16.1014 8.37448 16.1221 8.37151 16.1426 8.36914C16.3278 8.34778 16.5174 8.33062 16.7109 8.31738C16.7614 8.31391 16.8122 8.31053 16.8633 8.30762C16.9101 8.30496 16.9576 8.30298 17.0049 8.30078C17.0564 8.29838 17.1081 8.29579 17.1602 8.29395C17.2029 8.29244 17.2459 8.29118 17.2891 8.29004C17.3463 8.28852 17.405 8.28699 17.4629 8.28613C17.538 8.28503 17.6142 8.28516 17.6904 8.28516Z" fill="white"/>
<path d="M12.3799 9.63281C12.4067 10.234 12.384 10.8665 12.3184 11.5225L11.6699 10.1475C11.7196 10.1042 11.7709 10.061 11.8242 10.0186C11.8372 10.0082 11.851 9.9976 11.8643 9.9873C11.8921 9.96563 11.9214 9.94528 11.9502 9.92383C11.9919 9.89281 12.0344 9.8616 12.0781 9.83105C12.1158 9.80468 12.1541 9.77798 12.1934 9.75195C12.2305 9.72733 12.2691 9.70301 12.3076 9.67871C12.3316 9.66356 12.3556 9.64809 12.3799 9.63281Z" fill="white"/>
<path d="M18.9258 4C22.0931 4 23.5463 5.76841 23.8945 8.43262C23.808 8.35026 23.7194 8.26889 23.627 8.19043L23.6055 8.17188L23.583 8.1543L23.3818 7.99316L23.3672 7.98047L23.3525 7.96973L23.0957 7.78027L23.0449 7.74609L23.0225 7.73145C22.9536 7.6844 22.8628 7.62334 22.7617 7.56055L22.7607 7.55957C22.743 7.54855 22.7281 7.53933 22.7178 7.5332C22.7082 7.52755 22.7008 7.52298 22.6982 7.52148C22.6401 7.48604 22.57 7.44419 22.4941 7.40137C22.4717 7.38869 22.4435 7.37309 22.4131 7.35645L22.1543 7.2207L22.1406 7.21387L22.1201 7.2041L22.0713 7.18066C22.0663 7.17824 22.0617 7.17585 22.0576 7.17383C22.0502 7.17019 22.0428 7.16672 22.0352 7.16309L22.0371 7.16406C22.0411 7.1659 22.0482 7.16922 22.0576 7.17383C22.0459 7.16851 22.0359 7.16427 22.0332 7.16309H22.0352C21.9698 7.13193 21.9049 7.10224 21.8418 7.07422C21.8075 7.05899 21.7755 7.04527 21.752 7.03516C21.675 7.00215 21.5775 6.96135 21.4727 6.9209C21.4446 6.91011 21.4198 6.90108 21.4072 6.89648C21.404 6.8953 21.4008 6.89343 21.3984 6.89258C21.3958 6.89163 21.3916 6.89062 21.3916 6.89062C21.3888 6.88961 21.3896 6.88965 21.3896 6.88965C21.3078 6.85912 21.2289 6.83199 21.1748 6.81348C21.1706 6.81203 21.1692 6.81229 21.1475 6.80469C21.1313 6.79902 21.1021 6.78839 21.0684 6.77734L20.7793 6.68848L20.6914 6.66309C20.6875 6.662 20.6836 6.66123 20.6797 6.66016C20.3982 5.52612 19.8478 4.61067 18.9258 4Z" fill="white"/>
<path d="M23.0117 7.72461L23.0156 7.72656C23.012 7.7241 23.0088 7.72168 23.0088 7.72168L23.0117 7.72461Z" fill="white"/>
<path d="M12.5146 4C15.0847 4.00004 16.7801 5.13174 17.6904 6.41034L14.3253 6.77734C13.9558 6.23511 13.053 4.35657 12.5146 4Z" fill="white"/>
</svg>
