<svg width="36" height="36" viewBox="0 0 36 36" fill="none" xmlns="http://www.w3.org/2000/svg">
<path d="M1 35H9V36H0V27H1V35ZM36 36H27V35H35V27H36V36ZM18.1279 8.28516C18.5819 8.28518 19.0188 8.3206 19.4385 8.39062C19.4507 8.39266 19.4624 8.39439 19.4746 8.39648C19.5271 8.40551 19.5799 8.41468 19.6318 8.4248C19.6475 8.42786 19.6631 8.43141 19.6787 8.43457C19.822 8.46352 19.9634 8.49583 20.1025 8.5332L20.3145 8.59375C20.3305 8.59863 20.3463 8.60437 20.3623 8.60938C20.4139 8.62548 20.4656 8.64187 20.5166 8.65918C20.5364 8.66589 20.5565 8.67279 20.5762 8.67969C20.6282 8.69793 20.68 8.7178 20.7314 8.7373C20.741 8.74094 20.7512 8.74437 20.7607 8.74805C20.8177 8.76997 20.8744 8.79293 20.9307 8.81641C20.9443 8.82209 20.9581 8.82723 20.9717 8.83301C21.0366 8.86063 21.1012 8.88923 21.165 8.91895L21.333 8.99902C21.3993 9.03182 21.465 9.0666 21.5293 9.10156C21.57 9.12372 21.6105 9.14592 21.6504 9.16895C21.663 9.17622 21.676 9.18404 21.6885 9.19141C21.7258 9.21338 21.7632 9.23507 21.7998 9.25781C21.8206 9.27074 21.8408 9.28467 21.8613 9.29785C21.8875 9.31459 21.9137 9.33149 21.9395 9.34863C21.9698 9.36883 22.0005 9.3894 22.0303 9.41016C22.0467 9.42162 22.0628 9.43369 22.0791 9.44531C22.103 9.46241 22.1268 9.47961 22.1504 9.49707C22.1764 9.51632 22.203 9.53597 22.2285 9.55566C22.2474 9.57022 22.2665 9.58481 22.2852 9.59961C22.3107 9.6199 22.3362 9.64039 22.3613 9.66113C22.3816 9.67785 22.4019 9.6949 22.4219 9.71191C22.4459 9.7324 22.4695 9.7535 22.4932 9.77441C22.5122 9.79123 22.5311 9.8081 22.5498 9.8252C22.5716 9.84512 22.5938 9.86544 22.6152 9.88574C22.6388 9.90807 22.6624 9.93132 22.6855 9.9541C22.6983 9.96667 22.711 9.97948 22.7236 9.99219C22.7494 10.0181 22.7755 10.0438 22.8008 10.0703C22.8255 10.0963 22.8498 10.1229 22.874 10.1494C22.8848 10.1613 22.8956 10.1736 22.9062 10.1855C22.9321 10.2144 22.9572 10.2439 22.9824 10.2734C22.9966 10.29 23.0114 10.3074 23.0254 10.3242C23.1357 10.457 23.2407 10.5956 23.3389 10.7412L23.4365 10.8936C23.4976 10.9928 23.5552 11.095 23.6084 11.1992C23.6227 11.2272 23.6357 11.2558 23.6494 11.2842C23.6599 11.3058 23.6705 11.3278 23.6807 11.3496C23.6943 11.379 23.7077 11.4087 23.7207 11.4385C23.7332 11.467 23.7459 11.4955 23.7578 11.5244C23.7638 11.5388 23.7696 11.5539 23.7754 11.5684C23.7919 11.6095 23.8088 11.6506 23.8242 11.6924C23.8301 11.7084 23.8351 11.7251 23.8408 11.7412C23.8542 11.7787 23.8674 11.8165 23.8799 11.8545C23.8901 11.8857 23.8995 11.9176 23.9092 11.9492C23.9166 11.9736 23.9245 11.9979 23.9316 12.0225C23.94 12.0515 23.9482 12.081 23.9561 12.1104C23.964 12.1398 23.9711 12.1695 23.9785 12.1992C23.9868 12.2325 23.9952 12.2661 24.0029 12.2998C24.0088 12.3254 24.015 12.3511 24.0205 12.377C24.0279 12.4115 24.0343 12.4465 24.041 12.4814C24.0469 12.512 24.0522 12.5433 24.0576 12.5742C24.0634 12.6075 24.07 12.6412 24.0752 12.6748C24.0791 12.7001 24.0833 12.7255 24.0869 12.751C24.092 12.7867 24.0961 12.8233 24.1006 12.8594C24.1029 12.8784 24.1053 12.8979 24.1074 12.917C24.1121 12.9581 24.1163 12.9994 24.1201 13.041C24.1235 13.0781 24.1261 13.1158 24.1289 13.1533C24.1312 13.1843 24.1339 13.2158 24.1357 13.2471C24.1371 13.2691 24.1385 13.2913 24.1396 13.3135C24.1444 13.4091 24.1477 13.5063 24.1484 13.6045C24.1486 13.6219 24.1484 13.6398 24.1484 13.6572L24.1465 13.875C24.144 13.983 24.139 14.0901 24.1328 14.1953C24.1297 14.2474 24.1261 14.2992 24.1221 14.3506C24.1084 14.526 24.0897 14.6978 24.0654 14.8652C24.0598 14.9042 24.0531 14.9429 24.0469 14.9814C24.0426 15.0082 24.0388 15.035 24.0342 15.0615C24.0281 15.0967 24.0212 15.1322 24.0146 15.167C24.0103 15.1898 24.0055 15.2127 24.001 15.2354C23.994 15.2704 23.987 15.3052 23.9795 15.3398C23.9746 15.3624 23.9699 15.3858 23.9648 15.4082C23.9548 15.4525 23.9435 15.4963 23.9326 15.54C23.9291 15.5539 23.9264 15.5682 23.9229 15.582C23.9118 15.6252 23.8996 15.6684 23.8877 15.7109C23.8807 15.736 23.8735 15.7613 23.8662 15.7861C23.8584 15.8129 23.851 15.8397 23.8428 15.8662C23.834 15.8946 23.8246 15.9231 23.8154 15.9512C23.8034 15.988 23.791 16.0252 23.7783 16.0615C23.7758 16.0687 23.773 16.0758 23.7705 16.083C23.6959 16.295 23.6104 16.4998 23.5137 16.6953C23.0907 17.55 22.4654 18.3285 21.6377 19.0303C21.5289 19.1236 21.4163 19.2169 21.3008 19.3105C21.2887 19.3203 21.2758 19.3291 21.2637 19.3389C20.622 19.8559 19.8793 20.3786 19.0342 20.9053C18.8967 20.9912 18.7563 21.0771 18.6133 21.1631C18.4893 21.2383 18.3686 21.3129 18.251 21.3867C17.6061 21.7915 17.0575 22.1769 16.6045 22.541C16.5765 22.5636 16.5488 22.586 16.5215 22.6084C16.488 22.6358 16.4549 22.6636 16.4229 22.6924C16.2294 22.8664 16.0629 23.067 15.9238 23.293C15.8775 23.3682 15.8333 23.4463 15.793 23.5273C15.6521 23.8109 15.5484 24.1303 15.4814 24.4844H24.2568V27.5625H12.1338C12.0798 27.2745 12.035 26.9862 11.999 26.6982C11.963 26.4013 11.9453 26.0588 11.9453 25.6719C11.9454 24.5293 12.1292 23.553 12.498 22.7432C12.6372 22.4449 12.7998 22.1579 12.9854 21.8828C13.0418 21.7991 13.1013 21.7163 13.1621 21.6348C13.1789 21.6123 13.1958 21.5897 13.2129 21.5674C13.2365 21.5366 13.2599 21.5051 13.2842 21.4746C13.2934 21.463 13.3032 21.4511 13.3125 21.4395C13.4358 21.2863 13.5669 21.1365 13.7061 20.9912C13.7375 20.9584 13.7695 20.926 13.8018 20.8936C13.8183 20.877 13.8348 20.8602 13.8516 20.8438C13.8676 20.8279 13.8842 20.8126 13.9004 20.7969C13.9796 20.7202 14.0607 20.6437 14.1445 20.5693C14.2257 20.4982 14.3092 20.4274 14.3945 20.3564C14.4247 20.3314 14.4557 20.3063 14.4863 20.2812C14.5481 20.2308 14.611 20.1802 14.6748 20.1299C14.7058 20.1055 14.7371 20.081 14.7686 20.0566C14.834 20.006 14.9012 19.9558 14.9688 19.9053C15.0005 19.8815 15.0322 19.8568 15.0645 19.833C15.1512 19.7691 15.2399 19.7054 15.3301 19.6416C15.384 19.6035 15.439 19.5654 15.4941 19.5273C15.5497 19.489 15.6063 19.4504 15.6631 19.4121C15.6963 19.3897 15.73 19.3671 15.7637 19.3447C15.8397 19.2942 15.9169 19.2438 15.9951 19.1934C16.0337 19.1685 16.0722 19.143 16.1113 19.1182C16.1257 19.109 16.1408 19.1 16.1553 19.0908C16.3728 18.9533 16.5984 18.8163 16.832 18.6797C17.1157 18.5139 17.399 18.339 17.6826 18.1562C17.8376 18.0566 17.9926 17.9544 18.1475 17.8496L18.5186 17.5928C18.541 17.577 18.5644 17.5618 18.5869 17.5459C18.8877 17.333 19.1617 17.099 19.4102 16.8457C19.6447 16.6064 19.857 16.3495 20.0449 16.0742C20.0833 16.0183 20.1196 15.9605 20.1543 15.9023C20.1842 15.8523 20.2122 15.8008 20.2393 15.749C20.2679 15.6942 20.2957 15.6387 20.3213 15.582C20.4582 15.2785 20.5504 14.9478 20.5986 14.5898C20.6185 14.4425 20.6309 14.2904 20.6357 14.1338L20.6387 13.9814C20.6386 13.6307 20.5828 13.299 20.4727 12.9863C20.4157 12.8249 20.3441 12.6679 20.2578 12.5166C20.2188 12.4482 20.1769 12.3808 20.1318 12.3145C20.0837 12.2436 20.0315 12.1739 19.9766 12.1055C19.5446 11.5566 18.8476 11.2813 17.8848 11.2812C17.7906 11.2812 17.6981 11.2852 17.6074 11.291C16.8042 11.3421 16.1393 11.6189 15.6123 12.1221C15.5679 12.1645 15.5239 12.2083 15.4814 12.2539C15.4372 12.3022 15.3944 12.3519 15.3525 12.4023C15.1646 12.6286 15.0009 12.8759 14.8613 13.1445C14.7661 13.328 14.6821 13.5214 14.6094 13.7246C14.4941 14.0465 14.4063 14.3932 14.3477 14.7646L11.4854 13.4141C11.4945 13.3548 11.5047 13.2959 11.5156 13.2373C11.5229 13.1979 11.531 13.1582 11.5391 13.1191C11.6792 12.4445 11.9385 11.8129 12.3164 11.2256C12.3249 11.2124 12.3342 11.1997 12.3428 11.1865C12.3707 11.144 12.3996 11.1017 12.4287 11.0596C12.437 11.0476 12.4448 11.0353 12.4531 11.0234C12.494 10.9652 12.5358 10.9069 12.5791 10.8496C12.6288 10.783 12.6801 10.7175 12.7324 10.6533C12.7406 10.6433 12.7496 10.6339 12.7578 10.624C12.8591 10.5014 12.9643 10.3825 13.0752 10.2686C13.0794 10.2642 13.0836 10.2592 13.0879 10.2549L13.1807 10.1631C13.2715 10.0743 13.3649 9.98762 13.4619 9.9043C13.4786 9.88998 13.4968 9.87646 13.5137 9.8623C13.5584 9.82474 13.6034 9.7874 13.6494 9.75098C13.6653 9.73836 13.6812 9.72537 13.6973 9.71289C14.0523 9.43741 14.4446 9.19491 14.874 8.98633C14.9887 8.92954 15.1058 8.87607 15.2246 8.82617L15.2285 8.8252C15.3057 8.79285 15.384 8.76186 15.4629 8.73242C15.4809 8.72568 15.4994 8.7185 15.5176 8.71191C15.5881 8.68633 15.6596 8.66196 15.7314 8.63867C15.7431 8.6349 15.7549 8.63164 15.7666 8.62793C15.851 8.60112 15.9372 8.57542 16.0234 8.55176C16.0344 8.54875 16.0456 8.54593 16.0566 8.54297C16.1254 8.52448 16.1947 8.50673 16.2646 8.49023C16.2922 8.48373 16.3199 8.47689 16.3477 8.4707C16.5172 8.43287 16.6907 8.4013 16.8672 8.375C16.8857 8.37224 16.9043 8.36884 16.9229 8.36621C17.0041 8.3547 17.0862 8.34404 17.1689 8.33496C17.179 8.33386 17.1891 8.3331 17.1992 8.33203C17.499 8.30029 17.8092 8.28516 18.1279 8.28516ZM9 1H1V9H0V0H9V1ZM36 9L35 8.98633V1H27V0H36V9Z" fill="white"/>
<path d="M5.60254 4C9.65493 4 11.3932 5.91695 11.7969 8.71777C11.7919 8.7226 11.7872 8.72761 11.7822 8.73242L11.7744 8.74121L11.6816 8.83301L11.6592 8.85547C11.6406 8.87441 11.6254 8.8905 11.6162 8.90039C11.6115 8.9055 11.6071 8.91021 11.6045 8.91309L11.5996 8.91895C11.4742 9.05014 11.3571 9.18191 11.248 9.3125L11.2295 9.33301C11.2182 9.34596 11.2011 9.36576 11.1816 9.38965C11.1149 9.4716 11.0487 9.5564 10.9834 9.64355C10.9205 9.72677 10.8644 9.80618 10.8174 9.87305C10.8062 9.88899 10.7968 9.90312 10.79 9.91309C10.7881 9.91591 10.7859 9.91839 10.7842 9.9209C10.7801 9.92693 10.777 9.93216 10.7754 9.93457C10.7449 9.97875 10.7076 10.0323 10.6699 10.0898L10.665 10.0967C10.6574 10.1079 10.6468 10.1249 10.6348 10.1436C10.1259 10.9343 9.77179 11.7951 9.58105 12.7129C9.57189 12.7571 9.55989 12.8124 9.54883 12.8721C9.53532 12.9448 9.52183 13.0247 9.50879 13.1094L9.28125 14.5859L11.0508 15.4199C10.7697 16.4412 10.4347 17.4777 10.0664 18.5029C7.75707 24.9381 7.20576 29.9919 10.4111 32C4.00002 31.9997 4.00037 24.9742 7.20605 17.8311C7.4301 16.9914 7.62809 16.1576 7.7832 15.3359C8.1279 11.8153 6.58523 10.0762 4 9.35645C5.92174 9.04456 7.32642 9.19417 8.22266 9.79395C8.06754 7.20291 7.26575 5.10359 5.60254 4Z" fill="white"/>
<path d="M14.8779 29.5625C15.2669 30.5989 15.9047 31.4246 16.8232 32C14.5004 32 13.0204 31.0772 12.1523 29.5625H14.8779Z" fill="white"/>
<path d="M21.1455 29.5625C21.6318 30.6021 22.3298 31.4333 23.2344 32C20.3274 31.9999 18.6888 31.0771 17.8555 29.5625H21.1455Z" fill="white"/>
<path d="M24.8379 4C31.249 4.00027 30.0078 11.1439 28.043 18.4971C26.785 23.1929 28.2502 25.4778 31.249 26.3115C29.3101 26.6234 27.8884 26.4734 26.9922 25.8496C27.0353 28.6698 27.8282 30.8586 29.6465 32C26.7443 32 25.1036 31.0774 24.2666 29.5625H26.2568V22.4844H23.8799C24.0848 21.259 24.3585 19.9791 24.6475 18.6865C24.894 18.3341 25.116 17.9672 25.3066 17.582C25.4383 17.3159 25.5516 17.043 25.6494 16.7676L25.6553 16.751C25.6582 16.743 25.6632 16.7314 25.668 16.7178C25.6849 16.669 25.7017 16.6196 25.7178 16.5703L25.7168 16.5693C25.7219 16.5536 25.7395 16.5028 25.7539 16.4561L25.7764 16.3809C25.7827 16.359 25.7829 16.3572 25.7852 16.3496C25.7958 16.3133 25.8055 16.2775 25.8135 16.249C25.8232 16.2143 25.8429 16.1482 25.8604 16.0801C25.8663 16.057 25.8709 16.0371 25.874 16.0234C25.877 16.0104 25.8791 15.9988 25.8799 15.9951C25.8888 15.9595 25.903 15.9044 25.915 15.8516L25.9297 15.7861C25.9335 15.768 25.9337 15.7667 25.9346 15.7627L25.9619 15.627L25.9678 15.5986C25.9706 15.5848 25.9749 15.5624 25.9795 15.5381C25.9839 15.5148 25.9954 15.4578 26.0049 15.4033C26.0105 15.3707 26.0152 15.3417 26.0176 15.3262C26.0207 15.3058 26.0209 15.3034 26.0215 15.2998C26.0233 15.2887 26.0363 15.2115 26.0449 15.1523C26.0761 14.9374 26.0995 14.7204 26.1162 14.5049C26.1209 14.4451 26.1249 14.3808 26.1289 14.3135C26.1361 14.1917 26.1423 14.0593 26.1455 13.9209L26.1465 13.9072V13.8926L26.1484 13.6748V13.5898C26.1475 13.4569 26.1425 13.3298 26.1367 13.2139C26.135 13.1794 26.1322 13.1331 26.1318 13.1279C26.1288 13.0777 26.1233 13.0089 26.123 13.0049C26.1215 12.9843 26.1169 12.9169 26.1113 12.8564C26.1103 12.8451 26.1085 12.8338 26.1074 12.8223C26.9617 8.8778 27.1171 5.50982 24.8379 4Z" fill="white"/>
<path d="M24.2568 24.4844V27.5625H23.6299C23.5581 27.0757 23.526 26.5588 23.5273 26.0176C23.5291 25.5256 23.5594 25.0132 23.6094 24.4844H24.2568Z" fill="white"/>
<path d="M20.3398 24.4844C20.279 25.5923 20.3395 26.6258 20.5176 27.5625H17.2236C17.1531 27.0756 17.1223 26.5588 17.125 26.0176C17.125 25.5255 17.1688 25.0133 17.2412 24.4844H20.3398Z" fill="white"/>
<path d="M15.8643 19.2783C14.78 22.4854 14.2524 25.3189 14.4492 27.5625H12.1338C12.0798 27.2745 12.035 26.9862 11.999 26.6982C11.963 26.4013 11.9453 26.0588 11.9453 25.6719C11.9454 24.5293 12.1292 23.553 12.498 22.7432C12.6372 22.4449 12.7998 22.1579 12.9854 21.8828C13.0418 21.7991 13.1013 21.7163 13.1621 21.6348C13.1789 21.6123 13.1958 21.5897 13.2129 21.5674C13.2365 21.5366 13.2599 21.5051 13.2842 21.4746C13.2934 21.463 13.3032 21.4511 13.3125 21.4395C13.4358 21.2863 13.5669 21.1365 13.7061 20.9912C13.7375 20.9584 13.7695 20.926 13.8018 20.8936C13.8183 20.877 13.8348 20.8602 13.8516 20.8438C13.8676 20.8279 13.8842 20.8126 13.9004 20.7969C13.9796 20.7202 14.0607 20.6437 14.1445 20.5693C14.2257 20.4982 14.3092 20.4274 14.3945 20.3564C14.4247 20.3314 14.4557 20.3063 14.4863 20.2812C14.5481 20.2308 14.611 20.1802 14.6748 20.1299C14.7058 20.1055 14.7371 20.081 14.7686 20.0566C14.834 20.006 14.9012 19.9558 14.9688 19.9053C15.0005 19.8815 15.0322 19.8568 15.0645 19.833C15.1512 19.7691 15.2399 19.7054 15.3301 19.6416C15.384 19.6035 15.439 19.5654 15.4941 19.5273C15.5497 19.489 15.6063 19.4504 15.6631 19.4121C15.6963 19.3897 15.73 19.3671 15.7637 19.3447C15.797 19.3226 15.8305 19.3004 15.8643 19.2783Z" fill="white"/>
<path d="M20.5166 8.65918C20.5364 8.66589 20.5565 8.67279 20.5762 8.67969C20.6282 8.69793 20.68 8.7178 20.7314 8.7373C20.741 8.74094 20.7512 8.74437 20.7607 8.74805C20.8177 8.76997 20.8744 8.79293 20.9307 8.81641C20.9443 8.82209 20.9581 8.82723 20.9717 8.83301C21.0366 8.86063 21.1012 8.88923 21.165 8.91895L21.333 8.99902C21.3993 9.03182 21.465 9.0666 21.5293 9.10156C21.57 9.12372 21.6105 9.14592 21.6504 9.16895C21.663 9.17622 21.676 9.18404 21.6885 9.19141C21.7258 9.21338 21.7632 9.23507 21.7998 9.25781C21.8206 9.27074 21.8408 9.28467 21.8613 9.29785C21.8875 9.31459 21.9137 9.33149 21.9395 9.34863C21.9698 9.36883 22.0005 9.3894 22.0303 9.41016C22.0467 9.42162 22.0628 9.43369 22.0791 9.44531C22.103 9.46241 22.1268 9.47961 22.1504 9.49707C22.1764 9.51632 22.203 9.53597 22.2285 9.55566C22.2474 9.57022 22.2665 9.58481 22.2852 9.59961C22.3107 9.6199 22.3362 9.64039 22.3613 9.66113C22.3816 9.67785 22.4019 9.6949 22.4219 9.71191C22.4459 9.7324 22.4695 9.7535 22.4932 9.77441C22.5122 9.79123 22.5311 9.8081 22.5498 9.8252C22.5716 9.84512 22.5938 9.86544 22.6152 9.88574C22.6388 9.90807 22.6624 9.93132 22.6855 9.9541C22.6983 9.96667 22.711 9.97948 22.7236 9.99219C22.7494 10.0181 22.7755 10.0438 22.8008 10.0703C22.8255 10.0963 22.8498 10.1229 22.874 10.1494C22.8848 10.1613 22.8956 10.1736 22.9062 10.1855C22.9321 10.2144 22.9572 10.2439 22.9824 10.2734C22.9966 10.29 23.0114 10.3074 23.0254 10.3242C23.1357 10.457 23.2407 10.5956 23.3389 10.7412L23.4365 10.8936L23.4375 10.8955C23.2662 13.1933 22.5841 15.8476 21.6318 18.5029C21.5424 18.7517 21.4582 18.9992 21.3779 19.2451C21.352 19.2664 21.3271 19.2892 21.3008 19.3105C21.2887 19.3203 21.2758 19.3291 21.2637 19.3389C20.622 19.8559 19.8793 20.3786 19.0342 20.9053C18.8967 20.9912 18.7563 21.0771 18.6133 21.1631C18.4893 21.2383 18.3686 21.3129 18.251 21.3867C18.1007 21.4811 17.9553 21.5738 17.8154 21.666C18.1244 20.4191 18.482 19.1267 18.7705 17.8311C18.819 17.6524 18.8654 17.4732 18.9131 17.2949C19.0884 17.1523 19.2551 17.0038 19.4102 16.8457C19.6447 16.6064 19.857 16.3495 20.0449 16.0742C20.0833 16.0183 20.1196 15.9605 20.1543 15.9023C20.1842 15.8523 20.2122 15.8008 20.2393 15.749C20.2679 15.6942 20.2957 15.6387 20.3213 15.582C20.4582 15.2785 20.5504 14.9478 20.5986 14.5898C20.6185 14.4425 20.6309 14.2904 20.6357 14.1338L20.6387 13.9814C20.6386 13.6307 20.5828 13.299 20.4727 12.9863C20.4157 12.8249 20.3441 12.6679 20.2578 12.5166C20.2188 12.4482 20.1769 12.3808 20.1318 12.3145C20.1152 12.29 20.0957 12.2674 20.0781 12.2432C20.3021 10.9508 20.4335 9.72958 20.415 8.62598C20.449 8.63677 20.483 8.64777 20.5166 8.65918Z" fill="white"/>
<path d="M15.1562 17.3574C15.1332 17.3719 15.1099 17.3859 15.0869 17.4004L15.084 17.4023C15.0777 17.4062 15.0593 17.4178 15.0391 17.4307C14.9977 17.4569 14.9192 17.5075 14.9111 17.5127C14.8269 17.567 14.7415 17.622 14.6562 17.6787C14.618 17.7041 14.5804 17.73 14.5449 17.7539C14.482 17.7963 14.4194 17.8388 14.3584 17.8809C14.3026 17.9193 14.2396 17.9637 14.1758 18.0088L13.8779 18.2227C13.8483 18.2445 13.8215 18.2646 13.8047 18.2773C13.7849 18.2924 13.7779 18.2982 13.7705 18.3037L13.5439 18.4756C13.5085 18.503 13.4722 18.5305 13.4365 18.5586C13.3616 18.6176 13.2901 18.6766 13.2217 18.7324C13.1996 18.7504 13.1554 18.7858 13.1162 18.8184C13.0214 18.8972 12.9238 18.9799 12.8262 19.0654L12.8174 19.0732C12.7047 19.1733 12.6005 19.2716 12.5088 19.3604L12.5078 19.3613C12.5048 19.3642 12.5034 19.3651 12.4971 19.3711L12.4473 19.4199L12.3838 19.4834C12.3501 19.5173 12.3067 19.5605 12.2617 19.6074C12.122 19.7532 11.9895 19.9029 11.8633 20.0537C12.0921 19.3077 12.3729 18.5613 12.7041 17.8311C12.9105 17.3746 13.0978 16.919 13.2705 16.4678L15.1562 17.3574Z" fill="white"/>
<path d="M17.6758 13.293C18.8843 13.5 18.4358 15.582 16.877 16.29C16.7847 16.3516 16.6934 16.4139 16.6006 16.4736L16.5996 16.4746C16.4143 16.594 16.2298 16.7076 16.0479 16.8174L16.3232 15.0762C16.3638 14.8193 16.422 14.5944 16.4922 14.3984C16.536 14.2761 16.5848 14.1654 16.6367 14.0654L16.6357 14.0645C16.7111 13.9197 16.797 13.7934 16.8906 13.6807L16.8916 13.6797L16.9561 13.6055C16.9648 13.5965 16.9769 13.5839 16.9932 13.5684C17.1352 13.4327 17.3309 13.2339 17.6758 13.293Z" fill="white"/>
<path d="M17.9727 8.28809C18.1262 9.19492 18.1223 10.2066 18.0039 11.2852C17.9646 11.2842 17.925 11.2813 17.8848 11.2812C17.7906 11.2812 17.6981 11.2852 17.6074 11.291C16.8042 11.3421 16.1393 11.6189 15.6123 12.1221C15.5679 12.1645 15.5239 12.2083 15.4814 12.2539C15.4372 12.3022 15.3944 12.3519 15.3525 12.4023C15.1646 12.6286 15.0009 12.8759 14.8613 13.1445C14.7661 13.328 14.6821 13.5214 14.6094 13.7246C14.4941 14.0465 14.4063 14.3932 14.3477 14.7646L13.9082 14.5566C14.4611 12.6066 14.6792 10.7629 14.5615 9.14746C14.6634 9.09162 14.7676 9.03802 14.874 8.98633C14.9887 8.92954 15.1058 8.87607 15.2246 8.82617L15.2285 8.8252C15.3057 8.79285 15.384 8.76186 15.4629 8.73242C15.4809 8.72568 15.4994 8.7185 15.5176 8.71191C15.5881 8.68633 15.6596 8.66196 15.7314 8.63867C15.7431 8.6349 15.7549 8.63164 15.7666 8.62793C15.851 8.60112 15.9372 8.57542 16.0234 8.55176C16.0344 8.54875 16.0456 8.54593 16.0566 8.54297C16.1254 8.52448 16.1947 8.50673 16.2646 8.49023C16.2922 8.48373 16.3199 8.47689 16.3477 8.4707C16.5172 8.43287 16.6907 8.4013 16.8672 8.375C16.8857 8.37224 16.9043 8.36884 16.9229 8.36621C17.0041 8.3547 17.0862 8.34404 17.1689 8.33496C17.179 8.33386 17.1891 8.3331 17.1992 8.33203C17.4501 8.30547 17.7083 8.29225 17.9727 8.28809Z" fill="white"/>
<path d="M11.6816 12.5762C11.6367 12.8588 11.583 13.1442 11.5254 13.4326L11.4854 13.4141C11.4945 13.3548 11.5047 13.2959 11.5156 13.2373C11.5229 13.1979 11.531 13.1582 11.5391 13.1191C11.5774 12.9348 11.6256 12.754 11.6816 12.5762Z" fill="white"/>
<path d="M18.4258 4C21.3604 4 22.8244 5.51816 23.3008 7.86035C23.28 7.84533 23.2603 7.83131 23.2422 7.81836L23.2412 7.81738C23.2382 7.81517 23.2383 7.81555 23.2314 7.81055L23.1738 7.76953C23.1254 7.73578 23.0791 7.70438 23.0479 7.68359L22.9453 7.61719C22.9422 7.61514 22.9422 7.61505 22.9336 7.60938C22.9217 7.60151 22.8911 7.58076 22.8555 7.55859L22.7031 7.46777L22.7021 7.4668L22.6992 7.46582L22.6953 7.46289C22.6953 7.46289 22.6915 7.46115 22.6895 7.45996C22.6816 7.45531 22.667 7.44609 22.6504 7.43652C22.587 7.39995 22.5275 7.36764 22.4854 7.34473C22.4082 7.30273 22.3177 7.25453 22.2197 7.20605L22.207 7.2002L22.1934 7.19336L22.0254 7.11328L22.0176 7.10938L22.0088 7.10547L21.7549 6.99316L21.7119 6.97461C21.7065 6.97242 21.7014 6.9704 21.6973 6.96875L21.7012 6.9707C21.6317 6.94169 21.5568 6.91096 21.4785 6.88086L21.4219 6.86035L21.2373 6.79199C21.2098 6.78235 21.1838 6.77367 21.1602 6.76562C21.0922 6.74256 21.0264 6.72132 20.9746 6.70508C20.97 6.70352 20.9593 6.70022 20.9473 6.69629C20.9346 6.69214 20.917 6.68691 20.8965 6.68066L20.8799 6.67578L20.8643 6.6709L20.6523 6.61035L20.6367 6.60547L20.3438 6.53223C20.2729 6.5158 20.2027 6.50151 20.1338 6.4873C19.8401 5.4331 19.3004 4.5793 18.4258 4Z" fill="white"/>
<path d="M12.0146 4C14.7587 4.00005 16.4014 4.87916 17.2744 6.31641C17.1788 6.32372 17.0834 6.3327 16.9883 6.34277L16.9844 6.34375L16.9512 6.34668L16.6426 6.38574C16.6093 6.39045 16.5807 6.39591 16.5713 6.39746C16.5688 6.39787 16.5664 6.39746 16.5664 6.39746C16.5664 6.39746 16.5699 6.39684 16.5723 6.39648C16.3544 6.42896 16.1335 6.46916 15.9121 6.51855C15.8843 6.52476 15.8597 6.53112 15.8428 6.53516L15.8057 6.54395C15.7111 6.56625 15.6208 6.58884 15.5371 6.61133L15.5342 6.6123C15.5284 6.6138 15.5134 6.61832 15.4961 6.62305H15.4941C15.3797 6.65445 15.268 6.68774 15.1611 6.72168C15.164 6.72075 15.1666 6.71949 15.1689 6.71875C15.1653 6.71984 15.1609 6.72124 15.1562 6.72266L15.1152 6.73633C15.0241 6.76586 14.9298 6.79761 14.835 6.83203C14.8126 6.84016 14.793 6.84749 14.7822 6.85156L14.7637 6.8584C14.7146 6.87669 14.666 6.89674 14.6172 6.91602L14.5908 6.92285L14.4502 6.98242C14.3634 7.01889 14.2781 7.05916 14.1924 7.09863C13.7822 5.76237 13.0589 4.69169 12.0146 4Z" fill="white"/>
<path d="M15.1689 6.71875C15.1728 6.7176 15.1777 6.7168 15.1777 6.7168L15.1797 6.71582C15.1797 6.71582 15.1739 6.71722 15.1689 6.71875Z" fill="white"/>
</svg>
