<svg width="36" height="36" viewBox="0 0 36 36" fill="none" xmlns="http://www.w3.org/2000/svg">
<path d="M1 35H9V36H0V27H1V35Z" fill="#444856"/>
<path d="M36 36H27V35H35V27H36V36Z" fill="#444856"/>
<path d="M8.9248 18.7344C10.0283 18.299 9.56865 20.0526 9.71777 20.7207C10.0879 22.2355 12.4796 22.2476 13.3623 23.6016C14.0183 25.0747 13.9054 26.7445 13.3926 27.8301C13.661 29.4943 15.1579 30.8905 17.0488 32H10.207C9.88493 31.0993 9.70571 29.6911 9.44922 28.6055C8.94235 28.2655 8.45046 27.7943 8.02051 27.2695C8.67953 27.0608 9.46186 26.6974 9.7959 26.0176C10.4281 26.3812 11.1797 26.4882 11.9072 26.2139C10.9886 25.856 9.28207 24.5796 8.95996 22.7842C8.28733 21.7881 8.51271 20.0644 8.9248 18.7344Z" fill="#444856"/>
<path d="M6.00391 27.1211C6.32467 27.282 6.6442 27.3774 7.03711 27.4072L6.26172 30.6455L5.21777 30.3955L6.00391 27.1211Z" fill="#444856"/>
<path d="M13.75 4.36426C17.2812 3.29534 21.94 5.99097 23.3418 9.45898C24.567 16.4161 31.1512 14.8718 31.1914 14.8623C32.1995 20.1293 25.3165 21.1557 26.9746 27.0967C23.8669 28.3493 18.9994 26.1603 18.0928 20.249C17.5023 16.4198 12.8501 17.4931 10.5117 18.3281C10.464 18.2745 10.4102 18.2147 10.3506 18.167L13.75 4.36426Z" fill="#444856"/>
<path d="M8.71484 25.2002C8.95404 25.23 8.87702 25.588 8.68555 25.749C8.02345 26.1845 7.24738 26.4707 6.68848 26.25C6.50763 26.1783 6.13491 25.9992 6.03711 25.6416C6.79871 25.7072 7.96683 25.7308 8.71484 25.2002Z" fill="#444856"/>
<path d="M5.25781 23.4287C6.17814 23.5182 7.15888 23.6787 8.16211 23.8994C8.24558 24.132 8.25891 24.2455 7.99023 24.3945C7.30665 24.663 6.46683 24.6213 5.53809 24.502C5.26962 24.3943 4.72452 23.7567 5.25781 23.4287Z" fill="#444856"/>
<path d="M5.44727 21.4297C6.0885 21.4893 6.82111 21.6149 7.43848 21.7461C7.47785 22.0563 7.5516 22.3609 7.6709 22.6592C6.94556 22.522 6.0513 22.4139 5.22754 22.3662C4.81863 22.1693 5.00312 21.5313 5.44727 21.4297Z" fill="#444856"/>
<path d="M6.45605 19.5098C6.78651 19.6112 7.16262 19.7483 7.53125 19.8975C7.48773 20.124 7.45039 20.3688 7.42773 20.6133C6.90833 20.5179 6.36213 20.4464 5.8457 20.3867C5.74194 20.0051 6.02854 19.5994 6.45605 19.5098Z" fill="#444856"/>
<path d="M12.5928 4.25098L9.37207 17.6846C8.97251 17.6011 8.53637 17.6542 8.20117 17.9463L11.543 4L12.5928 4.25098Z" fill="#444856"/>
<path d="M9 1H1V9H0V0H9V1Z" fill="#444856"/>
<path d="M36 9H35V1H27V0H36V9Z" fill="#444856"/>
</svg>
