<svg width="36" height="36" viewBox="0 0 36 36" fill="none" xmlns="http://www.w3.org/2000/svg">
<path d="M1 35H9V36H0V27H1V35Z" fill="white"/>
<path d="M36 36H27V35H35V27H36V36Z" fill="white"/>
<path d="M33.0479 30.8848V32H4.30469V30.8848H33.0479Z" fill="white"/>
<path d="M18.6768 22.9551C19.9707 22.955 21.2419 23.2961 22.3623 23.9434C24.4817 25.1671 25.8424 27.3533 26.0254 29.7695H11.3281C11.5111 27.3534 12.871 25.167 14.9902 23.9434C16.1107 23.296 17.3827 22.955 18.6768 22.9551Z" fill="white"/>
<path d="M9.22656 26.9629L8.7998 27.9932L6.51074 27.0449L6.93652 26.0146L9.22656 26.9629Z" fill="white"/>
<path d="M30.8428 27.0449L28.5537 27.9932L28.127 26.9629L30.416 26.0146L30.8428 27.0449Z" fill="white"/>
<path d="M11.1416 23.1191L10.3535 23.9072L6.84863 20.4033L7.6377 19.6152L11.1416 23.1191Z" fill="white"/>
<path d="M30.5039 20.4033L27 23.9072L26.2119 23.1191L29.7158 19.6152L30.5039 20.4033Z" fill="white"/>
<path d="M15.1035 21.1934L14.0732 21.6201L13.125 19.3311L14.1553 18.9043L15.1035 21.1934Z" fill="white"/>
<path d="M24.2285 19.3311L23.2803 21.6201L22.25 21.1934L23.1982 18.9043L24.2285 19.3311Z" fill="white"/>
<path d="M19.2344 15.584V20.54H18.1191V15.584H19.2344Z" fill="white"/>
<path d="M22.6416 8.95605H20.6592V12.9199H16.6943V8.95605H14.7119L18.6768 4L22.6416 8.95605Z" fill="white"/>
<path d="M9 1H1V9H0V0H9V1Z" fill="white"/>
<path d="M36 9H35V1H27V0H36V9Z" fill="white"/>
</svg>
