<svg width="36" height="36" viewBox="0 0 36 36" fill="none" xmlns="http://www.w3.org/2000/svg">
<path d="M1 35H9V36H0V27H1V35Z" fill="#B9B29D"/>
<path d="M36 36H27V35H35V27H36V36Z" fill="#B9B29D"/>
<path d="M4 13.3867C9.70509 35.4273 20.8916 24.625 31.8311 24.3662C17.5352 32.3513 5.06499 31.1841 4 13.3867Z" fill="#B9B29D"/>
<path d="M16.293 8.97266C17.4886 9.03278 18.6286 9.25973 19.7158 9.6416C17.3094 14.6648 16.2719 19.9019 17.8096 25.5391C16.3522 25.6177 14.9482 25.4823 13.6201 24.9785C11.761 23.2562 10.5791 20.6961 10.5791 17.8213C10.5791 13.7357 12.9669 10.2853 16.293 8.97266Z" fill="#B9B29D"/>
<path d="M21.709 10.5439C23.9954 11.8213 26.0339 13.8321 27.8682 16.4375C27.9292 16.8887 27.9619 17.3509 27.9619 17.8213C27.9619 20.1852 27.1615 22.3349 25.8438 23.9824C23.8284 24.4374 21.8446 24.9813 19.9326 25.2969C21.7742 22.0107 22.5301 18.3972 22.3389 14.7471C22.1242 14.8498 21.8837 14.9062 21.6299 14.9062C20.7214 14.9062 19.9854 14.17 19.9854 13.2617C19.9856 12.3538 20.7216 11.6182 21.6299 11.6182C21.7381 11.618 21.846 11.6285 21.9521 11.6494C21.8799 11.2791 21.7992 10.9103 21.709 10.5439Z" fill="#B9B29D"/>
<path d="M29.0488 18.2412C29.9666 19.744 30.8297 21.4022 31.6465 23.1963C30.2339 23.1975 28.8166 23.3847 27.4092 23.6543C28.3827 22.0911 28.9755 20.2353 29.0488 18.2412Z" fill="#B9B29D"/>
<path d="M13.8389 9.07715C11.2092 10.9673 9.48342 14.1884 9.4834 17.8213C9.4834 19.8256 10.0092 21.7036 10.9219 23.3027C8.79633 21.3709 6.94525 17.9723 5.47949 12.2764C8.5211 10.4442 11.2978 9.4107 13.8389 9.07715Z" fill="#B9B29D"/>
<path d="M16.4492 7C26.5639 6.97029 32 12.9688 32 21.376C28.833 12.6797 22.833 6.65967 11.1113 7.51562C13.0136 7.1722 14.7942 7.00487 16.4492 7Z" fill="#B9B29D"/>
<path d="M9 1H1V9H0V0H9V1Z" fill="#B9B29D"/>
<path d="M36 9H35V1H27V0H36V9Z" fill="#B9B29D"/>
</svg>
