<svg width="36" height="36" viewBox="0 0 36 36" fill="none" xmlns="http://www.w3.org/2000/svg">
<path d="M1 35H9V36H0V27H1V35Z" fill="#444856"/>
<path d="M36 36H27V35H35V27H36V36Z" fill="#444856"/>
<path d="M9 1H1V9H0V0H9V1Z" fill="#444856"/>
<path d="M36 9H35V1H27V0H36V9Z" fill="#444856"/>
<path d="M15.4418 4.76601C14.5502 5.66568 14.4985 6.10759 14.0486 7.34592C14.2083 7.88302 14.3545 8.34061 14.5916 8.82189C14.8977 8.83852 15.2305 8.84951 15.5022 8.84715C15.1395 8.24729 15.011 7.71184 15.2213 6.77432C15.4765 7.89377 15.9838 8.53682 16.4797 8.7918C16.6597 8.77217 16.8333 8.74984 17.0006 8.72446C16.6293 8.11701 16.4964 7.58033 16.7089 6.63317C16.9402 7.64802 17.3788 8.27127 17.8283 8.56885C18.1048 8.50756 18.3793 8.43704 18.6549 8.36118C18.3274 7.79176 18.2181 7.26277 18.4193 6.36574C18.6185 7.23991 18.9716 7.82367 19.353 8.15897C19.6274 8.07511 19.9015 7.98996 20.1751 7.90353C20.1345 7.56375 20.1504 7.18737 20.2383 6.78026L20.35 6.26313L21.3948 6.48409L21.2832 7.00144C21.0674 8.0009 21.3618 8.43645 21.7169 8.68597C22.0718 8.93536 22.5887 8.88929 22.6683 8.83875L23.1179 8.55316L23.6948 9.44343C23.4659 9.58094 23.2259 9.76311 22.9932 9.8583C24.1001 11.4848 24.9033 13.4702 24.4625 15.3557C24.3221 15.9124 24.1046 16.4277 23.7672 16.8239C24.5224 17.5367 25.0263 18.1183 25.609 18.8513C25.3791 18.7046 25.1478 18.5603 24.915 18.4182C24.2386 18.0063 23.5006 17.5829 22.8389 17.2545C21.8886 16.7962 20.9772 16.1848 20.006 16.0485C18.6675 15.8742 17.2598 16.3304 15.6543 17.2861C16.1216 17.7985 16.4427 18.1954 16.8599 18.7134C16.4456 18.4584 15.9903 18.1804 15.4853 17.8771C13.5532 16.85 11.6043 15.0431 9.52412 14.9395C7.71033 14.8754 5.96585 15.8184 4.20162 17.2059L3.9375 17.4139V31.5H5.83457C8.51632 30.4753 10.5998 28.112 11.5935 25.9457L11.6083 25.9125L11.6276 25.8819C12.1893 24.9857 12.2893 24.1374 12.6241 23.2533C12.9592 22.3693 13.6276 21.507 15.11 20.9759C15.3684 20.8489 15.4109 20.8927 15.6224 21.0579C17.4308 22.4688 19.0227 22.9395 20.5629 22.9589C22.4983 22.8674 24.0315 22.3782 25.6483 21.82C25.4129 22.0273 25.1278 22.2437 24.8182 22.4524C23.9087 23.0657 22.7873 23.6235 22.0699 23.9098C21.1965 24.0277 20.3867 24.0518 19.5791 23.946C18.988 24.6564 18.0612 25.1423 17.3623 25.5134C21.1561 26.3374 24.24 25.5669 27.297 24.1679C26.7319 24.0612 26.1688 23.951 25.6355 23.8494C27.5131 23.5896 29.4924 23.6281 31.2564 23.642C31.4988 23.6408 31.6845 23.6154 31.7728 23.5899C32.6136 20.5887 31.5298 17.8374 29.7374 15.0565C27.9412 12.2696 25.4534 9.5264 23.6897 6.65092C22.4373 5.63683 20.8051 4.8025 19.0886 3.9375C17.8786 4.18725 16.6536 4.48606 15.4418 4.76601ZM20.5096 8.90827C19.8165 9.11982 19.1023 9.34459 18.5004 9.49661C18.6504 9.78632 18.7221 10.1233 18.7019 10.4487C19.3564 10.5002 19.9532 10.3301 20.421 10.0752C20.7086 9.91854 20.9398 9.7198 21.0985 9.54868C20.8697 9.38796 20.6676 9.17212 20.5096 8.90827ZM17.2919 9.77198C16.5939 9.83915 15.8325 9.91078 15.211 9.90337C15.3529 10.1838 15.4354 10.6125 15.7161 10.7754C16.3797 10.8438 16.9388 10.8928 17.4914 10.6728C17.8139 10.484 17.5993 9.78796 17.2919 9.77198ZM15.2158 22.0731C14.1716 22.4982 13.8753 22.9628 13.6244 23.6248C13.3871 24.2513 13.2548 25.0984 12.765 26.035C14.6815 25.6601 16.8974 24.7874 18.3353 23.6792C17.3253 23.3797 16.2844 22.8652 15.2158 22.0731ZM15.7688 26.268C14.6576 26.6932 13.3451 27.2167 12.2258 27.0943C11.4024 28.7193 10.2295 30.3265 8.31542 31.5H13.3413C14.6212 29.749 15.6007 28.1754 15.7688 26.268Z" fill="#444856"/>
</svg>
