<svg width="64" height="64" viewBox="0 0 64 64" fill="none" xmlns="http://www.w3.org/2000/svg">
<path d="M4 60H16V64H0V48H4V60Z" fill="white"/>
<path d="M64 64H48V60H60V48H64V64Z" fill="white"/>
<path d="M16 4H4V16H0V0H16V4Z" fill="white"/>
<path d="M64 16H60V4H48V0H64V16Z" fill="white"/>
<path d="M27.4521 8.47291C25.8671 10.0723 25.7751 10.8579 24.9754 13.0594C25.2592 14.0143 25.5192 14.8278 25.9406 15.6834C26.4849 15.7129 27.0765 15.7325 27.5594 15.7283C26.9147 14.6619 26.6862 13.7099 27.06 12.0432C27.5137 14.0334 28.4156 15.1766 29.2972 15.6299C29.6172 15.595 29.9258 15.5553 30.2232 15.5101C29.5632 14.4302 29.327 13.4761 29.7047 11.7923C30.1159 13.5965 30.8957 14.7045 31.6947 15.2335C32.1862 15.1245 32.6742 14.9992 33.1642 14.8643C32.5821 13.852 32.3877 12.9116 32.7453 11.3169C33.0996 12.8709 33.7274 13.9087 34.4053 14.5048C34.8932 14.3558 35.3804 14.2044 35.8669 14.0507C35.7946 13.4467 35.823 12.7775 35.9792 12.0538L36.1778 11.1345L38.0352 11.5273L37.8369 12.447C37.4532 14.2238 37.9766 14.9981 38.6077 15.4417C39.2387 15.8851 40.1578 15.8032 40.2991 15.7133L41.0985 15.2056L42.1241 16.7883C41.7172 17.0328 41.2906 17.3566 40.8767 17.5259C42.8446 20.4174 44.2725 23.9471 43.4888 27.2989C43.2393 28.2887 42.8526 29.2048 42.2527 29.9092C43.5954 31.1764 44.4912 32.2102 45.5271 33.5134C45.1184 33.2527 44.7072 32.996 44.2934 32.7434C43.0908 32.0111 41.7788 31.2585 40.6025 30.6747C38.913 29.8599 37.2928 28.7729 35.5663 28.5307C33.1867 28.2208 30.6841 29.0319 27.83 30.7308C28.6606 31.6418 29.2314 32.3474 29.9732 33.2682C29.2367 32.815 28.4272 32.3207 27.5294 31.7816C24.0945 29.9555 20.6298 26.7434 16.9318 26.5592C13.7072 26.4451 10.606 28.1215 7.46954 30.5884L7 30.9581V56H10.3726C15.1401 54.1784 18.844 49.977 20.6106 46.1256L20.637 46.0667L20.6713 46.0124C21.6698 44.419 21.8476 42.9109 22.4429 41.3392C23.0385 39.7676 24.2268 38.2346 26.8623 37.2905C27.3216 37.0648 27.3972 37.1426 27.7732 37.4362C30.988 39.9445 33.8181 40.7813 36.5562 40.8158C39.9971 40.6531 42.7227 39.7834 45.5969 38.7911C45.1785 39.1597 44.6716 39.5444 44.1212 39.9154C42.5044 41.0057 40.5108 41.9973 39.2354 42.5063C37.6827 42.7158 36.2431 42.7587 34.8073 42.5706C33.7564 43.8337 32.1089 44.6974 30.8663 45.3571C37.6108 46.8221 43.0934 45.4522 48.528 42.9652C47.5233 42.7754 46.5224 42.5795 45.5742 42.399C48.9121 41.937 52.431 42.0056 55.567 42.0302C55.9979 42.0281 56.3281 41.9829 56.485 41.9376C57.9798 36.6022 56.0529 31.7109 52.8665 26.7671C49.6733 21.8126 45.2504 16.9358 42.1149 11.8239C39.8886 10.021 36.9869 8.53778 33.9352 7C31.7842 7.44399 29.6064 7.97522 27.4521 8.47291ZM36.4615 15.8369C35.2293 16.213 33.9597 16.6126 32.8896 16.8829C33.1562 17.3979 33.2837 17.9969 33.2478 18.5755C34.4114 18.6671 35.4723 18.3647 36.304 17.9115C36.8153 17.633 37.2262 17.2796 37.5084 16.9754C37.1017 16.6897 36.7423 16.3058 36.4614 15.8367L36.4615 15.8369ZM30.7412 17.3724C29.5004 17.4918 28.1466 17.6192 27.0419 17.606C27.294 18.1045 27.4407 18.8666 27.9398 19.1563C29.1194 19.2779 30.1134 19.3649 31.0957 18.9739C31.6692 18.6382 31.2876 17.4008 30.7412 17.3724ZM27.0503 39.2411C25.194 39.9967 24.6672 40.8228 24.2211 41.9997C23.7993 43.1133 23.5641 44.6194 22.6933 46.2844C26.1004 45.6179 30.0397 44.0665 32.596 42.0964C30.8005 41.5639 28.9502 40.6493 27.0505 39.2411H27.0503ZM28.0335 46.6986C26.0579 47.4547 23.7247 48.3852 21.7347 48.1677C20.271 51.0565 18.1858 53.9138 14.783 56H23.7179C25.9933 52.887 27.7346 50.0897 28.0335 46.6986Z" fill="white"/>
</svg>
