<svg width="36" height="36" viewBox="0 0 36 36" fill="none" xmlns="http://www.w3.org/2000/svg">
<path d="M1 35H9V36H0V27H1V35Z" fill="white"/>
<path d="M36 36H27V35H35V27H36V36Z" fill="white"/>
<path d="M24.3779 20.8848C25.1925 20.885 25.8559 21.5307 25.8867 22.3379C26.8536 22.5292 27.7855 22.7576 28.668 23.0234C28.5062 23.3659 28.3279 23.7002 28.1338 24.0254C27.3011 23.7855 26.4189 23.5797 25.501 23.4072C25.2245 23.7143 24.8236 23.9071 24.3779 23.9072C23.77 23.9072 23.2456 23.548 23.0059 23.0303C21.5578 22.8615 20.0577 22.7674 18.5518 22.749V25.623C19.1371 25.6536 19.7188 25.7332 20.291 25.8604C20.5512 25.5317 20.9535 25.3204 21.4053 25.3203C22.1898 25.3203 22.8261 25.9567 22.8262 26.7412C22.8262 26.7536 22.8256 26.766 22.8252 26.7783C23.4102 27.0805 23.9655 27.4371 24.4834 27.8438C24.1491 28.0644 23.8034 28.2679 23.4482 28.4531C23.1034 28.2068 22.7421 27.9845 22.3672 27.7871C22.1141 28.0199 21.7762 28.1621 21.4053 28.1621C20.683 28.162 20.0871 27.6226 19.9971 26.9248C19.5202 26.8213 19.0368 26.756 18.5518 26.7275V29.7754C18.1823 29.7927 17.8118 29.7926 17.4424 29.7754V26.7275C16.9609 26.7558 16.4822 26.8204 16.0107 26.9219C15.9218 27.6211 15.3249 28.1621 14.6016 28.1621C14.2432 28.1625 13.898 28.0264 13.6357 27.7822C13.2573 27.9809 12.8927 28.2056 12.5449 28.4541C12.1898 28.2689 11.8441 28.0653 11.5098 27.8447C12.0316 27.4348 12.5916 27.0753 13.1816 26.7715C13.1815 26.7615 13.1816 26.7514 13.1816 26.7412C13.1817 25.9567 13.8172 25.3205 14.6016 25.3203C15.052 25.3203 15.4535 25.5303 15.7139 25.8574C16.2825 25.7318 16.8609 25.6534 17.4424 25.623V22.749C15.9415 22.7674 14.4465 22.8605 13.0029 23.0283C12.7636 23.547 12.2386 23.9072 11.6299 23.9072C11.183 23.9071 10.7813 23.7128 10.5049 23.4043C9.582 23.5773 8.69519 23.7852 7.8584 24.0264C7.66426 23.7013 7.48603 23.3667 7.32422 23.0244C8.21141 22.757 9.14863 22.5269 10.1211 22.335C10.1533 21.529 10.8162 20.8859 11.6299 20.8857C12.2833 20.8857 12.8401 21.3002 13.0508 21.8809C14.5542 21.7078 16.1047 21.6164 17.6582 21.6045C17.7693 21.6149 17.8823 21.6211 17.9961 21.6211C18.109 21.6209 18.2226 21.6152 18.335 21.6045C19.8933 21.6163 21.4483 21.7087 22.9561 21.8828C23.1662 21.301 23.7236 20.8848 24.3779 20.8848Z" fill="white"/>
<path d="M17.9961 15.4883C18.3262 15.4872 18.6538 15.5519 18.959 15.6777C19.264 15.8035 19.5411 15.9884 19.7744 16.2217C20.0078 16.4551 20.1935 16.7329 20.3193 17.0381C20.445 17.3431 20.5089 17.6701 20.5078 18C20.5089 18.3301 20.4452 18.6577 20.3193 18.9629C20.1935 19.2681 20.0078 19.5449 19.7744 19.7783C19.541 20.0118 19.2642 20.1974 18.959 20.3232C18.6538 20.4491 18.3262 20.5128 17.9961 20.5117C17.6662 20.5128 17.3392 20.449 17.0342 20.3232C16.729 20.1974 16.4512 20.0118 16.2178 19.7783C15.9845 19.545 15.7996 19.2679 15.6738 18.9629C15.548 18.6577 15.4833 18.3301 15.4844 18C15.4833 17.67 15.5481 17.3431 15.6738 17.0381C15.7997 16.7329 15.9844 16.4551 16.2178 16.2217C16.4512 15.9882 16.729 15.8036 17.0342 15.6777C17.3392 15.552 17.6661 15.4872 17.9961 15.4883Z" fill="white"/>
<path d="M10.6738 16.2441C11.4237 16.2443 12.0564 16.7466 12.2549 17.4326H14.4209C14.3624 17.7996 14.3605 18.1735 14.416 18.541H12.1855C11.9333 19.1264 11.3517 19.537 10.6738 19.5371C9.99587 19.5371 9.41345 19.1266 9.16113 18.541H6.20996C6.19271 18.1717 6.19271 17.8019 6.20996 17.4326H9.09277C9.29132 16.7466 9.92365 16.2441 10.6738 16.2441Z" fill="white"/>
<path d="M25.334 16.2441C26.0841 16.2441 26.7165 16.7466 26.915 17.4326H29.7822C29.7995 17.802 29.7994 18.1718 29.7822 18.541H26.8467C26.5944 19.1267 26.012 19.5371 25.334 19.5371C24.6559 19.537 24.0735 19.1265 23.8213 18.541H21.5762C21.6317 18.1735 21.6307 17.7997 21.5723 17.4326H23.7529C23.9515 16.7466 24.584 16.2442 25.334 16.2441Z" fill="white"/>
<path d="M18.5518 6.20215V9.24805C19.0342 9.21962 19.5139 9.15463 19.9863 9.05273C20.023 8.30091 20.6444 7.70235 21.4053 7.70215C21.8131 7.70215 22.1814 7.87408 22.4404 8.14941C22.7893 7.96209 23.1259 7.75243 23.4482 7.52246C23.8034 7.70775 24.1491 7.9112 24.4834 8.13184C23.9654 8.53871 23.4095 8.89601 22.8242 9.19824C22.785 9.94788 22.1646 10.5439 21.4053 10.5439C20.9978 10.5438 20.6311 10.3715 20.3721 10.0967C19.774 10.2345 19.1647 10.3204 18.5518 10.3525V13.2266C20.0187 13.2086 21.4802 13.1188 22.8936 12.958C23.0268 12.2599 23.641 11.7324 24.3779 11.7324C24.9538 11.7325 25.4541 12.0544 25.709 12.5283C26.5522 12.3642 27.3632 12.1709 28.1328 11.9492C28.3271 12.2746 28.506 12.6095 28.668 12.9521C27.7691 13.2229 26.8191 13.455 25.833 13.6484C25.6558 14.2858 25.0717 14.7537 24.3779 14.7539C23.8504 14.7539 23.3855 14.483 23.1152 14.0732C19.7871 14.4711 16.2195 14.472 12.8906 14.0752C12.6202 14.484 12.1567 14.7539 11.6299 14.7539C10.9373 14.7538 10.3541 14.2872 10.1758 13.6514C9.18399 13.4573 8.22881 13.2235 7.3252 12.9512C7.48711 12.6085 7.66601 12.2736 7.86035 11.9482C8.63396 12.1711 9.44884 12.3665 10.2969 12.5312C10.5514 12.0556 11.0529 11.7315 11.6299 11.7314C12.3673 11.7314 12.9815 12.2603 13.1143 12.959C14.5233 13.1188 15.98 13.2086 17.4424 13.2266V10.3525C16.8334 10.3205 16.2282 10.236 15.6338 10.0996C15.3749 10.373 15.0087 10.5438 14.6025 10.5439C13.8456 10.5439 13.227 9.95147 13.1846 9.20508C12.5939 8.90129 12.0331 8.54116 11.5107 8.13086C11.845 7.91026 12.1907 7.70756 12.5459 7.52246C12.8712 7.75452 13.2113 7.96552 13.5635 8.1543C13.8228 7.87635 14.1925 7.70215 14.6025 7.70215C15.3642 7.70237 15.9862 8.30266 16.0215 9.05566C16.4895 9.15601 16.9646 9.21988 17.4424 9.24805V6.20117C17.6268 6.19257 17.8116 6.18848 17.9961 6.18848C18.1813 6.18852 18.3668 6.19333 18.5518 6.20215Z" fill="white"/>
<path fill-rule="evenodd" clip-rule="evenodd" d="M18 4C25.7253 4.00002 32 10.2747 32 18C32 25.7254 25.7253 32 18 32C10.2746 32 4.00003 25.7254 4 18C4 10.3955 10.0799 4.19691 17.6387 4.00488L18 4ZM18 5.10938C10.8742 5.10939 5.10938 10.8742 5.10938 18C5.10947 24.9389 10.576 30.5863 17.4424 30.8779C17.6271 30.8858 17.8122 30.8896 17.9971 30.8896L18.5518 30.8779C20.5331 30.7947 22.398 30.2662 24.0488 29.3887L24.376 29.208C24.5289 29.1208 24.6798 29.0298 24.8291 28.9365C24.8475 28.9251 24.8665 28.9139 24.8848 28.9023C24.9405 28.8672 24.9955 28.831 25.0508 28.7949C25.082 28.7745 25.1136 28.7542 25.1445 28.7334C26.8498 27.5966 28.2609 26.0712 29.2607 24.2822C29.2897 24.2303 29.3185 24.1783 29.3467 24.126C29.3825 24.0594 29.4185 23.9929 29.4531 23.9258C29.4625 23.9077 29.4721 23.8893 29.4814 23.8711C29.4856 23.863 29.49 23.8548 29.4941 23.8467C29.5358 23.7649 29.5763 23.6822 29.6162 23.5996C29.6248 23.5819 29.6332 23.5636 29.6416 23.5459C30.4421 21.8665 30.8906 19.9863 30.8906 18C30.8906 10.8742 25.1258 5.10938 18 5.10938Z" fill="white"/>
<path d="M9 1H1V9H0V0H9V1Z" fill="white"/>
<path d="M36 9H35V1H27V0H36V9Z" fill="white"/>
</svg>
