<svg width="36" height="36" viewBox="0 0 36 36" fill="none" xmlns="http://www.w3.org/2000/svg">
<path d="M1 35H9V36H0V27H1V35Z" fill="#B9B29D"/>
<path d="M36 36H27V35H35V27H36V36Z" fill="#B9B29D"/>
<path d="M9 1H1V9H0V0H9V1Z" fill="#B9B29D"/>
<path d="M36 9H35V1H27V0H36V9Z" fill="#B9B29D"/>
<path d="M12.5448 3.9375C10.4121 3.9375 8.47935 4.29631 7.0313 4.90792C6.30724 5.21379 5.7014 5.58177 5.25137 6.03116C4.80141 6.48055 4.50023 7.04029 4.50023 7.65578C4.50023 7.70166 4.50256 7.74707 4.50581 7.79225H4.5V11.9244C4.5 12.5397 4.80147 13.0993 5.25161 13.5485C5.70175 13.9978 6.30776 14.3658 7.03182 14.6717C8.48017 15.2834 10.4128 15.6423 12.5445 15.6423C14.6762 15.6423 16.6088 15.2834 18.0572 14.6717C18.7813 14.3658 19.3873 13.9978 19.8374 13.5485C20.2876 13.0993 20.5889 12.5398 20.5889 11.9243V10.7066C21.1276 10.7315 21.6182 10.7977 22.0597 10.8966C22.0133 11.1173 22.0025 11.3483 22.0227 11.5759C22.0773 12.191 22.3392 12.8261 22.781 13.3941C23.2228 13.962 23.7713 14.3687 24.3493 14.5667C24.4897 14.6149 24.6343 14.6496 24.7811 14.6703C24.5895 14.9969 24.3034 15.3206 23.9086 15.623C23.6535 15.2932 23.2751 15.0677 22.8685 14.9491C22.612 14.8742 22.3375 14.8354 22.0527 14.8331C22.0121 14.8328 21.9713 14.8332 21.9301 14.8344C21.6016 14.8438 21.2609 14.9009 20.9194 15.0067C20.2365 15.2181 19.6634 15.5884 19.2719 16.0622C19.0249 16.3611 18.846 16.7202 18.7937 17.0972C18.5626 17.1067 18.3264 17.1127 18.0818 17.1127C17.6304 17.1127 17.1977 17.142 16.7842 17.1973C16.5081 16.9347 16.1437 16.7678 15.7631 16.6926C15.6107 16.6628 15.4561 16.6453 15.3009 16.6406C15.2413 16.6386 15.1816 16.6384 15.1219 16.64C14.7013 16.6506 14.261 16.745 13.8264 16.923C13.1645 17.1942 12.6257 17.6142 12.2768 18.1208C11.9432 18.6051 11.7782 19.2129 11.9702 19.7804C11.3851 20.5243 11.0064 21.3639 10.8522 22.2179C10.8159 22.2353 10.7799 22.2537 10.7445 22.2744C10.2003 22.5923 9.94078 23.2014 9.90794 23.8181C9.87505 24.4348 10.0445 25.1012 10.4017 25.7272C10.7588 26.3532 11.2443 26.8351 11.7885 27.1146C12.3325 27.3942 12.9836 27.4713 13.5277 27.1533C13.5397 27.1463 13.5508 27.1385 13.5625 27.1312C14.249 27.4094 15.055 27.5729 15.9729 27.5939V28.3444C15.9729 28.9598 16.2743 29.5194 16.7245 29.9687C17.1747 30.4179 17.7806 30.7859 18.5048 31.0917C19.9531 31.7035 21.8858 32.0625 24.0174 32.0625C26.1491 32.0625 28.0817 31.7035 29.53 31.0917C30.2542 30.7859 30.8602 30.4179 31.3104 29.9687C31.7606 29.5193 32.0619 28.9597 32.0619 28.3443V24.0946C32.0619 24.0884 32.0625 24.0823 32.0625 24.0761C32.0625 24.0699 32.0619 24.0637 32.0619 24.0576V24.0343C32.0485 23.4353 31.751 22.8907 31.3112 22.4515C30.8612 22.0021 30.2553 21.6341 29.5313 21.3283C28.0831 20.7165 26.1505 20.3579 24.0178 20.3579C21.8851 20.3579 19.9523 20.7167 18.5042 21.3283C17.7802 21.6341 17.1743 22.0021 16.7243 22.4515C16.2742 22.9009 15.973 23.4606 15.973 24.0761C15.973 24.122 15.9753 24.1675 15.9786 24.2128H15.9728V26.4937C15.3096 26.4771 14.7379 26.3794 14.2508 26.2195C14.3156 26.0242 14.3531 25.8175 14.3641 25.6097C14.397 24.993 14.2275 24.3265 13.8704 23.7005C13.5133 23.0745 13.0276 22.5927 12.4836 22.3132C12.325 22.2314 12.1576 22.1685 11.9848 22.1255C12.1149 21.6194 12.347 21.1135 12.6814 20.6409C12.8979 20.7715 13.1417 20.8615 13.3928 20.911C13.9917 21.0293 14.6674 20.9517 15.3294 20.6804C15.9915 20.4093 16.5301 19.9893 16.8791 19.4827C17.1304 19.1178 17.2857 18.6829 17.2654 18.2479C17.528 18.2245 17.8 18.212 18.0818 18.212C18.4129 18.212 18.7329 18.2032 19.0432 18.187C19.2969 18.5605 19.7029 18.8127 20.1416 18.9406C20.7279 19.1117 21.4077 19.0944 22.0907 18.883C22.7738 18.6716 23.3467 18.3011 23.7383 17.8274C23.9963 17.5152 24.1792 17.1373 24.222 16.7419C25.2135 16.0871 25.8508 15.2488 26.0808 14.3493C26.5707 13.9556 26.7405 13.3176 26.6861 12.7045C26.6315 12.0894 26.3697 11.4543 25.9278 10.8863C25.486 10.3184 24.9375 9.91167 24.3595 9.71374C24.1427 9.63951 23.9152 9.59563 23.6894 9.59045C23.614 9.58869 23.5389 9.59122 23.4645 9.59845C23.176 9.62639 22.8978 9.7245 22.6563 9.90932C22.0398 9.74144 21.3489 9.63757 20.589 9.60669V7.67425C20.589 7.66802 20.5896 7.6619 20.5896 7.65573C20.5896 7.64949 20.589 7.64337 20.589 7.6372V7.6139C20.5756 7.01499 20.2782 6.47031 19.8384 6.03116C19.3885 5.58177 18.7826 5.21373 18.0586 4.90792C16.6104 4.29619 14.6776 3.9375 12.5448 3.9375ZM12.5448 5.03686C14.5551 5.03686 16.3732 5.38743 17.64 5.92246C18.2734 6.19009 18.7662 6.50478 19.0754 6.81359C19.3846 7.1224 19.5032 7.39615 19.5032 7.65573C19.5032 7.91524 19.3846 8.18893 19.0754 8.49768C18.9223 8.65062 18.7238 8.80496 18.4858 8.95442C16.9999 8.21917 14.8942 7.78778 12.5446 7.78778C10.1952 7.78778 8.09001 8.21834 6.60377 8.95437C6.36582 8.80496 6.1674 8.65062 6.01426 8.49768C5.70506 8.18887 5.58649 7.91518 5.58649 7.65567C5.58649 7.39609 5.70506 7.12234 6.01426 6.81353C6.32345 6.50472 6.81614 6.19003 7.44959 5.9224C8.71648 5.38731 10.5346 5.03686 12.5448 5.03686ZM12.5447 8.88713C14.3009 8.88713 15.9109 9.15889 17.1342 9.58239C15.9107 10.0069 14.3012 10.2745 12.5449 10.2745C10.7881 10.2745 9.17801 10.0068 7.95436 9.58216C9.17767 9.15883 10.7889 8.88713 12.5447 8.88713ZM23.6756 10.686C23.7727 10.6901 23.8843 10.7116 24.0112 10.755C24.3498 10.871 24.7508 11.1506 25.0744 11.5665C25.398 11.9825 25.5724 12.4425 25.6043 12.8029C25.6363 13.1633 25.544 13.3785 25.4043 13.4898C25.2646 13.6011 25.0362 13.6414 24.6975 13.5254C24.3589 13.4094 23.9579 13.13 23.6344 12.7141C23.3108 12.2983 23.1364 11.838 23.1045 11.4777C23.0725 11.1173 23.1648 10.9021 23.3045 10.7908C23.3743 10.7351 23.4664 10.6973 23.5833 10.6877C23.6125 10.6854 23.6432 10.6847 23.6756 10.686ZM22.0454 15.9351C22.2396 15.9364 22.4173 15.9616 22.5676 16.0054C22.9111 16.1056 23.0761 16.2705 23.128 16.4426C23.18 16.6147 23.1344 16.8447 22.9051 17.1222C22.6757 17.3999 22.2733 17.6771 21.7731 17.8319C21.2729 17.9866 20.786 17.9847 20.4425 17.8844C20.099 17.7843 19.934 17.6193 19.8821 17.4472C19.8301 17.2751 19.8755 17.0451 20.1049 16.7676C20.3342 16.49 20.7368 16.2127 21.237 16.0579C21.4871 15.9805 21.7339 15.9423 21.9611 15.9359C21.9895 15.9351 22.0176 15.9348 22.0454 15.9351ZM15.2688 17.741C15.3649 17.7432 15.4606 17.7535 15.555 17.7716C15.9059 17.8409 16.0845 17.9906 16.1511 18.1574C16.2178 18.3242 16.1924 18.5574 15.988 18.8543C15.7835 19.1511 15.4066 19.4631 14.9218 19.6617C14.4369 19.8603 13.9517 19.9015 13.6008 19.8322C13.2499 19.7628 13.0715 19.6132 13.0047 19.4464C12.938 19.2796 12.9633 19.0464 13.1677 18.7496C13.3721 18.4528 13.7491 18.1408 14.2339 17.9422C14.5975 17.7932 14.9616 17.7327 15.2688 17.741ZM24.0176 21.4571C26.028 21.4571 27.846 21.8077 29.1128 22.3429C29.7463 22.6105 30.2389 22.9252 30.5481 23.234C30.8573 23.5428 30.9761 23.8166 30.9761 24.0761C30.9761 24.3357 30.8573 24.6093 30.5481 24.9181C30.3949 25.071 30.1963 25.2255 29.9583 25.375C28.4727 24.6409 26.3669 24.2083 24.0174 24.2083C21.6896 24.2083 19.6002 24.6336 18.1173 25.3546L18.1469 25.4171C17.8781 25.2545 17.6548 25.0856 17.4871 24.9181C17.1779 24.6093 17.0591 24.3356 17.0591 24.0761C17.0591 23.8166 17.1779 23.5428 17.4871 23.234C17.7963 22.9252 18.289 22.6103 18.9224 22.3428C20.1894 21.8077 22.0072 21.4571 24.0176 21.4571ZM11.5778 23.1649C11.6948 23.1724 11.8325 23.2116 11.9919 23.2935C12.3107 23.4573 12.6682 23.7919 12.9297 24.2503C13.1913 24.7087 13.2988 25.1894 13.2796 25.5506C13.2603 25.912 13.1386 26.1116 12.9846 26.2016C12.8306 26.2916 12.599 26.2984 12.2802 26.1346C11.9614 25.9709 11.6038 25.6364 11.3423 25.1778C11.0807 24.7195 10.9732 24.2388 10.9924 23.8775C11.0116 23.5162 11.1334 23.3165 11.2874 23.2266C11.3644 23.1816 11.4608 23.1574 11.5778 23.1649ZM24.0174 25.3075C25.7741 25.3075 27.3837 25.5787 28.6073 26.0028C27.3837 26.4273 25.7742 26.6949 24.0176 26.6949C22.2606 26.6949 20.6505 26.4271 19.4267 26.0024C20.6505 25.5781 22.2607 25.3075 24.0174 25.3075Z" fill="#B9B29D"/>
</svg>
