<svg width="36" height="36" viewBox="0 0 36 36" fill="none" xmlns="http://www.w3.org/2000/svg">
<path d="M1 35H9V36H0V27H1V35Z" fill="white"/>
<path d="M36 36H27V35H35V27H36V36Z" fill="white"/>
<path fill-rule="evenodd" clip-rule="evenodd" d="M14.4404 2.51367C14.3673 2.54639 14.3117 2.57238 14.1592 2.63379C13.4131 2.93641 12.963 3.15887 12.1641 3.62012C11.3859 4.06663 10.9745 4.34169 10.3711 4.80957C8.83649 6.00019 7.56664 7.41406 6.53613 9.0791C6.28112 9.49109 5.90864 10.1806 5.7041 10.6289C5.03838 12.0776 4.56982 13.9083 4.48242 15.4131C4.35231 17.6514 4.71586 19.6357 5.60059 21.5156C6.5896 23.6171 8.25096 25.4476 10.1719 26.5615C11.408 27.2765 12.7129 27.7209 14.1318 27.9092C15.9119 28.1452 17.7992 27.9178 19.334 27.2793C19.8154 27.081 20.3266 26.8119 20.7246 26.5508C22.0865 25.6535 22.8625 24.8948 23.583 23.7559C24.417 22.4404 24.7892 20.9788 24.6689 19.5029C24.6036 18.7156 24.4279 18.0686 24.1133 17.4365C23.7286 16.6683 22.9083 15.8976 22.0947 15.5361C21.8608 15.4324 21.5895 15.4014 21.3193 15.4492C21.1908 15.4721 21.1559 15.4891 21.0918 15.5518C21.0016 15.6409 20.9457 15.7789 20.958 15.877C20.9628 15.9212 21.0614 16.2108 21.1787 16.5264C21.6023 17.6791 21.7264 18.2454 21.6914 18.9004C21.6825 19.0534 21.6884 19.1806 21.7012 19.1875C21.7137 19.1943 21.7124 19.2039 21.7002 19.208C21.6863 19.213 21.6462 19.3659 21.6074 19.5518C21.4588 20.2807 21.2092 20.8568 20.793 21.4443C20.3148 22.1189 19.7397 22.6198 18.9746 23.0273C18.2417 23.4192 17.5408 23.6214 16.7168 23.6816C14.804 23.824 12.9076 23.086 11.5127 21.6514C11.0521 21.1805 10.8709 20.9319 10.4619 20.2236C10.0491 19.5086 9.93715 19.2483 9.74902 18.5801C9.18039 16.5575 9.44928 14.3184 10.5107 12.2568C11.4207 10.4851 12.8412 9.07622 14.7783 8.02051C15.5552 7.59761 16.2473 7.30888 17.0498 7.07324C18.9819 6.50976 20.9912 6.46226 23.0635 6.93359C23.9469 7.13501 24.7127 7.41874 25.5742 7.86328C26.4069 8.29338 26.8841 8.59317 27.5088 9.07227C28.6265 9.93493 29.3423 10.6686 30.1123 11.752C30.3584 12.0964 31.0627 13.3153 31.2529 13.7266C31.838 14.9853 32.1929 16.2348 32.3779 17.6846C32.7324 20.4456 32.3705 22.773 31.1699 25.4727C30.3277 27.362 29.1786 29.0164 27.7764 30.3496C27.6262 30.4933 27.4898 30.611 27.4775 30.6152C27.4636 30.6171 27.5303 30.5448 27.624 30.4541C27.718 30.3631 27.7901 30.2847 27.7822 30.2832C27.7753 30.2814 27.7017 30.3435 27.6201 30.4219C27.5385 30.5003 27.4666 30.5645 27.4619 30.5615C27.4563 30.5619 27.5054 30.494 27.5732 30.4121C27.7044 30.2511 27.7303 30.1935 27.6396 30.2656C27.6066 30.2904 27.5668 30.3048 27.5527 30.2959C27.5363 30.2885 27.4866 30.303 27.4414 30.3262C27.396 30.3495 27.329 30.3773 27.293 30.3867C27.23 30.4003 27.2299 30.3994 27.2773 30.3691C27.3025 30.3517 27.3194 30.3308 27.3145 30.3223C27.3075 30.3125 27.2322 30.3699 27.1455 30.4482C27.0561 30.5283 26.9101 30.638 26.8193 30.6904C26.7286 30.7428 26.5665 30.857 26.46 30.9385C26.2645 31.0911 25.7951 31.4015 25.8018 31.3721C25.8059 31.3639 25.9464 31.2435 26.1162 31.1084C26.2868 30.9701 26.4266 30.8496 26.4287 30.8369C26.4338 30.8254 26.394 30.8484 26.3438 30.8887C25.8617 31.2752 25.6607 31.4198 25.25 31.6797C24.7591 31.9887 24.6251 32.0629 24.9287 31.8535C25.1928 31.6726 25.7045 31.298 25.7119 31.2822C25.7187 31.2584 25.6445 31.3096 25.3633 31.5176C25.2157 31.6255 24.7975 31.8922 24.4375 32.1113C23.8217 32.4811 23.7449 32.523 23.2471 32.7393C22.9534 32.869 22.5457 33.0356 22.3438 33.1152C21.9118 33.2821 21.217 33.5207 21.2217 33.498C21.2288 33.489 21.391 33.4238 21.5879 33.3496C22.3827 33.0501 23.0254 32.7419 23.8486 32.2666C24.4638 31.9114 24.8354 31.671 25.3506 31.291C27.7246 29.5504 29.6042 27.0906 30.6211 24.3945C30.8309 23.8381 31.1858 22.6089 31.29 22.0732C31.6062 20.4792 31.6046 18.9428 31.2881 17.3213C31.0776 16.236 30.8612 15.5578 30.3662 14.4092C30.3572 14.3887 30.3272 14.3377 30.3164 14.3145C30.3145 14.3079 30.3126 14.3014 30.3105 14.2949C30.3069 14.2827 30.2965 14.2728 30.29 14.2617C30.2762 14.2383 30.2703 14.2276 30.2646 14.2168C30.2588 14.2059 30.2529 14.195 30.2402 14.1699C30.2146 14.1157 30.1827 14.0449 30.1523 13.9961C30.1448 13.984 30.1379 13.9733 30.1309 13.9629C29.8473 13.4197 29.4342 12.694 29.2373 12.4287C28.4345 11.3553 27.75 10.6656 26.793 9.96875C25.6138 9.10708 24.5644 8.60284 23.2188 8.25C21.9983 7.93 20.5222 7.79232 19.4561 7.89844C17.09 8.13456 14.7962 9.25364 13.3027 10.9043C12.494 11.798 11.9288 12.7817 11.5957 13.876C11.246 15.0286 11.1843 16.0979 11.4121 17.1162C11.6432 18.1552 12.1383 19.0274 12.8799 19.709C13.2919 20.0855 13.8819 20.4029 14.2539 20.4443C14.4707 20.4673 14.6985 20.4469 14.8242 20.3887C14.9177 20.3461 14.9363 20.3263 14.9727 20.2256C15.0409 20.0326 15.0015 19.8728 14.7754 19.4658C14.5825 19.1163 14.5116 18.9464 14.4326 18.6562C14.3783 18.46 14.3213 18.0753 14.3193 17.8828C14.3192 17.806 14.3148 17.5635 14.3105 17.3467C14.2911 16.49 14.4157 15.8828 14.7588 15.1582C15.1912 14.2512 15.9157 13.4769 16.8262 12.9482C17.9537 12.2945 19.2732 12.0395 20.5693 12.2246C20.8551 12.2646 21.5628 12.4368 21.8477 12.5312C23.2499 13.0025 24.4009 13.9066 25.251 15.2002C26.3876 16.9289 26.7713 18.953 26.3643 21.0947C26.281 21.5383 26.0161 22.408 25.8311 22.8594C25.1777 24.4319 24.1153 25.808 22.71 26.8955C20.5464 28.5715 17.6348 29.4528 14.9463 29.2432C13.8877 29.1628 12.6984 28.9074 11.7285 28.5566C9.2947 27.6736 7.20766 26.0582 5.72949 23.9121C5.48754 23.5595 4.98844 22.6947 4.80273 22.3066C3.51735 19.6049 3.17828 16.6043 3.80762 13.5029C3.91022 12.9854 4.22752 11.8742 4.41309 11.3828C5.23548 9.18334 6.54021 7.1696 8.19531 5.55371C8.34625 5.40457 8.48013 5.27595 8.49316 5.26758C8.52295 5.24763 8.48593 5.38294 8.43945 5.46094C8.41752 5.49936 8.40911 5.55033 8.41699 5.57422C8.43067 5.61415 8.38793 5.66515 8.15625 5.88965C7.77286 6.2617 6.97433 7.14815 7.01172 7.15918C7.01862 7.16087 7.12127 7.04684 7.24316 6.90527C7.54518 6.55438 7.8905 6.19591 8.2207 5.88867C8.50721 5.62355 8.60016 5.54984 8.47363 5.68848C8.35799 5.81495 8.43944 5.75655 8.65625 5.55469C8.88185 5.3475 9.12657 5.16356 9.07227 5.24316C9.04684 5.2806 9.05309 5.28009 9.10449 5.23633C9.14073 5.20682 9.21555 5.15262 9.27051 5.11523C9.74137 4.7921 9.84397 4.72385 9.91113 4.70215C9.97605 4.68169 9.96825 4.68878 9.86621 4.76758C9.8015 4.81609 9.75657 4.85922 9.7627 4.86426C9.77307 4.8668 9.91884 4.76578 10.0879 4.63965C10.3426 4.44713 10.529 4.33491 11.2373 3.93164C11.9966 3.49893 12.1476 3.42277 12.7373 3.15625C13.0991 2.99579 13.5315 2.81437 13.7002 2.75391C13.8702 2.69558 14.1375 2.60109 14.2939 2.54492C14.3727 2.51643 14.3841 2.51615 14.4355 2.5C14.437 2.50439 14.4387 2.50903 14.4404 2.51367ZM25.8096 31.1914C25.7788 31.2092 25.7701 31.2193 25.7891 31.2168C25.8047 31.2134 25.8316 31.1988 25.8447 31.1855C25.8542 31.1715 25.8405 31.1735 25.8096 31.1914ZM26.4688 30.7793C26.4447 30.7933 26.4418 30.8035 26.4629 30.7998C26.4821 30.7972 26.501 30.7836 26.5039 30.7734C26.5091 30.7619 26.4919 30.7631 26.4688 30.7793ZM27.3555 30.2646C27.3341 30.2941 27.3334 30.3028 27.3555 30.29C27.3732 30.2797 27.3996 30.2532 27.4111 30.2324C27.4358 30.1844 27.4003 30.2048 27.3555 30.2646ZM17.1924 28.8457C17.1617 28.8635 17.1773 28.8752 17.2256 28.8672C17.247 28.8634 17.2543 28.8556 17.2402 28.8467C17.2262 28.8379 17.2056 28.8381 17.1924 28.8457ZM13.7188 28.6328C13.8507 28.6586 14.0244 28.7131 14.1094 28.7246C14.5149 28.7779 15.0955 28.8269 15.2793 28.8232C15.3667 28.8212 15.3663 28.8212 15.291 28.8135C15.2469 28.8099 15.0592 28.7963 14.874 28.7812C14.5033 28.7532 14.1075 28.7015 13.7188 28.6328ZM17.4551 28.8086C17.4441 28.815 17.454 28.8227 17.4775 28.8232C17.5014 28.8237 17.5349 28.8189 17.5459 28.8125C17.5585 28.8049 17.5459 28.7983 17.5225 28.7979C17.4988 28.7974 17.4686 28.8011 17.4551 28.8086ZM17.5898 28.7871C17.5788 28.7935 17.5894 28.8023 17.6133 28.8027C17.6369 28.8032 17.6693 28.7983 17.6807 28.792C17.694 28.7843 17.6811 28.7768 17.6572 28.7764C17.6335 28.7759 17.6031 28.7795 17.5898 28.7871ZM17.1855 28.3945C17.1751 28.4009 17.1856 28.4086 17.209 28.4092C17.2328 28.4096 17.2663 28.4048 17.2773 28.3984C17.2899 28.3909 17.2774 28.3843 17.2539 28.3838C17.23 28.3833 17.1988 28.3869 17.1855 28.3945ZM17.4697 28.3496C17.4458 28.3493 17.3968 28.3558 17.3623 28.3672C17.3187 28.3782 17.3128 28.3837 17.3418 28.3838C17.3656 28.3843 17.4155 28.3786 17.4502 28.3672C17.494 28.3561 17.4992 28.3496 17.4697 28.3496ZM17.6143 28.3184C17.6032 28.3248 17.6138 28.3326 17.6377 28.333C17.6615 28.3335 17.6941 28.3286 17.7051 28.3223C17.7183 28.3146 17.7055 28.3081 17.6816 28.3076C17.6578 28.3072 17.6275 28.3107 17.6143 28.3184ZM11.8701 28.1533C11.8219 28.1359 11.798 28.1355 11.8076 28.1523C11.8101 28.1566 11.8384 28.1638 11.8691 28.166C11.9179 28.1745 11.9185 28.1708 11.8701 28.1533ZM29.9629 27.293C29.9545 27.2785 29.9533 27.2824 29.9062 27.3574C29.8468 27.4487 29.8612 27.4631 29.9219 27.374C29.9483 27.3332 29.9653 27.2972 29.9629 27.293ZM29.3516 27.2051C29.3391 27.2293 29.3419 27.2394 29.3574 27.2305C29.3707 27.2228 29.3843 27.2001 29.3848 27.1855C29.3876 27.1502 29.3787 27.1555 29.3516 27.2051ZM30.1006 27.0713C30.0921 27.0567 30.0911 27.0605 30.0439 27.1357C29.9845 27.227 29.9979 27.2414 30.0586 27.1523C30.0852 27.1114 30.1031 27.0756 30.1006 27.0713ZM29.5596 26.9004C29.551 26.8855 29.5509 26.8856 29.4863 26.9883C29.4535 27.0385 29.4292 27.0836 29.4316 27.0879C29.4354 27.0942 29.4669 27.0564 29.502 27.0049C29.5368 26.9539 29.5614 26.9056 29.5596 26.9004ZM10.6074 26.998C10.632 27.0151 10.6804 27.0388 10.7139 27.0508L10.7744 27.0732L10.7275 27.043C10.703 27.0259 10.6546 27.0023 10.6211 26.9902L10.5605 26.9688L10.6074 26.998ZM30.6855 26.0342C30.7378 25.9101 30.6961 25.9709 30.6094 26.1377C30.5648 26.2289 30.4447 26.4462 30.3438 26.624C30.1568 26.9538 30.0826 27.1108 30.2178 26.8906C30.3141 26.7355 30.6464 26.1252 30.6855 26.0342ZM10.1914 26.7686C10.1784 26.7763 10.4177 26.9107 10.5 26.9404L10.5674 26.9648L10.5059 26.9287C10.4709 26.9091 10.3887 26.8657 10.3223 26.8271C10.2571 26.7909 10.198 26.7647 10.1914 26.7686ZM29.665 26.7256C29.6564 26.7107 29.655 26.7142 29.6074 26.79C29.5481 26.881 29.5625 26.8954 29.623 26.8066C29.6493 26.7661 29.6671 26.7304 29.665 26.7256ZM9.92773 26.6084C9.92143 26.6124 9.96797 26.6478 10.0332 26.6895C10.0959 26.7283 10.1542 26.7587 10.1611 26.7578C10.1678 26.754 10.1199 26.7166 10.0557 26.6768C9.99016 26.6349 9.93218 26.6058 9.92773 26.6084ZM31.0791 23.3984C30.7455 24.5331 30.2982 25.5887 29.7637 26.5234C29.713 26.6113 29.6746 26.6866 29.6768 26.6953C29.6829 26.706 29.715 26.6538 29.9092 26.3057C30.4404 25.3501 30.9614 24.0444 31.2012 23.0693C31.2363 22.9215 31.264 22.8003 31.2598 22.8018C31.2576 22.803 31.1745 23.0731 31.0791 23.3984ZM7.12207 25.2197C7.11047 25.215 7.11121 25.2317 7.12695 25.2539C7.1405 25.2773 7.15064 25.2796 7.14746 25.2588C7.14548 25.2401 7.13238 25.2223 7.12207 25.2197ZM30.8408 25.1328C30.831 25.116 30.8196 25.1369 30.8105 25.1875C30.8015 25.2382 30.805 25.2392 30.8242 25.1914C30.8356 25.1649 30.8433 25.1371 30.8408 25.1328ZM7.02637 25.1045C7.01481 25.0998 7.01546 25.1164 7.03125 25.1387C7.04469 25.1618 7.05494 25.1643 7.05176 25.1436C7.04979 25.125 7.03663 25.1075 7.02637 25.1045ZM30.8926 25.0176C30.8827 25.0007 30.8714 25.0217 30.8623 25.0723C30.8532 25.1229 30.8566 25.1241 30.876 25.0762C30.8872 25.0497 30.895 25.0218 30.8926 25.0176ZM6.9541 25.0312C6.94311 25.0273 6.94445 25.0435 6.95996 25.0654C6.97341 25.0887 6.98349 25.0918 6.98047 25.0713C6.97848 25.0525 6.96446 25.0339 6.9541 25.0312ZM30.9619 24.832C30.9522 24.8157 30.9428 24.8409 30.9229 24.9229L30.9043 25.0137L30.9375 24.9268C30.9534 24.8777 30.9644 24.8363 30.9619 24.832ZM4.99609 22.1406C4.97333 22.1573 5.43563 23.0034 5.63965 23.3262C6.00754 23.9021 6.66997 24.783 6.86035 24.9492C6.91941 25.0005 6.91931 25.0008 6.86523 24.9326C6.50333 24.4898 6.38471 24.3412 6.20801 24.1016C5.8656 23.6362 5.47881 23.0226 5.23438 22.5635C5.11018 22.3279 5.00053 22.1381 4.99609 22.1406ZM30.8633 24.6611C30.8535 24.645 30.8438 24.6682 30.8301 24.7354L30.8164 24.8086L30.8438 24.7383C30.8566 24.6997 30.8657 24.6654 30.8633 24.6611ZM31.2119 24.1191C31.1531 24.2982 31.0734 24.5286 31.0361 24.6328C31.0022 24.7377 31.0212 24.6989 31.0791 24.5488C31.1392 24.3974 31.2217 24.1619 31.2656 24.0283C31.308 23.8936 31.3391 23.7847 31.333 23.7871C31.3264 23.7909 31.273 23.9387 31.2119 24.1191ZM31.4492 22.8633C31.4425 22.8671 31.3886 23.0404 31.3311 23.2471C31.27 23.453 31.1629 23.7939 31.0918 24.0029C30.9461 24.4201 30.8811 24.6252 30.9189 24.5322C30.9925 24.3726 31.2486 23.5999 31.3486 23.252C31.4084 23.0375 31.4524 22.8651 31.4492 22.8633ZM6.0166 24.1221C6.005 24.1173 6.0057 24.1341 6.02148 24.1562C6.03497 24.1794 6.04515 24.1819 6.04199 24.1611C6.04001 24.1427 6.0269 24.1251 6.0166 24.1221ZM5.80371 23.8008C5.7845 23.7777 5.79559 23.8055 5.83008 23.8652C5.86332 23.9228 5.88051 23.9438 5.86523 23.9072C5.85118 23.8727 5.82411 23.8259 5.80371 23.8008ZM5.96777 22.832C6.0777 23.0275 6.27135 23.3312 6.39746 23.5088C6.52339 23.6861 6.63431 23.8438 6.64453 23.8613C6.65433 23.8783 6.66591 23.883 6.66895 23.873C6.67187 23.8628 6.59559 23.7445 6.50098 23.6113C6.40294 23.4773 6.19992 23.1675 6.04688 22.9229L5.7666 22.4785L5.96777 22.832ZM31.415 23.5205C31.4052 23.5037 31.3938 23.5246 31.3848 23.5752C31.3757 23.6258 31.3791 23.627 31.3984 23.5791C31.4098 23.5526 31.4175 23.5248 31.415 23.5205ZM5 22.5146C5.11765 22.7541 5.40524 23.2475 5.60742 23.5518C5.68928 23.6782 5.57241 23.4609 5.32715 23.0361C5.09813 22.6395 4.91049 22.3134 4.9043 22.3076C4.90206 22.3089 4.94603 22.4007 5 22.5146ZM31.5498 16.4551C31.5406 16.4528 31.5738 16.6473 31.623 16.8936C32.035 18.9412 31.981 21.04 31.4639 22.9609C31.4039 23.189 31.3631 23.3686 31.374 23.3623C31.4036 23.3421 31.5981 22.574 31.6934 22.1016C32.0435 20.3825 32.0283 18.6128 31.6484 16.8457C31.6027 16.6387 31.5569 16.4624 31.5498 16.4551ZM31.5186 22.5762C31.5087 22.5591 31.4996 22.5838 31.4746 22.6836L31.4512 22.791L31.4883 22.6875C31.5045 22.631 31.52 22.5825 31.5186 22.5762ZM5.64258 22.2432C5.61717 22.2094 5.63263 22.2459 5.68066 22.3291C5.7274 22.41 5.74982 22.4397 5.72852 22.3926C5.70829 22.3474 5.6692 22.2792 5.64258 22.2432ZM4.92578 21.9736C4.91199 21.965 4.91663 21.9824 4.9375 22.0186C4.95705 22.0523 4.96858 22.0622 4.96289 22.0371C4.95621 22.0154 4.93881 21.986 4.92578 21.9736ZM4.94043 21.4414C4.92905 21.4369 4.92969 21.4536 4.94531 21.4756C4.9589 21.4991 4.96998 21.5013 4.9668 21.4805C4.96479 21.4617 4.95071 21.4439 4.94043 21.4414ZM4.4248 20.0879C4.41364 20.0837 4.41428 20.1002 4.42969 20.1221C4.44328 20.1456 4.4544 20.1479 4.45117 20.127C4.44904 20.1083 4.43509 20.0905 4.4248 20.0879ZM11.3662 19.9912C11.3523 19.9824 11.357 20 11.3779 20.0361C11.3974 20.0699 11.4088 20.0803 11.4033 20.0557C11.3967 20.0339 11.3793 20.0036 11.3662 19.9912ZM4.39844 19.9902C4.38688 19.9856 4.38757 20.0022 4.40332 20.0244C4.41677 20.0475 4.42702 20.05 4.42383 20.0293C4.42189 20.0109 4.40868 19.9933 4.39844 19.9902ZM4.24121 19.2324C4.15194 18.7916 4.09947 18.6198 4.14551 18.9092C4.19678 19.2382 4.36311 19.9395 4.39062 19.9463C4.40033 19.9473 4.39108 19.8902 4.37109 19.8203C4.35084 19.7493 4.29235 19.4845 4.24121 19.2324ZM10.459 17.8564C10.443 17.8543 10.5556 18.285 10.6309 18.5176C10.7308 18.8184 10.9002 19.2099 11.0742 19.542C11.2317 19.8352 11.2355 19.8415 11.1387 19.6328C10.8529 19.0102 10.7991 18.8814 10.7109 18.6367C10.6589 18.4904 10.5823 18.2548 10.543 18.1152C10.5039 17.9763 10.466 17.8588 10.459 17.8564ZM25.9248 19.4502C25.9183 19.4546 25.914 19.4937 25.915 19.541C25.9148 19.5859 25.9233 19.6206 25.9277 19.6191C25.9344 19.6153 25.9372 19.5739 25.9375 19.5283C25.9364 19.4806 25.9292 19.4477 25.9248 19.4502ZM4.375 18.668C4.36717 18.665 4.36201 18.6821 4.36426 18.7061C4.37634 18.7728 4.38871 18.7825 4.39062 18.7246C4.39153 18.6957 4.38407 18.6684 4.375 18.668ZM11.2002 18.5791C11.1861 18.5701 11.19 18.5877 11.2109 18.624C11.2306 18.6581 11.243 18.6677 11.2373 18.6426C11.2307 18.621 11.2132 18.5915 11.2002 18.5791ZM31.6025 18.5283C31.5841 18.4964 31.5773 18.5209 31.584 18.5938C31.5939 18.6617 31.5948 18.6636 31.6035 18.6074C31.6077 18.5738 31.6087 18.539 31.6025 18.5283ZM4.19531 15.832C4.18094 16.1897 4.15459 16.5382 4.1748 16.9512C4.20326 17.6035 4.31068 18.5349 4.35547 18.5459C4.36212 18.5466 4.36105 18.5049 4.34863 18.4531C4.31892 18.2994 4.23786 17.5352 4.21387 17.1562C4.18381 16.7272 4.17904 16.2811 4.19531 15.832ZM11.1484 18.4375C11.1345 18.4287 11.1362 18.442 11.1533 18.4717C11.1706 18.5015 11.1807 18.51 11.1787 18.4912C11.1757 18.4758 11.1615 18.4499 11.1484 18.4375ZM31.5703 18.3359C31.5625 18.3328 31.5574 18.35 31.5596 18.374C31.5717 18.4408 31.584 18.4505 31.5859 18.3926C31.5868 18.3637 31.5794 18.3363 31.5703 18.3359ZM11.0498 18.1699C11.0432 18.1689 11.0519 18.2099 11.0713 18.2637C11.0906 18.3173 11.1127 18.3612 11.123 18.3643C11.1312 18.3681 11.1219 18.3255 11.1025 18.2715C11.0831 18.2173 11.0589 18.1703 11.0498 18.1699ZM32.3457 18.1445C32.332 18.1415 32.3378 18.2693 32.3525 18.2949C32.3595 18.3016 32.3631 18.2714 32.3623 18.2295C32.3625 18.1839 32.3547 18.145 32.3457 18.1445ZM3.82031 14.5527C3.72612 15.3357 3.67405 16.1466 3.71094 16.9795C3.73022 17.381 3.80156 18.1345 3.82227 18.1396C3.82914 18.1412 3.81795 17.9938 3.80176 17.8125C3.70603 16.8273 3.71604 15.5245 3.82031 14.5527ZM31.5332 18.0166C31.5251 18.0128 31.5203 18.0294 31.5225 18.0537C31.5346 18.1205 31.5468 18.1309 31.5488 18.0732C31.5497 18.0443 31.5423 18.017 31.5332 18.0166ZM25.7617 18.0439C25.7506 18.0397 25.752 18.0562 25.7676 18.0781C25.7811 18.1013 25.7913 18.1038 25.7881 18.083C25.7861 18.0643 25.7721 18.0465 25.7617 18.0439ZM10.7607 16.7432C10.7447 16.7409 10.7655 16.9373 10.8096 17.2334C10.8462 17.4656 10.9876 18.04 11.0195 18.0908C11.0306 18.11 11.0097 18.0085 10.9736 17.8643C10.8909 17.542 10.821 17.1754 10.793 16.9326C10.7816 16.8318 10.7677 16.7461 10.7607 16.7432ZM32.3232 17.9014C32.3095 17.8986 32.3153 18.0262 32.3301 18.0518C32.3371 18.0584 32.3406 18.0282 32.3398 17.9863C32.34 17.9407 32.3323 17.9018 32.3232 17.9014ZM31.498 17.8066C31.4912 17.8049 31.4901 17.8389 31.499 17.8848C31.5079 17.9309 31.5214 17.9689 31.5283 17.9707C31.535 17.9714 31.5352 17.9371 31.5264 17.8916C31.5177 17.8464 31.505 17.8095 31.498 17.8066ZM31.8779 15.6426C31.8676 15.6356 31.9042 15.7908 31.9551 15.9912C32.0662 16.4137 32.2064 17.1211 32.2656 17.5508C32.2879 17.7172 32.3125 17.8567 32.3193 17.8584C32.3408 17.8549 32.2241 17.0688 32.1455 16.6836C32.1024 16.481 32.0304 16.1674 31.9824 15.9873C31.9367 15.8059 31.8885 15.6507 31.8779 15.6426ZM30.9453 15.5098C30.9323 15.4974 30.9707 15.646 31.0342 15.8428C31.1568 16.2443 31.3218 16.9141 31.4121 17.377C31.4992 17.8191 31.4923 17.7919 31.498 17.7402C31.5075 17.5775 31.2729 16.5274 31.0879 15.9258C31.0227 15.711 30.9599 15.5254 30.9453 15.5098ZM25.6787 17.6934C25.6671 17.6886 25.6679 17.7054 25.6836 17.7275C25.6971 17.751 25.7072 17.754 25.7041 17.7334C25.7022 17.7148 25.6891 17.6962 25.6787 17.6934ZM10.1992 17.6113C10.1911 17.6075 10.1863 17.6244 10.1885 17.6484C10.2006 17.7155 10.212 17.726 10.2139 17.668C10.2148 17.6392 10.2082 17.6123 10.1992 17.6113ZM25.6514 17.5957C25.6398 17.5909 25.6405 17.6077 25.6562 17.6299C25.6698 17.6533 25.6801 17.6556 25.6768 17.6348C25.6748 17.6163 25.6617 17.5985 25.6514 17.5957ZM25.624 17.4971C25.6125 17.4924 25.6133 17.5092 25.6289 17.5312C25.6424 17.5547 25.6526 17.5576 25.6494 17.5371C25.6475 17.5184 25.6344 17.4996 25.624 17.4971ZM25.5918 17.3857C25.5779 17.3767 25.5796 17.3893 25.5967 17.4189C25.6139 17.4488 25.6241 17.4572 25.6221 17.4385C25.6192 17.4232 25.6048 17.3982 25.5918 17.3857ZM10.1523 17.3252C10.1443 17.3214 10.1393 17.3389 10.1416 17.3633C10.1537 17.43 10.1651 17.4397 10.167 17.3818C10.1679 17.3534 10.1612 17.3265 10.1523 17.3252ZM25.5518 17.2656C25.5381 17.257 25.5396 17.2703 25.5566 17.2998C25.5738 17.3296 25.585 17.3378 25.583 17.3193C25.5801 17.3039 25.5649 17.278 25.5518 17.2656ZM10.1348 17.1934C10.1266 17.1895 10.1218 17.2062 10.124 17.2305C10.1361 17.2974 10.1474 17.3078 10.1494 17.25C10.1503 17.2212 10.1437 17.1941 10.1348 17.1934ZM25.5 17.125C25.4861 17.1161 25.4908 17.1337 25.5117 17.1699C25.5313 17.2038 25.5428 17.2136 25.5371 17.1885C25.5305 17.1667 25.5131 17.1373 25.5 17.125ZM10.1143 17.0049C10.101 17.0043 10.1065 17.1299 10.1211 17.1553C10.1283 17.1626 10.1317 17.1321 10.1309 17.0898C10.1311 17.0442 10.1233 17.0053 10.1143 17.0049ZM4.35449 16.9043C4.33917 16.9142 4.34833 17.0814 4.36328 17.0869C4.37204 17.086 4.37453 17.0454 4.37109 16.9941C4.3676 16.9421 4.36109 16.9005 4.35449 16.9043ZM25.4424 16.9736C25.4247 16.9582 25.4297 16.9779 25.4531 17.0186C25.4765 17.0589 25.4911 17.0729 25.4854 17.0479C25.4787 17.026 25.4591 16.9923 25.4424 16.9736ZM5.98047 8.47461C6.00376 8.41276 5.96556 8.46904 5.78906 8.75586C4.54572 10.7886 3.7865 13.1085 3.6123 15.4033C3.5692 15.976 3.55653 16.932 3.59375 16.916C3.59819 16.9135 3.60194 16.8324 3.59766 16.7383C3.57652 16.2467 3.63933 15.2562 3.73438 14.5723C4.00614 12.5998 4.72632 10.565 5.75098 8.86914C5.8713 8.66887 5.9732 8.49299 5.98047 8.47461ZM10.0752 16.334C10.06 16.3449 10.0856 16.895 10.1006 16.9053C10.1075 16.907 10.1067 16.7768 10.1006 16.6182C10.0911 16.4585 10.0818 16.3301 10.0752 16.334ZM25.3662 16.79C25.3484 16.7747 25.3565 16.7981 25.3857 16.8438C25.4129 16.8907 25.4266 16.9054 25.415 16.875C25.4047 16.847 25.3829 16.8089 25.3662 16.79ZM25.2646 16.5635C25.2418 16.5342 25.2531 16.5649 25.29 16.6289C25.327 16.6928 25.3473 16.7174 25.332 16.6807C25.3179 16.6461 25.2888 16.595 25.2646 16.5635ZM4.33887 16.5146C4.3324 16.519 4.32787 16.5474 4.32812 16.5781C4.32852 16.6091 4.33542 16.6305 4.33984 16.6279C4.34644 16.6239 4.35089 16.5955 4.35059 16.5645C4.35022 16.5336 4.34329 16.5121 4.33887 16.5146ZM31.5107 16.3467C31.4996 16.3426 31.501 16.359 31.5166 16.3809C31.5301 16.4043 31.5403 16.4066 31.5371 16.3857C31.5349 16.3672 31.521 16.3492 31.5107 16.3467ZM4.33203 16.1484C4.32759 16.151 4.32245 16.2056 4.3252 16.2666C4.328 16.3273 4.33519 16.3745 4.3418 16.3711C4.34623 16.3685 4.35042 16.3148 4.34766 16.2539C4.34497 16.1941 4.33854 16.1467 4.33203 16.1484ZM24.9355 15.9424C24.8779 15.8478 24.9192 15.929 25.0312 16.123C25.1433 16.3172 25.1931 16.3943 25.1387 16.2949C25.0876 16.1963 24.9966 16.0379 24.9355 15.9424ZM10.0869 15.9854C10.0737 15.993 10.0648 16.1007 10.0703 16.2227C10.0764 16.3557 10.0931 16.2834 10.0957 16.1143C10.0969 16.041 10.0933 15.9837 10.0869 15.9854ZM10.1357 15.3594C10.1247 15.3658 10.0802 15.8356 10.0801 15.9326C10.0814 16.0371 10.1029 15.8854 10.123 15.6289C10.1364 15.4812 10.1399 15.3608 10.1357 15.3594ZM4.34082 15.8018C4.33418 15.8056 4.32982 15.8341 4.33008 15.8652C4.3304 15.8963 4.33736 15.9185 4.3418 15.916C4.34843 15.9122 4.35283 15.8837 4.35254 15.8525C4.35228 15.8214 4.34522 15.7992 4.34082 15.8018ZM4.36133 14.0537C4.33456 14.0715 4.24054 14.7706 4.20605 15.2109C4.18795 15.4302 4.20341 15.6109 4.19531 15.7998C4.21288 15.3463 4.25302 14.8889 4.31445 14.4424C4.34553 14.2254 4.36573 14.0512 4.36133 14.0537ZM4.3457 15.6572C4.33917 15.6614 4.33474 15.689 4.33496 15.7197C4.33527 15.7509 4.34228 15.773 4.34668 15.7705C4.3532 15.7662 4.35777 15.7379 4.35742 15.707C4.35713 15.676 4.35013 15.6547 4.3457 15.6572ZM31.8018 15.4141C31.7914 15.4115 31.7972 15.4474 31.8164 15.4961C31.8322 15.5436 31.8524 15.5829 31.8594 15.585C31.8697 15.5875 31.864 15.5514 31.8447 15.5029C31.8292 15.4557 31.8089 15.4167 31.8018 15.4141ZM30.8945 15.377C30.8806 15.3681 30.8824 15.3806 30.8994 15.4102C30.9167 15.44 30.9278 15.4485 30.9258 15.4297C30.9228 15.4144 30.9075 15.3894 30.8945 15.377ZM31.7656 15.3008C31.7516 15.2918 31.7532 15.3051 31.7705 15.335C31.7877 15.3647 31.7989 15.3723 31.7969 15.3535C31.7937 15.3381 31.7786 15.3131 31.7656 15.3008ZM10.3682 14.1729C10.335 14.192 10.1823 14.9087 10.1445 15.2266C10.1207 15.4254 10.1491 15.3006 10.2051 14.958C10.2356 14.7811 10.2864 14.5329 10.3203 14.4023C10.3506 14.2783 10.3723 14.1775 10.3682 14.1729ZM30.8486 15.25C30.837 15.2453 30.8377 15.262 30.8535 15.2842C30.8669 15.3072 30.8772 15.3097 30.874 15.2891C30.872 15.2706 30.8589 15.253 30.8486 15.25ZM31.7266 15.1807C31.7125 15.1717 31.7143 15.1851 31.7314 15.2148C31.7487 15.2447 31.7588 15.2531 31.7568 15.2344C31.7539 15.2189 31.7397 15.1929 31.7266 15.1807ZM24.9541 15.1064C24.9402 15.0977 24.9449 15.1152 24.9658 15.1514C24.9854 15.1852 24.9969 15.195 24.9912 15.1699C24.9845 15.1482 24.9671 15.1188 24.9541 15.1064ZM4.37891 14.9062C4.36118 14.9165 4.34005 14.9885 4.33203 15.0615C4.32522 15.1361 4.32753 15.1802 4.33887 15.1602C4.35025 15.1398 4.36512 15.1199 4.37402 15.1143C4.38067 15.1104 4.39158 15.0923 4.39648 15.0752C4.40124 15.0583 4.39333 15.0603 4.38184 15.0811C4.36822 15.1029 4.35895 15.1027 4.35449 15.0801C4.35126 15.0591 4.35976 15.037 4.37305 15.0293C4.38402 15.0229 4.39925 15.0032 4.4043 14.9863C4.40915 14.9693 4.40109 14.9705 4.38965 14.9912C4.3759 15.0133 4.36676 15.0131 4.3623 14.9902C4.35909 14.9694 4.36668 14.9472 4.37988 14.9395C4.39097 14.9331 4.40528 14.9165 4.4082 14.9062C4.4109 14.8962 4.39858 14.895 4.37891 14.9062ZM24.0977 14.1631C24.1004 14.173 24.1958 14.2718 24.3076 14.3838C24.4195 14.4957 24.5912 14.6814 24.6885 14.7988C24.7844 14.914 24.8537 14.9877 24.8447 14.9619C24.8343 14.9338 24.7125 14.7849 24.5752 14.6338C24.3579 14.3901 24.0811 14.1184 24.0977 14.1631ZM4.39551 14.7002C4.38566 14.6834 4.37429 14.7043 4.36523 14.7549C4.35622 14.8055 4.35959 14.8067 4.37891 14.7588C4.39016 14.7322 4.39796 14.7045 4.39551 14.7002ZM4.4082 14.4824C4.40158 14.4868 4.39137 14.5349 4.38574 14.5859C4.3792 14.6408 4.38334 14.6642 4.39355 14.6416C4.40481 14.6152 4.42758 14.5971 4.44141 14.6006C4.45682 14.6025 4.45285 14.5957 4.43555 14.5859C4.4182 14.576 4.40777 14.548 4.41113 14.5234C4.41679 14.4974 4.41485 14.4786 4.4082 14.4824ZM11.1758 14.4834C11.1659 14.4663 11.1556 14.4889 11.1416 14.5566L11.1279 14.6299L11.1553 14.5605C11.168 14.5228 11.1776 14.4891 11.1758 14.4834ZM4.43652 14.3633C4.42673 14.3467 4.41528 14.3675 4.40625 14.418C4.39718 14.4687 4.40057 14.4691 4.41992 14.4209C4.43119 14.3945 4.43897 14.3675 4.43652 14.3633ZM5.47949 9.52344C5.46718 9.50234 5.45152 9.52871 5.29004 9.86621C4.90972 10.6435 4.66861 11.2218 4.44141 11.8965C4.36839 12.1119 4.30123 12.2866 4.29297 12.2832C4.26537 12.2763 4.01642 13.2256 3.93652 13.6445C3.89121 13.8774 3.87537 14.1327 3.84277 14.376C3.89832 13.9559 4.02476 13.4091 4.24805 12.6504C4.58404 11.5203 4.94121 10.5945 5.35742 9.78223C5.42623 9.6458 5.48195 9.52769 5.47949 9.52344ZM24.0088 14.0664C23.9605 14.0436 23.9803 14.0778 24.04 14.1201C24.0691 14.1401 24.0777 14.1404 24.0654 14.1191C24.0554 14.1021 24.0296 14.0771 24.0088 14.0664ZM4.5166 13.8877C4.50675 13.8706 4.49631 13.8935 4.48242 13.9609L4.46875 14.0352L4.49609 13.9648C4.50898 13.9262 4.51889 13.8923 4.5166 13.8877ZM5.22559 10.7207C5.2145 10.7015 5.19993 10.7323 5.0332 11.1387C4.69476 11.9631 4.44819 12.7832 4.28711 13.6133C4.2538 13.7804 4.22343 13.9432 4.2168 13.9727C4.21158 14.0036 4.2105 14.0264 4.2168 14.0234C4.22344 14.0196 4.26763 13.8239 4.31836 13.5898C4.48536 12.7903 4.80052 11.7623 5.11816 11.0039C5.17694 10.8559 5.22579 10.7302 5.22559 10.7207ZM10.458 13.9043C10.4481 13.8872 10.4368 13.9082 10.4277 13.959C10.4187 14.0095 10.422 14.01 10.4414 13.9619C10.4525 13.9359 10.4602 13.909 10.458 13.9043ZM30.4072 13.7656C30.378 13.7255 30.3948 13.764 30.4453 13.8516C30.4956 13.9387 30.521 13.9725 30.5 13.9258C30.4798 13.8807 30.4375 13.8079 30.4072 13.7656ZM10.5449 13.5947C10.5351 13.5778 10.5259 13.6035 10.501 13.7031L10.4775 13.8105L10.5146 13.7061C10.5313 13.6481 10.5474 13.599 10.5449 13.5947ZM16.3193 13.7305C16.2883 13.7484 16.2797 13.7594 16.2988 13.7568C16.3146 13.7535 16.3404 13.7379 16.3535 13.7246C16.363 13.7107 16.3501 13.7127 16.3193 13.7305ZM16.7373 13.4072C16.6275 13.4677 16.4209 13.6261 16.3877 13.6709C16.3729 13.6909 16.4163 13.6632 16.7236 13.4346L16.8477 13.3428L16.7373 13.4072ZM28.6592 11.2139C28.6358 11.2084 28.6601 11.2405 28.8057 11.4111C29.1857 11.8549 29.6603 12.5172 30.0889 13.2031L30.3838 13.6738L30.1484 13.2598C29.7842 12.6136 29.4204 12.0974 28.9092 11.4932C28.7798 11.3405 28.6684 11.2144 28.6592 11.2139ZM10.6367 13.3457C10.6269 13.3287 10.6155 13.3497 10.6064 13.4004C10.5975 13.4507 10.6008 13.4514 10.6201 13.4033C10.6312 13.3774 10.6388 13.3507 10.6367 13.3457ZM17.2119 13.1152C17.2736 13.0739 17.2151 13.1056 17.0801 13.1836C16.9475 13.2601 16.8956 13.2925 16.9688 13.2559C17.0421 13.2192 17.1502 13.1566 17.2119 13.1152ZM29.624 11.2119C29.6305 11.2281 29.7256 11.3637 29.8369 11.5156C30.0427 11.7953 30.412 12.337 30.5967 12.626C30.6513 12.7104 30.5799 12.5868 30.4365 12.3486C30.2929 12.11 30.0821 11.7869 29.9648 11.6299C29.7608 11.358 29.599 11.1584 29.624 11.2119ZM5.10254 11.7842C5.09282 11.7679 5.08451 11.7956 5.05371 11.9092L5.02539 12.0342L5.06738 11.9131C5.08818 11.8469 5.10504 11.7885 5.10254 11.7842ZM8.4541 6.34375C8.43641 6.35396 8.29086 6.50629 8.13184 6.68066C7.14524 7.7626 6.24894 9.09933 5.6582 10.3711C5.45825 10.7984 5.14346 11.5879 5.15527 11.6201C5.15892 11.6264 5.2176 11.4933 5.28711 11.3223C5.95298 9.65419 6.8504 8.20278 8.0918 6.78027C8.27905 6.5643 8.44611 6.37401 8.46094 6.35645C8.48347 6.32922 8.48387 6.32945 8.4541 6.34375ZM28.5947 11.1426C28.5836 11.1385 28.5843 11.155 28.5996 11.1768C28.6131 11.2002 28.6243 11.2026 28.6211 11.1816C28.619 11.163 28.605 11.1451 28.5947 11.1426ZM29.542 11.0908C29.5284 11.0823 29.53 11.0957 29.5469 11.125C29.5641 11.1549 29.5752 11.1633 29.5732 11.1445C29.5703 11.1292 29.555 11.1032 29.542 11.0908ZM28.5117 11.0488C28.5001 11.0441 28.5009 11.0608 28.5166 11.083C28.5301 11.1063 28.5404 11.1088 28.5371 11.0879C28.5351 11.0694 28.5219 11.0516 28.5117 11.0488ZM28.9004 10.8525C28.8889 10.8479 28.8897 10.8646 28.9053 10.8867C28.9187 10.91 28.9288 10.9131 28.9258 10.8926C28.9238 10.874 28.9107 10.8554 28.9004 10.8525ZM25.1748 8.13672C25.2146 8.15949 25.3762 8.24533 25.5332 8.32812C26.7259 8.96292 27.6744 9.65971 28.6387 10.6143C28.768 10.7414 28.8646 10.8277 28.8535 10.8086C28.821 10.7473 28.3091 10.2385 28.0322 9.99414C27.3141 9.35853 26.3984 8.73891 25.5068 8.2832C25.3677 8.21049 25.2187 8.14093 25.1777 8.12695L25.1025 8.09863L25.1748 8.13672ZM28.4395 10.0293C28.4495 10.0464 28.4776 10.0747 28.502 10.0918C28.5288 10.113 28.5391 10.1107 28.5283 10.0918C28.5185 10.0748 28.4895 10.0455 28.4648 10.0283C28.4379 10.0071 28.4284 10.0102 28.4395 10.0293ZM28.2734 9.85449C28.2478 9.81522 28.1707 9.76861 28.1904 9.80273C28.2004 9.81987 28.2261 9.84485 28.2471 9.85547C28.2678 9.86611 28.2794 9.86493 28.2734 9.85449ZM28.1553 9.75195C28.1296 9.71268 28.0526 9.66607 28.0723 9.7002C28.0822 9.71721 28.108 9.74222 28.1289 9.75293C28.1496 9.76354 28.1612 9.76244 28.1553 9.75195ZM27.6748 9.36035C27.6687 9.36436 27.6774 9.37856 27.6924 9.38965C27.7089 9.40283 27.7929 9.47162 27.8779 9.54199C27.9614 9.61021 28.0328 9.66282 28.0352 9.65625C28.0359 9.64731 27.9593 9.5776 27.8604 9.49805C27.7648 9.41953 27.6814 9.35652 27.6748 9.36035ZM5.59473 9.31445C5.5849 9.29768 5.57612 9.30847 5.55078 9.37109C5.52825 9.42393 5.5295 9.42646 5.56445 9.375C5.58366 9.34689 5.59718 9.31871 5.59473 9.31445ZM27.4609 9.2041C27.4735 9.23076 27.6368 9.35284 27.6436 9.3418C27.6478 9.33368 27.6047 9.295 27.5508 9.25781C27.4983 9.22156 27.4581 9.19716 27.4609 9.2041ZM5.70996 9.10547C5.70016 9.08884 5.69132 9.09955 5.66602 9.16211C5.64348 9.21487 5.6448 9.21737 5.67969 9.16602C5.69889 9.13791 5.71239 9.10968 5.70996 9.10547ZM27.3125 9.09961C27.3187 9.11031 27.3517 9.13747 27.3867 9.15723C27.4214 9.17677 27.4417 9.18156 27.4355 9.1709C27.4281 9.15816 27.3969 9.13386 27.3623 9.11426C27.3274 9.09469 27.3053 9.08701 27.3125 9.09961ZM27.1133 8.95898C27.12 8.96995 27.1628 9.00399 27.21 9.03027C27.2577 9.05673 27.2894 9.07027 27.2832 9.05957C27.2754 9.04655 27.2331 9.01464 27.1855 8.98828C27.1379 8.96175 27.1059 8.94622 27.1133 8.95898ZM26.9395 8.81738C26.9186 8.80674 26.9038 8.80657 26.9111 8.81934C26.9174 8.82999 26.9431 8.84865 26.9639 8.85938C26.9848 8.86999 26.9984 8.86812 26.9922 8.85742C26.9845 8.84459 26.9602 8.828 26.9395 8.81738ZM26.8623 8.76465C26.8249 8.73527 26.8054 8.7381 26.8223 8.76758C26.8296 8.7803 26.8473 8.79023 26.8643 8.78906C26.8812 8.78769 26.8788 8.77781 26.8623 8.76465ZM6.28809 7.98926C6.26053 8.00798 6.11758 8.22739 6.125 8.24023C6.13186 8.24976 6.29176 8.02546 6.30371 7.99219C6.30567 7.98547 6.29888 7.9832 6.28809 7.98926ZM17.8623 7.99512C17.7879 8.00401 17.753 8.02475 17.8076 8.02734C17.8314 8.02759 17.8673 8.01792 17.8848 8.00781C17.9065 7.99518 17.8983 7.99129 17.8623 7.99512ZM19.5283 7.7168C19.4766 7.7039 18.701 7.81236 18.3623 7.87988C18.1914 7.91594 18.0377 7.95129 18.0244 7.95898C18.0106 7.97 18.1908 7.93963 18.4248 7.89551C18.6591 7.85138 19.0098 7.79404 19.2051 7.76953C19.4025 7.74368 19.5455 7.7211 19.5283 7.7168ZM6.77734 7.45312C6.7661 7.45985 6.73873 7.49358 6.71777 7.52832C6.69699 7.56285 6.69067 7.58281 6.70117 7.57715C6.71446 7.56948 6.74064 7.53698 6.76172 7.50195C6.78269 7.46714 6.79059 7.44548 6.77734 7.45312ZM21.8506 7.46582C21.8543 7.47226 21.9314 7.48742 22.0195 7.50195C22.1087 7.51506 22.1777 7.52359 22.1758 7.51758C22.1721 7.51126 22.0972 7.49481 22.0068 7.48145C21.9192 7.46701 21.8478 7.45961 21.8506 7.46582ZM16.7139 7.49414C16.6899 7.50802 16.6871 7.5182 16.708 7.51465C16.7272 7.51211 16.7459 7.49846 16.749 7.48828C16.7542 7.47671 16.737 7.47788 16.7139 7.49414ZM21.0156 7.37305C20.8394 7.3694 20.9148 7.37728 21.4385 7.43066C21.6504 7.45055 21.8126 7.46194 21.7998 7.45508C21.7827 7.44931 21.6366 7.42961 21.4717 7.41211C21.3053 7.39451 21.0998 7.37573 21.0156 7.37305ZM18.7061 7.04785C18.3654 7.08907 17.696 7.20572 17.2305 7.33594C17.0715 7.38228 16.93 7.42331 16.9189 7.42969C16.8683 7.45899 16.9478 7.44224 17.2324 7.36328C17.6242 7.25326 18.2796 7.11228 18.7061 7.04785ZM6.98047 7.19141C6.96938 7.19795 6.949 7.22341 6.9375 7.24414C6.92612 7.26482 6.92773 7.27835 6.93848 7.27246C6.95171 7.26482 6.96993 7.23965 6.98145 7.21875C6.99302 7.19786 6.99371 7.18376 6.98047 7.19141ZM18.4961 7.20215C18.4855 7.20849 18.4961 7.21727 18.5195 7.21777C18.5434 7.21824 18.5768 7.21341 18.5879 7.20703C18.601 7.19939 18.5881 7.19191 18.5645 7.19141C18.5406 7.19098 18.5094 7.19448 18.4961 7.20215ZM18.6318 7.18164C18.6212 7.18806 18.6317 7.19595 18.6553 7.19629C18.679 7.1967 18.7113 7.19186 18.7227 7.18555C18.7359 7.17792 18.723 7.17137 18.6992 7.1709C18.6754 7.17059 18.645 7.17405 18.6318 7.18164ZM18.7676 7.16016C18.7565 7.16656 18.7671 7.17438 18.791 7.1748C18.8149 7.17521 18.8474 7.17043 18.8584 7.16406C18.8713 7.15649 18.8587 7.14989 18.835 7.14941C18.8112 7.14899 18.7809 7.1526 18.7676 7.16016ZM20.5635 7.05078C20.4469 7.03283 19.6729 7.06106 19.2871 7.09863C19.085 7.11704 18.9089 7.13717 18.8975 7.14453C18.8887 7.14961 19.0593 7.13948 19.2754 7.12012C19.5954 7.09176 20.1337 7.06836 20.5547 7.06152C20.6238 7.05873 20.624 7.05856 20.5635 7.05078ZM23.4707 7.0918C23.4641 7.09562 23.488 7.10653 23.5234 7.11719C23.5592 7.12795 23.593 7.13469 23.5996 7.13086C23.6051 7.12684 23.581 7.11508 23.5459 7.10449C23.5107 7.09396 23.478 7.08828 23.4707 7.0918ZM20.7832 7.04883C20.7522 7.04999 20.7298 7.05726 20.7314 7.06152C20.7352 7.06797 20.7642 7.07157 20.7959 7.07031C20.8274 7.0691 20.8496 7.06189 20.8477 7.05762C20.8439 7.05117 20.8149 7.04752 20.7832 7.04883ZM20.1582 6.65527C20.0246 6.66023 19.9748 6.66626 19.999 6.6709C20.0242 6.67553 20.1247 6.6797 20.29 6.67969C21.1392 6.67883 22.0841 6.78185 22.8926 6.96094C23.192 7.02992 23.2569 7.03827 23.2422 7.0127C23.2298 6.9913 22.2073 6.79561 21.8623 6.75C21.6531 6.71999 21.2292 6.6857 20.9199 6.6709C20.6115 6.65817 20.2704 6.65028 20.1582 6.65527ZM19.8232 6.66406C19.7618 6.66866 19.7141 6.67633 19.7168 6.68262C19.7193 6.68695 19.7738 6.69022 19.8359 6.68555C19.898 6.68101 19.9468 6.67245 19.9434 6.66602C19.9409 6.66168 19.8855 6.65951 19.8232 6.66406ZM7.79199 6.55176C7.78091 6.55816 7.76065 6.58466 7.74902 6.60547C7.73768 6.62632 7.73905 6.63907 7.75 6.63281C7.76319 6.6252 7.78145 6.60099 7.79297 6.58008C7.80453 6.55933 7.80515 6.54422 7.79199 6.55176ZM7.90039 6.43262C7.88931 6.43902 7.86897 6.46539 7.85742 6.48633C7.84602 6.50707 7.84736 6.52004 7.8584 6.51367C7.87164 6.50602 7.88979 6.48085 7.90137 6.45996C7.91269 6.43928 7.91343 6.42523 7.90039 6.43262ZM8.00781 6.31348C7.99663 6.32033 7.97626 6.34571 7.96484 6.36621C7.95329 6.38714 7.95575 6.40091 7.9668 6.39453C7.98007 6.3868 7.99824 6.3617 8.00977 6.34082C8.02126 6.32012 8.02102 6.30585 8.00781 6.31348ZM8.11621 6.19336C8.10513 6.19976 8.08479 6.22614 8.07324 6.24707C8.06179 6.26788 8.06327 6.28061 8.07422 6.27441C8.08746 6.26677 8.10661 6.24261 8.11816 6.22168C8.1296 6.20086 8.12942 6.18577 8.11621 6.19336ZM8.49707 5.80566C8.47932 5.816 8.44882 5.84558 8.43066 5.87012C8.40853 5.89698 8.41114 5.90665 8.43066 5.89551C8.44835 5.8853 8.47888 5.85582 8.49707 5.83105C8.51968 5.80391 8.51694 5.79419 8.49707 5.80566ZM8.56055 5.74121C8.53618 5.75528 8.53324 5.76551 8.55469 5.76172C8.57372 5.75905 8.59272 5.74559 8.5957 5.73535C8.60082 5.72381 8.58365 5.72514 8.56055 5.74121ZM8.7041 5.60156C8.68647 5.61174 8.65591 5.64032 8.6377 5.66504C8.61508 5.69231 8.61777 5.70194 8.6377 5.69043C8.65542 5.68008 8.68597 5.65156 8.7041 5.62695C8.72665 5.59969 8.72399 5.59009 8.7041 5.60156ZM8.7666 5.53613C8.74232 5.55017 8.73953 5.56043 8.76074 5.55664C8.77993 5.5541 8.79891 5.54051 8.80176 5.53027C8.80662 5.519 8.78946 5.52004 8.7666 5.53613ZM8.84277 5.46387C8.81865 5.47783 8.81578 5.48804 8.83691 5.48438C8.85605 5.48176 8.87509 5.46824 8.87793 5.45801C8.88308 5.44662 8.86577 5.44773 8.84277 5.46387ZM8.91895 5.3916C8.89493 5.40553 8.89204 5.41579 8.91309 5.41211C8.93223 5.4095 8.95101 5.39596 8.9541 5.38574C8.95926 5.37434 8.94212 5.37546 8.91895 5.3916ZM8.99512 5.31934C8.97122 5.33322 8.96846 5.34351 8.98926 5.33984C9.00837 5.33732 9.02702 5.3236 9.03027 5.31348C9.03536 5.30195 9.01822 5.30308 8.99512 5.31934Z" fill="white"/>
<path d="M9 1H1V9H0V0H9V1Z" fill="white"/>
<path d="M36 9H35V1H27V0H36V9Z" fill="white"/>
</svg>
