<svg width="36" height="36" viewBox="0 0 36 36" fill="none" xmlns="http://www.w3.org/2000/svg">
<path d="M1 35H9V36H0V27H1V35Z" fill="#444856"/>
<path d="M36 36H27V35H35V27H36V36Z" fill="#444856"/>
<path d="M9 1H1V9H0V0H9V1Z" fill="#444856"/>
<path d="M36 9H35V1H27V0H36V9Z" fill="#444856"/>
<path d="M17.9793 7C11.7266 7 7.42475 9.75118 3.18365 14.5961C7.97499 13.1812 12.7628 12.338 17.5148 12.2594C17.6863 12.2594 17.8578 12.2523 18.0293 12.2523C22.4741 12.2308 26.8902 12.8739 31.2707 14.346C29.963 13.0454 28.7982 11.6448 27.4405 10.43C25.2538 8.50064 22.6241 7 17.9793 7ZM20.416 13.6529C20.5634 13.9909 20.6388 14.356 20.6376 14.7247C20.636 14.989 20.595 15.2515 20.5161 15.5036C20.4105 15.2718 20.2406 15.0751 20.0265 14.937C19.8124 14.7989 19.5632 14.7253 19.3084 14.7247C19.1333 14.7248 18.9599 14.7595 18.7982 14.8268C18.6366 14.8941 18.4897 14.9926 18.3662 15.1168C18.2428 15.2409 18.145 15.3883 18.0786 15.5503C18.0122 15.7123 17.9784 15.8859 17.9793 16.061C17.9798 16.3158 18.0535 16.565 18.1916 16.7791C18.3296 16.9932 18.5263 17.1631 18.7582 17.2687C18.5057 17.3452 18.2431 17.3837 17.9793 17.383C17.6297 17.3837 17.2834 17.3154 16.9601 17.1821C16.6369 17.0489 16.3431 16.8532 16.0956 16.6063C15.8481 16.3594 15.6516 16.0662 15.5175 15.7433C15.3833 15.4205 15.3141 15.0744 15.3138 14.7247C15.3143 14.3661 15.3872 14.0112 15.5282 13.6814C14.8208 13.7243 14.1133 13.7886 13.413 13.8601C13.3559 14.1459 13.3273 14.4318 13.3273 14.7247C13.3273 17.3044 15.3996 19.3696 17.9793 19.3696C20.559 19.3696 22.6241 17.3044 22.6241 14.7247C22.6241 14.4175 22.5955 14.1102 22.5312 13.8172C21.8309 13.7386 21.1163 13.6886 20.416 13.6529ZM23.9318 13.9887C23.9604 14.2317 23.9747 14.4746 23.9747 14.7247C23.9747 18.0262 21.2807 20.7202 17.9793 20.7202C14.6779 20.7202 11.991 18.0262 11.991 14.7247C11.991 14.4889 12.0053 14.2603 12.0339 14.0316C9.03259 14.446 6.02916 15.1392 3 16.0539C7.68201 18.3549 12.8199 21.249 17.9793 21.249C22.3526 21.249 26.6616 20.2485 32.557 16.2468C29.6914 15.1392 26.8188 14.396 23.9318 13.9887ZM33 17.576C31.9138 18.2977 30.8634 18.9265 29.8558 19.4768C25.2824 24.8076 18.3723 26.93 10.7476 27.2444L10.8119 28.595C18.6939 28.2663 26.1042 25.9939 30.9777 20.2271C29.6057 23.9644 26.5973 26.8442 23.5031 29.8312L24.4463 30.8031C28.2623 27.1158 32.3068 23.3141 33 17.576Z" fill="#444856"/>
</svg>
