<svg width="36" height="36" viewBox="0 0 36 36" fill="none" xmlns="http://www.w3.org/2000/svg">
<path d="M1 35H9V36H0V27H1V35Z" fill="#B9B29D"/>
<path d="M36 36H27V35H35V27H36V36Z" fill="#B9B29D"/>
<path d="M9 1H1V9H0V0H9V1Z" fill="#B9B29D"/>
<path d="M36 9H35V1H27V0H36V9Z" fill="#B9B29D"/>
<path d="M27.41 4L26.962 5.34387L27.8434 6.22524L29.1873 5.7773V4H27.41ZM25.6719 5.57336L25.0808 6.1644L27.0228 8.10648L27.6139 7.51538L25.6719 5.57336ZM24.321 6.92416L21.7036 9.5417L23.6455 11.4837L26.263 8.86624L24.321 6.92416ZM20.9438 10.3015L19.0018 12.2434L20.9438 14.1855L22.8857 12.2434L20.9438 10.3015ZM17.5666 12.3277L9.93096 19.9635L9.40051 21.5545L11.6327 23.7867L13.2237 23.2563L20.8595 15.6206L17.5666 12.3277ZM27.8483 20.7139C26.9103 20.7031 25.9319 20.9453 24.9261 21.339C22.6275 22.2387 20.1517 23.947 17.705 25.6222C15.2583 27.2974 12.8392 28.9393 10.8015 29.7117C9.78266 30.0979 8.87043 30.2617 8.11121 30.1549C7.35199 30.0481 6.72459 29.7017 6.15659 28.934C6.02609 28.7577 6.02328 28.5165 6.212 28.0865C6.40065 27.6564 6.77892 27.1344 7.2016 26.6547C7.77199 26.0074 8.40458 25.4403 8.7604 25.1356L7.99772 24.373C7.60817 24.7096 6.97707 25.284 6.39534 25.9443C5.93218 26.4701 5.49433 27.0477 5.22806 27.6548C4.9618 28.2617 4.86496 28.9949 5.29278 29.5732C6.00531 30.5361 6.94202 31.0755 7.96148 31.219C8.98099 31.3625 10.0621 31.1411 11.1824 30.7164C13.4229 29.8671 15.8651 28.1842 18.312 26.5088C20.7591 24.8334 23.2092 23.165 25.3178 22.3396C26.3722 21.9269 27.3325 21.7293 28.1495 21.8045C28.9664 21.8798 29.6502 22.1992 30.2736 22.9189C30.9093 23.6527 30.9699 24.7246 30.6055 26.0618C30.2411 27.3991 29.4497 28.9237 28.5511 30.3405C28.1851 30.9178 27.8025 31.4752 27.4249 32H28.7405C28.9868 31.6433 29.2261 31.2819 29.4585 30.9161C30.3898 29.4478 31.2297 27.8582 31.6422 26.3444C32.0548 24.8305 32.0379 23.3144 31.0859 22.2153C30.2997 21.3078 29.3065 20.832 28.248 20.7346C28.1151 20.7224 27.9817 20.7154 27.8483 20.7139ZM8.78595 22.4595L8.19491 23.0505L10.1368 24.9925L10.7278 24.4014L8.78595 22.4595Z" fill="#B9B29D"/>
</svg>
