<svg width="36" height="36" viewBox="0 0 36 36" fill="none" xmlns="http://www.w3.org/2000/svg">
<path d="M1 35H9V36H0V27H1V35Z" fill="#444856"/>
<path d="M36 36H27V35H35V27H36V36Z" fill="#444856"/>
<path d="M15.2939 7C15.574 7.00007 15.7198 7.16868 15.7822 7.25293C15.8445 7.33708 15.8683 7.39584 15.8906 7.45312C15.9355 7.56785 15.961 7.67657 15.9893 7.80762C16.0454 8.0699 16.0975 8.41175 16.1494 8.82617C16.2531 9.65518 16.3549 10.7658 16.4453 11.9453C16.6263 14.3048 16.7617 16.9147 16.7617 18.0576C16.7618 19.1085 16.895 21.7451 17.0742 24.083C17.081 24.172 17.0888 24.2497 17.0957 24.3379C17.1041 24.2305 17.1138 24.135 17.1221 24.0264C17.3014 21.6692 17.4355 19.0295 17.4355 18.0576C17.4355 16.9865 17.5711 14.3799 17.752 12.002C17.8424 10.8134 17.9433 9.68892 18.0469 8.84863C18.0987 8.42842 18.1502 8.08104 18.2061 7.81543C18.2341 7.6828 18.2605 7.57322 18.3047 7.45801C18.3266 7.40049 18.3497 7.34138 18.4111 7.25684C18.4727 7.17221 18.6177 7.00003 18.9023 7C19.1822 7.00019 19.3292 7.16879 19.3916 7.25293C19.4537 7.33683 19.4767 7.39596 19.499 7.45312C19.5438 7.56791 19.5706 7.67651 19.5986 7.80762C19.6548 8.0699 19.7059 8.41174 19.7578 8.82617C19.8614 9.65515 19.9633 10.7658 20.0537 11.9453C20.215 14.0482 20.3253 16.2074 20.3506 17.4922H20.3701V18.0576C20.3701 19.1083 20.5033 21.745 20.6826 24.083C20.6895 24.1724 20.6982 24.2504 20.7051 24.3389C20.7136 24.2312 20.7222 24.1353 20.7305 24.0264C20.8874 21.9636 21.01 19.6845 21.0381 18.4961L21.0498 17.6191C21.0784 16.5154 21.2031 14.8793 21.3623 13.4229C21.4532 12.5907 21.555 11.8228 21.6611 11.2441C21.7141 10.9548 21.7659 10.7159 21.8291 10.5166C21.8606 10.417 21.8912 10.3288 21.9521 10.2236C21.9825 10.1711 22.0192 10.1113 22.0967 10.041C22.1743 9.97057 22.32 9.87891 22.5117 9.87891C22.6984 9.87905 22.8418 9.96712 22.9199 10.0361C22.998 10.1052 23.0364 10.1645 23.0674 10.2168C23.1294 10.3212 23.1605 10.4088 23.1924 10.5068C23.256 10.7031 23.3083 10.9372 23.3613 11.2207C23.4677 11.7884 23.5691 12.543 23.6602 13.3662C23.842 15.0125 23.9785 16.9147 23.9785 18.0576C23.9787 19.1083 24.1118 21.0133 24.29 22.625C24.2971 22.6892 24.3052 22.7433 24.3125 22.8066C24.3219 22.7243 24.3317 22.6523 24.3408 22.5684C24.5191 20.937 24.6523 19.0293 24.6523 18.0576C24.6523 16.9867 24.7897 15.638 24.9746 14.5293C25.0671 13.9748 25.1709 13.4838 25.2842 13.1035C25.3408 12.9136 25.3964 12.753 25.4766 12.6006C25.5167 12.5245 25.5601 12.4483 25.6436 12.3623C25.7274 12.276 25.8838 12.1533 26.1201 12.1533C26.3459 12.1535 26.5007 12.2675 26.5859 12.3516C26.6713 12.4355 26.7177 12.5109 26.7588 12.5859C26.841 12.7358 26.897 12.8922 26.9541 13.0771C27.0684 13.4474 27.172 13.9248 27.2646 14.4707C27.4501 15.5625 27.5869 16.9146 27.5869 18.0576C27.5871 19.1082 27.7188 20.4259 27.8936 21.4551C27.9016 21.5022 27.9108 21.5391 27.9189 21.585C27.9304 21.5206 27.943 21.4669 27.9541 21.4004C28.1292 20.3505 28.2607 19.0293 28.2607 18.0576C28.2607 16.9866 28.3998 15.9704 28.5928 15.1934C28.6891 14.8052 28.7958 14.4793 28.9258 14.2129C28.9908 14.0796 29.0594 13.96 29.1641 13.8428C29.2688 13.7256 29.4397 13.5693 29.7285 13.5693C29.9978 13.5695 30.1713 13.7088 30.2793 13.8213C30.3874 13.9338 30.4577 14.0506 30.5244 14.1797C30.6579 14.4377 30.7661 14.7528 30.8633 15.1338C31.0577 15.8962 31.1953 16.9146 31.1953 18.0576C31.1953 19.1081 31.3273 20.0516 31.4932 20.7021C31.5034 20.7425 31.5148 20.7705 31.5254 20.8086C31.5409 20.7531 31.5564 20.7084 31.5713 20.6484C31.7386 19.9747 31.8701 19.0291 31.8701 18.0576H33C33 19.1285 32.8609 20.1439 32.668 20.9209C32.5715 21.3093 32.465 21.6358 32.335 21.9023C32.27 22.0357 32.2014 22.1552 32.0967 22.2725C31.9919 22.3896 31.8208 22.5449 31.5322 22.5449C31.263 22.5448 31.0894 22.4054 30.9814 22.293C30.8735 22.1805 30.803 22.0645 30.7363 21.9355C30.6028 21.6775 30.4946 21.3625 30.3975 20.9814C30.2031 20.2189 30.0654 19.2007 30.0654 18.0576C30.0654 17.0071 29.9335 16.0636 29.7676 15.4131C29.7573 15.3723 29.746 15.3441 29.7354 15.3057C29.7199 15.3611 29.7044 15.4059 29.6895 15.4658C29.5222 16.1396 29.3916 17.086 29.3916 18.0576C29.3916 19.1286 29.2535 20.4771 29.0684 21.5859C28.9759 22.1403 28.873 22.6305 28.7598 23.0107C28.703 23.2008 28.6477 23.3612 28.5674 23.5137C28.5272 23.5901 28.4831 23.6667 28.3994 23.7529C28.3156 23.8392 28.1599 23.9619 27.9238 23.9619C27.6974 23.9619 27.5423 23.8468 27.457 23.7627C27.3721 23.6788 27.3263 23.6041 27.2852 23.5293C27.203 23.3794 27.1469 23.2228 27.0898 23.0381C26.9756 22.6679 26.872 22.1904 26.7793 21.6445C26.5939 20.5528 26.4562 19.2007 26.4561 18.0576C26.4561 17.0071 26.3242 15.6893 26.1494 14.6602C26.1414 14.6131 26.1332 14.5761 26.125 14.5303C26.1135 14.5946 26.1009 14.6484 26.0898 14.7148C25.9147 15.7647 25.7822 17.0859 25.7822 18.0576C25.7822 19.1285 25.6467 21.0269 25.4648 22.6914C25.3739 23.5236 25.2712 24.2923 25.165 24.8711C25.1121 25.1602 25.0601 25.3994 24.9971 25.5986C24.9655 25.6982 24.9349 25.7865 24.874 25.8916C24.8436 25.9441 24.8067 26.0031 24.7295 26.0732C24.652 26.1437 24.507 26.2362 24.3154 26.2363C24.1285 26.2363 23.9844 26.1482 23.9062 26.0791C23.8281 26.01 23.7899 25.9507 23.7588 25.8984C23.6968 25.7939 23.6666 25.7065 23.6348 25.6084C23.5711 25.4122 23.519 25.1781 23.4658 24.8945C23.3594 24.3269 23.2571 23.5722 23.166 22.749C22.9841 21.1027 22.8477 19.2007 22.8477 18.0576C22.8477 17.0071 22.7143 15.1021 22.5361 13.4902C22.529 13.4261 22.5208 13.372 22.5137 13.3086C22.5043 13.3908 22.4945 13.4623 22.4854 13.5459C22.307 15.1775 22.1738 17.0859 22.1738 18.0576C22.1738 19.1285 22.0383 21.7345 21.8574 24.1123C21.7669 25.3012 21.6651 26.4262 21.5615 27.2666C21.5097 27.6867 21.4583 28.0333 21.4023 28.2988C21.3743 28.4316 21.3479 28.5411 21.3037 28.6562C21.2816 28.7137 21.2596 28.773 21.1982 28.8574C21.1366 28.9421 20.9911 29.1143 20.7061 29.1143C20.4265 29.1141 20.2803 28.9466 20.2178 28.8623C20.1555 28.7781 20.1327 28.7184 20.1104 28.6611C20.0656 28.5463 20.0389 28.4378 20.0107 28.3066C19.9546 28.0445 19.9035 27.7032 19.8516 27.2891C19.748 26.4601 19.6461 25.3486 19.5557 24.1689C19.3944 22.0663 19.284 19.9079 19.2588 18.623H19.2393V18.0576C19.2393 17.0073 19.1051 14.3705 18.9258 12.0322C18.9189 11.9428 18.9113 11.8647 18.9043 11.7764C18.8958 11.8837 18.8862 11.9792 18.8779 12.0879C18.6986 14.4454 18.5645 17.0859 18.5645 18.0576C18.5645 19.1286 18.4299 21.7344 18.249 24.1123C18.1586 25.3012 18.0567 26.4262 17.9531 27.2666C17.9013 27.6867 17.8498 28.0332 17.7939 28.2988C17.7659 28.4316 17.7395 28.5411 17.6953 28.6562C17.6732 28.7138 17.6505 28.7728 17.5889 28.8574C17.5273 28.9421 17.3826 29.1143 17.0977 29.1143C16.8179 29.1142 16.672 28.9467 16.6094 28.8623C16.5469 28.778 16.5233 28.7185 16.501 28.6611C16.4562 28.5464 16.4304 28.4377 16.4023 28.3066C16.3462 28.0444 16.294 27.7032 16.2422 27.2891C16.1385 26.4601 16.0377 25.3486 15.9473 24.1689C15.7663 21.8098 15.6309 19.2008 15.6309 18.0576C15.6309 17.0072 15.4968 14.3705 15.3174 12.0322C15.3105 11.9425 15.3028 11.8642 15.2959 11.7754C15.2874 11.8831 15.2778 11.9789 15.2695 12.0879C15.1126 14.1508 14.99 16.4307 14.9619 17.6191L14.9502 18.4961C14.9217 19.5996 14.7968 21.235 14.6377 22.6914C14.5468 23.5236 14.445 24.2923 14.3389 24.8711C14.2858 25.1603 14.234 25.3993 14.1709 25.5986C14.1394 25.6983 14.1088 25.7864 14.0479 25.8916C14.0175 25.9441 13.9806 26.0031 13.9033 26.0732C13.8258 26.1437 13.6809 26.2362 13.4893 26.2363C13.3024 26.2363 13.1583 26.1482 13.0801 26.0791C13.002 26.0101 12.9638 25.9507 12.9326 25.8984C12.8706 25.7939 12.8405 25.7065 12.8086 25.6084C12.7448 25.412 12.6918 25.1782 12.6387 24.8945C12.5323 24.3269 12.4309 23.5722 12.3398 22.749C12.1689 21.2031 12.0426 19.4546 12.0273 18.2979L12.0215 18.292V18.0576C12.0215 17.0072 11.8882 15.1023 11.71 13.4902C11.7029 13.4261 11.6948 13.372 11.6875 13.3086C11.6782 13.3908 11.6683 13.4623 11.6592 13.5459C11.4808 15.1775 11.3477 17.086 11.3477 18.0576C11.3476 19.1285 11.2104 20.4771 11.0254 21.5859C10.9328 22.1404 10.8292 22.6305 10.7158 23.0107C10.6591 23.2008 10.6036 23.3611 10.5234 23.5137C10.4833 23.5901 10.4392 23.6667 10.3555 23.7529C10.2716 23.8392 10.1158 23.9619 9.87988 23.9619C9.65364 23.9618 9.49925 23.8468 9.41406 23.7627C9.32874 23.6788 9.28231 23.6042 9.24121 23.5293C9.15895 23.3793 9.10304 23.2222 9.0459 23.0371C8.93168 22.6669 8.82793 22.1902 8.73535 21.6445C8.54994 20.5528 8.41323 19.2007 8.41309 18.0576C8.41309 17.0073 8.28113 15.6893 8.10645 14.6602C8.09843 14.613 8.0892 14.5761 8.08105 14.5303C8.06953 14.5946 8.05705 14.6482 8.0459 14.7148C7.87083 15.7647 7.73926 17.0859 7.73926 18.0576C7.73925 19.1285 7.60016 20.1439 7.40723 20.9209C7.31081 21.3093 7.20427 21.6358 7.07422 21.9023C7.00923 22.0357 6.94068 22.1552 6.83594 22.2725C6.73118 22.3896 6.56031 22.5459 6.27148 22.5459H6.08984L5.94238 22.4395C5.31144 21.9867 5.11947 21.2254 4.99219 20.4043C4.86495 19.5833 4.83892 18.6492 4.81055 17.7568C4.78229 16.8644 4.74961 16.01 4.6416 15.4199C4.6188 15.2935 4.58776 15.1687 4.5498 15.0459C4.50398 15.1842 4.46389 15.3244 4.42871 15.4658C4.26143 16.1396 4.12988 17.086 4.12988 18.0576H3C3 16.9868 3.13821 15.9713 3.33105 15.1943C3.4274 14.8058 3.535 14.4794 3.66504 14.2129C3.73001 14.0796 3.79767 13.9598 3.90234 13.8428C4.00704 13.7257 4.17798 13.5695 4.4668 13.5693H4.5166L4.56445 13.5781C4.9521 13.6458 5.25474 13.9258 5.42578 14.2227C5.59666 14.5196 5.68606 14.8515 5.75293 15.2168C5.88661 15.9477 5.91205 16.8272 5.94043 17.7207C5.96875 18.6142 5.99886 19.5191 6.10938 20.2314C6.14609 20.4688 6.19805 20.667 6.25391 20.8457C6.27301 20.7789 6.29219 20.7222 6.31055 20.6484C6.47771 19.9748 6.6084 19.0291 6.6084 18.0576C6.60841 16.9866 6.74654 15.6382 6.93164 14.5293C7.02413 13.9749 7.12703 13.4848 7.24023 13.1045C7.29697 12.9144 7.3523 12.7541 7.43262 12.6016C7.47274 12.5251 7.51682 12.4486 7.60059 12.3623C7.68435 12.276 7.84032 12.1533 8.07617 12.1533C8.3025 12.1534 8.45759 12.2684 8.54297 12.3525C8.62788 12.4365 8.67386 12.5111 8.71484 12.5859C8.7971 12.7359 8.85301 12.893 8.91016 13.0781C9.02439 13.4483 9.12799 13.9251 9.2207 14.4707C9.40607 15.5625 9.54297 16.9147 9.54297 18.0576C9.5431 19.1082 9.6748 20.4259 9.84961 21.4551C9.85762 21.5022 9.86686 21.5391 9.875 21.585C9.88646 21.5207 9.89907 21.467 9.91016 21.4004C10.0853 20.3505 10.2178 19.0293 10.2178 18.0576C10.2178 16.9867 10.3532 15.0883 10.5352 13.4238C10.626 12.5916 10.7279 11.8229 10.834 11.2441C10.8871 10.9548 10.9398 10.7159 11.0029 10.5166C11.0345 10.417 11.0641 10.3287 11.125 10.2236C11.1555 10.1711 11.193 10.1123 11.2705 10.042C11.348 9.97154 11.4928 9.87891 11.6846 9.87891C11.8714 9.87891 12.0157 9.96706 12.0938 10.0361C12.1719 10.1051 12.2092 10.1646 12.2402 10.2168C12.3023 10.3214 12.3334 10.4087 12.3652 10.5068C12.4289 10.7032 12.481 10.9378 12.5342 11.2217C12.6405 11.7893 12.743 12.5432 12.834 13.3662C13.005 14.9121 13.1302 16.6607 13.1455 17.8174L13.1523 17.8232V18.0576C13.1523 19.1081 13.2847 21.013 13.4629 22.625C13.47 22.6892 13.4782 22.7434 13.4854 22.8066C13.4948 22.7244 13.5055 22.653 13.5146 22.5693C13.6929 20.9377 13.8262 19.0293 13.8262 18.0576C13.8262 16.9864 13.9617 14.3808 14.1426 12.0029C14.2331 10.814 14.3339 9.68904 14.4375 8.84863C14.4893 8.42861 14.5407 8.08197 14.5967 7.81641C14.6246 7.68374 14.6511 7.57408 14.6953 7.45898C14.7173 7.4014 14.7402 7.34148 14.8018 7.25684C14.8635 7.17207 15.0094 7 15.2939 7Z" fill="#444856"/>
<path d="M9 1H1V9H0V0H9V1Z" fill="#444856"/>
<path d="M36 9H35V1H27V0H36V9Z" fill="#444856"/>
</svg>
