<svg width="36" height="36" viewBox="0 0 36 36" fill="none" xmlns="http://www.w3.org/2000/svg">
<path d="M1 35H9V36H0V27L1 27.0148V35Z" fill="#B9B29D"/>
<path d="M36 36H27V35H35V27H36V36Z" fill="#B9B29D"/>
<path d="M7.90192 24.3402C8.15012 25.2168 8.33898 26.1087 8.44244 27.0033C8.64451 28.751 9.20346 30.3529 10.1849 31.5H7.95575C7.22238 30.8766 6.54055 30.1959 5.91669 29.4653C5.84006 27.9344 6.79233 26.0065 7.90192 24.3402Z" fill="#B9B29D"/>
<path d="M11.7839 6.1875C11.8046 6.31383 11.8292 6.44783 11.8564 6.58905C11.9345 6.99376 12.039 7.4568 12.169 7.96234C12.2667 8.342 12.3788 8.74561 12.5046 9.16644C13.1989 11.4886 14.3144 14.3345 15.7731 16.5696C16.2256 17.263 16.7117 17.8974 17.2277 18.4395C17.3096 18.5255 17.3924 18.6092 17.476 18.6905C17.6177 18.8285 17.7616 18.9596 17.9077 19.0827C18.3831 19.4831 18.881 19.8013 19.4002 20.0138L19.8946 20.0182L27.2637 20.0923C27.5217 19.8939 27.7787 19.7405 28.03 19.6271C28.045 19.6203 28.06 19.6138 28.075 19.6073C28.1442 19.5773 28.2128 19.5496 28.281 19.5255C28.342 19.5039 28.4028 19.4853 28.4628 19.4683C28.4831 19.4626 28.5031 19.4565 28.5233 19.4513C28.5368 19.4478 28.5505 19.4452 28.5639 19.442C28.5919 19.4351 28.6196 19.428 28.6474 19.4222C28.6889 19.4134 28.7301 19.4058 28.771 19.3991L28.8666 19.3859L28.871 19.3854C28.9341 19.3776 28.9964 19.3723 29.0577 19.3694C29.0737 19.3687 29.0897 19.3677 29.1055 19.3672C29.1681 19.3656 29.2296 19.3668 29.2901 19.37C29.2995 19.3705 29.3088 19.371 29.3181 19.3716C29.3492 19.3737 29.3799 19.3766 29.4104 19.3799C29.4128 19.3801 29.4152 19.3802 29.4175 19.3804C29.4822 19.3876 29.5454 19.3975 29.6071 19.4101C29.6131 19.4113 29.6192 19.4127 29.6252 19.4139C29.6504 19.4193 29.6752 19.4253 29.6999 19.4315C29.7081 19.4336 29.7164 19.4354 29.7246 19.4376C29.7495 19.4442 29.7739 19.4515 29.7982 19.459C29.8052 19.4611 29.8122 19.4634 29.8191 19.4656C29.8409 19.4726 29.8626 19.4799 29.8839 19.4875C29.8953 19.4917 29.9067 19.4959 29.918 19.5002C29.9345 19.5065 29.9507 19.5133 29.9669 19.52C29.9793 19.5251 29.9919 19.5299 30.0042 19.5353C30.1143 19.5838 30.2166 19.6418 30.3102 19.7078C30.3144 19.7108 30.3187 19.7136 30.3228 19.7166C31.2248 20.3651 31.2873 21.7764 29.4604 22.7532C29.4604 22.7532 28.5395 24.0932 26.577 24.7868C26.5474 24.7973 26.5176 24.8079 26.4875 24.8181C26.4536 24.8296 26.4192 24.84 26.3848 24.8511C26.354 24.8609 26.3231 24.8707 26.2919 24.8802C26.2352 24.8975 26.1777 24.9141 26.1194 24.9302C26.0721 24.9433 26.0244 24.9563 25.9761 24.9686C25.951 24.975 25.9257 24.9812 25.9003 24.9873C25.854 24.9985 25.8074 25.0093 25.7602 25.0197C25.724 25.0277 25.6876 25.0358 25.6509 25.0433C25.5883 25.0561 25.525 25.0678 25.4608 25.079C25.4284 25.0847 25.3958 25.0902 25.363 25.0955C25.3056 25.1048 25.2476 25.1133 25.1889 25.1213C25.1576 25.1256 25.1261 25.13 25.0944 25.134C25.0143 25.1439 24.933 25.1534 24.8505 25.1609C24.7591 25.1692 24.6674 25.1791 24.5753 25.19C24.3056 25.2219 24.0332 25.2654 23.759 25.3191C23.6865 25.3333 23.6138 25.3484 23.541 25.3641C22.7993 25.5239 22.0464 25.7601 21.2997 26.0645C21.0457 26.1681 20.7925 26.2795 20.5406 26.3985C20.5256 26.4056 20.5106 26.4128 20.4955 26.4199C20.1143 26.6015 19.7361 26.7999 19.364 27.0148C17.9944 27.8062 16.7024 28.8162 15.6077 29.9872C15.4769 30.1272 15.3403 30.2503 15.2018 30.3596C15.1747 30.381 15.1473 30.4015 15.1199 30.4217C15.0934 30.4413 15.067 30.4604 15.0403 30.4788C15.0194 30.4932 14.9981 30.5068 14.9771 30.5206C14.9276 30.553 14.8784 30.5842 14.8282 30.6129C14.8135 30.6213 14.7986 30.6295 14.7838 30.6376C14.6749 30.6972 14.565 30.7474 14.4542 30.7892C14.4478 30.7916 14.4413 30.794 14.4349 30.7963C12.9335 31.3484 11.3054 30.2637 10.7765 27.4021C10.7599 27.313 10.7436 27.2222 10.7292 27.1296L10.6776 26.7451C10.6747 26.72 10.6713 26.695 10.6683 26.6699C10.6326 26.3736 10.5884 26.0782 10.5375 25.7838C10.527 25.7228 10.5169 25.6618 10.5057 25.6009C10.4585 25.3436 10.404 25.0876 10.3464 24.8324C10.3194 24.7134 10.2925 24.5944 10.2634 24.4759C10.2152 24.2791 10.1639 24.0832 10.1102 23.8881C9.96242 23.3527 9.79518 22.8239 9.61194 22.3044C9.43984 21.8165 9.25479 21.3359 9.05878 20.8663L9.05823 20.8674C8.74534 20.1179 8.40687 19.3942 8.05737 18.7048C6.76943 16.164 5.33491 14.0876 4.5 12.8908C4.76977 10.3128 6.65826 9.2807 6.65826 9.2807C7.18052 10.3739 8.1087 11.3816 8.33698 11.256C8.56523 11.1304 8.52912 10.8904 8.00684 9.79706C7.85189 9.47271 7.73717 9.02285 7.46741 8.50726C7.73718 8.24868 8.27699 7.73304 8.81653 7.73383C9.12436 8.53531 9.17629 9.09357 9.35596 9.50262C9.99029 10.9478 10.512 11.7339 10.8452 12.0048C10.8903 12.0415 10.9319 12.0686 10.9698 12.0866C10.9771 12.09 10.9843 12.0926 10.9913 12.0954C10.9975 12.0979 11.0034 12.1006 11.0094 12.1025C11.0585 12.1187 11.0997 12.1188 11.1341 12.1014C11.3139 12.0104 11.5969 11.6222 11.4285 10.6859V10.687C11.3968 10.5105 11.3485 10.3147 11.2813 10.0975C11.2052 9.85337 11.1059 9.58185 10.9742 9.2818C10.9281 9.17668 10.8535 9.01048 10.7677 8.81213C10.7305 8.7261 10.6917 8.6338 10.6518 8.53802C10.6457 8.52341 10.6392 8.50885 10.6331 8.49408C10.6038 8.42339 10.5756 8.35042 10.5463 8.2771C10.5293 8.23436 10.5114 8.1917 10.4947 8.14856C10.4895 8.13515 10.4839 8.12189 10.4788 8.10846V8.10626C10.3092 7.66459 10.1651 7.21799 10.1651 6.96039C10.3924 6.52537 10.8112 6.27526 11.4214 6.20728L11.4241 6.20673C11.476 6.20099 11.5293 6.19663 11.584 6.19354C11.5906 6.19315 11.5971 6.19225 11.6038 6.19189C11.6622 6.18895 11.7224 6.18746 11.7839 6.1875Z" fill="#B9B29D"/>
<path d="M31.5 24.3023C29.5998 27.0674 27.0713 28.9038 24.4852 29.4994C21.0769 30.2844 25.2754 29.6923 22.9971 28.4057C22.7783 28.2821 22.5427 28.1777 22.2935 28.0898C23.2402 27.7175 24.1802 27.4816 25.0543 27.4021C27.1195 27.2143 28.6582 26.4183 29.684 25.6525C30.1935 25.2721 30.5783 24.8987 30.8447 24.6072C30.882 24.5663 30.9161 24.5257 30.949 24.488C31.1408 24.3668 31.325 24.2357 31.5 24.0958V24.3023Z" fill="#B9B29D"/>
<path d="M6.52313 20.6917C6.85363 21.4013 7.16259 22.1383 7.435 22.8933C6.27195 24.5186 5.36095 26.2903 4.97791 28.2684C4.81306 28.0388 4.65407 27.8047 4.5 27.5674V22.3671C5.10795 21.9447 5.73039 21.4743 6.20178 21.0218C6.31053 20.9174 6.41682 20.8063 6.52313 20.6917Z" fill="#B9B29D"/>
<path d="M31.5 17.7863C30.8572 17.3575 30.1141 17.1413 29.3423 17.1205C30.1077 16.3219 30.8496 15.5535 31.5 14.9068V17.7863Z" fill="#B9B29D"/>
<path d="M31.5 6.90491C29.7878 8.16904 27.2216 10.208 25.3378 10.7254C22.8635 11.4049 21.0292 12.4125 21.3673 12.3717C21.7067 12.3304 21.8926 12.2752 22.2297 12.2184C22.569 12.1609 27.4292 10.5832 31.2819 11.968C27.6005 11.7627 22.4832 14.4232 20.9938 16.474C20.6705 16.9191 20.4596 17.353 20.3154 17.7726L19.9259 17.7687C19.4412 17.4867 18.8799 16.9859 18.2741 16.2081C17.7243 15.5023 17.2001 14.6492 16.7151 13.7098C17.4858 11.6974 18.5318 9.87235 20.2209 9.1972C23.8121 7.76202 28.8542 6.37661 31.5 5.86011V6.90491Z" fill="#B9B29D"/>
<path d="M9 1H1V9H0V0H9V1Z" fill="#B9B29D"/>
<path d="M36 9H35V1H27V0H36V9Z" fill="#B9B29D"/>
<path d="M20.0429 4.5C18.4419 6.25705 16.2972 7.00966 14.491 7.93707C14.2573 7.09626 14.0931 6.36514 14.0043 5.8233L13.9186 5.30365C15.6027 5.24031 17.4212 5.80164 19.6622 4.5H20.0429Z" fill="#B9B29D"/>
</svg>
