<svg width="36" height="36" viewBox="0 0 36 36" fill="none" xmlns="http://www.w3.org/2000/svg">
<path d="M1 35H9.04779L9 36H0V27L1 27.0214V35Z" fill="#B9B29D"/>
<path d="M36 36H27V35H35V27H36V36Z" fill="#B9B29D"/>
<path d="M28.0975 24.3402C29.2072 26.0065 30.1599 27.9343 30.0833 29.4653C29.4595 30.1959 28.7776 30.8766 28.0443 31.5H25.8151C26.7965 30.3529 27.3555 28.751 27.5576 27.0033C27.661 26.1087 27.8493 25.2167 28.0975 24.3402Z" fill="#B9B29D"/>
<path d="M24.2161 6.1875C24.2774 6.18746 24.3374 6.18897 24.3957 6.19189C24.4016 6.19221 24.4074 6.19265 24.4133 6.19299C25.1137 6.23196 25.5877 6.48711 25.8349 6.96039C25.8349 7.21825 25.6899 7.66526 25.5201 8.10736L25.5207 8.10846C25.5176 8.11658 25.5139 8.12451 25.5108 8.13263C25.4921 8.18103 25.4728 8.22917 25.4537 8.2771C25.4248 8.34955 25.3964 8.42144 25.3674 8.49133C25.2282 8.82725 25.0951 9.12373 25.0258 9.2818C24.8811 9.61131 24.7744 9.906 24.6962 10.1684C24.6775 10.2314 24.6605 10.2925 24.6451 10.3519C24.6378 10.3798 24.6308 10.4072 24.6242 10.4343C24.6029 10.5226 24.5853 10.6068 24.5709 10.687C24.403 11.6224 24.6862 12.0105 24.8659 12.1014C24.9001 12.1187 24.9414 12.1183 24.9901 12.1025C25.0383 12.0868 25.0928 12.0547 25.1543 12.0048L25.1537 12.0059C25.4869 11.7359 26.0089 10.9495 26.644 9.50262C26.8237 9.09357 26.8756 8.53531 27.1835 7.73383C27.723 7.73304 28.2628 8.24868 28.5326 8.50726C28.2628 9.02285 28.1481 9.47271 27.9932 9.79706C27.4709 10.8904 27.4348 11.1304 27.663 11.256C27.8913 11.3816 28.8195 10.3739 29.3417 9.2807C29.3417 9.2807 31.2302 10.3128 31.5 12.8908C30.551 14.2511 28.8269 16.7476 27.4246 19.771C27.2585 20.1295 27.0966 20.4952 26.9412 20.8674L26.9407 20.8663C26.7445 21.3362 26.5597 21.8168 26.3875 22.305C26.2771 22.6182 26.1731 22.9349 26.075 23.2542C25.8388 24.0228 25.6398 24.8072 25.4943 25.6009C25.4831 25.6618 25.4725 25.7228 25.4619 25.7838C25.4067 26.1031 25.3596 26.4237 25.3224 26.7451C24.9356 30.0905 23.1819 31.385 21.5728 30.7996C21.5616 30.7956 21.5504 30.7918 21.5392 30.7875C21.4329 30.7471 21.3274 30.6983 21.2228 30.6414C21.203 30.6307 21.1832 30.6198 21.1635 30.6085C21.1284 30.5882 21.0934 30.5674 21.0586 30.5453C21.0227 30.5226 20.9871 30.4986 20.9515 30.4739C20.9298 30.4588 20.9082 30.4435 20.8867 30.4277C20.8502 30.401 20.8139 30.3731 20.7779 30.3442C20.6463 30.2388 20.5169 30.1204 20.3923 29.9872C19.614 29.1547 18.7358 28.4037 17.8011 27.7548C17.6813 27.6715 17.5603 27.5902 17.4386 27.5103C17.1781 27.3394 16.9138 27.1762 16.6465 27.0214C16.0067 26.6512 15.3498 26.3287 14.6882 26.0596C14.1532 25.842 13.6152 25.6597 13.0803 25.5152C13.0066 25.4953 12.933 25.476 12.8595 25.4575C12.7307 25.4252 12.6021 25.3952 12.4739 25.3674C12.3959 25.3505 12.3181 25.3344 12.2404 25.3191C11.8728 25.2472 11.5085 25.1935 11.1495 25.1609C11.0664 25.1533 10.9846 25.144 10.9039 25.134C10.8734 25.1302 10.843 25.126 10.8127 25.1219C10.7507 25.1134 10.6894 25.1038 10.6287 25.0939C10.6047 25.09 10.5806 25.0865 10.5568 25.0823C10.4864 25.0701 10.417 25.0573 10.3486 25.0433C10.3118 25.0358 10.2755 25.0277 10.2393 25.0197C10.1921 25.0093 10.1454 24.9985 10.0992 24.9873C10.0738 24.9812 10.0485 24.975 10.0234 24.9686C9.95386 24.951 9.88528 24.933 9.81793 24.9137C9.78595 24.9045 9.75439 24.8946 9.7229 24.8851C9.6854 24.8738 9.6482 24.8623 9.61139 24.8505C9.58022 24.8405 9.54923 24.8306 9.51855 24.8203C9.47647 24.8061 9.43502 24.7911 9.39386 24.7764C9.27465 24.7336 9.15926 24.6888 9.04779 24.6418C9.02951 24.6341 9.01148 24.626 8.99341 24.6182C7.32595 23.897 6.53961 22.7532 6.53961 22.7532C4.90751 21.8805 4.78324 20.661 5.41846 19.9484C5.42208 19.9444 5.42577 19.9404 5.42944 19.9363C5.44189 19.9227 5.45434 19.909 5.46735 19.8957C5.47594 19.8869 5.48488 19.8785 5.49371 19.8699C5.50732 19.8566 5.52129 19.8437 5.53546 19.8309C5.54209 19.8249 5.54903 19.8192 5.55579 19.8133C5.57235 19.7988 5.58904 19.7843 5.60632 19.7704C5.61404 19.7642 5.62208 19.7584 5.62994 19.7523C5.6427 19.7424 5.65527 19.7322 5.6684 19.7227C5.68133 19.7132 5.69467 19.7043 5.70795 19.6952C5.72214 19.6855 5.73621 19.6754 5.75079 19.6661C5.75715 19.662 5.76359 19.658 5.77002 19.654C5.78965 19.6418 5.8096 19.6298 5.8299 19.6183C5.83608 19.6148 5.84232 19.6113 5.84857 19.6078C5.87018 19.5959 5.89217 19.5844 5.91449 19.5732C5.92027 19.5704 5.92624 19.5678 5.93207 19.565C5.95113 19.5557 5.97019 19.5462 5.98975 19.5375C6.00618 19.5302 6.02296 19.5235 6.03973 19.5167C6.05316 19.5112 6.06674 19.506 6.08038 19.5007C6.09274 19.496 6.10521 19.4915 6.11774 19.487C6.137 19.4801 6.15631 19.473 6.17596 19.4667C6.1874 19.463 6.19901 19.4597 6.21057 19.4562C6.2626 19.4405 6.31583 19.4262 6.37042 19.4145C6.37988 19.4125 6.38946 19.4109 6.39899 19.409C6.42366 19.404 6.44854 19.3994 6.47369 19.3953C6.4841 19.3936 6.49452 19.3919 6.505 19.3903C6.52592 19.3872 6.54695 19.384 6.56818 19.3815C6.5869 19.3793 6.60579 19.3778 6.62476 19.376C6.64278 19.3744 6.6609 19.3729 6.67914 19.3716C6.69372 19.3707 6.70838 19.3701 6.72308 19.3694C6.74311 19.3685 6.76325 19.3677 6.78351 19.3672C6.80626 19.3668 6.82914 19.367 6.85217 19.3672C6.86531 19.3674 6.8785 19.3669 6.89172 19.3672C6.91267 19.3678 6.93372 19.3689 6.9549 19.37C6.97221 19.3709 6.98963 19.3715 7.00708 19.3727C7.0398 19.3751 7.07276 19.3783 7.10596 19.3821C7.10817 19.3823 7.11034 19.3829 7.11255 19.3832C7.13479 19.3858 7.15712 19.3888 7.17957 19.392C7.23732 19.4002 7.2958 19.4102 7.3548 19.4227C7.3793 19.4279 7.4037 19.4344 7.42841 19.4403C7.44444 19.4442 7.46063 19.4477 7.47675 19.4518C7.49667 19.457 7.51658 19.4627 7.53662 19.4683C7.55757 19.4743 7.57872 19.48 7.59979 19.4865C7.62031 19.4928 7.64069 19.4999 7.66132 19.5068C7.68022 19.513 7.69945 19.5187 7.71844 19.5255C7.78667 19.5496 7.85519 19.5773 7.92444 19.6073C7.93941 19.6138 7.95447 19.6203 7.96948 19.6271C8.22088 19.7406 8.47811 19.8938 8.73633 20.0923L16.1049 20.0182L16.5998 20.0138C16.6762 19.9825 16.7517 19.9479 16.8272 19.9122C17.2611 19.7066 17.6795 19.4281 18.0818 19.0904C18.2313 18.9649 18.3786 18.8316 18.5235 18.6905C18.607 18.6092 18.6898 18.5255 18.7718 18.4395C19.2877 17.8974 19.7733 17.263 20.2258 16.5696C21.672 14.354 22.7811 11.5386 23.4767 9.22742C23.7452 8.33515 23.9521 7.51818 24.093 6.84009C24.1108 6.75411 24.1279 6.67043 24.1436 6.58905C24.1708 6.44784 24.1954 6.31383 24.2161 6.1875Z" fill="#B9B29D"/>
<path d="M4.5 24.0958C4.67504 24.2357 4.85917 24.3668 5.05096 24.488C5.08393 24.5257 5.11796 24.5663 5.15533 24.6072C5.42169 24.8987 5.80649 25.2721 6.31604 25.6525C7.34178 26.4183 8.88051 27.2143 10.9457 27.4021C11.8196 27.4816 12.7594 27.7176 13.706 28.0898C13.457 28.1776 13.2216 28.2822 13.0029 28.4057C10.7246 29.6923 14.9231 30.2844 11.5148 29.4994C8.92874 28.9038 6.40016 27.0674 4.5 24.3023V24.0958Z" fill="#B9B29D"/>
<path d="M29.4763 20.6917C29.5827 20.8064 29.6894 20.9173 29.7982 21.0218C30.2696 21.4743 30.892 21.9447 31.5 22.3671V27.5674C31.3459 27.8047 31.1869 28.0388 31.0221 28.2684C30.639 26.2902 29.7276 24.5187 28.5645 22.8933C28.8369 22.1383 29.1458 21.4013 29.4763 20.6917Z" fill="#B9B29D"/>
<path d="M4.5 14.9068C5.15033 15.5534 5.89181 16.322 6.65717 17.1205C5.88554 17.1414 5.14263 17.3576 4.5 17.7863V14.9068Z" fill="#B9B29D"/>
<path d="M4.5 5.86011C7.14583 6.37661 12.1879 7.76202 15.7791 9.1972C17.4682 9.87233 18.5136 11.6974 19.2843 13.7098C18.7994 14.6491 18.2756 15.5024 17.7259 16.2081C17.1201 16.9859 16.5588 17.4867 16.0741 17.7687L15.6841 17.7726C15.5399 17.353 15.3294 16.9191 15.0062 16.474C13.5168 14.4232 8.39951 11.7627 4.71808 11.968C8.5708 10.5832 13.431 12.1609 13.7703 12.2184C14.1074 12.2752 14.2933 12.3304 14.6327 12.3717C14.9708 12.4125 13.1365 11.4049 10.6622 10.7254C8.77836 10.208 6.21221 8.16904 4.5 6.90491V5.86011Z" fill="#B9B29D"/>
<path d="M8.99341 1H1V9H0V0H9L8.99341 1Z" fill="#B9B29D"/>
<path d="M36 9H35V1H27V0H36V9Z" fill="#B9B29D"/>
<path d="M16.3378 4.5C18.5785 5.8015 20.3969 5.24045 22.0809 5.30365L21.9957 5.8233C21.9069 6.36517 21.7422 7.0962 21.5085 7.93707C19.7023 7.00976 17.558 6.25691 15.9571 4.5H16.3378Z" fill="#B9B29D"/>
</svg>
