<svg width="36" height="36" viewBox="0 0 36 36" fill="none" xmlns="http://www.w3.org/2000/svg">
<path d="M1 35H9V36H0V27H1V35Z" fill="#444856"/>
<path d="M36 36H27V35H35V27H36V36Z" fill="#444856"/>
<path d="M30.876 21.5771C29.3052 23.6503 30.2661 25.5227 30.7524 26.5128C30.957 26.9293 31.2477 27.1965 31.5 27.4477V28.9512C30.8163 29.8735 30.0477 30.7271 29.2061 31.5H26.103C25.6923 31.3258 25.2778 31.1189 24.8681 30.8903C25.7088 30.3397 26.4502 29.6648 26.9984 28.877C27.4574 28.898 28.0177 28.4827 28.1541 27.5718C28.2225 27.1146 28.3051 26.5192 28.4277 25.8799C28.4521 25.8106 28.4776 25.7423 28.5013 25.675C28.8684 24.6313 29.2814 23.4145 30.0125 22.1199C30.263 21.8767 30.5485 21.6885 30.876 21.5771Z" fill="#444856"/>
<path d="M15.3831 6.19299C15.4369 6.19605 15.4915 6.19988 15.5468 6.20508C15.6571 6.21531 15.7701 6.23014 15.8857 6.24738C17.3847 9.60338 18.6333 12.9526 19.493 16.2922C20.0052 16.0552 20.5198 15.8207 21.0339 15.5858C21.095 14.7664 21.1126 13.9606 21.1036 13.1638C21.0955 12.4426 21.0638 11.728 21.0218 11.0182C20.9441 9.71782 20.8291 8.43071 20.7405 7.13617C21.1096 6.85813 21.7072 6.65113 22.3165 6.64233C22.5657 6.63879 22.8077 6.66622 23.0306 6.72089C23.0498 6.7256 23.0689 6.7306 23.0878 6.73572C23.1076 6.74107 23.1271 6.74695 23.1465 6.75275C23.1683 6.75924 23.19 6.76548 23.2114 6.77252C23.2459 6.78389 23.2797 6.79601 23.313 6.80878L23.3328 6.81647C23.342 6.82013 23.3511 6.82423 23.3602 6.828C23.3841 6.83782 23.4074 6.84822 23.4305 6.85876C23.4481 6.86678 23.4656 6.8745 23.4827 6.88293C23.5103 6.89654 23.5371 6.91111 23.5635 6.92578C23.5704 6.92962 23.5776 6.93286 23.5844 6.93677C23.6199 6.95715 23.654 6.97872 23.6871 7.00104C23.6934 7.00532 23.6995 7.00987 23.7057 7.01422C23.7304 7.03139 23.7541 7.04926 23.7772 7.0675C23.7875 7.0757 23.7979 7.08381 23.8079 7.09222C23.8362 7.11589 23.8636 7.13995 23.8892 7.16528C23.9807 8.34323 24.0426 9.55665 24.0754 10.7836C24.0758 10.7983 24.0767 10.8135 24.0771 10.8281C24.0791 10.9041 24.0803 10.9801 24.082 11.0561C24.086 11.2276 24.0897 11.3994 24.0925 11.5714C24.0939 11.6592 24.0952 11.7471 24.0963 11.835C24.0984 11.9973 24.1003 12.1598 24.1013 12.3223C24.1147 14.4231 24.0402 16.537 23.8744 18.557C23.8594 18.7445 23.8436 18.9315 23.8266 19.1173C23.134 20.0539 22.4055 20.9987 21.8425 22.0869L21.6898 22.3945C21.4478 22.9035 21.2445 23.4451 21.0987 24.032C21.0363 24.2836 20.9835 24.5433 20.9438 24.8126L21.9628 24.962C21.9907 24.7725 22.026 24.5879 22.0677 24.4078C22.0728 24.3855 22.0783 24.3634 22.0836 24.3413C22.1216 24.1841 22.1646 24.0302 22.2122 23.8793C22.4787 23.0327 22.8885 22.2797 23.3646 21.5524C23.3779 21.5322 23.3908 21.5117 23.4042 21.4915C23.4477 21.4256 23.4921 21.3603 23.5366 21.2948C23.6211 21.1703 23.7071 21.0461 23.7947 20.9224L24.2128 20.3423C24.4889 19.9652 24.7716 19.5847 25.0499 19.1915C25.1328 19.0814 25.2159 18.9726 25.2993 18.8657C25.325 18.8329 25.3511 18.8005 25.3768 18.7679C25.4231 18.7092 25.4693 18.6509 25.5157 18.5933C25.5589 18.5397 25.6027 18.4871 25.6459 18.4345C25.6974 18.3719 25.7487 18.3099 25.8003 18.2488C25.8143 18.2322 25.828 18.2154 25.842 18.1989C25.9073 18.122 25.9729 18.0467 26.0381 17.9725C26.0588 17.9491 26.079 17.9254 26.0997 17.9022C26.1528 17.8425 26.206 17.7838 26.259 17.7259C26.2876 17.6947 26.3161 17.6637 26.3447 17.6331C26.4117 17.561 26.479 17.4909 26.5457 17.4221C26.556 17.4115 26.5662 17.4008 26.5765 17.3903C27.2523 16.6981 27.9057 16.1799 28.4755 15.9368C29.0161 15.7062 29.4273 15.6959 29.8328 15.9126C30.1903 16.1035 30.578 16.5442 30.9375 17.3079C27.994 20.1476 27.0479 23.0254 26.3787 24.928C26.0596 25.8351 25.7678 26.6606 25.2059 27.5125C25.1753 27.5589 25.1429 27.6046 25.1098 27.6504C25.1029 27.6599 25.0959 27.6694 25.0889 27.679C25.0611 27.7167 25.0327 27.7543 25.0032 27.7916C24.9939 27.8034 24.9842 27.815 24.9747 27.8267C24.9496 27.8578 24.924 27.8888 24.8978 27.9196C24.8863 27.933 24.8748 27.9463 24.8632 27.9597C24.5531 28.3148 24.1691 28.6435 23.7354 28.9385C23.7106 28.9554 23.6858 28.9725 23.6607 28.9891C22.8901 29.4994 21.9688 29.9001 21.0168 30.1349C21.0103 30.1366 21.0037 30.1383 20.9971 30.1399C20.9501 30.1514 20.903 30.1622 20.8559 30.1729C20.7617 30.1945 20.6675 30.2153 20.573 30.2333C20.4613 30.2545 20.3493 30.2723 20.2379 30.2888C20.2192 30.2915 20.2006 30.2944 20.1819 30.297C20.096 30.3091 20.0103 30.3196 19.9248 30.3289C19.8922 30.3324 19.8596 30.3362 19.827 30.3393C19.7286 30.3487 19.6307 30.3563 19.5331 30.3618C19.5022 30.3636 19.4712 30.3643 19.4403 30.3657C19.371 30.3687 19.302 30.3711 19.2332 30.3723C19.0115 30.376 18.7932 30.3701 18.5795 30.353C18.5753 30.3527 18.5711 30.3528 18.5669 30.3525C17.4287 30.2589 16.427 29.8666 15.7852 29.1434C15.5639 28.8941 15.2883 28.6047 14.9886 28.2975C14.8092 28.1135 14.6205 27.9229 14.43 27.7311C13.8003 27.0986 13.144 26.4514 12.6881 25.9678C11.3365 24.5343 9.40971 22.9468 7.80524 21.7222C7.003 21.1098 6.28247 20.5902 5.75464 20.2286C5.49077 20.0479 5.27622 19.9071 5.11469 19.8094C5.10404 19.803 5.09626 19.7996 5.08612 19.7935C5.0852 19.7866 5.08479 19.7796 5.08392 19.7726C5.07733 19.7196 5.07236 19.6661 5.06909 19.6122C5.06787 19.593 5.06662 19.5738 5.0658 19.5546C5.06416 19.5128 5.06393 19.4708 5.06415 19.4288C5.06505 18.9948 5.16379 18.5522 5.35089 18.1791C5.59108 17.7001 5.94535 17.3737 6.32977 17.2441C8.29768 18.4138 10.2219 19.6862 12.0547 21.3898C12.3713 20.9901 12.7124 20.6173 13.0743 20.2676C11.6305 17.5137 9.84584 15.1547 7.83984 13.0666C7.7648 12.9885 7.68973 12.9105 7.61407 12.8331C7.33841 12.5513 7.05927 12.2737 6.77582 12.0015C6.78607 11.939 6.79975 11.8758 6.81702 11.8125C6.82243 11.7927 6.82907 11.7731 6.83514 11.7532C6.83909 11.7403 6.84246 11.7271 6.84668 11.7142C6.85267 11.6958 6.85937 11.6776 6.86591 11.6592C6.87059 11.6461 6.87523 11.6328 6.88019 11.6197C6.88614 11.6039 6.89253 11.5882 6.89886 11.5724C6.91745 11.5262 6.93749 11.48 6.95929 11.434C6.98457 11.3808 7.0118 11.3277 7.04114 11.2753C7.04832 11.2624 7.05569 11.2496 7.06311 11.2368C7.09081 11.1891 7.12019 11.1418 7.151 11.0951C7.15963 11.082 7.16851 11.0691 7.17737 11.0561C7.21047 11.0076 7.24498 10.9597 7.28119 10.9127C7.28859 10.9031 7.29619 10.8937 7.30371 10.8842C7.34118 10.8368 7.3798 10.79 7.42017 10.7446C7.42861 10.7351 7.43742 10.726 7.44598 10.7166C7.51505 10.6409 7.58788 10.5684 7.66406 10.5002C7.73258 10.4388 7.80312 10.3813 7.875 10.3282C7.88229 10.3229 7.88966 10.3176 7.89697 10.3123C7.9269 10.2907 7.95678 10.2693 7.98706 10.2491C7.99379 10.2447 8.00064 10.2404 8.00739 10.236C8.03255 10.2195 8.05787 10.2036 8.08319 10.1882C8.10981 10.1719 8.13668 10.1566 8.16339 10.1415C8.18142 10.1313 8.19919 10.1209 8.21722 10.1113C8.2724 10.0817 8.32771 10.055 8.38257 10.0305C8.40069 10.0224 8.41891 10.015 8.43695 10.0074C8.45221 10.0011 8.46736 9.99473 8.48254 9.98877C8.70049 9.90328 8.90998 9.85945 9.08899 9.86133C10.2402 11.0286 11.3282 12.2445 12.3382 13.5225C12.3931 13.592 12.448 13.6614 12.5024 13.7313C12.5776 13.8277 12.6523 13.9246 12.7266 14.0219C12.7538 14.0575 12.7808 14.0933 12.8079 14.129C12.9088 14.262 13.0091 14.3955 13.1083 14.53C13.2001 14.6543 13.2911 14.7791 13.3813 14.9046C13.4138 14.9497 13.4458 14.995 13.478 15.0403C13.555 15.1484 13.6313 15.257 13.7071 15.366C13.7697 15.4562 13.832 15.5466 13.8939 15.6374C13.9444 15.7115 13.9944 15.7859 14.0444 15.8604C14.0971 15.939 14.1499 16.0175 14.202 16.0966C14.4183 16.4249 14.6293 16.7573 14.8348 17.0942C14.8782 17.1652 14.9211 17.2365 14.9639 17.3079C15.0199 17.4011 15.0753 17.4947 15.1304 17.5886C15.1739 17.6628 15.2176 17.7369 15.2606 17.8116C15.2773 17.8406 15.2945 17.8693 15.3111 17.8984L15.5649 18.3499C15.9461 18.1103 16.3378 17.8823 16.7371 17.6627C15.6959 14.1062 14.3674 10.7145 12.6859 7.52893C13.1835 6.93595 13.6807 6.54084 14.2581 6.34076C14.2816 6.3326 14.3051 6.32465 14.3289 6.31714C14.3544 6.3091 14.38 6.30136 14.4058 6.29407C14.4277 6.28788 14.4497 6.28214 14.4717 6.27649C14.4944 6.27072 14.517 6.26467 14.5399 6.25946C14.5826 6.24969 14.6258 6.24091 14.6695 6.23309C14.6848 6.23037 14.7002 6.22789 14.7156 6.2254C14.7479 6.22018 14.7806 6.21584 14.8134 6.21167C14.8331 6.20918 14.8529 6.20664 14.8727 6.20453C14.9212 6.19937 14.9702 6.19535 15.02 6.19244C15.0879 6.18858 15.1563 6.18657 15.2243 6.1875L15.3831 6.19299Z" fill="#444856"/>
<path d="M4.56042 22.1391C5.04501 22.4735 5.70285 22.9484 6.43964 23.5107C6.95335 23.9028 7.49111 24.3277 8.02606 24.7654C8.50881 25.4285 9.0909 25.9808 9.86682 26.3529C10.1449 26.6085 10.411 26.8621 10.6595 27.1104C8.98738 27.5751 6.36998 27.517 5.39978 26.3386C4.27833 24.9758 4.4759 23.6364 4.56042 22.1391Z" fill="#444856"/>
<path d="M26.243 8.69183C27.5562 10.1714 28.4372 11.822 28.8029 13.4912C28.8059 13.5051 28.8092 13.5193 28.8122 13.533C28.3822 13.5837 27.9719 13.7052 27.5927 13.8669C27.151 14.0555 26.7275 14.3145 26.3315 14.6074C26.3778 12.6274 26.3467 10.6279 26.243 8.69183Z" fill="#444856"/>
<path d="M9 1H1V9H0V0H9V1Z" fill="#444856"/>
<path d="M36 9H35V1H26.9984L27 0H36V9Z" fill="#444856"/>
</svg>
