<svg width="36" height="36" viewBox="0 0 36 36" fill="none" xmlns="http://www.w3.org/2000/svg">
<path d="M1 35H9.0011L9 36H0V27H1V35Z" fill="#B9B29D"/>
<path d="M36 36H27V35H35V27H36V36Z" fill="#B9B29D"/>
<path d="M5.12402 21.5771C5.45138 21.6884 5.73652 21.8769 5.987 22.1199C6.71814 23.4146 7.13157 24.6306 7.49872 25.6745C7.52237 25.7417 7.54734 25.8107 7.57178 25.8799C7.69436 26.5193 7.77745 27.1145 7.84589 27.5718C7.98225 28.4823 8.54214 28.8976 9.0011 28.877C9.54917 29.6648 10.2908 30.3397 11.1313 30.8903C10.7218 31.1188 10.3076 31.3259 9.89703 31.5H6.79395C5.95232 30.7271 5.18368 29.8736 4.5 28.9512V27.4477C4.75234 27.1965 5.04303 26.9293 5.24762 26.5128C5.73387 25.5227 6.69482 23.6503 5.12402 21.5771Z" fill="#B9B29D"/>
<path d="M20.7757 6.1875L20.98 6.19244C21.0296 6.19534 21.0784 6.19938 21.1267 6.20453C21.1466 6.20664 21.1663 6.20919 21.186 6.21167C21.2189 6.21584 21.2515 6.22017 21.2838 6.2254C21.2993 6.22789 21.3146 6.23037 21.33 6.23309C21.3727 6.24075 21.415 6.24938 21.4568 6.25891C21.4831 6.26484 21.509 6.27147 21.5349 6.27814C21.5527 6.28276 21.5705 6.28745 21.5881 6.29242C21.6173 6.30057 21.6462 6.30913 21.6749 6.31824C21.6876 6.32228 21.7002 6.32665 21.7128 6.33087C22.3027 6.52762 22.8081 6.926 23.3141 7.52893C21.6326 10.7145 20.3041 14.1062 19.2629 17.6627C19.5623 17.8274 19.8577 17.9964 20.1473 18.1719C20.2439 18.2304 20.3398 18.29 20.4351 18.3499C20.5402 18.1594 20.6475 17.9702 20.7559 17.7825C20.7824 17.7365 20.8094 17.6909 20.8361 17.6451C20.9062 17.5252 20.9768 17.4058 21.0482 17.287C21.0831 17.2289 21.1178 17.1707 21.1531 17.1129C21.3667 16.7623 21.586 16.4164 21.8112 16.0752C21.8351 16.0389 21.8596 16.0031 21.8837 15.967C21.974 15.8312 22.0651 15.696 22.1572 15.5616C22.1924 15.5103 22.2273 15.4589 22.2627 15.4078C22.3589 15.2691 22.4564 15.1314 22.5544 14.9941C22.5691 14.9736 22.5831 14.9526 22.5978 14.9321C22.713 14.7714 22.8294 14.6117 22.9471 14.4531C23.003 14.3778 23.0599 14.3033 23.1163 14.2284C23.1823 14.1409 23.248 14.0533 23.3146 13.9664C23.3745 13.8883 23.4354 13.8111 23.4959 13.7335C23.5591 13.6524 23.6227 13.5718 23.6865 13.4912C23.7403 13.4234 23.7933 13.3549 23.8475 13.2874C23.9173 13.2004 23.9884 13.1145 24.059 13.0281C24.1951 12.8614 24.3322 12.6956 24.4709 12.531C24.4968 12.5003 24.5224 12.4694 24.5484 12.4387C24.636 12.3354 24.724 12.2325 24.8126 12.13C24.8498 12.087 24.8873 12.0443 24.9247 12.0015C25.5627 11.2693 26.2254 10.5565 26.911 9.86133C27.0914 9.85944 27.3026 9.90417 27.5224 9.99097C27.5323 9.99487 27.5421 9.99897 27.5521 10.0031C27.5749 10.0124 27.5977 10.0224 27.6207 10.0327C27.675 10.057 27.7299 10.0831 27.7844 10.1124C27.8879 10.1678 27.9914 10.2321 28.0926 10.3046C28.1085 10.316 28.1241 10.328 28.1398 10.3398C28.1567 10.3524 28.1736 10.3651 28.1904 10.3782C28.2062 10.3906 28.2219 10.4033 28.2376 10.4161C28.2708 10.4433 28.3036 10.4712 28.3359 10.5002C28.412 10.5684 28.4845 10.641 28.5535 10.7166C28.562 10.726 28.5708 10.7351 28.5793 10.7446C28.6197 10.79 28.6583 10.8367 28.6957 10.8842C28.7033 10.8937 28.7109 10.9031 28.7183 10.9127C28.7545 10.9597 28.789 11.0076 28.8221 11.0561C28.8309 11.0691 28.8398 11.082 28.8484 11.0951C28.8793 11.1418 28.9086 11.1891 28.9363 11.2368C28.9438 11.2496 28.9511 11.2624 28.9583 11.2753C28.9877 11.3277 29.0149 11.3808 29.0402 11.434C29.0629 11.4819 29.0841 11.5298 29.1033 11.5779C29.1088 11.5917 29.1141 11.6054 29.1193 11.6191C29.1577 11.721 29.1882 11.823 29.2094 11.924C29.2148 11.9499 29.22 11.9757 29.2242 12.0015C28.9407 12.2737 28.6616 12.5513 28.3859 12.8331C28.3227 12.8978 28.2598 12.9629 28.197 13.0281C26.228 15.0717 24.4724 17.3755 23.04 20.055C23.0021 20.1258 22.9631 20.1963 22.9257 20.2676C22.9961 20.3356 23.0653 20.4047 23.1339 20.4747C23.4188 20.7638 23.6902 21.0678 23.9453 21.3898C25.7781 19.6862 27.7023 18.4138 29.6702 17.2441C30.0546 17.3737 30.4089 17.7001 30.6491 18.1791C30.842 18.5637 30.9407 19.0222 30.9353 19.4689C30.9351 19.4918 30.9344 19.5147 30.9337 19.5375C30.9326 19.5669 30.9313 19.5962 30.9293 19.6254C30.9261 19.6748 30.9221 19.7239 30.9161 19.7726C30.9152 19.7796 30.9148 19.7866 30.9139 19.7935C30.9037 19.7996 30.896 19.803 30.8853 19.8094C30.7238 19.9071 30.5092 20.0479 30.2454 20.2286C29.7175 20.5902 28.997 21.1098 28.1948 21.7222C26.5903 22.9468 24.6635 24.5343 23.3119 25.9678C22.4872 26.8426 21.0062 28.2517 20.2148 29.1434C19.5728 29.8669 18.5712 30.2585 17.4326 30.3519C17.4287 30.3522 17.4249 30.3527 17.421 30.353C17.2016 30.3706 16.9772 30.3761 16.7492 30.3717C16.6937 30.3707 16.6381 30.3691 16.5822 30.3668C16.5433 30.3651 16.5043 30.3641 16.4652 30.3618C16.3679 30.3562 16.2701 30.3487 16.1719 30.3393C16.1347 30.3357 16.0976 30.3313 16.0604 30.3272C15.9886 30.3193 15.9166 30.3102 15.8445 30.3003C15.8106 30.2956 15.7767 30.2911 15.7429 30.286C15.6378 30.2702 15.5324 30.2533 15.427 30.2333C15.34 30.2167 15.2533 30.1974 15.1666 30.1778C14.3685 29.9995 13.5861 29.7034 12.8897 29.3214C12.8728 29.3121 12.856 29.3028 12.8392 29.2934C12.6699 29.199 12.5058 29.0998 12.3481 28.9957C12.3117 28.9717 12.2761 28.947 12.2404 28.9226C11.6398 28.5105 11.1368 28.0322 10.7941 27.5125C10.2322 26.6606 9.94039 25.8351 9.62128 24.928C8.95209 23.0254 8.00595 20.1476 5.0625 17.3079C5.422 16.5442 5.80972 16.1035 6.16718 15.9126C6.57272 15.6959 6.98394 15.7062 7.52454 15.9368C8.09433 16.1799 8.74765 16.6981 9.42352 17.3903C9.43381 17.4008 9.44398 17.4115 9.45428 17.4221C9.5246 17.4946 9.59506 17.569 9.66577 17.6451C9.67897 17.6593 9.69211 17.6737 9.70532 17.688C9.77698 17.7657 9.84876 17.8452 9.92065 17.9264C9.9343 17.9418 9.9482 17.957 9.96185 17.9725C10.0194 18.0379 10.0768 18.1045 10.1343 18.1719C10.1675 18.2108 10.2006 18.25 10.2338 18.2895C10.2739 18.3373 10.3139 18.3858 10.3541 18.4345C10.3963 18.4858 10.4388 18.5372 10.481 18.5894C10.5293 18.6493 10.5772 18.7101 10.6254 18.7712C10.6503 18.8028 10.6758 18.8339 10.7007 18.8657C10.7841 18.9726 10.8672 19.0814 10.9501 19.1915C11.2284 19.5846 11.5112 19.9653 11.7872 20.3423L12.2053 20.9224C12.2945 21.0484 12.3818 21.1751 12.4678 21.3019C13.0177 22.1117 13.4947 22.9441 13.7917 23.8947C13.8096 23.952 13.8273 24.0096 13.8439 24.0677C13.85 24.0893 13.8561 24.1109 13.862 24.1326C13.8814 24.2029 13.8996 24.274 13.9169 24.3457C13.9216 24.3651 13.9262 24.3845 13.9307 24.4039C13.9594 24.5275 13.9858 24.6529 14.0081 24.7808L14.0372 24.962L15.0562 24.8126C15.0165 24.5433 14.9637 24.2836 14.9013 24.032C14.7255 23.3253 14.4663 22.6846 14.157 22.0869V22.0858C13.9404 21.6674 13.6992 21.2703 13.4451 20.8867L13.1347 20.4318C13.0772 20.3498 13.0182 20.269 12.96 20.1879C12.8786 20.0747 12.7972 19.9619 12.715 19.8501C12.5343 19.6038 12.3529 19.36 12.1734 19.1173C12.1549 18.9145 12.1376 18.7103 12.1212 18.5054C11.997 16.9774 11.9249 15.3962 11.9037 13.8082C11.9008 13.5982 11.8993 13.3882 11.8982 13.1781C11.8981 13.1497 11.8978 13.1213 11.8976 13.093C11.8945 12.3216 11.903 11.5502 11.9235 10.7842L11.924 10.7825C11.9569 9.55592 12.0193 8.34288 12.1108 7.16528C12.1363 7.14005 12.1634 7.11581 12.1915 7.09222C12.2022 7.08332 12.2129 7.07452 12.2239 7.06586C12.243 7.05084 12.2626 7.0362 12.2827 7.02191C12.2945 7.01351 12.3062 7.00479 12.3184 6.99664C12.3494 6.97591 12.3814 6.95581 12.4146 6.93677C12.4215 6.93278 12.4289 6.92969 12.436 6.92578C12.4567 6.91423 12.4776 6.90261 12.4991 6.89172L12.5387 6.87195C12.5504 6.86635 12.5625 6.86142 12.5744 6.85602C12.5873 6.85019 12.6003 6.8446 12.6134 6.83899C12.6908 6.80584 12.7721 6.77672 12.8568 6.75165C12.8737 6.74663 12.8907 6.7415 12.9078 6.73682C12.9292 6.73098 12.9509 6.72565 12.9727 6.72034C13.0016 6.71327 13.0309 6.70669 13.0605 6.70056C13.0706 6.69847 13.0806 6.69595 13.0908 6.69397C13.2793 6.65718 13.4787 6.63942 13.6835 6.64233C14.2928 6.65113 14.8904 6.85813 15.2595 7.13617C15.1487 8.75553 14.9945 10.3631 14.9271 11.9998C14.9117 12.3771 14.9009 12.756 14.8964 13.1369C14.8867 13.9424 14.9044 14.7571 14.9661 15.5858C15.4802 15.8207 15.9948 16.0552 16.507 16.2922C17.3667 12.9526 18.6153 9.60338 20.1143 6.24738C20.23 6.23011 20.3433 6.21531 20.4538 6.20508C20.5641 6.19475 20.6715 6.18877 20.7757 6.1875Z" fill="#B9B29D"/>
<path d="M31.439 22.1385C31.5235 23.636 31.7218 24.9757 30.6002 26.3386C29.6299 27.5172 27.012 27.5752 25.34 27.1104C25.5884 26.8621 25.8546 26.6085 26.1326 26.3529C26.9087 25.9808 27.4906 25.4285 27.9734 24.7654C28.5084 24.3276 29.0465 23.9029 29.5604 23.5107C30.2971 22.9484 30.9545 22.473 31.439 22.1385Z" fill="#B9B29D"/>
<path d="M9.75641 8.69183C9.65273 10.6278 9.6222 12.6274 9.66852 14.6074C9.27249 14.3145 8.84956 14.056 8.40784 13.8675C8.02845 13.7057 7.61745 13.5836 7.18726 13.533C7.19027 13.5193 7.19408 13.5051 7.19714 13.4912C7.5628 11.8221 8.44342 10.1713 9.75641 8.69183Z" fill="#B9B29D"/>
<path d="M9.0011 1H1V9H0V0H9L9.0011 1Z" fill="#B9B29D"/>
<path d="M36 9H35V1H27V0H36V9Z" fill="#B9B29D"/>
</svg>
