<svg width="36" height="36" viewBox="0 0 36 36" fill="none" xmlns="http://www.w3.org/2000/svg">
<path d="M1 35H9V36H0V27H1V35Z" fill="#444856"/>
<path d="M36 36H27V35H35V27H36V36Z" fill="#444856"/>
<path d="M9 1H1V9H0V0H9V1Z" fill="#444856"/>
<path d="M36 9H35V1H27V0H36V9Z" fill="#444856"/>
<path d="M4.82184 3.9375L10.8696 10.3071L16.7605 8.63874L16.3137 9.68865L13.5889 16.1148L23.0667 11.2179L18.0176 20.9039L24.7651 16.7186L22.175 23.807L27.6209 21.0429L25.1342 27.8003L27.7999 27.4088L28.0675 27.3704L28.2632 27.5551L32.0625 31.1533L30.2607 26.4411L31.6379 23.6953L27.355 26.0094L30.3715 17.7465L24.9846 20.5252L29.2583 12.1654L21.6839 17.0128L27.787 6.90278L16.9856 12.6761L18.7838 6.84799L12.6492 8.32603L4.82184 3.9375ZM3.9375 4.60329L8.53798 10.9399L6.69935 15.3612L12.2597 12.6229L6.41697 22.3875L17.6559 16.554L11.6876 27.407L19.9728 22.7789L17.1998 28.7625L23.4913 25.6601L20.7942 31.0618L25.9042 30.215L31.4259 32.0625L27.6948 28.5302L23.4618 29.1522L25.62 23.2876L20.1833 26.0461L22.6386 19.3291L15.1859 23.9515L20.4857 13.7863L11.3865 18.4875L14.8516 10.3161L10.8493 11.4502L10.5244 11.5417L10.2954 11.2984L3.9375 4.60329Z" fill="#444856"/>
</svg>
