<svg width="64" height="64" viewBox="0 0 64 64" fill="none" xmlns="http://www.w3.org/2000/svg">
<path d="M4 60H16V64H0V48H4V60Z" fill="white"/>
<path d="M64 64H48V60H60V48H64V64Z" fill="white"/>
<path d="M16 4H4V16H0V0H16V4Z" fill="white"/>
<path d="M64 16H60V4H48V0H64V16Z" fill="white"/>
<path d="M8.57217 7L19.3237 18.3237L29.7964 15.3578L29.0021 17.2243L24.158 28.6485L41.0075 19.943L32.0313 37.1625L44.0268 29.7219L39.4222 42.3235L49.1039 37.4096L44.6831 49.4227L49.4221 48.7267L49.8978 48.6585L50.2458 48.9868L57 55.3837L53.7968 47.0065L56.2452 42.125L48.6312 46.2389L53.9938 31.5493L44.4171 36.4893L52.0147 21.6274L38.5492 30.2451L49.3992 12.2716L30.1966 22.5352L33.3934 12.1742L22.4875 14.8018L8.57217 7ZM7 8.18363L15.1786 19.4486L11.91 27.3089L21.7951 22.4407L11.408 39.8L31.3883 29.4293L20.778 48.7235L35.5072 40.4958L30.5775 51.1334L41.7623 45.6179L36.9675 55.221L46.0518 53.7155L55.8682 57L49.2353 50.7203L41.71 51.8261L45.5466 41.4002L35.8814 46.3041L40.2465 34.3628L26.9972 42.5805L36.4191 24.5089L20.2427 32.8666L26.4028 18.3397L19.2876 20.356L18.71 20.5186L18.303 20.086L7 8.18363Z" fill="white"/>
</svg>
