<svg width="16" height="16" viewBox="0 0 16 16" fill="none" xmlns="http://www.w3.org/2000/svg">
<path d="M11.5431 2.71903C11.6983 3.24315 12.1778 3.625 12.7451 3.625C13.4382 3.625 14 3.05518 14 2.35227C14 1.64936 13.4382 1.07955 12.7451 1.07955C12.052 1.07955 11.4902 1.64936 11.4902 2.35227C11.4902 2.47977 11.5087 2.6029 11.5431 2.71903ZM11.5431 2.71903H9.68627M9.68627 2.71903V4.5C10.0576 6.5947 10.5773 11.6273 9.68627 15M9.68627 2.71903V1H7.17647V2.71903M7.17647 2.71903V4.5C6.79819 6.56818 6.2686 11.5636 7.17647 15M7.17647 2.71903H5.45098C4.30065 3.36572 2 5.70909 2 9.90909M4.43137 8H12.4043M4.43137 8C4.43137 8 3.92001 7.59629 3.98271 7.3943C4.28836 6.40969 4.85096 5.42673 5.76471 4.5H11.0196C11.9496 5.44321 12.5386 6.416 12.8738 7.37647C12.9466 7.58504 12.4043 8 12.4043 8M4.43137 8C4.43137 8 3.7484 8.4288 3.72549 8.64195C3.64504 9.3906 3.69225 10.1266 3.82463 10.8254C3.86315 11.0287 4.45102 11.4253 4.45102 11.4253M12.4043 8C12.4043 8 13.1414 8.38999 13.1694 8.58328C13.2825 9.36431 13.2468 10.1247 13.1118 10.8407C13.0744 11.0392 12.4159 11.4253 12.4159 11.4253M4.45102 11.4253H12.4159M4.45102 11.4253C4.45102 11.4253 4.06554 11.7971 4.12544 11.9773C4.54515 13.2399 5.19614 14.308 5.76471 15H11.0196C11.6441 14.327 12.3619 13.261 12.8075 11.9773C12.8699 11.7974 12.4159 11.4253 12.4159 11.4253" stroke="#B9B29D" stroke-linecap="round" stroke-linejoin="round"/>
</svg>
