<svg width="36" height="36" viewBox="0 0 36 36" fill="none" xmlns="http://www.w3.org/2000/svg">
<path d="M1 35H8.95825L9 36H0V27H1V35Z" fill="#B9B29D"/>
<path d="M36 36H27V35H35V27H36V36Z" fill="#B9B29D"/>
<path fill-rule="evenodd" clip-rule="evenodd" d="M24.9785 3.375C26.3196 4.94158 27.1791 6.9752 27.1791 9.20654C27.1791 10.8148 26.7551 12.3264 26.0162 13.6318C27.5001 13.6434 29.0013 14.0309 30.3761 14.831C32.2915 15.9454 33.6364 17.674 34.3125 19.6254C33.67 18.5677 32.7531 17.6758 31.6126 17.0118C30.0204 16.0852 28.2374 15.8026 26.5562 16.0834C26.7306 16.7767 26.8188 17.4892 26.8187 18.2043C26.8187 22.1082 24.2346 25.4155 20.6993 26.4787C21.3082 28.0431 22.4277 29.4192 23.9854 30.3256C25.1258 30.9892 26.3736 31.3012 27.6042 31.333C25.5874 31.7203 23.4104 31.4529 21.4931 30.3365C20.1159 29.5353 19.0334 28.415 18.2812 27.123C17.5292 28.4144 16.4455 29.5333 15.0688 30.3344C13.1516 31.4504 10.9748 31.7203 8.95825 31.333C10.1882 31.3011 11.4358 30.9876 12.5766 30.3239C14.1294 29.4205 15.2464 28.0496 15.8566 26.4913C12.2963 25.4435 9.68667 22.1259 9.68665 18.2043C9.68631 17.4854 9.77528 16.7691 9.95142 16.0724C8.28679 15.8073 6.52446 16.0935 4.94989 17.0096C3.80938 17.6732 2.89262 18.5655 2.25 19.6232C2.92623 17.6718 4.27114 15.9431 6.1864 14.8288C7.56919 14.0244 9.07958 13.637 10.5716 13.6296C9.83325 12.3245 9.41146 10.814 9.41144 9.20654C9.41144 6.97752 10.2262 4.9409 11.5648 3.375C10.9773 4.46486 10.6666 5.70941 10.6666 7.03674C10.6667 8.88805 11.3147 10.5857 12.3948 11.9119C13.9281 10.4615 15.9899 9.57129 18.2538 9.57129C20.5396 9.57133 22.6199 10.4793 24.1573 11.9548C25.2586 10.6223 25.9211 8.90828 25.9211 7.03674C25.9211 5.70934 25.5658 4.46486 24.9785 3.375ZM18.2538 10.8474C16.3256 10.8474 14.575 11.5976 13.2715 12.8232C14.4738 13.8844 16.0098 14.5699 17.7012 14.7008V16.0895C16.898 16.3769 16.329 17.1458 16.329 18.0593C16.3288 18.2025 16.3429 18.3453 16.3713 18.4856L14.993 19.2349C14.0292 17.8549 12.6798 16.8803 11.1797 16.3757C11.0319 16.9601 10.9528 17.5728 10.9528 18.2043C10.9528 21.5639 13.1758 24.3887 16.223 25.2729C16.5666 23.6536 16.3957 21.918 15.6368 20.3335L16.9942 19.5974C17.3627 19.9396 17.8563 20.1478 18.4021 20.1478C18.9306 20.1478 19.4094 19.9525 19.7743 19.6298L20.9559 20.278C20.177 21.8717 19.9947 23.6225 20.3373 25.2559C23.3566 24.3543 25.5525 21.5444 25.5526 18.2043C25.5529 17.5936 25.4787 16.985 25.3306 16.3927C23.8703 16.8957 22.5556 17.8449 21.6057 19.1816L20.4241 18.5328C20.4587 18.3807 20.4774 18.2225 20.4774 18.0593C20.4774 17.0952 19.8422 16.293 18.9673 16.0472V14.6942C20.6083 14.5499 22.099 13.8832 23.2762 12.8595C21.969 11.6114 20.2017 10.8474 18.2538 10.8474Z" fill="#B9B29D"/>
<path d="M9 1H1V9H0V0H9V1Z" fill="#B9B29D"/>
<path d="M36 9H35V1H27V0H36V9Z" fill="#B9B29D"/>
</svg>
