<svg width="64" height="64" viewBox="0 0 64 64" fill="none" xmlns="http://www.w3.org/2000/svg">
<path d="M4 60H16V64H0V48H4V60Z" fill="white"/>
<path d="M64 64H48V60H60V48H64V64Z" fill="white"/>
<path fill-rule="evenodd" clip-rule="evenodd" d="M44.4062 6C46.7904 8.78504 48.3184 12.4004 48.3184 16.3672C48.3183 19.2263 47.5647 21.9135 46.251 24.2344C48.889 24.255 51.5578 24.9438 54.002 26.3662C57.4071 28.3473 59.7981 31.4205 61 34.8896C59.8578 33.0092 58.2278 31.4236 56.2002 30.2432C53.3695 28.596 50.1998 28.0935 47.2109 28.5928C47.521 29.8252 47.6779 31.0918 47.6777 32.3633C47.6777 39.3035 43.0838 45.183 36.7988 47.0732C37.8812 49.8545 39.8715 52.3007 42.6406 53.9121C44.6682 55.0919 46.8864 55.6465 49.0742 55.7031C45.4887 56.3917 41.6184 55.9162 38.21 53.9316C35.7616 52.5072 33.8371 50.5155 32.5 48.2188C31.163 50.5145 29.2364 52.5037 26.7891 53.9277C23.3806 55.9118 19.5108 56.3917 15.9258 55.7031C18.1123 55.6464 20.3303 55.089 22.3584 53.9092C25.1189 52.303 27.1047 49.8659 28.1895 47.0957C21.86 45.2329 17.2208 39.3349 17.2207 32.3633C17.2201 31.0852 17.3783 29.8117 17.6914 28.5732C14.7321 28.1018 11.599 28.6107 8.7998 30.2393C6.77223 31.4191 5.14244 33.0053 4 34.8857C5.20219 31.4166 7.59314 28.3433 10.998 26.3623C13.4563 24.9322 16.1415 24.2436 18.7939 24.2305C17.4813 21.9103 16.7315 19.225 16.7314 16.3672C16.7314 12.4045 18.1799 8.78382 20.5596 6C19.5152 7.93753 18.9629 10.1501 18.9629 12.5098C18.963 15.801 20.1151 18.8191 22.0352 21.1768C24.7611 18.5982 28.4265 17.0156 32.4512 17.0156C36.5149 17.0157 40.2131 18.6299 42.9463 21.2529C44.9042 18.8841 46.0819 15.8369 46.082 12.5098C46.082 10.1499 45.4504 7.93753 44.4062 6ZM32.4512 19.2842C29.0234 19.2842 25.9112 20.618 23.5938 22.7969C25.7313 24.6833 28.462 25.9021 31.4688 26.1348V28.6035C30.0408 29.1145 29.0293 30.4813 29.0293 32.1055C29.0289 32.36 29.0541 32.6139 29.1045 32.8633L26.6543 34.1953C24.9408 31.742 22.5418 30.0094 19.875 29.1123C19.6123 30.1513 19.4717 31.2405 19.4717 32.3633C19.4717 38.3359 23.4237 43.3576 28.8408 44.9297C29.4517 42.0509 29.1479 38.9653 27.7988 36.1484L30.2119 34.8398C30.867 35.4482 31.7445 35.8184 32.7148 35.8184C33.6544 35.8183 34.5057 35.4711 35.1543 34.8975L37.2549 36.0498C35.8702 38.883 35.5461 41.9956 36.1553 44.8994C41.5229 43.2965 45.4267 38.3011 45.4268 32.3633C45.4274 31.2775 45.2954 30.1955 45.0322 29.1426C42.4361 30.0368 40.0988 31.7242 38.4102 34.1006L36.3096 32.9473C36.371 32.6769 36.4043 32.3955 36.4043 32.1055C36.4043 30.3915 35.2751 28.9653 33.7197 28.5283V26.123C36.637 25.8664 39.2872 24.6812 41.3799 22.8613C39.056 20.6425 35.9141 19.2842 32.4512 19.2842Z" fill="white"/>
<path d="M16 4H4V16H0V0H16V4Z" fill="white"/>
<path d="M64 16H60V4H48V0H64V16Z" fill="white"/>
</svg>
