<svg width="36" height="36" viewBox="0 0 36 36" fill="none" xmlns="http://www.w3.org/2000/svg">
<path d="M1 35H9V36H0V27L1 26.9997V35Z" fill="#B9B29D"/>
<path d="M36 36H27V35H35V26.9997L36 27V36Z" fill="#B9B29D"/>
<path d="M9 1H1V9H0V0H9V1Z" fill="#B9B29D"/>
<path d="M36 9H35V1H27V0H36V9Z" fill="#B9B29D"/>
<path d="M16.6112 3.375C16.2579 3.37491 15.9191 3.51524 15.6692 3.76512C15.4193 4.015 15.2789 4.35396 15.2788 4.70743V10.6927C15.28 10.8815 15.3214 11.0678 15.4001 11.2394C15.3787 11.5104 15.4407 11.7815 15.5776 12.0162L17.926 16.0452L13.4823 19.1635L13.8251 16.4284C13.8522 16.209 13.8242 15.9863 13.7438 15.7804C13.6635 15.5745 13.5332 15.3918 13.3647 15.2488L9.63647 10.6399C9.52636 10.5039 9.39055 10.3908 9.23678 10.3073C9.08301 10.2238 8.9143 10.1714 8.74028 10.1531C8.56627 10.1348 8.39036 10.151 8.2226 10.2008C8.05484 10.2505 7.89853 10.3329 7.76258 10.4431L7.24576 10.8614C7.10955 10.9715 6.99635 11.1073 6.91264 11.2612C6.82893 11.415 6.77635 11.5839 6.75791 11.7581C6.73947 11.9322 6.75553 12.1084 6.80516 12.2763C6.8548 12.4443 6.93705 12.6009 7.0472 12.737L10.4098 16.8942L9.77698 21.9531C9.74376 22.2217 9.79308 22.4941 9.91838 22.734C10.0437 22.9739 10.239 23.17 10.4784 23.2961L12.586 26.3037C12.6258 26.3598 12.6698 26.4127 12.7178 26.4619C12.7319 26.7015 12.8104 26.9327 12.945 27.1314C13.0796 27.33 13.2653 27.4886 13.4825 27.5904L18.8998 30.1232C19.0755 30.2052 19.2668 30.2478 19.4606 30.2481C19.6721 30.3463 19.9056 30.3873 20.1379 30.367C20.3702 30.3466 20.593 30.2656 20.7842 30.1321L25.6866 26.7044C25.8301 26.6041 25.9523 26.4766 26.0465 26.329C26.1406 26.1815 26.2048 26.0168 26.2353 25.8444C26.2658 25.672 26.2621 25.4953 26.2244 25.3244C26.1866 25.1535 26.1156 24.9916 26.0154 24.8482L25.634 24.3032C25.4318 24.0134 25.1229 23.8157 24.7751 23.7537C24.4273 23.6918 24.0692 23.7706 23.7795 23.9728L19.7067 26.8222L16.3844 25.2683L23.1678 20.5081C23.2879 20.4229 23.393 20.3184 23.4789 20.1988C23.6634 20.1389 23.8326 20.0395 23.9747 19.9074C24.1168 19.7753 24.2283 19.6138 24.3016 19.4341L26.3952 14.2856L31.3346 11.7631C31.4905 11.6835 31.6292 11.574 31.7427 11.4407C31.8562 11.3075 31.9424 11.1533 31.9963 10.9868C32.0501 10.8203 32.0706 10.6448 32.0566 10.4704C32.0426 10.2959 31.9944 10.126 31.9146 9.97017L31.6122 9.37607C31.5327 9.22019 31.4232 9.08148 31.2901 8.96788C31.157 8.85427 31.0028 8.768 30.8363 8.71397C30.6698 8.65994 30.4943 8.63923 30.3197 8.65301C30.1452 8.66679 29.9752 8.71479 29.8192 8.79428L24.4931 11.5153C24.2605 11.6342 24.0679 11.8188 23.9394 12.0461C23.7296 12.1932 23.5667 12.3977 23.4701 12.635L21.9303 16.4212L21.6366 16.0029C21.6139 15.8275 21.5566 15.6584 21.4679 15.5054L18.6099 10.6065V4.70743C18.6098 4.53239 18.5753 4.35908 18.5083 4.19739C18.4413 4.03569 18.3431 3.88879 18.2194 3.76506C18.0956 3.64133 17.9487 3.5432 17.7871 3.47627C17.6254 3.40935 17.4522 3.37493 17.2773 3.375H16.6112ZM8.53589 23.6247C8.08449 23.6115 7.63503 23.6891 7.21413 23.8527C6.79323 24.0164 6.40947 24.2629 6.08557 24.5776C5.76167 24.8924 5.50422 25.2689 5.32849 25.6849C5.15276 26.101 5.06231 26.5481 5.0625 26.9997C5.0625 27.8949 5.41808 28.7534 6.051 29.3864C6.68393 30.0194 7.54236 30.375 8.43746 30.375C9.33255 30.375 10.191 30.0194 10.8239 29.3864C11.4568 28.7534 11.8124 27.8949 11.8124 26.9997C11.8128 26.1214 11.4707 25.2775 10.8589 24.6473C10.2471 24.0171 9.41379 23.6503 8.53589 23.6247Z" fill="#B9B29D"/>
</svg>
