<svg width="36" height="36" viewBox="0 0 36 36" fill="none" xmlns="http://www.w3.org/2000/svg">
<path d="M0.928711 35H9V36H0V27H0.928711V35Z" fill="#444856"/>
<path d="M36 36H27V35H34.9287V27H36V36Z" fill="#444856"/>
<path d="M9 1H0.928711V9H0V0H9V1Z" fill="#444856"/>
<path d="M36 9H34.9287V1H27V0H36V9Z" fill="#444856"/>
<path d="M12.3448 4.5C12.285 4.49991 12.2252 4.50288 12.1657 4.50891C11.9252 4.53348 11.6791 4.60958 11.4475 4.74299H11.4458L9.75575 5.72017C9.30983 5.97746 9.03722 6.40964 8.96845 6.84261C8.89967 7.27559 9.00363 7.70096 9.20792 8.06096C9.21416 8.07214 9.2208 8.08349 9.22738 8.09461L8.56231 10.377C8.46097 10.4464 8.36602 10.5247 8.27858 10.611C7.98372 10.9014 7.76729 11.2823 7.71996 11.7209C7.67258 12.1597 7.82909 12.651 8.19698 13.0191L9.57671 14.4006C9.95311 14.7768 10.4447 14.9455 10.8926 14.913C11.1553 14.8941 11.3996 14.8134 11.6178 14.6914L12.0204 15.0709C11.8843 15.2469 11.7848 15.4482 11.7277 15.6632L11.6356 16.0054L12.6606 16.2803L12.7528 15.9362C12.8129 15.7119 12.9067 15.6315 13.0436 15.571C13.112 15.5407 13.1951 15.5218 13.2865 15.5177C13.3778 15.5138 13.4775 15.5249 13.5738 15.5515C13.7663 15.6047 13.9355 15.7196 14.0259 15.8441C14.1164 15.9687 14.1555 16.0862 14.0987 16.2981L14.0065 16.6404L15.0315 16.9152L15.1237 16.5729C15.257 16.0757 15.1418 15.5764 14.8842 15.2218C14.6268 14.8669 14.2547 14.6384 13.8557 14.5283C13.6545 14.4724 13.4456 14.4484 13.2369 14.4574C13.1422 14.4616 13.0474 14.4733 12.9532 14.4928L12.3662 13.9396C12.4831 13.7268 12.5603 13.4888 12.579 13.2338C12.6123 12.7845 12.4417 12.2932 12.063 11.9144L10.6816 10.5348C10.4162 10.2692 10.0849 10.1173 9.75592 10.0719L10.1053 8.87488C10.1154 8.87896 10.1253 8.88339 10.1355 8.88736C10.5469 9.04659 11.0625 9.02321 11.5133 8.76309L13.2051 7.78784C13.5515 7.58764 13.8024 7.29449 13.941 6.97381L15.138 7.31077C15.0881 7.52329 15.0744 7.74704 15.1097 7.97397C15.1774 8.40995 15.4536 8.84503 15.9041 9.10538L17.5959 10.0824C17.8015 10.2014 18.0288 10.278 18.2644 10.3077L18.4504 11.3521C18.2952 11.4403 18.154 11.5495 18.0283 11.6732C17.7335 11.9637 17.5189 12.3446 17.4715 12.7833C17.4241 13.2219 17.5788 13.7134 17.9468 14.0814L18.1862 14.3208L18.9363 13.5707L18.6968 13.3312C18.5327 13.167 18.5088 13.0456 18.5249 12.8968C18.541 12.7479 18.6309 12.5688 18.7732 12.4286C18.9154 12.2885 19.1006 12.1982 19.2537 12.1821C19.2728 12.1801 19.2923 12.1792 19.3104 12.1786C19.4382 12.1746 19.5471 12.2095 19.6829 12.3453V12.3471L19.9222 12.5847L20.6706 11.8364L20.4329 11.597C20.178 11.3417 19.8456 11.1782 19.4877 11.1324L19.3033 10.095C19.5825 9.93076 19.8066 9.69407 19.9649 9.42288C20.1771 9.05902 20.2779 8.62065 20.1935 8.17809C20.1093 7.73546 19.8169 7.30567 19.353 7.03782L17.6631 6.06246C17.4401 5.93365 17.2009 5.86351 16.9661 5.84614C16.7314 5.82878 16.5005 5.86345 16.2958 5.94193C16.0515 6.03556 15.8412 6.18084 15.6663 6.35862L14.0154 5.89409C13.9723 5.72332 13.906 5.55924 13.8185 5.40641C13.6094 5.04068 13.2811 4.73363 12.8556 4.58529C12.6961 4.52968 12.5229 4.50068 12.3448 4.5ZM12.3342 5.55345C12.3945 5.55515 12.4505 5.56775 12.5061 5.5871C12.6545 5.63885 12.8026 5.76602 12.898 5.93291C12.9935 6.09986 13.0292 6.2941 12.999 6.45078C12.9691 6.60717 12.8966 6.74075 12.6746 6.86928H12.6728L10.9828 7.84476C10.7816 7.96075 10.6578 7.95201 10.5182 7.89787C10.479 7.88234 10.4415 7.86275 10.4064 7.83942L10.4117 7.81985L10.3603 7.80566C10.2735 7.73853 10.1914 7.64654 10.1298 7.53793C10.0312 7.36428 9.99215 7.16147 10.0163 7.00951C10.0404 6.85754 10.0957 6.74858 10.2858 6.63895V6.63713L11.9757 5.66177H11.9775C12.0922 5.59561 12.1868 5.56417 12.2719 5.55537C12.2932 5.55322 12.3141 5.55288 12.3342 5.55345ZM16.8331 6.89414C16.8507 6.893 16.8682 6.89278 16.8864 6.89414C16.9588 6.89925 17.036 6.92422 17.131 6.97926V6.98096L18.8228 7.95632C19.0521 8.08865 19.1232 8.22224 19.1526 8.37659C19.182 8.53094 19.1448 8.72302 19.048 8.88901C18.9512 9.05511 18.8015 9.18262 18.6508 9.23488C18.5002 9.28709 18.3491 9.29276 18.1259 9.16395L16.4342 8.18683C16.2331 8.07061 16.1805 7.96069 16.1575 7.81264C16.1345 7.66464 16.1734 7.46705 16.2745 7.29483C16.3757 7.12266 16.5317 6.98641 16.6753 6.93137C16.7291 6.91071 16.7803 6.89743 16.8331 6.89414ZM9.56071 11.1163C9.68816 11.1126 9.79564 11.1489 9.93126 11.2848L11.3128 12.6644C11.4998 12.8516 11.5335 12.9989 11.5219 13.1556C11.5104 13.3123 11.4261 13.4884 11.2896 13.6238C11.1531 13.7592 10.9752 13.8446 10.8162 13.8561C10.657 13.8676 10.5089 13.8325 10.3267 13.6504L8.94705 12.2709C8.78306 12.1066 8.75905 11.9835 8.77511 11.8345C8.79117 11.6857 8.88106 11.5066 9.02338 11.3663C9.1657 11.2262 9.35098 11.1359 9.50402 11.1199C9.52309 11.1179 9.54244 11.1168 9.56071 11.1163ZM22.1389 11.8683L18.6153 15.3919L21.387 18.1636L22.9157 16.6349L22.9351 16.6544C22.9906 16.5912 23.048 16.5297 23.1072 16.47C24.6786 14.8985 27.2265 14.8985 28.7978 16.47C30.3416 18.0137 30.3688 20.5003 28.8794 22.0771L28.8777 22.079C28.8192 22.2217 28.7998 22.3608 28.8051 22.4957C28.8153 22.7656 28.9421 23.0351 29.1419 23.237C29.3417 23.4388 29.6055 23.5633 29.8725 23.5738C30.0776 23.582 30.293 23.5324 30.5234 23.3681C32.6559 20.9656 32.5727 17.2798 30.2716 14.9786C28.6146 13.3216 26.2325 12.8282 24.1394 13.4712L23.8344 13.5652L22.1389 11.8683ZM21.4722 14.1772L22.5114 15.2163L21.7612 15.9665L20.722 14.9272L21.4722 14.1772ZM10.8872 16.901L9.87282 20.6905L11.96 21.2491L11.9529 21.2758C12.0349 21.2924 12.1175 21.3105 12.1994 21.3326C14.346 21.9077 15.619 24.114 15.0438 26.2606C14.4785 28.3702 12.3385 29.6362 10.2274 29.1334C10.0745 29.1547 9.94449 29.2086 9.8302 29.2806C9.60151 29.4243 9.43161 29.6663 9.35671 29.9402C9.2818 30.2142 9.30518 30.507 9.42934 30.7435C9.52502 30.9255 9.67619 31.0888 9.93478 31.2064C13.0811 31.8513 16.2314 29.9348 17.0742 26.7926V26.7908C17.6799 24.5278 16.9163 22.2186 15.3134 20.7278L15.0793 20.5096L15.1608 20.2011L15.6999 18.19L10.8872 16.901ZM19.9471 18.2221C19.6019 20.1219 20.1591 22.1421 21.6336 23.6166C23.688 25.6711 26.8263 25.9746 29.1843 24.5032C28.8812 24.3892 28.6095 24.2073 28.3864 23.9819C28.095 23.6877 27.882 23.3129 27.7923 22.8949C26.2789 23.6731 24.375 23.4287 23.1071 22.1607C22.271 21.3246 21.8795 20.2126 21.9332 19.1177L21.387 19.6639L21.0128 19.2879L19.9471 18.2221ZM12.4761 18.4544L13.5009 18.7293L13.1215 20.1498L12.0965 19.8749L12.4761 18.4544ZM9.10135 19.4723C7.28432 20.1238 5.81402 21.6173 5.27447 23.6307C4.52247 26.4374 5.82889 29.306 8.28204 30.6124C8.22892 30.2931 8.24981 29.9677 8.33351 29.6619C8.44263 29.2626 8.66167 28.8884 8.97894 28.6014C7.5478 27.6799 6.80714 25.911 7.27133 24.1787C7.57747 23.0362 8.34582 22.1401 9.3213 21.6393L9.08722 21.5773L8.5748 21.4389L8.71127 20.9264L9.10135 19.4723Z" fill="#444856"/>
</svg>
