<svg width="64" height="64" viewBox="0 0 64 64" fill="none" xmlns="http://www.w3.org/2000/svg">
<path d="M4 60H16V64H0V48H4V60Z" fill="white"/>
<path d="M64 64H48V60H60V48H64V64Z" fill="white"/>
<path d="M16 4H4V16H0V0H16V4Z" fill="white"/>
<path d="M64 16H60V4H48V0H64V16Z" fill="white"/>
<path d="M21.9463 8C21.84 7.99984 21.7337 8.00512 21.6279 8.01584C21.2004 8.05952 20.7628 8.19481 20.3512 8.43198C20.3504 8.43249 20.3488 8.43158 20.3481 8.43198L17.3436 10.1692C16.5508 10.6266 16.0662 11.3949 15.9439 12.1646C15.8216 12.9344 16.0065 13.6906 16.3696 14.3306C16.3807 14.3505 16.3925 14.3707 16.4042 14.3904L15.2219 18.4479C15.0417 18.5714 14.8729 18.7106 14.7175 18.864C14.1933 19.3802 13.8085 20.0574 13.7244 20.8372C13.6401 21.6173 13.9184 22.4907 14.5724 23.145L17.0253 25.601C17.6944 26.2699 18.5684 26.5697 19.3645 26.512C19.8316 26.4784 20.2659 26.3349 20.6538 26.118L21.3696 26.7927C21.1277 27.1055 20.9508 27.4635 20.8493 27.8457L20.6855 28.454L22.5077 28.9428L22.6716 28.3311C22.7785 27.9323 22.9452 27.7894 23.1886 27.6817C23.3102 27.628 23.458 27.5943 23.6204 27.5871C23.7828 27.58 23.9599 27.5998 24.1311 27.647C24.4734 27.7417 24.7743 27.9459 24.935 28.1673C25.0958 28.3887 25.1654 28.5976 25.0643 28.9743L24.9004 29.5829L26.7226 30.0714L26.8866 29.4629C27.1236 28.579 26.9188 27.6914 26.4608 27.0609C26.0031 26.4301 25.3417 26.0238 24.6324 25.8281C24.2746 25.7287 23.9034 25.6861 23.5323 25.702C23.3638 25.7096 23.1954 25.7303 23.0279 25.7651L21.9844 24.7815C22.1922 24.4031 22.3294 23.98 22.3627 23.5267C22.4218 22.728 22.1185 21.8546 21.4453 21.1811L18.9896 18.7285C18.5177 18.2564 17.9287 17.9863 17.3439 17.9057L17.965 15.7776C17.9828 15.7848 18.0006 15.7927 18.0187 15.7998C18.7501 16.0828 19.6667 16.0413 20.4681 15.5788L23.4757 13.8451C24.0915 13.4891 24.5376 12.968 24.784 12.3979L26.9121 12.9969C26.8233 13.3747 26.7989 13.7725 26.8616 14.1759C26.9821 14.951 27.473 15.7245 28.274 16.1873L31.2816 17.9243C31.647 18.1359 32.0511 18.2721 32.47 18.3249L32.8007 20.1816C32.5248 20.3383 32.2737 20.5324 32.0503 20.7523C31.5263 21.2688 31.1447 21.946 31.0605 22.7259C30.9762 23.5057 31.2511 24.3793 31.9054 25.0336L32.3311 25.4593L33.6646 24.1256L33.2388 23.6999C32.947 23.408 32.9045 23.1922 32.9332 22.9276C32.9617 22.663 33.1215 22.3445 33.3745 22.0953C33.6274 21.8462 33.9566 21.6858 34.2288 21.6571C34.2628 21.6536 34.2974 21.6519 34.3297 21.6509C34.5569 21.6438 34.7504 21.7057 34.9918 21.9471V21.9504L35.4172 22.3729L36.7476 21.0424L36.3251 20.6169C35.8721 20.1629 35.281 19.8724 34.6448 19.7909L34.317 17.9467C34.8133 17.6547 35.2118 17.2339 35.4931 16.7518C35.8704 16.1049 36.0495 15.3256 35.8996 14.5388C35.7499 13.7519 35.2301 12.9879 34.4053 12.5117L31.4011 10.7777C31.0046 10.5487 30.5794 10.424 30.162 10.3931C29.7447 10.3623 29.3342 10.4239 28.9703 10.5634C28.5361 10.7299 28.1622 10.9882 27.8512 11.3042L24.9162 10.4784C24.8396 10.1748 24.7218 9.88309 24.5662 9.6114C24.1945 8.96121 23.6108 8.41534 22.8544 8.15163C22.5709 8.05277 22.2629 8.00121 21.9463 8ZM21.9275 9.87279C22.0347 9.87582 22.1343 9.89821 22.2331 9.93262C22.4968 10.0246 22.7603 10.2507 22.9298 10.5474C23.0995 10.8442 23.1631 11.1895 23.1094 11.4681C23.0561 11.7461 22.9273 11.9836 22.5327 12.2121C22.5317 12.2127 22.5302 12.2117 22.5294 12.2121L19.5249 13.9462C19.1673 14.1524 18.9473 14.1369 18.699 14.0407C18.6293 14.0131 18.5627 13.9782 18.5003 13.9368L18.5098 13.9019L18.4184 13.8767C18.264 13.7574 18.118 13.5939 18.0085 13.4008C17.8332 13.0921 17.7638 12.7315 17.8067 12.4613C17.8496 12.1912 17.9479 11.9975 18.2859 11.8026V11.7994L21.2902 10.0654H21.2934C21.4972 9.94775 21.6655 9.89186 21.8168 9.87622C21.8546 9.87239 21.8917 9.87178 21.9275 9.87279ZM29.9256 12.2562C29.9568 12.2542 29.9879 12.2538 30.0202 12.2562C30.1489 12.2653 30.2862 12.3097 30.4552 12.4076V12.4106L33.4628 14.1446C33.8704 14.3798 33.9969 14.6173 34.0491 14.8917C34.1014 15.1661 34.0352 15.5076 33.8631 15.8027C33.6911 16.098 33.425 16.3246 33.1569 16.4176C32.8892 16.5104 32.6206 16.5205 32.2238 16.2915L29.2163 14.5544C28.8588 14.3477 28.7654 14.1523 28.7244 13.8891C28.6835 13.626 28.7527 13.2748 28.9325 12.9686C29.1123 12.6625 29.3897 12.4203 29.645 12.3224C29.7406 12.2857 29.8317 12.2621 29.9256 12.2562ZM16.9968 19.7623C17.2234 19.7558 17.4145 19.8203 17.6556 20.062L20.1116 22.5144C20.4441 22.8473 20.504 23.1092 20.4834 23.3878C20.4628 23.6664 20.3131 23.9794 20.0704 24.22C19.8278 24.4607 19.5115 24.6127 19.2287 24.6331C18.9458 24.6535 18.6825 24.5912 18.3585 24.2674L15.9059 21.8149C15.6143 21.5228 15.5716 21.3039 15.6002 21.0391C15.6287 20.7746 15.7885 20.4562 16.0416 20.2068C16.2946 19.9576 16.624 19.7972 16.896 19.7687C16.9299 19.7652 16.9643 19.7632 16.9968 19.7623ZM39.3581 21.0991L33.0939 27.3633L38.0214 32.2908L40.739 29.5732L40.7736 29.6079C40.8721 29.4954 40.9742 29.3861 41.0796 29.28C43.873 26.4863 48.4026 26.4863 51.1961 29.28C53.9406 32.0243 53.9889 36.4449 51.3411 39.2482C51.3407 39.2497 51.3386 39.2503 51.3381 39.2516C51.2342 39.5052 51.1997 39.7525 51.209 39.9924C51.2271 40.4723 51.4526 40.9512 51.8078 41.3102C52.1629 41.6689 52.632 41.8903 53.1067 41.909C53.4713 41.9236 53.8542 41.8354 54.2638 41.5433C58.055 37.2722 57.9071 30.7196 53.8161 26.6286C50.8703 23.6828 46.6356 22.8058 42.9145 23.9489L42.3723 24.1159L39.3581 21.0991ZM38.1727 25.2038L40.0202 27.0512L38.6865 28.3849L36.8391 26.5373L38.1727 25.2038ZM19.3551 30.0462L17.5517 36.7832L21.2621 37.7763L21.2496 37.8237C21.3954 37.8531 21.5422 37.8854 21.6879 37.9246C25.5041 38.947 27.7671 42.8693 26.7446 46.6855C25.7396 50.4358 21.935 52.6865 18.1821 51.7927C17.9102 51.8305 17.6791 51.9265 17.4759 52.0544C17.0694 52.3099 16.7673 52.74 16.6341 53.2271C16.501 53.7141 16.5425 54.2347 16.7633 54.6552C16.9334 54.9786 17.2021 55.269 17.6618 55.478C23.2553 56.6246 28.8558 53.2175 30.3542 47.6313C30.3545 47.6303 30.3539 47.6291 30.3542 47.6281C31.4309 43.6051 30.0734 39.4997 27.2238 36.8493L26.8076 36.4616L26.9525 35.9131L27.9109 32.3378L19.3551 30.0462ZM35.4615 32.3948C34.8478 35.7723 35.8384 39.3638 38.4597 41.985C42.1121 45.6375 47.6912 46.1771 51.8832 43.5613C51.3443 43.3585 50.8612 43.0353 50.4648 42.6346C49.9467 42.1114 49.5679 41.4452 49.4085 40.7021C46.718 42.0855 43.3334 41.651 41.0794 39.3968C39.5928 37.9103 38.897 35.9335 38.9924 33.987L38.0214 34.958L37.3562 34.2896L35.4615 32.3948ZM22.1797 32.8078L24.0016 33.2965L23.3271 35.8219L21.5049 35.3332L22.1797 32.8078ZM16.1802 34.6174C12.9499 35.7756 10.336 38.4308 9.37684 42.0101C8.03994 46.9998 10.3625 52.0996 14.7236 54.422C14.6292 53.8545 14.6663 53.276 14.8151 52.7322C15.0091 52.0224 15.3985 51.3572 15.9626 50.8469C13.4183 49.2088 12.1016 46.0641 12.9268 42.9843C13.4711 40.9532 14.837 39.3602 16.5712 38.4698L16.1551 38.3597L15.2441 38.1135L15.4867 37.2025L16.1802 34.6174Z" fill="white"/>
</svg>
