<svg width="36" height="36" viewBox="0 0 36 36" fill="none" xmlns="http://www.w3.org/2000/svg">
<path d="M1 35H9V36H0V27H1V35Z" fill="#444856"/>
<path d="M36 36H27V35H35V27H36V36Z" fill="#444856"/>
<path d="M22.0117 27.5576C21.808 28.1074 21.6569 28.6758 21.5596 29.2539C21.1771 29.3743 20.7883 29.475 20.3955 29.5557C20.472 28.9254 20.6055 28.3032 20.7949 27.6973L22.0117 27.5576Z" fill="#444856"/>
<path d="M18.3467 24.7275C17.0798 26.2888 15.9735 27.8875 15.1152 29.4395C14.748 29.3471 14.3849 29.2378 14.0283 29.1104C15.2466 26.842 16.9432 24.5093 18.9023 22.3242L18.3467 24.7275Z" fill="#444856"/>
<path d="M10.0693 26.7314C9.79571 26.4826 9.53347 26.2206 9.28418 25.9473L13.793 21.4385L16.1074 20.6934L10.0693 26.7314Z" fill="#444856"/>
<path d="M11.5264 18.9336C9.9987 20.1276 8.43544 21.1698 6.90137 21.9932C6.77335 21.6369 6.66223 21.2742 6.56934 20.9072C8.35089 19.9231 10.1941 18.6123 11.9717 17.1055L11.5264 18.9336Z" fill="#444856"/>
<path d="M12.1895 13.0234C10.6241 14.423 8.63829 15.3617 6.44629 15.624C6.52624 15.2318 6.62643 14.8439 6.74609 14.4619C8.18983 14.2219 9.52137 13.6537 10.6621 12.8369L12.1895 13.0234Z" fill="#444856"/>
<path d="M29.5645 20.3926C29.4831 20.788 29.3816 21.1759 29.2617 21.5557C27.7019 21.8172 26.2731 22.4619 25.0752 23.3896L23.4629 23.3369C25.0772 21.749 27.2009 20.6777 29.5645 20.3926Z" fill="#444856"/>
<path d="M29.1211 14.0215C29.2485 14.3781 29.3589 14.7411 29.4512 15.1084C27.7606 16.0424 26.0141 17.2693 24.3213 18.6797L24.8613 16.7979C26.2721 15.7219 27.7091 14.779 29.1211 14.0215Z" fill="#444856"/>
<path d="M25.958 9.27441C26.2312 9.52343 26.4925 9.78512 26.7412 10.0586L23.4434 13.3574L21.1221 14.1094L25.958 9.27441Z" fill="#444856"/>
<path d="M20.915 6.55859C21.2818 6.6514 21.6439 6.76176 22 6.88965C20.7466 9.22737 18.986 11.6346 16.9512 13.8779L17.0928 11.9873C18.6084 10.2013 19.9269 8.34876 20.915 6.55859Z" fill="#444856"/>
<path d="M15.6279 6.4375C15.5209 7.33763 15.2971 8.22026 14.9619 9.0625L13.7461 9.09375C14.0886 8.34381 14.3311 7.55165 14.4658 6.73828C14.7521 6.64839 15.0417 6.5696 15.334 6.50195L15.6279 6.4375Z" fill="#444856"/>
<path fill-rule="evenodd" clip-rule="evenodd" d="M18 4C21.5849 4.00001 25.1702 5.3665 27.9023 8.09863C32.7361 12.9326 33.2921 20.436 29.5732 25.8857C29.8256 26.3077 29.9586 26.7906 29.958 27.2822C29.9578 28.7876 28.7379 30.0076 27.2324 30.0078C26.7359 30.0085 26.2479 29.8734 25.8232 29.6162C20.3786 33.2887 12.9132 32.718 8.09766 27.9023C3.26346 23.068 2.70681 15.5633 6.42676 10.1133C6.19776 9.71408 6.06644 9.25192 6.06641 8.75879C6.06641 7.25306 7.28712 6.03223 8.79297 6.03223C9.27168 6.03188 9.74229 6.158 10.1562 6.39844C12.5166 4.80014 15.258 4 18 4ZM7.19141 10.9648C3.92601 15.9655 4.48971 22.7251 8.88281 27.1182C13.5337 31.7686 20.8361 32.1275 25.8965 28.1953C27.1017 27.0854 26.9034 25.9203 24.7617 26.1279L24.7627 26.126L19.0088 26.7852L21.0576 17.9326L12.2197 20.7812L14.3145 12.167L8.74414 11.4844C8.1856 11.4753 7.64307 11.2936 7.19141 10.9648ZM18 5.10254C15.5636 5.10254 13.1276 5.79118 11.0049 7.16602C11.0069 7.16879 11.0087 7.17202 11.0107 7.1748C10.9487 7.20996 10.8884 7.24533 10.8291 7.28125C10.5197 7.48894 10.2173 7.7118 9.92285 7.94922C8.68795 9.07831 8.80869 10.2549 11.0615 10.2715L11.0605 10.2725L16.1191 10.1426L15.5996 17.0654L24.4541 14.1953L21.5303 24.3848L27.0322 24.5625C27.0982 24.5578 27.1653 24.5557 27.2324 24.5557C27.7929 24.5551 28.3397 24.7279 28.7979 25.0508C32.0742 20.0486 31.5147 13.2803 27.1172 8.88281C24.5971 6.36296 21.2986 5.10254 18 5.10254Z" fill="#444856"/>
<path d="M9 1H1V9H0V0H9V1Z" fill="#444856"/>
<path d="M36 9H35V1H27V0H36V9Z" fill="#444856"/>
</svg>
