<svg width="64" height="64" viewBox="0 0 64 64" fill="none" xmlns="http://www.w3.org/2000/svg">
<path d="M4 60H16V64H0V48H4V60Z" fill="white"/>
<path d="M64 64H48V60H60V48H64V64Z" fill="white"/>
<path d="M51.3643 48.2158L56.7959 48.0518L53.0879 51.249L53.3545 56.6611L49.8076 53.0518L44.5869 54.3877L47.8896 50.0645L46.3896 44.627L51.3643 48.2158Z" fill="white"/>
<path d="M52.5879 12.9121L57 14.4717L52.1074 16.208L50.5947 18.5479C63.8188 28.4264 55.48 48.0629 32.5029 37.2607L30.4766 36.4385L24.5576 37.4873L24.9795 31.4902L22.5547 26.9365C7.30437 33.016 20.2636 51.0521 45.6396 47.5381C33.3594 49.7955 23.7345 48.3734 17.1621 45.3574L16.6689 46.9395L19.8662 51.5586L14.915 49.6533L11.0859 52.9336L12.6777 48.4561L9.2002 44.3076L14.1553 45.8145L15.4121 44.4785C1.66802 36.9365 4.12158 22.0497 27.5547 24.8438L27.9893 24.7354L32.1611 20.4062L35.3418 25.5088L40.748 28.1367L36.8789 32.7402L36.3291 36.6982C57.3424 36.3956 49.6065 17.1592 28.1309 14.8398L26.2451 15.1289L24.4463 19.1064L23.6201 15.5498L17.8232 15.0693L23.0049 13.3389L22.9521 9.15137L25.4922 13.1943L27.6172 13.5469C36.8451 12.8152 43.7411 14.4341 48.5146 17.1855L48.3701 15.7676L43.9326 13.0664L49.0449 12.4443L50.9492 8L52.5879 12.9121Z" fill="white"/>
<path d="M11 15.2109L14.4971 15.3926L11.8887 17.2773L11.8164 20.3799L9.9668 17.9229L7.10156 18.2646L9.15137 15.9482L8.6416 13.2012L11 15.2109Z" fill="white"/>
<path d="M16 4H4V16H0V0H16V4Z" fill="white"/>
<path d="M64 16H60V4H48V0H64V16Z" fill="white"/>
</svg>
