<svg width="36" height="36" viewBox="0 0 36 36" fill="none" xmlns="http://www.w3.org/2000/svg">
<path d="M1 35H9V36H0V27H1V35Z" fill="#B9B29D"/>
<path d="M36 36H27V35H35V27H36V36Z" fill="#B9B29D"/>
<path d="M28.8924 27.1214L31.9477 27.0291L29.8619 28.8276L30.0119 31.8719L28.0168 29.8416L25.0801 30.5931L26.9379 28.1613L26.0942 25.1027L28.8924 27.1214Z" fill="#B9B29D"/>
<path d="M29.5807 7.26306L32.0625 8.14032L29.3104 9.117L28.4595 10.4332C35.8981 15.9899 31.2075 27.0354 18.2829 20.9592L17.1431 20.4966L13.8137 21.0866L14.051 17.7133L12.687 15.1518C4.10871 18.5715 11.3982 28.7168 25.6723 26.7402C18.7646 28.01 13.3507 27.21 9.65369 25.5135L9.37628 26.4034L11.1747 29.0017L8.38971 27.93L6.23584 29.7751L7.13123 27.2565L5.17511 24.923L7.96234 25.7706L8.66931 25.0192C0.938259 20.7768 2.31839 12.403 15.4995 13.9746L15.744 13.9136L18.0906 11.4785L19.8798 14.3487L22.9208 15.8269L20.7444 18.4164L20.4351 20.6428C32.2551 20.4725 27.9037 9.65207 15.8236 8.34741L14.7629 8.51001L13.751 10.7474L13.2863 8.74677L10.0256 8.4765L12.9402 7.50311L12.9106 5.14764L14.3394 7.42181L15.5347 7.62012C20.7254 7.20856 24.6044 8.1192 27.2895 9.66687L27.2082 8.86926L24.7121 7.34985L27.5878 6.99994L28.6589 4.5L29.5807 7.26306Z" fill="#B9B29D"/>
<path d="M6.1875 8.55615L8.1546 8.65833L6.68738 9.71851L6.64673 11.4637L5.60632 10.0816L3.99463 10.2739L5.14764 8.97089L4.8609 7.42566L6.1875 8.55615Z" fill="#B9B29D"/>
<path d="M9 1H1V9H0V0H9V1Z" fill="#B9B29D"/>
<path d="M36 9H35V1H27V0H36V9Z" fill="#B9B29D"/>
</svg>
