<svg width="36" height="36" viewBox="0 0 36 36" fill="none" xmlns="http://www.w3.org/2000/svg">
<path d="M1 35H9V36H0V27H1V35Z" fill="white"/>
<path d="M36 36H27V35H35V27H36V36Z" fill="white"/>
<path d="M17.6904 8.28516C18.3439 8.28516 18.9504 8.33828 19.5098 8.44238L19.5078 8.44043C19.5297 8.4445 19.5515 8.4489 19.5732 8.45312C19.6049 8.45929 19.6366 8.46518 19.668 8.47168C19.749 8.48848 19.8292 8.50731 19.9082 8.52637C19.9163 8.52831 19.9246 8.53026 19.9326 8.53223C20.0074 8.55053 20.0813 8.5695 20.1543 8.58984C20.177 8.59618 20.2001 8.60284 20.2227 8.60938C20.2977 8.63113 20.3722 8.65379 20.4453 8.67773C20.4727 8.6867 20.5002 8.69678 20.5273 8.70605C20.5821 8.7248 20.6368 8.74367 20.6904 8.76367C20.7116 8.77156 20.7329 8.77902 20.7539 8.78711C20.8245 8.81434 20.8943 8.84361 20.9629 8.87305C20.9854 8.88272 21.0079 8.89242 21.0303 8.90234C21.0452 8.90897 21.0604 8.91613 21.0752 8.92285C21.1175 8.94205 21.1597 8.96141 21.2012 8.98145C21.213 8.98716 21.2256 8.99226 21.2373 8.99805L21.2617 9.01074C21.3261 9.04284 21.3897 9.07613 21.4521 9.11035C21.472 9.12125 21.492 9.13244 21.5117 9.14355C21.5686 9.17566 21.6244 9.20926 21.6797 9.24316C21.6884 9.24851 21.6974 9.2534 21.7061 9.25879C21.7701 9.29858 21.8327 9.34058 21.8945 9.38281C21.9119 9.39468 21.9301 9.40591 21.9473 9.41797C22.01 9.46193 22.0715 9.50719 22.1318 9.55371L22.333 9.71484C22.8448 10.1493 23.2212 10.6693 23.4639 11.2744C23.4674 11.2832 23.4711 11.2919 23.4746 11.3008C23.5954 11.6083 23.6826 11.9378 23.7344 12.2891C23.7733 12.5529 23.793 12.8296 23.793 13.1182L23.7871 13.373C23.7837 13.4504 23.7781 13.5275 23.7715 13.6045C23.769 13.6334 23.7656 13.6626 23.7627 13.6914C23.7572 13.7453 23.7512 13.7998 23.7441 13.8535C23.7409 13.8785 23.737 13.9037 23.7334 13.9287C23.7259 13.9811 23.718 14.0337 23.709 14.0859C23.7036 14.1172 23.6983 14.1485 23.6924 14.1797C23.6834 14.227 23.6733 14.2751 23.6631 14.3223C23.6546 14.3617 23.6451 14.4011 23.6357 14.4404C23.6273 14.476 23.6185 14.5114 23.6094 14.5469C23.599 14.5869 23.5884 14.6271 23.5771 14.667C23.5661 14.7063 23.5549 14.746 23.543 14.7852C23.531 14.8246 23.5187 14.864 23.5059 14.9033C23.4991 14.9241 23.4924 14.9451 23.4854 14.9658C23.467 15.0201 23.4487 15.0748 23.4287 15.1289C23.3984 15.2108 23.3658 15.2917 23.332 15.3711C23.3008 15.4443 23.2676 15.5168 23.2334 15.5879C23.2184 15.619 23.2021 15.6499 23.1865 15.6807C23.1655 15.7222 23.1441 15.7639 23.1221 15.8047C23.1034 15.8392 23.0838 15.8733 23.0645 15.9072C23.0458 15.9399 23.0272 15.9727 23.0078 16.0049C22.9881 16.0377 22.9677 16.0702 22.9473 16.1025C22.9219 16.1426 22.8957 16.1824 22.8691 16.2217C22.8499 16.2502 22.8303 16.2786 22.8105 16.3066C22.7892 16.3369 22.7672 16.3667 22.7451 16.3965C22.7194 16.4312 22.6936 16.4659 22.667 16.5C22.6438 16.5296 22.6196 16.5588 22.5957 16.5879C22.5707 16.6185 22.5463 16.6497 22.5205 16.6797C22.4755 16.732 22.4292 16.7833 22.3818 16.834C22.375 16.8413 22.3682 16.8491 22.3613 16.8564C21.8934 17.3424 21.327 17.6717 20.6611 17.8428C20.7087 17.8428 20.756 17.8431 20.8027 17.8447C21.0372 17.853 21.2611 17.8821 21.4736 17.9316C21.5587 17.9515 21.6421 17.9745 21.7236 18.001C21.805 18.0274 21.885 18.0569 21.9629 18.0898C22.1969 18.1889 22.4157 18.318 22.6182 18.4766C22.6343 18.489 22.6501 18.502 22.666 18.5146C22.6916 18.5353 22.7171 18.5562 22.7422 18.5771C22.7519 18.5853 22.7619 18.5933 22.7715 18.6016C22.8049 18.63 22.8378 18.659 22.8701 18.6885C22.877 18.6948 22.8838 18.7017 22.8906 18.708C22.9211 18.7362 22.95 18.7658 22.9795 18.7949C23.0763 18.8904 23.1683 18.9903 23.2549 19.0957C23.2666 19.11 23.2785 19.1242 23.29 19.1387C23.3181 19.1738 23.3451 19.2099 23.3721 19.2461C23.3869 19.2661 23.4015 19.2863 23.416 19.3066C23.4381 19.3376 23.4601 19.3687 23.4814 19.4004C23.4966 19.423 23.5116 19.4458 23.5264 19.4688C23.6575 19.6723 23.7743 19.8902 23.874 20.124C24.0688 20.5806 24.1958 21.0561 24.2588 21.5498C24.2621 21.5751 24.2646 21.6006 24.2676 21.626C24.2727 21.6711 24.2772 21.7163 24.2812 21.7617C24.2844 21.7962 24.2875 21.8306 24.29 21.8652C24.2936 21.9158 24.2966 21.9666 24.2988 22.0176C24.3026 22.1014 24.3057 22.1857 24.3057 22.2705L24.3018 22.4912C24.2649 23.5854 23.951 24.5334 23.3604 25.335C22.7304 26.1808 21.885 26.834 20.8232 27.293C20.229 27.5469 19.5966 27.7254 18.9277 27.8359V27.8398C18.7252 27.8733 18.519 27.8981 18.3096 27.918C18.2671 27.9221 18.2244 27.9261 18.1816 27.9297C18.0956 27.9367 18.009 27.9423 17.9219 27.9473C17.7218 27.9588 17.5186 27.9678 17.3125 27.9678C16.5001 27.9678 15.7106 27.8865 14.9434 27.7285C14.8963 27.7189 14.8496 27.7084 14.8027 27.6982C14.7559 27.688 14.7088 27.6788 14.6621 27.668C14.5553 27.6433 14.4487 27.6178 14.3428 27.5898C14.2309 27.5603 14.1208 27.5277 14.0117 27.4941C13.9731 27.4823 13.9348 27.4694 13.8965 27.457C13.8299 27.4355 13.7638 27.4137 13.6982 27.3906C13.6533 27.3749 13.6089 27.3583 13.5645 27.3418C13.5045 27.3195 13.4448 27.297 13.3857 27.2734C13.3358 27.2536 13.2866 27.2327 13.2373 27.2119C13.1964 27.1946 13.1557 27.1771 13.1152 27.1592C12.64 26.9494 12.1938 26.6981 11.7783 26.4014L12.9121 23.3232C13.0002 23.4083 13.0927 23.4888 13.1875 23.5674C13.5303 23.8519 13.916 24.0948 14.3457 24.2959C14.4197 24.3305 14.4947 24.3643 14.5713 24.3965C14.6402 24.4255 14.7092 24.4545 14.7803 24.4814C14.7829 24.4824 14.7855 24.4834 14.7881 24.4844L15.0635 24.5791C15.2995 24.655 15.5353 24.7156 15.7686 24.7637C15.8468 24.7797 15.925 24.7947 16.0029 24.8076C16.0926 24.8225 16.1822 24.8349 16.2715 24.8457C16.3932 24.8603 16.5148 24.8719 16.6357 24.8789C16.7449 24.8852 16.8534 24.8896 16.9619 24.8896C17.5219 24.8896 18.0132 24.8275 18.4355 24.7051C18.6168 24.6525 18.7855 24.5886 18.9414 24.5137C19.1584 24.4091 19.3507 24.283 19.5186 24.1348C19.5585 24.0995 19.5976 24.0632 19.6348 24.0254L19.6562 24.0029C19.8756 23.7793 20.0492 23.533 20.1826 23.2666H20.1855C20.3209 22.9963 20.4127 22.7042 20.46 22.3896C20.4642 22.3615 20.4682 22.3332 20.4717 22.3047C20.4731 22.2934 20.4743 22.2818 20.4756 22.2705C20.4846 22.1905 20.4916 22.1091 20.4951 22.0264L20.498 21.8652C20.498 21.7963 20.4964 21.7289 20.4932 21.6631C20.4927 21.6534 20.4927 21.6434 20.4922 21.6338C20.4641 21.1408 20.3441 20.7371 20.1328 20.4229L20.1318 20.4219C20.0796 20.3443 20.0224 20.2717 19.959 20.2051C19.7463 19.9705 19.4917 19.781 19.1963 19.6357C19.1586 19.6172 19.1201 19.6002 19.0811 19.583C18.9213 19.5131 18.7507 19.4538 18.5684 19.4082C18.1363 19.3002 17.6809 19.233 17.2031 19.2061C17.0442 19.1971 16.8827 19.1924 16.7188 19.1924H15.2871V16.5195H16.7451L16.9502 16.5166C17.1253 16.5111 17.2925 16.4956 17.4521 16.4756C17.5829 16.4587 17.7086 16.4383 17.8291 16.4121C18.2814 16.314 18.661 16.1495 18.9678 15.915C19.0511 15.8513 19.1296 15.7828 19.2021 15.709C19.2378 15.6727 19.2724 15.6361 19.3057 15.5986H19.3027C19.3752 15.5173 19.4437 15.4347 19.5049 15.3477L19.5898 15.2197C19.6084 15.19 19.6252 15.1593 19.6426 15.1289C19.7435 14.9526 19.8244 14.7665 19.8838 14.5693C19.8929 14.539 19.902 14.5084 19.9102 14.4775C19.9247 14.4226 19.9378 14.367 19.9492 14.3105C19.9562 14.2762 19.963 14.241 19.9688 14.2061C19.9716 14.1887 19.974 14.1708 19.9766 14.1533C19.9818 14.1178 19.9871 14.082 19.9912 14.0459C19.994 14.0213 19.9958 13.9965 19.998 13.9717C20.0028 13.9184 20.0075 13.8641 20.0098 13.8096L20.0127 13.6572C20.0127 13.6474 20.0118 13.6376 20.0117 13.6279C20.0068 12.8903 19.8175 12.3537 19.4434 12.0166C19.4019 11.9793 19.3585 11.9435 19.3125 11.9111L19.2158 11.8486C19.0664 11.7575 18.8992 11.6787 18.7148 11.6133C18.6442 11.5882 18.5709 11.5653 18.4951 11.5439C18.2316 11.4699 17.9368 11.4182 17.6113 11.3896C17.4071 11.3717 17.1905 11.3623 16.9619 11.3623C16.6111 11.3623 16.1881 11.4259 15.6934 11.5518C15.5502 11.5889 15.4069 11.6324 15.2637 11.6797C15.1132 11.7293 14.964 11.7852 14.8135 11.8457C14.6207 11.9237 14.4271 12.0091 14.2344 12.1055C14.1425 12.1514 14.0538 12.1999 13.9678 12.25C13.5987 12.4649 13.2822 12.718 13.0195 13.0098L11.6699 10.1475C11.7196 10.1042 11.7709 10.061 11.8242 10.0186C11.8372 10.0082 11.851 9.9976 11.8643 9.9873C11.8921 9.96563 11.9214 9.94528 11.9502 9.92383C11.9919 9.89281 12.0344 9.8616 12.0781 9.83105C12.1158 9.80468 12.1541 9.77798 12.1934 9.75195C12.2305 9.72733 12.2691 9.70301 12.3076 9.67871C12.3497 9.65213 12.3919 9.62483 12.4355 9.59863C12.4746 9.57525 12.5154 9.55335 12.5557 9.53027C12.7476 9.42017 12.9539 9.31323 13.1748 9.20996C13.183 9.20616 13.191 9.20205 13.1992 9.19824C13.2397 9.17946 13.2818 9.16214 13.3232 9.14355C13.4025 9.10815 13.4826 9.07068 13.5654 9.03613C13.7152 8.97321 13.8708 8.91157 14.0322 8.85156C14.5587 8.65759 15.1362 8.51338 15.7646 8.41895C15.7951 8.41436 15.8258 8.40963 15.8564 8.40527C15.8843 8.40134 15.9124 8.39823 15.9404 8.39453L16.0811 8.37695C16.1014 8.37448 16.1221 8.37151 16.1426 8.36914L16.7109 8.31738C16.7614 8.31391 16.8122 8.31053 16.8633 8.30762L17.0049 8.30078C17.027 8.29975 17.0491 8.29888 17.0713 8.29785C17.1008 8.2964 17.1304 8.295 17.1602 8.29395C17.2029 8.29244 17.2459 8.29118 17.2891 8.29004C17.3463 8.28852 17.404 8.28699 17.4619 8.28613C17.537 8.28503 17.6142 8.28516 17.6904 8.28516Z" fill="white"/>
<path d="M28.9648 24.5381H27.835V22.4902H26.3018C26.3036 22.4172 26.3057 22.344 26.3057 22.2705C26.3057 21.9639 26.2856 21.6605 26.25 21.3604H28.9648V24.5381Z" fill="white"/>
<path d="M27.1221 14.4131H25.9912V11.5928H25.6396C25.5574 11.1996 25.4415 10.8221 25.292 10.4619H27.1221V14.4131Z" fill="white"/>
<path fill-rule="evenodd" clip-rule="evenodd" d="M26.3398 6.80664H30.4287V18.2822H31.9805V27.9648H26.2168V30.7178H15.4902V31.5H5.50586V20.0049H7.33398V13.6875H5.5V5.89355H15.9404V3.5H26.3398V6.80664ZM17.0713 6.29492C17.0084 6.29733 16.9353 6.30161 16.9111 6.30273C16.8891 6.30375 16.8077 6.30721 16.749 6.31055L16.5732 6.32227C16.3525 6.33738 16.1312 6.35656 15.9121 6.38184C15.8889 6.38452 15.8684 6.38727 15.8574 6.38867C15.8505 6.38956 15.8475 6.39015 15.8438 6.39062C15.841 6.39098 15.8398 6.39062 15.8398 6.39062C15.7564 6.40071 15.6665 6.41286 15.5752 6.42578C15.5334 6.43172 15.482 6.43912 15.4668 6.44141C14.7222 6.55333 14.0108 6.72777 13.3408 6.97461L13.3359 6.97656C13.2958 6.9915 13.2565 7.00829 13.2168 7.02344H6.63086V12.5566H10.5947L11.1279 13.6875H8.46387V20.0049H10.2881V16.4375H12.4258H12.625H13.2871V17.5684H11.4189V21.5898L10.3848 24.3965H10.2881V21.1367H6.63574V30.3701H14.3604V29.6494C15.3214 29.8613 16.3064 29.9678 17.3125 29.9678C18.3425 29.9678 19.3346 29.842 20.2812 29.5869H25.084V27.9648H23.5732C23.9939 27.6297 24.3782 27.2532 24.7236 26.835H30.8496V19.4131H25.7432C25.733 19.3885 25.7243 19.3633 25.7139 19.3389C25.5546 18.9657 25.3627 18.613 25.1396 18.2822H29.2979V7.93652H23.3076L23.0947 7.78027C23.0748 7.76631 23.0573 7.75387 23.0459 7.74609C23.0291 7.73469 23.0306 7.73604 23.0225 7.73047C22.9477 7.67938 22.8591 7.62008 22.7617 7.55957C22.7508 7.5528 22.7413 7.54716 22.7344 7.54297C22.7299 7.54024 22.7257 7.53794 22.7227 7.53613C22.6426 7.48707 22.5654 7.44255 22.4941 7.40234C22.4887 7.39928 22.4881 7.39855 22.4707 7.38867C22.458 7.38147 22.4375 7.36979 22.4131 7.35645L22.1533 7.2207L22.1318 7.20898L22.1201 7.2041L22.0645 7.17773C22.0518 7.17192 22.0412 7.16646 22.0381 7.16504L22.04 7.16602L22.0723 7.18164C21.9945 7.14403 21.9173 7.10871 21.8418 7.0752C21.8418 7.0752 21.8403 7.07433 21.8379 7.07324C21.8361 7.07242 21.8339 7.07161 21.8311 7.07031C21.8285 7.06914 21.8249 7.06707 21.8213 7.06543C21.8075 7.05921 21.7821 7.04712 21.752 7.03418C21.6629 6.99596 21.5697 6.95794 21.4736 6.9209C21.4423 6.90881 21.4147 6.899 21.4023 6.89453L21.3887 6.88965C21.3158 6.86246 21.2443 6.83726 21.1748 6.81348C21.1677 6.81105 21.1643 6.80998 21.1543 6.80664H25.207L25.209 4.63086H17.0713V6.29492Z" fill="white"/>
<path d="M9 1H1V9H0V0H9V1Z" fill="white"/>
<path d="M36 9L35 8.99805V1H27V0H36V9Z" fill="white"/>
</svg>
