<svg width="36" height="36" viewBox="0 0 36 36" fill="none" xmlns="http://www.w3.org/2000/svg">
<path d="M1 35H9V36H0V27H1V35Z" fill="white"/>
<path d="M36 36H27V35H35V27H36V36Z" fill="white"/>
<path fill-rule="evenodd" clip-rule="evenodd" d="M23.2744 21.541H25.542V24.1602H23.2744V27.5625H19.7373V24.1602H10.8271L10.6377 23.8633L17.5771 8.74316H23.2744V21.541ZM16.9834 18.1934L15.4443 21.541H19.8994L20.0205 10.6738L16.9834 18.1934Z" fill="white"/>
<path d="M28.9648 24.5381H27.835V22.4902H27.542V21.3604H28.9648V24.5381Z" fill="white"/>
<path d="M27.1221 14.4131H25.9912V11.5928H25.2744V10.4619H27.1221V14.4131Z" fill="white"/>
<path d="M14.7881 10.0254H9.84961V8.89551H15.3066L14.7881 10.0254Z" fill="white"/>
<path fill-rule="evenodd" clip-rule="evenodd" d="M26.3398 6.80664H30.4287V18.2822H31.9805V27.9648H26.2168V30.7178H15.4902V31.5H5.50586V20.0049H7.33398V13.6875H5.5V5.89355H15.9404V3.5H26.3398V6.80664ZM17.0713 6.74316H16.2939L16.1652 7.02344H6.63086V12.5566H11.9385V13.6875H8.46387V20.0049H10.208L9.68848 21.1367H6.63574V30.3701H14.3604V27.7646H9.7627V26.6348H15.4912V29.5869H25.084V29.5625H25.2744V26.835H30.8496V19.4131H25.2744V18.2822H29.2979V7.93652H25.2744V6.74316H25.207L25.209 4.63086H17.0713V6.74316Z" fill="white"/>
<path d="M9 1H1V9H0V0H9V1Z" fill="white"/>
<path d="M36 9H35V1H27V0H36V9Z" fill="white"/>
</svg>
