<svg width="36" height="36" viewBox="0 0 36 36" fill="none" xmlns="http://www.w3.org/2000/svg">
<path d="M1 35H9V36H0V27H1V35Z" fill="white"/>
<path d="M36 36H27V35H35V27.0137L36 27V36Z" fill="white"/>
<path fill-rule="evenodd" clip-rule="evenodd" d="M19.3633 8.28418C19.8389 8.28419 20.2736 8.30248 20.667 8.33789C20.8084 8.35065 20.9444 8.36555 21.0752 8.38281C21.1871 8.39754 21.2953 8.41346 21.3994 8.43164C21.4792 8.44555 21.5567 8.46044 21.6318 8.47656C21.876 8.5282 22.0959 8.59085 22.292 8.66309C22.9848 8.906 23.5475 9.23834 23.9795 9.66113L22.6572 12.2539C22.3966 11.9672 22.0716 11.7475 21.6836 11.5928C21.5357 11.5338 21.3792 11.4831 21.2129 11.4434C20.7608 11.3354 20.3359 11.2682 19.9395 11.2412C19.8734 11.2367 19.8077 11.2327 19.7432 11.2305C19.6787 11.2282 19.6147 11.2275 19.5518 11.2275C18.865 11.2276 18.2444 11.3793 17.6885 11.6797C17.6475 11.7018 17.6078 11.7246 17.5674 11.748C17.508 11.7831 17.4484 11.8189 17.3906 11.8574C17.2945 11.9216 17.2003 11.9905 17.1084 12.0645L16.9824 12.1709C16.3581 12.7124 15.8595 13.3926 15.4883 14.2109C15.0923 15.0749 14.8628 15.9705 14.7998 16.8975C14.7908 17.0864 14.7815 17.2619 14.7725 17.4238V17.8965C14.8109 17.8225 14.8517 17.7505 14.8926 17.6797C14.9025 17.6625 14.9127 17.645 14.9229 17.6279C14.9468 17.5875 14.9713 17.5471 14.9961 17.5078C15.0139 17.4796 15.0316 17.4515 15.0498 17.4238C15.0776 17.3816 15.1069 17.3398 15.1357 17.2988C15.1483 17.281 15.1601 17.2627 15.1729 17.2451C15.4615 16.8461 15.7984 16.5094 16.1836 16.2354C16.1869 16.233 16.191 16.2299 16.1943 16.2275C16.2117 16.2153 16.2295 16.2034 16.2471 16.1914C16.2877 16.1636 16.3294 16.1368 16.3711 16.1104C16.4761 16.0437 16.5847 15.982 16.6963 15.9238C16.7386 15.9018 16.7819 15.8792 16.8252 15.8584C16.8316 15.8553 16.8383 15.8526 16.8447 15.8496C17.2146 15.6754 17.5922 15.5379 17.9775 15.4365C18.1841 15.3821 18.3926 15.3372 18.6035 15.3037C18.6097 15.3027 18.6159 15.3017 18.6221 15.3008L18.8311 15.2725C18.8457 15.2707 18.8603 15.2683 18.875 15.2666C18.9509 15.2579 19.0271 15.2502 19.1035 15.2441C19.1188 15.2429 19.1341 15.2423 19.1494 15.2412L19.3379 15.2305L19.3945 15.2285C19.4736 15.2257 19.5531 15.2236 19.6328 15.2236L19.8584 15.2266C20.001 15.2306 20.1412 15.2382 20.2783 15.25C20.3081 15.2526 20.3377 15.2559 20.3672 15.2588C20.412 15.2632 20.4568 15.2682 20.501 15.2734C20.5103 15.2746 20.52 15.2762 20.5293 15.2773C20.5747 15.283 20.6202 15.2884 20.665 15.2949L20.7168 15.3027C20.7284 15.3045 20.7404 15.3068 20.752 15.3086C20.7986 15.316 20.8447 15.3246 20.8906 15.333C20.9158 15.3376 20.9418 15.3418 20.9668 15.3467C21.0094 15.3551 21.0517 15.3638 21.0938 15.373C21.1166 15.3781 21.1395 15.3834 21.1621 15.3887C21.1996 15.3974 21.2374 15.4066 21.2744 15.416C21.3 15.4225 21.3253 15.4297 21.3506 15.4365C21.39 15.4472 21.4299 15.4582 21.4688 15.4697C21.4905 15.4761 21.5126 15.4826 21.5342 15.4893C21.5769 15.5025 21.6191 15.517 21.6611 15.5312C21.6758 15.5362 21.6905 15.5408 21.7051 15.5459L21.8809 15.6104C21.9226 15.6267 21.9639 15.6438 22.0049 15.6611C22.0265 15.6703 22.0489 15.68 22.0703 15.6895C22.1025 15.7037 22.1343 15.7186 22.166 15.7334C22.1878 15.7436 22.2099 15.7532 22.2314 15.7637C22.269 15.7819 22.3059 15.8011 22.3428 15.8203C22.3613 15.83 22.3801 15.8397 22.3984 15.8496C22.4897 15.8987 22.5788 15.951 22.666 16.0059L22.6982 16.0254L22.7109 16.0332C22.844 16.1167 22.9719 16.2052 23.0947 16.2979C23.1135 16.312 23.1328 16.3264 23.1514 16.3408C23.1782 16.3617 23.2041 16.384 23.2305 16.4053C23.251 16.4219 23.2718 16.4382 23.292 16.4551C23.3093 16.4695 23.3266 16.4844 23.3438 16.499C23.3734 16.5244 23.4036 16.5492 23.4326 16.5752C23.4419 16.5835 23.4508 16.5922 23.46 16.6006C23.4896 16.6276 23.5189 16.655 23.5479 16.6826C23.5755 16.709 23.6029 16.7357 23.6299 16.7627C23.6444 16.7772 23.6585 16.792 23.6729 16.8066C23.6958 16.8302 23.7187 16.854 23.7412 16.8779C23.756 16.8937 23.7706 16.9098 23.7852 16.9258C23.8113 16.9544 23.8378 16.9835 23.8633 17.0127C23.8788 17.0304 23.894 17.0484 23.9092 17.0664C23.9272 17.0877 23.9462 17.1092 23.9639 17.1309C23.9867 17.1587 24.009 17.1874 24.0312 17.2158C24.0437 17.2317 24.0561 17.2476 24.0684 17.2637C24.094 17.2972 24.1197 17.331 24.1445 17.3652C24.1521 17.3756 24.1595 17.386 24.167 17.3965C24.2257 17.4788 24.2808 17.5641 24.335 17.6504C24.3476 17.6705 24.3607 17.6906 24.373 17.7109C24.3812 17.7243 24.3895 17.7375 24.3975 17.751C24.4188 17.7868 24.4404 17.8229 24.4609 17.8594C24.4825 17.8975 24.5027 17.9367 24.5234 17.9756C24.5272 17.9827 24.5314 17.9899 24.5352 17.9971C24.5669 18.0573 24.5982 18.1186 24.6279 18.1807L24.6758 18.2822L24.707 18.3496L24.8398 18.6738C24.8519 18.7055 24.8625 18.7377 24.874 18.7695C24.8835 18.7957 24.8932 18.8223 24.9023 18.8486C24.9127 18.8785 24.9227 18.9084 24.9326 18.9385C24.9421 18.9673 24.9518 18.9964 24.9609 19.0254C24.969 19.0511 24.9766 19.0776 24.9844 19.1035C24.995 19.139 25.0065 19.1742 25.0166 19.21C25.021 19.2257 25.025 19.242 25.0293 19.2578C25.042 19.3043 25.0537 19.3515 25.0654 19.3984C25.0704 19.4183 25.0763 19.438 25.0811 19.458C25.0876 19.4851 25.0934 19.5128 25.0996 19.54C25.1092 19.5825 25.1191 19.6252 25.1279 19.668C25.1302 19.6791 25.1325 19.691 25.1348 19.7021C25.1427 19.7416 25.15 19.7815 25.1572 19.8213C25.1619 19.8466 25.1665 19.872 25.1709 19.8975C25.1881 19.9979 25.2029 20.0998 25.2158 20.2021C25.2173 20.2141 25.2193 20.2263 25.2207 20.2383C25.2344 20.3514 25.2453 20.4657 25.2539 20.5811C25.2551 20.5975 25.2567 20.6144 25.2578 20.6309C25.2696 20.8057 25.2754 20.9831 25.2754 21.1631C25.2754 21.3583 25.2694 21.5504 25.2578 21.7383C25.2575 21.7428 25.2571 21.7474 25.2568 21.752C25.251 21.8436 25.2439 21.9345 25.2354 22.0244C25.2333 22.0459 25.2317 22.0674 25.2295 22.0889C25.2212 22.1689 25.2107 22.2485 25.2002 22.3271C25.1972 22.3499 25.1946 22.3729 25.1914 22.3955C25.1636 22.5909 25.1285 22.7821 25.0869 22.9688C25.0849 22.978 25.0832 22.9878 25.0811 22.9971C25.0166 23.281 24.9364 23.5547 24.8398 23.8184C24.8382 23.8229 24.8366 23.8275 24.835 23.832L24.834 23.8311C24.7132 24.1589 24.569 24.4721 24.3984 24.7686C23.9172 25.618 23.2716 26.3058 22.4639 26.835C22.4547 26.841 22.4458 26.8475 22.4365 26.8535C22.4245 26.8613 22.4124 26.8692 22.4004 26.877C22.3519 26.9079 22.3026 26.938 22.2529 26.9678C22.2277 26.983 22.2023 26.9988 22.1768 27.0137C22.1084 27.0534 22.0392 27.0932 21.9688 27.1309C21.9081 27.1635 21.8461 27.195 21.7842 27.2256C21.7054 27.2648 21.6249 27.3004 21.5439 27.3359C20.7166 27.7058 19.7877 27.9145 18.7549 27.958C18.7419 27.9586 18.7288 27.9585 18.7158 27.959C18.5911 27.9637 18.4646 27.9678 18.3369 27.9678L18.0381 27.9609C17.9576 27.9576 17.8772 27.9524 17.7969 27.9463C17.1838 27.8995 16.5775 27.7734 15.9775 27.5684C15.8954 27.5408 15.8132 27.5124 15.7314 27.4814C15.6528 27.4516 15.5753 27.419 15.498 27.3857C15.4789 27.3775 15.4595 27.3698 15.4404 27.3613C15.3653 27.3281 15.2906 27.2934 15.2168 27.2568C15.2015 27.2493 15.1861 27.2411 15.1709 27.2334C15.0904 27.1926 15.0106 27.1501 14.9316 27.1055C14.8232 27.0441 14.7169 26.9779 14.6113 26.9092C14.4845 26.8266 14.3599 26.7388 14.2373 26.6455C14.2323 26.6417 14.2267 26.6386 14.2217 26.6348C13.9394 26.4187 13.6686 26.1753 13.4092 25.9023C12.8468 25.2955 12.3779 24.5261 11.998 23.5967C11.9906 23.5785 11.983 23.5603 11.9756 23.542C11.9429 23.4607 11.9102 23.3786 11.8789 23.2949C11.8753 23.2852 11.8718 23.2754 11.8682 23.2656C11.8324 23.1693 11.7966 23.0722 11.7627 22.9727C11.6076 22.5072 11.4835 22.0004 11.3877 21.4531C11.3725 21.3665 11.3574 21.2791 11.3438 21.1904C11.3288 21.0934 11.3159 20.995 11.3027 20.8955C11.2909 20.8063 11.279 20.7162 11.2686 20.625C11.2583 20.5345 11.2491 20.443 11.2402 20.3506C11.2364 20.3104 11.2331 20.27 11.2295 20.2295C11.2132 20.0457 11.1993 19.8583 11.1885 19.667C11.1858 19.6194 11.183 19.5715 11.1807 19.5234C11.1694 19.2941 11.1607 19.0593 11.1572 18.8193L11.1553 18.4902C11.1553 18.471 11.1552 18.4518 11.1553 18.4326C11.1557 18.2911 11.1575 18.1506 11.1611 18.0117C11.1624 17.9649 11.1654 17.9176 11.167 17.8711C11.1715 17.7383 11.1771 17.6068 11.1846 17.4766C11.1851 17.4671 11.185 17.4577 11.1855 17.4482C11.2214 16.8418 11.2897 16.262 11.3896 15.709C11.3921 15.6956 11.395 15.6823 11.3975 15.6689C11.4119 15.5904 11.4266 15.512 11.4424 15.4346C11.4507 15.3938 11.4591 15.353 11.4678 15.3125C11.4821 15.2453 11.4973 15.1787 11.5127 15.1123C11.5194 15.0833 11.5263 15.0543 11.5332 15.0254C11.5746 14.8522 11.6187 14.6812 11.667 14.5137C11.6751 14.4856 11.6841 14.4576 11.6924 14.4297C11.8359 13.946 12.0069 13.4855 12.208 13.0498C12.4191 12.5955 12.654 12.1729 12.9111 11.7812C12.9133 11.7779 12.9158 11.7748 12.918 11.7715C13.1059 11.4862 13.3062 11.2178 13.5186 10.9658C13.536 10.9451 13.5537 10.9247 13.5713 10.9043C13.6272 10.8394 13.6837 10.7746 13.7412 10.7119C13.7524 10.6997 13.7641 10.6879 13.7754 10.6758C13.8394 10.607 13.9047 10.5397 13.9707 10.4736C13.978 10.4663 13.9848 10.4585 13.9922 10.4512L14.0439 10.3984C14.178 10.268 14.3178 10.1447 14.46 10.0254H14.457C14.4822 10.0043 14.5078 9.98367 14.5332 9.96289C14.554 9.9459 14.5747 9.92887 14.5957 9.91211C14.6759 9.84796 14.7571 9.7853 14.8398 9.72461L15.124 9.52637C15.213 9.46703 15.3027 9.40946 15.3936 9.35449C15.4845 9.29967 15.5764 9.24713 15.6689 9.19629C15.6926 9.18329 15.7165 9.17092 15.7402 9.1582L15.8955 9.07715C15.9144 9.06764 15.9332 9.05816 15.9521 9.04883C16.0159 9.01738 16.08 8.98654 16.1445 8.95703L16.21 8.92871C16.2696 8.90213 16.3293 8.87552 16.3896 8.85059L16.4814 8.81445L16.6318 8.75586C16.6722 8.74088 16.7132 8.72618 16.7539 8.71191C16.803 8.69469 16.8528 8.67829 16.9023 8.66211L16.9941 8.63281C17.0198 8.62482 17.0456 8.61728 17.0713 8.60938C17.1035 8.59965 17.1356 8.58931 17.168 8.58008C17.1938 8.57271 17.2201 8.56568 17.2461 8.55859C17.3142 8.54 17.3832 8.52256 17.4521 8.50586C17.4648 8.5028 17.4775 8.50007 17.4902 8.49707C17.5656 8.47923 17.6415 8.46187 17.7178 8.44629C17.7237 8.44509 17.7295 8.44358 17.7354 8.44238C18.2328 8.34209 18.751 8.29058 19.2881 8.28613C19.3131 8.28592 19.3382 8.28418 19.3633 8.28418ZM18.8232 17.9775C18.4968 17.9775 18.1771 18.0236 17.8643 18.1133C17.6217 18.1827 17.3829 18.2788 17.1484 18.4023C17.1352 18.4093 17.1216 18.4157 17.1084 18.4229C16.7544 18.6117 16.4398 18.8442 16.1631 19.1182C16.1107 19.1701 16.0595 19.2235 16.0098 19.2783C15.9219 19.3756 15.837 19.4771 15.7578 19.584C15.407 20.0699 15.2137 20.6056 15.1777 21.1904C15.1777 21.8084 15.2765 22.3894 15.4736 22.9326C15.5033 23.0142 15.5353 23.0949 15.5693 23.1748C15.5832 23.2057 15.5997 23.2354 15.6143 23.2656L15.7031 23.4453C15.7674 23.5649 15.8359 23.6799 15.9102 23.7891L16.1045 24.0479C16.1727 24.1305 16.2445 24.2095 16.3193 24.2852C16.3244 24.2903 16.3298 24.2956 16.335 24.3008C16.368 24.3338 16.403 24.3648 16.4375 24.3965C16.5109 24.4641 16.5857 24.5293 16.665 24.5908C16.6826 24.6044 16.699 24.6195 16.7168 24.6328C17.0368 24.8671 17.3971 25.025 17.7969 25.1104C17.8729 25.1266 17.9505 25.1392 18.0293 25.1504C18.166 25.1692 18.3068 25.1828 18.4521 25.1855L18.5254 25.1865C18.6626 25.1865 18.7967 25.1759 18.9277 25.1592C18.9499 25.1563 18.9722 25.1556 18.9941 25.1523C19.0446 25.1448 19.095 25.1361 19.1445 25.126L19.291 25.0918C19.7781 24.9652 20.2183 24.7119 20.6104 24.332C20.6495 24.2941 20.6884 24.2552 20.7266 24.2148C20.7905 24.1472 20.8499 24.0759 20.9072 24.0029C20.954 23.9434 20.9977 23.8814 21.04 23.8184C21.1548 23.6473 21.2541 23.4637 21.3369 23.2666C21.3979 23.1215 21.4516 22.9699 21.4951 22.8105C21.5872 22.473 21.6405 22.1033 21.6543 21.7021L21.6582 21.4873C21.6582 21.1583 21.6356 20.8491 21.5908 20.5605C21.564 20.3876 21.5293 20.2219 21.4863 20.0635C21.4577 19.9579 21.4254 19.855 21.3896 19.7559C21.3717 19.7062 21.3527 19.6574 21.333 19.6094C21.3107 19.5551 21.2863 19.5024 21.2617 19.4502C21.2209 19.3639 21.1778 19.2799 21.1309 19.1992C21.1058 19.1561 21.0796 19.1138 21.0527 19.0723C21.0259 19.0308 20.9983 18.99 20.9697 18.9502C20.9366 18.9034 20.902 18.8578 20.8662 18.8145C20.8373 18.7794 20.8061 18.7467 20.7754 18.7139C20.7202 18.6547 20.6634 18.5979 20.6025 18.5459C20.3819 18.3579 20.1238 18.2168 19.8291 18.1221L19.8281 18.1211C19.5309 18.0258 19.1959 17.9776 18.8232 17.9775Z" fill="white"/>
<path d="M11.4189 26.6348C11.584 26.8532 11.758 27.0627 11.9424 27.2617L11.9512 27.2705L11.96 27.2803C12.1206 27.4492 12.2866 27.6104 12.457 27.7646H9.7627V26.6348H11.4189Z" fill="white"/>
<path d="M28.9648 24.5381H27.835V22.4902H27.1953C27.2033 22.4279 27.2118 22.3626 27.2188 22.2949L27.2236 22.2363C27.225 22.2207 27.2253 22.2173 27.2256 22.2139C27.2356 22.1088 27.2455 21.9966 27.2529 21.8789C27.2544 21.8554 27.2554 21.8355 27.2559 21.8232V21.8076C27.2642 21.6617 27.2695 21.5124 27.2725 21.3604H28.9648V24.5381Z" fill="white"/>
<path d="M27.1221 14.4131H25.9912V11.5928H25.2393L25.8164 10.4619H27.1221V14.4131Z" fill="white"/>
<path d="M12.6494 8.96484L12.5537 9.06055C12.5474 9.06705 12.5421 9.073 12.54 9.0752L12.5557 9.05957C12.4734 9.14182 12.3916 9.22635 12.3105 9.31348C12.2986 9.32632 12.2834 9.34217 12.2676 9.35938C12.1908 9.44297 12.1201 9.52475 12.0557 9.59961C12.0532 9.60252 12.0515 9.60374 12.0381 9.61914C12.0279 9.63084 12.0098 9.65241 11.9893 9.67676C11.8934 9.79049 11.8003 9.90701 11.709 10.0254H9.84961V8.89551H12.7236C12.6991 8.91885 12.6737 8.94122 12.6494 8.96484Z" fill="white"/>
<path fill-rule="evenodd" clip-rule="evenodd" d="M26.3398 6.80664H30.4287V18.2822H31.9805V27.9648H26.2168V30.7178H15.4902V31.5H5.50586V20.0049H7.33398V13.6875H5.5V5.89355H15.9404V3.5H26.3398V6.80664ZM17.0713 6.54102C17.0571 6.54435 17.0431 6.54752 17.0293 6.55078C17.035 6.54943 17.04 6.54785 17.04 6.54785C17.04 6.54785 17.0395 6.54785 17.0352 6.54883C17.0315 6.54964 17.0241 6.55177 17.0156 6.55371C17.0067 6.55574 16.9943 6.55817 16.9805 6.56152C16.8871 6.58416 16.7992 6.6082 16.7197 6.62988C16.7082 6.63302 16.6607 6.64596 16.6211 6.65723C16.5424 6.67965 16.4671 6.70222 16.3984 6.72363L16.2812 6.76074L16.0918 6.8252L15.9365 6.88086L15.7432 6.95508L15.627 7.00195C15.61 7.00895 15.5935 7.01651 15.5771 7.02344H6.63086V12.5566H10.2402C10.085 12.9244 9.94921 13.302 9.8291 13.6875H8.46387V20.0049H9.20605C9.23227 20.3917 9.2701 20.769 9.31836 21.1367H6.63574V30.3701H14.3604V29.0625C14.4486 29.1057 14.5379 29.1487 14.6299 29.1895C14.6544 29.2003 14.6756 29.2098 14.6875 29.2148C14.7039 29.2218 14.7046 29.2222 14.708 29.2236C14.7934 29.2603 14.9026 29.3061 15.0225 29.3516C15.1402 29.3962 15.2511 29.4335 15.3418 29.4639C15.3913 29.4807 15.4416 29.4947 15.4912 29.5107V29.5869H15.7324C16.5816 29.837 17.4511 29.9677 18.3369 29.9678C18.5 29.9678 18.6545 29.9632 18.792 29.958H18.7998C18.8098 29.9577 18.8245 29.9568 18.8408 29.9561L18.8398 29.9551C19.6536 29.9208 20.438 29.7996 21.1865 29.5869H25.084V28.8037L25.1123 28.8604L25.8584 26.835H30.8496V19.4131H27.1152C27.1078 19.375 27.1011 19.3393 27.0947 19.3076V19.3057C27.0936 19.2998 27.0908 19.2825 27.0869 19.2637L27.0508 19.0977C27.0417 19.0575 27.0323 19.0199 27.0254 18.9912L27.0059 18.9121L26.959 18.7295L26.9414 18.667C26.9251 18.6092 26.9031 18.5398 26.8994 18.5273C26.8926 18.5045 26.8817 18.4658 26.8691 18.4258C26.8564 18.3852 26.8435 18.3472 26.832 18.3125C26.8302 18.3069 26.8267 18.2961 26.8223 18.2822H29.2979V7.93652H25.0479C24.4565 7.44265 23.7742 7.07394 23.0371 6.80664H25.207L25.209 4.63086H17.0713V6.54102Z" fill="white"/>
<path d="M9 1H1V9H0V0H9V1Z" fill="white"/>
<path d="M36 9H35V1H27V0H36V9Z" fill="white"/>
</svg>
