<svg width="36" height="36" viewBox="0 0 36 36" fill="none" xmlns="http://www.w3.org/2000/svg">
<path d="M1 35H9V36H0V27H1V35Z" fill="white"/>
<path d="M36 36H27V35H35V27H36V36Z" fill="white"/>
<path d="M26.3398 6.80664H30.4287V18.2822H31.9805V27.9648H26.2568V26.835H30.8496V19.4131H24.082C24.3906 19.0549 24.6694 18.6786 24.915 18.2822H29.2979V7.93652H23.4033L23.3408 7.88965C23.3159 7.87116 23.2799 7.845 23.2412 7.81738C23.2355 7.81331 23.2017 7.78863 23.1729 7.76855C23.1355 7.7425 23.0928 7.71355 23.0479 7.68359C23.0038 7.65429 22.9586 7.62556 22.9395 7.61328C22.9295 7.6069 22.8902 7.58118 22.8555 7.55957C22.7975 7.52352 22.7427 7.49161 22.7021 7.46777L22.7178 7.47656L22.7148 7.47461C22.7112 7.47235 22.7024 7.46695 22.6924 7.46094C22.6821 7.45472 22.668 7.44615 22.6514 7.43652C22.5843 7.3978 22.517 7.36248 22.4844 7.34473C22.4075 7.30291 22.3179 7.25459 22.2197 7.20605L22.2051 7.19922L22.1895 7.19141L22.0215 7.1123L22.0088 7.10645L21.7549 6.99316C21.7345 6.98449 21.7169 6.97688 21.709 6.97363C21.7034 6.97133 21.7026 6.97069 21.7002 6.96973L21.7012 6.9707C21.6242 6.93857 21.5498 6.90827 21.4785 6.88086C21.4657 6.87592 21.454 6.87227 21.4482 6.87012C21.4438 6.86844 21.4431 6.86819 21.4404 6.86719C21.3939 6.84955 21.3373 6.82852 21.2764 6.80664H25.207L25.209 4.63086H17.0713V6.33496C17.0439 6.33762 17.0166 6.33988 16.9893 6.34277C16.9798 6.34377 16.9657 6.34606 16.9512 6.34766C16.8417 6.35967 16.7376 6.37327 16.6426 6.38672L16.5723 6.39648C16.3505 6.42954 16.13 6.46993 15.9121 6.51855C15.8702 6.52791 15.8297 6.53827 15.8057 6.54395C15.7118 6.56609 15.6217 6.58858 15.5371 6.61133L15.541 6.61035C15.5378 6.61119 15.5308 6.61329 15.5234 6.61523L15.4941 6.62305C15.381 6.65407 15.2697 6.68719 15.1611 6.72168C15.1425 6.7276 15.1194 6.73499 15.1152 6.73633C15.0263 6.76515 14.9324 6.79703 14.8359 6.83203C14.8359 6.83203 14.7926 6.8476 14.7637 6.8584C14.6604 6.89693 14.5572 6.93764 14.4551 6.98047L14.4482 6.9834L14.4404 6.98633L14.4385 6.9873C14.4118 6.99854 14.386 7.01185 14.3594 7.02344H6.63086V12.5566H9.61719C9.60531 12.6084 9.59188 12.6598 9.58105 12.7119C9.57367 12.7475 9.56157 12.8077 9.5498 12.8711C9.53542 12.9485 9.52136 13.0287 9.50879 13.1104L9.41992 13.6875H8.46387V20.0049H10.2881V16.4375H13.2061L15.0713 17.3164V17.4092C15.0612 17.4157 15.0503 17.4235 15.0391 17.4307C14.9937 17.4595 14.9496 17.4879 14.9111 17.5127C14.8269 17.567 14.7415 17.622 14.6562 17.6787L14.5449 17.7539C14.4762 17.8002 14.4063 17.8488 14.3584 17.8818C14.3186 17.9093 14.2418 17.9611 14.1758 18.0078L13.9385 18.1787V17.5684H11.4189V20.6338C11.3884 20.6771 11.3568 20.7197 11.3271 20.7637C11.0834 21.125 10.8693 21.5037 10.6855 21.8975L10.6816 21.9053L10.6777 21.9141C10.5195 22.2615 10.3924 22.623 10.2881 22.9951V21.1367H6.63574V30.3701H14.3604V29.5625H15.4912V29.5869H25.084V29.5625H26.2168V30.7178H15.4902V31.5H5.50586V20.0049H7.33398V13.6875H5.5V5.89355H15.9404V3.5H26.3398V6.80664Z" fill="white"/>
<path d="M18.1279 8.28516C18.5819 8.28518 19.0188 8.3206 19.4385 8.39062C19.4507 8.39266 19.4624 8.39439 19.4746 8.39648C19.5271 8.40551 19.5799 8.41468 19.6318 8.4248C19.6475 8.42786 19.6631 8.43141 19.6787 8.43457C19.822 8.46352 19.9634 8.49583 20.1025 8.5332L20.3145 8.59375C20.3305 8.59863 20.3463 8.60437 20.3623 8.60938C20.4139 8.62548 20.4656 8.64187 20.5166 8.65918C20.5364 8.66589 20.5565 8.67279 20.5762 8.67969C20.6282 8.69793 20.68 8.7178 20.7314 8.7373C20.741 8.74094 20.7512 8.74437 20.7607 8.74805C20.8177 8.76997 20.8744 8.79293 20.9307 8.81641C20.9443 8.82209 20.9581 8.82723 20.9717 8.83301C21.0366 8.86063 21.1012 8.88923 21.165 8.91895L21.333 8.99902C21.3993 9.03182 21.465 9.0666 21.5293 9.10156C21.57 9.12372 21.6105 9.14592 21.6504 9.16895C21.663 9.17622 21.676 9.18404 21.6885 9.19141C21.7258 9.21338 21.7632 9.23507 21.7998 9.25781C21.8206 9.27074 21.8408 9.28467 21.8613 9.29785C21.8875 9.31459 21.9137 9.33149 21.9395 9.34863C21.9698 9.36883 22.0005 9.3894 22.0303 9.41016C22.0467 9.42162 22.0628 9.43369 22.0791 9.44531C22.103 9.46241 22.1268 9.47961 22.1504 9.49707C22.1764 9.51632 22.203 9.53597 22.2285 9.55566C22.2474 9.57022 22.2665 9.58481 22.2852 9.59961C22.3107 9.6199 22.3362 9.64039 22.3613 9.66113C22.3816 9.67785 22.4019 9.6949 22.4219 9.71191C22.4459 9.7324 22.4695 9.7535 22.4932 9.77441C22.5122 9.79123 22.5311 9.8081 22.5498 9.8252C22.5716 9.84512 22.5938 9.86544 22.6152 9.88574C22.6388 9.90807 22.6624 9.93132 22.6855 9.9541C22.6983 9.96667 22.711 9.97948 22.7236 9.99219C22.7494 10.0181 22.7755 10.0438 22.8008 10.0703C22.8255 10.0963 22.8498 10.1229 22.874 10.1494C22.8848 10.1613 22.8956 10.1736 22.9062 10.1855C22.9321 10.2144 22.9572 10.2439 22.9824 10.2734C22.9966 10.29 23.0114 10.3074 23.0254 10.3242C23.1357 10.457 23.2407 10.5956 23.3389 10.7412L23.4365 10.8936C23.4976 10.9928 23.5552 11.095 23.6084 11.1992C23.6227 11.2272 23.6357 11.2558 23.6494 11.2842C23.6599 11.3058 23.6705 11.3278 23.6807 11.3496C23.6943 11.379 23.7077 11.4087 23.7207 11.4385C23.7332 11.467 23.7459 11.4955 23.7578 11.5244C23.7638 11.5388 23.7696 11.5539 23.7754 11.5684C23.7919 11.6095 23.8088 11.6506 23.8242 11.6924C23.8301 11.7084 23.8351 11.7251 23.8408 11.7412C23.8542 11.7787 23.8674 11.8165 23.8799 11.8545C23.8901 11.8857 23.8995 11.9176 23.9092 11.9492C23.9166 11.9736 23.9245 11.9979 23.9316 12.0225C23.94 12.0515 23.9482 12.081 23.9561 12.1104C23.964 12.1398 23.9711 12.1695 23.9785 12.1992C23.9868 12.2325 23.9952 12.2661 24.0029 12.2998C24.0088 12.3254 24.015 12.3511 24.0205 12.377C24.0279 12.4115 24.0343 12.4465 24.041 12.4814C24.0469 12.512 24.0522 12.5433 24.0576 12.5742C24.0634 12.6075 24.07 12.6412 24.0752 12.6748C24.0791 12.7001 24.0833 12.7255 24.0869 12.751C24.092 12.7867 24.0961 12.8233 24.1006 12.8594C24.1029 12.8784 24.1053 12.8979 24.1074 12.917C24.1121 12.9581 24.1163 12.9994 24.1201 13.041C24.1235 13.0781 24.1261 13.1158 24.1289 13.1533C24.1312 13.1843 24.1339 13.2158 24.1357 13.2471C24.1371 13.2691 24.1385 13.2913 24.1396 13.3135C24.1444 13.4091 24.1477 13.5063 24.1484 13.6045C24.1486 13.6219 24.1484 13.6398 24.1484 13.6572L24.1465 13.875C24.144 13.983 24.139 14.0901 24.1328 14.1953C24.1297 14.2474 24.1261 14.2992 24.1221 14.3506C24.1084 14.526 24.0897 14.6978 24.0654 14.8652C24.0598 14.9042 24.0531 14.9429 24.0469 14.9814C24.0426 15.0082 24.0388 15.035 24.0342 15.0615C24.0281 15.0967 24.0212 15.1322 24.0146 15.167C24.0103 15.1898 24.0055 15.2127 24.001 15.2354C23.994 15.2704 23.987 15.3052 23.9795 15.3398C23.9746 15.3624 23.9699 15.3858 23.9648 15.4082C23.9548 15.4525 23.9435 15.4963 23.9326 15.54C23.9291 15.5539 23.9264 15.5682 23.9229 15.582C23.9118 15.6252 23.8996 15.6684 23.8877 15.7109C23.8807 15.736 23.8735 15.7613 23.8662 15.7861C23.8584 15.8129 23.851 15.8397 23.8428 15.8662C23.834 15.8946 23.8246 15.923 23.8154 15.9512C23.8095 15.9693 23.8029 15.9878 23.7969 16.0059L23.7783 16.0615L23.7705 16.083C23.6959 16.295 23.6104 16.4998 23.5137 16.6953L23.3457 17.0117C23.2939 17.1031 23.2384 17.1927 23.1816 17.2822C23.1503 17.3318 23.1178 17.3807 23.085 17.4297C23.0584 17.4692 23.0315 17.5087 23.0039 17.5479C22.9627 17.6066 22.9203 17.6647 22.877 17.7227C22.859 17.7466 22.8406 17.7702 22.8223 17.7939C22.7735 17.8574 22.7242 17.9209 22.6729 17.9834C22.6703 17.9865 22.6685 17.9901 22.666 17.9932C22.3671 18.3555 22.0254 18.7015 21.6377 19.0303C21.5289 19.1236 21.4163 19.2169 21.3008 19.3105C21.2887 19.3203 21.2758 19.3291 21.2637 19.3389C21.2611 19.3409 21.2584 19.3427 21.2559 19.3447C21.1357 19.4414 21.0113 19.5371 20.8838 19.6338C20.3333 20.0537 19.718 20.4791 19.0342 20.9053C18.8967 20.9912 18.7563 21.0771 18.6133 21.1631C18.4893 21.2383 18.3686 21.3129 18.251 21.3867C17.6061 21.7915 17.0575 22.1769 16.6045 22.541C16.5765 22.5636 16.5488 22.586 16.5215 22.6084C16.488 22.6358 16.4549 22.6636 16.4229 22.6924C16.2294 22.8664 16.0629 23.067 15.9238 23.293C15.8775 23.3682 15.8333 23.4463 15.793 23.5273C15.6521 23.8109 15.5484 24.1303 15.4814 24.4844H24.2568V27.5625H12.1338C12.0798 27.2745 12.035 26.9862 11.999 26.6982C11.9965 26.6773 11.9946 26.6561 11.9922 26.6348C11.9611 26.3528 11.9453 26.0315 11.9453 25.6719C11.9454 25.044 12.003 24.4669 12.1143 23.9395C12.1262 23.8827 12.1371 23.8261 12.1504 23.7705C12.1611 23.7258 12.1731 23.6817 12.1846 23.6377C12.2 23.5788 12.2155 23.5204 12.2324 23.4629C12.2471 23.4129 12.2625 23.3634 12.2783 23.3145C12.2836 23.2982 12.2886 23.2818 12.2939 23.2656H12.2959C12.3562 23.0847 12.4221 22.91 12.498 22.7432C12.6372 22.4449 12.7998 22.1579 12.9854 21.8828C13.0418 21.7991 13.1013 21.7163 13.1621 21.6348C13.1789 21.6123 13.1958 21.5897 13.2129 21.5674C13.2365 21.5366 13.2599 21.5051 13.2842 21.4746C13.2934 21.463 13.3032 21.4511 13.3125 21.4395C13.4358 21.2863 13.5669 21.1365 13.7061 20.9912C13.7375 20.9584 13.7695 20.926 13.8018 20.8936C13.8183 20.877 13.8349 20.8602 13.8516 20.8438C13.8676 20.8279 13.8842 20.8126 13.9004 20.7969C13.9129 20.7848 13.9259 20.7728 13.9385 20.7607C14.0057 20.6963 14.074 20.632 14.1445 20.5693L14.3945 20.3564C14.4247 20.3314 14.4557 20.3063 14.4863 20.2812C14.5481 20.2308 14.611 20.1802 14.6748 20.1299C14.7058 20.1055 14.7371 20.081 14.7686 20.0566L14.9688 19.9053C15.0005 19.8815 15.0322 19.8568 15.0645 19.833C15.1512 19.7691 15.2399 19.7054 15.3301 19.6416C15.384 19.6035 15.439 19.5654 15.4941 19.5273C15.5497 19.489 15.6063 19.4504 15.6631 19.4121C15.6963 19.3897 15.73 19.3671 15.7637 19.3447C15.8397 19.2942 15.9169 19.2438 15.9951 19.1934C16.0337 19.1685 16.0722 19.143 16.1113 19.1182C16.1257 19.109 16.1408 19.1 16.1553 19.0908C16.3302 18.9803 16.5111 18.8717 16.6963 18.7617L16.832 18.6797C17.1157 18.5139 17.399 18.339 17.6826 18.1562C17.7317 18.1247 17.78 18.0916 17.8291 18.0596C17.935 17.9905 18.0416 17.9212 18.1475 17.8496L18.5186 17.5928C18.541 17.577 18.5644 17.5618 18.5869 17.5459C18.8877 17.333 19.1617 17.099 19.4102 16.8457C19.6447 16.6064 19.857 16.3495 20.0449 16.0742C20.0833 16.0183 20.1196 15.9605 20.1543 15.9023C20.1842 15.8523 20.2122 15.8008 20.2393 15.749C20.2679 15.6942 20.2957 15.6387 20.3213 15.582C20.4582 15.2785 20.5504 14.9478 20.5986 14.5898C20.6185 14.4425 20.6309 14.2904 20.6357 14.1338L20.6387 13.9814C20.6386 13.6307 20.5828 13.299 20.4727 12.9863C20.4157 12.8249 20.3441 12.6679 20.2578 12.5166C20.2188 12.4482 20.1769 12.3808 20.1318 12.3145C20.0837 12.2436 20.0315 12.1739 19.9766 12.1055C19.5446 11.5566 18.8476 11.2813 17.8848 11.2812C17.7906 11.2812 17.6981 11.2852 17.6074 11.291C17.0843 11.3243 16.6207 11.4548 16.2148 11.6797C16.1264 11.7288 16.0411 11.783 15.958 11.8408C15.8373 11.9255 15.7212 12.0181 15.6123 12.1221L15.4814 12.2539C15.4372 12.3022 15.3944 12.3519 15.3525 12.4023L15.2158 12.5752C15.139 12.6787 15.0676 12.7868 15 12.8984C14.9516 12.9785 14.9051 13.0604 14.8613 13.1445C14.7661 13.328 14.6821 13.5214 14.6094 13.7246C14.5518 13.8854 14.5007 14.0524 14.457 14.2256C14.4134 14.399 14.377 14.5788 14.3477 14.7646L11.4854 13.4141C11.4945 13.3548 11.5047 13.2959 11.5156 13.2373C11.5229 13.1979 11.531 13.1582 11.5391 13.1191C11.5581 13.0276 11.5801 12.9366 11.6035 12.8467C11.612 12.8146 11.6218 12.7829 11.6309 12.751C11.7808 12.2137 12.0081 11.7047 12.3164 11.2256C12.3249 11.2124 12.3342 11.1997 12.3428 11.1865C12.3707 11.144 12.3996 11.1017 12.4287 11.0596C12.437 11.0476 12.4448 11.0353 12.4531 11.0234C12.494 10.9652 12.5358 10.9069 12.5791 10.8496C12.6288 10.783 12.6801 10.7175 12.7324 10.6533C12.7406 10.6433 12.7496 10.6339 12.7578 10.624C12.8591 10.5014 12.9643 10.3825 13.0752 10.2686C13.0794 10.2642 13.0836 10.2592 13.0879 10.2549L13.1807 10.1631C13.2542 10.0912 13.3308 10.0224 13.4082 9.9541C13.4261 9.93751 13.4434 9.92023 13.4619 9.9043L13.5137 9.8623L13.6494 9.75098L13.6973 9.71289C13.7769 9.65108 13.8589 9.59162 13.9424 9.5332C13.9669 9.51602 13.9918 9.49931 14.0166 9.48242C14.0817 9.43824 14.1476 9.39473 14.2148 9.35254C14.2402 9.33662 14.2654 9.32033 14.291 9.30469C14.3787 9.25131 14.4682 9.19953 14.5596 9.14941L14.874 8.98633C14.9393 8.95402 15.0066 8.92562 15.0732 8.89551C15.1238 8.87274 15.1734 8.8477 15.2246 8.82617L15.2285 8.8252C15.3057 8.79285 15.384 8.76186 15.4629 8.73242C15.4809 8.72569 15.4994 8.7185 15.5176 8.71191C15.5881 8.68633 15.6596 8.66196 15.7314 8.63867C15.7431 8.6349 15.7549 8.63164 15.7666 8.62793C15.8239 8.60974 15.8823 8.59294 15.9404 8.57617C15.9681 8.56816 15.9956 8.55938 16.0234 8.55176L16.0566 8.54297C16.1254 8.52448 16.1947 8.50673 16.2646 8.49023C16.2922 8.48373 16.3199 8.47689 16.3477 8.4707C16.4324 8.4518 16.5181 8.43495 16.6045 8.41895C16.6913 8.40301 16.7788 8.38817 16.8672 8.375L16.9229 8.36621L17.0713 8.34668C17.1037 8.34264 17.1363 8.33854 17.1689 8.33496C17.179 8.33386 17.1891 8.3331 17.1992 8.33203C17.499 8.30029 17.8092 8.28516 18.1279 8.28516Z" fill="white"/>
<path d="M23.7969 21.3604H28.9648V24.5381H27.835V22.4902H26.2568V22.4844H22.666V20.7754C22.7574 20.7005 22.8496 20.6259 22.9395 20.5488L22.9385 20.5479C23.2444 20.288 23.5291 20.0133 23.7969 19.7285V21.3604Z" fill="white"/>
<path d="M18.5918 14.4678C18.5672 14.5823 18.5347 14.6784 18.498 14.7598L18.4678 14.8223L18.4365 14.8779C18.419 14.9072 18.4057 14.928 18.3965 14.9414L18.3926 14.9463C18.3331 15.0335 18.2696 15.1191 18.2012 15.2021L17.9814 15.4453C17.8189 15.611 17.6394 15.7655 17.4385 15.9082C17.4385 15.9082 17.4352 15.9103 17.4326 15.9121C17.4281 15.9152 17.4189 15.9221 17.4092 15.9287C17.3987 15.9359 17.3841 15.9449 17.3682 15.9561L17.0264 16.1934C16.9185 16.2664 16.8082 16.3372 16.6973 16.4092L16.6982 14.4678H18.5918Z" fill="white"/>
<path d="M27.1221 14.4131H26.1221L26.1289 14.3125C26.136 14.1921 26.1423 14.0601 26.1455 13.9209L26.1465 13.9082V13.8955L26.1484 13.6777V13.6035C26.1483 13.5965 26.1475 13.5955 26.1475 13.5918V13.5898C26.1465 13.4638 26.1438 13.3387 26.1377 13.2148C26.1359 13.1792 26.1327 13.1412 26.1318 13.127C26.1289 13.0773 26.1257 13.0268 26.124 13.0049C26.1224 12.9831 26.1179 12.9178 26.1123 12.8574C26.1063 12.7928 26.0994 12.7323 26.0947 12.6914C26.0942 12.6869 26.0897 12.6452 26.0859 12.6143C26.0799 12.5654 26.0731 12.5169 26.0664 12.4697C26.0609 12.4313 26.0553 12.3955 26.0508 12.3662C26.0421 12.3102 26.0325 12.2542 26.0283 12.2305C26.0254 12.2135 26.0159 12.1569 26.0059 12.1045L25.9912 12.0322V11.5928H25.8887L25.8877 11.5908C25.8739 11.5397 25.8597 11.4893 25.8535 11.4678C25.8445 11.4366 25.8337 11.4007 25.8223 11.3633L25.7803 11.2305L25.7256 11.0723L25.7246 11.0693C25.7246 11.0693 25.7236 11.067 25.7217 11.0615L25.7002 11.001L25.6309 10.8223L25.6055 10.7598C25.5832 10.7059 25.5571 10.6457 25.5527 10.6357C25.5466 10.6216 25.5206 10.5618 25.4951 10.5068C25.4873 10.49 25.4799 10.4746 25.4736 10.4619H27.1221V14.4131Z" fill="white"/>
<path d="M11.6211 8.89551C11.4786 9.04317 11.3442 9.19378 11.2178 9.34668C11.2178 9.34668 11.2172 9.34855 11.2139 9.35254L11.1826 9.38965C11.1164 9.47088 11.0493 9.55558 10.9834 9.64355C10.9248 9.72115 10.8696 9.79776 10.8174 9.87207C10.8025 9.89321 10.7889 9.91243 10.7832 9.9209L10.7822 9.92383C10.7802 9.92683 10.7793 9.92773 10.7793 9.92773L10.7783 9.92871L10.7129 10.0254H9.84961V8.89551H11.6211Z" fill="white"/>
<path d="M9 1H1V9H0V0H9V1Z" fill="white"/>
<path d="M36 9L35 8.98633V1H27V0H36V9Z" fill="white"/>
</svg>
