<svg width="36" height="36" viewBox="0 0 36 36" fill="none" xmlns="http://www.w3.org/2000/svg">
<path d="M1 35H9V36H0V27H1V35Z" fill="white"/>
<path d="M36 36H27V35H35V27H36V36Z" fill="white"/>
<path d="M14.1709 27.7646H9.7627V26.6348H14.1709V27.7646Z" fill="white"/>
<path d="M19.8164 27.5625H16.1709V9.95898L16.373 9.86426L18.4717 8.88379L19.4756 8.41699L19.4746 8.41602L19.8164 8.25781V27.5625Z" fill="white"/>
<path d="M22.2051 10.4619H27.1221V14.4131H25.9912V11.5928H21.8164V9.53223L22.2051 9.35059V10.4619Z" fill="white"/>
<path d="M14.1709 10.0254H9.84961V8.89551H14.1709V10.0254Z" fill="white"/>
<path fill-rule="evenodd" clip-rule="evenodd" d="M26.3398 6.80664H30.4287V18.2822H31.9805V27.9648H26.2168V30.7178H15.4902V31.5H5.50586V20.0049H7.33398V13.6875H5.5V5.89355H15.9404V3.5H26.3398V6.80664ZM17.0713 7.32715L15.9404 7.85156V7.02344H6.63086V12.5566H11.9385V13.6875H8.46387V20.0049H10.2881V16.4375H14.1709V17.5684H11.4189V23.2656H14.1709V24.3965H10.2881V21.1367H6.63574V30.3701H14.3604V29.5625H15.4912V29.5869H25.084V27.9648H21.8164V26.835H30.8496V19.4131H23.7969V21.3604H28.9648V24.5381H27.835V22.4902H23.7969V24.3975H21.8164V23.2666L22.666 23.2676V15.5986H21.8164V14.4678H23.7969V18.2822H29.2979V7.93652H22.9873L21.8164 7.35059V6.80664H25.207L25.209 4.63086H17.0713V7.32715Z" fill="white"/>
<path d="M9 1H1V9H0V0H9V1Z" fill="white"/>
<path d="M36 9H35V1H27V0H36V9Z" fill="white"/>
</svg>
