<svg width="36" height="36" viewBox="0 0 36 36" fill="none" xmlns="http://www.w3.org/2000/svg">
<path d="M1 35H9V36H0V27H1V35Z" fill="white"/>
<path d="M36 36H27V35H35V27H36V36Z" fill="white"/>
<path d="M23.4551 11.6055H16.1113L15.8408 15.6289C15.8445 15.6278 15.8488 15.6261 15.8525 15.625C16.0238 15.5743 16.194 15.5316 16.3623 15.4941C16.3991 15.4859 16.436 15.4763 16.4727 15.4688C16.4924 15.4647 16.5125 15.4619 16.5322 15.458C16.587 15.4472 16.6418 15.4382 16.6963 15.4287L16.6973 15.4277C16.7087 15.4258 16.7201 15.4238 16.7314 15.4219C16.8494 15.4019 16.9665 15.385 17.083 15.3721C17.497 15.3271 17.9476 15.3047 18.4336 15.3047L18.8027 15.3115C18.9101 15.3155 19.0168 15.3215 19.1211 15.3291C19.1512 15.3313 19.1811 15.3344 19.2109 15.3369C19.2857 15.3431 19.3605 15.3493 19.4336 15.3574C19.4768 15.3622 19.5199 15.3686 19.5625 15.374C19.6279 15.3823 19.6928 15.3905 19.7568 15.4004C19.7875 15.4051 19.8182 15.41 19.8486 15.415C19.919 15.4268 19.9889 15.4395 20.0576 15.4531C20.0949 15.4605 20.1321 15.4686 20.1689 15.4766C20.2265 15.489 20.2835 15.5018 20.3398 15.5156C20.3872 15.5272 20.434 15.5402 20.4805 15.5527C20.525 15.5647 20.5695 15.577 20.6133 15.5898C20.6588 15.6032 20.7044 15.6175 20.749 15.6318C20.7992 15.6479 20.8493 15.6643 20.8984 15.6816C20.9345 15.6943 20.9703 15.7074 21.0059 15.7207C21.0599 15.741 21.1132 15.7624 21.166 15.7842C21.1981 15.7974 21.2301 15.8114 21.2617 15.8252C21.3095 15.8461 21.3567 15.8675 21.4033 15.8896C21.4442 15.909 21.4854 15.9289 21.5254 15.9492C21.5638 15.9687 21.602 15.9894 21.6396 16.0098C21.6774 16.0303 21.715 16.0509 21.752 16.0723C21.7945 16.0969 21.8364 16.1226 21.8779 16.1484C21.9119 16.1695 21.9462 16.19 21.9795 16.2119C22.0143 16.2348 22.049 16.2594 22.083 16.2832C22.1219 16.3104 22.1613 16.3369 22.1992 16.3652C22.2283 16.387 22.2566 16.4102 22.2852 16.4326C22.3264 16.465 22.3682 16.4974 22.4082 16.5312C22.4337 16.5528 22.4584 16.5756 22.4834 16.5977C22.5212 16.6311 22.559 16.6645 22.5957 16.6992C22.6175 16.7199 22.6388 16.7416 22.6602 16.7627C22.7006 16.8025 22.7413 16.8423 22.7803 16.8838C22.8584 16.9662 22.9329 17.0517 23.0049 17.1387C23.0118 17.1471 23.0185 17.1556 23.0254 17.1641C23.0885 17.2413 23.1488 17.3206 23.207 17.4014C23.2182 17.4169 23.2292 17.4326 23.2402 17.4482C23.3677 17.6294 23.4833 17.8189 23.5869 18.0176C23.5932 18.0296 23.5993 18.0416 23.6055 18.0537C24.0442 18.9111 24.2656 19.9291 24.2656 21.1094C24.2656 22.5133 23.9503 23.7243 23.3203 24.7412C22.6994 25.758 21.8307 26.5409 20.7148 27.0898C20.5125 27.1894 20.3037 27.2798 20.0898 27.3613C20.0877 27.3622 20.0852 27.3625 20.083 27.3633C19.9702 27.4061 19.8552 27.4466 19.7393 27.4844C19.7081 27.4945 19.6769 27.5048 19.6455 27.5146C19.6132 27.5247 19.5804 27.5343 19.5479 27.5439C19.5072 27.5561 19.4659 27.5676 19.4248 27.5791C19.3882 27.5894 19.3514 27.5996 19.3145 27.6094C19.2796 27.6186 19.2441 27.6289 19.209 27.6377C19.161 27.6497 19.1129 27.6616 19.0645 27.6729C19.0384 27.6789 19.0116 27.6846 18.9854 27.6904C18.9423 27.7 18.8989 27.7088 18.8555 27.7178L18.8506 27.7188L18.751 27.7393L18.5928 27.7676L18.5498 27.7754C18.4865 27.7861 18.4225 27.7962 18.3584 27.8057L18.3486 27.8076L17.9844 27.8535C17.9223 27.8602 17.8597 27.8655 17.7969 27.8711C17.4869 27.8986 17.1683 27.9131 16.8408 27.9131C16.4963 27.9131 16.1419 27.8957 15.7783 27.8623C15.7742 27.8619 15.7698 27.8607 15.7656 27.8604C15.6684 27.8513 15.5703 27.8415 15.4717 27.8301C15.4527 27.8279 15.4331 27.8255 15.4141 27.8232C15.333 27.8135 15.2509 27.8034 15.1689 27.792C15.1352 27.7873 15.1013 27.7823 15.0674 27.7773C14.9872 27.7656 14.9063 27.7535 14.8252 27.7402C14.8196 27.7393 14.8133 27.7382 14.8076 27.7373C14.6151 27.7056 14.4191 27.6701 14.2217 27.6299C13.3038 27.4499 12.5116 27.1392 11.8457 26.6982L12.8447 23.6748C12.9544 23.7745 13.0764 23.867 13.207 23.958C13.2571 23.9931 13.3072 24.0296 13.3604 24.0635C13.5471 24.1818 13.7526 24.2927 13.9766 24.3965C13.9993 24.407 14.0208 24.4193 14.0439 24.4297C14.1248 24.466 14.2085 24.5003 14.2939 24.5352C14.3412 24.5542 14.3888 24.5743 14.4375 24.5928C14.687 24.6872 14.9342 24.7633 15.1787 24.8223C15.2721 24.8448 15.3654 24.8645 15.458 24.8818C15.7699 24.9403 16.0774 24.9697 16.3809 24.9697C16.4615 24.9697 16.5434 24.968 16.626 24.9658C16.9857 24.9563 17.3634 24.9272 17.7588 24.876C17.7716 24.8741 17.7841 24.8701 17.7969 24.8682C17.9001 24.8521 18.0021 24.8343 18.1025 24.8115L18.4355 24.7227C18.5151 24.698 18.5933 24.67 18.6709 24.6406C18.6797 24.6374 18.6885 24.6342 18.6973 24.6309C18.7749 24.6009 18.8518 24.5692 18.9277 24.5352C19.002 24.5018 19.0759 24.4684 19.1484 24.4307C19.2562 24.3723 19.3594 24.3063 19.457 24.2334C19.7507 24.014 19.9996 23.728 20.2021 23.377C20.2645 23.2703 20.3188 23.1551 20.3672 23.0322C20.4076 22.9297 20.443 22.8209 20.4736 22.707C20.5704 22.3477 20.6201 21.9326 20.6201 21.4609C20.6201 21.3175 20.6133 21.1775 20.6006 21.042C20.596 20.994 20.5911 20.9464 20.585 20.8994C20.5714 20.7955 20.5536 20.6938 20.5322 20.5947C20.5221 20.5477 20.511 20.501 20.499 20.4551C20.4809 20.3852 20.4606 20.3163 20.4385 20.249C20.392 20.1083 20.3357 19.9735 20.2715 19.8438C20.2131 19.726 20.1481 19.6125 20.0752 19.5039C19.9664 19.342 19.8414 19.1899 19.7002 19.0479C19.6531 19.0005 19.6044 18.9541 19.5537 18.9092C19.4766 18.8398 19.3948 18.7757 19.3105 18.7139C19.1567 18.6011 18.9928 18.4999 18.8154 18.4121C18.692 18.3511 18.5626 18.296 18.4277 18.2471C18.2379 18.1782 18.0367 18.122 17.8242 18.0771C17.6028 18.0303 17.3691 17.9965 17.123 17.9756C16.9286 17.9593 16.7264 17.9502 16.5166 17.9502C16.0127 17.9502 15.4994 17.9997 14.9775 18.0986C14.4646 18.1886 14.0009 18.3016 13.5869 18.4365C13.3245 18.5221 13.1075 18.6053 12.9355 18.6836C12.8363 18.7286 12.7517 18.7717 12.6826 18.8145L13.0332 8.74316H23.4551V11.6055Z" fill="white"/>
<path d="M28.9648 24.5381H27.835V22.4902H26.1748C26.2243 22.1205 26.2531 21.7437 26.2617 21.3604H28.9648V24.5381Z" fill="white"/>
<path d="M27.1221 14.4131H25.9912V11.5928H25.4551V10.4619H27.1221V14.4131Z" fill="white"/>
<path d="M10.9883 10.0254H9.84961V8.89551H11.0273L10.9883 10.0254Z" fill="white"/>
<path fill-rule="evenodd" clip-rule="evenodd" d="M26.3398 6.80664H30.4287V18.2822H31.9805V27.9648H26.2168V30.7178H15.4902V31.5H5.50586V20.0049H7.33398V13.6875H5.5V5.89355H15.9404V3.5H26.3398V6.80664ZM17.0713 6.74316H11.1025L11.0928 7.02344H6.63086V12.5566H10.8994L10.8604 13.6875H8.46387V20.0049H9.84961V16.4375H10.8604V23.3026L10.499 24.3965H9.84961V21.1367H6.63574V30.3701H14.3604V29.6875C14.4017 29.6946 14.4424 29.7042 14.4834 29.7109L14.5029 29.7139C14.5968 29.7292 14.6888 29.7428 14.7783 29.7559L14.7793 29.7568C14.7952 29.7591 14.8517 29.7675 14.8945 29.7734C14.9941 29.7872 15.091 29.7993 15.1768 29.8096C15.2013 29.8125 15.2333 29.8153 15.2432 29.8164C15.3555 29.8294 15.4677 29.8421 15.5801 29.8525L15.5947 29.8535C16.0101 29.8917 16.4264 29.9131 16.8408 29.9131C17.4564 29.9131 18.0564 29.8714 18.6387 29.7861C18.6579 29.7833 18.6736 29.781 18.6836 29.7793L18.7012 29.7764H18.6982C18.766 29.7659 18.8293 29.7561 18.8828 29.7471H18.8809C18.8809 29.7471 18.8837 29.7469 18.8887 29.7461C18.8961 29.7449 18.9153 29.742 18.9365 29.7383C19.0024 29.7268 19.0668 29.7143 19.1299 29.7021C19.1701 29.6944 19.2109 29.6871 19.252 29.6787L19.2529 29.6777C19.314 29.6652 19.3714 29.6531 19.4189 29.6426L19.5156 29.6211L19.5166 29.6201C19.5645 29.609 19.6109 29.5977 19.6553 29.5869H25.084V27.9648H23.0771C23.5106 27.629 23.9054 27.2515 24.2617 26.835H30.8496V19.4131H26.127C26.061 19.0253 25.9696 18.6481 25.8535 18.2822H29.2979V7.93652H25.4551V6.74316H25.207L25.209 4.63086H17.0713V6.74316Z" fill="white"/>
<path d="M9 1H1V9H0V0H9V1Z" fill="white"/>
<path d="M36 9H35V1H27V0H36V9Z" fill="white"/>
</svg>
