<svg width="36" height="36" viewBox="0 0 36 36" fill="none" xmlns="http://www.w3.org/2000/svg">
<path d="M9 3.93402e-07V1H1V9H3.93402e-07V3.93402e-07H9Z" fill="#B9B29D"/>
<path d="M36 9H35V1H27V0L36 3.93402e-07V9Z" fill="#B9B29D"/>
<path d="M27 36V35H35V27H36V36H27Z" fill="#B9B29D"/>
<path d="M0 27H1V35H9V36H3.93402e-07L0 27Z" fill="#B9B29D"/>
<path d="M25.4147 3.9375C23.713 3.9375 22.0122 4.58652 20.7149 5.88402L5.88366 20.7141C3.28878 23.3092 3.28878 27.5212 5.88366 30.1162C8.47853 32.7112 12.6923 32.7113 15.2872 30.1162L30.1163 15.2863C32.7112 12.6911 32.7112 8.47903 30.1163 5.88408C28.8189 4.58664 27.1165 3.93756 25.4147 3.9375ZM26.0039 5.34475C26.1918 5.34475 26.3793 5.41744 26.5228 5.56081C26.8095 5.84774 26.8095 6.31196 26.5228 6.59882C26.2359 6.88562 25.7717 6.88562 25.4849 6.59882C25.1981 6.31196 25.1981 5.84768 25.4849 5.56087C25.5529 5.49246 25.6338 5.43816 25.7228 5.40109C25.8119 5.36402 25.9074 5.3448 26.0039 5.34475ZM28.0223 7.36332C28.2102 7.36332 28.3977 7.43423 28.5412 7.57761C28.828 7.86447 28.828 8.33052 28.5412 8.61738C28.2543 8.90425 27.7883 8.90425 27.5014 8.61738C27.2146 8.33052 27.2146 7.86447 27.5014 7.57761C27.6449 7.43418 27.8343 7.36332 28.0223 7.36332ZM23.9262 7.42241C24.1141 7.42241 24.3017 7.49511 24.445 7.63854C24.7319 7.9254 24.7319 8.38968 24.4451 8.67648C24.1583 8.96335 23.694 8.96335 23.4073 8.67648C23.1204 8.38962 23.1204 7.92534 23.4073 7.63854C23.4752 7.57013 23.5561 7.51582 23.6451 7.47874C23.7342 7.44167 23.8297 7.42248 23.9262 7.42241ZM25.9446 9.44104C26.1327 9.44104 26.3201 9.51184 26.4636 9.65533C26.7504 9.94213 26.7504 10.4082 26.4636 10.695C26.1768 10.9819 25.7107 10.9819 25.4239 10.695C25.137 10.4082 25.137 9.94213 25.4239 9.65527C25.5673 9.5119 25.7565 9.44098 25.9446 9.44104ZM30.1884 9.52969C30.3764 9.52969 30.5639 9.60238 30.7073 9.74581C30.9942 10.0326 30.9942 10.497 30.7073 10.7837C30.4206 11.0706 29.9563 11.0706 29.6696 10.7837C29.3827 10.4969 29.3827 10.0326 29.6696 9.74581C29.7376 9.67737 29.8184 9.62305 29.9074 9.58597C29.9965 9.54889 30.092 9.52972 30.1884 9.52969ZM21.76 9.58878C21.9479 9.58878 22.1355 9.66148 22.2788 9.80491C22.5657 10.0917 22.5657 10.556 22.2788 10.8428C21.9921 11.1297 21.526 11.1297 21.2392 10.8428C20.9524 10.556 20.9524 10.0917 21.2392 9.80491C21.3076 9.73643 21.3887 9.6821 21.4781 9.64502C21.5674 9.60795 21.6632 9.5888 21.76 9.58878ZM23.7766 11.6074C23.9645 11.6074 24.1539 11.6801 24.2974 11.8235C24.5842 12.1103 24.5842 12.5746 24.2974 12.8614C24.0106 13.1482 23.5445 13.1482 23.2577 12.8614C22.9708 12.5746 22.9708 12.1103 23.2577 11.8235C23.3257 11.7551 23.4065 11.7007 23.4956 11.6637C23.5846 11.6266 23.6801 11.6075 23.7766 11.6074ZM28.1109 11.6074C28.2988 11.6074 28.4863 11.6801 28.6297 11.8235C28.9166 12.1103 28.9166 12.5746 28.6297 12.8614C28.3429 13.1482 27.8786 13.1482 27.5919 12.8614C27.3051 12.5746 27.3051 12.1103 27.5919 11.8235C27.6599 11.755 27.7407 11.7007 27.8298 11.6636C27.9188 11.6266 28.0144 11.6075 28.1109 11.6074ZM16.5983 11.8734L17.3795 12.6546L13.012 17.0223L12.2307 16.241L16.5983 11.8734ZM19.8946 11.8734L24.2622 16.2411L23.481 17.0224L19.1136 12.6546L19.8946 11.8734ZM25.9446 13.7737C26.1326 13.7737 26.3201 13.8464 26.4635 13.9898C26.7503 14.2766 26.7503 14.7409 26.4635 15.0277C26.1767 15.3145 25.7106 15.3145 25.4238 15.0277C25.137 14.7408 25.137 14.2766 25.4238 13.9897C25.4922 13.9213 25.5734 13.8669 25.6627 13.8299C25.7521 13.7928 25.8479 13.7737 25.9446 13.7737ZM23.4811 18.7545L24.2623 19.5358L19.8928 23.9054L19.1136 23.1241L23.4811 18.7545ZM13.012 18.7565L17.3794 23.1242L16.5982 23.9053L12.2309 19.5358L13.012 18.7565ZM10.5152 20.8341C10.7031 20.8341 10.8906 20.9048 11.034 21.0483C11.3209 21.3351 11.3209 21.8012 11.034 22.0881C10.7472 22.3749 10.2829 22.3749 9.99616 22.0881C9.70937 21.8012 9.70937 21.3352 9.99616 21.0483C10.1396 20.9049 10.3272 20.8341 10.5152 20.8341ZM12.5336 22.8526C12.7215 22.8526 12.9091 22.9235 13.0525 23.0669C13.3394 23.3537 13.3394 23.8198 13.0525 24.1067C12.7657 24.3935 12.3015 24.3935 12.0147 24.1067C11.7278 23.8198 11.7278 23.3537 12.0147 23.0669C12.1581 22.9235 12.3457 22.8526 12.5336 22.8526ZM8.43752 22.9117C8.62556 22.9117 8.81301 22.9825 8.9565 23.126C9.24329 23.4128 9.24329 23.8789 8.9565 24.1658C8.66965 24.4526 8.20539 24.4526 7.9186 24.1658C7.63187 23.8789 7.63187 23.4128 7.9186 23.126C7.9867 23.0578 8.06761 23.0038 8.15668 22.967C8.24575 22.9302 8.34116 22.9115 8.43752 22.9117ZM10.456 24.9303C10.644 24.9303 10.8315 25.0012 10.9749 25.1446C11.2617 25.4315 11.2617 25.8975 10.9749 26.1844C10.688 26.4712 10.2238 26.4712 9.93701 26.1844C9.65022 25.8975 9.65022 25.4315 9.93701 25.1446C10.0804 25.0012 10.268 24.9303 10.456 24.9303ZM14.6997 25.019C14.8877 25.019 15.0752 25.0899 15.2186 25.2333C15.5055 25.5201 15.5055 25.9862 15.2186 26.273C14.9319 26.5599 14.4677 26.5599 14.1808 26.273C13.894 25.9862 13.894 25.5201 14.1808 25.2333C14.2489 25.1651 14.3298 25.111 14.4188 25.0743C14.5079 25.0375 14.6033 25.0187 14.6997 25.019ZM6.27126 25.0781C6.45919 25.0781 6.64675 25.149 6.79024 25.2924C7.07703 25.5792 7.07703 26.0453 6.79024 26.3321C6.50339 26.619 6.03914 26.619 5.75235 26.3321C5.4655 26.0453 5.4655 25.5792 5.75235 25.2924C5.82042 25.2242 5.90132 25.1701 5.99037 25.1334C6.07942 25.0966 6.17492 25.0778 6.27126 25.0781ZM8.28978 27.0967C8.47771 27.0967 8.66521 27.1675 8.80864 27.311C9.09549 27.5978 9.09549 28.0639 8.80864 28.3507C8.52185 28.6376 8.05766 28.6376 7.77081 28.3507C7.48408 28.0639 7.48408 27.5978 7.77081 27.3109C7.83891 27.2427 7.91983 27.1887 8.00889 27.152C8.09796 27.1152 8.19343 27.0965 8.28978 27.0967ZM12.6222 27.0967C12.8101 27.0967 12.9977 27.1675 13.141 27.311C13.4279 27.5978 13.4279 28.0639 13.141 28.3507C12.8543 28.6376 12.3901 28.6376 12.1033 28.3507C11.8164 28.0639 11.8164 27.5978 12.1033 27.3109C12.1714 27.2427 12.2523 27.1887 12.3413 27.152C12.4304 27.1152 12.5258 27.0965 12.6222 27.0967ZM10.456 29.2631C10.6439 29.2631 10.8314 29.3357 10.9748 29.4791C11.2617 29.766 11.2617 30.2303 10.9748 30.5171C10.688 30.8039 10.2237 30.8039 9.93695 30.5171C9.65016 30.2302 9.65016 29.7641 9.93695 29.4773C10.0804 29.3338 10.2679 29.2631 10.456 29.2631Z" fill="#B9B29D"/>
</svg>
