<svg width="36" height="36" viewBox="0 0 36 36" fill="none" xmlns="http://www.w3.org/2000/svg">
<path d="M1 35H9V36H0V27H1V35ZM36 36H27V35H35V27H36V36ZM12.4912 29.0684C12.7085 29.1591 12.9301 29.2414 13.1553 29.3174L14.7256 32L12.4912 29.0684ZM25.3086 32L21.7764 29.0557C22.1199 28.8996 22.449 28.7254 22.7627 28.5322L25.3086 30.6406L32 27.918L25.3086 32ZM17.6904 8.28516C18.3439 8.28516 18.9504 8.33828 19.5098 8.44238L19.5078 8.44043C19.5297 8.4445 19.5515 8.4489 19.5732 8.45312C19.6049 8.45929 19.6366 8.46518 19.668 8.47168C19.749 8.48848 19.8292 8.50731 19.9082 8.52637C19.9163 8.52832 19.9246 8.53026 19.9326 8.53223C20.0074 8.55053 20.0813 8.5695 20.1543 8.58984C20.177 8.59618 20.2001 8.60284 20.2227 8.60938C20.2977 8.63113 20.3722 8.65379 20.4453 8.67773C20.4727 8.6867 20.5002 8.69678 20.5273 8.70605C20.5348 8.70863 20.5423 8.71128 20.5498 8.71387L20.6904 8.76367L20.7539 8.78711C20.8245 8.81434 20.8943 8.84361 20.9629 8.87305C20.9854 8.88273 21.0079 8.89242 21.0303 8.90234C21.0878 8.92789 21.1451 8.95431 21.2012 8.98145C21.213 8.98716 21.2256 8.99227 21.2373 8.99805L21.2617 9.01074C21.3261 9.04284 21.3897 9.07613 21.4521 9.11035C21.472 9.12125 21.492 9.13244 21.5117 9.14355C21.5686 9.17566 21.6244 9.20925 21.6797 9.24316C21.6884 9.24851 21.6974 9.2534 21.7061 9.25879C21.7701 9.29858 21.8327 9.34058 21.8945 9.38281C21.9119 9.39468 21.9301 9.40591 21.9473 9.41797C22.01 9.46193 22.0715 9.50719 22.1318 9.55371L22.333 9.71484C23.1113 10.3755 23.5787 11.2336 23.7344 12.2891C23.7733 12.5529 23.793 12.8296 23.793 13.1182L23.7871 13.373C23.7837 13.4504 23.7781 13.5275 23.7715 13.6045C23.769 13.6334 23.7656 13.6626 23.7627 13.6914C23.7572 13.7453 23.7511 13.7998 23.7441 13.8535C23.7409 13.8785 23.737 13.9037 23.7334 13.9287C23.7259 13.9811 23.718 14.0337 23.709 14.0859C23.7036 14.1172 23.6983 14.1485 23.6924 14.1797C23.6834 14.227 23.6733 14.2751 23.6631 14.3223C23.6546 14.3617 23.6451 14.4011 23.6357 14.4404C23.6273 14.476 23.6185 14.5114 23.6094 14.5469C23.599 14.5869 23.5884 14.6271 23.5771 14.667C23.5661 14.7063 23.5549 14.746 23.543 14.7852C23.531 14.8246 23.5187 14.864 23.5059 14.9033L23.4854 14.9658L23.4287 15.1289L23.332 15.3711L23.2334 15.5879L23.1865 15.6807L23.1221 15.8047L23.0645 15.9072L23.0078 16.0049L22.9473 16.1025L22.8691 16.2217C22.8499 16.2502 22.8303 16.2786 22.8105 16.3066C22.7892 16.3369 22.7672 16.3667 22.7451 16.3965C22.7194 16.4312 22.6936 16.4659 22.667 16.5C22.6438 16.5296 22.6196 16.5588 22.5957 16.5879C22.5707 16.6185 22.5463 16.6497 22.5205 16.6797C22.4755 16.732 22.4292 16.7833 22.3818 16.834C22.375 16.8413 22.3682 16.8491 22.3613 16.8564C22.0688 17.1602 21.738 17.4033 21.3682 17.584C21.1465 17.6925 20.9107 17.7787 20.6611 17.8428C20.7087 17.8428 20.756 17.8431 20.8027 17.8447C20.92 17.8489 21.0346 17.8585 21.1465 17.873C21.2582 17.8874 21.3674 17.9069 21.4736 17.9316C21.5587 17.9515 21.6421 17.9745 21.7236 18.001C21.805 18.0274 21.885 18.0569 21.9629 18.0898C22.1969 18.1889 22.4157 18.318 22.6182 18.4766C22.6603 18.509 22.7016 18.5432 22.7422 18.5771C22.7519 18.5853 22.7619 18.5933 22.7715 18.6016C22.8049 18.63 22.8378 18.659 22.8701 18.6885C22.877 18.6948 22.8838 18.7017 22.8906 18.708C23.3074 19.0939 23.6358 19.5657 23.874 20.124C24.1619 20.7989 24.3056 21.5146 24.3057 22.2705C24.3056 23.4584 23.9903 24.48 23.3604 25.335C22.7304 26.1808 21.885 26.834 20.8232 27.293C19.7703 27.743 18.5995 27.9678 17.3125 27.9678C16.2867 27.9677 15.2966 27.8418 14.3428 27.5898C13.3889 27.3379 12.5342 26.9412 11.7783 26.4014L12.9121 23.3232C13.4232 23.8163 14.0459 24.2027 14.7803 24.4814C14.7829 24.4824 14.7855 24.4834 14.7881 24.4844L15.0635 24.5791C15.2995 24.655 15.5353 24.7156 15.7686 24.7637C15.8468 24.7797 15.925 24.7947 16.0029 24.8076C16.0926 24.8225 16.1822 24.8349 16.2715 24.8457C16.3932 24.8603 16.5148 24.8719 16.6357 24.8789C16.7449 24.8852 16.8534 24.8896 16.9619 24.8896C17.5219 24.8896 18.0132 24.8275 18.4355 24.7051C18.535 24.6762 18.6299 24.6421 18.7217 24.6064L18.7227 24.6055L18.9414 24.5137C18.9434 24.5127 18.9453 24.5117 18.9473 24.5107C19.1618 24.4068 19.3522 24.2816 19.5186 24.1348C19.5585 24.0995 19.5976 24.0632 19.6348 24.0254L19.6562 24.0029C19.7465 23.911 19.8277 23.8141 19.9033 23.7148C20.1986 23.3278 20.3852 22.8871 20.46 22.3896C20.4642 22.3615 20.4682 22.3332 20.4717 22.3047C20.4731 22.2934 20.4743 22.2818 20.4756 22.2705C20.4822 22.212 20.4863 22.1527 20.4902 22.0928C20.4919 22.0707 20.4942 22.0486 20.4951 22.0264L20.498 21.8652C20.498 21.7963 20.4964 21.7289 20.4932 21.6631C20.4927 21.6534 20.4927 21.6434 20.4922 21.6338C20.4872 21.5459 20.4777 21.4611 20.4668 21.3789C20.4169 21 20.3065 20.6811 20.1328 20.4229L20.1318 20.4219C20.0796 20.3443 20.0224 20.2717 19.959 20.2051C19.7463 19.9705 19.4917 19.781 19.1963 19.6357C19.1585 19.6172 19.1201 19.6002 19.0811 19.583C18.9213 19.5131 18.7507 19.4538 18.5684 19.4082C18.1363 19.3002 17.6809 19.233 17.2031 19.2061C17.0442 19.1971 16.8827 19.1924 16.7188 19.1924H15.2871V16.5195H16.7451L16.9502 16.5166C17.8076 16.4895 18.4796 16.2882 18.9678 15.915C19.0511 15.8513 19.1296 15.7828 19.2021 15.709C19.2624 15.6477 19.3187 15.5843 19.3721 15.5195C19.4187 15.4633 19.4635 15.4065 19.5049 15.3477L19.5898 15.2197C19.6084 15.19 19.6252 15.1593 19.6426 15.1289C19.7435 14.9526 19.8244 14.7665 19.8838 14.5693C19.8929 14.539 19.902 14.5084 19.9102 14.4775C19.9247 14.4226 19.9378 14.367 19.9492 14.3105C19.9562 14.2762 19.963 14.241 19.9688 14.2061C19.9716 14.1887 19.974 14.1708 19.9766 14.1533C19.9818 14.1178 19.9871 14.082 19.9912 14.0459C19.994 14.0213 19.9958 13.9965 19.998 13.9717C20.0028 13.9184 20.0075 13.8641 20.0098 13.8096L20.0127 13.6572C20.0127 13.6474 20.0118 13.6376 20.0117 13.6279C20.0106 13.4539 19.9983 13.2913 19.9766 13.1396C19.9564 13.0006 19.9272 12.8712 19.8896 12.751C19.8677 12.6802 19.8423 12.6131 19.8145 12.5488C19.7656 12.437 19.7086 12.3345 19.6416 12.2422C19.6387 12.2382 19.6357 12.2344 19.6328 12.2305C19.5995 12.1855 19.564 12.1428 19.5264 12.1025V12.1016C19.4992 12.0726 19.4728 12.0431 19.4434 12.0166C19.4019 11.9793 19.3585 11.9435 19.3125 11.9111L19.2158 11.8486C19.0664 11.7575 18.8992 11.6787 18.7148 11.6133C18.6442 11.5882 18.5709 11.5653 18.4951 11.5439C18.2316 11.4699 17.9368 11.4182 17.6113 11.3896C17.4071 11.3717 17.1905 11.3623 16.9619 11.3623C16.6111 11.3623 16.1881 11.4259 15.6934 11.5518C15.5147 11.5981 15.336 11.6536 15.1572 11.7158L15.1582 11.7168C14.9432 11.7915 14.7279 11.8768 14.5127 11.9736C14.4201 12.0157 14.327 12.0592 14.2344 12.1055C13.7486 12.3484 13.3434 12.6499 13.0195 13.0098L11.6699 10.1475C11.6736 10.1443 11.677 10.1409 11.6807 10.1377C11.7269 10.0976 11.7748 10.0579 11.8242 10.0186L11.8643 9.9873C11.8921 9.96563 11.9214 9.94528 11.9502 9.92383C11.9919 9.89281 12.0344 9.8616 12.0781 9.83105C12.1158 9.80468 12.1541 9.77798 12.1934 9.75195L12.3076 9.67871C12.3497 9.65213 12.3919 9.62483 12.4355 9.59863L12.5557 9.53027C12.6262 9.48983 12.6991 9.4507 12.7734 9.41113C12.9016 9.34299 13.035 9.27531 13.1748 9.20996C13.183 9.20616 13.191 9.20205 13.1992 9.19824C13.4573 9.07851 13.7349 8.96206 14.0322 8.85156C14.5587 8.65759 15.1362 8.51338 15.7646 8.41895C15.7951 8.41436 15.8258 8.40963 15.8564 8.40527C15.9304 8.39481 16.0057 8.38606 16.0811 8.37695C16.1014 8.37448 16.1221 8.37151 16.1426 8.36914C16.3278 8.34778 16.5174 8.33062 16.7109 8.31738C16.7614 8.31391 16.8122 8.31053 16.8633 8.30762C16.9101 8.30496 16.9576 8.30298 17.0049 8.30078C17.0564 8.29838 17.1081 8.29579 17.1602 8.29395C17.2029 8.29244 17.2459 8.29118 17.2891 8.29004C17.3463 8.28852 17.404 8.28699 17.4619 8.28613H17.4629C17.538 8.28503 17.6142 8.28516 17.6904 8.28516ZM10.5537 23.9365L10.1445 24.1719L10.3428 24.5107L9.91016 25.6826L9.17871 24.7227L4 26.416L11.1475 22.3252L10.5537 23.9365ZM32 25.1221L26.2705 21.5527C26.2443 21.2705 26.2022 20.9916 26.1445 20.7158L32 25.1221ZM16.7188 21.1924C17.2294 21.1924 17.6818 21.2483 18.083 21.3486C18.1541 21.3664 18.2183 21.3888 18.2764 21.4141C18.2928 21.4213 18.302 21.4257 18.3086 21.4287C18.3103 21.4295 18.3126 21.4303 18.3135 21.4307C18.3866 21.4666 18.4317 21.5033 18.4648 21.5371C18.469 21.552 18.4744 21.574 18.4795 21.6045L18.4951 21.7471C18.4953 21.7514 18.4949 21.7568 18.4951 21.7617C18.4973 21.8061 18.498 21.8389 18.498 21.8652L18.4951 21.9551C18.4938 21.9775 18.4927 22.0068 18.4883 22.0459C18.4877 22.0507 18.4868 22.0562 18.4863 22.0605C18.4859 22.0634 18.4862 22.0678 18.4854 22.0732C18.4845 22.079 18.4846 22.0839 18.4834 22.0918L18.4824 22.0928C18.451 22.3021 18.375 22.4532 18.2285 22.6025C18.2257 22.6054 18.2233 22.6086 18.2207 22.6113L18.2148 22.6172L18.209 22.6221C18.208 22.623 18.2039 22.6282 18.1953 22.6357C18.1869 22.6432 18.1733 22.654 18.1533 22.667L18.0732 22.7109C18.0482 22.7229 18.0202 22.7359 17.9883 22.748L17.8779 22.7842C17.7353 22.8255 17.5455 22.8596 17.2998 22.877L14.5723 22.1143C14.4746 22.0403 14.3839 21.964 14.3008 21.8838L13.584 21.1924H16.7188ZM18.4941 21.7236C18.4943 21.7294 18.4947 21.7375 18.4951 21.7471L18.4932 21.7168L18.4941 21.7236ZM13.2871 16.5889L12.6904 16.3643L13.2871 15.7021V16.5889ZM11.459 7.85254C11.4432 7.86151 11.4262 7.87203 11.4082 7.88281L11.4062 7.88379C11.3382 7.92462 11.2701 7.96838 11.2402 7.9873C11.2007 8.01227 11.146 8.04713 11.0889 8.08496L11.0879 8.08594C11.0275 8.12599 10.9728 8.164 10.9336 8.19141C10.8648 8.23942 10.8019 8.28513 10.7559 8.31934C10.7553 8.31975 10.7544 8.32143 10.752 8.32324C10.7497 8.3249 10.7468 8.32648 10.7432 8.3291C10.7397 8.33158 10.7343 8.33534 10.7295 8.33887L10.6201 8.4209C10.6114 8.42766 10.5967 8.43989 10.5801 8.45312C10.5012 8.51585 10.4267 8.57849 10.3564 8.63965L9.64844 9.25488L8.11133 8.58691L9.2002 13.8721L11.4189 14.3027L12.3262 16.2275L11.8594 16.0518L11.6221 15.9844L11.4873 15.9121L8.61621 14.8301L4 13L8.07129 13.8594L6.89551 8.14844L6.88574 8.15918L4 5.48535L7.28613 7.02637L9.90234 8.16504L14.125 4L11.459 7.85254ZM25.6406 14.6299C25.6457 14.605 25.6522 14.5793 25.6572 14.5527C25.6658 14.5074 25.673 14.4645 25.6797 14.4258L25.7129 14.2139L25.7139 14.2129C25.7176 14.1871 25.7225 14.1512 25.7275 14.1123L25.752 13.8955C25.7526 13.8895 25.7524 13.889 25.7539 13.876C25.7559 13.8588 25.7608 13.8203 25.7646 13.7754C25.7731 13.6762 25.7803 13.5711 25.7852 13.4619L25.7861 13.4395V13.416L25.792 13.1611L25.793 13.1396V13.1182C25.793 13.1139 25.792 13.1097 25.792 13.1055L32 9.43457L25.6406 14.6299ZM17.0342 13.8057L17.6133 14.3945C17.4858 14.4443 17.2649 14.5041 16.8975 14.5166L16.7129 14.5195H14.3525L14.5068 14.3477C14.6441 14.1952 14.8399 14.0391 15.1289 13.8945L15.4043 13.7646C15.6734 13.6463 15.9337 13.5551 16.1855 13.4893L16.1865 13.4902C16.3787 13.4413 16.5356 13.4091 16.6611 13.3896L17.0342 13.8057ZM9 1H1V9H0V0H9V1ZM36 9L35 8.99805V1H27V0H36V9ZM27.5 6.5L23.8047 8.34668C23.7466 8.29354 23.6876 8.2409 23.627 8.18945L23.6055 8.1709L23.583 8.15332L23.3672 7.98047L23.0947 7.78027C23.0748 7.76631 23.0573 7.75387 23.0459 7.74609C23.0291 7.73469 23.0306 7.73604 23.0225 7.73047C22.9477 7.67938 22.8591 7.62008 22.7617 7.55957C22.7508 7.5528 22.7413 7.54716 22.7344 7.54297C22.7299 7.54024 22.7257 7.53794 22.7227 7.53613C22.6426 7.48707 22.5654 7.44255 22.4941 7.40234C22.4887 7.39928 22.4881 7.39855 22.4707 7.38867C22.458 7.38147 22.4374 7.36979 22.4131 7.35645L22.2959 7.29492L27 6L28.7363 4L27.5 6.5ZM21.5234 6.94141C21.5068 6.93486 21.4904 6.92738 21.4736 6.9209C21.4423 6.90881 21.4147 6.899 21.4023 6.89453L21.3887 6.88965C21.3158 6.86246 21.2443 6.83726 21.1748 6.81348C21.165 6.81013 21.1622 6.80955 21.1396 6.80176C21.1228 6.79592 21.0969 6.78701 21.0674 6.77734L20.7793 6.6875L20.708 6.66797C20.6992 6.6656 20.6981 6.66534 20.6934 6.66406H20.6914L20.4326 6.59473L19.6533 4L21.5234 6.94141Z" fill="white"/>
</svg>
