<svg width="36" height="36" viewBox="0 0 36 36" fill="none" xmlns="http://www.w3.org/2000/svg">
<path d="M1 35H9V36H0V27H1V35Z" fill="white"/>
<path d="M36 36H27V35H35V27H36V36Z" fill="white"/>
<path d="M9 1H1V9H0V0H9V1Z" fill="white"/>
<path d="M36 9H35V1H27V0H36V9Z" fill="white"/>
<path d="M8.33903 5C6.50107 5 5 6.50118 5 8.33908C5 10.177 6.50107 11.6781 8.33903 11.6781C10.1769 11.6781 11.6779 10.177 11.6779 8.33908C11.6779 6.50113 10.1769 5 8.33903 5ZM9.10746 6.16751C10.0035 6.48182 10.641 7.33153 10.641 8.33908C10.642 8.64167 10.5832 8.94147 10.4678 9.22122C10.3525 9.50097 10.183 9.75514 9.96904 9.9691C9.75508 10.1831 9.50091 10.3526 9.22116 10.4679C8.94141 10.5832 8.64161 10.6421 8.33903 10.641C8.03644 10.6421 7.73664 10.5832 7.4569 10.4679C7.17715 10.3526 6.92297 10.1831 6.70901 9.9691C6.49505 9.75514 6.32553 9.50097 6.21021 9.22122C6.09489 8.94147 6.03605 8.64167 6.03707 8.33908C6.03707 8.30857 6.03818 8.27822 6.03929 8.24798C6.3759 8.71647 6.92512 9.02196 7.54602 9.02196C8.57022 9.02196 9.40051 8.19161 9.40051 7.16736C9.40051 6.79906 9.2926 6.45602 9.10746 6.16751ZM17.8769 6.82525C14.6506 6.82536 12.0444 9.4677 12.0444 12.6903C12.0444 15.3827 13.8731 17.6565 16.3575 18.3342C15.8909 19.3137 15.6086 20.4025 15.6086 21.5685C15.6086 25.8121 19.0768 29.2804 23.3204 29.2804C27.5639 29.2804 31 25.8094 31 21.5685C31 19.4556 30.1256 17.5501 28.7442 16.1616C29.6518 15.3471 30.2224 14.1561 30.2224 12.8522C30.2224 10.4279 28.2399 8.44544 25.8156 8.44544C24.6647 8.44544 23.6299 8.90789 22.8512 9.63332C21.8217 7.9602 19.9819 6.82525 17.8769 6.82525ZM17.8769 7.86221C19.7891 7.86221 21.4338 9.0011 22.2115 10.6195C22.0874 10.9354 22.0238 11.2718 22.024 11.6111C22.024 13.1114 23.24 14.3276 24.7403 14.3276C26.2405 14.3276 27.4567 13.1114 27.4567 11.6111C27.4567 10.7895 27.0913 10.0536 26.5147 9.55553C28.0402 9.87744 29.1855 11.2308 29.1855 12.8521C29.1855 14.0297 28.5763 15.0938 27.6688 15.692L27.0943 16.0707L27.6169 16.5185C29.0453 17.7425 29.9632 19.5449 29.9632 21.5685C29.9632 25.251 27.0003 28.2434 23.3207 28.2434C20.1492 28.2434 17.4863 26.0184 16.8112 23.048C17.6813 24.2963 19.1274 25.1133 20.7645 25.1133C23.4243 25.1133 25.5803 22.9572 25.5803 20.2975C25.5803 17.6377 23.4243 15.4816 20.7645 15.4816C19.1898 15.4816 17.7919 16.2376 16.9131 17.4062C14.7264 16.9526 13.0814 15.0168 13.0814 12.6902C13.0814 12.6628 13.0819 12.6356 13.0823 12.6083C13.6119 13.9229 14.8985 14.8512 16.4027 14.8512C18.3794 14.8512 19.9819 13.2489 19.9819 11.2721C19.9819 9.68908 18.9535 8.34696 17.5288 7.87486C17.6446 7.86651 17.7607 7.86229 17.8769 7.86221ZM9.6645 16.9302C9.2586 16.9288 8.85432 16.9814 8.46231 17.0867C6.01682 17.7422 4.58621 20.2727 5.24024 22.7137C5.60476 24.0742 6.54418 25.115 7.72806 25.6653C7.3905 26.3828 7.28548 27.2167 7.50713 28.0438C8.00802 29.9132 9.96166 31.0092 11.8244 30.51C13.6871 30.0109 14.7979 28.0867 14.2989 26.224C14.1053 25.5018 13.6963 24.8935 13.1617 24.4476C14.0874 23.3466 14.4993 21.8392 14.0977 20.3404C13.5653 18.3532 11.7924 17.0145 9.83444 16.9339C9.77784 16.9316 9.72114 16.9304 9.6645 16.9302ZM9.6645 17.9658C9.70855 17.9659 9.75249 17.9668 9.79627 17.9686C11.3146 18.0287 12.6819 19.0631 13.0961 20.6087C13.4537 21.9433 12.9849 23.2698 12.0203 24.1429L11.4841 24.628L12.1157 24.9801C12.6811 25.2952 13.1166 25.8181 13.2972 26.4923C13.6519 27.8161 12.8796 29.1538 11.556 29.5083C10.3953 29.8193 9.19856 29.2651 8.68341 28.2358C9.07687 28.4119 9.51905 28.4469 9.93531 28.3348C10.9388 28.0659 11.5343 27.0344 11.2654 26.0309C10.9965 25.0275 9.96504 24.4321 8.96159 24.701C8.81159 24.7411 8.66713 24.7996 8.5315 24.8752C7.43766 24.5075 6.56321 23.6452 6.24175 22.4453C6.2049 22.307 6.17622 22.1667 6.15586 22.0251C6.76406 23.0297 7.98206 23.557 9.17337 23.2378C10.6183 22.8507 11.4759 21.3653 11.0886 19.9202C10.8278 18.9466 10.0682 18.2405 9.1585 18.0013C9.3261 17.9774 9.4952 17.9656 9.6645 17.9658Z" fill="white"/>
</svg>
