<svg width="36" height="36" viewBox="0 0 36 36" fill="none" xmlns="http://www.w3.org/2000/svg">
<path d="M1 35H9V36H0V27H1V35Z" fill="white"/>
<path d="M36 36H27V35H35V27H36V36Z" fill="white"/>
<path d="M16.9238 8.30078C17.6248 17.7732 21.8342 28.1852 24.8887 19.3799C24.0893 27.435 28.9242 25.08 32.8037 21.9785C29.0097 25.718 27.6419 28.5963 27.7734 32.6475H23.8867C24.4703 25.5472 14.1086 24.1419 13.7285 32.6475H8.20605C8.40558 29.867 8.17106 28.7452 5.1748 25.8086C10.2858 29.5648 13.0729 27.5149 10.3594 17.3291C15.887 29.7038 17.5301 16.8495 16.9238 8.30078Z" fill="white"/>
<path d="M5.41895 20.9629C6.30667 20.9629 7.02637 21.6827 7.02637 22.5703C7.02628 23.458 6.30649 24.1777 5.41895 24.1777C4.53143 24.1776 3.81252 23.4578 3.8125 22.5703C3.8125 21.6826 4.53148 20.963 5.41895 20.9629Z" fill="white"/>
<path d="M26.9512 12.0283C28.2129 12.0284 29.2343 13.0518 29.2344 14.3135C29.2344 15.5753 28.213 16.5995 26.9512 16.5996C25.6893 16.5996 24.665 15.5754 24.665 14.3135C24.6651 13.0516 25.6894 12.0283 26.9512 12.0283Z" fill="white"/>
<path d="M24.3896 7.41211C25.2771 7.41224 25.9969 8.1312 25.9971 9.01855C25.9971 9.9062 25.2772 10.6258 24.3896 10.626C23.5022 10.626 22.7826 9.90691 22.7822 9.01953C22.7822 8.1318 23.502 7.41211 24.3896 7.41211Z" fill="white"/>
<path d="M9 1H1V9H0V0H9V1Z" fill="white"/>
<path d="M36 9H35V1H27V0H36V9Z" fill="white"/>
<path d="M16.9199 2.64746C17.6942 2.64765 18.3213 3.27565 18.3213 4.0498C18.3212 4.82399 17.694 5.45007 16.9199 5.4502C16.1456 5.4502 15.5176 4.82403 15.5176 4.0498C15.5176 3.29964 16.1078 2.68501 16.8486 2.64746C16.8725 2.64633 16.8958 2.64746 16.9199 2.64746Z" fill="white"/>
</svg>
