<svg width="36" height="36" viewBox="0 0 36 36" fill="none" xmlns="http://www.w3.org/2000/svg">
<path d="M1 35H9V36H0V27H1V35Z" fill="#B9B29D"/>
<path d="M36 36H27V35H35V27H36V36Z" fill="#B9B29D"/>
<path fill-rule="evenodd" clip-rule="evenodd" d="M18.0752 11.168C21.9582 11.168 25.0927 14.3026 25.0928 18.1855C25.0928 22.0685 21.9583 25.2031 18.0752 25.2031C14.1922 25.203 11.0576 22.0683 11.0576 18.1855C11.0578 14.3028 14.1923 11.1681 18.0752 11.168ZM17.9697 13.8896C15.6097 13.8898 13.6838 15.8157 13.6836 18.1758C13.6836 20.536 15.6095 22.4627 17.9697 22.4629C20.3299 22.4629 22.2568 20.5361 22.2568 18.1758C22.2575 17.393 22.0423 16.6253 21.6348 15.957C21.6363 15.9889 21.6377 16.0214 21.6377 16.0537C21.6376 16.6426 21.3838 17.1723 20.9805 17.54C21.0253 17.7474 21.0498 17.9624 21.0498 18.1826C21.0496 19.8627 19.6743 21.2381 17.9941 21.2383C16.3139 21.2383 14.9387 19.8628 14.9385 18.1826C14.9385 16.5547 16.2294 15.213 17.8379 15.1309C18.1146 14.5957 18.6238 14.2006 19.2324 14.0801C18.8236 13.9535 18.3977 13.8894 17.9697 13.8896ZM17.6426 16.3936C16.7996 16.5552 16.1719 17.2891 16.1719 18.1826C16.1721 19.1963 16.9804 20.0049 17.9941 20.0049C19.0078 20.0048 19.8162 19.1963 19.8164 18.1826C19.8164 18.1403 19.8143 18.0981 19.8115 18.0566C19.7502 18.0623 19.6878 18.0654 19.625 18.0654C18.6922 18.0653 17.9082 17.4298 17.6807 16.5684L17.6426 16.3936Z" fill="#B9B29D"/>
<path fill-rule="evenodd" clip-rule="evenodd" d="M19.4883 5.39941C22.1411 5.73408 24.5431 6.88239 26.4346 8.58691L27.4277 7.59375L28.2988 8.46582L27.3096 9.45605C29.0637 11.3706 30.244 13.8197 30.5752 16.5283L34 18.0244L30.5908 19.5146C30.282 22.2966 29.0794 24.8116 27.2764 26.7646L28.2988 27.7881L27.4277 28.6592L26.3975 27.6299C24.4914 29.3344 22.0729 30.4772 19.4033 30.7959L18.0029 34L16.6143 30.8242C13.7853 30.5465 11.2249 29.3455 9.23926 27.5264L8.10547 28.6592L7.2334 27.7881L8.37109 26.6504C6.60169 24.6871 5.43117 22.1736 5.14844 19.4004L2 18.0254L5.16309 16.6426C5.46872 13.9425 6.61777 11.4948 8.33887 9.57031L7.2334 8.46582L8.10547 7.59375L9.20312 8.69141C11.1742 6.87175 13.7177 5.66408 16.5303 5.36914L18.0029 2L19.4883 5.39941ZM16.5869 6.60254C14.0867 6.87919 11.8285 7.95001 10.0703 9.55859L11.2881 10.7764C10.9806 11.0498 10.6903 11.3419 10.4189 11.6514L9.20605 10.4385C7.73103 12.1086 6.73173 14.209 6.41895 16.5293L9.84082 18.0254L6.40332 19.5273C6.69814 21.9152 7.71922 24.0759 9.23926 25.7822L10.376 24.6455C10.6452 24.9564 10.9337 25.2501 11.2393 25.5254L10.1064 26.6592C11.8412 28.2331 14.0581 29.2856 16.5107 29.5732L18.0029 26.1592L19.4814 29.543C21.7848 29.2237 23.8695 28.2275 25.5293 26.7617L24.3828 25.6152C24.6921 25.344 24.9844 25.0535 25.2578 24.7461L26.4092 25.8975C28.0087 24.1494 29.0772 21.907 29.3613 19.4238L26.1592 18.0244L29.3457 16.6318C29.0422 14.2168 27.9961 12.0347 26.4424 10.3223L25.2148 11.5498C24.9397 11.2441 24.6459 10.9558 24.335 10.6865L25.5664 9.45508C23.8827 7.95517 21.7558 6.94182 19.4053 6.63184L18.0029 9.84082L16.5869 6.60254Z" fill="#B9B29D"/>
<path d="M9 1H1V9H0V0H9V1Z" fill="#B9B29D"/>
<path d="M36 9H35V1H27V0H36V9Z" fill="#B9B29D"/>
</svg>
