<svg width="64" height="64" viewBox="0 0 64 64" fill="none" xmlns="http://www.w3.org/2000/svg">
<path d="M4 60H16V64H0V48H4V60Z" fill="white"/>
<path d="M64 64H48V60H60V48H64V64Z" fill="white"/>
<path fill-rule="evenodd" clip-rule="evenodd" d="M31.4678 13.0742C36.2983 13.0742 40.2156 16.9813 40.2158 21.7988C40.2158 26.6168 36.2984 30.5205 31.4678 30.5205C26.6372 30.5203 22.7236 26.6164 22.7236 21.7988C22.7238 16.9814 26.6373 13.0745 31.4678 13.0742ZM31.4111 18.3311C29.6784 18.3311 28.2725 19.73 28.2725 21.458C28.2726 23.186 29.6785 24.5879 31.4111 24.5879C33.1439 24.5878 34.5459 23.186 34.5459 21.458C34.5459 19.73 33.1438 18.3311 31.4111 18.3311Z" fill="white"/>
<path fill-rule="evenodd" clip-rule="evenodd" d="M30.918 9C40.4973 9.00411 50.4386 13.7591 57 23.249C54.4366 27.0038 49.4459 28.8772 47.2988 36.3594V43.8486C47.7481 44.7641 48.2147 45.6407 48.2148 46.8008C48.2148 48.2191 47.2746 49.2422 46.2715 49.2422C45.2905 49.2422 44.2649 48.1713 44.2646 46.6777C44.2646 45.3687 44.8123 44.4664 45.291 43.5068V37.1025C43.5232 31.8706 39.5541 35.669 37.9062 42.7373H37.9297V51.7959C38.5436 52.9904 39.3056 53.9512 39.3057 55.499C39.3057 56.9577 38.0769 57.9999 36.9229 58C35.7429 58 34.6641 57.0079 34.6641 55.623C34.6641 54.2456 35.3417 53.2858 35.9229 52.1611V44.1436C34.125 38.6385 29.9088 36.8877 28.2246 40.7949V49.168C28.8453 50.7137 29.6455 51.5 29.6455 52.4961C29.6454 54.5143 28.6042 55.1201 27.3252 55.1201C26.0178 55.12 24.754 54.4118 24.7539 52.4961C24.7539 51.2189 25.5342 50.5248 26.2178 49.4023V40.7686C23.5874 34.8733 16.5676 32.4355 14.8486 35.8809V39.3389C15.339 40.3265 16.1239 41.0169 16.124 42.2344C16.1242 43.26 14.7918 44.2969 13.8037 44.2969C12.794 44.2966 11.5449 43.3321 11.5449 42.3584C11.545 41.1584 12.3293 40.4014 12.8408 39.3154V33.9619C11.8422 30.1139 9.28174 27.4093 7 23.249C12.1196 13.7432 21.3383 8.99604 30.918 9ZM30.9648 11.3574C22.4547 11.4206 14.2057 15.4085 9.81934 23.2451C24.0766 35.4087 38.0879 35.3883 54.1807 23.7744C48.8048 15.4043 39.7452 11.2926 30.9648 11.3574Z" fill="white"/>
<path d="M16 4H4V16H0V0H16V4Z" fill="white"/>
<path d="M64 16H60V4H48V0H64V16Z" fill="white"/>
</svg>
