<svg width="36" height="36" viewBox="0 0 36 36" fill="none" xmlns="http://www.w3.org/2000/svg">
<path d="M1 35H9V36H0V27H1V35Z" fill="#444856"/>
<path d="M36 36H27V35H35V27H36V36Z" fill="#444856"/>
<path fill-rule="evenodd" clip-rule="evenodd" d="M17.7006 7.35425C20.4178 7.35425 22.6213 9.55196 22.6214 12.2618C22.6214 14.9719 20.4179 17.1678 17.7006 17.1678C14.9834 17.1677 12.782 14.9717 12.782 12.2618C12.7822 9.55205 14.9835 7.3544 17.7006 7.35425ZM17.6688 10.3112C16.6941 10.3112 15.9033 11.0981 15.9033 12.0701C15.9033 13.0421 16.6942 13.8307 17.6688 13.8307C18.6434 13.8307 19.4321 13.0421 19.4321 12.0701C19.4321 11.0981 18.6434 10.3112 17.6688 10.3112Z" fill="#444856"/>
<path fill-rule="evenodd" clip-rule="evenodd" d="M17.3914 5.0625C22.7797 5.06481 28.3717 7.73947 32.0625 13.0776C30.6206 15.1897 27.8133 16.2434 26.6056 20.4521V24.6649C26.8583 25.1798 27.1208 25.6729 27.1208 26.3254C27.1208 27.1232 26.5919 27.6987 26.0277 27.6987C25.4759 27.6987 24.899 27.0964 24.8989 26.2562C24.8989 25.5199 25.2069 25.0123 25.4762 24.4726V20.8702C24.4818 17.9272 22.2492 20.0638 21.3223 24.0397H21.3354V29.1352C21.6808 29.8071 22.1094 30.3476 22.1094 31.2182C22.1094 32.0387 21.4183 32.625 20.7691 32.625C20.1054 32.625 19.4986 32.0669 19.4985 31.288C19.4985 30.5132 19.8797 29.9733 20.2066 29.3406V24.8307C19.1953 21.7342 16.8237 20.7493 15.8763 22.9471V27.657C16.2255 28.5264 16.6756 28.9687 16.6756 29.5291C16.6756 30.6643 16.0899 31.0051 15.3704 31.0051C14.635 31.005 13.9241 30.6066 13.9241 29.5291C13.9241 28.8106 14.363 28.4202 14.7475 27.7888V22.9323C13.2679 19.6162 9.31925 18.245 8.35236 20.183V22.1281C8.62816 22.6836 9.06968 23.072 9.06976 23.7568C9.06988 24.3337 8.32036 24.917 7.76459 24.917C7.19665 24.9168 6.49402 24.3743 6.49402 23.8266C6.49406 23.1516 6.93524 22.7258 7.22296 22.1149V19.1036C6.66124 16.9391 5.22098 15.4177 3.9375 13.0776C6.81728 7.73053 12.0028 5.06027 17.3914 5.0625ZM17.4177 6.38855C12.6308 6.4241 7.99071 8.66726 5.52338 13.0754C13.5431 19.9174 21.4244 19.9059 30.4766 13.3731C27.4527 8.66492 22.3567 6.3521 17.4177 6.38855Z" fill="#444856"/>
<path d="M9 1H1V9H0V0H9V1Z" fill="#444856"/>
<path d="M36 9H35V1H27V0H36V9Z" fill="#444856"/>
</svg>
