<svg width="36" height="36" viewBox="0 0 36 36" fill="none" xmlns="http://www.w3.org/2000/svg">
<path d="M1 35H9V36H0V27H1V35ZM36 36H27V35H35V27H36V36ZM14.7256 32L12.8682 29.5625H13.2988L14.7256 32ZM25.3086 32L22.3848 29.5625H24.0068L25.3086 30.6406L32 27.918L25.3086 32ZM18.1279 8.28516C18.5819 8.28518 19.0188 8.3206 19.4385 8.39062C19.4507 8.39266 19.4624 8.39439 19.4746 8.39648C19.5271 8.40551 19.5799 8.41468 19.6318 8.4248C19.6475 8.42786 19.6631 8.43141 19.6787 8.43457C19.822 8.46352 19.9634 8.49583 20.1025 8.5332L20.3145 8.59375C20.3305 8.59863 20.3463 8.60437 20.3623 8.60938C20.4139 8.62548 20.4656 8.64187 20.5166 8.65918C20.5316 8.66428 20.5465 8.66963 20.5615 8.6748L20.5762 8.67969C20.6282 8.69793 20.68 8.7178 20.7314 8.7373L20.7607 8.74805L20.9307 8.81641L20.9717 8.83301C21.0366 8.86063 21.1012 8.88923 21.165 8.91895L21.333 8.99902C21.3993 9.03182 21.465 9.0666 21.5293 9.10156L21.6504 9.16895L21.6885 9.19141L21.7998 9.25781L21.8799 9.30957H21.8789C21.8992 9.32255 21.9195 9.33533 21.9395 9.34863C21.9698 9.36883 22.0005 9.3894 22.0303 9.41016C22.0467 9.42162 22.0628 9.43369 22.0791 9.44531C22.103 9.46241 22.1268 9.47961 22.1504 9.49707C22.1764 9.51632 22.203 9.53597 22.2285 9.55566C22.2474 9.57022 22.2665 9.58481 22.2852 9.59961C22.3107 9.6199 22.3362 9.64039 22.3613 9.66113C22.3816 9.67785 22.4019 9.6949 22.4219 9.71191C22.4459 9.7324 22.4695 9.7535 22.4932 9.77441C22.5122 9.79123 22.5311 9.8081 22.5498 9.8252C22.5716 9.84512 22.5938 9.86544 22.6152 9.88574C22.6388 9.90807 22.6624 9.93132 22.6855 9.9541C22.6983 9.96667 22.711 9.97948 22.7236 9.99219C22.7494 10.0181 22.7755 10.0438 22.8008 10.0703C22.8255 10.0963 22.8498 10.1229 22.874 10.1494C22.8848 10.1613 22.8956 10.1736 22.9062 10.1855C22.9321 10.2144 22.9572 10.2439 22.9824 10.2734C22.9966 10.29 23.0114 10.3074 23.0254 10.3242C23.1357 10.457 23.2407 10.5956 23.3389 10.7412L23.4365 10.8936C23.4976 10.9928 23.5552 11.095 23.6084 11.1992C23.6227 11.2272 23.6357 11.2558 23.6494 11.2842C23.6599 11.3058 23.6705 11.3278 23.6807 11.3496C23.6943 11.379 23.7077 11.4087 23.7207 11.4385C23.7332 11.467 23.7459 11.4955 23.7578 11.5244C23.7638 11.5388 23.7696 11.5539 23.7754 11.5684C23.7919 11.6095 23.8088 11.6506 23.8242 11.6924C23.8301 11.7084 23.8351 11.7251 23.8408 11.7412C23.8542 11.7787 23.8674 11.8165 23.8799 11.8545C23.8901 11.8857 23.8995 11.9176 23.9092 11.9492C23.9166 11.9736 23.9245 11.9979 23.9316 12.0225C23.94 12.0515 23.9482 12.081 23.9561 12.1104C23.964 12.1398 23.9711 12.1695 23.9785 12.1992C23.9868 12.2325 23.9952 12.2661 24.0029 12.2998C24.0088 12.3254 24.015 12.3511 24.0205 12.377C24.0279 12.4115 24.0343 12.4465 24.041 12.4814C24.0469 12.512 24.0522 12.5433 24.0576 12.5742C24.0634 12.6075 24.07 12.6412 24.0752 12.6748C24.0791 12.7001 24.0833 12.7255 24.0869 12.751C24.092 12.7867 24.0961 12.8233 24.1006 12.8594C24.1029 12.8784 24.1053 12.8979 24.1074 12.917C24.1121 12.9581 24.1163 12.9994 24.1201 13.041C24.1235 13.0781 24.1261 13.1158 24.1289 13.1533C24.1312 13.1843 24.1339 13.2158 24.1357 13.2471C24.1371 13.2691 24.1385 13.2913 24.1396 13.3135C24.1444 13.4091 24.1477 13.5063 24.1484 13.6045C24.1486 13.6219 24.1484 13.6398 24.1484 13.6572L24.1465 13.875C24.144 13.983 24.139 14.0901 24.1328 14.1953C24.1297 14.2474 24.1261 14.2992 24.1221 14.3506C24.1084 14.526 24.0897 14.6978 24.0654 14.8652C24.0598 14.9042 24.0531 14.9429 24.0469 14.9814C24.0426 15.0082 24.0388 15.035 24.0342 15.0615C24.0281 15.0967 24.0212 15.1322 24.0146 15.167C24.0103 15.1898 24.0055 15.2127 24.001 15.2354C23.994 15.2704 23.987 15.3052 23.9795 15.3398C23.9746 15.3624 23.9699 15.3858 23.9648 15.4082C23.9548 15.4525 23.9435 15.4963 23.9326 15.54C23.9291 15.5539 23.9264 15.5682 23.9229 15.582C23.9118 15.6252 23.8996 15.6684 23.8877 15.7109C23.8807 15.736 23.8735 15.7613 23.8662 15.7861C23.8584 15.8129 23.851 15.8397 23.8428 15.8662C23.834 15.8946 23.8246 15.9231 23.8154 15.9512C23.8034 15.988 23.791 16.0252 23.7783 16.0615C23.7758 16.0687 23.773 16.0758 23.7705 16.083C23.6959 16.295 23.6104 16.4998 23.5137 16.6953C23.2771 17.1734 22.9745 17.6254 22.6113 18.0557L22.6133 18.0576C22.5919 18.0829 22.5687 18.1067 22.5469 18.1318C22.5118 18.1723 22.4766 18.2129 22.4404 18.2529C22.3923 18.3061 22.343 18.3587 22.293 18.4111C22.2565 18.4493 22.2201 18.4877 22.1826 18.5254C22.1341 18.5743 22.0835 18.6217 22.0332 18.6699C21.9948 18.7067 21.9574 18.7449 21.918 18.7812C21.8271 18.8651 21.7341 18.9485 21.6377 19.0303C21.5289 19.1236 21.4163 19.2169 21.3008 19.3105C21.2887 19.3203 21.2758 19.3291 21.2637 19.3389C20.622 19.8559 19.8793 20.3786 19.0342 20.9053C18.8967 20.9912 18.7563 21.0771 18.6133 21.1631C18.4893 21.2383 18.3686 21.3129 18.251 21.3867C17.6061 21.7915 17.0575 22.1769 16.6045 22.541C16.5765 22.5636 16.5488 22.586 16.5215 22.6084C16.488 22.6358 16.4549 22.6636 16.4229 22.6924C16.2294 22.8664 16.0629 23.067 15.9238 23.293C15.8775 23.3682 15.8333 23.4463 15.793 23.5273C15.6521 23.8109 15.5484 24.1303 15.4814 24.4844H24.2568V27.5625H12.1338C12.0798 27.2745 12.035 26.9862 11.999 26.6982C11.963 26.4013 11.9453 26.0588 11.9453 25.6719C11.9454 24.5782 12.1152 23.6374 12.4531 22.8486V22.8496L12.498 22.7432C12.5436 22.6456 12.5921 22.5492 12.6426 22.4541C12.6582 22.4246 12.6743 22.3954 12.6904 22.3662C12.7813 22.2014 12.8793 22.04 12.9854 21.8828C13.0418 21.7991 13.1013 21.7163 13.1621 21.6348C13.1789 21.6123 13.1958 21.5897 13.2129 21.5674C13.2365 21.5366 13.2599 21.5051 13.2842 21.4746C13.2934 21.463 13.3032 21.4511 13.3125 21.4395C13.4358 21.2863 13.5669 21.1365 13.7061 20.9912C13.7375 20.9584 13.7695 20.926 13.8018 20.8936C13.8183 20.877 13.8348 20.8602 13.8516 20.8438L13.9004 20.7969C13.9425 20.7561 13.986 20.7162 14.0293 20.6758L14.0312 20.6738C14.0688 20.6391 14.106 20.6036 14.1445 20.5693C14.2257 20.4982 14.3092 20.4274 14.3945 20.3564C14.4247 20.3314 14.4557 20.3063 14.4863 20.2812C14.5481 20.2308 14.611 20.1802 14.6748 20.1299C14.7058 20.1055 14.7371 20.081 14.7686 20.0566C14.834 20.006 14.9012 19.9558 14.9688 19.9053C15.0005 19.8815 15.0322 19.8568 15.0645 19.833C15.1512 19.7691 15.2399 19.7054 15.3301 19.6416C15.384 19.6035 15.439 19.5654 15.4941 19.5273C15.5497 19.489 15.6063 19.4504 15.6631 19.4121C15.6963 19.3897 15.73 19.3671 15.7637 19.3447C15.8397 19.2942 15.9169 19.2438 15.9951 19.1934C16.0337 19.1685 16.0722 19.143 16.1113 19.1182C16.1257 19.109 16.1408 19.1 16.1553 19.0908C16.3728 18.9533 16.5984 18.8163 16.832 18.6797C17.0359 18.5605 17.2385 18.4347 17.4424 18.3066C17.5221 18.2565 17.6029 18.2076 17.6826 18.1562C17.8376 18.0566 17.9926 17.9544 18.1475 17.8496L18.5186 17.5928C18.541 17.577 18.5644 17.5618 18.5869 17.5459C18.6622 17.4926 18.7357 17.4377 18.8076 17.3818C19.0231 17.2144 19.2239 17.0356 19.4102 16.8457C19.6447 16.6064 19.857 16.3495 20.0449 16.0742C20.0833 16.0183 20.1196 15.9605 20.1543 15.9023C20.1842 15.8523 20.2122 15.8008 20.2393 15.749C20.2679 15.6942 20.2957 15.6387 20.3213 15.582C20.4582 15.2785 20.5504 14.9478 20.5986 14.5898C20.6185 14.4425 20.6309 14.2904 20.6357 14.1338L20.6387 13.9814C20.6387 13.8937 20.6349 13.8071 20.6279 13.7217C20.6142 13.5512 20.5862 13.3856 20.5449 13.2246C20.5242 13.144 20.5002 13.0646 20.4727 12.9863C20.4442 12.9057 20.4117 12.8263 20.376 12.748C20.3402 12.6698 20.301 12.5923 20.2578 12.5166C20.2188 12.4482 20.1769 12.3808 20.1318 12.3145C20.0837 12.2436 20.0315 12.1739 19.9766 12.1055C19.8754 11.9769 19.7591 11.8642 19.6289 11.7656V11.7646C19.203 11.4429 18.6218 11.2813 17.8848 11.2812C17.7906 11.2812 17.6981 11.2852 17.6074 11.291C16.8042 11.3421 16.1393 11.6189 15.6123 12.1221C15.5679 12.1645 15.5239 12.2083 15.4814 12.2539C15.4372 12.3022 15.3944 12.3519 15.3525 12.4023C15.3055 12.459 15.2598 12.5169 15.2158 12.5762C15.128 12.6946 15.0464 12.8183 14.9707 12.9473C14.9328 13.0117 14.8962 13.0774 14.8613 13.1445C14.7661 13.328 14.6821 13.5214 14.6094 13.7246C14.5518 13.8854 14.5007 14.0524 14.457 14.2256C14.4134 14.399 14.377 14.5788 14.3477 14.7646L11.4854 13.4141C11.4945 13.3548 11.5047 13.2959 11.5156 13.2373C11.5229 13.1979 11.531 13.1582 11.5391 13.1191C11.6792 12.4445 11.9385 11.8129 12.3164 11.2256C12.3249 11.2124 12.3342 11.1997 12.3428 11.1865C12.3707 11.144 12.3996 11.1017 12.4287 11.0596C12.437 11.0476 12.4448 11.0353 12.4531 11.0234C12.494 10.9652 12.5358 10.9069 12.5791 10.8496C12.627 10.7854 12.6762 10.7221 12.7266 10.6602C12.7285 10.6578 12.7305 10.6556 12.7324 10.6533L12.7578 10.624C12.8086 10.5626 12.86 10.5017 12.9131 10.4424L13.0752 10.2686C13.0794 10.2642 13.0836 10.2592 13.0879 10.2549L13.1807 10.1631C13.2715 10.0743 13.3649 9.98762 13.4619 9.9043L13.502 9.87109C13.5056 9.86811 13.5101 9.86535 13.5137 9.8623C13.5584 9.82474 13.6034 9.7874 13.6494 9.75098C13.6653 9.73836 13.6812 9.72537 13.6973 9.71289C14.0523 9.43741 14.4446 9.19491 14.874 8.98633C14.9887 8.92954 15.1058 8.87607 15.2246 8.82617L15.2285 8.8252C15.3057 8.79285 15.384 8.76186 15.4629 8.73242C15.4809 8.72568 15.4994 8.7185 15.5176 8.71191C15.5881 8.68633 15.6596 8.66196 15.7314 8.63867C15.7431 8.6349 15.7549 8.63164 15.7666 8.62793C15.851 8.60112 15.9372 8.57542 16.0234 8.55176C16.0344 8.54875 16.0456 8.54593 16.0566 8.54297C16.1254 8.52448 16.1947 8.50673 16.2646 8.49023C16.2922 8.48373 16.3199 8.47689 16.3477 8.4707C16.5172 8.43287 16.6907 8.4013 16.8672 8.375C16.8857 8.37224 16.9043 8.36884 16.9229 8.36621C17.0041 8.3547 17.0862 8.34404 17.1689 8.33496C17.179 8.33386 17.1891 8.3331 17.1992 8.33203C17.499 8.30029 17.8092 8.28516 18.1279 8.28516ZM10.3467 22.7832C10.0668 23.6848 9.94536 24.6572 9.94531 25.6719C9.94531 25.6908 9.94524 25.7097 9.94531 25.7285L9.17871 24.7227L4 26.416L10.3467 22.7832ZM32 25.1221L23.6279 19.9062C23.8334 19.6981 24.0276 19.4829 24.2109 19.2607L32 25.1221ZM10.9346 8.6123L11.6113 8.90625C11.4725 9.05057 11.3412 9.19739 11.2178 9.34668C11.2168 9.34788 11.2172 9.34855 11.2139 9.35254L11.1826 9.38965C11.1164 9.47088 11.0493 9.55558 10.9834 9.64355C10.9464 9.69246 10.9113 9.74127 10.877 9.78906L8.11133 8.58691L9.2002 13.8721L9.38574 13.9082L9.28223 14.5859L14.2969 16.9521C14.3009 16.9596 14.3046 16.9672 14.3086 16.9746L11.8594 16.0518L11.6221 15.9844L11.4873 15.9121L8.61621 14.8301L4 13L8.07129 13.8594L6.89551 8.14844L6.88574 8.15918L4 5.48535L7.28613 7.02637L9.90234 8.16504L14.125 4L10.9346 8.6123ZM16.8262 14.2598C17.1731 14.8111 17.5051 15.3996 17.8125 16.0156C17.7475 16.0672 17.6809 16.1188 17.6113 16.168C17.2443 16.4277 16.8785 16.6709 16.5146 16.8984C16.3255 16.4979 16.1216 16.1045 15.9053 15.7188L16.0146 15.0273C16.0395 14.8698 16.0711 14.7231 16.1074 14.5859C16.199 14.2406 16.3241 13.957 16.4746 13.7217C16.5931 13.8968 16.7106 14.0761 16.8262 14.2598ZM17.8848 12.9688C18.5344 12.9688 18.6478 13.1435 18.6514 13.1484L18.6611 13.1621C18.8621 13.4124 18.9511 13.6653 18.9512 13.9814C18.9511 14.3389 18.8942 14.6132 18.8066 14.8301C18.786 14.8815 18.7632 14.9293 18.7393 14.9746C18.7122 15.0256 18.6846 15.074 18.6543 15.1182L18.6514 15.123C18.6232 15.1644 18.5933 15.2048 18.5635 15.2451C18.077 14.5158 17.4869 13.8648 16.8027 13.3184C17.0364 13.1066 17.3556 12.9688 17.8848 12.9688ZM26.1318 14.2285C26.137 14.1316 26.143 14.0284 26.1455 13.9209L26.1465 13.9082V13.8955L26.1484 13.6777V13.6035C26.1483 13.5965 26.1475 13.5955 26.1475 13.5918C26.1474 13.5899 26.1475 13.5895 26.1475 13.5898C26.1465 13.4638 26.1438 13.3387 26.1377 13.2148C26.1359 13.1792 26.1327 13.1412 26.1318 13.127C26.1289 13.0773 26.1257 13.0268 26.124 13.0049C26.1229 12.9899 26.1195 12.9544 26.1162 12.9141L32 9.43457L26.1318 14.2285ZM9 1H1V9H0V0H9V1ZM36 9L35 8.98633V1H27V0H36V9ZM27.5 6.5L23.8643 8.31738C23.8449 8.30044 23.8281 8.28597 23.8184 8.27734C23.8041 8.26471 23.7603 8.2257 23.7178 8.18945L23.6348 8.11914L23.5283 8.0332C23.5128 8.02089 23.4817 7.99572 23.4492 7.9707L23.3408 7.88965C23.3159 7.87116 23.2799 7.845 23.2412 7.81738C23.2355 7.81331 23.2017 7.78863 23.1729 7.76855C23.1355 7.7425 23.0928 7.71355 23.0479 7.68359C23.0038 7.65429 22.9586 7.62556 22.9395 7.61328C22.9295 7.6069 22.8902 7.58118 22.8555 7.55957C22.7975 7.52352 22.7427 7.49161 22.7021 7.46777L22.7178 7.47656C22.7171 7.47618 22.7162 7.47546 22.7148 7.47461C22.7112 7.47235 22.7024 7.46695 22.6924 7.46094C22.6821 7.45472 22.668 7.44615 22.6514 7.43652C22.5843 7.3978 22.517 7.36248 22.4844 7.34473C22.4454 7.32352 22.4024 7.30205 22.3574 7.27832L27 6L28.7363 4L27.5 6.5ZM21.4873 6.88379C21.4844 6.88267 21.4814 6.88196 21.4785 6.88086C21.4657 6.87592 21.454 6.87227 21.4482 6.87012C21.4438 6.86844 21.4431 6.86819 21.4404 6.86719C21.3838 6.84572 21.3125 6.81868 21.2363 6.79199L21.1592 6.76562C21.0897 6.74204 21.0226 6.72006 20.959 6.7002L20.9629 6.70117C20.9608 6.70048 20.9596 6.70033 20.9531 6.69824C20.9441 6.69532 20.9221 6.68844 20.8965 6.68066C20.8136 6.65546 20.7346 6.63334 20.665 6.61426L20.6689 6.61523C20.6678 6.61491 20.6675 6.61454 20.6631 6.61328L20.6221 6.60254L20.4189 6.55078L19.6533 4L21.4873 6.88379Z" fill="white"/>
</svg>
