<svg width="36" height="36" viewBox="0 0 36 36" fill="none" xmlns="http://www.w3.org/2000/svg">
<path d="M1 35H9V36H0V27H1V35ZM36 36H27V35H35V27H36V36ZM6.10254 4C14.117 4 13.0828 11.4975 10.5664 18.5029C8.25707 24.9381 7.70576 29.9919 10.9111 32C4.50002 31.9997 4.50037 24.9742 7.70605 17.8311C7.9301 16.9914 8.12809 16.1576 8.2832 15.3359C8.6279 11.8153 7.08523 10.0762 4.5 9.35645C6.42174 9.04456 7.82642 9.19417 8.72266 9.79395C8.56754 7.20291 7.76575 5.10359 6.10254 4ZM14.1709 29.5625H15.3779C15.7669 30.5989 16.4047 31.4246 17.3232 32C13.0144 32 11.6011 28.8274 11.627 24.584C11.6356 22.5089 12.1787 20.0921 13.2041 17.8311C13.5841 16.9908 13.9052 16.1563 14.1709 15.3379V29.5625ZM21.6455 29.5625C22.1318 30.6021 22.8298 31.4333 23.7344 32C20.8274 31.9999 19.1888 31.0771 18.3555 29.5625H21.6455ZM25.3379 4C31.749 4.00027 30.5078 11.1439 28.543 18.4971C27.285 23.1929 28.7502 25.4778 31.749 26.3115C29.8101 26.6234 28.3884 26.4734 27.4922 25.8496C27.5353 28.6698 28.3282 30.8586 30.1465 32C25.3895 32 24.0187 29.5227 24.0273 26.0176C24.036 23.6185 24.683 20.7338 25.3379 17.8311C26.9407 11.9234 28.5433 6.12335 25.3379 4ZM19.8164 27.5625H16.1709V9.95898L16.373 9.86426L18.4717 8.88379L18.5469 8.84766V8.84863L19.4756 8.41699L19.4746 8.41602L19.8164 8.25781V27.5625ZM18.9258 4C25.3373 4 24.7344 11.2456 22.1318 18.5029C22.0188 18.8172 21.9147 19.1298 21.8164 19.4395V5.12793L20.3887 5.78809C20.071 5.05282 19.5977 4.44505 18.9258 4ZM9 1H1V9H0V0H9V1ZM36 9H35V1H27V0H36V9ZM12.5146 4C15.5934 4.00005 17.2843 5.10724 18.0586 6.86719L16.0342 7.80469L16.041 7.81152L15.5264 8.05273L15.5244 8.05371L14.9678 8.31348C14.6732 6.40794 13.859 4.89044 12.5146 4Z" fill="white"/>
</svg>
