<svg width="64" height="64" viewBox="0 0 64 64" fill="none" xmlns="http://www.w3.org/2000/svg">
<path d="M4 60H16V64H0V48H4V60Z" fill="white"/>
<path d="M64 64H48V60H60V48H64V64Z" fill="white"/>
<path d="M20.8008 12.4473C18.458 15.9136 17.2058 19.9892 17.2021 24.1592C17.2021 29.7554 19.4491 35.1228 23.4482 39.0801C27.4476 43.0373 32.8723 45.2607 38.5283 45.2607C41.4259 45.2561 44.2922 44.6674 46.9521 43.5303C49.6122 42.393 52.0106 40.7312 54 38.6465C52.6078 43.3629 49.7077 47.5057 45.7354 50.4541C41.7631 53.4023 36.9323 54.9974 31.9668 55C25.8757 55 20.0336 52.6054 15.7266 48.3438C11.4197 44.0821 9 38.3022 9 32.2754C9.00543 28.2303 10.1023 24.2601 12.1768 20.7744C14.2513 17.2888 17.2283 14.4139 20.8008 12.4473Z" fill="white"/>
<path d="M34.7451 26.0664L31.1152 35.999L37.6982 33.665L38.5283 35.9678L28.1318 39.6406L27.4658 37.8047L31.0947 27.8721L24.8818 30.0742L24.0508 27.7715L34.0781 24.2207L34.7451 26.0664Z" fill="white"/>
<path d="M53.1592 20.7402L52.5957 22.0801L45.5928 25.7217L50.3809 27.7002L49.6729 29.374L42.1172 26.249L42.6807 24.9102L49.6836 21.2686L45.1621 19.4014L45.8691 17.7275L53.1592 20.7402Z" fill="white"/>
<path d="M36.5801 10.0703L35.5449 16.7031L39.3691 14.457L40.1689 15.793L34.1299 19.3506L33.4844 18.2754L34.5293 11.6396L30.9209 13.7646L30.1211 12.4287L35.9443 9L36.5801 10.0703Z" fill="white"/>
<path d="M16 4H4V16H0V0H16V4Z" fill="white"/>
<path d="M64 16H60V4H48V0H64V16Z" fill="white"/>
</svg>
