<svg width="36" height="36" viewBox="0 0 36 36" fill="none" xmlns="http://www.w3.org/2000/svg">
<path d="M1 35H9V36H0V27H1V35Z" fill="#B9B29D"/>
<path d="M36 36H27V35H35V27H36V36Z" fill="#B9B29D"/>
<path d="M11.7004 7.00159C10.3826 8.9514 9.67826 11.2439 9.67621 13.5895C9.67621 16.7374 10.9401 19.7566 13.1896 21.9825C15.4393 24.2085 18.4907 25.4592 21.6722 25.4592C23.3021 25.4566 24.9144 25.1254 26.4106 24.4858C27.9069 23.8461 29.256 22.9113 30.375 21.7386C29.5919 24.3916 27.9606 26.722 25.7261 28.3804C23.4917 30.0388 20.7744 30.936 17.9813 30.9375C14.5551 30.9375 11.2689 29.5906 8.84619 27.1934C6.42357 24.7962 5.0625 21.545 5.0625 18.1549C5.06555 15.8795 5.68252 13.6463 6.84943 11.6856C8.01634 9.72495 9.69091 8.10781 11.7004 7.00159Z" fill="#B9B29D"/>
<path d="M19.5441 14.6624L17.5023 20.2495L21.2053 18.9366L21.6722 20.2319L15.8242 22.2979L15.4495 21.2651L17.4908 15.678L13.996 16.9167L13.5286 15.6215L19.1689 13.6241L19.5441 14.6624Z" fill="#B9B29D"/>
<path d="M29.902 11.6664L29.5851 12.42L25.6459 14.4684L28.3392 15.5814L27.941 16.5229L23.6909 14.7651L24.0079 14.012L27.947 11.9636L25.4037 10.9133L25.8014 9.97174L29.902 11.6664Z" fill="#B9B29D"/>
<path d="M20.5763 5.66455L19.994 9.39551L22.1451 8.13208L22.595 8.88354L19.1981 10.8847L18.835 10.2799L19.4227 6.5473L17.393 7.74261L16.9431 6.99115L20.2187 5.0625L20.5763 5.66455Z" fill="#B9B29D"/>
<path d="M9 1H1V9H0V0H9V1Z" fill="#B9B29D"/>
<path d="M36 9H35V1H27V0H36V9Z" fill="#B9B29D"/>
</svg>
