<svg width="12" height="12" viewBox="0 0 12 12" fill="none" xmlns="http://www.w3.org/2000/svg">
<path fill-rule="evenodd" clip-rule="evenodd" d="M5.94715 1C7.66507 1 9.05772 2.39265 9.05772 4.11057H9.68931C9.68941 4.10207 9.68953 4.09362 9.68955 4.08525C9.69012 3.89736 9.8429 3.7455 10.0308 3.74605C10.2187 3.74661 10.3705 3.8994 10.37 4.08729C10.3696 4.21131 10.3631 4.34418 10.3496 4.48349C10.2758 5.24798 9.98834 6.25153 9.306 7.07113C8.66344 7.84295 7.68734 8.43026 6.27521 8.51158V10.3196H7.52673C7.71463 10.3196 7.86695 10.4719 7.86695 10.6598C7.86695 10.8477 7.71463 11 7.52673 11H4.39186C4.20396 11 4.05164 10.8477 4.05164 10.6598C4.05164 10.4719 4.20396 10.3196 4.39186 10.3196H5.59478V8.51158C4.18265 8.43026 3.20655 7.84295 2.56399 7.07113C1.88165 6.25153 1.5942 5.24797 1.52036 4.48349C1.50691 4.34418 1.50037 4.21131 1.5 4.08729C1.49944 3.8994 1.65131 3.74662 1.8392 3.74605C2.02709 3.74549 2.17987 3.89736 2.18044 4.08525C2.18046 4.09362 2.18058 4.10207 2.18068 4.11057H2.83658C2.83658 2.39265 4.22923 1 5.94715 1ZM2.25069 4.79101C2.36218 5.38783 2.61656 6.07077 3.08695 6.63577C3.64843 7.31021 4.53639 7.84083 5.935 7.84083C7.3336 7.84083 8.22156 7.31021 8.78305 6.63577C9.25343 6.07077 9.50781 5.38783 9.61931 4.79101H8.98301C8.67268 6.18166 7.43133 7.22114 5.94715 7.22114C4.46296 7.22114 3.22161 6.18166 2.91128 4.79101H2.25069ZM6.23876 4.76671C6.07771 4.76671 5.94715 4.89727 5.94715 5.05832C5.94715 5.21938 6.07771 5.34994 6.23876 5.34994C6.39981 5.34994 6.53038 5.21938 6.53038 5.05832C6.53038 4.89727 6.39981 4.76671 6.23876 4.76671ZM7.09902 2.65494C6.96615 2.52207 6.75074 2.52208 6.61788 2.65494L5.07474 4.19807C4.94188 4.33093 4.94188 4.54634 5.07474 4.67921C5.20761 4.81207 5.42302 4.81207 5.55588 4.67921L7.09902 3.13607C7.23187 3.00321 7.23187 2.7878 7.09902 2.65494ZM7.7187 3.57839C7.58584 3.44553 7.37042 3.44553 7.23756 3.57839L6.61788 4.19807C6.48501 4.33093 6.48502 4.54634 6.61788 4.67921C6.75074 4.81207 6.96615 4.81207 7.09902 4.67921L7.7187 4.05952C7.85156 3.92666 7.85156 3.71125 7.7187 3.57839Z" fill="white"/>
</svg>
