<svg width="12" height="12" viewBox="0 0 12 12" fill="none" xmlns="http://www.w3.org/2000/svg">
<path d="M3.45005 0.899994C3.20067 0.899994 3.00005 1.10062 3.00005 1.34999C3.00005 2.07937 3.4388 2.46374 3.73317 2.72062L3.7538 2.73937C4.05942 3.00749 4.20005 3.14812 4.20005 3.44999C4.20005 3.69937 4.40067 3.89999 4.65005 3.89999C4.89942 3.89999 5.10005 3.69937 5.10005 3.44999C5.10005 2.72062 4.6613 2.33624 4.36692 2.07937L4.3463 2.06062C4.04067 1.79437 3.90005 1.65187 3.90005 1.34999C3.90005 1.10062 3.69942 0.899994 3.45005 0.899994ZM2.40005 4.79999C2.06817 4.79999 1.80005 5.06812 1.80005 5.39999V8.99999C1.80005 9.99374 2.6063 10.8 3.60005 10.8H7.20005C7.9838 10.8 8.6513 10.2994 8.89692 9.59999H9.00005C10.3257 9.59999 11.4 8.52562 11.4 7.19999C11.4 5.87437 10.3257 4.79999 9.00005 4.79999H2.40005ZM9.00005 8.39999V5.99999C9.66192 5.99999 10.2 6.53812 10.2 7.19999C10.2 7.86187 9.66192 8.39999 9.00005 8.39999ZM6.00005 1.34999C6.00005 1.10062 5.79942 0.899994 5.55005 0.899994C5.30067 0.899994 5.10005 1.10062 5.10005 1.34999C5.10005 2.07937 5.5388 2.46374 5.83317 2.72062L5.8538 2.73937C6.15942 3.00749 6.30005 3.14812 6.30005 3.44999C6.30005 3.69937 6.50067 3.89999 6.75005 3.89999C6.99942 3.89999 7.20005 3.69937 7.20005 3.44999C7.20005 2.72062 6.7613 2.33624 6.46692 2.07937L6.4463 2.06062C6.14067 1.79437 6.00005 1.65187 6.00005 1.34999Z" fill="white"/>
</svg>
