<svg width="12" height="12" viewBox="0 0 12 12" fill="none" xmlns="http://www.w3.org/2000/svg">
<g clip-path="url(#clip0_633_969)">
<path d="M3.72498 0.399994C4.01591 0.399994 4.24998 0.634056 4.24998 0.924994V1.79999H7.74997V0.924994C7.74997 0.634056 7.98404 0.399994 8.27497 0.399994C8.56591 0.399994 8.79997 0.634056 8.79997 0.924994V1.79999H9.49997C10.2722 1.79999 10.9 2.42781 10.9 3.19999V9.49999C10.9 10.2722 10.2722 10.9 9.49997 10.9H2.49998C1.72779 10.9 1.09998 10.2722 1.09998 9.49999V3.19999C1.09998 2.42781 1.72779 1.79999 2.49998 1.79999H3.19998V0.924994C3.19998 0.634056 3.43404 0.399994 3.72498 0.399994ZM9.49997 9.84999C9.69247 9.84999 9.84997 9.69249 9.84997 9.49999V8.09999H7.92497V9.84999H9.49997ZM9.84997 7.04999V5.29999H7.92497V7.04999H9.84997ZM6.87497 7.04999V5.29999H5.12498V7.04999H6.87497ZM4.07498 7.04999V5.29999H2.14998V7.04999H4.07498ZM2.14998 8.09999V9.49999C2.14998 9.69249 2.30748 9.84999 2.49998 9.84999H4.07498V8.09999H2.14998ZM5.12498 8.09999V9.84999H6.87497V8.09999H5.12498ZM3.72498 2.84999H2.49998C2.30748 2.84999 2.14998 3.00749 2.14998 3.19999V4.24999H9.84997V3.19999C9.84997 3.00749 9.69247 2.84999 9.49997 2.84999H3.72498Z" fill="white"/>
</g>
<defs>
<clipPath id="clip0_633_969">
<rect width="12" height="12" fill="white"/>
</clipPath>
</defs>
</svg>
