<svg width="12" height="12" viewBox="0 0 12 12" fill="none" xmlns="http://www.w3.org/2000/svg">
<g clip-path="url(#clip0_390_38)">
<path d="M6.00004 1.79999C4.48504 1.79999 3.27191 2.48999 2.38879 3.31124C1.51129 4.12686 0.924414 5.09999 0.645039 5.76936C0.583164 5.91749 0.583164 6.08249 0.645039 6.23061C0.924414 6.89999 1.51129 7.87499 2.38879 8.68874C3.27191 9.50811 4.48504 10.2 6.00004 10.2C7.51504 10.2 8.72816 9.50999 9.61129 8.68874C10.4888 7.87311 11.0757 6.89999 11.355 6.23061C11.4169 6.08249 11.4169 5.91749 11.355 5.76936C11.0757 5.09999 10.4888 4.12499 9.61129 3.31124C8.72816 2.49186 7.51504 1.79999 6.00004 1.79999ZM3.30004 5.99999C3.30004 4.50936 4.50941 3.29999 6.00004 3.29999C7.49066 3.29999 8.70004 4.50936 8.70004 5.99999C8.70004 7.49061 7.49066 8.69999 6.00004 8.69999C4.50941 8.69999 3.30004 7.49061 3.30004 5.99999ZM6.00004 4.79999C6.00004 5.46186 5.46191 5.99999 4.80004 5.99999C4.58441 5.99999 4.38191 5.94374 4.20566 5.84249C4.18691 6.04686 4.20379 6.25686 4.26004 6.46499C4.51691 7.42499 5.50504 7.99499 6.46504 7.73811C7.42504 7.48124 7.99504 6.49311 7.73816 5.53311C7.50941 4.67624 6.69754 4.13061 5.84254 4.20561C5.94191 4.37999 6.00004 4.58249 6.00004 4.79999Z" fill="white"/>
</g>
<defs>
<clipPath id="clip0_390_38">
<rect width="12" height="12" fill="white"/>
</clipPath>
</defs>
</svg>
