<svg width="12" height="12" viewBox="0 0 12 12" fill="none" xmlns="http://www.w3.org/2000/svg">
<g clip-path="url(#clip0_2057_350)">
<path d="M3.5 0C2.67266 0 2 0.672656 2 1.5V10.5C2 11.3273 2.67266 12 3.5 12H9.5C10.3273 12 11 11.3273 11 10.5V1.5C11 0.672656 10.3273 0 9.5 0H3.5ZM4.25 1.5H8.75C9.16484 1.5 9.5 1.83516 9.5 2.25V3C9.5 3.41484 9.16484 3.75 8.75 3.75H4.25C3.83516 3.75 3.5 3.41484 3.5 3V2.25C3.5 1.83516 3.83516 1.5 4.25 1.5ZM4.625 5.4375C4.625 5.51137 4.61045 5.58451 4.58218 5.65276C4.55391 5.72101 4.51248 5.78301 4.46025 5.83525C4.40801 5.88748 4.34601 5.92891 4.27776 5.95718C4.20951 5.98545 4.13637 6 4.0625 6C3.98863 6 3.91549 5.98545 3.84724 5.95718C3.77899 5.92891 3.71699 5.88748 3.66475 5.83525C3.61252 5.78301 3.57109 5.72101 3.54282 5.65276C3.51455 5.58451 3.5 5.51137 3.5 5.4375C3.5 5.36363 3.51455 5.29049 3.54282 5.22224C3.57109 5.15399 3.61252 5.09199 3.66475 5.03975C3.71699 4.98752 3.77899 4.94609 3.84724 4.91782C3.91549 4.88955 3.98863 4.875 4.0625 4.875C4.13637 4.875 4.20951 4.88955 4.27776 4.91782C4.34601 4.94609 4.40801 4.98752 4.46025 5.03975C4.51248 5.09199 4.55391 5.15399 4.58218 5.22224C4.61045 5.29049 4.625 5.36363 4.625 5.4375ZM6.5 6C6.35082 6 6.20774 5.94074 6.10225 5.83525C5.99676 5.72976 5.9375 5.58668 5.9375 5.4375C5.9375 5.28832 5.99676 5.14524 6.10225 5.03975C6.20774 4.93426 6.35082 4.875 6.5 4.875C6.64918 4.875 6.79226 4.93426 6.89775 5.03975C7.00324 5.14524 7.0625 5.28832 7.0625 5.4375C7.0625 5.58668 7.00324 5.72976 6.89775 5.83525C6.79226 5.94074 6.64918 6 6.5 6ZM9.5 5.4375C9.5 5.58668 9.44074 5.72976 9.33525 5.83525C9.22976 5.94074 9.08668 6 8.9375 6C8.78832 6 8.64524 5.94074 8.53975 5.83525C8.43426 5.72976 8.375 5.58668 8.375 5.4375C8.375 5.28832 8.43426 5.14524 8.53975 5.03975C8.64524 4.93426 8.78832 4.875 8.9375 4.875C9.08668 4.875 9.22976 4.93426 9.33525 5.03975C9.44074 5.14524 9.5 5.28832 9.5 5.4375ZM4.0625 8.25C3.91332 8.25 3.77024 8.19074 3.66475 8.08525C3.55926 7.97976 3.5 7.83668 3.5 7.6875C3.5 7.53832 3.55926 7.39524 3.66475 7.28975C3.77024 7.18426 3.91332 7.125 4.0625 7.125C4.21168 7.125 4.35476 7.18426 4.46025 7.28975C4.56574 7.39524 4.625 7.53832 4.625 7.6875C4.625 7.83668 4.56574 7.97976 4.46025 8.08525C4.35476 8.19074 4.21168 8.25 4.0625 8.25ZM7.0625 7.6875C7.0625 7.83668 7.00324 7.97976 6.89775 8.08525C6.79226 8.19074 6.64918 8.25 6.5 8.25C6.35082 8.25 6.20774 8.19074 6.10225 8.08525C5.99676 7.97976 5.9375 7.83668 5.9375 7.6875C5.9375 7.53832 5.99676 7.39524 6.10225 7.28975C6.20774 7.18426 6.35082 7.125 6.5 7.125C6.64918 7.125 6.79226 7.18426 6.89775 7.28975C7.00324 7.39524 7.0625 7.53832 7.0625 7.6875ZM8.9375 8.25C8.78832 8.25 8.64524 8.19074 8.53975 8.08525C8.43426 7.97976 8.375 7.83668 8.375 7.6875C8.375 7.53832 8.43426 7.39524 8.53975 7.28975C8.64524 7.18426 8.78832 7.125 8.9375 7.125C9.08668 7.125 9.22976 7.18426 9.33525 7.28975C9.44074 7.39524 9.5 7.53832 9.5 7.6875C9.5 7.83668 9.44074 7.97976 9.33525 8.08525C9.22976 8.19074 9.08668 8.25 8.9375 8.25ZM3.5 9.9375C3.5 9.62578 3.75078 9.375 4.0625 9.375H6.6875C6.99922 9.375 7.25 9.62578 7.25 9.9375C7.25 10.2492 6.99922 10.5 6.6875 10.5H4.0625C3.75078 10.5 3.5 10.2492 3.5 9.9375ZM8.9375 9.375C9.24922 9.375 9.5 9.62578 9.5 9.9375C9.5 10.2492 9.24922 10.5 8.9375 10.5C8.62578 10.5 8.375 10.2492 8.375 9.9375C8.375 9.62578 8.62578 9.375 8.9375 9.375Z" fill="white"/>
</g>
<defs>
<clipPath id="clip0_2057_350">
<rect width="12" height="12" fill="white"/>
</clipPath>
</defs>
</svg>
