<svg width="12" height="12" viewBox="0 0 12 12" fill="none" xmlns="http://www.w3.org/2000/svg">
<g clip-path="url(#clip0_59_653)">
<path d="M1.90488 1.27876C1.72488 1.15689 1.48488 1.17939 1.33113 1.33126C1.17738 1.48314 1.15676 1.72501 1.27863 1.90501L3.37863 4.96689L1.51113 5.57251C1.32551 5.63251 1.19988 5.80501 1.19988 6.00001C1.19988 6.19501 1.32551 6.36751 1.51113 6.42751L3.44426 7.05376L2.45238 8.94001C2.36051 9.11439 2.39238 9.32814 2.53301 9.46689C2.67363 9.60564 2.88551 9.63939 3.05988 9.54751L4.94613 8.55564L5.57238 10.4888C5.63238 10.6744 5.80488 10.8 5.99988 10.8C6.19488 10.8 6.36738 10.6744 6.42738 10.4888L7.05363 8.55564L8.93988 9.54751C9.11426 9.63939 9.32801 9.60751 9.46676 9.46689C9.60551 9.32626 9.63926 9.11439 9.54738 8.94001L8.55551 7.05376L10.4886 6.42751C10.6743 6.36751 10.7999 6.19501 10.7999 6.00001C10.7999 5.80501 10.6743 5.63251 10.4886 5.57251L8.49176 4.92564L8.97363 3.60564C9.03363 3.44064 8.99238 3.25689 8.86863 3.13314C8.74488 3.00939 8.56113 2.96814 8.39613 3.02814L7.07613 3.51001L6.42926 1.51314C6.36738 1.32564 6.19488 1.20001 5.99988 1.20001C5.80488 1.20001 5.63238 1.32564 5.57238 1.51126L4.96676 3.37876L1.90488 1.27876Z" fill="white"/>
</g>
<defs>
<clipPath id="clip0_59_653">
<rect width="12" height="12" fill="white"/>
</clipPath>
</defs>
</svg>
