<svg width="12" height="12" viewBox="0 0 12 12" fill="none" xmlns="http://www.w3.org/2000/svg">
<path d="M5.99792 0.5C6.09375 0.5 6.18958 0.521603 6.27708 0.562647L10.2021 2.28869C10.6604 2.48959 11.0021 2.95837 11 3.52435C10.9896 5.66732 10.1396 9.58818 6.55 11.3704C6.20208 11.5432 5.79792 11.5432 5.45 11.3704C1.85834 9.58818 1.01043 5.66732 1.00001 3.52435C0.997926 2.95837 1.33959 2.48959 1.79792 2.28869L5.72083 0.562647C5.80833 0.521603 5.90208 0.5 5.99792 0.5ZM5.99792 1.94305V10.111C8.87291 8.66791 9.64583 5.47074 9.66458 3.55676L5.99792 1.94521V1.94305Z" fill="white"/>
</svg>
