<svg width="12" height="12" viewBox="0 0 12 12" fill="none" xmlns="http://www.w3.org/2000/svg">
<g clip-path="url(#clip0_2135_347)">
<g clip-path="url(#clip1_2135_347)">
<path d="M0.220337 2.77968C-0.0726318 2.48671 -0.0726318 2.01093 0.220337 1.71796C0.513306 1.42499 0.989087 1.42499 1.28206 1.71796L5.03206 5.46796C5.32502 5.76093 5.32502 6.23671 5.03206 6.52968L1.28206 10.2797C0.989087 10.5726 0.513306 10.5726 0.220337 10.2797C-0.0726318 9.98671 -0.0726318 9.51093 0.220337 9.21796L3.43831 5.99999L0.220337 2.77968ZM5.25002 8.99999H11.25C11.6649 8.99999 12 9.33514 12 9.74999C12 10.1648 11.6649 10.5 11.25 10.5H5.25002C4.83518 10.5 4.50002 10.1648 4.50002 9.74999C4.50002 9.33514 4.83518 8.99999 5.25002 8.99999Z" fill="white"/>
</g>
</g>
<defs>
<clipPath id="clip0_2135_347">
<rect width="12" height="12" fill="white"/>
</clipPath>
<clipPath id="clip1_2135_347">
<rect width="12" height="12" fill="white"/>
</clipPath>
</defs>
</svg>
