<svg width="12" height="12" viewBox="0 0 12 12" fill="none" xmlns="http://www.w3.org/2000/svg">
<path d="M2.50202 2.2417C3.85198 0.89167 5.76693 0.452401 7.48542 0.921389C7.34409 1.13144 7.26692 1.37992 7.26667 1.63623V2.19385C5.94764 1.78772 4.45266 2.10546 3.40925 3.14893C1.90712 4.65115 1.90713 7.08908 3.40925 8.59131C4.9114 10.0935 7.34948 10.0935 8.85163 8.59131C9.89502 7.54776 10.212 6.05302 9.80573 4.73389H10.3624C10.6199 4.73389 10.8684 4.65536 11.0782 4.51416C11.5475 6.23293 11.108 8.14832 9.75788 9.49854C7.75405 11.5021 4.50573 11.5023 2.50202 9.49854C0.498272 7.49463 0.498263 4.24561 2.50202 2.2417ZM4.08991 3.82959C4.89074 3.02873 6.04602 2.79757 7.05183 3.13526L5.90241 4.28369C5.57113 4.33108 5.25115 4.48182 4.99616 4.73682C4.37041 5.3631 4.37042 6.37713 4.99616 7.00342C5.62253 7.62982 6.63737 7.62982 7.26374 7.00342C7.51839 6.74872 7.66834 6.42999 7.71589 6.09912L8.8653 4.94873C9.20296 5.95455 8.9717 7.10978 8.17097 7.91065C7.04436 9.03732 5.21653 9.03732 4.08991 7.91065C2.96331 6.78397 2.9633 4.95626 4.08991 3.82959ZM9.85066 0.0102558C9.99299 0.0418638 10.1092 0.144797 10.1592 0.28174L10.5772 1.42334L11.7188 1.84131C11.8554 1.89144 11.9576 2.00697 11.9893 2.14893C12.0208 2.29147 11.9773 2.44119 11.8741 2.54444L10.6651 3.7544C10.585 3.83444 10.4757 3.8794 10.3624 3.8794H8.72566L6.43269 6.17237C6.26579 6.33921 5.99516 6.33909 5.8282 6.17237C5.66137 6.0054 5.66133 5.73481 5.8282 5.56787L8.12116 3.27393V1.63721C8.12124 1.52392 8.16606 1.41459 8.24616 1.33447L9.45612 0.12549C9.55933 0.0225287 9.70829 -0.0211751 9.85066 0.0102558Z" fill="white"/>
</svg>
