<svg width="12" height="12" viewBox="0 0 12 12" fill="none" xmlns="http://www.w3.org/2000/svg">
<g clip-path="url(#clip0_2082_2379)">
<path d="M1.99996 3.40625C1.99996 2.83691 2.44788 2.375 2.99996 2.375C3.55204 2.375 3.99996 2.83691 3.99996 3.40625V5.8125H1.99996V3.40625ZM0.666626 3.40625V9.59375C0.666626 10.9236 1.71038 12 2.99996 12C4.28954 12 5.33329 10.9236 5.33329 9.59375V7.3207L7.75621 10.9623C8.49579 12.073 9.94996 12.3437 11.0062 11.566C12.0625 10.7883 12.3187 9.25645 11.5791 8.1457L8.90204 4.12168C8.16246 3.01094 6.70829 2.74023 5.65204 3.51797C5.53538 3.60391 5.42913 3.69844 5.33329 3.79941V3.40625C5.33329 2.07637 4.28954 1 2.99996 1C1.71038 1 0.666626 2.07637 0.666626 3.40625ZM6.17913 6.16055C5.84579 5.65996 5.97079 4.97246 6.42704 4.63516C6.86871 4.31074 7.47913 4.41387 7.80204 4.89727L9.19788 6.99414L7.53329 8.19512L6.17913 6.1584V6.16055Z" fill="white"/>
</g>
<defs>
<clipPath id="clip0_2082_2379">
<rect width="12" height="11" fill="white" transform="translate(0 1)"/>
</clipPath>
</defs>
</svg>
