<svg width="12" height="12" viewBox="0 0 12 12" fill="none" xmlns="http://www.w3.org/2000/svg">
<g clip-path="url(#clip0_365_1035)">
<path d="M8.25963 5.88779C8.80393 5.73211 9.31102 5.81826 9.63935 5.96818L9.66597 5.98035L11.1672 6.87085L11.1721 6.87387C11.4848 7.0683 11.8177 7.45872 11.9458 8.02242C12.0769 8.59962 11.9811 9.29855 11.5372 10.0886C11.0945 10.8763 10.558 11.304 9.99875 11.4468C9.46526 11.5829 8.98924 11.4384 8.68748 11.2326L7.23064 10.3685L7.22835 10.3671C6.919 10.1795 6.55742 9.80373 6.39088 9.25368C6.30778 8.9792 6.27784 8.67671 6.31662 8.35174L7.49992 9.05365C7.58395 9.22478 7.70634 9.33853 7.78897 9.38894L9.27615 10.2711L9.29485 10.2844C9.36282 10.3328 9.5264 10.3977 9.73233 10.3451C9.92553 10.2958 10.2442 10.1193 10.5804 9.52102C10.9153 8.92498 10.9243 8.51999 10.8699 8.28043C10.8131 8.03065 10.6731 7.8918 10.6028 7.84675L9.16888 6.99619C9.10851 6.97214 9.01969 6.94952 8.91282 6.94262L7.62988 6.1816C7.83487 6.04456 8.04706 5.94859 8.25963 5.88779Z" fill="white"/>
<path d="M3.00452 5.87404C3.35943 5.81654 3.87092 5.86815 4.35745 6.16325C4.54746 6.27851 4.72826 6.42764 4.89175 6.61453L3.46083 7.00844C3.35585 6.98668 3.26434 6.98494 3.19997 6.99212L1.60065 7.43239C1.52136 7.45719 1.35117 7.55409 1.23344 7.78027C1.12052 7.99719 1.02715 8.39076 1.20053 9.05556C1.37457 9.72288 1.63788 9.97809 1.81207 10.0771C1.99774 10.1826 2.17212 10.1634 2.24996 10.1348L2.27135 10.1269L3.93009 9.67026C4.0226 9.64353 4.16949 9.56622 4.29377 9.42325L5.61358 9.05991C5.56918 9.38412 5.46405 9.66833 5.31464 9.91136C5.0152 10.3984 4.57128 10.6652 4.2252 10.7641L4.22264 10.7649L2.59776 11.2122C2.25444 11.3308 1.75822 11.3438 1.27721 11.0704C0.772983 10.7837 0.3625 10.228 0.13335 9.34937C-0.0964595 8.4682 -0.0129045 7.76763 0.259154 7.24497C0.524856 6.73452 0.94479 6.44593 1.29583 6.34128L1.30128 6.33965L2.97574 5.8787L3.00452 5.87404Z" fill="white"/>
<path d="M5.90061 8.3933L3.6887 9.00224C3.32033 9.10365 2.9417 8.87904 2.843 8.50058C2.7443 8.12211 2.9629 7.73311 3.33127 7.6317L5.41972 7.05674L5.90061 8.3933Z" fill="white"/>
<path d="M8.85701 7.56489C9.18728 7.76079 9.30046 8.19468 9.10978 8.534C8.9191 8.87333 8.49676 8.98958 8.16649 8.79367L6.23387 7.6473L6.94874 6.43293L8.85701 7.56489Z" fill="white"/>
<path d="M5.88966 6.85666L3.12517 1.60549L5.08506 0.5L5.88966 6.85666Z" fill="white"/>
<path d="M9.22002 1.86139L6.24924 5.85822L6.95066 1.18107L9.22002 1.86139Z" fill="white"/>
</g>
<defs>
<clipPath id="clip0_365_1035">
<rect width="12" height="12" fill="white"/>
</clipPath>
</defs>
</svg>
