<svg width="12" height="12" viewBox="0 0 12 12" fill="none" xmlns="http://www.w3.org/2000/svg">
<g clip-path="url(#clip0_2057_2745)">
<path d="M2.27708 7.66992L1.38958 8.5H0.666667C0.297917 8.5 0 8.7793 0 9.125V10.375C0 10.7207 0.297917 11 0.666667 11H7.34375C7.94792 11 8.5375 10.8184 9.025 10.4824L11.6625 8.66016C12.0333 8.4043 12.1125 7.91602 11.8396 7.56836C11.5667 7.2207 11.0458 7.14648 10.675 7.40234L8.17917 9.125H5.83333C5.55625 9.125 5.33333 8.91602 5.33333 8.65625C5.33333 8.39648 5.55625 8.1875 5.83333 8.1875H7.33333C7.70208 8.1875 8 7.9082 8 7.5625C8 7.2168 7.70208 6.9375 7.33333 6.9375H4.1625C3.45625 6.9375 2.77708 7.20117 2.27708 7.66992Z" fill="white"/>
<path d="M5.62344 1.5668C5.77813 1.47773 5.96875 1.47773 6.12344 1.5668L7.49766 2.35977C7.65234 2.44883 7.74766 2.61445 7.74766 2.79258V4.37852C7.74766 4.55742 7.65234 4.72227 7.49766 4.81133L6.12344 5.60586C5.96875 5.69492 5.77813 5.69492 5.62344 5.60586L4.25 4.81289C4.09531 4.72383 4 4.5582 4 4.38008V2.79414C4 2.61523 4.09531 2.45039 4.25 2.36133L5.62344 1.5668ZM7.24688 4.3793V3.08164L6.12344 3.73008V5.02773L7.24688 4.3793Z" fill="white"/>
</g>
<defs>
<clipPath id="clip0_2057_2745">
<rect width="12" height="10" fill="white" transform="translate(0 1)"/>
</clipPath>
</defs>
</svg>
