<svg width="12" height="12" viewBox="0 0 12 12" fill="none" xmlns="http://www.w3.org/2000/svg">
<path fill-rule="evenodd" clip-rule="evenodd" d="M2.27421 1.55263C2.4073 1.47837 2.56986 1.48298 2.69862 1.56466L4.45866 2.68126H6.01393V2.42813C6.01393 2.21067 6.18853 2.03438 6.4039 2.03438C6.61927 2.03438 6.79387 2.21067 6.79387 2.42813V6.75939C6.79387 6.97685 6.61928 7.15314 6.4039 7.15314C6.18852 7.15314 6.01393 6.97685 6.01393 6.75939V6.68814L4.15574 10.2737C4.10426 10.3731 4.01569 10.4476 3.90967 10.481C3.80365 10.5143 3.68886 10.5036 3.59064 10.4513L2.0586 9.63566C1.8572 9.52843 1.77787 9.27812 1.88027 9.07278L3.12183 6.58289C3.06516 6.58789 3.00782 6.59064 2.94986 6.59064C1.87298 6.59064 1 5.7092 1 4.62188C1 3.85886 1.42991 3.19723 2.0585 2.87044V1.92188L2.05871 1.90755C2.06368 1.75958 2.14527 1.62458 2.27421 1.55263ZM2.94986 4.22813C2.73449 4.22813 2.55989 4.40442 2.55989 4.62188C2.55989 4.83935 2.73449 5.01563 2.94986 5.01563C3.16524 5.01563 3.33983 4.83935 3.33983 4.62188C3.33983 4.40442 3.16523 4.22813 2.94986 4.22813ZM4.62117 4.22813C4.4058 4.22813 4.2312 4.40442 4.2312 4.62188C4.2312 4.83935 4.40579 5.01563 4.62117 5.01563C4.83655 5.01563 5.01114 4.83935 5.01114 4.62188C5.01114 4.40442 4.83654 4.22813 4.62117 4.22813Z" fill="white"/>
<path d="M7.79666 2.62501C8.01203 2.62501 8.18662 2.8013 8.18663 3.01876V4.08751H9.24578L10.6154 3.51809C10.7013 3.48237 10.7992 3.49225 10.8764 3.54445C10.9537 3.59666 11 3.68431 11 3.77813V5.46563C11 5.55946 10.9537 5.6471 10.8764 5.69931C10.7992 5.75152 10.7013 5.7614 10.6154 5.72568L9.24578 5.15626H8.18663V6.22501C8.18663 6.44247 8.01203 6.61876 7.79666 6.61876C7.58128 6.61876 7.40669 6.44247 7.40669 6.22501V3.01876C7.40669 2.8013 7.58128 2.62501 7.79666 2.62501Z" fill="white"/>
</svg>
