<svg width="12" height="12" viewBox="0 0 12 12" fill="none" xmlns="http://www.w3.org/2000/svg">
<g clip-path="url(#clip0_61_278)">
<path d="M10.5001 2.24999C10.5001 2.00061 10.2995 1.79999 10.0501 1.79999C9.80072 1.79999 9.6001 2.00061 9.6001 2.24999V2.39999H1.2001C0.868223 2.39999 0.600098 2.66811 0.600098 2.99999V5.09999C0.600098 5.43186 0.868223 5.69999 1.2001 5.69999H1.3876C1.7776 5.69999 2.06447 6.06749 1.96885 6.44624L1.21885 9.45374C1.17385 9.63374 1.2151 9.82311 1.3276 9.96936C1.4401 10.1156 1.61447 10.2 1.8001 10.2H3.6001C3.87572 10.2 4.11572 10.0125 4.18135 9.74624L4.66885 7.79999H6.62635C7.07072 7.79999 7.46635 7.52061 7.61447 7.10249L8.1151 5.69999H8.69822C8.8576 5.69999 9.00947 5.63624 9.12197 5.52374L9.54572 5.09999H10.7963C11.1282 5.09999 11.3963 4.83186 11.3963 4.49999V2.99999C11.3963 2.66811 11.1282 2.39999 10.7963 2.39999H10.4963V2.24999H10.5001ZM6.62635 6.89999H4.89197L5.19197 5.69999H7.16072L6.76697 6.80061C6.74635 6.86061 6.68822 6.89999 6.62635 6.89999ZM2.1001 3.59999H9.3001C9.4651 3.59999 9.6001 3.73499 9.6001 3.89999C9.6001 4.06499 9.4651 4.19999 9.3001 4.19999H2.1001C1.9351 4.19999 1.8001 4.06499 1.8001 3.89999C1.8001 3.73499 1.9351 3.59999 2.1001 3.59999Z" fill="white"/>
</g>
<defs>
<clipPath id="clip0_61_278">
<rect width="12" height="12" fill="white"/>
</clipPath>
</defs>
</svg>
