<svg width="12" height="12" viewBox="0 0 12 12" fill="none" xmlns="http://www.w3.org/2000/svg">
<g clip-path="url(#clip0_372_1560)">
<path d="M4.50001 1.65001C4.50001 1.40064 4.29939 1.20001 4.05001 1.20001C3.80064 1.20001 3.60001 1.40064 3.60001 1.65001V2.40001C2.93814 2.40001 2.40001 2.93814 2.40001 3.60001H1.65001C1.40064 3.60001 1.20001 3.80064 1.20001 4.05001C1.20001 4.29939 1.40064 4.50001 1.65001 4.50001H2.40001V5.55001H1.65001C1.40064 5.55001 1.20001 5.75064 1.20001 6.00001C1.20001 6.24939 1.40064 6.45001 1.65001 6.45001H2.40001V7.50001H1.65001C1.40064 7.50001 1.20001 7.70064 1.20001 7.95001C1.20001 8.19939 1.40064 8.40001 1.65001 8.40001H2.40001C2.40001 9.06189 2.93814 9.60001 3.60001 9.60001V10.35C3.60001 10.5994 3.80064 10.8 4.05001 10.8C4.29939 10.8 4.50001 10.5994 4.50001 10.35V9.60001H5.55001V10.35C5.55001 10.5994 5.75064 10.8 6.00001 10.8C6.24939 10.8 6.45001 10.5994 6.45001 10.35V9.60001H7.50001V10.35C7.50001 10.5994 7.70064 10.8 7.95001 10.8C8.19939 10.8 8.40001 10.5994 8.40001 10.35V9.60001C9.06189 9.60001 9.60001 9.06189 9.60001 8.40001H10.35C10.5994 8.40001 10.8 8.19939 10.8 7.95001C10.8 7.70064 10.5994 7.50001 10.35 7.50001H9.60001V6.45001H10.35C10.5994 6.45001 10.8 6.24939 10.8 6.00001C10.8 5.75064 10.5994 5.55001 10.35 5.55001H9.60001V4.50001H10.35C10.5994 4.50001 10.8 4.29939 10.8 4.05001C10.8 3.80064 10.5994 3.60001 10.35 3.60001H9.60001C9.60001 2.93814 9.06189 2.40001 8.40001 2.40001V1.65001C8.40001 1.40064 8.19939 1.20001 7.95001 1.20001C7.70064 1.20001 7.50001 1.40064 7.50001 1.65001V2.40001H6.45001V1.65001C6.45001 1.40064 6.24939 1.20001 6.00001 1.20001C5.75064 1.20001 5.55001 1.40064 5.55001 1.65001V2.40001H4.50001V1.65001ZM4.20001 3.60001H7.80001C8.13189 3.60001 8.40001 3.86814 8.40001 4.20001V7.80001C8.40001 8.13189 8.13189 8.40001 7.80001 8.40001H4.20001C3.86814 8.40001 3.60001 8.13189 3.60001 7.80001V4.20001C3.60001 3.86814 3.86814 3.60001 4.20001 3.60001ZM4.50001 4.50001V7.50001H7.50001V4.50001H4.50001Z" fill="white"/>
</g>
<defs>
<clipPath id="clip0_372_1560">
<rect width="12" height="12" fill="white"/>
</clipPath>
</defs>
</svg>
