<svg width="24" height="24" viewBox="0 0 24 24" fill="none" xmlns="http://www.w3.org/2000/svg">
<g clip-path="url(#clip0_61_1604)">
<path d="M13.2001 3.59999C13.2001 2.93624 12.6638 2.39999 12.0001 2.39999C11.3363 2.39999 10.8001 2.93624 10.8001 3.59999V11.4C10.8001 11.73 10.5301 12 10.2001 12C9.8701 12 9.6001 11.73 9.6001 11.4V4.79999C9.6001 4.13624 9.06385 3.59999 8.40009 3.59999C7.73634 3.59999 7.2001 4.13624 7.2001 4.79999V15C7.2001 15.0562 7.2001 15.1162 7.20385 15.1725L4.9351 13.0125C4.3351 12.4425 3.38634 12.465 2.81259 13.065C2.23884 13.665 2.26509 14.6137 2.86509 15.1875L7.0801 19.2C8.69635 20.7412 10.8451 21.6 13.0801 21.6H13.8001C17.4451 21.6 20.4001 18.645 20.4001 15V7.19999C20.4001 6.53624 19.8638 5.99999 19.2001 5.99999C18.5363 5.99999 18.0001 6.53624 18.0001 7.19999V11.4C18.0001 11.73 17.7301 12 17.4001 12C17.0701 12 16.8001 11.73 16.8001 11.4V4.79999C16.8001 4.13624 16.2638 3.59999 15.6001 3.59999C14.9363 3.59999 14.4001 4.13624 14.4001 4.79999V11.4C14.4001 11.73 14.1301 12 13.8001 12C13.4701 12 13.2001 11.73 13.2001 11.4V3.59999Z" fill="white"/>
</g>
<defs>
<clipPath id="clip0_61_1604">
<rect width="24" height="24" fill="white"/>
</clipPath>
</defs>
</svg>
