<svg width="12" height="12" viewBox="0 0 12 12" fill="none" xmlns="http://www.w3.org/2000/svg">
<g clip-path="url(#clip0_365_1260)">
<g clip-path="url(#clip1_365_1260)">
<path d="M5.9999 0.899994C6.33178 0.899994 6.5999 1.16812 6.5999 1.49999V1.84312C8.43928 2.10562 9.89428 3.56062 10.1568 5.39999H10.4999C10.8318 5.39999 11.0999 5.66812 11.0999 5.99999C11.0999 6.33187 10.8318 6.59999 10.4999 6.59999H10.1568C9.89428 8.43937 8.43928 9.89437 6.5999 10.1569V10.5C6.5999 10.8319 6.33178 11.1 5.9999 11.1C5.66803 11.1 5.3999 10.8319 5.3999 10.5V10.1569C3.56053 9.89437 2.10553 8.43937 1.84303 6.59999H1.4999C1.16803 6.59999 0.899902 6.33187 0.899902 5.99999C0.899902 5.66812 1.16803 5.39999 1.4999 5.39999H1.84303C2.10553 3.56062 3.56053 2.10562 5.3999 1.84312V1.49999C5.3999 1.16812 5.66803 0.899994 5.9999 0.899994ZM3.0599 6.59999C3.29803 7.77562 4.22428 8.70187 5.3999 8.93999V8.69999C5.3999 8.36812 5.66803 8.09999 5.9999 8.09999C6.33178 8.09999 6.5999 8.36812 6.5999 8.69999V8.93999C7.77553 8.70187 8.70178 7.77562 8.9399 6.59999H8.6999C8.36803 6.59999 8.0999 6.33187 8.0999 5.99999C8.0999 5.66812 8.36803 5.39999 8.6999 5.39999H8.9399C8.70178 4.22437 7.77553 3.29812 6.5999 3.05999V3.29999C6.5999 3.63187 6.33178 3.89999 5.9999 3.89999C5.66803 3.89999 5.3999 3.63187 5.3999 3.29999V3.05999C4.22428 3.29812 3.29803 4.22437 3.0599 5.39999H3.2999C3.63178 5.39999 3.8999 5.66812 3.8999 5.99999C3.8999 6.33187 3.63178 6.59999 3.2999 6.59999H3.0599ZM5.9999 5.09999C6.49678 5.09999 6.8999 5.50312 6.8999 5.99999C6.8999 6.49687 6.49678 6.89999 5.9999 6.89999C5.50303 6.89999 5.0999 6.49687 5.0999 5.99999C5.0999 5.50312 5.50303 5.09999 5.9999 5.09999Z" fill="white"/>
</g>
</g>
<defs>
<clipPath id="clip0_365_1260">
<rect width="12" height="12" fill="white"/>
</clipPath>
<clipPath id="clip1_365_1260">
<rect width="12" height="12" fill="white"/>
</clipPath>
</defs>
</svg>
