<svg width="12" height="12" viewBox="0 0 12 12" fill="none" xmlns="http://www.w3.org/2000/svg">
<path d="M4.67468 1.64309L3.67904 6.8016C3.64321 7.19482 3.71688 7.76975 4.01549 8.22254C4.28427 8.63009 4.81978 9.07074 5.99997 9.07074V11C4.29524 11 3.15087 10.3152 2.49191 9.31604C1.87123 8.37489 1.76477 7.28151 1.84494 6.54964L1.84982 6.51189C1.85167 6.49937 1.85375 6.48685 1.85608 6.4744L2.63946 2.28617H1.5V1H4.67468V1.64309Z" fill="white"/>
<path d="M10.5 2.28617H9.36054L10.1439 6.4744C10.1462 6.48685 10.1483 6.49937 10.1502 6.51189L10.1551 6.54964C10.2352 7.28151 10.1288 8.37489 9.50809 9.31604C8.84913 10.3152 7.7047 11 5.99997 11V9.07074C7.18015 9.07073 7.71573 8.63009 7.98451 8.22254C8.28312 7.76975 8.35679 7.19482 8.32096 6.8016L7.32538 1.64309V1H10.5V2.28617Z" fill="white"/>
</svg>
