<svg width="12" height="12" viewBox="0 0 12 12" fill="none" xmlns="http://www.w3.org/2000/svg">
<g clip-path="url(#clip0_95_1129)">
<path d="M7.02 1.5C7.69875 1.5 8.25 2.05125 8.25 2.73187V2.82937C8.25 3.03937 8.19937 3.2475 8.10375 3.43313L8.06062 3.51188L7.68375 4.14C7.66312 4.17563 7.66125 4.20375 7.66312 4.22438C7.66687 4.24875 7.68 4.275 7.7025 4.2975C7.725 4.32 7.75125 4.33313 7.77562 4.33688C7.79625 4.34063 7.82437 4.33875 7.86 4.31625L8.48812 3.93938L8.56687 3.89625C8.75437 3.80063 8.96062 3.75 9.17062 3.75H9.26812C9.94687 3.75 10.4981 4.30125 10.4981 4.98188C10.4981 5.30813 10.3687 5.62125 10.1381 5.85188L10.1137 5.87625C10.0444 5.94563 10.0444 6.05625 10.1137 6.12563L10.1381 6.15C10.3687 6.38063 10.4981 6.69375 10.4981 7.02C10.4981 7.69875 9.94687 8.25 9.26812 8.25H9.17062C8.93062 8.25 8.6925 8.18438 8.48625 8.06063L7.85812 7.68375C7.8225 7.66313 7.79437 7.66125 7.77375 7.66313C7.74937 7.66688 7.72312 7.68 7.70062 7.7025C7.67812 7.725 7.665 7.75125 7.66125 7.77563C7.6575 7.79625 7.65937 7.82438 7.68187 7.86L8.05875 8.48813C8.1825 8.69438 8.24812 8.93063 8.24812 9.1725V9.27C8.24812 9.94875 7.69687 10.5 7.01812 10.5C6.69187 10.5 6.37875 10.3706 6.14812 10.14L6.12375 10.1156C6.05437 10.0463 5.94375 10.0463 5.87437 10.1156L5.85 10.14C5.61937 10.3706 5.30625 10.5 4.98 10.5C4.30125 10.5 3.75 9.94875 3.74812 9.27V9.1725C3.74812 8.9325 3.81375 8.69438 3.9375 8.48813L4.31437 7.86C4.335 7.82438 4.33687 7.79625 4.335 7.77563C4.33125 7.75125 4.31812 7.725 4.29562 7.7025C4.27312 7.68 4.24687 7.66688 4.2225 7.66313C4.21312 7.66125 4.2 7.66125 4.18687 7.66313L4.14 7.68188L3.51187 8.05875C3.30562 8.1825 3.06937 8.24813 2.8275 8.24813H2.73C2.05125 8.25 1.5 7.69875 1.5 7.02C1.5 6.69375 1.62937 6.38063 1.86 6.15L1.88437 6.12563L1.90687 6.0975C1.94625 6.03938 1.94625 5.9625 1.90687 5.90438L1.88437 5.87625L1.86 5.85188C1.62937 5.62125 1.5 5.30813 1.5 4.98188C1.5 4.30125 2.05125 3.75 2.73187 3.75H2.82937C3.06937 3.75 3.3075 3.81563 3.51375 3.93938L4.14187 4.31625L4.18875 4.335C4.20187 4.33688 4.215 4.33688 4.22437 4.33688C4.24875 4.33313 4.275 4.32 4.2975 4.2975C4.32 4.275 4.33312 4.24875 4.33687 4.22438C4.33875 4.215 4.33875 4.20187 4.335 4.18875L4.31625 4.14187L3.93937 3.51375C3.81562 3.3075 3.75 3.07125 3.75 2.82937V2.73187C3.75 2.05312 4.30125 1.5 4.98188 1.5C5.30812 1.5 5.62125 1.62937 5.85187 1.86L5.87625 1.88438C5.94562 1.95188 6.05625 1.95375 6.12562 1.88438L6.15 1.86L6.24 1.7775C6.45937 1.59938 6.73312 1.5 7.02 1.5Z" fill="white"/>
</g>
<defs>
<clipPath id="clip0_95_1129">
<rect width="12" height="12" fill="white"/>
</clipPath>
</defs>
</svg>
