<svg width="12" height="12" viewBox="0 0 12 12" fill="none" xmlns="http://www.w3.org/2000/svg">
<g clip-path="url(#clip0_365_1005)">
<path d="M4.95 2.09995H7.05C7.1325 2.09995 7.2 2.16745 7.2 2.24995V2.99995H4.8V2.24995C4.8 2.16745 4.8675 2.09995 4.95 2.09995ZM3.9 2.24995V2.99995H2.4C1.73812 2.99995 1.2 3.53808 1.2 4.19995V8.99995C1.2 9.66183 1.73812 10.2 2.4 10.2H9.6C10.2619 10.2 10.8 9.66183 10.8 8.99995V4.19995C10.8 3.53808 10.2619 2.99995 9.6 2.99995H8.1V2.24995C8.1 1.67058 7.62937 1.19995 7.05 1.19995H4.95C4.37062 1.19995 3.9 1.67058 3.9 2.24995ZM5.4 5.24995C5.4 5.08495 5.535 4.94995 5.7 4.94995H6.3C6.465 4.94995 6.6 5.08495 6.6 5.24995V5.99995H7.35C7.515 5.99995 7.65 6.13495 7.65 6.29995V6.89995C7.65 7.06495 7.515 7.19995 7.35 7.19995H6.6V7.94995C6.6 8.11495 6.465 8.24995 6.3 8.24995H5.7C5.535 8.24995 5.4 8.11495 5.4 7.94995V7.19995H4.65C4.485 7.19995 4.35 7.06495 4.35 6.89995V6.29995C4.35 6.13495 4.485 5.99995 4.65 5.99995H5.4V5.24995Z" fill="white"/>
</g>
<defs>
<clipPath id="clip0_365_1005">
<rect width="12" height="12" fill="white"/>
</clipPath>
</defs>
</svg>
