<svg width="12" height="12" viewBox="0 0 12 12" fill="none" xmlns="http://www.w3.org/2000/svg">
<path d="M7.5293 7.63184C8.82292 8.96416 10.1838 10.2092 11 10.9141C9.76328 11.3276 8.06319 10.1897 6.53125 8.72168C6.88 8.36267 7.21553 7.99432 7.5293 7.63184ZM8.17188 5.64062C6.4743 7.91129 3.08141 11.61 1 10.9141C2.41348 9.6934 5.46011 6.85324 6.96289 4.74414L8.17188 5.64062ZM5.03711 4.74414C5.18286 4.94855 5.34377 5.15996 5.51562 5.37598C5.20285 5.74647 4.86107 6.12744 4.50586 6.50781C4.25913 6.20502 4.03143 5.91246 3.82812 5.64062L5.03711 4.74414ZM2.30273 1.00488C2.30614 1.00587 2.31028 1.0075 2.31348 1.00879C2.32287 1.01265 2.3316 1.01765 2.33887 1.02441C2.34366 1.0289 2.34785 1.03415 2.35156 1.04004C2.35626 1.04758 2.36916 1.06575 2.38867 1.09277C2.39808 1.1058 2.40937 1.12157 2.42188 1.13867C2.4288 1.14814 2.43651 1.15829 2.44434 1.16895C2.45861 1.18837 2.47411 1.21026 2.49121 1.2334C2.50035 1.24577 2.51061 1.25812 2.52051 1.27148C2.547 1.30725 2.57592 1.34731 2.60742 1.38965C2.60978 1.39282 2.61187 1.39621 2.61426 1.39941C2.66983 1.47409 2.7327 1.55834 2.80078 1.64941C2.82868 1.68673 2.85809 1.7251 2.8877 1.76465C2.9407 1.83547 2.99623 1.90967 3.05371 1.98633C3.09899 2.04671 3.14603 2.10882 3.19336 2.17188C3.34957 2.37998 3.51497 2.60077 3.67871 2.81836C3.73899 2.89846 3.79921 2.97804 3.8584 3.05664L4.4668 3.86426L4.96191 3.51074L5.11328 3.75391L2.74805 5.50684L2.62207 5.30469L3.22754 4.84082L1.00488 2.03516C1.00195 2.02446 0.999626 2.01065 1 1.99414C1.00025 1.98321 1.0015 1.97101 1.00391 1.95801C1.00636 1.94486 1.01041 1.92991 1.01562 1.91504C1.02214 1.89658 1.03121 1.87686 1.04297 1.85645C1.05479 1.83593 1.06967 1.81469 1.08789 1.79297C1.11709 1.75818 1.1548 1.72188 1.2041 1.68652C1.2124 1.68057 1.22149 1.67447 1.23047 1.66797C1.24474 1.65764 1.25962 1.64633 1.27539 1.63477C1.28612 1.6269 1.29727 1.6187 1.30859 1.61035C1.3249 1.59832 1.34203 1.58614 1.35938 1.57324C1.3982 1.54438 1.43936 1.51312 1.48145 1.48145L1.61426 1.38184C1.68186 1.33053 1.74834 1.27954 1.80859 1.2334L1.97461 1.10547C2.01852 1.07828 2.08494 1.04347 2.15039 1.02148C2.16906 1.01522 2.18801 1.00964 2.20605 1.00586C2.22401 1.00211 2.24152 1.00038 2.25781 1C2.26179 0.999909 2.26569 0.999856 2.26953 1C2.28126 1.00046 2.29258 1.00199 2.30273 1.00488ZM9.76758 1.00195C9.77615 1.00304 9.78503 1.004 9.79395 1.00586C9.80285 1.00773 9.81217 1.01017 9.82129 1.0127C9.84905 1.02042 9.8779 1.0312 9.90527 1.04297C9.9144 1.04689 9.9238 1.05054 9.93262 1.05469C9.96788 1.07127 10.0003 1.08994 10.0254 1.10547L10.1914 1.2334C10.2516 1.27953 10.3182 1.33055 10.3857 1.38184C10.4727 1.4478 10.5615 1.51443 10.6406 1.57324C10.658 1.58614 10.6751 1.59832 10.6914 1.61035C10.7027 1.6187 10.7139 1.62691 10.7246 1.63477C10.7404 1.64632 10.7553 1.65765 10.7695 1.66797C10.7785 1.67446 10.7876 1.68058 10.7959 1.68652C10.8946 1.75731 10.9483 1.83034 10.9756 1.89258C10.9789 1.90021 10.9818 1.90774 10.9844 1.91504C10.9857 1.91877 10.9872 1.92313 10.9883 1.92676C10.9916 1.93751 10.9943 1.94823 10.9961 1.95801C10.9967 1.96116 10.9976 1.96473 10.998 1.96777C10.9994 1.97708 10.9998 1.98601 11 1.99414C11.0004 2.01053 10.999 2.02449 10.9961 2.03516L8.77246 4.84082L9.37793 5.30469L9.25195 5.50684L6.88672 3.75391L7.03809 3.51074L7.53223 3.86426C8.01877 3.21956 8.86122 2.10114 9.32324 1.48145C9.41212 1.36224 9.48748 1.2619 9.54297 1.18652C9.60203 1.10628 9.63954 1.05434 9.64844 1.04004C9.65215 1.03415 9.65634 1.0289 9.66113 1.02441C9.66607 1.01982 9.67178 1.01592 9.67773 1.0127C9.68366 1.00949 9.69047 1.00685 9.69727 1.00488C9.70398 1.00297 9.71131 1.00179 9.71875 1.00098C9.73386 0.999339 9.75029 0.999761 9.76758 1.00195Z" fill="white"/>
</svg>
