<svg width="12" height="12" viewBox="0 0 12 12" fill="none" xmlns="http://www.w3.org/2000/svg">
<g clip-path="url(#clip0_2118_1231)">
<path d="M5.16667 2.71875H6.83333V3.65625H5.16667V2.71875ZM5 1.625C4.44792 1.625 4 2.04492 4 2.5625V3.8125C4 4.33008 4.44792 4.75 5 4.75H5.33333V5.375H0.666667C0.297917 5.375 0 5.6543 0 6C0 6.3457 0.297917 6.625 0.666667 6.625H2.66667V7.25H2.33333C1.78125 7.25 1.33333 7.66992 1.33333 8.1875V9.4375C1.33333 9.95508 1.78125 10.375 2.33333 10.375H4.33333C4.88542 10.375 5.33333 9.95508 5.33333 9.4375V8.1875C5.33333 7.66992 4.88542 7.25 4.33333 7.25H4V6.625H8V7.25H7.66667C7.11458 7.25 6.66667 7.66992 6.66667 8.1875V9.4375C6.66667 9.95508 7.11458 10.375 7.66667 10.375H9.66667C10.2188 10.375 10.6667 9.95508 10.6667 9.4375V8.1875C10.6667 7.66992 10.2188 7.25 9.66667 7.25H9.33333V6.625H11.3333C11.7021 6.625 12 6.3457 12 6C12 5.6543 11.7021 5.375 11.3333 5.375H6.66667V4.75H7C7.55208 4.75 8 4.33008 8 3.8125V2.5625C8 2.04492 7.55208 1.625 7 1.625H5ZM9.33333 8.34375H9.5V9.28125H7.83333V8.34375H9.33333ZM4 8.34375H4.16667V9.28125H2.5V8.34375H4Z" fill="white"/>
</g>
<defs>
<clipPath id="clip0_2118_1231">
<rect width="12" height="10" fill="white" transform="translate(0 1)"/>
</clipPath>
</defs>
</svg>
