<svg width="12" height="12" viewBox="0 0 12 12" fill="none" xmlns="http://www.w3.org/2000/svg">
<g clip-path="url(#clip0_365_848)">
<path d="M9.6 0.900024C9.72937 0.900024 9.84375 0.982524 9.885 1.1044L10.1381 1.8619L10.8956 2.11502C11.0175 2.15627 11.1 2.27065 11.1 2.40002C11.1 2.5294 11.0175 2.64377 10.8956 2.68502L10.1381 2.93815L9.885 3.69565C9.84375 3.81752 9.72937 3.90002 9.6 3.90002C9.47062 3.90002 9.35625 3.81752 9.315 3.69565L9.06187 2.93815L8.30437 2.68502C8.1825 2.64377 8.1 2.5294 8.1 2.40002C8.1 2.27065 8.1825 2.15627 8.30437 2.11502L9.06187 1.8619L9.315 1.1044C9.35625 0.982524 9.47062 0.900024 9.6 0.900024ZM6.62625 3.02627C6.86062 2.7919 7.24125 2.7919 7.47562 3.02627L8.97562 4.52627C9.21 4.76065 9.21 5.14127 8.97562 5.37565L8.77125 5.58002C8.91937 5.99252 9 6.4369 9 6.9019C9 9.05627 7.25437 10.8019 5.1 10.8019C2.94562 10.8019 1.2 9.0544 1.2 6.90002C1.2 4.74565 2.94562 3.00002 5.1 3.00002C5.56312 3.00002 6.00937 3.08065 6.42187 3.23065L6.62625 3.02627ZM3.3 6.90002C3.3 5.90627 4.10625 5.10002 5.1 5.10002C5.34937 5.10002 5.55 4.8994 5.55 4.65002C5.55 4.40065 5.34937 4.20002 5.1 4.20002C3.60937 4.20002 2.4 5.4094 2.4 6.90002C2.4 7.1494 2.60062 7.35002 2.85 7.35002C3.09937 7.35002 3.3 7.1494 3.3 6.90002Z" fill="white"/>
</g>
<defs>
<clipPath id="clip0_365_848">
<rect width="12" height="12" fill="white"/>
</clipPath>
</defs>
</svg>
