<svg width="24" height="24" viewBox="0 0 24 24" fill="none" xmlns="http://www.w3.org/2000/svg">
<g clip-path="url(#clip0_291_11355)">
<path d="M13.4286 3.42857C13.4286 2.63839 12.7902 2 12 2C11.2098 2 10.5714 2.63839 10.5714 3.42857V10.5714H3.42857C2.63839 10.5714 2 11.2098 2 12C2 12.7902 2.63839 13.4286 3.42857 13.4286H10.5714V20.5714C10.5714 21.3616 11.2098 22 12 22C12.7902 22 13.4286 21.3616 13.4286 20.5714V13.4286H20.5714C21.3616 13.4286 22 12.7902 22 12C22 11.2098 21.3616 10.5714 20.5714 10.5714H13.4286V3.42857Z" fill="white"/>
</g>
<defs>
<clipPath id="clip0_291_11355">
<rect width="24" height="24" fill="white"/>
</clipPath>
</defs>
</svg>
