<svg width="12" height="12" viewBox="0 0 12 12" fill="none" xmlns="http://www.w3.org/2000/svg">
<path d="M5.43136 0.956326C5.43136 0.787733 5.27699 0.661795 5.11652 0.710545C3.87949 1.09242 2.98167 2.25023 2.98167 3.61726C2.98167 4.12711 3.10558 4.60648 3.32699 5.02898C2.90042 5.06555 2.47386 5.19555 2.07777 5.42508C0.901674 6.10758 0.355268 7.46039 0.637612 8.72586C0.676205 8.89648 0.869174 8.96961 1.02152 8.88023C1.12308 8.82133 1.17589 8.70554 1.16574 8.58773C1.15964 8.5207 1.15761 8.45367 1.15761 8.38258C1.15761 5.87398 4.90324 5.87398 4.90324 8.38258C4.90324 10.1782 2.98371 10.6901 1.89292 9.91414C1.80152 9.84914 1.67964 9.83492 1.58214 9.8918C1.43996 9.97508 1.40746 10.168 1.5273 10.2798C2.47386 11.1695 3.92417 11.3746 5.10433 10.6901C5.46792 10.4788 5.77058 10.2046 6.00824 9.88976C6.24589 10.2066 6.54855 10.4809 6.91214 10.6901C8.0923 11.3746 9.54261 11.1695 10.4892 10.2798C10.609 10.168 10.5765 9.97305 10.4343 9.8918C10.3368 9.83492 10.215 9.84914 10.1235 9.91414C9.03277 10.6901 7.11324 10.1782 7.11324 8.38258C7.11324 5.87398 10.8589 5.87398 10.8589 8.38258C10.8589 8.45164 10.8568 8.5207 10.8507 8.58773C10.8406 8.70554 10.8934 8.82133 10.995 8.88023C11.1453 8.96758 11.3403 8.89648 11.3789 8.72586C11.6612 7.46242 11.1148 6.10758 9.93871 5.42508C9.54261 5.19555 9.11808 5.06555 8.68949 5.02898C8.91089 4.60648 9.0348 4.12711 9.0348 3.61726C9.0348 2.25023 8.13699 1.09242 6.89996 0.710545C6.73949 0.661795 6.58511 0.787733 6.58511 0.956326C6.58511 1.07617 6.66636 1.17976 6.77808 1.22445C8.47214 1.90695 8.21621 4.8482 6.01027 4.8482C3.80433 4.8482 3.54433 1.90695 5.23839 1.22445C5.35011 1.17976 5.43136 1.07617 5.43136 0.956326ZM5.19574 6.55039C5.19574 6.10148 5.55933 5.73789 6.00824 5.73789C6.45714 5.73789 6.82074 6.10148 6.82074 6.55039C6.82074 6.9993 6.45714 7.36289 6.00824 7.36289C5.55933 7.36289 5.19574 6.9993 5.19574 6.55039ZM8.98605 7.15367C8.65699 7.15367 8.34824 7.26539 8.13089 7.45836C7.92574 7.6432 7.76324 7.93367 7.76324 8.38461C7.76324 8.8132 7.90949 9.09554 8.09839 9.28039C8.75246 8.7807 9.22574 8.05148 9.39636 7.21258C9.26839 7.17398 9.12824 7.15164 8.98605 7.15164V7.15367ZM4.25324 8.38461C4.25324 7.93164 4.09074 7.64117 3.88558 7.45836C3.66824 7.26336 3.35949 7.15367 3.03042 7.15367C2.88824 7.15367 2.74808 7.17398 2.62011 7.21461C2.79074 8.05351 3.26199 8.78273 3.91808 9.28242C4.10902 9.09758 4.25324 8.8132 4.25324 8.38461ZM5.09011 3.82851C5.27292 4.0357 5.56136 4.1982 6.00824 4.1982C6.45511 4.1982 6.74355 4.0357 6.92636 3.82851C7.06246 3.67414 7.15996 3.47305 7.20261 3.25164C6.83089 3.11351 6.42667 3.03836 6.00824 3.03836C5.5898 3.03836 5.18558 3.11351 4.81386 3.25164C4.85855 3.47305 4.95402 3.67414 5.09011 3.83055V3.82851Z" fill="white"/>
</svg>
