<svg width="12" height="12" viewBox="0 0 12 12" fill="none" xmlns="http://www.w3.org/2000/svg">
<g clip-path="url(#clip0_61_2795)">
<path d="M9.59995 6C9.59995 4.0125 7.98745 2.4 5.99995 2.4C4.01245 2.4 2.39995 4.0125 2.39995 6C2.39995 7.9875 4.01245 9.6 5.99995 9.6C7.98745 9.6 9.59995 7.9875 9.59995 6ZM1.19995 6C1.19995 3.34875 3.3487 1.2 5.99995 1.2C8.6512 1.2 10.8 3.34875 10.8 6C10.8 8.65125 8.6512 10.8 5.99995 10.8C3.3487 10.8 1.19995 8.65125 1.19995 6ZM5.99995 7.5C6.8287 7.5 7.49995 6.82875 7.49995 6C7.49995 5.17125 6.8287 4.5 5.99995 4.5C5.1712 4.5 4.49995 5.17125 4.49995 6C4.49995 6.82875 5.1712 7.5 5.99995 7.5ZM5.99995 3.3C7.49058 3.3 8.69995 4.50938 8.69995 6C8.69995 7.49063 7.49058 8.7 5.99995 8.7C4.50933 8.7 3.29995 7.49063 3.29995 6C3.29995 4.50938 4.50933 3.3 5.99995 3.3ZM5.39995 6C5.39995 5.66813 5.66808 5.4 5.99995 5.4C6.33183 5.4 6.59995 5.66813 6.59995 6C6.59995 6.33188 6.33183 6.6 5.99995 6.6C5.66808 6.6 5.39995 6.33188 5.39995 6Z" fill="white"/>
</g>
<defs>
<clipPath id="clip0_61_2795">
<rect width="12" height="12" fill="white"/>
</clipPath>
</defs>
</svg>
