<svg width="12" height="12" viewBox="0 0 12 12" fill="none" xmlns="http://www.w3.org/2000/svg">
<g clip-path="url(#clip0_61_284)">
<path d="M5.3999 1.2C5.73178 1.2 5.9999 1.46812 5.9999 1.8V3.9H4.7999V1.8C4.7999 1.46812 5.06803 1.2 5.3999 1.2ZM2.9999 2.4C2.9999 2.06812 3.26803 1.8 3.5999 1.8C3.93178 1.8 4.1999 2.06812 4.1999 2.4V3.9H2.9999V2.4ZM6.5999 2.4C6.5999 2.06812 6.86803 1.8 7.1999 1.8C7.53178 1.8 7.7999 2.06812 7.7999 2.4V4.2C7.7999 4.53187 7.53178 4.8 7.1999 4.8C6.86803 4.8 6.5999 4.53187 6.5999 4.2V2.4ZM8.3999 3.6C8.3999 3.26812 8.66803 3 8.9999 3C9.33178 3 9.5999 3.26812 9.5999 3.6V4.8C9.5999 5.13187 9.33178 5.4 8.9999 5.4C8.66803 5.4 8.3999 5.13187 8.3999 4.8V3.6ZM6.5999 5.25V5.23875C6.77615 5.34 6.98053 5.4 7.1999 5.4C7.4474 5.4 7.67615 5.325 7.8674 5.1975C8.03053 5.66437 8.47678 6 8.9999 6C9.21928 6 9.42365 5.94187 9.5999 5.83875V6C9.5999 6.98062 9.12928 7.8525 8.3999 8.4V10.2C8.3999 10.5319 8.13178 10.8 7.7999 10.8H4.7999C4.46803 10.8 4.1999 10.5319 4.1999 10.2V8.73C3.87553 8.58187 3.5774 8.3775 3.32053 8.12062L3.10303 7.90312C2.65303 7.45312 2.3999 6.84187 2.3999 6.20625V5.7C2.3999 5.03812 2.93803 4.5 3.5999 4.5H5.2499C5.66428 4.5 5.9999 4.83562 5.9999 5.25C5.9999 5.66437 5.66428 6 5.2499 6H4.1999C4.0349 6 3.8999 6.135 3.8999 6.3C3.8999 6.465 4.0349 6.6 4.1999 6.6H5.2499C5.99615 6.6 6.5999 5.99625 6.5999 5.25Z" fill="white"/>
</g>
<defs>
<clipPath id="clip0_61_284">
<rect width="12" height="12" fill="white"/>
</clipPath>
</defs>
</svg>
