<svg width="12" height="12" viewBox="0 0 12 12" fill="none" xmlns="http://www.w3.org/2000/svg">
<g clip-path="url(#clip0_2057_2751)">
<path d="M6 0.6875C5.72292 0.6875 5.5 0.896484 5.5 1.15625V1.39062H5.4625C4.7 1.39062 4.08333 1.9707 4.08333 2.68359C4.08333 3.33594 4.60208 3.88672 5.29167 3.9668L6.5625 4.11523C6.66875 4.12695 6.75 4.21289 6.75 4.31445C6.75 4.42578 6.65417 4.51367 6.5375 4.51367L5 4.51562C4.67708 4.51562 4.41667 4.75977 4.41667 5.0625C4.41667 5.36523 4.67708 5.60938 5 5.60938H5.5V5.84375C5.5 6.10352 5.72292 6.3125 6 6.3125C6.27708 6.3125 6.5 6.10352 6.5 5.84375V5.60938H6.5375C7.3 5.60938 7.91667 5.0293 7.91667 4.31641C7.91667 3.66406 7.39792 3.11328 6.70833 3.0332L5.4375 2.88477C5.33125 2.87305 5.25 2.78711 5.25 2.68555C5.25 2.57422 5.34583 2.48633 5.4625 2.48633L6.83333 2.48438C7.15625 2.48438 7.41667 2.24023 7.41667 1.9375C7.41667 1.63477 7.15625 1.39062 6.83333 1.39062H6.5V1.15625C6.5 0.896484 6.27708 0.6875 6 0.6875ZM2.27708 7.66992L1.38958 8.5H0.666667C0.297917 8.5 0 8.7793 0 9.125V10.375C0 10.7207 0.297917 11 0.666667 11H7.34375C7.94792 11 8.5375 10.8184 9.025 10.4824L11.6625 8.66016C12.0333 8.4043 12.1125 7.91602 11.8396 7.56836C11.5667 7.2207 11.0458 7.14648 10.675 7.40234L8.17917 9.125H5.83333C5.55625 9.125 5.33333 8.91602 5.33333 8.65625C5.33333 8.39648 5.55625 8.1875 5.83333 8.1875H7.33333C7.70208 8.1875 8 7.9082 8 7.5625C8 7.2168 7.70208 6.9375 7.33333 6.9375H4.1625C3.45625 6.9375 2.77708 7.20117 2.27708 7.66992Z" fill="white"/>
</g>
<defs>
<clipPath id="clip0_2057_2751">
<rect width="12" height="10" fill="white" transform="translate(0 1)"/>
</clipPath>
</defs>
</svg>
