<svg width="12" height="12" viewBox="0 0 12 12" fill="none" xmlns="http://www.w3.org/2000/svg">
<path d="M4.78105 1.19806C4.83965 0.908997 5.0955 0.700012 5.39238 0.700012H6.56035C6.85722 0.700012 7.11308 0.908997 7.17168 1.19806L7.45488 2.56525C7.73027 2.68243 7.98808 2.83282 8.22246 3.01056L9.54668 2.57111C9.82793 2.47736 10.1365 2.59454 10.285 2.85236L10.8689 3.86407C11.0174 4.12189 10.9646 4.44611 10.742 4.64337L9.70097 5.56915C9.71855 5.71368 9.72636 5.86212 9.72636 6.01251C9.72636 6.1629 9.7166 6.31134 9.70097 6.45587L10.7439 7.38361C10.9666 7.58087 11.0174 7.90704 10.8709 8.1629L10.2869 9.17462C10.1385 9.43048 9.82988 9.54962 9.54863 9.45587L8.22441 9.01642C7.98808 9.19415 7.73027 9.34259 7.45683 9.46173L7.17558 10.827C7.11504 11.118 6.85918 11.325 6.56425 11.325H5.39629C5.09941 11.325 4.84355 11.116 4.78496 10.827L4.50371 9.46173C4.22832 9.34454 3.97246 9.19415 3.73613 9.01642L2.40605 9.45587C2.1248 9.54962 1.81621 9.43243 1.66777 9.17462L1.08379 8.1629C0.935348 7.90509 0.988083 7.58087 1.21074 7.38361L2.25371 6.45587C2.23613 6.31134 2.22832 6.1629 2.22832 6.01251C2.22832 5.86212 2.23808 5.71368 2.25371 5.56915L1.21074 4.64142C0.988083 4.44415 0.937301 4.11798 1.08379 3.86212L1.66777 2.8504C1.81621 2.59259 2.1248 2.4754 2.40605 2.56915L3.73027 3.00861C3.9666 2.83087 4.22441 2.68243 4.49785 2.56329L4.78105 1.19806ZM5.97636 7.57501C6.18155 7.57424 6.38458 7.53307 6.57386 7.45383C6.76314 7.3746 6.93495 7.25886 7.0795 7.11322C7.22405 6.96759 7.3385 6.79491 7.41631 6.60504C7.49412 6.41518 7.53377 6.21184 7.533 6.00665C7.53223 5.80146 7.49106 5.59843 7.41182 5.40916C7.33259 5.21988 7.21685 5.04806 7.07122 4.90351C6.92558 4.75897 6.7529 4.64452 6.56303 4.56671C6.37317 4.4889 6.16984 4.44924 5.96464 4.45001C5.75945 4.45078 5.55642 4.49196 5.36715 4.57119C5.17787 4.65043 5.00605 4.76617 4.86151 4.9118C4.71696 5.05744 4.60251 5.23012 4.5247 5.41998C4.44689 5.60985 4.40723 5.81318 4.408 6.01837C4.40877 6.22356 4.44995 6.42659 4.52918 6.61587C4.60842 6.80515 4.72416 6.97696 4.86979 7.12151C5.01543 7.26606 5.18811 7.3805 5.37797 7.45832C5.56784 7.53613 5.77117 7.57578 5.97636 7.57501Z" fill="white"/>
</svg>
