<svg width="12" height="12" viewBox="0 0 12 12" fill="none" xmlns="http://www.w3.org/2000/svg">
<g clip-path="url(#clip0_603_3556)">
<path d="M1.19998 1.79999C1.53185 1.79999 1.79998 2.06811 1.79998 2.39999V6.59999H5.99998V4.19999C5.99998 3.86811 6.2681 3.59999 6.59998 3.59999H9.59998C10.5937 3.59999 11.4 4.40624 11.4 5.39999V9.59999C11.4 9.93186 11.1319 10.2 10.8 10.2C10.4681 10.2 10.2 9.93186 10.2 9.59999V8.39999H1.79998V9.59999C1.79998 9.93186 1.53185 10.2 1.19998 10.2C0.868101 10.2 0.599976 9.93186 0.599976 9.59999V2.39999C0.599976 2.06811 0.868101 1.79999 1.19998 1.79999ZM2.69998 4.79999C2.69998 4.13811 3.2381 3.59999 3.89998 3.59999C4.56185 3.59999 5.09998 4.13811 5.09998 4.79999C5.09998 5.46186 4.56185 5.99999 3.89998 5.99999C3.2381 5.99999 2.69998 5.46186 2.69998 4.79999Z" fill="white"/>
</g>
<defs>
<clipPath id="clip0_603_3556">
<rect width="12" height="12" fill="white"/>
</clipPath>
</defs>
</svg>
