<svg width="12" height="12" viewBox="0 0 12 12" fill="none" xmlns="http://www.w3.org/2000/svg">
<g clip-path="url(#clip0_63_3207)">
<path d="M6.0166 9.02905C6.20231 9.02908 6.37585 9.08031 6.52539 9.16772C6.52848 9.16947 6.53208 9.17083 6.53516 9.17261C6.54253 9.17687 6.54942 9.18186 6.55664 9.18628C6.56702 9.19286 6.57777 9.19887 6.58789 9.20581C7.02995 9.49836 7.17383 10.0882 6.90527 10.5535C6.71294 10.8866 6.35931 11.0676 6 11.0574C5.64068 11.0676 5.28707 10.8866 5.09473 10.5535C4.81566 10.07 4.98155 9.45182 5.46484 9.17261C5.57273 9.11031 5.68767 9.07092 5.80371 9.05151C5.87229 9.03683 5.94364 9.02905 6.0166 9.02905ZM3.97852 6.59741C4.46198 6.31828 5.08025 6.48403 5.35938 6.96753C5.63847 7.45104 5.47271 8.06924 4.98926 8.34839C4.5058 8.62753 3.88752 8.46177 3.6084 7.97827C3.32942 7.49479 3.49511 6.87654 3.97852 6.59741ZM6.64062 6.96753C6.91971 6.4841 7.53805 6.31844 8.02148 6.59741C8.50493 6.87656 8.67067 7.49477 8.3916 7.97827C8.11247 8.46178 7.49421 8.62755 7.01074 8.34839C6.52746 8.06921 6.36165 7.45096 6.64062 6.96753ZM6.0166 3.91577C6.57481 3.91584 7.02734 4.36825 7.02734 4.92651C7.02723 5.48468 6.57473 5.93719 6.0166 5.93726C5.45841 5.93726 5.00598 5.48472 5.00586 4.92651C5.00586 4.36821 5.45834 3.91577 6.0166 3.91577ZM2.49219 4.02222C2.97546 3.74352 3.59293 3.90927 3.87207 4.39233C4.15112 4.8757 3.98607 5.49392 3.50293 5.77319C3.01946 6.05235 2.4012 5.88659 2.12207 5.40308C1.84308 4.91959 2.00878 4.30134 2.49219 4.02222ZM8.12793 4.39233C8.40707 3.90926 9.02453 3.74352 9.50781 4.02222C9.99124 4.30134 10.1569 4.91959 9.87793 5.40308C9.5988 5.88659 8.98054 6.05235 8.49707 5.77319C8.01391 5.49393 7.84888 4.87571 8.12793 4.39233ZM1.00586 1.448C1.48923 1.1689 2.10751 1.33386 2.38672 1.81714C2.66585 2.30065 2.50007 2.91982 2.0166 3.19897C1.53324 3.47793 0.9149 3.31212 0.635742 2.82886C0.356634 2.34539 0.522482 1.72718 1.00586 1.448ZM9.61426 1.81714C9.89349 1.33391 10.5118 1.16891 10.9951 1.448C11.4784 1.72722 11.6443 2.34543 11.3652 2.82886C11.0861 3.31214 10.4677 3.47785 9.98438 3.19897C9.50091 2.91982 9.33513 2.30065 9.61426 1.81714ZM6.0166 0.942139C6.57475 0.942206 7.02725 1.39469 7.02734 1.95288C7.02734 2.51115 6.57481 2.96356 6.0166 2.96362C5.45834 2.96362 5.00586 2.51119 5.00586 1.95288C5.00595 1.39465 5.45839 0.942139 6.0166 0.942139Z" fill="white"/>
</g>
<defs>
<clipPath id="clip0_63_3207">
<rect width="12" height="12" fill="white"/>
</clipPath>
</defs>
</svg>
