<svg width="12" height="12" viewBox="0 0 12 12" fill="none" xmlns="http://www.w3.org/2000/svg">
<g clip-path="url(#clip0_519_3333)">
<path d="M3.69558 1.79999C4.01995 1.79999 4.33683 1.86374 4.6312 1.98186L5.6587 3.57936L4.24495 4.99311C4.21683 5.02124 4.19995 5.06061 4.20183 5.10186C4.2037 5.14311 4.22058 5.18061 4.25058 5.20874L6.35058 7.15874C6.40495 7.20936 6.48933 7.21311 6.54745 7.16436C6.60558 7.11561 6.6187 7.03311 6.57933 6.96936L5.44683 5.12999L7.14745 3.71249C7.1962 3.67311 7.21308 3.60561 7.19245 3.54749L6.75745 2.33624C7.19245 1.99311 7.7362 1.79999 8.30433 1.79999C9.68245 1.79999 10.8 2.91749 10.8 4.29561V4.34436C10.8 6.44811 8.17683 8.89124 6.80808 9.93561C6.57558 10.1119 6.29058 10.2 5.99995 10.2C5.70933 10.2 5.42245 10.1137 5.19183 9.93561C3.82308 8.89124 1.19995 6.44811 1.19995 4.34436V4.29561C1.19995 2.91749 2.31745 1.79999 3.69558 1.79999Z" fill="white"/>
</g>
<defs>
<clipPath id="clip0_519_3333">
<rect width="12" height="12" fill="white"/>
</clipPath>
</defs>
</svg>
