<svg width="12" height="12" viewBox="0 0 12 12" fill="none" xmlns="http://www.w3.org/2000/svg">
<g clip-path="url(#clip0_61_296)">
<path d="M10.1513 3.04875C10.2938 2.90625 10.5319 2.94187 10.6032 3.12937C10.7307 3.46125 10.8001 3.82312 10.8001 4.2C10.8001 5.8575 9.45757 7.2 7.80007 7.2C7.47194 7.2 7.15507 7.1475 6.85882 7.05L3.35444 10.5544C2.82757 11.0812 1.97257 11.0812 1.44569 10.5544C0.918818 10.0275 0.918818 9.1725 1.44569 8.64562L4.95007 5.14125C4.85257 4.845 4.80007 4.53 4.80007 4.2C4.80007 2.5425 6.14257 1.2 7.80007 1.2C8.17694 1.2 8.53882 1.26937 8.87069 1.39687C9.05819 1.46812 9.09194 1.70625 8.95132 1.84875L7.28819 3.51187C7.23194 3.56812 7.20007 3.645 7.20007 3.72375V4.5C7.20007 4.665 7.33507 4.8 7.50007 4.8H8.27632C8.35507 4.8 8.43194 4.76812 8.48819 4.71187L10.1513 3.04875Z" fill="white"/>
</g>
<defs>
<clipPath id="clip0_61_296">
<rect width="12" height="12" fill="white"/>
</clipPath>
</defs>
</svg>
