<svg width="12" height="12" viewBox="0 0 12 12" fill="none" xmlns="http://www.w3.org/2000/svg">
<g clip-path="url(#clip0_365_932)">
<path d="M5.40002 1.19995C5.7319 1.19995 6.00002 1.46808 6.00002 1.79995V3.89995H4.80002V1.79995C4.80002 1.46808 5.06815 1.19995 5.40002 1.19995ZM3.00002 2.39995C3.00002 2.06808 3.26815 1.79995 3.60002 1.79995C3.9319 1.79995 4.20002 2.06808 4.20002 2.39995V3.89995H3.00002V2.39995ZM6.60002 2.39995C6.60002 2.06808 6.86815 1.79995 7.20002 1.79995C7.5319 1.79995 7.80002 2.06808 7.80002 2.39995V4.19995C7.80002 4.53183 7.5319 4.79995 7.20002 4.79995C6.86815 4.79995 6.60002 4.53183 6.60002 4.19995V2.39995ZM8.40002 3.59995C8.40002 3.26808 8.66815 2.99995 9.00002 2.99995C9.3319 2.99995 9.60002 3.26808 9.60002 3.59995V4.79995C9.60002 5.13183 9.3319 5.39995 9.00002 5.39995C8.66815 5.39995 8.40002 5.13183 8.40002 4.79995V3.59995ZM6.60002 5.24995V5.2387C6.77627 5.33995 6.98065 5.39995 7.20002 5.39995C7.44752 5.39995 7.67627 5.32495 7.86752 5.19745C8.03065 5.66433 8.4769 5.99995 9.00002 5.99995C9.2194 5.99995 9.42377 5.94183 9.60002 5.8387V5.99995C9.60002 6.98058 9.1294 7.85245 8.40002 8.39995V10.2C8.40002 10.5318 8.1319 10.8 7.80002 10.8H4.80002C4.46815 10.8 4.20002 10.5318 4.20002 10.2V8.72995C3.87565 8.58183 3.57752 8.37745 3.32065 8.12058L3.10315 7.90308C2.65315 7.45308 2.40002 6.84183 2.40002 6.2062V5.69995C2.40002 5.03808 2.93815 4.49995 3.60002 4.49995H5.25002C5.6644 4.49995 6.00002 4.83558 6.00002 5.24995C6.00002 5.66433 5.6644 5.99995 5.25002 5.99995H4.20002C4.03502 5.99995 3.90002 6.13495 3.90002 6.29995C3.90002 6.46495 4.03502 6.59995 4.20002 6.59995H5.25002C5.99627 6.59995 6.60002 5.9962 6.60002 5.24995Z" fill="white"/>
</g>
<defs>
<clipPath id="clip0_365_932">
<rect width="12" height="12" fill="white"/>
</clipPath>
</defs>
</svg>
