<svg width="12" height="12" viewBox="0 0 12 12" fill="none" xmlns="http://www.w3.org/2000/svg">
<g clip-path="url(#clip0_61_308)">
<path d="M1.8 3.3C1.8 2.80313 2.20312 2.4 2.7 2.4C3.19688 2.4 3.6 2.80313 3.6 3.3V5.4H8.4V3.3C8.4 2.80313 8.80313 2.4 9.3 2.4C9.79688 2.4 10.2 2.80313 10.2 3.3V3.6H10.5C10.9969 3.6 11.4 4.00313 11.4 4.5V5.4C11.7319 5.4 12 5.66813 12 6C12 6.33188 11.7319 6.6 11.4 6.6V7.5C11.4 7.99688 10.9969 8.4 10.5 8.4H10.2V8.7C10.2 9.19688 9.79688 9.6 9.3 9.6C8.80313 9.6 8.4 9.19688 8.4 8.7V6.6L3.6 6.6V8.7C3.6 9.19688 3.19688 9.6 2.7 9.6C2.20313 9.6 1.8 9.19688 1.8 8.7L1.8 8.4H1.5C1.00313 8.4 0.6 7.99688 0.6 7.5L0.6 6.6C0.268125 6.6 0 6.33188 0 6C0 5.66813 0.268125 5.4 0.6 5.4V4.5C0.6 4.00313 1.00313 3.6 1.5 3.6H1.8V3.3Z" fill="white"/>
</g>
<defs>
<clipPath id="clip0_61_308">
<rect width="12" height="12" fill="white"/>
</clipPath>
</defs>
</svg>
