<svg width="12" height="12" viewBox="0 0 12 12" fill="none" xmlns="http://www.w3.org/2000/svg">
<g clip-path="url(#clip0_61_302)">
<path d="M3.71831 1.20004C4.09169 1.20004 4.39437 1.49203 4.39437 1.85222C4.39437 2.2124 4.09169 2.50439 3.71831 2.50439H2.63616C2.61564 2.51803 2.5814 2.54638 2.53818 2.59699C2.44265 2.70887 2.36509 2.85586 2.32738 2.9511L1.39727 5.73265H4.49577C4.89775 5.73265 5.23138 6.01469 5.29575 6.38483H6.70425C6.76862 6.01469 7.10225 5.73265 7.50423 5.73265H10.6027L9.67256 2.9511C9.63484 2.85585 9.55734 2.70886 9.46182 2.59699C9.4186 2.54638 9.38436 2.51803 9.36384 2.50439H8.28169C7.90831 2.50439 7.60563 2.2124 7.60563 1.85222C7.60563 1.49203 7.90831 1.20004 8.28169 1.20004H9.39718C9.93337 1.20004 10.3062 1.53436 10.5055 1.76777C10.707 2.00378 10.8489 2.27167 10.9287 2.4679L10.9439 2.50617L10.9488 2.51917L11.9608 5.54553C11.9868 5.62314 12 5.7042 12 5.78577V8.56961C12 9.10756 11.7711 9.51888 11.4392 9.79142C11.1307 10.0448 10.7689 10.1512 10.5012 10.1858C10.4439 10.1933 10.3873 10.1979 10.3324 10.1997L10.3211 10.2H8.75493C8.60852 10.2 8.46763 10.1884 8.33253 10.1653C7.68969 10.0552 7.26212 9.70033 7.01085 9.3012C6.77254 8.92264 6.69296 8.50954 6.69296 8.21091V7.68917H5.30704V8.21091C5.30704 8.5381 5.21086 9.01435 4.90246 9.42756C4.56924 9.87403 4.01978 10.2 3.24507 10.2H1.67885L1.66763 10.1997C1.61271 10.1979 1.55612 10.1933 1.49881 10.1858C1.23107 10.1512 0.869312 10.0448 0.560784 9.79142C0.22892 9.51888 0 9.10756 0 8.56961V5.78577L0.00059419 5.7552C0.00348053 5.68399 0.0164441 5.61344 0.0391505 5.54553L1.05119 2.51917L1.05614 2.50617C1.1324 2.30756 1.27957 2.01951 1.49452 1.76777C1.69382 1.53436 2.06663 1.20004 2.60282 1.20004H3.71831ZM1.35211 8.56961C1.35211 8.65403 1.36867 8.70252 1.38136 8.72877C1.39426 8.75543 1.41209 8.7775 1.43728 8.79819C1.44531 8.80478 1.45404 8.81109 1.46329 8.81717L3.95183 7.037H1.35211V8.56961ZM8.04507 8.21091C8.04507 8.314 8.07814 8.48368 8.16655 8.62413C8.20704 8.68845 8.25854 8.74702 8.33048 8.79328L10.6479 7.10374V7.037H8.04507V8.21091Z" fill="white"/>
</g>
<defs>
<clipPath id="clip0_61_302">
<rect width="12" height="12" fill="white"/>
</clipPath>
</defs>
</svg>
