<svg width="12" height="12" viewBox="0 0 12 12" fill="none" xmlns="http://www.w3.org/2000/svg">
<path d="M8.8 9.01372C9.89688 8.18872 10.6 6.92122 10.6 5.49997C10.6 3.01559 8.45125 0.999969 5.8 0.999969C3.14875 0.999969 1 3.01559 1 5.49997C1 6.92122 1.70312 8.18872 2.8 9.01372V9.69997C2.8 10.1968 3.20312 10.6 3.7 10.6H4.3V9.84997C4.3 9.60059 4.50063 9.39997 4.75 9.39997C4.99938 9.39997 5.2 9.60059 5.2 9.84997V10.6H6.4V9.84997C6.4 9.60059 6.60063 9.39997 6.85 9.39997C7.09938 9.39997 7.3 9.60059 7.3 9.84997V10.6H7.9C8.39687 10.6 8.8 10.1968 8.8 9.69997V9.01372ZM2.8 5.79997C2.8 5.13809 3.33812 4.59997 4 4.59997C4.66188 4.59997 5.2 5.13809 5.2 5.79997C5.2 6.46184 4.66188 6.99997 4 6.99997C3.33812 6.99997 2.8 6.46184 2.8 5.79997ZM7.6 4.59997C8.26188 4.59997 8.8 5.13809 8.8 5.79997C8.8 6.46184 8.26188 6.99997 7.6 6.99997C6.93813 6.99997 6.4 6.46184 6.4 5.79997C6.4 5.13809 6.93813 4.59997 7.6 4.59997Z" fill="white"/>
</svg>
