<svg width="12" height="12" viewBox="0 0 12 12" fill="none" xmlns="http://www.w3.org/2000/svg">
<g clip-path="url(#clip0_61_327)">
<path fill-rule="evenodd" clip-rule="evenodd" d="M7.89381 2C8.6584 2 9.16945 2.4064 9.34513 2.59751C10.2301 3.56016 10.7611 4.12448 11.5044 5.02075C11.638 5.1818 12 5.53195 12 5.9834C12 6.43485 11.6814 6.74689 11.5044 6.94606C11.0398 7.46888 10.6195 7.97511 9.9823 8.639C9.63923 8.99647 8.42479 10 6.0177 10C3.61062 10 2.52743 9.17012 2.0177 8.639C1.38053 7.9751 0.920363 7.54357 0.389381 6.87967C0.263328 6.72206 -1.9653e-05 6.38174 1.10009e-09 5.9834C1.96575e-05 5.58506 0.0141593 5.57842 0.495575 5.02075C0.97699 4.46307 2.13569 3.17289 2.65487 2.59751C2.82006 2.39834 3.3416 2 4.10619 2C4.87079 2 5.69911 2.53112 6.0177 2.79668C6.32448 2.53112 7.12921 2 7.89381 2ZM7.32743 4.6556C6.69337 4.6556 6.36636 4.82158 6.0177 4.82158C5.66904 4.82158 5.09424 4.6556 4.46018 4.6556C3.64602 4.6556 3.22124 5.08714 2.86726 5.38589C2.58407 5.6249 1.85251 5.86169 1.52212 5.95021C3.00228 7.02397 5.1588 7.30369 6.0177 7.3112C6.01174 7.31123 6.02354 7.3112 6.0177 7.3112C6.8766 7.30369 8.78533 7.02397 10.2655 5.95021C9.9351 5.86169 9.20354 5.6249 8.92035 5.38589C8.56637 5.08714 8.14159 4.6556 7.32743 4.6556Z" fill="white"/>
</g>
<defs>
<clipPath id="clip0_61_327">
<rect width="12" height="12" fill="white"/>
</clipPath>
</defs>
</svg>
