<svg width="24" height="24" viewBox="0 0 24 24" fill="none" xmlns="http://www.w3.org/2000/svg">
<g clip-path="url(#clip0_61_1657)">
<path fill-rule="evenodd" clip-rule="evenodd" d="M11.3125 2C15.4947 2 18.957 5.09122 19.5397 9.11387C19.5545 9.2252 19.6027 9.33282 19.6732 9.42188L21.0017 11.0139C21.2615 11.3256 21.4062 11.7227 21.4062 12.1309C21.4062 13.092 20.627 13.875 19.6621 13.875H19.625C19.2984 13.875 19.0312 14.1422 19.0312 14.4688V16.25C19.0312 17.56 17.9662 18.625 16.6562 18.625H15.235C15.0457 18.625 14.875 18.7623 14.875 18.9516V19.2188C14.875 20.2021 14.0771 21 13.0938 21H7.15625C6.17285 21 5.375 20.2021 5.375 19.2188V16.8586C5.375 16.391 5.18575 15.9494 4.88888 15.5895C3.7088 14.1533 3 12.3164 3 10.3125C3 5.72207 6.72207 2 11.3125 2ZM14.875 7.9375C14.2192 7.9375 13.6875 8.46916 13.6875 9.125C13.6875 9.78084 14.2192 10.3125 14.875 10.3125C15.5308 10.3125 16.0625 9.78084 16.0625 9.125C16.0625 8.46916 15.5308 7.9375 14.875 7.9375Z" fill="white"/>
</g>
<defs>
<clipPath id="clip0_61_1657">
<rect width="24" height="24" fill="white"/>
</clipPath>
</defs>
</svg>
