<svg width="12" height="12" viewBox="0 0 12 12" fill="none" xmlns="http://www.w3.org/2000/svg">
<g clip-path="url(#clip0_70_922)">
<path d="M4.87256 0.799997C4.6024 0.799997 4.38506 1.01734 4.38506 1.2875C4.38506 1.55765 4.6024 1.775 4.87256 1.775H5.52256V2.2889C3.32881 2.53062 1.62256 4.39125 1.62256 6.65C1.62256 9.07328 3.58678 11.0375 6.01006 11.0375C8.43334 11.0375 10.3976 9.07328 10.3976 6.65C10.3976 5.84156 10.1782 5.0839 9.79631 4.43187L10.3691 3.85906C10.623 3.60515 10.623 3.19281 10.3691 2.9389C10.1152 2.685 9.70287 2.685 9.44896 2.9389L8.97365 3.41422C8.30537 2.80078 7.44615 2.3925 6.49553 2.28687V1.77297H7.14553C7.41568 1.77297 7.63303 1.55562 7.63303 1.28547C7.63303 1.01531 7.41568 0.797966 7.14553 0.797966H4.87053L4.87256 0.799997ZM6.49756 4.5375V6.65C6.49756 6.92015 6.28021 7.1375 6.01006 7.1375C5.7399 7.1375 5.52256 6.92015 5.52256 6.65V4.5375C5.52256 4.26734 5.7399 4.05 6.01006 4.05C6.28021 4.05 6.49756 4.26734 6.49756 4.5375Z" fill="white"/>
</g>
<defs>
<clipPath id="clip0_70_922">
<rect width="12" height="12" fill="white"/>
</clipPath>
</defs>
</svg>
