<svg width="12" height="12" viewBox="0 0 12 12" fill="none" xmlns="http://www.w3.org/2000/svg">
<g clip-path="url(#clip0_61_287)">
<path d="M3.4501 2.25C3.4501 1.67062 3.92072 1.2 4.5001 1.2H4.9501C5.28197 1.2 5.5501 1.46812 5.5501 1.8V10.2C5.5501 10.5319 5.28197 10.8 4.9501 10.8H4.3501C3.79135 10.8 3.32072 10.4175 3.1876 9.9C3.17447 9.9 3.16322 9.9 3.1501 9.9C2.32135 9.9 1.6501 9.22875 1.6501 8.4C1.6501 8.0625 1.7626 7.75125 1.9501 7.5C1.58635 7.22625 1.3501 6.79125 1.3501 6.3C1.3501 5.72062 1.6801 5.21625 2.1601 4.96687C2.02697 4.74187 1.9501 4.47937 1.9501 4.2C1.9501 3.37125 2.62135 2.7 3.4501 2.7V2.25ZM8.5501 2.25V2.7C9.37885 2.7 10.0501 3.37125 10.0501 4.2C10.0501 4.48125 9.97322 4.74375 9.8401 4.96687C10.322 5.21625 10.6501 5.71875 10.6501 6.3C10.6501 6.79125 10.4138 7.22625 10.0501 7.5C10.2376 7.75125 10.3501 8.0625 10.3501 8.4C10.3501 9.22875 9.67885 9.9 8.8501 9.9C8.83697 9.9 8.82572 9.9 8.8126 9.9C8.67947 10.4175 8.20885 10.8 7.6501 10.8H7.0501C6.71822 10.8 6.4501 10.5319 6.4501 10.2V1.8C6.4501 1.46812 6.71822 1.2 7.0501 1.2H7.5001C8.07947 1.2 8.5501 1.67062 8.5501 2.25Z" fill="white"/>
</g>
<defs>
<clipPath id="clip0_61_287">
<rect width="12" height="12" fill="white"/>
</clipPath>
</defs>
</svg>
