<svg width="24" height="24" viewBox="0 0 24 24" fill="none" xmlns="http://www.w3.org/2000/svg">
<path d="M16.7151 2V9.87305C16.7149 10.3905 16.296 10.8094 15.7786 10.8096C15.261 10.8096 14.8412 10.3905 14.8411 9.87305V2H10.6858C10.186 2.02083 9.22355 2.37463 9.37329 3.62402C9.52325 4.87365 10.0192 9.31 10.2483 11.3721C10.3108 11.9761 10.173 13.3472 9.12329 13.9971C8.07321 14.6471 5.27057 16.3089 4.00024 17.0586C3.66703 17.2668 3.00039 17.8955 3.00024 18.7451V20.8701C3.00036 21.2451 3.23823 21.9941 4.18774 21.9941H9.99829C10.2899 21.9525 11.086 21.8201 11.9358 21.6201C12.7857 21.4201 14.6643 20.9534 15.4973 20.7451C15.4974 21.1617 15.7345 21.994 16.6838 21.9941C17.6336 21.9941 18.8716 22.0063 19.3713 21.9941C19.726 21.9853 20.4328 21.6818 20.4329 20.6826V19.0576C20.4537 18.7867 20.4202 17.983 20.1204 16.9336C19.7455 15.6214 19.3713 13.9967 19.3713 12.4971C19.3713 11.2975 19.538 10.0397 19.6213 9.56055L20.2454 3.93652C20.2662 3.81145 20.3079 3.49885 20.3079 3.24902C20.3076 2.93623 20.0579 2.00022 19.1213 2H16.7151Z" fill="white"/>
</svg>
