<svg width="12" height="12" viewBox="0 0 12 12" fill="none" xmlns="http://www.w3.org/2000/svg">
<g clip-path="url(#clip0_95_1124)">
<path d="M6 2.7C6.57937 2.7 7.05 2.22938 7.05 1.65C7.05 1.07063 6.57937 0.6 6 0.6C5.42062 0.6 4.95 1.07063 4.95 1.65C4.95 2.22938 5.42062 2.7 6 2.7ZM4.37625 5.47313L4.8 5.04938V6.34875C4.8 6.87375 5.02875 7.37438 5.42812 7.71563L6.76687 8.86313C6.8775 8.95875 6.95062 9.09 6.97125 9.23438L7.2075 10.8863C7.25437 11.2144 7.55812 11.4431 7.88625 11.3963C8.21437 11.3494 8.44312 11.0456 8.39625 10.7175L8.16 9.06563C8.09812 8.6325 7.88062 8.23875 7.54875 7.95375L6.90187 7.39875V5.23875L6.97312 5.32688C7.31437 5.75438 7.83187 6.00188 8.37937 6.00188H9.00187C9.33375 6.00188 9.60187 5.73375 9.60187 5.40188C9.60187 5.07 9.33375 4.80188 9.00187 4.80188H8.37937C8.1975 4.80188 8.025 4.71938 7.91062 4.57688L7.575 4.15688C7.14375 3.61688 6.48938 3.30188 5.7975 3.30188C5.19375 3.30188 4.61437 3.54188 4.18875 3.96938L3.52688 4.62375C3.18938 4.96125 3 5.41875 3 5.89688V6.6C3 6.93188 3.26812 7.2 3.6 7.2C3.93187 7.2 4.2 6.93188 4.2 6.6V5.89688C4.2 5.7375 4.26375 5.58563 4.37625 5.47313ZM4.60875 8.83688C4.58062 8.93438 4.52812 9.02438 4.45687 9.09563L3.17625 10.3763C2.94187 10.6106 2.94187 10.9913 3.17625 11.2256C3.41062 11.46 3.79125 11.46 4.02562 11.2256L5.30625 9.945C5.52187 9.72938 5.67937 9.46125 5.76375 9.16688L5.805 9.02438L4.9425 8.28563C4.89563 8.24438 4.84875 8.20313 4.80375 8.15813L4.60875 8.83688Z" fill="white"/>
</g>
<defs>
<clipPath id="clip0_95_1124">
<rect width="12" height="12" fill="white"/>
</clipPath>
</defs>
</svg>
