<svg width="24" height="24" viewBox="0 0 24 24" fill="none" xmlns="http://www.w3.org/2000/svg">
<g clip-path="url(#clip0_61_1610)">
<path d="M10.7999 3.59999C10.7999 2.93624 11.3362 2.39999 11.9999 2.39999C12.6637 2.39999 13.1999 2.93624 13.1999 3.59999V11.4C13.1999 11.73 13.4699 12 13.7999 12C14.1299 12 14.3999 11.73 14.3999 11.4V4.79999C14.3999 4.13624 14.9362 3.59999 15.5999 3.59999C16.2637 3.59999 16.7999 4.13624 16.7999 4.79999V15C16.7999 15.0562 16.7999 15.1162 16.7962 15.1725L19.0649 13.0125C19.6649 12.4425 20.6137 12.465 21.1874 13.065C21.7612 13.665 21.7349 14.6137 21.1349 15.1875L16.9199 19.2C15.3037 20.7412 13.1549 21.6 10.9199 21.6H10.1999C6.5549 21.6 3.59991 18.645 3.59991 15V7.19999C3.59991 6.53624 4.13615 5.99999 4.79991 5.99999C5.46366 5.99999 5.99991 6.53624 5.99991 7.19999V11.4C5.99991 11.73 6.26991 12 6.59991 12C6.9299 12 7.19991 11.73 7.19991 11.4V4.79999C7.19991 4.13624 7.73616 3.59999 8.39991 3.59999C9.06365 3.59999 9.59991 4.13624 9.59991 4.79999V11.4C9.59991 11.73 9.86991 12 10.1999 12C10.5299 12 10.7999 11.73 10.7999 11.4V3.59999Z" fill="white"/>
</g>
<defs>
<clipPath id="clip0_61_1610">
<rect width="24" height="24" fill="white"/>
</clipPath>
</defs>
</svg>
