<svg width="24" height="24" viewBox="0 0 24 24" fill="none" xmlns="http://www.w3.org/2000/svg">
<path d="M7.22266 2V9.87305C7.22282 10.3905 7.64177 10.8094 8.15918 10.8096C8.67671 10.8096 9.09651 10.3905 9.09668 9.87305V2H13.252C13.7518 2.02083 14.7142 2.37463 14.5645 3.62402C14.4145 4.87365 13.9186 9.31 13.6895 11.3721C13.627 11.9761 13.7647 13.3472 14.8145 13.9971C15.8645 14.6471 18.6672 16.3089 19.9375 17.0586C20.2707 17.2668 20.9374 17.8955 20.9375 18.7451V20.8701C20.9374 21.2451 20.6995 21.9941 19.75 21.9941H13.9395C13.6479 21.9525 12.8517 21.8201 12.002 21.6201C11.1521 21.4201 9.27346 20.9534 8.44043 20.7451C8.44034 21.1617 8.2032 21.994 7.25391 21.9941C6.30416 21.9941 5.06612 22.0063 4.56641 21.9941C4.21172 21.9853 3.50499 21.6818 3.50488 20.6826V19.0576C3.48408 18.7867 3.51755 17.983 3.81738 16.9336C4.19228 15.6214 4.5664 13.9967 4.56641 12.4971C4.56641 11.2975 4.39973 10.0397 4.31641 9.56055L3.69238 3.93652C3.67155 3.81145 3.62988 3.49885 3.62988 3.24902C3.6301 2.93623 3.87983 2.00022 4.81641 2H7.22266Z" fill="white"/>
</svg>
