<svg width="12" height="12" viewBox="0 0 12 12" fill="none" xmlns="http://www.w3.org/2000/svg">
<g clip-path="url(#clip0_61_1501)">
<path d="M5.99995 3.22311L5.7187 2.83311C5.24995 2.18436 4.49808 1.79999 3.69558 1.79999C2.31745 1.79999 1.19995 2.91749 1.19995 4.29561V4.34436C1.19995 4.78686 1.3162 5.24436 1.5112 5.69999H3.4987C3.5587 5.69999 3.61308 5.66436 3.63745 5.60811L4.2337 4.17749C4.30308 4.01249 4.46433 3.90374 4.64245 3.89999C4.82058 3.89624 4.98558 4.00124 5.0587 4.16436L6.02058 6.29999L6.79683 4.74749C6.8737 4.59561 7.02933 4.49811 7.19995 4.49811C7.37058 4.49811 7.5262 4.59374 7.60308 4.74749L8.03808 5.61561C8.06433 5.66624 8.11495 5.69811 8.17308 5.69811H10.4906C10.6875 5.24249 10.8018 4.78499 10.8018 4.34249V4.29374C10.8 2.91749 9.68245 1.79999 8.30433 1.79999C7.5037 1.79999 6.74995 2.18436 6.2812 2.83311L5.99995 3.22124V3.22311ZM10.005 6.59999H8.1712C7.7737 6.59999 7.40995 6.37499 7.23183 6.01874L7.19995 5.95499L6.40308 7.55061C6.3262 7.70624 6.16495 7.80374 5.99058 7.79999C5.8162 7.79624 5.66058 7.69311 5.58933 7.53561L4.66495 5.48249L4.46808 5.95499C4.30495 6.34686 3.92245 6.60186 3.4987 6.60186H1.99495C2.87995 7.98561 4.3012 9.25874 5.18995 9.93749C5.42245 10.1137 5.70745 10.2019 5.99808 10.2019C6.2887 10.2019 6.57558 10.1156 6.8062 9.93749C7.6987 9.25686 9.11995 7.98374 10.005 6.59999Z" fill="white"/>
</g>
<defs>
<clipPath id="clip0_61_1501">
<rect width="12" height="12" fill="white"/>
</clipPath>
</defs>
</svg>
