<svg width="24" height="24" viewBox="0 0 24 24" fill="none" xmlns="http://www.w3.org/2000/svg">
<g clip-path="url(#clip0_61_1664)">
<path d="M12.0074 6.60001C13.6649 6.60001 15.0074 5.25751 15.0074 3.60001H17.0136C17.6511 3.60001 18.2624 3.85126 18.7124 4.30126L23.1599 8.75251C23.6286 9.22126 23.6286 9.98251 23.1599 10.4513L21.2586 12.3525C20.7899 12.8213 20.0286 12.8213 19.5599 12.3525L18.0074 10.8V19.2C18.0074 20.5238 16.9311 21.6 15.6074 21.6H8.40739C7.08364 21.6 6.00739 20.5238 6.00739 19.2V10.8L4.45489 12.3525C3.98614 12.8213 3.22489 12.8213 2.75614 12.3525L0.858643 10.4475C0.389893 9.97876 0.389893 9.21751 0.858643 8.74876L5.30614 4.30126C5.75614 3.85126 6.36739 3.60001 7.00489 3.60001H9.01114C9.01114 5.25751 10.3536 6.60001 12.0111 6.60001H12.0074Z" fill="white"/>
</g>
<defs>
<clipPath id="clip0_61_1664">
<rect width="24" height="24" fill="white"/>
</clipPath>
</defs>
</svg>
