<svg width="512" height="512" viewBox="0 0 512 512" fill="none" xmlns="http://www.w3.org/2000/svg">
<path d="M38.676 18.3516V122.57L167.723 251.615V18.3516H79.727L79.729 117.695H61.0401V18.3516H38.676ZM186.41 18.3516V263.145H327.906V18.3516H186.41ZM346.594 18.3516V249.297L473.322 122.57V18.3516H453.504L453.506 117.695H434.816L434.814 18.3516H346.594ZM429.746 192.576L411.286 211.036L411.289 291.713H392.6L392.598 229.721L340.484 281.835H326.852V404.305L429.746 301.41V192.576ZM82.254 192.578V301.412L186.662 405.818V281.834H171.512L119.885 230.209L119.887 291.712H101.2L101.197 211.52L82.254 192.578ZM206.377 227.703H307.584V246.393H206.377V227.703ZM205.35 281.833V413.91H308.166V281.834H205.35V281.833ZM121.8 367.391V493.737H201.826V432.599H187.01L158.93 404.519L158.932 469.962H140.242L140.24 385.83L121.8 367.393V367.391ZM390.143 367.446L372.993 384.596V469.962H354.305L354.303 403.285L324.988 432.6H311.688V493.738H390.143V367.448V367.446ZM226.037 376.966H290.99V395.653H226.037V376.966ZM220.517 432.599V493.737H293V432.599H220.517Z" fill="#444856"/>
</svg>
