<svg width="512" height="512" viewBox="0 0 512 512" fill="none" xmlns="http://www.w3.org/2000/svg">
<path d="M256 19C242.2 19 228.1 22.02 214.5 27.48L256 79.44L297.5 27.48C283.9 22.02 269.8 19 256 19ZM196.6 35.96C178.1 46.23 160.7 60.65 145.7 77.7C134.9 89.91 125.5 103.4 120.9 110.1L56.1001 197.2L115.2 280.2L95.9001 348L167.5 412.2L160.6 384.9L196.7 276.7L156 303.8L80.0201 197.5L122.3 141.2L219.7 189.9H292.4L389.8 141.2L432.1 197.5L356.1 303.8L315.3 276.6L316.3 279.8L351.5 384.9L344.6 412.2L416.1 348L396.7 280.2L455.9 197.2L391.1 110.1C386.5 103.4 377.1 89.91 366.3 77.7C351.3 60.65 333.9 46.23 315.4 35.96L256 110.2L196.6 35.96ZM211.7 292.4L206.7 307.4H305.3L300.3 292.4H211.7ZM200.2 326.6L183.9 375.7H328.1L311.7 326.6H200.2ZM182.9 394.9L195.2 444.1H316.8L329 394.9H182.9ZM216.5 463.3L256 493L295.5 463.3H216.5Z" fill="#444856"/>
</svg>
