<svg width="512" height="512" viewBox="0 0 512 512" fill="none" xmlns="http://www.w3.org/2000/svg">
<path d="M48.777 18C63.115 39.4 77.17 59.21 92.087 77.88C101.517 74.86 115.444 68.034 126.927 61.666C131.47 59.146 135.427 56.836 138.967 54.734C128.764 42.5469 118.631 30.302 108.567 18H48.777ZM131.844 18C143.462 32.1045 155.178 46.1275 166.992 60.068C169.892 63.488 172.82 66.924 175.764 70.365C197.184 62.457 216.702 59.485 234.634 60C253.49 60.54 270.599 64.92 286.346 71.432C307.928 80.355 327.136 92.88 346.004 104.684C328.889 76.594 301.984 48.426 273.439 25.932C270.008 23.228 266.53 20.5836 263.007 18H131.844ZM150.717 68.688C145.747 71.68 140.727 74.5864 135.657 77.406C125.861 82.839 114.747 88.672 104.314 92.691C107.073 95.925 109.869 99.1262 112.704 102.294C131.394 96.384 145.266 88.054 159.662 79.228C157.52 76.718 155.38 74.208 153.264 71.712C152.397 70.69 151.579 69.708 150.717 68.69V68.688ZM229.379 77.713C216.857 77.875 203.353 80.087 188.389 85.013C203.282 102.183 218.259 119.003 232.104 133.785C250.984 153.945 268.114 170.458 278.844 178.385L304.64 160.585L350.777 128.752C326.327 114.339 303.779 98.117 279.469 88.066C263.876 81.62 247.677 77.476 229.379 77.713ZM171.546 93.066C158.136 101.316 144.181 109.984 126.13 116.696C156.19 147.746 191.724 176.399 239.457 205.561H239.459L262.896 189.391L263.266 189.134C250.923 179.219 235.846 164.114 218.968 146.091C203.882 129.985 187.596 111.641 171.545 93.067L171.546 93.066ZM363.774 141.652L263.188 211.06L376.902 229.76L385.705 192.81L363.775 141.652H363.774ZM250.737 227.252C229.404 243.58 216.582 262.542 207.887 282.172C198.245 303.935 193.225 326.328 185.864 348.062C190.393 346.503 195.15 345.707 199.94 345.709C201.82 345.709 203.67 345.839 205.492 346.073C211.898 326.023 216.648 306.837 224.346 289.463C232.152 271.84 242.664 255.933 261.369 241.693C270.427 260.407 289.431 273.469 311.421 273.966C300.118 284.463 288.788 294.931 277.431 305.37C257.861 323.35 238.076 341.327 222.829 354.744C218.623 358.453 214.382 362.124 210.109 365.756C207.082 364.45 203.647 363.709 199.939 363.709C186.719 363.709 176.939 373.136 176.939 383.999C176.939 394.862 186.719 404.289 199.939 404.289C213.161 404.289 222.939 394.862 222.939 383.999C222.939 382.307 222.704 380.649 222.253 379.056C226.44 375.492 230.595 371.892 234.72 368.256C250.155 354.672 269.99 336.65 289.61 318.628C328.848 282.583 367.203 246.558 367.203 246.558L367.029 246.375L342.429 242.328C335.293 250.705 324.661 255.998 312.714 255.998C296.197 255.998 282.189 245.888 276.474 231.482L250.737 227.25V227.252ZM165.64 404.93L143.46 435.04L86.025 447.992L68.02 487H140.992C148.852 463.51 161.232 438.137 179.902 417.354C174.178 414.34 169.268 410.078 165.642 404.93H165.64ZM224.443 414.646C217.603 419.42 209.165 422.236 200.183 422.286C181.61 440.043 168.503 464.038 160.078 487H281.303C283.343 479.286 282.54 472.482 280.059 465.205C277.631 458.09 273.325 450.72 268.309 443.085C258.119 442.535 248.214 441.867 238.845 440.959L233.025 440.394L224.442 414.644L224.443 414.646ZM290.093 444.104C292.823 448.959 295.263 454.018 297.096 459.396C299.981 467.859 301.188 477.24 299.594 487H406.714V454.873C392.627 451.438 375.754 449.006 357.576 447.547C335.986 445.814 312.736 445.049 290.094 444.104H290.093ZM424.715 463.894V487H463.223L424.715 463.894Z" fill="#444856"/>
</svg>
