<svg width="512" height="512" viewBox="0 0 512 512" fill="none" xmlns="http://www.w3.org/2000/svg">
<path d="M301.4 51.9601C254.8 52.0601 216.1 70.1201 196.2 102.8C183 124.6 179.4 152.2 187 180.8C189 188.4 191.8 196.1 195.4 203.9C196.5 202.6 197.7 201.3 199 200C206.8 192.2 215.8 186.4 225.4 182.5C223.9 178.7 222.7 175.1 221.8 171.6C216.3 150.9 219.1 134.6 227 121.5C242.9 95.3401 284.6 79.0901 341.7 93.0101L350.3 58.0301C333.4 53.9201 317 51.9401 301.4 51.9601ZM454 161.7L419 170.3C432.9 227.4 416.7 269.1 390.5 285C377.4 292.9 361.1 295.7 340.4 290.2C336.9 289.3 333.3 288.1 329.7 286.7C325.8 296.3 319.9 305.3 312.1 313.1C310.8 314.4 309.6 315.6 308.2 316.7C316 320.2 323.6 323 331.2 325C359.8 332.6 387.4 329 409.2 315.8C452.8 289.3 470.5 229.2 454 161.7ZM255.6 194.5C239.7 194.5 223.8 200.5 211.7 212.7C187.4 237 187.5 276.1 211.7 300.4C236 324.6 275.1 324.6 299.4 300.4C323.7 276.1 323.6 237 299.4 212.7C287.3 200.5 271.4 194.5 255.6 194.5ZM255.6 215.6C266.1 215.6 276.6 219.6 284.5 227.5C300.5 243.4 300.5 269.6 284.6 285.5C268.6 301.5 242.5 301.4 226.6 285.5C210.7 269.6 210.6 243.5 226.6 227.5C234.5 219.5 245.1 215.6 255.6 215.6ZM255.6 233.5C249.7 233.5 243.9 235.8 239.3 240.3C230.2 249.3 230.2 263.7 239.3 272.8C248.3 281.8 262.8 281.8 271.8 272.8C280.9 263.7 280.9 249.3 271.8 240.3C267.3 235.8 261.5 233.5 255.6 233.5ZM175.6 258.6L121.1 313.1L164.8 356.8L199 390.9L253.4 336.4C233.6 335.9 214 328.1 199 313.1C183.9 298 176.1 278.4 175.6 258.6ZM63.41 313.2L71.52 353.8L158.2 440.5L198.8 448.6L190.7 408L104 321.4L63.41 313.2ZM18.1 358.5L26.23 399.2L112.8 485.8L153.5 493.9L145.4 453.3L58.81 366.6L18.1 358.5ZM18 416.4V481.2L50.45 448.8L18 416.4ZM63.2 461.6L30.8 494H95.58L63.2 461.6Z" fill="#444856"/>
</svg>
