<svg width="512" height="512" viewBox="0 0 512 512" fill="none" xmlns="http://www.w3.org/2000/svg">
<path d="M139.625 23.563C138.045 23.571 136.478 23.615 134.905 23.688L306.655 281.781H452.905C468.255 264.875 480.78 246.518 488.595 225.221H391.719C384.402 243.391 366.583 256.314 345.874 256.314C318.701 256.314 296.499 234.081 296.499 206.907C296.499 195.471 300.449 184.929 307.029 176.532L257.874 98.877C257.844 98.93 257.811 98.98 257.78 99.033C256.608 97.0115 255.4 95.0112 254.156 93.033C224.05 44.947 180.876 23.339 139.626 23.565L139.625 23.563ZM368.281 26.219C332.417 26.547 295.633 44.275 267.501 83.874H471.626C447.147 47.133 408.293 25.85 368.28 26.22L368.281 26.219ZM114.314 26.469C102.819 29.093 91.7342 33.476 81.4382 39.469C92.1102 48.549 98.9082 62.069 98.9082 77.093C98.9082 89.813 94.0352 101.443 86.0642 110.218L129.251 177.528H214.845L114.314 26.469ZM49.5002 46.374C32.4262 46.374 18.7802 60.019 18.7802 77.094C18.7802 94.167 32.4262 107.78 49.5002 107.78C66.5742 107.78 80.2202 94.168 80.2202 77.094C80.2202 60.02 66.5742 46.374 49.5002 46.374ZM282.344 102.562L321.314 164.092C328.777 159.77 337.25 157.495 345.874 157.499C372.924 157.499 395.077 179.529 395.281 206.529H494.031C496.606 194.722 497.788 182.039 497.376 168.279C496.641 143.724 491.139 121.619 482.156 102.561H282.346L282.344 102.562ZM22.8742 118.624C18.8542 133.644 16.8892 150.244 17.4382 168.28C17.5332 171.423 17.7312 174.495 18.0002 177.53H107.063L71.0932 121.47C64.3719 124.764 56.9853 126.475 49.5002 126.47C39.7102 126.47 30.5742 123.583 22.8752 118.625L22.8742 118.624ZM345.874 176.187C328.801 176.187 315.187 189.831 315.187 206.905C315.187 223.979 328.801 237.625 345.875 237.625C362.949 237.625 376.595 223.979 376.595 206.905C376.595 189.831 362.949 176.185 345.875 176.185L345.874 176.187ZM20.8442 196.217C24.5372 213.155 31.0312 228.42 39.5942 242.562H196.562L199.312 246.905L276.97 369.53L286.062 383.875H212.22C210.838 390.724 208.015 397.2 203.938 402.875C226.102 427.437 245.273 455.448 257.781 489.625C292.937 398.681 375.913 354.753 434.345 300.469H296.625L293.845 296.279L227.251 196.219H20.8442V196.217ZM52.5002 261.25C73.6932 288.48 102.296 312.014 131.813 336.563C140.446 329.209 151.621 324.75 163.781 324.75C187.897 324.75 208.129 342.254 212.376 365.188H252.096L186.28 261.25H52.5002ZM163.78 343.438C146.707 343.438 133.062 357.082 133.062 374.156C133.062 391.23 146.707 404.876 163.782 404.876C180.855 404.876 194.469 391.23 194.469 374.156C194.469 357.082 180.854 343.436 163.779 343.436L163.78 343.438Z" fill="#444856"/>
</svg>
