<svg width="512" height="512" viewBox="0 0 512 512" fill="none" xmlns="http://www.w3.org/2000/svg">
<path d="M311.4 32.8198C279.9 53.5798 259 89.2898 259 129.8C259 169.7 279.3 205 310.1 225.9L318.2 209.7C293.2 191.9 277 162.8 277 129.8C277 96.2098 293.8 66.6298 319.5 48.9798L311.4 32.8198ZM438.6 32.8198L430.5 48.9798C456.2 66.6298 473 96.2098 473 129.8C473 162.8 456.8 191.9 431.8 209.7L439.9 225.9C470.7 205 491 169.7 491 129.8C491 89.2898 470.1 53.5798 438.6 32.8198ZM328.6 67.1698C309.4 81.4098 297 104.2 297 129.8C297 154.8 308.9 177.1 327.3 191.4L335.5 175C322.9 164 315 147.9 315 129.8C315 111.1 323.5 94.4998 336.8 83.5098L328.6 67.1698ZM421.4 67.1698L413.2 83.5098C426.5 94.4998 435 111.1 435 129.8C435 147.9 427.1 164 414.5 175L422.7 191.4C441.1 177.1 453 154.8 453 129.8C453 104.2 440.6 81.4098 421.4 67.1698ZM346.1 102.2C339.2 109.4 334.9 119.1 334.9 129.8C334.9 139.9 338.7 149.1 344.9 156.2L354.3 137.5C353.4 135.1 352.9 132.5 352.9 129.8C352.9 126.3 353.7 123.1 355.1 120.2L346.1 102.2ZM403.9 102.2L394.9 120.2C396.3 123.1 397.1 126.3 397.1 129.8C397.1 132.5 396.6 135.1 395.7 137.5L405.1 156.2C411.3 149.1 415.1 139.9 415.1 129.8C415.1 119.1 410.8 109.4 403.9 102.2ZM366 144V327H384V144H366ZM25 345V455H487V345H25ZM80 384C84.2435 384 88.3131 385.686 91.3137 388.686C94.3143 391.687 96 395.756 96 400C96 404.243 94.3143 408.313 91.3137 411.314C88.3131 414.314 84.2435 416 80 416C75.7565 416 71.6869 414.314 68.6863 411.314C65.6857 408.313 64 404.243 64 400C64 395.756 65.6857 391.687 68.6863 388.686C71.6869 385.686 75.7565 384 80 384ZM128 384C132.243 384 136.313 385.686 139.314 388.686C142.314 391.687 144 395.756 144 400C144 404.243 142.314 408.313 139.314 411.314C136.313 414.314 132.243 416 128 416C123.757 416 119.687 414.314 116.686 411.314C113.686 408.313 112 404.243 112 400C112 395.756 113.686 391.687 116.686 388.686C119.687 385.686 123.757 384 128 384ZM176 384C180.243 384 184.313 385.686 187.314 388.686C190.314 391.687 192 395.756 192 400C192 404.243 190.314 408.313 187.314 411.314C184.313 414.314 180.243 416 176 416C171.757 416 167.687 414.314 164.686 411.314C161.686 408.313 160 404.243 160 400C160 395.756 161.686 391.687 164.686 388.686C167.687 385.686 171.757 384 176 384ZM73 473V489H119V473H73ZM393 473V489H439V473H393Z" fill="#444856"/>
</svg>
