<svg width="512" height="512" viewBox="0 0 512 512" fill="none" xmlns="http://www.w3.org/2000/svg">
<path d="M283.688 18.813C245.358 44.636 232.268 85.785 226.406 132.25L284.344 135.22C281.557 93 280.717 49.462 283.688 18.813ZM185.375 23.188C150.089 54.618 141.927 99.886 140.625 149.718L195.438 143.531C189.328 100.396 184.936 55.151 185.375 23.188ZM385.969 47.438C357.171 78.598 329.533 117.708 318.311 160.938L377.749 174.125C378.859 132.065 381.694 82.663 385.969 47.438ZM90.1548 65.06C59.8348 100.1 57.0728 144.955 61.8428 193.435L114.812 180C103.532 138.948 93.7658 96.034 90.1558 65.062L90.1548 65.06ZM229.97 151.19C224.62 189.43 223.04 230.695 225.47 267.783L269.375 263.473C273.229 263.093 276.995 262.848 280.655 262.753C278.52 224.493 276.561 188.865 276.031 153.533L229.97 151.19ZM191.875 162.72L147.281 167.783C146.506 205.199 149.061 243.668 154.063 274.815L202.688 270.035L191.876 162.722L191.875 162.72ZM322.563 181.033C315.556 208.156 310.203 237.121 306.781 264.753C324.245 268.073 338.581 275.337 349.657 285.723C352.483 288.374 355.115 291.224 357.532 294.253L367.44 191L322.565 181.03L322.563 181.033ZM112.78 199.813L71.9699 210.126C75.5039 236.74 81.4398 263.436 88.3748 286.689C93.4848 282.729 99.8048 280.149 106.719 279.469L132.124 276.969L112.78 199.813ZM490.94 262.72C480.7 288.724 460.17 304.834 429.408 325.812L462.158 372.812C493.488 342.154 502.771 305.369 490.938 262.719L490.94 262.72ZM282.47 281.375C278.888 281.443 275.134 281.677 271.22 282.063L108.564 298.063C103.644 298.547 100.644 300.183 97.8458 303.281C95.0488 306.381 92.6339 311.319 91.0659 318.031C87.9259 331.458 88.4778 351.435 92.1258 373.221C99.0878 414.781 117.006 463.197 134.44 491.907H164.94L138.375 330.25L156.813 327.22L183.875 491.906H216.313L206.281 322.126L224.938 321L235.063 491.906H266.626L275.97 319.75L294.656 320.78L285.376 491.906H325.219C348.941 456.816 365.507 400.206 360.905 355.312C358.523 332.068 350.765 312.398 336.875 299.375C324.72 287.98 307.545 280.899 282.468 281.375H282.47ZM418.096 342.219C405.651 347.899 392.592 352.241 379.596 354.874C381.578 376.014 379.749 398.546 374.971 420.468C400.401 411.918 424.265 397.672 443.688 378.998L418.095 342.218L418.096 342.219Z" fill="#444856"/>
</svg>
