<svg width="512" height="512" viewBox="0 0 512 512" fill="none" xmlns="http://www.w3.org/2000/svg">
<path d="M144 26.4302L76.9902 65.1002V142.5L97.0802 154.1L136.4 91.2302L151.6 100.8L112.7 163.1L144 181.2L211 142.5V131H301V142.5L368 181.2L399.3 163.1L360.4 100.8L375.6 91.2302L414.9 154.1L435 142.5V65.1302L368 26.4302L301 65.1002V77.0002H211V65.1302L144 26.4302ZM211 95.0002H301V113H211V95.0002ZM233 185V253.3L247 274.3V480H265V274.3L279 253.3V185H233ZM215.4 259.2L118 332.3L151.2 482L168.8 478L138 339.7L225.3 274.2L215.4 259.2ZM296.6 259.2L286.7 274.2L374 339.7L343.2 478L360.8 482L394 332.3L296.6 259.2Z" fill="#444856"/>
</svg>
