<svg width="512" height="512" viewBox="0 0 512 512" fill="none" xmlns="http://www.w3.org/2000/svg">
<path d="M147.72 22L135.72 208.063L136 206L156.47 225.28L216.53 229.5L153.812 247.03L134.125 232.844L119.28 462.72C153.47 500.288 365.31 508.728 412.063 463.72L422.156 307.375L421.656 308.031L315.376 336.751L424.031 278.157L439.345 40.845C438.929 40.893 438.511 40.922 438.095 40.97L420.251 28.97C342.784 48 262.702 41.085 162.062 26.5C157.255 25.0846 152.473 23.5844 147.719 22H147.72ZM182.875 87.875L192.905 89.405C264.175 100.333 335.825 102.313 408.345 91.095L419.905 89.281L419.095 100.971L412.937 188.845L412.469 195.565L405.936 197.251C330.35 216.621 255.71 216.297 182.749 195.501L175.469 193.407L175.999 185.845L182.155 97.97L182.875 87.875ZM200.125 109.25L195.187 179.344C211.749 183.736 228.362 187.039 245.062 189.25L200.782 109.344C200.562 109.314 200.344 109.281 200.125 109.25ZM399.625 111.094C377.609 114.092 355.687 115.901 333.845 116.688L371.937 185.5C379.582 184.073 387.189 182.447 394.75 180.625L399.625 111.094ZM223.75 112.25L267.688 191.563C276.528 192.213 285.396 192.578 294.281 192.625L251.189 114.875C242.029 114.158 232.881 113.283 223.751 112.25H223.75ZM212.406 293.906C217.478 305.766 227.159 307.226 237.531 307.156C228.887 324.314 237.541 326.698 250.626 338.406C228.153 332.904 213.734 338.686 201.188 360.562C200.845 342.47 194.342 324.698 167.688 314.75C189.798 315.946 210.078 311.627 212.408 293.906H212.406ZM282.781 342.436C289.144 359.113 303.621 362.353 319.721 353.376C311.074 370.531 310.136 383.476 323.221 395.188C300.747 389.686 290.927 388.038 282.438 404.125C282.095 386.031 267.656 379.699 248.126 375.095C268.106 370.532 281.132 362.847 282.782 342.437L282.781 342.436ZM371.251 412.719C371.595 430.812 372.191 438.079 390.501 444.999C373.551 443.504 361.124 449.879 356.438 464.469C351.365 452.606 341.688 451.149 331.313 451.219C334.113 442.409 336.053 432.209 328.095 420.999C345.585 424.447 359.522 421.679 371.251 412.719Z" fill="#444856"/>
</svg>
