<svg width="512" height="512" viewBox="0 0 512 512" fill="none" xmlns="http://www.w3.org/2000/svg">
<path d="M472.7 22.7998L434.2 67.7098L448 84.2398L496 49.5898L472.7 22.7998ZM422.3 77.8498L312.2 178.7L286.9 186.8L220.6 256.4L243.4 281.1L312.7 215.7L325.6 194.2L435.7 93.2698L422.3 77.8498ZM413.6 150.5L393.7 176.1L404 189.5L430.6 169.9L413.6 150.5ZM381.2 187.6L312.7 249.9L296.7 253.5L254.6 292.7L275.3 315L318.9 275.5L325.3 261.7L390.5 199.3L381.2 187.6ZM135.4 254.9C108.8 255.2 83.34 280.7 83.07 307.3C82.74 325.1 92.15 341.7 107.6 350.6L131.2 343C113.2 340.9 99.61 325.5 99.81 307.3C99.81 287.6 115.7 271.6 135.4 271.6C145.4 271.4 154.9 275.4 161.8 282.6V265.6C153.8 260.9 144.7 254.6 135.4 254.9ZM179.9 263.1V341.6L120.5 365V388.5H265.5V333.3L200.1 263.1H179.9ZM87.51 407.2L44.22 450.2H57.69L69.23 458.2L104.8 430.9H212.4L223.9 450.2H245L251.1 430.9H274.5L371.8 459.1L381.4 450.2H397.4L290.9 407.2H87.51ZM36.83 467.1L15.98 489.2H78.53L57.69 467.1H36.83ZM223.9 467.1L203 489.2H265.9L245 467.1H223.9ZM384.6 467.1L365.3 489.2H426.3L407 467.1H384.6Z" fill="#444856"/>
</svg>
