<svg width="512" height="512" viewBox="0 0 512 512" fill="none" xmlns="http://www.w3.org/2000/svg">
<path d="M217 25V57.512L256 70.514L295 57.512V25H217ZM217 76.488V77.275L244.816 119H267.184L295 77.275V76.488L256 89.486L217 76.488ZM215.96 108.166L161.715 126.25L152.205 164.283L167.915 203.553L217 269V293H295V269L344.086 203.553L359.795 164.283L350.285 126.25L296.039 108.166L276.816 137H235.184L215.961 108.166H215.96ZM146.523 112.801L103.359 134.383L81.8218 199H124.972L146.523 112.801ZM365.477 112.801L387.027 199H430.177L408.641 134.383L365.477 112.801ZM247 160H265V212.473L317.816 199.27L322.184 216.73L256 233.277L189.816 216.73L194.184 199.27L247 212.473V160ZM87.6638 217L115.986 303.287L134.23 285.041L120.621 217H87.6638ZM391.379 217L377.769 285.041L396.014 303.287L424.336 217H391.379ZM199 286.563L152.46 309.832L146.96 364.834L175.309 374.284L199 362.437V286.563ZM313 286.563V362.438L336.691 374.283L365.039 364.834L359.539 309.832L313 286.563ZM217 311V327H295V311H217ZM199 382.563L176.691 393.717L145.125 383.195L138.432 450.133L199 425.906V382.563ZM313 382.563V425.906L373.568 450.133L366.875 383.195L335.309 393.717L313 382.563ZM201.77 444.183L134.52 471.086L126.562 487H212.472L201.77 444.183ZM310.23 444.183L299.527 487H385.437L377.48 471.086L310.23 444.183Z" fill="#444856"/>
</svg>
