<svg width="512" height="512" viewBox="0 0 512 512" fill="none" xmlns="http://www.w3.org/2000/svg">
<path d="M163.2 33.1001L113.6 66.1401L27.29 389.9L388.6 478.9L484.7 122.9L418.4 104.4L393.9 195.8L288.9 167.7L274.2 222.9C289.4 232.6 296.5 251.1 291.9 268.5C286 290.7 263.2 303.8 241.1 297.9C219 292 205.9 269.2 211.8 247.1C216.5 229.5 232 217 250.2 216.3C252.3 216.2 254.5 216.3 256.6 216.6L270.9 162.8L155.9 132L158.3 123L181.1 38.0901L163.2 33.1001ZM198.1 40.8801L178.7 118.8L380.8 172.9L400.2 95.0301L198.1 40.8801ZM70.32 331.6L382.4 406.3L378 424.5L65.96 349.8L70.32 331.6Z" fill="#444856"/>
</svg>
