<svg width="512" height="512" viewBox="0 0 512 512" fill="none" xmlns="http://www.w3.org/2000/svg">
<path d="M231.2 109.4L246 124.3L125.6 244.6L110.8 229.7L231.2 109.4ZM205.6 192.6L223.4 194.1L204 213.6L186.1 212.1L205.6 192.6ZM336.7 109L357.8 113.5L374.2 97.0801L389.6 112.5C375.6 127.1 243.8 259.3 240.2 262.3L162.7 436.2C161.9 437.9 162.3 440 163.7 441.3L177.2 453.9C179 455.6 179.1 458.5 177.3 460.3L146.1 491.6C144.6 493.2 142.1 493.4 140.3 492.1L58.0999 434.7C43.6499 424.6 41.8399 403.9 54.2999 391.4L336.7 109ZM453.7 19.0801L466 31.2801L432.4 64.9801L430.3 62.8801L399.1 93.9801L390.7 85.4801L421.8 54.3801L420.1 52.6801L453.7 19.0801ZM293.9 236.3L304.2 246.6C299.2 251.2 292.3 258.7 292.2 264.2C293 275.4 303.5 308.8 313.8 312.7L319.7 306.7C331.4 294.9 330.7 288.6 329.9 282.4C328.2 267.6 321.9 231.8 318.3 211.8L329.7 200.4C332.5 215.8 341 262.8 343.1 280.9C344.2 290.4 344.1 300.9 329.2 316C317.9 327.4 308.8 336.5 298.4 346.9C298.4 346.9 263.8 319.8 266.1 288.3C266.7 280.6 260.2 275.3 256.5 274.4C268.7 261.6 281.4 248.8 293.9 236.3ZM380.7 153.1L432.6 204.9L417.8 219.8L365.9 167.9L380.7 153.1ZM222.1 351.6L286.4 387.6L259.3 435.9L199.4 402.4L222.1 351.6Z" fill="#444856"/>
</svg>
