<svg width="512" height="512" viewBox="0 0 512 512" fill="none" xmlns="http://www.w3.org/2000/svg">
<path d="M466.674 16.3398L435.78 47.2318L450.106 61.5578L481 30.6638L466.674 16.3398ZM34.418 445.184L80.995 491.761C82.4016 493.167 84.1051 494.24 85.9805 494.901C87.856 495.563 89.8558 495.796 91.8331 495.584C93.8105 495.372 95.7152 494.72 97.4076 493.675C99.0999 492.63 100.537 491.22 101.613 489.548L161.763 396.092L212.907 374.352C212.907 374.352 215.394 352.03 215.94 344.232C216.703 333.427 219.906 322.182 227.573 314.514L390.521 151.564C394.475 147.609 396.697 142.246 396.697 136.654C396.697 131.062 394.475 125.698 390.521 121.744L347.958 79.1798C346.332 77.5532 344.401 76.2629 342.275 75.3826C340.15 74.5023 337.872 74.0492 335.572 74.0492C333.272 74.0492 330.994 74.5023 328.869 75.3826C326.744 76.2629 324.813 77.5532 323.186 79.1798L152.316 250.05C151.319 251.047 150.528 252.23 149.988 253.533C149.449 254.836 149.171 256.232 149.171 257.642C149.171 259.052 149.449 260.448 149.988 261.751C150.528 263.053 151.319 264.237 152.316 265.234L175.091 288.009L34.427 428.675C33.3418 429.758 32.4806 431.044 31.8927 432.46C31.3049 433.876 31.0018 435.395 31.0009 436.928C30.9999 438.461 31.3012 439.979 31.8873 441.396C32.4735 442.813 33.3331 444.1 34.417 445.185L34.418 445.184ZM188.032 262.447C182.07 256.484 183.125 245.767 190.424 238.467L315.697 113.193C322.959 105.931 333.715 104.839 339.677 110.801L345.987 117.111L194.344 268.76L188.034 262.45L188.032 262.447ZM306.965 359.735L327.375 339.325L339.791 306.433L321.406 250.918L328.734 243.588L349.098 305.076C349.433 306.082 349.413 307.173 349.041 308.166L335.731 343.571C335.498 344.19 335.136 344.753 334.668 345.221L312.156 367.731C311.874 368.014 288.204 386.616 288.204 386.616C266.097 376.246 255.737 348.271 262.084 330.056C264.911 321.936 262.124 317.076 257.441 314.862L278.239 294.065L306.965 359.735ZM228.741 390.205L268.094 429.558L239.866 474.175L178.049 412.358L228.741 390.205ZM423.837 65.3748L431.967 73.5048L402.23 103.239L394.1 95.1108L423.808 65.4028L423.837 65.3748Z" fill="#444856"/>
</svg>
