<svg width="512" height="512" viewBox="0 0 512 512" fill="none" xmlns="http://www.w3.org/2000/svg">
<path d="M79.238 115.768L50.728 183.631H456.878L456.605 115.769H192.775V171.374H177.775V115.769H161.095V171.374H146.1V115.769H128.666V171.374H113.666V115.769L79.238 115.768ZM467.072 131.728V172.388H485.76V131.728H467.072ZM56.768 198.63L77.334 230.645L28.894 406.5L130.574 413.674L152.114 315.678H267.854L282.518 235.426L457.068 231.553L456.938 198.631H56.767L56.768 198.63ZM263.44 235.85L252.27 296.992H156.22L169.2 237.942L181.73 237.664L179.506 273.164L193.768 286.74L194.771 253.09L219.461 236.826L263.441 235.85H263.44Z" fill="#444856"/>
</svg>
