<svg width="512" height="512" viewBox="0 0 512 512" fill="none" xmlns="http://www.w3.org/2000/svg">
<path d="M493.2 17.0801C486.7 30.9301 462.5 48.3601 458.5 47.2201C452.8 45.6201 447 35.9301 451.4 24.6501C439 32.1101 432.3 47.5701 429.8 59.8801L447.6 83.0801C455.8 82.8401 468 81.7801 475.3 77.8701C489.7 70.1501 493.2 17.0801 493.2 17.0801ZM420.3 77.1101L383.8 105.1L392.4 116.2L428.8 88.1901L420.3 77.1101ZM453.4 96.9501L452.5 110.3L285 239L295.9 253.2L469.3 120.1L472.7 94.0201L453.4 96.9501ZM359.8 103.4L348.7 111.8L376.7 148.4L387.8 139.9L359.8 103.4ZM344.1 135.5L333 144.1L341.6 155.2L352.7 146.6L344.1 135.5ZM317.6 153.5L302.3 165.2L257.4 159.3L223.5 185.3L234.5 199.6L262.4 178.1L282.1 180.7L243 210.7C243 210.7 221.9 228.1 218 231L228.6 244.5L239.8 235.9L248.3 247L262.5 236.1L254 225L328.5 167.7L317.6 153.5ZM210.5 197.8L199.4 206.4L207.9 217.5L219 208.9L210.5 197.8ZM159.5 202.1C154.8 202.3 150.4 203.7 147.4 206L141.8 210.3L155.8 228.5L141.6 239.5L127.6 221.2L103.8 239.5L117.7 257.7L103.5 268.7L89.4401 250.4L83.8801 254.7C79.9301 257.8 76.8201 263.6 75.9801 270.1C75.1301 276.5 76.6201 283.1 79.6601 287L96.8801 309.4L112 311.4L203.4 241.1L179.7 210.2C176.6 206.2 170.7 203.1 164.3 202.3C163.1 202.2 161.9 202.1 160.7 202.1H159.5ZM271.9 251.5L218.4 292.6L218.8 298.7L273.6 288.1L290.2 275.3L271.9 251.5ZM198.6 267.5L170 289.5L173.3 336.7L203.3 334.2L198.6 267.5ZM383.2 267.5C371.7 267.5 360.2 274.5 360.2 294.5V333.5H406.2V294.5C406.2 274.5 394.7 267.5 383.2 267.5ZM447.2 267.5C435.7 267.5 424.2 274.5 424.2 294.5V333.5H470.2V294.5C470.2 274.5 458.7 267.5 447.2 267.5ZM343.3 283.6C323.4 289.4 303.8 297.4 290.8 309.8C278.7 321.3 273.2 337.8 270 355C266.9 372.3 266 390.8 264.8 407.6C263.5 424.4 261.5 439.6 257.5 449C255.5 453.6 253.1 456.7 250.5 458.7C247.9 460.6 244.7 461.7 239.5 461.5C229.8 461.2 222.7 454.4 216.3 440.9C209.9 427.3 205.7 408 203.2 388.7C201.6 376.2 200.8 363.7 200.3 352.5L182.4 354C182.8 365.4 183.8 378.1 185.4 390.9C188 411.3 192.2 431.9 200.1 448.5C207.9 465.1 220.7 478.9 238.9 479.5C247.4 479.8 255.1 477.6 261.1 473.2C267.1 468.9 271.2 462.8 274 456C279.8 442.6 281.4 426.2 282.7 409C284 391.8 284.9 373.8 287.7 358.3C290.6 342.8 295.4 330.2 303.2 322.8C311 315.4 325.9 308.5 342.2 303V294.5C342.2 290.6 342.6 287 343.3 283.6ZM152.9 302.7L117 330.2L101.3 328.1L96.4801 364.6L18.8301 423.9C18.6201 433 21.4701 447.9 28.0701 462C34.2501 475.1 43.3601 487.3 54.2501 494.9L106.5 418.2L112.7 370.8L155.4 338.1L152.9 302.7ZM344.2 351.5V365.5H486.2V351.5H344.2ZM360.2 383.5V493.5H406.2V447.5H374.2V383.5H360.2ZM392.2 383.5V429.5H438.2V383.5H392.2ZM456.2 383.5V447.5H424.2V493.5H470.2V383.5H456.2Z" fill="#444856"/>
</svg>
