<svg width="512" height="512" viewBox="0 0 512 512" fill="none" xmlns="http://www.w3.org/2000/svg">
<path d="M269 23.9502L181.3 24.0502C182.4 85.4502 178.9 140.1 167.3 183.5C158.3 217.5 143.7 245.1 122.1 262.5C122 272 121.3 281.5 120 291.1C116.9 314 106.5 334.3 97.2498 356.1C120.8 354.8 140.8 344.5 162.6 331.3C183.2 318.8 205 303.8 231.5 293.5C231.3 292.1 231.1 290.6 231.1 289.3C229.2 265.6 231.2 237.1 235.2 206.1C243 147.6 257.9 81.0502 269 23.9502ZM163.3 24.0502H80.6498C79.0498 60.5502 90.7498 100.2 102.3 143.2C110.6 173.6 118.8 205.5 121.3 238.9C133.9 224.6 143.1 204.5 149.9 178.9C160.7 138.3 164.3 84.7502 163.3 24.0502ZM205.1 38.9502C205.133 38.95 205.166 38.95 205.2 38.9502C207.587 38.9502 209.876 39.8984 211.564 41.5862C213.252 43.2741 214.2 45.5632 214.2 47.9502C214.2 50.3371 213.252 52.6263 211.564 54.3142C209.876 56.002 207.587 56.9502 205.2 56.9502C202.813 56.9502 200.524 56.002 198.836 54.3142C197.148 52.6263 196.2 50.3371 196.2 47.9502C196.2 45.5805 197.134 43.3063 198.8 41.6213C200.467 39.9363 202.73 38.9765 205.1 38.9502ZM202.7 91.4502C202.733 91.45 202.766 91.45 202.8 91.4502C205.178 91.4502 207.46 92.3915 209.146 94.0685C210.833 95.7456 211.787 98.0219 211.8 100.4C211.8 102.787 210.852 105.076 209.164 106.764C207.476 108.452 205.187 109.4 202.8 109.4C200.413 109.4 198.124 108.452 196.436 106.764C194.748 105.076 193.8 102.787 193.8 100.4C193.813 98.0391 194.753 95.7777 196.418 94.1035C198.083 92.4293 200.339 91.4764 202.7 91.4502ZM196.8 147.7C196.833 147.7 196.866 147.7 196.9 147.7C199.287 147.7 201.576 148.648 203.264 150.336C204.952 152.024 205.9 154.313 205.9 156.7C205.9 159.087 204.952 161.376 203.264 163.064C201.576 164.752 199.287 165.7 196.9 165.7C194.513 165.7 192.224 164.752 190.536 163.064C188.848 161.376 187.9 159.087 187.9 156.7C187.9 154.33 188.834 152.056 190.5 150.371C192.167 148.686 194.43 147.727 196.8 147.7ZM180.8 208.3C180.833 208.3 180.866 208.3 180.9 208.3C183.287 208.3 185.576 209.248 187.264 210.936C188.952 212.624 189.9 214.913 189.9 217.3C189.9 219.687 188.952 221.976 187.264 223.664C185.576 225.352 183.287 226.3 180.9 226.3C178.513 226.3 176.224 225.352 174.536 223.664C172.848 221.976 171.9 219.687 171.9 217.3C171.9 214.93 172.834 212.656 174.5 210.971C176.167 209.286 178.43 208.327 180.8 208.3ZM148.8 256.4C148.833 256.4 148.866 256.4 148.9 256.4C151.287 256.4 153.576 257.348 155.264 259.036C156.952 260.724 157.9 263.013 157.9 265.4C157.9 267.787 156.952 270.076 155.264 271.764C153.576 273.452 151.287 274.4 148.9 274.4C146.513 274.4 144.224 273.452 142.536 271.764C140.848 270.076 139.9 267.787 139.9 265.4C139.9 263.03 140.834 260.756 142.5 259.071C144.167 257.386 146.43 256.427 148.8 256.4ZM234.5 311.7C211.9 321.3 192.2 334.6 171.9 346.7C147.3 361.6 121.4 374.6 90.0498 374.2C81.8498 396.9 76.2498 422.2 80.0498 454.1H162.4C175.6 412.7 205.3 376.1 257.5 347.3C256.1 346.3 254.6 345.2 253.2 344.1C243.6 336.5 237.9 325.3 234.5 311.7ZM274.7 358.4C222.6 384.6 194.3 416.9 181.1 454.1H308.5C308.5 439.8 309.1 425.1 312.4 410.5C315 399 319.4 387.6 326.4 376.6C310.3 373.3 292.9 368.5 274.7 358.4ZM345.5 380.2C337.3 391.1 332.7 402.5 330 414.5C327.2 427 326.5 440.3 326.5 454.1H430.5C428.5 436.3 418 414.3 402.4 402C384.6 388.1 366.4 384.1 345.5 380.2ZM353.8 390.7C356.187 390.7 358.476 391.648 360.164 393.336C361.852 395.024 362.8 397.313 362.8 399.7C362.8 402.087 361.852 404.376 360.164 406.064C358.476 407.752 356.187 408.7 353.8 408.7C351.413 408.7 349.124 407.752 347.436 406.064C345.748 404.376 344.8 402.087 344.8 399.7C344.8 397.313 345.748 395.024 347.436 393.336C349.124 391.648 351.413 390.7 353.8 390.7ZM99.7498 425.7C99.7831 425.7 99.8165 425.7 99.8498 425.7C102.228 425.713 104.504 426.667 106.181 428.354C107.858 430.04 108.8 432.322 108.8 434.7C108.8 437.079 107.858 439.36 106.181 441.047C104.504 442.733 102.228 443.687 99.8498 443.7C97.4629 443.7 95.1737 442.752 93.4858 441.064C91.798 439.376 90.8498 437.087 90.8498 434.7C90.8497 432.33 91.7841 430.056 93.4504 428.371C95.1166 426.686 97.3802 425.727 99.7498 425.7ZM144.6 426.3C144.633 426.3 144.666 426.3 144.7 426.3C147.087 426.3 149.376 427.248 151.064 428.936C152.752 430.624 153.7 432.913 153.7 435.3C153.7 437.687 152.752 439.976 151.064 441.664C149.376 443.352 147.087 444.3 144.7 444.3C142.313 444.3 140.024 443.352 138.336 441.664C136.648 439.976 135.7 437.687 135.7 435.3C135.7 432.93 136.634 430.656 138.3 428.971C139.967 427.286 142.23 426.327 144.6 426.3ZM346.1 426.4C348.487 426.4 350.776 427.348 352.464 429.036C354.152 430.724 355.1 433.013 355.1 435.4C355.1 437.787 354.152 440.076 352.464 441.764C350.776 443.452 348.487 444.4 346.1 444.4C343.713 444.4 341.424 443.452 339.736 441.764C338.048 440.076 337.1 437.787 337.1 435.4C337.1 433.013 338.048 430.724 339.736 429.036C341.424 427.348 343.713 426.4 346.1 426.4ZM72.0498 470V488.1H440V470H72.0498Z" fill="#444856"/>
</svg>
