<svg width="512" height="512" viewBox="0 0 512 512" fill="none" xmlns="http://www.w3.org/2000/svg">
<path d="M258.78 48.375C256.999 48.4386 255.218 48.5119 253.438 48.595L240.406 52.063L256.47 112L214.937 117.156L198.03 54.03C177.88 57.025 157.735 61.115 138.22 66.344C115.13 72.53 94.5221 82.558 77.4051 95.03C70.5961 84.966 57.9301 79.804 45.5301 83.126C29.8901 87.316 20.6221 103.392 24.8121 119.032C26.9041 126.839 31.9571 133.06 38.4371 136.814C25.1031 159.154 20.5411 183.45 26.7501 206.627C34.1741 234.337 55.7321 255.739 85.8441 267.971C90.6231 269.906 95.5056 271.575 100.469 272.971C28.6561 357.077 19.1591 524.315 163.374 489.595C154.198 486.172 146.758 478.525 144.03 468.345C139.555 451.639 149.468 434.48 166.156 429.97C161.242 425.852 157.718 420.319 156.062 414.125C152.252 399.903 158.872 385.328 171.219 378.531C167.661 374.839 164.982 370.211 163.562 364.907C159.802 350.872 166.184 336.533 178.218 329.627L178.342 328.095C172.31 324.017 167.655 317.835 165.622 310.251C161.976 296.641 167.878 282.721 179.217 275.595C183.927 274.705 188.66 273.647 193.403 272.375C193.797 272.271 194.197 272.139 194.591 272.032C195.631 271.752 196.674 271.448 197.716 271.158C206.722 318.651 233.774 339.772 257.184 324.128C235.514 305.118 228.104 283.7 227.434 261.846C235.461 259.064 243.422 256.095 251.309 252.94L231.684 179.658L270.621 164.783L289.059 233.628L299.809 230.753C302.109 229.563 304.417 228.373 306.684 227.159L288.152 158.097L327.122 143.222L342.715 201.44L353.525 198.565C355.719 197.036 357.897 195.483 360.058 193.908L344.688 136.5L382.156 122.187L393.656 165.125L394.156 165C399.614 159.51 404.459 154.05 408.594 148.687L399.72 115.5L412 110.812L427.875 106.562C435.152 120.966 451.619 128.7 467.875 124.344C486.535 119.344 497.468 100.408 492.469 81.75C488.093 65.425 473.067 54.998 456.874 56C454.561 56.143 452.206 56.53 449.874 57.156C435.102 61.114 425.171 73.813 424.154 88.188L403.404 93.75L394.187 94.906L386.249 65.219C380.399 62.779 373.985 60.572 367.061 58.624L365.249 59.094L375.469 97.249L335.499 102.187L321.593 50.249C319.695 50.049 317.773 49.859 315.843 49.686L303 53.094L316.78 104.531L275.188 109.657L258.781 48.377L258.78 48.375Z" fill="#444856"/>
</svg>
