<svg width="512" height="512" viewBox="0 0 512 512" fill="none" xmlns="http://www.w3.org/2000/svg">
<path d="M306.875 18.2198C306.405 18.2178 305.94 18.2338 305.469 18.2498C305.311 18.2548 305.156 18.2738 304.999 18.2798C303.397 18.3333 301.8 18.4903 300.219 18.7498C296.609 19.3468 293.209 20.4498 290.061 21.9698L49.5949 120.062C48.6769 120.482 47.7869 120.939 46.9069 121.405C46.3089 121.723 45.7069 122.035 45.1269 122.375C31.4299 130.045 22.2089 144.211 20.9389 160.03C20.8809 160.665 20.8449 161.3 20.8139 161.937C20.4343 169.446 21.8594 176.936 24.9699 183.781C35.8779 207.839 64.4339 218.369 89.2199 207.188L89.3129 207.158L321.375 90.9678L321.531 90.8728L321.689 90.8098C341.374 81.8848 349.989 59.3738 341.345 40.3098C335.065 26.4598 321.425 18.2398 306.875 18.2168V18.2198ZM307.155 36.9378C316.079 37.2458 323.697 43.7078 325.219 52.9058C326.956 63.4158 320.011 73.1358 309.499 74.8758C298.987 76.6138 289.299 69.6658 287.561 59.1558C285.823 48.6458 292.769 38.9258 303.281 37.1878C304.594 36.9698 305.881 36.8928 307.155 36.9378ZM354 86.6558C348.238 95.5098 339.994 102.923 329.72 107.656C329.612 107.706 329.514 107.764 329.406 107.812L312.936 116.062L370.469 213.969C377.559 202.201 390.106 194.862 403.529 194.124C405.119 194.037 406.709 194.054 408.312 194.154L354 86.6558ZM67.9059 135.03C68.3899 135.025 68.8659 135.045 69.3439 135.062C82.7369 135.54 94.2199 145.279 96.4999 159.062C99.1059 174.812 88.6269 189.488 72.8749 192.094C57.1229 194.7 42.4489 184.188 39.8449 168.438C37.2379 152.688 47.7479 138.043 63.4999 135.438C64.9563 135.192 66.4291 135.056 67.9059 135.031V135.03ZM128.094 208.625L111.281 217.063L119.095 238.688L68.3149 230.468L68.2509 230.281C61.0318 230.216 53.8689 229.004 47.0309 226.688L106.531 390.032L106.126 390.815L106.876 391.002L123.782 437.408C128.394 432.618 133.486 428.283 139.002 424.533L128.722 396.316L180.346 408.878H180.376C184.338 408.374 188.376 408.098 192.471 408.098C195.126 408.098 197.743 408.226 200.345 408.44L128.095 208.628L128.094 208.625ZM405.531 212.719C405.166 212.719 404.801 212.731 404.439 212.749C395.719 213.183 387.779 218.732 384.595 227.529C380.351 239.262 386.301 251.943 398.032 256.186C409.765 260.43 422.477 254.481 426.722 242.749C430.965 231.015 425.015 218.337 413.282 214.093C410.798 213.187 408.176 212.721 405.532 212.718L405.531 212.719ZM444.689 222.529C447.417 230.924 447.495 240.243 444.282 249.124C443.822 250.378 443.301 251.608 442.722 252.812L470.658 257.812L466.283 309.062L446.878 320.624L456.441 336.687L479.971 322.655L484.097 320.218L484.503 315.435L490.816 241.498L491.753 230.718L489.723 230.842L444.69 222.529H444.689ZM364.595 234.905L320.595 261.685L320.501 261.718V261.748L320.438 261.778L320.595 261.936L325.065 271.436L356.563 338.623L358.595 342.967L363.315 343.841L390.22 348.841L393.656 330.466L371.436 326.34L349.969 280.527L376.811 264.341C369.041 256.603 364.563 245.948 364.593 234.903L364.595 234.905ZM75.6559 250.594L110.812 256.281L92.2189 296.126L75.6549 250.596L75.6559 250.594ZM128.062 263.5L146.406 314.28L108.594 305.22L128.064 263.5H128.062ZM101.969 322.844L137.279 331.314L118.249 367.624L101.969 322.844ZM154.937 337.874L173.03 387.844L133.75 378.314L154.938 337.874H154.937ZM192.467 426.781C153.177 426.781 120.992 456.106 116.405 494.126H138.905C143.365 468.626 165.735 449.096 192.468 449.096C219.198 449.096 241.542 468.626 245.998 494.126H268.498C263.911 456.106 231.758 426.782 192.468 426.782L192.467 426.781ZM192.467 467.781C175.912 467.781 162.247 478.926 158.155 494.126H226.749C222.657 478.926 209.024 467.782 192.469 467.782L192.467 467.781Z" fill="#444856"/>
</svg>
