<svg width="512" height="512" viewBox="0 0 512 512" fill="none" xmlns="http://www.w3.org/2000/svg">
<path d="M324.563 39.1559C323.406 39.1748 322.254 39.3111 321.125 39.5629C311.902 41.6599 306.121 50.8379 308.219 60.0629C308.225 60.0949 308.241 60.1229 308.249 60.1559L285.436 88.3439L282.186 92.3439L283.874 97.2499L297.78 137.813L155.125 161.843C167.468 171.888 175.105 187.398 174.405 204.438C174.26 207.959 173.757 211.456 172.905 214.875L303.437 161.437L303.312 160.469C309.242 168.264 319.224 172.474 329.687 170.593C344.597 167.913 354.371 153.91 351.75 139.093C349.456 126.126 338.502 117.073 325.812 116.813C324 116.773 322.176 116.913 320.312 117.249C317.139 117.819 314.202 118.909 311.562 120.405L303.219 96.0609L321.811 73.0929C324.031 73.5029 326.377 73.4999 328.718 72.9679C337.941 70.8679 343.721 61.6909 341.623 52.4679C339.788 44.3979 332.525 38.9809 324.56 39.1539L324.563 39.1559ZM439.563 68.1879C438.286 68.2279 437.003 68.4059 435.719 68.7499C431.694 69.8263 428.203 72.3387 425.905 75.8129L387.218 69.6869L383.248 69.0629L380.06 71.4999L341.404 101.188C347.634 103.578 353.273 107.287 357.934 112.062L388.248 88.7819L425.904 94.7499C429.858 100.725 437.29 103.8 444.592 101.844C453.73 99.3939 459.134 90.0139 456.686 80.8739C454.696 73.4519 448.136 68.4779 440.842 68.1879C440.422 68.1709 439.987 68.1739 439.563 68.1879ZM400.375 126.094L398.5 126.219L368.125 128.312C370.291 134.247 371.185 140.571 370.75 146.874L397.938 145L425.968 154.5C426.062 155.092 426.154 155.69 426.312 156.28C428.762 165.42 438.175 170.855 447.312 168.406C456.45 165.958 461.855 156.544 459.406 147.406C456.958 138.27 447.574 132.866 438.436 135.312C436.768 135.758 435.178 136.454 433.719 137.375L402.155 126.687L400.375 126.094ZM365.812 164.594C362.892 170.289 358.828 175.321 353.875 179.374L396.469 202.938C396.353 204.799 396.542 206.667 397.029 208.468C399.479 217.608 408.861 223.042 417.999 220.594C427.137 218.144 432.541 208.732 430.093 199.594C427.645 190.458 418.26 185.052 409.123 187.5C408.715 187.61 408.33 187.738 407.936 187.875L365.811 164.595L365.812 164.594ZM121.687 168.781C106.415 168.959 93.5148 179.169 89.5308 193.313L153.157 189.188C148.267 177.598 137.013 169.335 123.437 168.813C122.854 168.788 122.27 168.778 121.687 168.783V168.781ZM155.313 207.781L89.6248 212.063C93.5818 225.475 105.711 235.397 120.625 235.97C137.965 236.634 152.6 224.368 155.313 207.78V207.781ZM163.843 233.781C153.811 247.009 137.676 255.339 119.906 254.657C118.8 254.619 117.695 254.546 116.594 254.437L170.064 338.627C178.346 319.231 196.079 304.845 217.219 301.095L163.843 233.781ZM227.656 318.845C204.081 319.12 184.756 337.635 183.781 361.345C183.501 367.922 184.697 374.478 187.281 380.532L259.188 331.315C251.638 323.98 241.408 319.317 229.938 318.877C229.17 318.847 228.418 318.837 227.658 318.847L227.656 318.845ZM269.5 346.875L198.125 395.751C205.549 402.485 215.333 406.738 226.25 407.157C250.855 408.102 271.432 389.164 272.438 364.687C272.696 358.39 271.635 352.371 269.5 346.877V346.875ZM183.094 407.063L175.624 450.501H280L270.97 408.938C259.078 419.983 242.99 426.514 225.562 425.845C208.905 425.205 193.962 418.109 183.094 407.065V407.063ZM144.564 469.188V493.938H313.938V469.188H144.564Z" fill="#444856"/>
</svg>
