<svg width="512" height="512" viewBox="0 0 512 512" fill="none" xmlns="http://www.w3.org/2000/svg">
<path d="M114.875 18.8438L115.281 35.4368L118.221 172.031H118.281C144.391 172.031 165.595 193.236 165.595 219.345C165.595 245.453 144.391 266.657 118.282 266.657C109.692 266.657 101.638 264.357 94.6892 260.345L23.8142 376.906L15.1572 391.062L32.6572 390.906L164.72 387.906C164.716 387.708 164.72 387.511 164.72 387.312C164.72 361.204 185.89 340.032 212 340.032C238.11 340.032 259.313 361.204 259.313 387.312C259.319 395.064 257.408 402.697 253.75 409.532L373.188 482.156L388.281 491.062L387.876 474.437L384.938 345.5C383.681 345.602 382.42 345.654 381.158 345.656C355.048 345.656 333.845 324.452 333.845 298.344C333.845 272.234 355.049 251.031 381.157 251.031C389.52 251.031 397.367 253.217 404.187 257.031L479.377 133L488.032 118.812L470.502 118.969L334.408 122.062C334.413 122.342 334.438 122.622 334.438 122.905C334.44 149.015 313.236 170.218 287.128 170.218C261.018 170.218 239.815 149.013 239.815 122.904C239.815 114.019 242.265 105.698 246.533 98.5918L129.97 27.7197L114.875 18.8438ZM134.125 52.1237L151.219 62.5307L215.219 173.407C209.489 175.904 204.041 179.005 198.968 182.657L134.562 71.0938L134.124 52.1237H134.125ZM454.719 138.064L444.905 154.188L332.593 219.031C331.317 216.145 329.888 213.329 328.313 210.595C326.772 207.916 325.092 205.319 323.28 202.815L434.656 138.532L454.719 138.064ZM250.56 189.218C251.3 189.204 252.04 189.204 252.78 189.218C275.255 189.471 296.947 200.928 308.967 221.748C327.282 253.473 315.567 293.868 283.841 312.186C252.116 330.502 212.345 319.848 194.028 288.123C175.713 256.398 186.368 216.627 218.092 198.31C227.976 192.591 239.145 189.463 250.562 189.217L250.56 189.218ZM170.5 291.03C173.062 296.734 176.203 302.159 179.875 307.22L68.7502 371.374L48.4372 371.844L58.1252 355.904L170.5 291.032V291.03ZM304 327.126L368.625 439.096L369.063 457.751L351.719 447.188L287.843 336.563C290.5 335.369 293.097 334.045 295.623 332.595C298.516 330.931 301.313 329.105 303.999 327.125L304 327.126Z" fill="#444856"/>
</svg>
