<svg width="512" height="512" viewBox="0 0 512 512" fill="none" xmlns="http://www.w3.org/2000/svg">
<path d="M358.2 32.7202C252.3 35.4502 153.5 38.7602 84.4299 42.3402C85.4699 58.5102 103.5 60.6302 103.2 60.6502C115.2 59.6002 131.2 56.5502 148 53.9102C164.9 51.2802 182.6 49.0302 198.8 49.8702C213.3 50.6302 227.3 53.9102 237.5 62.9702C281.3 58.4602 326.7 52.9702 367.2 38.9802L358.2 32.7202ZM379.2 53.9302C372.1 56.5602 364.8 58.9202 357.6 61.0402C361.1 77.1702 365.1 94.2702 366.3 113.7C409.1 113 464.6 106.5 461.2 93.2802C456.8 76.2302 420.2 61.4702 379.2 53.9302ZM340 65.6602C298.5 73.5802 264.7 78.2702 230.5 81.8402C219.8 71.2502 205 67.6902 191.5 67.7402C192.1 84.1002 203.7 102.9 213.7 120.8C263.5 122 305.5 123 348.3 114.8C347.2 97.4602 343.6 81.6702 340 65.6602ZM173.5 68.7602C133.9 72.6502 115.4 82.4002 92.0399 115.4C123.2 120.3 154.8 131 184.9 144.5L197.2 128.4C187.7 111.7 174.1 91.4902 173.5 68.7602ZM80.8099 132C67.3799 156.7 66.6699 198.6 143.3 238.7C159.8 247.4 176.9 254.4 194.2 260.5C155.6 229.1 126.3 188.6 117.7 139.3C105.2 136 92.8799 133.5 80.8099 132ZM137.2 145.2C151.1 203.4 198.3 248.8 255.1 279.2C267.3 282.7 279.6 286.1 291.7 289.7C295.7 290.9 299.5 292 303.4 293.1V293C281.9 268.2 269.5 241.7 263 216.2C227.6 203.9 196.3 187.4 186.3 164.9C170.2 157.3 153.7 150.6 137.2 145.2ZM283.6 222.8C291.9 248.4 307.3 274.6 334.1 298.6C334.1 298.6 394.4 308.6 394.4 308.5C402.5 294.8 420.8 253.3 364 242C342.5 237.5 312.7 231.4 283.6 222.8ZM338.9 265.7C343.9 265.7 347.9 269.7 347.9 274.7C347.9 279.7 343.9 283.7 338.9 283.7C333.9 283.7 329.9 279.7 329.9 274.7C329.9 269.7 333.9 265.7 338.9 265.7ZM323.5 315.7C236.8 339.1 213.2 370.7 177.8 400.9C181.8 410.4 180.9 420.5 176.7 428.9C242.9 408.7 310.6 367 342.6 318.5C340.8 318.3 327.2 316 323.5 315.7ZM361.7 322C322.8 388.1 231.9 437.6 149.9 454.2C135.5 463.2 118.9 471.3 105.4 478.5C199.9 470 285.7 432.8 364.4 385.1C383.1 372.7 383.4 355.8 383.9 339L387.2 326.6L361.7 322ZM162.9 412.7C158.8 415.8 154.5 418.8 149.8 421.8C135.5 428.9 121.8 436.1 108.2 436.3L81.5799 419.9C69.5299 431.5 51.7699 445.1 50.6699 461C52.2399 469.9 55.6699 477.1 68.6399 479.3C91.3899 468.5 139.4 448.6 159.1 423.2C162.1 419.2 163.5 416.3 162.9 412.7Z" fill="#444856"/>
</svg>
