<svg width="512" height="512" viewBox="0 0 512 512" fill="none" xmlns="http://www.w3.org/2000/svg">
<path d="M254.785 20.3604C237.851 20.3604 222.4 24.4004 210.531 31.5744C198.664 38.7504 189.786 49.8443 189.786 63.2174C189.786 76.5893 198.664 87.6844 210.532 94.8594C222.402 102.034 237.852 106.073 254.787 106.073C266.211 106.073 276.955 104.228 286.385 100.829L267.515 119.699L390.552 242.74L411.766 221.525L289.766 99.5254C292.971 98.2065 296.071 96.6474 299.041 94.8614C305.636 90.8734 311.301 85.6713 315.038 79.5443L333.981 98.4893L324.083 108.389L431.873 216.179L448.136 167.389L356.61 75.8594L346.71 85.7614L319.4 58.4514C317.583 47.2114 309.467 37.8814 299.04 31.5754C287.17 24.4004 271.72 20.3604 254.785 20.3604ZM359.12 33.1203L349.223 43.0204L468.73 162.525L443.777 237.381L301.017 402.106L310.943 412.034L473.1 228.256L493.39 167.386L359.12 33.1203ZM254.785 38.3604C268.779 38.3604 281.327 41.9004 289.727 46.9804C298.127 52.0574 301.785 57.8903 301.785 63.2174C301.785 68.5444 298.125 74.3774 289.727 79.4554C281.327 84.5334 268.779 88.0753 254.785 88.0753C240.792 88.0753 228.243 84.5334 219.845 79.4554C211.445 74.3774 207.785 68.5454 207.785 63.2174C207.785 57.8903 211.445 52.0574 219.845 46.9794C228.243 41.8994 240.792 38.3604 254.785 38.3604ZM254.785 132.428L52.5501 334.66L175.59 457.7L377.822 255.467L254.785 132.428ZM39.8221 347.388L18.6121 368.604L141.645 491.64L162.86 470.426L39.8231 347.39L39.8221 347.388Z" fill="#444856"/>
</svg>
