<svg width="512" height="512" viewBox="0 0 512 512" fill="none" xmlns="http://www.w3.org/2000/svg">
<path d="M492.656 20.4062L374.062 76.6263L413.875 86.0003L326.905 172.97L21.405 432.344L22.095 433.031L126.845 385.564L80.469 491.407L81.374 492.313L353.874 172.438L427.094 99.2203L436.436 139.03L492.656 20.4062ZM19.406 20.4692C18.059 43.8993 24.406 60.4162 35.969 72.6872L60.062 374.967L77.624 360.093L55.904 87.6553C113.879 119.609 225 112.82 272.811 194.375L339.436 137.811L340.656 136.593C292.74 38.6663 86.01 99.7153 19.406 20.4692ZM378.937 172.029L377.781 173.186L320.531 240.374C402.537 288.319 396.118 399.641 427.814 458.404L155.657 433.904L140.845 451.312L442.407 478.437C454.887 490.72 471.807 497.521 496.095 496.124C416.145 428.924 477.735 220.37 378.939 172.03L378.937 172.029Z" fill="#444856"/>
</svg>
