<svg width="512" height="512" viewBox="0 0 512 512" fill="none" xmlns="http://www.w3.org/2000/svg">
<path d="M294.396 52.1269C276.452 52.1929 258.619 53.9609 241.51 56.8729C154.783 71.6329 105.898 110.34 79.5201 164.697C110.735 162.263 141.522 159.673 171.486 159.859C195.6 160.009 219.182 161.956 242.026 167.229C257.176 170.729 266.678 183.876 269.633 198.964C272.587 214.052 270.491 231.884 264.578 250.517L264.291 251.421L263.823 252.247C256.061 265.887 239.56 276.745 218.528 288.241C197.496 299.738 171.833 310.934 146.258 320.669C120.684 330.404 95.2461 338.649 74.6831 344.106C67.4291 346.031 60.8331 347.586 54.9481 348.763C57.2231 379.893 61.5101 412.143 66.9561 444.743C207.074 406.493 340.456 364.855 470.466 321.489C496.401 277.032 500.393 235.041 487.433 194.755C465.04 125.15 426.533 87.7069 382.218 68.5869C354.522 56.6369 324.305 52.0169 294.398 52.1269H294.396ZM130.184 179.205C121.124 179.715 111.919 180.361 102.652 181.041L59.3101 329.386C62.6941 328.596 66.2461 327.723 70.0641 326.71C74.2986 325.578 78.5189 324.393 82.7241 323.156C92.7461 292.086 126.024 191.74 130.184 179.205ZM83.4841 182.467C72.6161 183.293 61.6601 184.121 50.5761 184.837C50.2561 185.282 49.8621 185.784 49.2581 187.104C47.6781 190.554 45.8831 196.522 44.3461 203.828C41.2711 218.44 38.9761 238.555 37.6411 258.705C36.3081 278.855 35.9111 299.143 36.4481 314.287C36.7161 321.859 37.2381 328.192 37.8901 332.247C37.9381 332.553 37.9681 332.559 38.0201 332.837C38.4801 332.827 39.0531 332.793 39.5661 332.773L83.4841 182.467ZM224 183C208.404 183 195.34 195.582 195.34 211.152C195.34 226.722 208.404 239.307 224 239.307C239.596 239.307 252.66 226.723 252.66 211.152C252.66 195.582 239.596 183 224 183ZM224 201C230.12 201 234.66 205.567 234.66 211.152C234.66 216.738 230.12 221.307 224 221.307C217.88 221.307 213.34 216.737 213.34 211.152C213.34 205.567 217.88 201 224 201ZM454.19 345.865C330.383 386.852 203.285 426.23 70.0541 462.56C70.4671 464.877 70.8641 467.19 71.2861 469.508C218.893 442.858 327.26 400.543 442.646 360.344C446.639 355.634 450.489 350.805 454.192 345.864L454.19 345.865Z" fill="#444856"/>
</svg>
