<svg width="512" height="512" viewBox="0 0 512 512" fill="none" xmlns="http://www.w3.org/2000/svg">
<path d="M217.4 27.4302C189.5 27.9002 164.3 44.5402 152.9 70.2702L289.4 111.5C295.4 75.7102 273.9 41.0102 239.3 30.4802C233.1 28.6002 226.6 27.5702 220.1 27.4302H217.4ZM147.7 87.5102C141.6 123.4 163.1 158.2 197.8 168.7C232.6 179.2 269.7 162 284.3 128.7L147.7 87.5102ZM413.2 131.8C387.9 131.9 361 144.1 340.7 172.8L215.9 349.7C182.4 397.1 197 446.7 230 470.1C263.1 493.6 314.6 490.9 348.1 443.5L472.8 266.7C506.3 219.2 491.7 169.7 458.7 146.2C446.3 137.4 431.4 132.3 415.7 131.8H413.2ZM411.4 149.1C412.7 149.1 414 149.1 415.2 149.2C427.3 149.7 438.7 154 448.3 160.9C474 179.1 486.9 215.4 458 256.3L393.5 347.8C357.7 338.2 311.7 305.5 290.8 274.8L355.5 183.2C372.4 159.3 392.5 149.5 411.4 149.1ZM91.25 225.3C81.63 225.4 72.14 227.4 63.32 231.3C30.21 245.8 12.98 282.8 23.08 317.6L153.8 260.5C140.7 238.4 116.9 225 91.25 225.3ZM160.9 276.9L30.2 334.1C48.65 365.5 87.5 378.1 120.8 363.6C154 349 171.2 311.8 160.9 276.9Z" fill="#444856"/>
</svg>
