<svg width="512" height="512" viewBox="0 0 512 512" fill="none" xmlns="http://www.w3.org/2000/svg">
<path d="M472.133 19.8115L162.52 197.03L184.516 231.163L483.97 38.1825L472.133 19.8115ZM400.236 113.56L282.609 189.36L298.959 199.77C344.939 166.89 381.569 137.926 399.442 117.226L400.235 113.56H400.236ZM265.953 200.095L165.828 264.618L186.308 276.747C220.331 254.182 253.298 231.943 283.096 211.008L265.953 200.095ZM147.127 206.372L140.9 210.384C134.306 230.364 139.5 246.694 148.71 254.236L169.387 240.913L147.127 206.373V206.372ZM123.417 248.417C117.905 253.949 110.489 261.615 101.129 272.057C83.9041 291.269 64.7761 315.602 57.6591 332.462C39.1161 376.39 42.3191 430.452 39.6591 480.198C42.0691 487.278 45.0671 490.118 47.8561 491.335C50.8161 492.627 54.7521 492.528 59.5961 490.51C68.9891 486.6 79.2921 474.916 81.8581 465.229C81.6841 462.997 80.9381 453.112 80.6211 439.586C80.2651 424.446 80.3751 406.584 83.2511 393.289C88.4011 369.469 96.6461 344.099 113.519 324.239C123.712 312.246 140.651 301.759 155.439 293.391C160.119 290.741 164.104 288.667 167.854 286.741C147.974 274.451 131.198 269.04 123.417 248.417ZM65.6671 286.21L28.0291 295.85L43.6001 320.01C49.0321 308.996 56.9301 297.423 65.6641 286.21H65.6671ZM191.527 295.03L190.373 295.562C190.373 295.562 183.608 298.678 174.277 303.605C174.027 314.595 168.687 323.341 161.66 329.105C156.168 333.61 149.64 335.947 143.857 335.799C139.502 335.687 135.511 334.433 131.844 331.25C130.044 332.87 128.484 334.43 127.238 335.894C124.794 338.77 122.548 341.854 120.468 345.091C127.248 350.686 135.378 353.591 143.396 353.795C154.159 354.071 164.609 349.968 173.076 343.022C185.83 332.56 194.049 314.852 191.526 295.032L191.527 295.03Z" fill="#444856"/>
</svg>
