<svg width="512" height="512" viewBox="0 0 512 512" fill="none" xmlns="http://www.w3.org/2000/svg">
<path d="M235.223 42.7402C226.553 42.7432 217.903 43.2672 209.971 44.2302L232.966 51.6042L259.026 44.4002L244.122 52.6662L273.305 53.6042L242.137 55.5572L249.764 60.4512C261.884 59.0672 274.844 56.1162 288.897 51.2352C285.982 49.8002 281.98 48.3622 277.262 47.1712C265.894 44.3012 250.512 42.7372 235.225 42.7412L235.223 42.7402ZM209.771 44.2522C203.791 44.9842 198.211 45.9572 193.409 47.1842C188.624 48.4062 184.605 49.8892 181.779 51.3402C184.838 52.5263 187.932 53.6218 191.056 54.6252L223.38 52.8912L209.771 44.2522ZM191.595 54.7952C199.155 57.1922 206.953 59.0282 215.101 60.1482L223.563 55.7832L191.595 54.7952ZM232.327 56.9612L219.132 60.6412C227.466 61.5292 236.174 61.6632 245.362 60.8882L232.327 56.9612ZM293.88 68.5212C247.796 84.1242 209.997 80.8512 177.38 68.8642V334.247C213.07 348.095 251.51 347.533 293.88 332.743C293.91 244.781 293.885 152.099 293.88 68.5232V68.5212ZM320.3 230.905C320.23 230.905 320.157 230.908 320.086 230.907C321.101 232.12 322.081 233.362 323.026 234.63C330.846 245.11 337.686 258.954 342.871 273.29C345.137 279.55 347.067 285.866 348.564 292.05L352.036 274.445L351.999 274.647C352.343 272.693 352.771 270.755 353.282 268.837C350.366 257.955 345.364 247.839 339.287 241.017C333.517 234.537 327.451 231.052 320.303 230.904L320.3 230.905ZM417.568 236.497C392.734 236.563 374.553 249.962 369.728 277.727L369.711 277.829L365.897 299.165C381.697 289.579 398.204 283.491 416.457 284.038C437.307 284.663 460.145 291.038 477.515 302.21L474.135 276.918L474.125 276.808C468.767 247.428 444.635 236.722 417.569 236.496L417.568 236.497ZM311.878 250.197V333.31L331.646 326.764L331.629 326.678C332.145 326.571 331.894 327.014 332.612 325.338C333.332 323.662 333.998 320.028 333.882 315.314C333.649 305.889 330.646 292.409 325.944 279.412C322.067 268.692 317.016 258.227 311.876 250.197H311.878ZM159.38 266.26C132.55 272.256 105.078 278.395 84.4021 283.035C80.9091 283.819 79.0421 284.245 75.8621 284.959C78.3073 286.708 80.6279 288.625 82.8071 290.696C95.6071 302.874 104.489 319.912 109.417 337.933C114.347 355.953 115.347 375.03 110.98 391.783C110.179 394.867 109.157 397.89 107.922 400.827L159.382 383.792L159.38 266.26ZM44.1381 292.244C43.9181 292.248 43.6901 292.27 43.4681 292.277L42.7021 292.451C40.4441 292.971 38.3481 293.515 39.2121 293.269L39.0251 293.321L38.8381 293.366C35.5931 294.144 33.3181 295.796 31.0801 299.076C28.8421 302.358 26.9771 307.34 25.9651 313.509C23.9411 325.847 25.3571 342.629 29.8871 358.559C34.4171 374.485 42.0711 389.585 51.0921 399.147C59.2201 407.764 67.3821 411.867 77.0201 410.603C85.4401 406.286 90.6781 398.33 93.5661 387.247C96.8901 374.493 96.2761 358.097 92.0611 342.683C87.8431 327.268 80.0471 312.913 70.4031 303.737C62.5681 296.283 54.0731 292.087 44.1381 292.245V292.244ZM415.642 301.986C394.465 301.858 374.462 308.88 360.426 324.896L357.041 342.051C372.451 325.937 394.135 315.864 418.128 315.864C444.415 315.864 467.946 327.936 483.476 346.821L480.926 327.743C465 312.387 441.15 302.724 417.92 302.027C417.16 302.005 416.4 301.991 415.643 301.987L415.642 301.986ZM38.9971 315.023L57.7001 343.928L71.3631 322.08L64.6731 351.23L91.8711 367.174L67.0891 362.432L77.5111 389.787L59.8081 363.687L47.0211 383.912L52.4761 356.309L27.2721 341.659L51.3421 347.147L38.9971 315.023ZM418.127 331.637C380.031 331.637 349.317 362.352 349.317 400.449C349.317 438.545 380.031 469.259 418.127 469.259C456.225 469.259 486.94 438.545 486.94 400.449C486.94 362.351 456.224 331.636 418.127 331.636V331.637ZM293.88 351.71C252.95 364.84 213.75 365.713 177.38 353.37V393.408C213.07 407.482 251.508 407.113 293.88 392.48V351.71ZM418.127 375.975C431.644 375.975 442.602 386.932 442.602 400.449C442.602 413.965 431.644 424.923 418.127 424.923C404.61 424.923 393.652 413.965 393.652 400.448C393.652 386.93 404.61 375.973 418.127 375.973V375.975ZM296.897 410.463C254.13 424.627 213.227 425.463 175.43 411.896L172.273 425.514C211.161 444.694 257.271 444.439 301.063 425.304L296.897 410.463Z" fill="#444856"/>
</svg>
