<svg width="512" height="512" viewBox="0 0 512 512" fill="none" xmlns="http://www.w3.org/2000/svg">
<path d="M256 23.0698C197.9 23.0698 145.3 29.3498 106.6 39.7798C87.21 44.9998 71.29 51.1798 59.51 58.6798C53.84 62.2898 48.89 66.4098 45.26 71.0698C38.9 97.6398 39.09 142.1 39 152C39 164.2 47.74 173.9 59.51 181.4C67.44 186.4 77.24 190.9 88.71 194.9C86.01 201.8 84.82 209.4 84.82 217C84.82 228.4 87.49 240 94.04 249C87.49 258 84.82 269.6 84.82 281C84.82 292.4 87.49 304 94.04 313C87.49 322 84.82 333.6 84.82 345C84.82 356.4 87.49 368 94.04 377C87.49 386 84.82 397.6 84.82 409C84.82 423.6 89.13 438.7 100.5 448C146.1 485.4 227.7 495.9 299.1 484.6C334.9 478.9 368.2 467.6 393.2 450C401.9 443.8 409.6 436.8 415.9 429C416.7 432.8 417.2 436.8 417.2 441H435.2C435.2 429.5 432.8 418.8 428.4 409C432.8 399.2 435.2 388.5 435.2 377C435.2 365.5 432.8 354.8 428.4 345C432.8 335.2 435.2 324.5 435.2 313C435.2 301.5 432.8 290.8 428.4 281C432.8 271.2 435.2 260.5 435.2 249C435.2 237.5 432.8 226.8 428.4 217C432.1 208.7 434.4 199.9 435 190.4C441.6 187.6 447.4 184.6 452.5 181.4C464.3 173.9 473 164.2 473 152C472.8 140.8 470.8 87.2998 466.8 71.0698C463.1 66.4098 458.2 62.2898 452.5 58.6798C440.7 51.1798 424.8 44.9998 405.4 39.7798C366.7 29.3498 314.1 23.0698 256 23.0698ZM247 41.2998C276.3 41.4598 306.8 42.4498 318.2 44.0198C294.3 65.2398 263.5 109.4 262.9 134.3C213.6 135.4 174.7 131.7 147.3 127.1C155.1 116.6 167 104.2 181.2 91.6198C200.4 74.6498 223.7 57.0198 247 41.2998ZM215.3 41.4998C198.9 53.3798 183.1 65.8398 169.3 78.1498C151.5 93.8698 136.9 109 127.9 123.4C109.3 119.2 99.72 115.3 99.81 114.3C118.2 84.6098 150.1 59.4098 185.3 43.2398C190.4 42.3498 201.5 41.7898 215.3 41.4998ZM57 115.7C57.82 116.3 58.65 116.9 59.51 117.4C71.29 124.9 87.21 131.1 106.6 136.3C145.3 146.7 197.9 153 256 153C314.1 153 366.7 146.7 405.4 136.3C424.8 131.1 440.7 124.9 452.5 117.4C453.4 116.9 454.2 116.3 455 115.7C455.7 127.9 455.4 144.9 455 152C455 155.2 452.1 160.3 442.8 166.2C433.5 172.1 419 178 400.7 182.9C364.2 192.7 312.8 199 256 199C199.2 199 147.8 192.7 111.3 182.9C93 178 78.45 172.1 69.18 166.2C52.68 156.7 57 134.4 57 115.7ZM106.3 200.2C106.4 200.2 106.5 200.3 106.6 200.3C120.7 203.6 138.6 210.9 146 217C131.9 222.2 118.9 228.7 107.7 236.6C104.8 231.5 102.8 224.5 102.8 217C102.8 210.8 104.2 204.9 106.3 200.2ZM396.9 202.5C401.4 207 405.3 211.9 408.4 217C403.8 224.6 397.6 231.5 389.9 237.9C377.1 229.4 362.4 222.5 346.4 217C369.4 211.2 380.2 206.3 396.9 202.5ZM312.1 226.2C335.4 231.3 356.7 238.9 373.9 249C356.7 259.1 335.4 266.7 312.1 271.8C307.8 270.9 303.5 270.1 299.1 269.4C259.7 263.2 217.2 263.6 179.4 271.5C157.2 266.5 137.2 259 121.7 249C137.2 239 157.2 231.5 179.4 226.5C217.2 234.4 259.7 234.8 299.1 228.6C303.5 227.9 307.8 227.1 312.1 226.2ZM415.9 237C416.7 240.8 417.2 244.8 417.2 249C417.2 253.2 416.7 257.2 415.9 261C412.5 256.8 408.6 252.8 404.4 249C408.6 245.2 412.5 241.2 415.9 237ZM389.9 260.1C397.6 266.5 403.8 273.4 408.4 281C403.8 288.6 397.6 295.5 389.9 301.9C377.1 293.4 362.4 286.5 346.4 281C362.4 275.5 377.1 268.6 389.9 260.1ZM107.7 261.4C118.9 269.3 131.9 275.8 146 281C131.9 286.2 118.9 292.7 107.7 300.6C104.8 295.5 102.8 288.5 102.8 281C102.8 273.5 104.8 266.5 107.7 261.4ZM312.1 290.2C335.4 295.3 356.7 302.9 373.9 313C356.7 323.1 335.4 330.7 312.1 335.8C307.8 334.9 303.5 334.1 299.1 333.4C259.7 327.2 217.2 327.6 179.4 335.5C157.2 330.5 137.2 323 121.7 313C137.2 303 157.2 295.5 179.4 290.5C217.2 298.4 259.7 298.8 299.1 292.6C303.5 291.9 307.8 291.1 312.1 290.2ZM415.9 301C416.7 304.8 417.2 308.8 417.2 313C417.2 317.2 416.7 321.2 415.9 325C412.5 320.8 408.6 316.8 404.4 313C408.6 309.2 412.5 305.2 415.9 301ZM389.9 324.1C397.6 330.5 403.8 337.4 408.4 345C403.8 352.6 397.6 359.5 389.9 365.9C377.1 357.4 362.4 350.5 346.4 345C362.4 339.5 377.1 332.6 389.9 324.1ZM107.7 325.4C118.9 333.3 131.9 339.8 146 345C131.9 350.2 118.9 356.7 107.7 364.6C104.8 359.5 102.8 352.5 102.8 345C102.8 337.5 104.8 330.5 107.7 325.4ZM312.1 354.2C335.4 359.3 356.7 366.9 373.9 377C352.9 389.3 325.7 398.1 296.3 402.8C234.1 412.7 162.6 403.3 121.7 377C137.2 367 157.2 359.5 179.4 354.5C217.2 362.4 259.7 362.8 299.1 356.6C303.5 355.9 307.8 355.1 312.1 354.2ZM415.9 365C416.7 368.8 417.2 372.8 417.2 377C417.2 381.2 416.7 385.2 415.9 389C412.5 384.8 408.6 380.8 404.4 377C408.6 373.2 412.5 369.2 415.9 365ZM389.9 388.1C397.6 394.5 403.8 401.4 408.4 409C402.5 418.8 393.9 427.5 382.8 435.2C361 450.6 330.1 461.4 296.3 466.8C228.8 477.5 150.4 465.6 111.9 434C106.8 429.8 102.8 419.7 102.8 409C102.8 401.5 104.8 394.5 107.7 389.4C154.4 422.4 231.3 431.3 299.1 420.6C333.4 415.1 365.2 404.5 389.9 388.1Z" fill="#444856"/>
</svg>
