<svg width="512" height="512" viewBox="0 0 512 512" fill="none" xmlns="http://www.w3.org/2000/svg">
<path d="M89.594 18.0938L78.844 28.8438L78.874 28.8738L106.406 362.437L23.376 455.375L56.626 488.625L146.781 408.062L482.971 432.969C483.031 433.031 483.095 433.093 483.157 433.155L483.313 432.999H483.345V432.969L493.907 422.405C492.231 420.729 490.785 418.968 489.22 417.249C467.888 391.699 463.804 354.009 453.75 308.124C445.427 270.134 432.525 227.082 400.656 183.094L362.594 233.904C362.599 233.912 362.589 233.93 362.594 233.936C391.582 270.01 408.621 301.702 422.314 330.186C437.331 361.433 448.436 389.186 466.781 413.874L165.314 391.5L337.53 237.594L401.906 151.624L360.376 110.094L274.469 174.406L122.81 344.094L98.156 45.2498C122.836 63.5798 150.581 74.6758 181.812 89.6878C210.302 103.381 242.012 120.408 278.094 149.406L328.906 111.344C284.916 79.4837 241.866 66.6077 203.876 58.2807C157.987 48.2237 120.3 44.1128 94.75 22.7798C93.03 21.2158 91.27 19.7697 89.594 18.0938ZM406.624 18.4058C403.239 18.4338 399.762 18.8117 396.344 19.3757C391.786 20.1257 387.352 21.2127 383.531 22.4688C379.711 23.7227 376.755 24.7708 373.814 27.0928C372.888 27.8218 372.155 28.7675 371.681 29.8464C371.207 30.9254 371.005 32.1045 371.094 33.2797L376.126 95.6247C376.252 97.3323 376.983 98.9388 378.189 100.155L411.845 133.781C413.048 134.992 414.644 135.734 416.345 135.876L478.689 140.906C479.869 141 481.054 140.801 482.139 140.327C483.224 139.853 484.175 139.118 484.907 138.188C487.242 135.244 488.274 132.293 489.532 128.47C490.792 124.646 491.875 120.215 492.627 115.656C493.379 111.096 493.807 106.458 493.502 102.031C493.197 97.6057 492.49 93.0407 488.658 89.2207L422.78 23.3428C418.958 19.5188 414.396 18.8028 409.97 18.4988C408.857 18.4247 407.741 18.3933 406.625 18.4048L406.624 18.4058ZM406.75 32.7807C407.501 32.7735 408.251 32.7948 409 32.8448C411.404 33.0098 412.74 33.7598 412.72 33.6248L478.375 99.2817C478.237 99.2587 478.991 100.6 479.155 103.002C479.345 105.748 479.093 109.528 478.469 113.315C477.843 117.101 476.874 120.935 475.874 123.971C475.462 125.221 475.35 125.243 474.936 126.157L420.156 121.782L390.218 91.8457L385.842 37.0328C386.755 36.6228 386.782 36.5377 388.029 36.1277C391.066 35.1297 394.901 34.1578 398.687 33.5338C401.527 33.0678 404.349 32.8058 406.749 32.7838L406.75 32.7807ZM358.78 153.221L339.844 184.814L135.344 389.282L126.5 388.627L125.312 374.064L327.187 172.158L358.781 153.221H358.78Z" fill="#444856"/>
</svg>
