<svg width="512" height="512" viewBox="0 0 512 512" fill="none" xmlns="http://www.w3.org/2000/svg">
<path d="M59.938 17.75L15.78 61.906L47.844 93.938L92 49.78L59.938 17.75ZM93.218 75L74.376 93.844C92.19 125.764 124.946 159.11 155.156 177.656L176.876 155.936C157.975 125.16 124.423 92.678 93.22 75H93.218ZM240 119.25L112.812 246.438L126.125 259.75L253.313 132.562L240 119.25ZM244.938 168.094L169.968 243.064L181.938 255.031C187.118 250.161 193.764 247.751 200.406 247.751C207.309 247.751 214.206 250.361 219.469 255.626C229.789 265.95 229.984 282.591 220.062 293.156L352.78 425.876C387.903 461 446.2 503.618 494.5 492.626C471.064 471.342 412.735 385.916 422.844 346.438L382.156 353.688L389.812 313.626L349.25 320.782L357.344 281.19L317.281 288.815L324.907 248.752L284.377 255.908L292.127 215.283L244.939 168.097L244.938 168.094Z" fill="#444856"/>
</svg>
