<svg width="512" height="512" viewBox="0 0 512 512" fill="none" xmlns="http://www.w3.org/2000/svg">
<path d="M227.752 139.172L279.75 193.462L292.75 181.012L240.75 126.722L227.752 139.172ZM187.74 256.424L197.423 266.534L253.753 212.582L244.069 202.472L187.739 256.424H187.74ZM385.14 72.1798L346.795 144.913L371.022 170.207L445.337 135.031L385.139 72.1808L385.14 72.1798ZM401.134 62.8578L455.341 119.453L463.173 84.2578L436.633 56.5498L401.135 62.8578H401.134ZM48.8281 433.784L69.5781 455.45L78.9681 446.458L58.2161 424.792L48.8281 433.784ZM71.2161 412.342L91.9661 434.007L356.284 180.843L335.534 159.177L71.2151 412.342H71.2161Z" fill="#444856"/>
</svg>
