<svg width="512" height="512" viewBox="0 0 512 512" fill="none" xmlns="http://www.w3.org/2000/svg">
<path d="M126.75 21.563L115.344 72.28L231.031 131.25L323.438 21.562L126.75 21.563ZM15.75 22.156V60.28L97.188 67.97L107.5 22.155L15.75 22.156ZM321.375 53L247.062 141.188L312.562 197.375L418.375 130.345L321.375 53ZM15.75 79.03V170.437C136.48 145.497 320.93 252.407 394.25 407.625L392.844 361.875L360.031 287.845L307.439 217.562L305.657 216.032L231.595 152.532L229.157 151.282L103.75 87.343L15.75 79.03ZM402.53 162.53L325.906 211.03L371.686 272.22L465.469 237.937L402.529 162.531L402.53 162.53ZM452.5 262.594L380.844 288.75L408.156 350.344L485.531 347.624L452.501 262.594H452.5ZM464.03 367.064L411.75 368.906L414.625 462.094C417.982 474.133 420.612 486.364 422.5 498.719C456.35 460.792 467.53 415.165 464.03 367.061V367.064Z" fill="#444856"/>
</svg>
