<svg width="512" height="512" viewBox="0 0 512 512" fill="none" xmlns="http://www.w3.org/2000/svg">
<path d="M72.02 21.8799L71.12 86.2199L32.88 108L33.81 114.3C52.76 242.3 126.3 368.4 250.6 484.1L257 490.1L263.4 484.1C386.6 368.6 458.6 242.1 478.2 114.5L479.1 108.2L440.4 85.9899L439.6 25.3499C320.4 41.1499 182 38.7199 72.02 21.8799ZM90.42 43.5899C123 48.5399 155.3 52.3099 187.6 54.8099V86.6599L138.9 115L89.82 86.4399L90.42 43.5899ZM421.2 47.1499L421.7 86.4399L372.6 115L323.4 86.3999V56.8199C355.5 55.1899 388 52.1499 421.2 47.1499ZM206.7 56.2799C239.2 58.2599 271.7 58.7499 304.6 57.6999V86.3999L255.7 114.9L206.7 86.3699V56.2799ZM80.22 102.6L129.4 131.2V188.6L81.02 216.8C68 183.9 58.77 150.9 53.39 117.8L80.22 102.6ZM431.7 102.6L458.6 117.9C453.1 151 443.8 184 431 216.8L382.5 188.6V131.2L431.7 102.6ZM314 102.6L363.1 131.2V188.6L314 217.2L265.3 188.9V130.9L314 102.6ZM197.2 102.8L246.1 131.2V188.9L197.4 217.2L148.3 188.6V131.2L197.2 102.8ZM140 206.2L189.2 234.8V292.2L136.7 322.8C117.8 294.1 101.9 265.1 89.02 235.9L140 206.2ZM257.2 206.2L305.9 234.6V292.5L257.2 320.8L208 292.2V234.8L257.2 206.2ZM373.7 206.2L423.4 235.1C410.6 264.4 394.9 293.5 376.3 322.3L325 292.5V234.6L373.7 206.2ZM307.2 313.9L347.9 337.5V362.9C336 378.6 323.3 394.2 309.6 409.7C295.2 401.3 280.9 392.8 266.5 384.4V337.5L307.2 313.9ZM206.9 313.9L247.6 337.5V384.3C233.3 392.7 217.9 401.9 204.1 409.9C190.919 395.164 178.277 379.954 166.2 364.3V337.5L206.9 313.9ZM257.1 400.8L283.9 416.4V437.1C272.6 448.5 264.8 456.3 257 464.3C247.7 455.5 238.7 446.6 230 437.7V416.5L257.1 400.8Z" fill="#444856"/>
</svg>
