<svg width="512" height="512" viewBox="0 0 512 512" fill="none" xmlns="http://www.w3.org/2000/svg">
<path d="M465.659 42.6299L449.499 54.4599L461.319 70.1499L461.047 70.3309L467.367 78.8899L489.918 61.8899L481.918 51.2099L475.658 55.9199L465.658 42.6299H465.659ZM436.569 64.1099L269.108 183.86C269.108 184.4 269.048 184.89 269.048 185.4L266.888 208.18C266.678 210.444 265.988 212.637 264.863 214.613C263.739 216.589 262.207 218.303 260.368 219.64L218.458 250.14C215.027 252.637 210.745 253.668 206.554 253.008C202.363 252.348 198.605 250.05 196.108 246.62L191.158 239.82L161.368 261.3C159.698 262.52 159.357 265.04 160.557 267.3L162.647 271.251C163.147 272.064 163.398 273.006 163.37 273.959C163.342 274.913 163.035 275.838 162.489 276.621L114.489 335.331C114.405 335.431 114.311 335.522 114.207 335.601L23.508 406.021C21.668 407.451 21.598 410.481 23.358 412.781L64.1781 466.96C64.6795 467.672 65.338 468.26 66.1026 468.678C66.8672 469.096 67.7175 469.333 68.588 469.37H68.768C69.3354 469.357 69.8909 469.206 70.386 468.929C70.8812 468.651 71.3008 468.257 71.6081 467.78L156.038 356.48C156.658 355.957 157.113 355.267 157.349 354.491C157.585 353.716 157.592 352.889 157.368 352.11C157.368 352.11 154.328 336.04 155.048 335.04C155.048 335.04 183.748 296.65 183.998 296.46L454.788 88.6999L436.568 64.1099H436.569ZM253.069 183.93L198.929 223.32L209.047 237.23L250.957 206.73L253.069 183.93ZM273.207 248.18L234.578 277.78L242.068 293.15C242.501 294.029 243.176 294.767 244.014 295.276C244.852 295.784 245.818 296.042 246.798 296.02H247.048C247.945 295.979 248.82 295.738 249.611 295.314C250.402 294.89 251.088 294.294 251.618 293.57L274.388 262.98C274.864 262.342 275.2 261.61 275.372 260.832C275.544 260.055 275.55 259.25 275.388 258.47L273.208 248.18H273.207ZM213.767 293.78L207.838 298.37C209.252 300.728 209.87 303.479 209.6 306.216C209.33 308.953 208.186 311.53 206.338 313.566C204.49 315.603 202.036 316.991 199.338 317.524C196.64 318.058 193.842 317.709 191.358 316.53L189.098 319.53L186.838 322.53C189.713 324.162 192.944 325.066 196.249 325.163C199.554 325.261 202.832 324.548 205.798 323.087C208.765 321.627 211.329 319.463 213.267 316.785C215.205 314.106 216.458 310.994 216.918 307.72C217.611 302.844 216.49 297.884 213.768 293.78H213.767Z" fill="#444856"/>
</svg>
