<svg width="512" height="512" viewBox="0 0 512 512" fill="none" xmlns="http://www.w3.org/2000/svg">
<path d="M370.28 18.1558C357.166 18.4158 344.418 22.0488 333.563 29.5938C296.686 55.2268 294.835 88.3858 316.656 136.188C313.943 102.421 332.988 71.6478 369.936 59.6558C407.352 47.5218 439.816 62.7058 456.876 92.4688C452.261 46.9548 409.626 17.3728 370.281 18.1548L370.28 18.1558ZM200.72 35.6558C175.03 35.7398 150.52 46.7438 137.78 67.4998C118.872 98.3118 120.93 142.463 161.562 177.72C146.718 146.335 153.8 109.948 184.875 85.0628C216.341 59.8628 253.013 62.6628 280.155 85.0628C264.435 51.3528 231.723 35.5558 200.719 35.6558H200.72ZM396.187 71.9998C389.402 71.9898 382.26 73.1238 374.937 75.4998C332.327 89.3258 318.869 133.403 344.217 172.5L479.561 399.72L455.72 136.31C453.744 98.3348 428.877 72.0548 396.186 71.9998H396.187ZM230.405 82.5628C218.025 82.6988 205.655 86.9168 194.811 96.6248C159.811 127.958 161.291 174.25 200.655 203.188L417.685 375.844L296.593 126.344C284.986 101.788 257.643 82.2628 230.405 82.5628ZM418.155 100.343C418.545 100.326 418.945 100.351 419.343 100.437C420.933 100.783 422.666 102.014 424.999 104.563C429.664 109.66 435.025 121.457 436.812 141.187L449.592 282.344L408.812 165.064C402.472 146.824 401.754 131.646 403.842 120.75C405.932 109.854 410.907 103.596 414.499 101.625C415.846 100.885 416.989 100.398 418.155 100.345V100.343ZM250.185 107.625C251.917 107.581 254.065 108.205 256.999 109.688C263.709 113.078 273.429 122.736 282.562 141.468L349.437 278.718L262.717 175.406C249.604 159.789 243.211 145.132 241.217 133.626C239.225 122.118 241.837 114.09 244.78 110.719C246.252 109.032 247.62 107.949 249.47 107.687C249.7 107.654 249.94 107.63 250.188 107.624L250.185 107.625ZM94.593 168.655C75.1 169.04 56.973 177.742 42.655 192.469C-3.23098 239.669 30.612 314.734 86.655 330.905C60.505 308.002 52.515 271.722 71.125 236.468C89.97 200.778 124.75 188.738 158.593 198.436C137.669 177.262 115.343 168.247 94.593 168.655ZM139.78 210.375C118.333 210.273 98.23 221.669 86.156 244.531C64.696 285.186 86.289 327.275 132.906 337.907L395.062 408.282L189.062 231.502C173.944 217.486 156.462 210.456 139.782 210.377L139.78 210.375ZM142.125 229.845C142.851 229.831 143.671 229.852 144.563 229.905C151.698 230.345 164.157 235.219 179.688 248.5L291.625 344.25L176.405 286.312C158.633 277.38 147.145 266.724 140.781 257.156C134.419 247.588 133.511 239.306 134.721 235.25C135.778 231.7 137.043 229.936 142.126 229.844L142.125 229.845ZM79.845 346.78C55.917 347.06 36.447 359.842 29.313 387.406C15.705 439.976 46.425 491.5 106.781 493.626C78.718 481.169 62.461 452.709 68.907 418.094C75.437 383.051 101.602 363.767 132.687 363.064C114.673 352.256 96.215 346.59 79.845 346.781V346.78ZM132.75 376.563C111.283 377.033 92.352 389.889 85.125 421.188C76.287 459.462 106.233 488.662 146.969 485.5L378.749 476.375L165.811 384.437C155.629 379.537 144.987 376.714 134.843 376.562C134.145 376.552 133.443 376.547 132.749 376.562L132.75 376.563ZM131.594 395.593C137.787 395.413 146.874 396.965 158.564 402L265.719 448.188L164.249 432.781C147.783 430.283 136.233 424.614 129.155 418.626C122.077 412.638 119.781 406.464 119.875 403.032C119.967 399.602 120.745 397.806 126.375 396.282C127.781 395.902 129.528 395.656 131.593 395.596L131.594 395.593Z" fill="#444856"/>
</svg>
