<svg width="512" height="512" viewBox="0 0 512 512" fill="none" xmlns="http://www.w3.org/2000/svg">
<path d="M400.29 24V56H410.29V91.666H434.916C435.109 110.082 434.854 127.506 434.916 144.516H410.29V152H364.354L370.34 140.025L376.854 127H70.62V144.355L88.06 152H26.29V56H42.29V40L58.29 24H90.29V56H314.29C322.762 48.886 320.03 35.288 320.29 24H330.29V56H352.29C362.423 44.875 370.96 24.157 384.29 24H400.29ZM336 81H112V99H336V81ZM485.533 104L485.709 131.523H453.003V104H485.533ZM347.73 145L340.73 159H140.022L105.022 145H347.73ZM351.52 177C351.44 180.038 351.29 183.073 351.072 186.104C350.286 196.837 349.052 209.258 343.202 219.104C336.782 229.917 326.032 236.887 315.15 240.534C300.82 245.334 283.89 246.546 268.846 240.314C261.616 237.32 255.568 232.024 250.291 226.454V344H130.291C132.405 297.405 137.137 248 163.124 200C156.249 192.687 150.294 184.915 144.622 177H250.292V198.45C251.935 200.684 254.375 203.878 257.892 207.967C263.802 214.842 271.95 222.117 275.736 223.687C285.329 227.659 298.479 227.137 309.434 223.467C316.904 220.964 324.266 215.744 327.729 209.914C330.097 205.926 332.413 194.471 333.123 184.787C333.343 181.797 333.395 179.382 333.446 177H351.52ZM292.27 177C283.403 192.22 293.14 199.81 306.236 210.29C279.482 203.582 271.251 194.918 275.68 177H292.27ZM230 231H182V249H230V231ZM230 271H166V289H230V271ZM230 311H156.518V329H230V311ZM250.29 362V488H186.29V362H250.29Z" fill="#444856"/>
</svg>
