<svg width="512" height="512" viewBox="0 0 512 512" fill="none" xmlns="http://www.w3.org/2000/svg">
<path d="M280.3 30.04C246.9 49.82 209.6 85.51 175.8 127.1C128.4 185.4 86.95 254.6 65.99 303.7L67.68 312.6L75.29 311.2L76.12 309.7C92.69 279.2 118.1 243.7 148.3 208C186.6 146.6 232.4 80.44 280.3 30.04ZM394.2 32.76C351.2 48.68 297.9 85.55 248.1 130.7C183.2 189.7 123.2 262 93.37 315.9L94.97 327.5L107.9 321.7C116.2 311.8 124.9 301.8 132.3 293.7C197.1 208.5 303.2 104.3 394.2 32.76ZM473 81.09C425.5 88.81 366.4 119.4 309.1 160.4C237.9 211.3 169.1 277 125.2 329.1L126.6 348.6L151 347C224.7 261.9 349.4 153.3 473 81.09ZM47.34 303L18 344V488L55.32 474C55.32 474 105.9 491.1 128 491.7C159.5 492.5 200.7 443.5 202.7 434C204.3 426.1 198.9 419.3 193.9 412.6C174 426.8 158.8 433.3 132.1 419.1C162.7 413 166.3 413.4 185.7 397.2C195.7 388.2 198 377.4 197.2 367.7C196.7 361.7 182.9 357.2 174.8 347.2C169.2 353.4 164.8 358.5 159.7 364.4L110 367.8L108.1 341.3L79.62 351.3L77.04 329.2L53.3 333.4C51.4 322.8 49.19 311.8 47.34 303Z" fill="#444856"/>
</svg>
