<svg width="512" height="512" viewBox="0 0 512 512" fill="none" xmlns="http://www.w3.org/2000/svg">
<path d="M183.52 49.3731C174.19 49.7681 164.45 50.8071 154.432 52.4651C162.276 88.7151 180.069 121.411 215 149.939V139.439C206.155 129.193 199.155 113.929 193.46 96.8451C188.283 81.3111 184.665 64.6231 183.52 49.3731ZM328.48 49.3731C327.335 64.6231 323.717 81.3131 318.54 96.8461C312.845 113.929 305.845 129.194 297 139.439V149.939C331.93 121.409 349.724 88.7131 357.568 52.4641C347.548 50.8061 337.81 49.7681 328.48 49.3731ZM201.668 51.5531C202.453 58.8961 203.9 66.8631 205.846 74.8361C223.196 84.0701 239.442 89.0001 256 89.0001C272.558 89.0001 288.804 84.0701 306.154 74.8361C308.1 66.8641 309.547 58.8961 310.332 51.5531C289.306 64.9131 272.4 71.0001 256 71.0001C239.6 71.0001 222.694 64.9131 201.668 51.5531ZM136.785 55.9611C105.988 63.0331 73.35 75.5001 42.313 92.6701C72.472 215.975 87.862 380.764 74.175 491H215V172.633C169.732 139.81 146.24 99.5211 136.785 55.9611ZM375.215 55.9611C365.76 99.5201 342.268 139.81 297 172.634V491H437.824C424.137 380.764 439.527 215.975 469.687 92.6701C438.65 75.5001 406.012 63.0331 375.215 55.9611ZM194.057 208.25L196.002 336.41L191.115 338.984C164.097 353.222 133.48 353.804 103.152 345.461L96.642 343.673L94.822 223.798L94.692 215.284L194.057 208.25ZM317.943 208.25L408.813 214.682L417.307 215.282L415.357 343.672L408.847 345.462C378.52 353.802 347.903 353.222 320.885 338.984L315.998 336.41L317.943 208.25ZM164.163 228.41L126.131 231.102L146.495 248.772L164.163 228.41ZM347.836 228.41L365.506 248.773L385.869 231.103L347.836 228.41ZM176.56 241.59L148.29 274.166L113.125 243.648L114.432 329.66C137.218 334.858 158.58 333.93 177.83 325.305L176.56 241.59ZM335.44 241.59L334.17 325.305C353.42 333.93 374.782 334.858 397.568 329.66L398.875 243.648L363.709 274.166L335.44 241.59ZM233 473V491H279V473H233Z" fill="#444856"/>
</svg>
