<svg width="512" height="512" viewBox="0 0 512 512" fill="none" xmlns="http://www.w3.org/2000/svg">
<path d="M255.565 30.6431C173.967 30.6431 102.844 77.3501 65.788 146.563H116.078L132.818 113.082H248.683C250.738 108.848 254.099 105.311 257.929 102.758C264.231 98.5571 272.121 96.3441 280.677 96.3441C289.232 96.3441 297.123 98.5571 303.425 102.758C309.727 106.958 314.786 113.812 314.786 122.082C314.786 130.352 309.726 137.205 303.425 141.406C297.123 145.607 289.232 147.82 280.677 147.82C272.121 147.82 264.231 145.607 257.929 141.406C254.099 138.853 250.736 135.316 248.681 131.08H143.94L136.2 146.562H188.602V164.561H57.143C54.9699 169.647 52.9819 174.811 51.183 180.041H88.157V198.039H45.802C41.796 213.746 39.387 230.131 38.751 247.002H148.634L165.376 196.782H205.343V214.779H178.347L167.604 247.002H215.198C217.254 242.767 220.616 239.229 224.446 236.676C230.748 232.475 238.639 230.262 247.194 230.262C255.75 230.262 263.64 232.475 269.942 236.676C276.244 240.876 281.306 247.73 281.306 256C281.306 264.27 276.244 271.123 269.942 275.324C263.64 279.525 255.75 281.738 247.194 281.738C238.639 281.738 230.748 279.525 224.446 275.324C220.616 272.771 217.254 269.234 215.198 264.998H119.458L143.94 313.961H222.083V331.959H132.817L99.335 264.998H38.751C40.365 307.824 53.441 347.525 74.88 380.92H164.976C167.031 376.685 170.396 373.147 174.226 370.594C180.528 366.393 188.416 364.18 196.972 364.18C205.527 364.18 213.418 366.393 219.72 370.594C226.022 374.794 231.083 381.648 231.083 389.918C231.083 398.188 226.022 405.041 219.72 409.242C213.418 413.443 205.527 415.656 196.972 415.656C188.416 415.656 180.528 413.443 174.226 409.242C170.396 406.689 167.033 403.152 164.978 398.918H155.194L176.677 431.138H250.005L266.745 397.658H305.788V415.656H277.868L270.126 431.139H322.528V449.137H167.046L133.563 398.918H87.716C127.526 449.288 187.95 481.358 255.566 481.358C347.902 481.358 426.828 421.552 458.147 337C453.265 347.507 447.377 356.344 440.231 362.893C433.019 369.502 424.171 373.807 414.603 373.807C405.034 373.807 396.186 369.502 388.973 362.893C381.761 356.283 375.828 347.347 370.919 336.711C361.101 315.439 355.382 287.169 355.382 256C355.382 224.831 361.101 196.56 370.919 175.29C375.829 164.653 381.761 155.717 388.974 149.107C396.186 142.498 405.034 138.193 414.603 138.193C424.171 138.193 433.019 142.498 440.231 149.107C447.377 155.656 453.265 164.493 458.147 175C426.828 90.4481 347.902 30.6431 255.565 30.6431ZM280.677 114.342C275.364 114.342 270.697 115.875 267.911 117.732C265.125 119.59 264.563 121.107 264.563 122.082C264.563 123.057 265.125 124.574 267.911 126.432C270.698 128.289 275.364 129.822 280.677 129.822C285.99 129.822 290.656 128.289 293.442 126.432C296.229 124.574 296.788 123.057 296.788 122.082C296.788 121.107 296.228 119.59 293.442 117.732C290.656 115.875 285.99 114.342 280.677 114.342ZM439.714 197.782C428.116 197.782 419.617 206.588 414.344 217.132C409.072 227.677 406.181 241.172 406.181 256C406.181 270.829 409.072 284.323 414.345 294.867C419.617 305.412 428.115 314.219 439.714 314.219C451.312 314.219 459.812 305.412 465.085 294.867C470.358 284.323 473.249 270.829 473.249 256C473.249 241.171 470.358 227.677 465.085 217.133C459.812 206.588 451.312 197.782 439.714 197.782ZM444.327 217.939C445.883 219.436 447.588 221.708 449.257 225.045C452.919 232.369 455.556 243.562 455.556 256C455.556 268.438 452.919 279.63 449.256 286.955C445.594 294.279 441.75 296.525 439.714 296.525C437.678 296.525 433.834 294.279 430.171 286.955C426.508 279.631 423.874 268.438 423.874 256C423.874 255.747 423.882 255.498 423.884 255.246C426.231 257.087 428.839 258.051 431.488 258.056C435.853 258.056 440.038 255.455 443.125 250.826C446.211 246.196 447.945 239.918 447.945 233.371C447.943 227.76 446.667 222.317 444.327 217.939ZM247.194 248.259C241.881 248.259 237.217 249.793 234.431 251.65C231.644 253.508 231.083 255.025 231.083 256C231.083 256.975 231.644 258.492 234.431 260.35C237.217 262.207 241.881 263.74 247.194 263.74C252.508 263.74 257.174 262.207 259.96 260.35C262.746 258.492 263.308 256.975 263.308 256C263.308 255.025 262.746 253.508 259.96 251.65C257.174 249.793 252.508 248.259 247.194 248.259ZM196.972 382.178C191.658 382.178 186.994 383.711 184.208 385.568C181.422 387.426 180.86 388.943 180.86 389.918C180.86 390.893 181.422 392.41 184.208 394.268C186.994 396.125 191.658 397.658 196.972 397.658C202.285 397.658 206.951 396.125 209.737 394.268C212.524 392.41 213.085 390.893 213.085 389.918C213.085 388.943 212.524 387.426 209.737 385.568C206.951 383.711 202.285 382.178 196.972 382.178Z" fill="#444856"/>
</svg>
