<svg width="446" height="50" viewBox="0 0 446 50" fill="none" xmlns="http://www.w3.org/2000/svg">
<path d="M15.1533 2H44.9268C46.2199 2.00021 47.1729 3.20926 46.8711 4.4668L36.791 46.4668C36.5752 47.3659 35.7713 47.9999 34.8467 48H5.07324C3.78005 47.9998 2.8271 46.7907 3.12891 45.5332L13.209 3.5332C13.4248 2.6341 14.2287 2.00012 15.1533 2Z" fill="#B60F3C" stroke="#B60F3C" stroke-width="4"/>
<path d="M59.1533 2H88.9268C90.2199 2.00021 91.1729 3.20926 90.8711 4.4668L80.791 46.4668C80.5752 47.3659 79.7713 47.9999 78.8467 48H49.0732C47.7801 47.9998 46.8271 46.7907 47.1289 45.5332L57.209 3.5332C57.4248 2.6341 58.2287 2.00012 59.1533 2Z" fill="#B60F3C" stroke="#B60F3C" stroke-width="4"/>
<path d="M103.153 2H132.927C134.22 2.00021 135.173 3.20926 134.871 4.4668L124.791 46.4668C124.575 47.3659 123.771 47.9999 122.847 48H93.0732C91.7801 47.9998 90.8271 46.7907 91.1289 45.5332L101.209 3.5332C101.425 2.6341 102.229 2.00012 103.153 2Z" fill="#B60F3C" stroke="#B60F3C" stroke-width="4"/>
<path d="M147.153 2H176.927C178.22 2.00021 179.173 3.20926 178.871 4.4668L168.791 46.4668C168.575 47.3659 167.771 47.9999 166.847 48H137.073C135.78 47.9998 134.827 46.7907 135.129 45.5332L145.209 3.5332C145.425 2.6341 146.229 2.00012 147.153 2Z" fill="#B60F3C" stroke="#B60F3C" stroke-width="4"/>
<path d="M191.153 2H220.927C222.22 2.00021 223.173 3.20926 222.871 4.4668L212.791 46.4668C212.575 47.3659 211.771 47.9999 210.847 48H181.073C179.78 47.9998 178.827 46.7907 179.129 45.5332L189.209 3.5332C189.425 2.6341 190.229 2.00012 191.153 2Z" stroke="#B60F3C" stroke-width="4"/>
<path d="M235.153 2H264.927C266.22 2.00021 267.173 3.20926 266.871 4.4668L256.791 46.4668C256.575 47.3659 255.771 47.9999 254.847 48H225.073C223.78 47.9998 222.827 46.7907 223.129 45.5332L233.209 3.5332C233.425 2.6341 234.229 2.00012 235.153 2Z" stroke="#B60F3C" stroke-width="4"/>
<path d="M279.153 2H308.927C310.22 2.00021 311.173 3.20926 310.871 4.4668L300.791 46.4668C300.575 47.3659 299.771 47.9999 298.847 48H269.073C267.78 47.9998 266.827 46.7907 267.129 45.5332L277.209 3.5332C277.425 2.6341 278.229 2.00012 279.153 2Z" stroke="#B60F3C" stroke-width="4"/>
<path d="M323.153 2H352.927C354.22 2.00021 355.173 3.20926 354.871 4.4668L344.791 46.4668C344.575 47.3659 343.771 47.9999 342.847 48H313.073C311.78 47.9998 310.827 46.7907 311.129 45.5332L321.209 3.5332C321.425 2.6341 322.229 2.00012 323.153 2Z" stroke="#B60F3C" stroke-width="4"/>
<path d="M367.153 2H396.927C398.22 2.00021 399.173 3.20926 398.871 4.4668L388.791 46.4668C388.575 47.3659 387.771 47.9999 386.847 48H357.073C355.78 47.9998 354.827 46.7907 355.129 45.5332L365.209 3.5332C365.425 2.6341 366.229 2.00012 367.153 2Z" stroke="#B60F3C" stroke-width="4"/>
<path d="M411.153 2H440.927C442.22 2.00021 443.173 3.20926 442.871 4.4668L432.791 46.4668C432.575 47.3659 431.771 47.9999 430.847 48H401.073C399.78 47.9998 398.827 46.7907 399.129 45.5332L409.209 3.5332C409.425 2.6341 410.229 2.00012 411.153 2Z" stroke="#B60F3C" stroke-width="4"/>
</svg>
