<svg width="60" height="60" viewBox="0 0 60 60" fill="none" xmlns="http://www.w3.org/2000/svg">
<path fill-rule="evenodd" clip-rule="evenodd" d="M39 57.1211L21 57.1211L18 60L13 60L1.1365e-06 47L4.72083e-06 5.99999L6.00001 -4.72083e-06L8.00001 -4.54598e-06L9.00001 0.999996L9 10L12 13L48 13L51 10L51 0.999999L52 -6.99382e-07L54 -5.24537e-07L60 6L60 47L47 60L42 60L39 57.1211ZM58 46L58 25L48 15L12 15L2 25L2 46L11 55L49 55L58 46Z" fill="#B8A46A"/>
<path d="M17.622 10V2.98L24.0277 2.98V3.76975L18.4117 3.76975V6.09025L22.926 6.09025V6.88975L18.4117 6.88975V9.21025L24.0277 9.21025V10L17.622 10ZM25.7567 10V2.98H26.8389L29.7542 6.451L32.6694 2.98H33.7517V10H32.9619V3.877L29.7542 7.68925L26.5464 3.877V10L25.7567 10ZM35.7771 10V2.98975L41.6271 2.98975C41.8416 2.98975 42.0366 3.045 42.2121 3.1555C42.3941 3.2595 42.5371 3.39925 42.6411 3.57475C42.7451 3.75025 42.7971 3.94525 42.7971 4.15975V6.217C42.7971 6.4315 42.7451 6.6265 42.6411 6.802C42.5371 6.9775 42.3941 7.1205 42.2121 7.231C42.0366 7.335 41.8416 7.387 41.6271 7.387L36.5669 7.387V10H35.7771ZM36.9471 6.5875H41.6271C41.7311 6.5875 41.8189 6.55175 41.8904 6.48025C41.9684 6.40875 42.0074 6.321 42.0074 6.217V4.15975C42.0074 4.05575 41.9684 3.968 41.8904 3.8965C41.8189 3.8185 41.7311 3.7795 41.6271 3.7795L36.9471 3.7795C36.8431 3.7795 36.7521 3.8185 36.6741 3.8965C36.6026 3.968 36.5669 4.05575 36.5669 4.15975V6.217C36.5669 6.321 36.6026 6.40875 36.6741 6.48025C36.7521 6.55175 36.8431 6.5875 36.9471 6.5875Z" fill="#B9B29D"/>
</svg>
