<svg width="60" height="50" viewBox="0 0 60 50" fill="none" xmlns="http://www.w3.org/2000/svg">
<path fill-rule="evenodd" clip-rule="evenodd" d="M39 47.1211L21 47.1211L18 50L13 50L-6.75281e-05 37L-6.84141e-05 3.49996L3.49993 -6.97892e-05L3.99993 -3.9228e-05L4.99993 0.999961L4.99993 1.49996L1.99993 4.49996L1.99993 9.99996L4.99993 12.9999L54.9999 13L57.9999 9.99996L57.9999 4.49996L54.9999 1.49996L54.9999 0.999961L55.9999 -3.84967e-05L56.4999 -3.8453e-05L59.9999 3.49996L59.9999 37L47 50L42 50L39 47.1211ZM58 36L57.9999 24.9999L47.9999 14.9999L11.9999 14.9999L1.99993 24.9999L2 36L11 45L49 45L58 36Z" fill="#B60F3C"/>
</svg>
