<svg width="60" height="60" viewBox="0 0 60 60" fill="none" xmlns="http://www.w3.org/2000/svg">
<path fill-rule="evenodd" clip-rule="evenodd" d="M39 57.1211L21 57.1211L18 60L13 60L1.1365e-06 47L4.72083e-06 5.99999L6.00001 -4.72083e-06L8.00001 -4.54598e-06L9.00001 0.999996L9 10L12 13L48 13L51 10L51 0.999999L52 -6.99382e-07L54 -5.24537e-07L60 6L60 47L47 60L42 60L39 57.1211ZM58 46L58 25L48 15L12 15L2 25L2 46L11 55L49 55L58 46Z" fill="#B8A46A"/>
<path d="M20.8706 10V2.98L21.6701 2.98V10H20.8706ZM23.8334 10V2.98L24.9156 2.98L30.0636 9.103V2.98L30.8534 2.98V10H29.7711L24.6231 3.877V10H23.8334ZM35.6897 10V3.76975H32.5697V2.98L39.5897 2.98V3.76975L36.4794 3.76975V10H35.6897Z" fill="#B9B29D"/>
</svg>
