<svg width="60" height="50" viewBox="0 0 60 50" fill="none" xmlns="http://www.w3.org/2000/svg">
<path fill-rule="evenodd" clip-rule="evenodd" d="M21 47.1211L39 47.1211L42 50L47 50L60 37L60 3.4999L56.5 -0.00012701L56 -9.64484e-05L55 0.999904L55 1.4999L58 4.4999L58 9.9999L55 12.9999L5 12.9999L2 9.9999L2 4.4999L5 1.4999L5 0.999904L4 -9.57171e-05L3.5 -9.56734e-05L-3.42934e-06 3.4999L-1.1365e-06 37L13 50L18 50L21 47.1211ZM2 36L2 24.9999L12 14.9999L48 14.9999L58 24.9999L58 36L49 45L11 45L2 36Z" fill="#B8A46A"/>
<path d="M5.48972 10L5.48972 4.24L6.14572 4.24L6.14572 10H5.48972ZM7.52066 10L7.52066 4.24H8.40866L12.6327 9.264L12.6327 4.24H13.2807L13.2807 10H12.3927L8.16866 4.976L8.16866 10L7.52066 10ZM14.6569 10L14.6569 4.24H15.3129L15.3129 10H14.6569ZM18.9598 10V4.888L16.3998 4.888V4.24L22.1598 4.24V4.888L19.6078 4.888V10H18.9598ZM23.2382 10V4.24H23.8942V10H23.2382ZM25.2851 10V5.2C25.2851 5.024 25.3278 4.864 25.4131 4.72C25.4984 4.57067 25.6131 4.45333 25.7571 4.368C25.9064 4.28267 26.0691 4.24 26.2451 4.24L30.0851 4.24C30.2611 4.24 30.4211 4.28267 30.5651 4.368C30.7144 4.45333 30.8318 4.57067 30.9171 4.72C31.0024 4.864 31.0451 5.024 31.0451 5.2V10H30.3971V7.896L25.9331 7.896V10H25.2851ZM25.9331 7.248L30.3971 7.248V5.2C30.3971 5.11467 30.3651 5.04267 30.3011 4.984C30.2424 4.92 30.1704 4.888 30.0851 4.888L26.2451 4.888C26.1598 4.888 26.0851 4.92 26.0211 4.984C25.9624 5.04267 25.9331 5.11467 25.9331 5.2V7.248ZM34.6286 10V4.888H32.0686V4.24H37.8286V4.888H35.2766V10H34.6286ZM38.9069 10V4.24L39.5629 4.24V10H38.9069ZM44.1058 10L40.7698 4.24H41.5298L44.4818 9.368L47.4258 4.24H48.1858L44.8578 10H44.1058ZM49.3773 10V4.24L54.6333 4.24V4.888L50.0253 4.888V6.792H53.7293V7.448H50.0253V9.352L54.6333 9.352V10L49.3773 10Z" fill="#B9B29D"/>
</svg>
