<svg width="60" height="50" viewBox="0 0 60 50" fill="none" xmlns="http://www.w3.org/2000/svg">
<path d="M10.0832 10L6.74719 4.24H7.50719L10.4592 9.368L13.4032 4.24H14.1632L10.8352 10L10.0832 10ZM16.1024 10C15.9264 10 15.7637 9.95733 15.6144 9.872C15.4704 9.78667 15.3557 9.672 15.2704 9.528C15.185 9.37867 15.1424 9.216 15.1424 9.04V8.816H15.7904V9.04C15.7904 9.12533 15.8197 9.2 15.8784 9.264C15.9424 9.32267 16.017 9.352 16.1024 9.352H19.9424C20.0277 9.352 20.0997 9.32267 20.1584 9.264C20.2224 9.2 20.2544 9.12533 20.2544 9.04V7.752C20.2544 7.66667 20.2224 7.59467 20.1584 7.536C20.0997 7.47733 20.0277 7.448 19.9424 7.448L16.1024 7.448C15.9264 7.448 15.7637 7.40533 15.6144 7.32C15.4704 7.22933 15.3557 7.112 15.2704 6.968C15.185 6.824 15.1424 6.664 15.1424 6.488V5.2C15.1424 5.024 15.185 4.864 15.2704 4.72C15.3557 4.57067 15.4704 4.45333 15.6144 4.368C15.7637 4.28267 15.9264 4.24 16.1024 4.24H19.9424C20.1184 4.24 20.2784 4.28267 20.4224 4.368C20.5717 4.45333 20.689 4.57067 20.7744 4.72C20.8597 4.864 20.9024 5.024 20.9024 5.2V5.424H20.2544V5.2C20.2544 5.11467 20.2224 5.04267 20.1584 4.984C20.0997 4.92 20.0277 4.888 19.9424 4.888H16.1024C16.017 4.888 15.9424 4.92 15.8784 4.984C15.8197 5.04267 15.7904 5.11467 15.7904 5.2V6.488C15.7904 6.57333 15.8197 6.64533 15.8784 6.704C15.9424 6.76267 16.017 6.792 16.1024 6.792L19.9424 6.792C20.1184 6.792 20.2784 6.83733 20.4224 6.928C20.5717 7.01333 20.689 7.128 20.7744 7.272C20.8597 7.416 20.9024 7.576 20.9024 7.752V9.04C20.9024 9.216 20.8597 9.37867 20.7744 9.528C20.689 9.672 20.5717 9.78667 20.4224 9.872C20.2784 9.95733 20.1184 10 19.9424 10H16.1024ZM22.1445 10V9.344H22.8005V10H22.1445ZM27.7711 10C27.5951 10 27.4325 9.95733 27.2831 9.872C27.1391 9.78667 27.0245 9.672 26.9391 9.528C26.8538 9.37867 26.8111 9.216 26.8111 9.04V8.816H27.4591V9.04C27.4591 9.12533 27.4885 9.2 27.5471 9.264C27.6111 9.32267 27.6858 9.352 27.7711 9.352H31.6111C31.6965 9.352 31.7685 9.32267 31.8271 9.264C31.8911 9.2 31.9231 9.12533 31.9231 9.04V7.752C31.9231 7.66667 31.8911 7.59467 31.8271 7.536C31.7685 7.47733 31.6965 7.448 31.6111 7.448L27.7711 7.448C27.5951 7.448 27.4325 7.40533 27.2831 7.32C27.1391 7.22933 27.0245 7.112 26.9391 6.968C26.8538 6.824 26.8111 6.664 26.8111 6.488V5.2C26.8111 5.024 26.8538 4.864 26.9391 4.72C27.0245 4.57067 27.1391 4.45333 27.2831 4.368C27.4325 4.28267 27.5951 4.24 27.7711 4.24L31.6111 4.24C31.7871 4.24 31.9471 4.28267 32.0911 4.368C32.2405 4.45333 32.3578 4.57067 32.4431 4.72C32.5285 4.864 32.5711 5.024 32.5711 5.2V5.424H31.9231V5.2C31.9231 5.11467 31.8911 5.04267 31.8271 4.984C31.7685 4.92 31.6965 4.888 31.6111 4.888L27.7711 4.888C27.6858 4.888 27.6111 4.92 27.5471 4.984C27.4885 5.04267 27.4591 5.11467 27.4591 5.2V6.488C27.4591 6.57333 27.4885 6.64533 27.5471 6.704C27.6111 6.76267 27.6858 6.792 27.7711 6.792L31.6111 6.792C31.7871 6.792 31.9471 6.83733 32.0911 6.928C32.2405 7.01333 32.3578 7.128 32.4431 7.272C32.5285 7.416 32.5711 7.576 32.5711 7.752V9.04C32.5711 9.216 32.5285 9.37867 32.4431 9.528C32.3578 9.672 32.2405 9.78667 32.0911 9.872C31.9471 9.95733 31.7871 10 31.6111 10H27.7711ZM36.1013 10V4.888L33.5413 4.888V4.24L39.3013 4.24V4.888H36.7493V10H36.1013ZM41.2436 10C41.0676 10 40.9049 9.95733 40.7556 9.872C40.6116 9.78667 40.4969 9.672 40.4116 9.528C40.3262 9.37867 40.2836 9.216 40.2836 9.04V4.24H40.9316V9.04C40.9316 9.12533 40.9609 9.2 41.0196 9.264C41.0836 9.32267 41.1582 9.352 41.2436 9.352L45.0836 9.352C45.1689 9.352 45.2409 9.32267 45.2996 9.264C45.3636 9.2 45.3956 9.12533 45.3956 9.04V4.24H46.0436V9.04C46.0436 9.216 46.0009 9.37867 45.9156 9.528C45.8302 9.672 45.7129 9.78667 45.5636 9.872C45.4196 9.95733 45.2596 10 45.0836 10L41.2436 10ZM47.3246 10V4.24H48.2126L52.4366 9.264V4.24H53.0846V10H52.1966L47.9726 4.976V10H47.3246Z" fill="#B9B29D"/>
<path fill-rule="evenodd" clip-rule="evenodd" d="M39 47.1211L21 47.1211L18 50L13 50L4.95119e-06 37L4.06515e-06 3.50007L3.5 3.70223e-05L4 6.75836e-05L5 1.00007L5 1.50007L2 4.50007L2 10.0001L5 13L55 13.0001L58 10.0001L58 4.50007L55 1.50007L55 1.00007L56 6.83149e-05L56.5 6.83586e-05L60 3.50007L60 37L47 50L42 50L39 47.1211ZM58 36L58 25L48 15L12 15L2.00001 25L2 36L11 45L49 45L58 36Z" fill="#B8A46A"/>
</svg>
