<svg width="60" height="60" viewBox="0 0 60 60" fill="none" xmlns="http://www.w3.org/2000/svg">
<path fill-rule="evenodd" clip-rule="evenodd" d="M39 57.1211L21 57.1211L18 60L13 60L1.1365e-06 47L4.72083e-06 5.99999L6.00001 -4.72083e-06L8.00001 -4.54598e-06L9.00001 0.999996L9 10L12 13L48 13L51 10L51 0.999999L52 -6.99382e-07L54 -5.24537e-07L60 6L60 47L47 60L42 60L39 57.1211ZM58 46L58 25L48 15L12 15L2 25L2 46L11 55L49 55L58 46Z" fill="#B8A46A"/>
<path d="M13.0262 10L13.0262 2.98L18.574 2.98C18.7885 2.98 18.9835 3.032 19.159 3.136C19.341 3.24 19.484 3.383 19.588 3.565C19.692 3.7405 19.744 3.9355 19.744 4.15V5.64175C19.744 5.73275 19.731 5.82375 19.705 5.91475C19.6855 5.99925 19.6562 6.0805 19.6172 6.1585C19.7602 6.373 19.8675 6.55825 19.939 6.71425C20.0105 6.87025 20.0462 7.0295 20.0462 7.192V8.83C20.0462 9.0445 19.9942 9.24275 19.8902 9.42475C19.7862 9.60025 19.6432 9.74 19.4612 9.844C19.2857 9.948 19.0907 10 18.8762 10H13.0262ZM14.1962 9.21025H18.8762C18.9802 9.21025 19.068 9.1745 19.1395 9.103C19.2175 9.025 19.2565 8.934 19.2565 8.83V7.192C19.2565 7.088 19.2175 7.00025 19.1395 6.92875C19.068 6.85075 18.9802 6.81175 18.8762 6.81175L14.1962 6.81175C14.0922 6.81175 14.0012 6.85075 13.9232 6.92875C13.8517 7.00025 13.816 7.088 13.816 7.192L13.816 8.83C13.816 8.934 13.8517 9.025 13.9232 9.103C14.0012 9.1745 14.0922 9.21025 14.1962 9.21025ZM14.1962 6.022L18.574 6.022C18.678 6.022 18.7657 5.98625 18.8372 5.91475C18.9087 5.83675 18.9445 5.74575 18.9445 5.64175V4.15C18.9445 4.046 18.9087 3.95825 18.8372 3.88675C18.7657 3.80875 18.678 3.76975 18.574 3.76975L14.1962 3.76975C14.0922 3.76975 14.0012 3.80875 13.9232 3.88675C13.8517 3.95825 13.816 4.046 13.816 4.15V5.64175C13.816 5.74575 13.8517 5.83675 13.9232 5.91475C14.0012 5.98625 14.0922 6.022 14.1962 6.022ZM23.2348 10C23.0203 10 22.822 9.948 22.64 9.844C22.4645 9.74 22.3248 9.60025 22.2208 9.42475C22.1168 9.24275 22.0648 9.0445 22.0648 8.83V4.15C22.0648 3.9355 22.1168 3.7405 22.2208 3.565C22.3248 3.383 22.4645 3.24 22.64 3.136C22.822 3.032 23.0203 2.98 23.2348 2.98L27.9148 2.98C28.1293 2.98 28.3243 3.032 28.4998 3.136C28.6818 3.24 28.8248 3.383 28.9288 3.565C29.0328 3.7405 29.0848 3.9355 29.0848 4.15V8.83C29.0848 9.0445 29.0328 9.24275 28.9288 9.42475C28.8248 9.60025 28.6818 9.74 28.4998 9.844C28.3243 9.948 28.1293 10 27.9148 10L23.2348 10ZM23.2348 9.21025L27.9148 9.21025C28.0188 9.21025 28.1065 9.1745 28.178 9.103C28.256 9.025 28.295 8.934 28.295 8.83V4.15C28.295 4.046 28.256 3.95825 28.178 3.88675C28.1065 3.80875 28.0188 3.76975 27.9148 3.76975L23.2348 3.76975C23.1308 3.76975 23.0398 3.80875 22.9618 3.88675C22.8903 3.95825 22.8545 4.046 22.8545 4.15V8.83C22.8545 8.934 22.8903 9.025 22.9618 9.103C23.0398 9.1745 23.1308 9.21025 23.2348 9.21025ZM31.153 10V2.98L37.003 2.98C37.2175 2.98 37.4125 3.032 37.588 3.136C37.77 3.24 37.913 3.383 38.017 3.565C38.121 3.7405 38.173 3.9355 38.173 4.15V8.83C38.173 9.0445 38.121 9.24275 38.017 9.42475C37.913 9.60025 37.77 9.74 37.588 9.844C37.4125 9.948 37.2175 10 37.003 10H31.153ZM32.323 9.21025H37.003C37.107 9.21025 37.1947 9.1745 37.2662 9.103C37.3442 9.025 37.3832 8.934 37.3832 8.83V4.15C37.3832 4.046 37.3442 3.95825 37.2662 3.88675C37.1947 3.80875 37.107 3.76975 37.003 3.76975L32.323 3.76975C32.219 3.76975 32.128 3.80875 32.05 3.88675C31.9785 3.95825 31.9427 4.046 31.9427 4.15V8.83C31.9427 8.934 31.9785 9.025 32.05 9.103C32.128 9.1745 32.219 9.21025 32.323 9.21025ZM43.2331 10V7.35775L40.0058 2.98H40.9126L43.6328 6.412L46.3238 2.98L47.2501 2.98L44.0228 7.35775V10H43.2331Z" fill="#B9B29D"/>
</svg>
