<svg width="60" height="60" viewBox="0 0 60 60" fill="none" xmlns="http://www.w3.org/2000/svg">
<path fill-rule="evenodd" clip-rule="evenodd" d="M39 57.1211L21 57.1211L18 60L13 60L1.1365e-06 47L4.72083e-06 5.99999L6.00001 -4.72083e-06L8.00001 -4.54598e-06L9.00001 0.999996L9 10L12 13L48 13L51 10L51 0.999999L52 -6.99382e-07L54 -5.24537e-07L60 6L60 47L47 60L42 60L39 57.1211ZM58 46L58 25L48 15L12 15L2 25L2 46L11 55L49 55L58 46Z" fill="#B8A46A"/>
<path d="M14.3717 10C14.1572 10 13.9589 9.948 13.7769 9.844C13.6014 9.74 13.4617 9.60025 13.3577 9.42475C13.2537 9.24275 13.2017 9.0445 13.2017 8.83L13.2017 4.15C13.2017 3.9355 13.2537 3.7405 13.3577 3.565C13.4617 3.383 13.6014 3.24 13.7769 3.136C13.9589 3.032 14.1572 2.98 14.3717 2.98L20.2022 2.98V3.76975L14.3717 3.76975C14.2677 3.76975 14.1767 3.80875 14.0987 3.88675C14.0272 3.95825 13.9914 4.046 13.9914 4.15L13.9914 8.83C13.9914 8.934 14.0272 9.025 14.0987 9.103C14.1767 9.1745 14.2677 9.21025 14.3717 9.21025H20.2022V10H14.3717ZM23.3443 10C23.1298 10 22.9315 9.948 22.7495 9.844C22.574 9.74 22.4343 9.60025 22.3303 9.42475C22.2263 9.24275 22.1743 9.0445 22.1743 8.83V4.15C22.1743 3.9355 22.2263 3.7405 22.3303 3.565C22.4343 3.383 22.574 3.24 22.7495 3.136C22.9315 3.032 23.1298 2.98 23.3443 2.98L28.0243 2.98C28.2388 2.98 28.4338 3.032 28.6093 3.136C28.7913 3.24 28.9343 3.383 29.0383 3.565C29.1423 3.7405 29.1943 3.9355 29.1943 4.15V8.83C29.1943 9.0445 29.1423 9.24275 29.0383 9.42475C28.9343 9.60025 28.7913 9.74 28.6093 9.844C28.4338 9.948 28.2388 10 28.0243 10L23.3443 10ZM23.3443 9.21025L28.0243 9.21025C28.1283 9.21025 28.216 9.1745 28.2875 9.103C28.3655 9.025 28.4045 8.934 28.4045 8.83V4.15C28.4045 4.046 28.3655 3.95825 28.2875 3.88675C28.216 3.80875 28.1283 3.76975 28.0243 3.76975L23.3443 3.76975C23.2403 3.76975 23.1493 3.80875 23.0713 3.88675C22.9998 3.95825 22.964 4.046 22.964 4.15V8.83C22.964 8.934 22.9998 9.025 23.0713 9.103C23.1493 9.1745 23.2403 9.21025 23.3443 9.21025ZM32.3935 10C32.179 10 31.9807 9.948 31.7987 9.844C31.6232 9.74 31.4835 9.60025 31.3795 9.42475C31.2755 9.24275 31.2235 9.0445 31.2235 8.83V4.15C31.2235 3.9355 31.2755 3.7405 31.3795 3.565C31.4835 3.383 31.6232 3.24 31.7987 3.136C31.9807 3.032 32.179 2.98 32.3935 2.98L37.0735 2.98C37.288 2.98 37.483 3.032 37.6585 3.136C37.8405 3.24 37.9835 3.383 38.0875 3.565C38.1915 3.7405 38.2435 3.9355 38.2435 4.15V8.83C38.2435 9.0445 38.1915 9.24275 38.0875 9.42475C37.9835 9.60025 37.8405 9.74 37.6585 9.844C37.483 9.948 37.288 10 37.0735 10H32.3935ZM32.3935 9.21025H37.0735C37.1775 9.21025 37.2652 9.1745 37.3367 9.103C37.4147 9.025 37.4537 8.934 37.4537 8.83V4.15C37.4537 4.046 37.4147 3.95825 37.3367 3.88675C37.2652 3.80875 37.1775 3.76975 37.0735 3.76975L32.3935 3.76975C32.2895 3.76975 32.1985 3.80875 32.1205 3.88675C32.049 3.95825 32.0132 4.046 32.0132 4.15V8.83C32.0132 8.934 32.049 9.025 32.1205 9.103C32.1985 9.1745 32.2895 9.21025 32.3935 9.21025ZM40.3019 10V2.97025H41.0917V9.21025L47.3219 9.21025V10L40.3019 10Z" fill="#B9B29D"/>
</svg>
