<svg width="60" height="60" viewBox="0 0 60 60" fill="none" xmlns="http://www.w3.org/2000/svg">
<path fill-rule="evenodd" clip-rule="evenodd" d="M39 57.1211L21 57.1211L18 60L13 60L1.1365e-06 47L4.72083e-06 5.99999L6.00001 -4.72083e-06L8.00001 -4.54598e-06L9.00001 0.999996L9 10L12 13L48 13L51 10L51 0.999999L52 -6.99382e-07L54 -5.24537e-07L60 6L60 47L47 60L42 60L39 57.1211ZM58 46L58 25L48 15L12 15L2 25L2 46L11 55L49 55L58 46Z" fill="#B8A46A"/>
<path d="M13.6068 10L13.6068 4.15C13.6068 3.9355 13.6588 3.7405 13.7628 3.565C13.8668 3.383 14.0065 3.24 14.182 3.136C14.364 3.032 14.5623 2.98 14.7768 2.98L19.4568 2.98C19.6713 2.98 19.8663 3.032 20.0418 3.136C20.2238 3.24 20.3668 3.383 20.4708 3.565C20.5748 3.7405 20.6268 3.9355 20.6268 4.15V10L19.837 10V7.43575L14.3965 7.43575L14.3965 10H13.6068ZM14.3965 6.646L19.837 6.646V4.15C19.837 4.046 19.798 3.95825 19.72 3.88675C19.6485 3.80875 19.5608 3.76975 19.4568 3.76975L14.7768 3.76975C14.6728 3.76975 14.5818 3.80875 14.5038 3.88675C14.4323 3.95825 14.3965 4.046 14.3965 4.15V6.646ZM25.4817 10V3.76975L22.3617 3.76975V2.98L29.3817 2.98V3.76975L26.2714 3.76975V10L25.4817 10ZM33.8549 10V3.76975L30.7349 3.76975V2.98L37.7549 2.98V3.76975L34.6446 3.76975V10H33.8549ZM45.3871 10L43.0958 7.27H44.1293L46.4303 9.99025V10H45.3871ZM39.4591 10V2.98975L45.3091 2.98975C45.5236 2.98975 45.7186 3.045 45.8941 3.1555C46.0761 3.2595 46.2191 3.39925 46.3231 3.57475C46.4271 3.75025 46.4791 3.94525 46.4791 4.15975V6.217C46.4791 6.4315 46.4271 6.6265 46.3231 6.802C46.2191 6.9775 46.0761 7.1205 45.8941 7.231C45.7186 7.335 45.5236 7.387 45.3091 7.387L40.2488 7.387V10H39.4591ZM40.6291 6.5875L45.3091 6.5875C45.4131 6.5875 45.5008 6.55175 45.5723 6.48025C45.6503 6.40875 45.6893 6.321 45.6893 6.217V4.15975C45.6893 4.05575 45.6503 3.968 45.5723 3.8965C45.5008 3.8185 45.4131 3.7795 45.3091 3.7795L40.6291 3.7795C40.5251 3.7795 40.4341 3.8185 40.3561 3.8965C40.2846 3.968 40.2488 4.05575 40.2488 4.15975V6.217C40.2488 6.321 40.2846 6.40875 40.3561 6.48025C40.4341 6.55175 40.5251 6.5875 40.6291 6.5875Z" fill="#B9B29D"/>
</svg>
