<svg width="60" height="60" viewBox="0 0 60 60" fill="none" xmlns="http://www.w3.org/2000/svg">
<path fill-rule="evenodd" clip-rule="evenodd" d="M39 57.1211L21 57.1211L18 60L13 60L1.1365e-06 47L4.72083e-06 5.99999L6.00001 -4.72083e-06L8.00001 -4.54598e-06L9.00001 0.999996L9 10L12 13L48 13L51 10L51 0.999999L52 -6.99382e-07L54 -5.24537e-07L60 6L60 47L47 60L42 60L39 57.1211ZM58 46L58 25L48 15L12 15L2 25L2 46L11 55L49 55L58 46Z" fill="#B8A46A"/>
<path d="M24.2208 10L21.9296 7.27H22.9631L25.2641 9.99025V10H24.2208ZM18.2928 10V2.98975L24.1428 2.98975C24.3573 2.98975 24.5523 3.045 24.7278 3.1555C24.9098 3.2595 25.0528 3.39925 25.1568 3.57475C25.2608 3.75025 25.3128 3.94525 25.3128 4.15975V6.217C25.3128 6.4315 25.2608 6.6265 25.1568 6.802C25.0528 6.9775 24.9098 7.1205 24.7278 7.231C24.5523 7.335 24.3573 7.387 24.1428 7.387L19.0826 7.387V10H18.2928ZM19.4628 6.5875L24.1428 6.5875C24.2468 6.5875 24.3346 6.55175 24.4061 6.48025C24.4841 6.40875 24.5231 6.321 24.5231 6.217V4.15975C24.5231 4.05575 24.4841 3.968 24.4061 3.8965C24.3346 3.8185 24.2468 3.7795 24.1428 3.7795L19.4628 3.7795C19.3588 3.7795 19.2678 3.8185 19.1898 3.8965C19.1183 3.968 19.0826 4.05575 19.0826 4.15975V6.217C19.0826 6.321 19.1183 6.40875 19.1898 6.48025C19.2678 6.55175 19.3588 6.5875 19.4628 6.5875ZM27.333 10V2.98L33.7387 2.98V3.76975L28.1227 3.76975V6.09025L32.637 6.09025V6.88975L28.1227 6.88975V9.21025H33.7387V10H27.333ZM35.7728 10V2.98L42.1786 2.98V3.76975L36.5626 3.76975V6.09025L41.0768 6.09025V6.88975L36.5626 6.88975V10H35.7728Z" fill="#B9B29D"/>
</svg>
