<svg width="60" height="60" viewBox="0 0 60 60" fill="none" xmlns="http://www.w3.org/2000/svg">
<path fill-rule="evenodd" clip-rule="evenodd" d="M39 57.1211L21 57.1211L18 60L13 60L1.1365e-06 47L4.72083e-06 5.99999L6.00001 -4.72083e-06L8.00001 -4.54598e-06L9.00001 0.999996L9 10L12 13L48 13L51 10L51 0.999999L52 -6.99382e-07L54 -5.24537e-07L60 6L60 47L47 60L42 60L39 57.1211ZM58 46L58 25L48 15L12 15L2 25L2 46L11 55L49 55L58 46Z" fill="#B8A46A"/>
<path d="M13.3638 10L13.3638 2.97025L14.1535 2.97025L14.1535 9.21025L20.3838 9.21025V10L13.3638 10ZM23.0777 10C22.8632 10 22.6649 9.948 22.4829 9.844C22.3074 9.74 22.1677 9.60025 22.0637 9.42475C21.9597 9.24275 21.9077 9.0445 21.9077 8.83V2.98H22.6974V8.83C22.6974 8.934 22.7332 9.025 22.8047 9.103C22.8827 9.1745 22.9737 9.21025 23.0777 9.21025L27.7577 9.21025C27.8617 9.21025 27.9494 9.1745 28.0209 9.103C28.0989 9.025 28.1379 8.934 28.1379 8.83V2.98H28.9277V8.83C28.9277 9.0445 28.8757 9.24275 28.7717 9.42475C28.6677 9.60025 28.5247 9.74 28.3427 9.844C28.1672 9.948 27.9722 10 27.7577 10L23.0777 10ZM32.1464 10C31.9319 10 31.7336 9.948 31.5516 9.844C31.3761 9.74 31.2364 9.60025 31.1324 9.42475C31.0284 9.24275 30.9764 9.0445 30.9764 8.83V4.15C30.9764 3.9355 31.0284 3.7405 31.1324 3.565C31.2364 3.383 31.3761 3.24 31.5516 3.136C31.7336 3.032 31.9319 2.98 32.1464 2.98L37.9769 2.98V3.76975L32.1464 3.76975C32.0424 3.76975 31.9514 3.80875 31.8734 3.88675C31.8019 3.95825 31.7661 4.046 31.7661 4.15V8.83C31.7661 8.934 31.8019 9.025 31.8734 9.103C31.9514 9.1745 32.0424 9.21025 32.1464 9.21025H37.9769V10H32.1464ZM39.9782 10V2.98H40.7777V6.09025L43.0397 6.09025L45.6527 2.98H46.6667V2.98975L43.732 6.49L46.6765 9.99025V10H45.6527L43.0397 6.88975L40.7777 6.88975V10H39.9782Z" fill="#B9B29D"/>
</svg>
