<svg width="60" height="60" viewBox="0 0 60 60" fill="none" xmlns="http://www.w3.org/2000/svg">
<path fill-rule="evenodd" clip-rule="evenodd" d="M39 57.1211L21 57.1211L18 60L13 60L1.1365e-06 47L4.72083e-06 5.99999L6.00001 -4.72083e-06L8.00001 -4.54598e-06L9.00001 0.999996L9 10L12 13L48 13L51 10L51 0.999999L52 -6.99382e-07L54 -5.24537e-07L60 6L60 47L47 60L42 60L39 57.1211ZM58 46L58 25L48 15L12 15L2 25L2 46L11 55L49 55L58 46Z" fill="#B8A46A"/>
<path d="M12.0353 10L12.0353 2.98L13.1175 2.98L16.0328 6.451L18.948 2.98H20.0303V10H19.2405V3.877L16.0328 7.68925L12.825 3.877L12.825 10H12.0353ZM23.2062 10C22.9917 10 22.7934 9.948 22.6114 9.844C22.4359 9.74 22.2962 9.60025 22.1922 9.42475C22.0882 9.24275 22.0362 9.0445 22.0362 8.83V4.15C22.0362 3.9355 22.0882 3.7405 22.1922 3.565C22.2962 3.383 22.4359 3.24 22.6114 3.136C22.7934 3.032 22.9917 2.98 23.2062 2.98L27.8862 2.98C28.1007 2.98 28.2957 3.032 28.4712 3.136C28.6532 3.24 28.7962 3.383 28.9002 3.565C29.0042 3.7405 29.0562 3.9355 29.0562 4.15V8.83C29.0562 9.0445 29.0042 9.24275 28.9002 9.42475C28.7962 9.60025 28.6532 9.74 28.4712 9.844C28.2957 9.948 28.1007 10 27.8862 10H23.2062ZM23.2062 9.21025H27.8862C27.9902 9.21025 28.0779 9.1745 28.1494 9.103C28.2274 9.025 28.2664 8.934 28.2664 8.83V4.15C28.2664 4.046 28.2274 3.95825 28.1494 3.88675C28.0779 3.80875 27.9902 3.76975 27.8862 3.76975L23.2062 3.76975C23.1022 3.76975 23.0112 3.80875 22.9332 3.88675C22.8617 3.95825 22.8259 4.046 22.8259 4.15V8.83C22.8259 8.934 22.8617 9.025 22.9332 9.103C23.0112 9.1745 23.1022 9.21025 23.2062 9.21025ZM34.6993 10L30.6336 2.98H31.5598L35.1576 9.22975L38.7456 2.98H39.6718L35.6158 10H34.6993ZM41.6114 10V2.98L48.0171 2.98V3.76975L42.4011 3.76975V6.09025L46.9154 6.09025V6.88975L42.4011 6.88975V9.21025L48.0171 9.21025V10L41.6114 10Z" fill="#B9B29D"/>
</svg>
