<svg width="60" height="60" viewBox="0 0 60 60" fill="none" xmlns="http://www.w3.org/2000/svg">
<path fill-rule="evenodd" clip-rule="evenodd" d="M39 57.1211L21 57.1211L18 60L13 60L1.1365e-06 47L4.72083e-06 5.99999L6.00001 -4.72083e-06L8.00001 -4.54598e-06L9.00001 0.999996L9 10L12 13L48 13L51 10L51 0.999999L52 -6.99382e-07L54 -5.24537e-07L60 6L60 47L47 60L42 60L39 57.1211ZM58 46L58 25L48 15L12 15L2 25L2 46L11 55L49 55L58 46Z" fill="#B8A46A"/>
<path d="M16.2658 10V3.76975L13.1458 3.76975V2.98L20.1658 2.98V3.76975L17.0556 3.76975V10H16.2658ZM21.8895 10V2.98L28.2953 2.98V3.76975L22.6793 3.76975V6.09025L27.1935 6.09025V6.88975L22.6793 6.88975V9.21025L28.2953 9.21025V10L21.8895 10ZM31.4799 10C31.2654 10 31.0671 9.948 30.8851 9.844C30.7096 9.74 30.5699 9.60025 30.4659 9.42475C30.3619 9.24275 30.3099 9.0445 30.3099 8.83V4.15C30.3099 3.9355 30.3619 3.7405 30.4659 3.565C30.5699 3.383 30.7096 3.24 30.8851 3.136C31.0671 3.032 31.2654 2.98 31.4799 2.98L37.3104 2.98V3.76975L31.4799 3.76975C31.3759 3.76975 31.2849 3.80875 31.2069 3.88675C31.1354 3.95825 31.0996 4.046 31.0996 4.15V8.83C31.0996 8.934 31.1354 9.025 31.2069 9.103C31.2849 9.1745 31.3759 9.21025 31.4799 9.21025H37.3104V10H31.4799ZM39.3117 10V2.98H40.1015V6.09025L45.7077 6.09025V2.98H46.5072V10H45.7077V6.88975L40.1015 6.88975V10H39.3117Z" fill="#B9B29D"/>
</svg>
