<svg width="60" height="50" viewBox="0 0 60 50" fill="none" xmlns="http://www.w3.org/2000/svg">
<path fill-rule="evenodd" clip-rule="evenodd" d="M39 47.1211L21 47.1211L18 50L13 50L-6.75281e-05 37L-6.84141e-05 3.49996L3.49993 -6.97892e-05L3.99993 -3.9228e-05L4.99993 0.999961L4.99993 1.49996L1.99993 4.49996L1.99993 9.99996L4.99993 12.9999L54.9999 13L57.9999 9.99996L57.9999 4.49996L54.9999 1.49996L54.9999 0.999961L55.9999 -3.84967e-05L56.4999 -3.8453e-05L59.9999 3.49996L59.9999 37L47 50L42 50L39 47.1211ZM58 36L57.9999 24.9999L47.9999 14.9999L11.9999 14.9999L1.99993 24.9999L2 36L11 45L49 45L58 36Z" fill="#B8A46A"/>
<path d="M6.66834 10L3.33234 4.24H4.09234L7.04434 9.368L9.98834 4.24H10.7483L7.42034 10H6.66834ZM12.6875 10C12.5115 10 12.3489 9.95733 12.1995 9.872C12.0555 9.78667 11.9409 9.672 11.8555 9.528C11.7702 9.37867 11.7275 9.216 11.7275 9.04V8.816H12.3755V9.04C12.3755 9.12533 12.4049 9.2 12.4635 9.264C12.5275 9.32267 12.6022 9.352 12.6875 9.352H16.5275C16.6129 9.352 16.6849 9.32267 16.7435 9.264C16.8075 9.2 16.8395 9.12533 16.8395 9.04V7.752C16.8395 7.66667 16.8075 7.59467 16.7435 7.536C16.6849 7.47733 16.6129 7.448 16.5275 7.448L12.6875 7.448C12.5115 7.448 12.3489 7.40533 12.1995 7.32C12.0555 7.22933 11.9409 7.112 11.8555 6.968C11.7702 6.824 11.7275 6.664 11.7275 6.488V5.2C11.7275 5.024 11.7702 4.864 11.8555 4.72C11.9409 4.57067 12.0555 4.45333 12.1995 4.368C12.3489 4.28267 12.5115 4.24 12.6875 4.24H16.5275C16.7035 4.24 16.8635 4.28267 17.0075 4.368C17.1569 4.45333 17.2742 4.57067 17.3595 4.72C17.4449 4.864 17.4875 5.024 17.4875 5.2V5.424H16.8395V5.2C16.8395 5.11467 16.8075 5.04267 16.7435 4.984C16.6849 4.92 16.6129 4.888 16.5275 4.888H12.6875C12.6022 4.888 12.5275 4.92 12.4635 4.984C12.4049 5.04267 12.3755 5.11467 12.3755 5.2V6.488C12.3755 6.57333 12.4049 6.64533 12.4635 6.704C12.5275 6.76267 12.6022 6.792 12.6875 6.792L16.5275 6.792C16.7035 6.792 16.8635 6.83733 17.0075 6.928C17.1569 7.01333 17.2742 7.128 17.3595 7.272C17.4449 7.416 17.4875 7.576 17.4875 7.752V9.04C17.4875 9.216 17.4449 9.37867 17.3595 9.528C17.2742 9.672 17.1569 9.78667 17.0075 9.872C16.8635 9.95733 16.7035 10 16.5275 10H12.6875ZM18.7297 10V9.344H19.3857V10H18.7297ZM23.4523 10V4.24L28.2523 4.24C28.4283 4.24 28.5883 4.28267 28.7323 4.368C28.8816 4.45333 28.9989 4.57067 29.0843 4.72C29.1696 4.864 29.2123 5.024 29.2123 5.2V9.04C29.2123 9.216 29.1696 9.37867 29.0843 9.528C28.9989 9.672 28.8816 9.78667 28.7323 9.872C28.5883 9.95733 28.4283 10 28.2523 10H23.4523ZM24.4123 9.352H28.2523C28.3376 9.352 28.4096 9.32267 28.4683 9.264C28.5323 9.2 28.5643 9.12533 28.5643 9.04V5.2C28.5643 5.11467 28.5323 5.04267 28.4683 4.984C28.4096 4.92 28.3376 4.888 28.2523 4.888L24.4123 4.888C24.3269 4.888 24.2523 4.92 24.1883 4.984C24.1296 5.04267 24.1003 5.11467 24.1003 5.2V9.04C24.1003 9.12533 24.1296 9.2 24.1883 9.264C24.2523 9.32267 24.3269 9.352 24.4123 9.352ZM30.5242 10V4.24L35.7802 4.24V4.888H31.1722V6.792L34.8762 6.792V7.448L31.1722 7.448V9.352H35.7802V10H30.5242ZM37.0492 10V5.2C37.0492 5.024 37.0918 4.864 37.1772 4.72C37.2625 4.57067 37.3772 4.45333 37.5212 4.368C37.6705 4.28267 37.8332 4.24 38.0092 4.24L41.8492 4.24C42.0252 4.24 42.1852 4.28267 42.3292 4.368C42.4785 4.45333 42.5958 4.57067 42.6812 4.72C42.7665 4.864 42.8092 5.024 42.8092 5.2V10H42.1612V7.896L37.6972 7.896V10H37.0492ZM37.6972 7.248L42.1612 7.248V5.2C42.1612 5.11467 42.1292 5.04267 42.0652 4.984C42.0065 4.92 41.9345 4.888 41.8492 4.888L38.0092 4.888C37.9238 4.888 37.8492 4.92 37.7852 4.984C37.7265 5.04267 37.6972 5.11467 37.6972 5.2V7.248ZM46.3927 10V4.888H43.8327V4.24H49.5927V4.888H47.0407V10H46.3927ZM50.599 10V4.24H51.247V6.792L55.847 6.792V4.24H56.503V10H55.847V7.448L51.247 7.448V10H50.599Z" fill="#B9B29D"/>
</svg>
