<svg width="40" height="40" viewBox="0 0 40 40" fill="none" xmlns="http://www.w3.org/2000/svg">
<rect x="0.5" y="0.5" width="39" height="39" rx="3.5" fill="black"/>
<rect x="0.5" y="0.5" width="39" height="39" rx="3.5" stroke="#252730"/>
<path d="M19.4976 27.6452H11.9976C10.893 27.6452 9.99756 26.7498 9.99756 25.6452V14.6452C9.99756 13.5406 10.893 12.6452 11.9976 12.6452H19.4976M7.5 17.6452H16.9976M7.5 22.1452H16.9976M26.5 10.25L26.4995 12.5112M26.4995 12.5112H23.4995C22.3949 12.5112 21.4995 13.4067 21.4995 14.5112V18.0112C21.4995 19.1158 22.3949 20.0112 23.4995 20.0112H29.4995C30.6041 20.0112 31.4995 20.9067 31.4995 22.0112V25.5112C31.4995 26.6158 30.6041 27.5112 29.4995 27.5112H26.4995M26.4995 12.5112H29.4995C30.6041 12.5112 31.4995 13.4067 31.4995 14.5112M21.4995 25.5112C21.4995 26.6158 22.3949 27.5112 23.4995 27.5112H26.4995M26.4995 27.5112L26.5 29.7495" stroke="#B9B29D"/>
</svg>
