<svg width="54" height="26" viewBox="0 0 54 26" fill="none" xmlns="http://www.w3.org/2000/svg">
<path d="M54 13.707L51.707 16H2.29297L0 13.707L0.707031 13L2.70703 15H51.293L53.293 13L54 13.707Z" fill="#B9B29D"/>
<path d="M23.4536 25V19.976L22.5656 21.04H21.7096L23.2216 19.24H24.1176V25H23.4536ZM27.0506 25C26.8692 25 26.7039 24.9573 26.5546 24.872C26.4106 24.7813 26.2959 24.664 26.2106 24.52C26.1252 24.3707 26.0826 24.208 26.0826 24.032V20.216C26.0826 20.0347 26.1252 19.872 26.2106 19.728C26.2959 19.5787 26.4106 19.4613 26.5546 19.376C26.7039 19.2853 26.8692 19.24 27.0506 19.24H30.9306C31.1066 19.24 31.2666 19.2853 31.4106 19.376C31.5599 19.4613 31.6772 19.5787 31.7626 19.728C31.8532 19.872 31.8986 20.0347 31.8986 20.216V24.032C31.8986 24.208 31.8532 24.3707 31.7626 24.52C31.6772 24.664 31.5599 24.7813 31.4106 24.872C31.2666 24.9573 31.1066 25 30.9306 25H27.0506ZM26.8186 24.344H30.9306C31.0159 24.344 31.0879 24.3147 31.1466 24.256C31.2106 24.192 31.2426 24.1173 31.2426 24.032V20.696L26.8186 24.344ZM26.7386 23.552L31.1546 19.904H27.0506C26.9652 19.904 26.8906 19.936 26.8266 20C26.7679 20.0587 26.7386 20.1307 26.7386 20.216V23.552Z" fill="#B9B29D"/>
</svg>
