<svg width="54" height="14" viewBox="0 0 54 14" fill="none" xmlns="http://www.w3.org/2000/svg">
<path d="M54 0.707031L51.707 3H2.29297L0 0.707031L0.707031 0L2.70703 2H51.293L53.293 0L54 0.707031Z" fill="#B9B29D"/>
<path d="M24.7994 12V7.208C24.7994 7.12267 24.7674 7.05067 24.7034 6.992C24.6448 6.928 24.5728 6.896 24.4874 6.896H20.6474V6.232H24.4874C24.6634 6.232 24.8234 6.27733 24.9674 6.368C25.1168 6.45333 25.2341 6.57067 25.3194 6.72C25.4101 6.864 25.4554 7.02667 25.4554 7.208V12H24.7994ZM28.1287 12C27.9474 12 27.782 11.9573 27.6327 11.872C27.4887 11.7813 27.374 11.664 27.2887 11.52C27.2034 11.3707 27.1607 11.208 27.1607 11.032V7.216C27.1607 7.03467 27.2034 6.872 27.2887 6.728C27.374 6.57867 27.4887 6.46133 27.6327 6.376C27.782 6.28533 27.9474 6.24 28.1287 6.24H32.0087C32.1847 6.24 32.3447 6.28533 32.4887 6.376C32.638 6.46133 32.7554 6.57867 32.8407 6.728C32.9314 6.872 32.9767 7.03467 32.9767 7.216V11.032C32.9767 11.208 32.9314 11.3707 32.8407 11.52C32.7554 11.664 32.638 11.7813 32.4887 11.872C32.3447 11.9573 32.1847 12 32.0087 12H28.1287ZM27.8967 11.344H32.0087C32.094 11.344 32.166 11.3147 32.2247 11.256C32.2887 11.192 32.3207 11.1173 32.3207 11.032V7.696L27.8967 11.344ZM27.8167 10.552L32.2327 6.904H28.1287C28.0434 6.904 27.9687 6.936 27.9047 7C27.846 7.05867 27.8167 7.13067 27.8167 7.216V10.552Z" fill="#B9B29D"/>
</svg>
