<svg width="54" height="14" viewBox="0 0 54 14" fill="none" xmlns="http://www.w3.org/2000/svg">
<path d="M54 0.707031L51.707 3H2.29297L0 0.707031L0.707031 0L2.70703 2H51.293L53.293 0L54 0.707031Z" fill="#B9B29D"/>
<path d="M21.3521 12C21.1708 12 21.0055 11.9573 20.8561 11.872C20.7121 11.7813 20.5975 11.664 20.5121 11.52C20.4268 11.3707 20.3841 11.208 20.3841 11.032V9.672C20.3841 9.56533 20.4055 9.45867 20.4481 9.352C20.4908 9.24 20.5495 9.13333 20.6241 9.032C20.5495 8.93067 20.4908 8.824 20.4481 8.712C20.4055 8.6 20.3841 8.49067 20.3841 8.384V7.208C20.3841 7.02667 20.4268 6.864 20.5121 6.72C20.5975 6.57067 20.7121 6.45333 20.8561 6.368C21.0055 6.27733 21.1708 6.232 21.3521 6.232H25.2321C25.3815 6.232 25.5201 6.272 25.6481 6.352C25.7815 6.42667 25.8961 6.528 25.9921 6.656C26.0935 6.77867 26.1628 6.90933 26.2001 7.048V8.384C26.2001 8.59733 26.1201 8.81333 25.9601 9.032C26.1201 9.24 26.2001 9.45333 26.2001 9.672V11.032C26.2001 11.208 26.1548 11.3707 26.0641 11.52C25.9788 11.664 25.8615 11.7813 25.7121 11.872C25.5681 11.9573 25.4081 12 25.2321 12H21.3521ZM21.3521 11.344H25.2321C25.3175 11.344 25.3895 11.3147 25.4481 11.256C25.5121 11.192 25.5441 11.1173 25.5441 11.032V9.672C25.5441 9.58667 25.5121 9.51467 25.4481 9.456C25.3895 9.392 25.3175 9.36 25.2321 9.36H21.3521C21.2668 9.36 21.1921 9.392 21.1281 9.456C21.0695 9.51467 21.0401 9.58667 21.0401 9.672V11.032C21.0401 11.1173 21.0695 11.192 21.1281 11.256C21.1921 11.3147 21.2668 11.344 21.3521 11.344ZM21.3521 8.792H25.2321C25.3175 8.792 25.3895 8.76267 25.4481 8.704C25.5121 8.64 25.5441 8.56533 25.5441 8.48V7.216C25.5441 7.13067 25.5121 7.05867 25.4481 7C25.3895 6.936 25.3175 6.904 25.2321 6.904H21.3521C21.2668 6.904 21.1921 6.936 21.1281 7C21.0695 7.05867 21.0401 7.13067 21.0401 7.216V8.48C21.0401 8.56533 21.0695 8.64 21.1281 8.704C21.1921 8.76267 21.2668 8.792 21.3521 8.792ZM28.824 12C28.6427 12 28.4773 11.9573 28.328 11.872C28.184 11.7813 28.0693 11.664 27.984 11.52C27.8987 11.3707 27.856 11.208 27.856 11.032V7.216C27.856 7.03467 27.8987 6.872 27.984 6.728C28.0693 6.57867 28.184 6.46133 28.328 6.376C28.4773 6.28533 28.6427 6.24 28.824 6.24H32.704C32.88 6.24 33.04 6.28533 33.184 6.376C33.3333 6.46133 33.4507 6.57867 33.536 6.728C33.6267 6.872 33.672 7.03467 33.672 7.216V11.032C33.672 11.208 33.6267 11.3707 33.536 11.52C33.4507 11.664 33.3333 11.7813 33.184 11.872C33.04 11.9573 32.88 12 32.704 12H28.824ZM28.592 11.344H32.704C32.7893 11.344 32.8613 11.3147 32.92 11.256C32.984 11.192 33.016 11.1173 33.016 11.032V7.696L28.592 11.344ZM28.512 10.552L32.928 6.904H28.824C28.7387 6.904 28.664 6.936 28.6 7C28.5413 7.05867 28.512 7.13067 28.512 7.216V10.552Z" fill="#B9B29D"/>
</svg>
