<svg width="54" height="26" viewBox="0 0 54 26" fill="none" xmlns="http://www.w3.org/2000/svg">
<path d="M54 13.707L51.707 16H2.29297L0 13.707L0.707031 13L2.70703 15H51.293L53.293 13L54 13.707Z" fill="#B9B29D"/>
<path d="M19.7176 25V19.976L18.8296 21.04H17.9736L19.4856 19.24H20.3816V25H19.7176ZM23.3146 25C23.1333 25 22.968 24.9573 22.8186 24.872C22.6746 24.7813 22.56 24.664 22.4746 24.52C22.3893 24.3707 22.3466 24.208 22.3466 24.032V20.216C22.3466 20.0347 22.3893 19.872 22.4746 19.728C22.56 19.5787 22.6746 19.4613 22.8186 19.376C22.968 19.2853 23.1333 19.24 23.3146 19.24H27.1946C27.3706 19.24 27.5306 19.2853 27.6746 19.376C27.824 19.4613 27.9413 19.5787 28.0266 19.728C28.1173 19.872 28.1626 20.0347 28.1626 20.216V24.032C28.1626 24.208 28.1173 24.3707 28.0266 24.52C27.9413 24.664 27.824 24.7813 27.6746 24.872C27.5306 24.9573 27.3706 25 27.1946 25H23.3146ZM23.0826 24.344H27.1946C27.28 24.344 27.352 24.3147 27.4106 24.256C27.4746 24.192 27.5066 24.1173 27.5066 24.032V20.696L23.0826 24.344ZM23.0026 23.552L27.4186 19.904H23.3146C23.2293 19.904 23.1546 19.936 23.0906 20C23.032 20.0587 23.0026 20.1307 23.0026 20.216V23.552ZM30.7865 25C30.6052 25 30.4398 24.9573 30.2905 24.872C30.1465 24.7813 30.0318 24.664 29.9465 24.52C29.8612 24.3707 29.8185 24.208 29.8185 24.032V20.216C29.8185 20.0347 29.8612 19.872 29.9465 19.728C30.0318 19.5787 30.1465 19.4613 30.2905 19.376C30.4398 19.2853 30.6052 19.24 30.7865 19.24H34.6665C34.8425 19.24 35.0025 19.2853 35.1465 19.376C35.2958 19.4613 35.4132 19.5787 35.4985 19.728C35.5892 19.872 35.6345 20.0347 35.6345 20.216V24.032C35.6345 24.208 35.5892 24.3707 35.4985 24.52C35.4132 24.664 35.2958 24.7813 35.1465 24.872C35.0025 24.9573 34.8425 25 34.6665 25H30.7865ZM30.5545 24.344H34.6665C34.7518 24.344 34.8238 24.3147 34.8825 24.256C34.9465 24.192 34.9785 24.1173 34.9785 24.032V20.696L30.5545 24.344ZM30.4745 23.552L34.8905 19.904H30.7865C30.7012 19.904 30.6265 19.936 30.5625 20C30.5038 20.0587 30.4745 20.1307 30.4745 20.216V23.552Z" fill="#B9B29D"/>
</svg>
