<svg width="54" height="26" viewBox="0 0 54 26" fill="none" xmlns="http://www.w3.org/2000/svg">
<path d="M54 13.707L51.707 16H2.29297L0 13.707L0.707031 13L2.70703 15H51.293L53.293 13L54 13.707Z" fill="#B9B29D"/>
<path d="M24.7994 25V20.208C24.7994 20.1227 24.7674 20.0507 24.7034 19.992C24.6448 19.928 24.5728 19.896 24.4874 19.896H20.6474V19.232H24.4874C24.6634 19.232 24.8234 19.2773 24.9674 19.368C25.1168 19.4533 25.2341 19.5707 25.3194 19.72C25.4101 19.864 25.4554 20.0267 25.4554 20.208V25H24.7994ZM28.1287 25C27.9474 25 27.782 24.9573 27.6327 24.872C27.4887 24.7813 27.374 24.664 27.2887 24.52C27.2034 24.3707 27.1607 24.208 27.1607 24.032V20.216C27.1607 20.0347 27.2034 19.872 27.2887 19.728C27.374 19.5787 27.4887 19.4613 27.6327 19.376C27.782 19.2853 27.9474 19.24 28.1287 19.24H32.0087C32.1847 19.24 32.3447 19.2853 32.4887 19.376C32.638 19.4613 32.7554 19.5787 32.8407 19.728C32.9314 19.872 32.9767 20.0347 32.9767 20.216V24.032C32.9767 24.208 32.9314 24.3707 32.8407 24.52C32.7554 24.664 32.638 24.7813 32.4887 24.872C32.3447 24.9573 32.1847 25 32.0087 25H28.1287ZM27.8967 24.344H32.0087C32.094 24.344 32.166 24.3147 32.2247 24.256C32.2887 24.192 32.3207 24.1173 32.3207 24.032V20.696L27.8967 24.344ZM27.8167 23.552L32.2327 19.904H28.1287C28.0434 19.904 27.9687 19.936 27.9047 20C27.846 20.0587 27.8167 20.1307 27.8167 20.216V23.552Z" fill="#B9B29D"/>
</svg>
