<svg width="54" height="26" viewBox="0 0 54 26" fill="none" xmlns="http://www.w3.org/2000/svg">
<path d="M54 13.707L51.707 16H2.29297L0 13.707L0.707031 13L2.70703 15H51.293L53.293 13L54 13.707Z" fill="#B9B29D"/>
<path d="M21.3677 25C21.1864 25 21.0211 24.9573 20.8717 24.872C20.7277 24.7813 20.6131 24.664 20.5277 24.52C20.4424 24.3707 20.3997 24.208 20.3997 24.032V23.8H21.0558V24.032C21.0558 24.1173 21.0851 24.192 21.1437 24.256C21.2077 24.3147 21.2824 24.344 21.3677 24.344H25.2478C25.3331 24.344 25.4051 24.3147 25.4638 24.256C25.5278 24.192 25.5598 24.1173 25.5598 24.032V22.672C25.5598 22.5867 25.5278 22.5147 25.4638 22.456C25.4051 22.392 25.3331 22.36 25.2478 22.36H20.3997V19.232H26.2158V19.896H21.3677C21.2824 19.896 21.2077 19.928 21.1437 19.992C21.0851 20.0507 21.0558 20.1227 21.0558 20.208V21.384C21.0558 21.4693 21.0851 21.544 21.1437 21.608C21.2077 21.672 21.2824 21.704 21.3677 21.704H25.2478C25.4238 21.704 25.5838 21.7467 25.7278 21.832C25.8771 21.9173 25.9944 22.0347 26.0798 22.184C26.1704 22.328 26.2158 22.4907 26.2158 22.672V24.032C26.2158 24.208 26.1704 24.3707 26.0798 24.52C25.9944 24.664 25.8771 24.7813 25.7278 24.872C25.5838 24.9573 25.4238 25 25.2478 25H21.3677ZM28.8084 25C28.627 25 28.4617 24.9573 28.3124 24.872C28.1684 24.7813 28.0537 24.664 27.9684 24.52C27.883 24.3707 27.8404 24.208 27.8404 24.032V20.216C27.8404 20.0347 27.883 19.872 27.9684 19.728C28.0537 19.5787 28.1684 19.4613 28.3124 19.376C28.4617 19.2853 28.627 19.24 28.8084 19.24H32.6884C32.8644 19.24 33.0244 19.2853 33.1684 19.376C33.3177 19.4613 33.435 19.5787 33.5204 19.728C33.611 19.872 33.6564 20.0347 33.6564 20.216V24.032C33.6564 24.208 33.611 24.3707 33.5204 24.52C33.435 24.664 33.3177 24.7813 33.1684 24.872C33.0244 24.9573 32.8644 25 32.6884 25H28.8084ZM28.5764 24.344H32.6884C32.7737 24.344 32.8457 24.3147 32.9044 24.256C32.9684 24.192 33.0004 24.1173 33.0004 24.032V20.696L28.5764 24.344ZM28.4964 23.552L32.9124 19.904H28.8084C28.723 19.904 28.6484 19.936 28.5844 20C28.5257 20.0587 28.4964 20.1307 28.4964 20.216V23.552Z" fill="#B9B29D"/>
</svg>
