<svg width="54" height="14" viewBox="0 0 54 14" fill="none" xmlns="http://www.w3.org/2000/svg">
<path d="M54 0.707031L51.707 3H2.29297L0 0.707031L0.707031 0L2.70703 2H51.293L53.293 0L54 0.707031Z" fill="#B9B29D"/>
<path d="M21.3356 12C21.1969 12 21.0636 11.9733 20.9356 11.92C20.8129 11.8613 20.7062 11.784 20.6156 11.688C20.5249 11.5867 20.4582 11.472 20.4156 11.344H25.2156C25.3009 11.344 25.3729 11.3147 25.4316 11.256C25.4956 11.192 25.5276 11.1173 25.5276 11.032V9.872C25.5276 9.78667 25.4956 9.71467 25.4316 9.656C25.3729 9.592 25.3009 9.56 25.2156 9.56H21.3356C21.1542 9.56 20.9889 9.51733 20.8396 9.432C20.6956 9.34133 20.5782 9.224 20.4876 9.08C20.4022 8.93067 20.3596 8.768 20.3596 8.592V7.208C20.3596 7.02667 20.4022 6.864 20.4876 6.72C20.5782 6.57067 20.6956 6.45333 20.8396 6.368C20.9889 6.27733 21.1542 6.232 21.3356 6.232H25.2156C25.3916 6.232 25.5516 6.27733 25.6956 6.368C25.8449 6.45333 25.9622 6.57067 26.0476 6.72C26.1382 6.864 26.1836 7.02667 26.1836 7.208V11.032C26.1836 11.208 26.1382 11.3707 26.0476 11.52C25.9622 11.664 25.8449 11.7813 25.6956 11.872C25.5516 11.9573 25.3916 12 25.2156 12H21.3356ZM21.3356 8.904H25.5276V7.208C25.5276 7.12267 25.4956 7.05067 25.4316 6.992C25.3729 6.928 25.3009 6.896 25.2156 6.896H21.3356C21.2502 6.896 21.1756 6.928 21.1116 6.992C21.0529 7.05067 21.0236 7.12267 21.0236 7.208V8.592C21.0236 8.67733 21.0529 8.752 21.1116 8.816C21.1756 8.87467 21.2502 8.904 21.3356 8.904ZM28.8006 12C28.6192 12 28.4539 11.9573 28.3046 11.872C28.1606 11.7813 28.0459 11.664 27.9606 11.52C27.8752 11.3707 27.8326 11.208 27.8326 11.032V7.216C27.8326 7.03467 27.8752 6.872 27.9606 6.728C28.0459 6.57867 28.1606 6.46133 28.3046 6.376C28.4539 6.28533 28.6192 6.24 28.8006 6.24H32.6806C32.8566 6.24 33.0166 6.28533 33.1606 6.376C33.3099 6.46133 33.4272 6.57867 33.5126 6.728C33.6032 6.872 33.6486 7.03467 33.6486 7.216V11.032C33.6486 11.208 33.6032 11.3707 33.5126 11.52C33.4272 11.664 33.3099 11.7813 33.1606 11.872C33.0166 11.9573 32.8566 12 32.6806 12H28.8006ZM28.5686 11.344H32.6806C32.7659 11.344 32.8379 11.3147 32.8966 11.256C32.9606 11.192 32.9926 11.1173 32.9926 11.032V7.696L28.5686 11.344ZM28.4886 10.552L32.9046 6.904H28.8006C28.7152 6.904 28.6406 6.936 28.5766 7C28.5179 7.05867 28.4886 7.13067 28.4886 7.216V10.552Z" fill="#B9B29D"/>
</svg>
