<svg width="54" height="14" viewBox="0 0 54 14" fill="none" xmlns="http://www.w3.org/2000/svg">
<path d="M54 0.707031L51.707 3H2.29297L0 0.707031L0.707031 0L2.70703 2H51.293L53.293 0L54 0.707031Z" fill="#444856"/>
<path d="M19.7176 12V6.976L18.8296 8.04H17.9736L19.4856 6.24H20.3816V12H19.7176ZM23.3146 12C23.1333 12 22.968 11.9573 22.8186 11.872C22.6746 11.7813 22.56 11.664 22.4746 11.52C22.3893 11.3707 22.3466 11.208 22.3466 11.032V7.216C22.3466 7.03467 22.3893 6.872 22.4746 6.728C22.56 6.57867 22.6746 6.46133 22.8186 6.376C22.968 6.28533 23.1333 6.24 23.3146 6.24H27.1946C27.3706 6.24 27.5306 6.28533 27.6746 6.376C27.824 6.46133 27.9413 6.57867 28.0266 6.728C28.1173 6.872 28.1626 7.03467 28.1626 7.216V11.032C28.1626 11.208 28.1173 11.3707 28.0266 11.52C27.9413 11.664 27.824 11.7813 27.6746 11.872C27.5306 11.9573 27.3706 12 27.1946 12H23.3146ZM23.0826 11.344H27.1946C27.28 11.344 27.352 11.3147 27.4106 11.256C27.4746 11.192 27.5066 11.1173 27.5066 11.032V7.696L23.0826 11.344ZM23.0026 10.552L27.4186 6.904H23.3146C23.2293 6.904 23.1546 6.936 23.0906 7C23.032 7.05867 23.0026 7.13067 23.0026 7.216V10.552ZM30.7865 12C30.6052 12 30.4398 11.9573 30.2905 11.872C30.1465 11.7813 30.0318 11.664 29.9465 11.52C29.8612 11.3707 29.8185 11.208 29.8185 11.032V7.216C29.8185 7.03467 29.8612 6.872 29.9465 6.728C30.0318 6.57867 30.1465 6.46133 30.2905 6.376C30.4398 6.28533 30.6052 6.24 30.7865 6.24H34.6665C34.8425 6.24 35.0025 6.28533 35.1465 6.376C35.2958 6.46133 35.4132 6.57867 35.4985 6.728C35.5892 6.872 35.6345 7.03467 35.6345 7.216V11.032C35.6345 11.208 35.5892 11.3707 35.4985 11.52C35.4132 11.664 35.2958 11.7813 35.1465 11.872C35.0025 11.9573 34.8425 12 34.6665 12H30.7865ZM30.5545 11.344H34.6665C34.7518 11.344 34.8238 11.3147 34.8825 11.256C34.9465 11.192 34.9785 11.1173 34.9785 11.032V7.696L30.5545 11.344ZM30.4745 10.552L34.8905 6.904H30.7865C30.7012 6.904 30.6265 6.936 30.5625 7C30.5038 7.05867 30.4745 7.13067 30.4745 7.216V10.552Z" fill="#444856"/>
</svg>
