<svg width="54" height="26" viewBox="0 0 54 26" fill="none" xmlns="http://www.w3.org/2000/svg">
<path d="M54 13.707L51.707 16H2.29297L0 13.707L0.707031 13L2.70703 15H51.293L53.293 13L54 13.707Z" fill="#B9B29D"/>
<path d="M21.3521 25C21.1708 25 21.0055 24.9573 20.8561 24.872C20.7121 24.7813 20.5975 24.664 20.5121 24.52C20.4268 24.3707 20.3841 24.208 20.3841 24.032V22.672C20.3841 22.5653 20.4055 22.4587 20.4481 22.352C20.4908 22.24 20.5495 22.1333 20.6241 22.032C20.5495 21.9307 20.4908 21.824 20.4481 21.712C20.4055 21.6 20.3841 21.4907 20.3841 21.384V20.208C20.3841 20.0267 20.4268 19.864 20.5121 19.72C20.5975 19.5707 20.7121 19.4533 20.8561 19.368C21.0055 19.2773 21.1708 19.232 21.3521 19.232H25.2321C25.3815 19.232 25.5201 19.272 25.6481 19.352C25.7815 19.4267 25.8961 19.528 25.9921 19.656C26.0935 19.7787 26.1628 19.9093 26.2001 20.048V21.384C26.2001 21.5973 26.1201 21.8133 25.9601 22.032C26.1201 22.24 26.2001 22.4533 26.2001 22.672V24.032C26.2001 24.208 26.1548 24.3707 26.0641 24.52C25.9788 24.664 25.8615 24.7813 25.7121 24.872C25.5681 24.9573 25.4081 25 25.2321 25H21.3521ZM21.3521 24.344H25.2321C25.3175 24.344 25.3895 24.3147 25.4481 24.256C25.5121 24.192 25.5441 24.1173 25.5441 24.032V22.672C25.5441 22.5867 25.5121 22.5147 25.4481 22.456C25.3895 22.392 25.3175 22.36 25.2321 22.36H21.3521C21.2668 22.36 21.1921 22.392 21.1281 22.456C21.0695 22.5147 21.0401 22.5867 21.0401 22.672V24.032C21.0401 24.1173 21.0695 24.192 21.1281 24.256C21.1921 24.3147 21.2668 24.344 21.3521 24.344ZM21.3521 21.792H25.2321C25.3175 21.792 25.3895 21.7627 25.4481 21.704C25.5121 21.64 25.5441 21.5653 25.5441 21.48V20.216C25.5441 20.1307 25.5121 20.0587 25.4481 20C25.3895 19.936 25.3175 19.904 25.2321 19.904H21.3521C21.2668 19.904 21.1921 19.936 21.1281 20C21.0695 20.0587 21.0401 20.1307 21.0401 20.216V21.48C21.0401 21.5653 21.0695 21.64 21.1281 21.704C21.1921 21.7627 21.2668 21.792 21.3521 21.792ZM28.824 25C28.6427 25 28.4773 24.9573 28.328 24.872C28.184 24.7813 28.0693 24.664 27.984 24.52C27.8987 24.3707 27.856 24.208 27.856 24.032V20.216C27.856 20.0347 27.8987 19.872 27.984 19.728C28.0693 19.5787 28.184 19.4613 28.328 19.376C28.4773 19.2853 28.6427 19.24 28.824 19.24H32.704C32.88 19.24 33.04 19.2853 33.184 19.376C33.3333 19.4613 33.4507 19.5787 33.536 19.728C33.6267 19.872 33.672 20.0347 33.672 20.216V24.032C33.672 24.208 33.6267 24.3707 33.536 24.52C33.4507 24.664 33.3333 24.7813 33.184 24.872C33.04 24.9573 32.88 25 32.704 25H28.824ZM28.592 24.344H32.704C32.7893 24.344 32.8613 24.3147 32.92 24.256C32.984 24.192 33.016 24.1173 33.016 24.032V20.696L28.592 24.344ZM28.512 23.552L32.928 19.904H28.824C28.7387 19.904 28.664 19.936 28.6 20C28.5413 20.0587 28.512 20.1307 28.512 20.216V23.552Z" fill="#B9B29D"/>
</svg>
