<svg width="54" height="14" viewBox="0 0 54 14" fill="none" xmlns="http://www.w3.org/2000/svg">
<path d="M54 0.707031L51.707 3H2.29297L0 0.707031L0.707031 0L2.70703 2H51.293L53.293 0L54 0.707031Z" fill="#444856"/>
<path d="M24.4062 12V10.512H20.3902V9.776L24.3262 6.232H25.0622V9.856H25.9582V10.512H25.0622V12H24.4062ZM21.2302 9.856H24.4062V7.12L21.2302 9.856ZM28.4099 12C28.2286 12 28.0633 11.9573 27.9139 11.872C27.7699 11.7813 27.6553 11.664 27.5699 11.52C27.4846 11.3707 27.4419 11.208 27.4419 11.032V7.216C27.4419 7.03467 27.4846 6.872 27.5699 6.728C27.6553 6.57867 27.7699 6.46133 27.9139 6.376C28.0633 6.28533 28.2286 6.24 28.4099 6.24H32.2899C32.4659 6.24 32.6259 6.28533 32.7699 6.376C32.9193 6.46133 33.0366 6.57867 33.1219 6.728C33.2126 6.872 33.2579 7.03467 33.2579 7.216V11.032C33.2579 11.208 33.2126 11.3707 33.1219 11.52C33.0366 11.664 32.9193 11.7813 32.7699 11.872C32.6259 11.9573 32.4659 12 32.2899 12H28.4099ZM28.1779 11.344H32.2899C32.3753 11.344 32.4473 11.3147 32.5059 11.256C32.5699 11.192 32.6019 11.1173 32.6019 11.032V7.696L28.1779 11.344ZM28.0979 10.552L32.5139 6.904H28.4099C28.3246 6.904 28.2499 6.936 28.1859 7C28.1273 7.05867 28.0979 7.13067 28.0979 7.216V10.552Z" fill="#444856"/>
</svg>
