<svg width="54" height="26" viewBox="0 0 54 26" fill="none" xmlns="http://www.w3.org/2000/svg">
<path d="M54 13.707L51.707 16H2.29297L0 13.707L0.707031 13L2.70703 15H51.293L53.293 13L54 13.707Z" fill="#B9B29D"/>
<path d="M24.4062 25V23.512H20.3902V22.776L24.3262 19.232H25.0622V22.856H25.9582V23.512H25.0622V25H24.4062ZM21.2302 22.856H24.4062V20.12L21.2302 22.856ZM28.4099 25C28.2286 25 28.0633 24.9573 27.9139 24.872C27.7699 24.7813 27.6553 24.664 27.5699 24.52C27.4846 24.3707 27.4419 24.208 27.4419 24.032V20.216C27.4419 20.0347 27.4846 19.872 27.5699 19.728C27.6553 19.5787 27.7699 19.4613 27.9139 19.376C28.0633 19.2853 28.2286 19.24 28.4099 19.24H32.2899C32.4659 19.24 32.6259 19.2853 32.7699 19.376C32.9193 19.4613 33.0366 19.5787 33.1219 19.728C33.2126 19.872 33.2579 20.0347 33.2579 20.216V24.032C33.2579 24.208 33.2126 24.3707 33.1219 24.52C33.0366 24.664 32.9193 24.7813 32.7699 24.872C32.6259 24.9573 32.4659 25 32.2899 25H28.4099ZM28.1779 24.344H32.2899C32.3753 24.344 32.4473 24.3147 32.5059 24.256C32.5699 24.192 32.6019 24.1173 32.6019 24.032V20.696L28.1779 24.344ZM28.0979 23.552L32.5139 19.904H28.4099C28.3246 19.904 28.2499 19.936 28.1859 20C28.1273 20.0587 28.0979 20.1307 28.0979 20.216V23.552Z" fill="#B9B29D"/>
</svg>
