<svg width="54" height="26" viewBox="0 0 54 26" fill="none" xmlns="http://www.w3.org/2000/svg">
<path d="M54 13.707L51.707 16H2.29297L0 13.707L0.707031 13L2.70703 15H51.293L53.293 13L54 13.707Z" fill="#B9B29D"/>
<path d="M21.3356 25C21.1969 25 21.0636 24.9733 20.9356 24.92C20.8129 24.8613 20.7062 24.784 20.6156 24.688C20.5249 24.5867 20.4582 24.472 20.4156 24.344H25.2156C25.3009 24.344 25.3729 24.3147 25.4316 24.256C25.4956 24.192 25.5276 24.1173 25.5276 24.032V22.872C25.5276 22.7867 25.4956 22.7147 25.4316 22.656C25.3729 22.592 25.3009 22.56 25.2156 22.56H21.3356C21.1542 22.56 20.9889 22.5173 20.8396 22.432C20.6956 22.3413 20.5782 22.224 20.4876 22.08C20.4022 21.9307 20.3596 21.768 20.3596 21.592V20.208C20.3596 20.0267 20.4022 19.864 20.4876 19.72C20.5782 19.5707 20.6956 19.4533 20.8396 19.368C20.9889 19.2773 21.1542 19.232 21.3356 19.232H25.2156C25.3916 19.232 25.5516 19.2773 25.6956 19.368C25.8449 19.4533 25.9622 19.5707 26.0476 19.72C26.1382 19.864 26.1836 20.0267 26.1836 20.208V24.032C26.1836 24.208 26.1382 24.3707 26.0476 24.52C25.9622 24.664 25.8449 24.7813 25.6956 24.872C25.5516 24.9573 25.3916 25 25.2156 25H21.3356ZM21.3356 21.904H25.5276V20.208C25.5276 20.1227 25.4956 20.0507 25.4316 19.992C25.3729 19.928 25.3009 19.896 25.2156 19.896H21.3356C21.2502 19.896 21.1756 19.928 21.1116 19.992C21.0529 20.0507 21.0236 20.1227 21.0236 20.208V21.592C21.0236 21.6773 21.0529 21.752 21.1116 21.816C21.1756 21.8747 21.2502 21.904 21.3356 21.904ZM28.8006 25C28.6192 25 28.4539 24.9573 28.3046 24.872C28.1606 24.7813 28.0459 24.664 27.9606 24.52C27.8752 24.3707 27.8326 24.208 27.8326 24.032V20.216C27.8326 20.0347 27.8752 19.872 27.9606 19.728C28.0459 19.5787 28.1606 19.4613 28.3046 19.376C28.4539 19.2853 28.6192 19.24 28.8006 19.24H32.6806C32.8566 19.24 33.0166 19.2853 33.1606 19.376C33.3099 19.4613 33.4272 19.5787 33.5126 19.728C33.6032 19.872 33.6486 20.0347 33.6486 20.216V24.032C33.6486 24.208 33.6032 24.3707 33.5126 24.52C33.4272 24.664 33.3099 24.7813 33.1606 24.872C33.0166 24.9573 32.8566 25 32.6806 25H28.8006ZM28.5686 24.344H32.6806C32.7659 24.344 32.8379 24.3147 32.8966 24.256C32.9606 24.192 32.9926 24.1173 32.9926 24.032V20.696L28.5686 24.344ZM28.4886 23.552L32.9046 19.904H28.8006C28.7152 19.904 28.6406 19.936 28.5766 20C28.5179 20.0587 28.4886 20.1307 28.4886 20.216V23.552Z" fill="#B9B29D"/>
</svg>
