<svg width="54" height="26" viewBox="0 0 54 26" fill="none" xmlns="http://www.w3.org/2000/svg">
<path d="M54 13.707L51.707 16H2.29297L0 13.707L0.707031 13L2.70703 15H51.293L53.293 13L54 13.707Z" fill="#B9B29D"/>
<path d="M21.3594 25C21.178 25 21.0127 24.9573 20.8634 24.872C20.7194 24.7813 20.602 24.664 20.5114 24.52C20.426 24.3707 20.3834 24.208 20.3834 24.032V23.904H21.0474V24.032C21.0474 24.1173 21.0767 24.192 21.1354 24.256C21.1994 24.3147 21.274 24.344 21.3594 24.344H25.2394C25.3247 24.344 25.3967 24.3147 25.4554 24.256C25.5194 24.192 25.5514 24.1173 25.5514 24.032V22.696C25.5514 22.6107 25.5194 22.5387 25.4554 22.48C25.3967 22.416 25.3247 22.384 25.2394 22.384H21.4874V21.728H24.9834C25.0687 21.728 25.1407 21.6987 25.1994 21.64C25.2634 21.576 25.2954 21.5013 25.2954 21.416V20.208C25.2954 20.1227 25.2634 20.0507 25.1994 19.992C25.1407 19.928 25.0687 19.896 24.9834 19.896H21.3594C21.274 19.896 21.1994 19.928 21.1354 19.992C21.0767 20.0507 21.0474 20.1227 21.0474 20.208V20.416H20.3834V20.208C20.3834 20.0267 20.426 19.864 20.5114 19.72C20.602 19.5707 20.7194 19.4533 20.8634 19.368C21.0127 19.2773 21.178 19.232 21.3594 19.232H24.9834C25.1647 19.232 25.3274 19.2773 25.4714 19.368C25.6207 19.4533 25.738 19.5707 25.8234 19.72C25.9087 19.864 25.9514 20.0267 25.9514 20.208V21.416C25.9514 21.4907 25.9407 21.5653 25.9194 21.64C25.9034 21.7093 25.882 21.7733 25.8554 21.832C25.9887 21.96 26.0794 22.1013 26.1274 22.256C26.1807 22.4107 26.2074 22.5573 26.2074 22.696V24.032C26.2074 24.208 26.162 24.3707 26.0714 24.52C25.986 24.664 25.8687 24.7813 25.7194 24.872C25.5754 24.9573 25.4154 25 25.2394 25H21.3594ZM28.7928 25C28.6114 25 28.4461 24.9573 28.2968 24.872C28.1528 24.7813 28.0381 24.664 27.9528 24.52C27.8674 24.3707 27.8248 24.208 27.8248 24.032V20.216C27.8248 20.0347 27.8674 19.872 27.9528 19.728C28.0381 19.5787 28.1528 19.4613 28.2968 19.376C28.4461 19.2853 28.6114 19.24 28.7928 19.24H32.6728C32.8488 19.24 33.0088 19.2853 33.1528 19.376C33.3021 19.4613 33.4194 19.5787 33.5048 19.728C33.5954 19.872 33.6408 20.0347 33.6408 20.216V24.032C33.6408 24.208 33.5954 24.3707 33.5048 24.52C33.4194 24.664 33.3021 24.7813 33.1528 24.872C33.0088 24.9573 32.8488 25 32.6728 25H28.7928ZM28.5608 24.344H32.6728C32.7581 24.344 32.8301 24.3147 32.8888 24.256C32.9528 24.192 32.9848 24.1173 32.9848 24.032V20.696L28.5608 24.344ZM28.4808 23.552L32.8968 19.904H28.7928C28.7074 19.904 28.6328 19.936 28.5688 20C28.5101 20.0587 28.4808 20.1307 28.4808 20.216V23.552Z" fill="#B9B29D"/>
</svg>
