<svg width="54" height="26" viewBox="0 0 54 26" fill="none" xmlns="http://www.w3.org/2000/svg">
<path d="M54 13.707L51.707 16H2.29297L0 13.707L0.707031 13L2.70703 15H51.293L53.293 13L54 13.707Z" fill="#B9B29D"/>
<path d="M21.4068 25C21.2255 25 21.0601 24.9573 20.9108 24.872C20.7668 24.7813 20.6521 24.664 20.5668 24.52C20.4815 24.3707 20.4388 24.208 20.4388 24.032V20.208C20.4388 20.0267 20.4815 19.864 20.5668 19.72C20.6521 19.5707 20.7668 19.4533 20.9108 19.368C21.0601 19.2773 21.2255 19.232 21.4068 19.232H25.2468V19.896H21.4068C21.3215 19.896 21.2468 19.928 21.1828 19.992C21.1241 20.0507 21.0948 20.1227 21.0948 20.208V21.36C21.0948 21.4453 21.1241 21.52 21.1828 21.584C21.2468 21.648 21.3215 21.68 21.4068 21.68H25.2868C25.4628 21.68 25.6228 21.7227 25.7668 21.808C25.9161 21.8933 26.0335 22.0107 26.1188 22.16C26.2095 22.304 26.2548 22.4667 26.2548 22.648V24.032C26.2548 24.208 26.2095 24.3707 26.1188 24.52C26.0335 24.664 25.9161 24.7813 25.7668 24.872C25.6228 24.9573 25.4628 25 25.2868 25H21.4068ZM21.4068 24.344H25.2868C25.3721 24.344 25.4441 24.3147 25.5028 24.256C25.5668 24.192 25.5988 24.1173 25.5988 24.032V22.648C25.5988 22.5627 25.5668 22.4907 25.5028 22.432C25.4441 22.368 25.3721 22.336 25.2868 22.336H21.0948V24.032C21.0948 24.1173 21.1241 24.192 21.1828 24.256C21.2468 24.3147 21.3215 24.344 21.4068 24.344ZM28.7693 25C28.588 25 28.4226 24.9573 28.2733 24.872C28.1293 24.7813 28.0146 24.664 27.9293 24.52C27.844 24.3707 27.8013 24.208 27.8013 24.032V20.216C27.8013 20.0347 27.844 19.872 27.9293 19.728C28.0146 19.5787 28.1293 19.4613 28.2733 19.376C28.4226 19.2853 28.588 19.24 28.7693 19.24H32.6493C32.8253 19.24 32.9853 19.2853 33.1293 19.376C33.2786 19.4613 33.396 19.5787 33.4813 19.728C33.572 19.872 33.6173 20.0347 33.6173 20.216V24.032C33.6173 24.208 33.572 24.3707 33.4813 24.52C33.396 24.664 33.2786 24.7813 33.1293 24.872C32.9853 24.9573 32.8253 25 32.6493 25H28.7693ZM28.5373 24.344H32.6493C32.7346 24.344 32.8066 24.3147 32.8653 24.256C32.9293 24.192 32.9613 24.1173 32.9613 24.032V20.696L28.5373 24.344ZM28.4573 23.552L32.8733 19.904H28.7693C28.684 19.904 28.6093 19.936 28.5453 20C28.4866 20.0587 28.4573 20.1307 28.4573 20.216V23.552Z" fill="#B9B29D"/>
</svg>
