<svg width="54" height="14" viewBox="0 0 54 14" fill="none" xmlns="http://www.w3.org/2000/svg">
<path d="M54 0.707031L51.707 3H2.29297L0 0.707031L0.707031 0L2.70703 2H51.293L53.293 0L54 0.707031Z" fill="#B9B29D"/>
<path d="M21.4068 12C21.2255 12 21.0601 11.9573 20.9108 11.872C20.7668 11.7813 20.6521 11.664 20.5668 11.52C20.4815 11.3707 20.4388 11.208 20.4388 11.032V7.208C20.4388 7.02667 20.4815 6.864 20.5668 6.72C20.6521 6.57067 20.7668 6.45333 20.9108 6.368C21.0601 6.27733 21.2255 6.232 21.4068 6.232H25.2468V6.896H21.4068C21.3215 6.896 21.2468 6.928 21.1828 6.992C21.1241 7.05067 21.0948 7.12267 21.0948 7.208V8.36C21.0948 8.44533 21.1241 8.52 21.1828 8.584C21.2468 8.648 21.3215 8.68 21.4068 8.68H25.2868C25.4628 8.68 25.6228 8.72267 25.7668 8.808C25.9161 8.89333 26.0335 9.01067 26.1188 9.16C26.2095 9.304 26.2548 9.46667 26.2548 9.648V11.032C26.2548 11.208 26.2095 11.3707 26.1188 11.52C26.0335 11.664 25.9161 11.7813 25.7668 11.872C25.6228 11.9573 25.4628 12 25.2868 12H21.4068ZM21.4068 11.344H25.2868C25.3721 11.344 25.4441 11.3147 25.5028 11.256C25.5668 11.192 25.5988 11.1173 25.5988 11.032V9.648C25.5988 9.56267 25.5668 9.49067 25.5028 9.432C25.4441 9.368 25.3721 9.336 25.2868 9.336H21.0948V11.032C21.0948 11.1173 21.1241 11.192 21.1828 11.256C21.2468 11.3147 21.3215 11.344 21.4068 11.344ZM28.7693 12C28.588 12 28.4226 11.9573 28.2733 11.872C28.1293 11.7813 28.0146 11.664 27.9293 11.52C27.844 11.3707 27.8013 11.208 27.8013 11.032V7.216C27.8013 7.03467 27.844 6.872 27.9293 6.728C28.0146 6.57867 28.1293 6.46133 28.2733 6.376C28.4226 6.28533 28.588 6.24 28.7693 6.24H32.6493C32.8253 6.24 32.9853 6.28533 33.1293 6.376C33.2786 6.46133 33.396 6.57867 33.4813 6.728C33.572 6.872 33.6173 7.03467 33.6173 7.216V11.032C33.6173 11.208 33.572 11.3707 33.4813 11.52C33.396 11.664 33.2786 11.7813 33.1293 11.872C32.9853 11.9573 32.8253 12 32.6493 12H28.7693ZM28.5373 11.344H32.6493C32.7346 11.344 32.8066 11.3147 32.8653 11.256C32.9293 11.192 32.9613 11.1173 32.9613 11.032V7.696L28.5373 11.344ZM28.4573 10.552L32.8733 6.904H28.7693C28.684 6.904 28.6093 6.936 28.5453 7C28.4866 7.05867 28.4573 7.13067 28.4573 7.216V10.552Z" fill="#B9B29D"/>
</svg>
