<svg width="54" height="14" viewBox="0 0 54 14" fill="none" xmlns="http://www.w3.org/2000/svg">
<path d="M54 0.707031L51.707 3H2.29297L0 0.707031L0.707031 0L2.70703 2H51.293L53.293 0L54 0.707031Z" fill="#444856"/>
<path d="M21.3677 12C21.1864 12 21.0211 11.9573 20.8717 11.872C20.7277 11.7813 20.6131 11.664 20.5277 11.52C20.4424 11.3707 20.3997 11.208 20.3997 11.032V10.8H21.0558V11.032C21.0558 11.1173 21.0851 11.192 21.1437 11.256C21.2077 11.3147 21.2824 11.344 21.3677 11.344H25.2478C25.3331 11.344 25.4051 11.3147 25.4638 11.256C25.5278 11.192 25.5598 11.1173 25.5598 11.032V9.672C25.5598 9.58667 25.5278 9.51467 25.4638 9.456C25.4051 9.392 25.3331 9.36 25.2478 9.36H20.3997V6.232H26.2158V6.896H21.3677C21.2824 6.896 21.2077 6.928 21.1437 6.992C21.0851 7.05067 21.0558 7.12267 21.0558 7.208V8.384C21.0558 8.46933 21.0851 8.544 21.1437 8.608C21.2077 8.672 21.2824 8.704 21.3677 8.704H25.2478C25.4238 8.704 25.5838 8.74667 25.7278 8.832C25.8771 8.91733 25.9944 9.03467 26.0798 9.184C26.1704 9.328 26.2158 9.49067 26.2158 9.672V11.032C26.2158 11.208 26.1704 11.3707 26.0798 11.52C25.9944 11.664 25.8771 11.7813 25.7278 11.872C25.5838 11.9573 25.4238 12 25.2478 12H21.3677ZM28.8084 12C28.627 12 28.4617 11.9573 28.3124 11.872C28.1684 11.7813 28.0537 11.664 27.9684 11.52C27.883 11.3707 27.8404 11.208 27.8404 11.032V7.216C27.8404 7.03467 27.883 6.872 27.9684 6.728C28.0537 6.57867 28.1684 6.46133 28.3124 6.376C28.4617 6.28533 28.627 6.24 28.8084 6.24H32.6884C32.8644 6.24 33.0244 6.28533 33.1684 6.376C33.3177 6.46133 33.435 6.57867 33.5204 6.728C33.611 6.872 33.6564 7.03467 33.6564 7.216V11.032C33.6564 11.208 33.611 11.3707 33.5204 11.52C33.435 11.664 33.3177 11.7813 33.1684 11.872C33.0244 11.9573 32.8644 12 32.6884 12H28.8084ZM28.5764 11.344H32.6884C32.7737 11.344 32.8457 11.3147 32.9044 11.256C32.9684 11.192 33.0004 11.1173 33.0004 11.032V7.696L28.5764 11.344ZM28.4964 10.552L32.9124 6.904H28.8084C28.723 6.904 28.6484 6.936 28.5844 7C28.5257 7.05867 28.4964 7.13067 28.4964 7.216V10.552Z" fill="#444856"/>
</svg>
