<svg width="54" height="26" viewBox="0 0 54 26" fill="none" xmlns="http://www.w3.org/2000/svg">
<path d="M54 13.707L51.707 16H2.29297L0 13.707L0.707031 13L2.70703 15H51.293L53.293 13L54 13.707Z" fill="#B9B29D"/>
<path d="M20.3997 25V22.84C20.3997 22.6587 20.4424 22.496 20.5277 22.352C20.6131 22.2027 20.7277 22.0853 20.8717 22C21.0211 21.9147 21.1864 21.872 21.3677 21.872H25.2478C25.3331 21.872 25.4051 21.8427 25.4638 21.784C25.5278 21.72 25.5598 21.6453 25.5598 21.56V20.208C25.5598 20.1227 25.5278 20.0507 25.4638 19.992C25.4051 19.928 25.3331 19.896 25.2478 19.896H21.3677C21.2824 19.896 21.2077 19.928 21.1437 19.992C21.0851 20.0507 21.0558 20.1227 21.0558 20.208V20.432H20.3997V20.208C20.3997 20.0267 20.4424 19.864 20.5277 19.72C20.6131 19.5707 20.7277 19.4533 20.8717 19.368C21.0211 19.2773 21.1864 19.232 21.3677 19.232H25.2478C25.4238 19.232 25.5838 19.2773 25.7278 19.368C25.8771 19.4533 25.9944 19.5707 26.0798 19.72C26.1704 19.864 26.2158 20.0267 26.2158 20.208V21.56C26.2158 21.736 26.1704 21.8987 26.0798 22.048C25.9944 22.192 25.8771 22.3093 25.7278 22.4C25.5838 22.4853 25.4238 22.528 25.2478 22.528H21.3677C21.2824 22.528 21.2077 22.56 21.1437 22.624C21.0851 22.6827 21.0558 22.7547 21.0558 22.84V24.032C21.0558 24.1173 21.0851 24.192 21.1437 24.256C21.2077 24.3147 21.2824 24.344 21.3677 24.344H26.2158V25H20.3997ZM28.8084 25C28.627 25 28.4617 24.9573 28.3124 24.872C28.1684 24.7813 28.0537 24.664 27.9684 24.52C27.883 24.3707 27.8404 24.208 27.8404 24.032V20.216C27.8404 20.0347 27.883 19.872 27.9684 19.728C28.0537 19.5787 28.1684 19.4613 28.3124 19.376C28.4617 19.2853 28.627 19.24 28.8084 19.24H32.6884C32.8644 19.24 33.0244 19.2853 33.1684 19.376C33.3177 19.4613 33.435 19.5787 33.5204 19.728C33.611 19.872 33.6564 20.0347 33.6564 20.216V24.032C33.6564 24.208 33.611 24.3707 33.5204 24.52C33.435 24.664 33.3177 24.7813 33.1684 24.872C33.0244 24.9573 32.8644 25 32.6884 25H28.8084ZM28.5764 24.344H32.6884C32.7737 24.344 32.8457 24.3147 32.9044 24.256C32.9684 24.192 33.0004 24.1173 33.0004 24.032V20.696L28.5764 24.344ZM28.4964 23.552L32.9124 19.904H28.8084C28.723 19.904 28.6484 19.936 28.5844 20C28.5257 20.0587 28.4964 20.1307 28.4964 20.216V23.552Z" fill="#B9B29D"/>
</svg>
