<svg width="54" height="14" viewBox="0 0 54 14" fill="none" xmlns="http://www.w3.org/2000/svg">
<path d="M54 0.707031L51.707 3H2.29297L0 0.707031L0.707031 0L2.70703 2H51.293L53.293 0L54 0.707031Z" fill="#B9B29D"/>
<path d="M20.3997 12V9.84C20.3997 9.65867 20.4424 9.496 20.5277 9.352C20.6131 9.20267 20.7277 9.08533 20.8717 9C21.0211 8.91467 21.1864 8.872 21.3677 8.872H25.2478C25.3331 8.872 25.4051 8.84267 25.4638 8.784C25.5278 8.72 25.5598 8.64533 25.5598 8.56V7.208C25.5598 7.12267 25.5278 7.05067 25.4638 6.992C25.4051 6.928 25.3331 6.896 25.2478 6.896H21.3677C21.2824 6.896 21.2077 6.928 21.1437 6.992C21.0851 7.05067 21.0558 7.12267 21.0558 7.208V7.432H20.3997V7.208C20.3997 7.02667 20.4424 6.864 20.5277 6.72C20.6131 6.57067 20.7277 6.45333 20.8717 6.368C21.0211 6.27733 21.1864 6.232 21.3677 6.232H25.2478C25.4238 6.232 25.5838 6.27733 25.7278 6.368C25.8771 6.45333 25.9944 6.57067 26.0798 6.72C26.1704 6.864 26.2158 7.02667 26.2158 7.208V8.56C26.2158 8.736 26.1704 8.89867 26.0798 9.048C25.9944 9.192 25.8771 9.30933 25.7278 9.4C25.5838 9.48533 25.4238 9.528 25.2478 9.528H21.3677C21.2824 9.528 21.2077 9.56 21.1437 9.624C21.0851 9.68267 21.0558 9.75467 21.0558 9.84V11.032C21.0558 11.1173 21.0851 11.192 21.1437 11.256C21.2077 11.3147 21.2824 11.344 21.3677 11.344H26.2158V12H20.3997ZM28.8084 12C28.627 12 28.4617 11.9573 28.3124 11.872C28.1684 11.7813 28.0537 11.664 27.9684 11.52C27.883 11.3707 27.8404 11.208 27.8404 11.032V7.216C27.8404 7.03467 27.883 6.872 27.9684 6.728C28.0537 6.57867 28.1684 6.46133 28.3124 6.376C28.4617 6.28533 28.627 6.24 28.8084 6.24H32.6884C32.8644 6.24 33.0244 6.28533 33.1684 6.376C33.3177 6.46133 33.435 6.57867 33.5204 6.728C33.611 6.872 33.6564 7.03467 33.6564 7.216V11.032C33.6564 11.208 33.611 11.3707 33.5204 11.52C33.435 11.664 33.3177 11.7813 33.1684 11.872C33.0244 11.9573 32.8644 12 32.6884 12H28.8084ZM28.5764 11.344H32.6884C32.7737 11.344 32.8457 11.3147 32.9044 11.256C32.9684 11.192 33.0004 11.1173 33.0004 11.032V7.696L28.5764 11.344ZM28.4964 10.552L32.9124 6.904H28.8084C28.723 6.904 28.6484 6.936 28.5844 7C28.5257 7.05867 28.4964 7.13067 28.4964 7.216V10.552Z" fill="#B9B29D"/>
</svg>
