<svg width="54" height="14" viewBox="0 0 54 14" fill="none" xmlns="http://www.w3.org/2000/svg">
<path d="M54 0.707031L51.707 3H2.29297L0 0.707031L0.707031 0L2.70703 2H51.293L53.293 0L54 0.707031Z" fill="#444856"/>
<path d="M23.4536 12V6.976L22.5656 8.04H21.7096L23.2216 6.24H24.1176V12H23.4536ZM27.0506 12C26.8692 12 26.7039 11.9573 26.5546 11.872C26.4106 11.7813 26.2959 11.664 26.2106 11.52C26.1252 11.3707 26.0826 11.208 26.0826 11.032V7.216C26.0826 7.03467 26.1252 6.872 26.2106 6.728C26.2959 6.57867 26.4106 6.46133 26.5546 6.376C26.7039 6.28533 26.8692 6.24 27.0506 6.24H30.9306C31.1066 6.24 31.2666 6.28533 31.4106 6.376C31.5599 6.46133 31.6772 6.57867 31.7626 6.728C31.8532 6.872 31.8986 7.03467 31.8986 7.216V11.032C31.8986 11.208 31.8532 11.3707 31.7626 11.52C31.6772 11.664 31.5599 11.7813 31.4106 11.872C31.2666 11.9573 31.1066 12 30.9306 12H27.0506ZM26.8186 11.344H30.9306C31.0159 11.344 31.0879 11.3147 31.1466 11.256C31.2106 11.192 31.2426 11.1173 31.2426 11.032V7.696L26.8186 11.344ZM26.7386 10.552L31.1546 6.904H27.0506C26.9652 6.904 26.8906 6.936 26.8266 7C26.7679 7.05867 26.7386 7.13067 26.7386 7.216V10.552Z" fill="#444856"/>
</svg>
