<svg width="54" height="14" viewBox="0 0 54 14" fill="none" xmlns="http://www.w3.org/2000/svg">
<path d="M54 0.707031L51.707 3H2.29297L0 0.707031L0.707031 0L2.70703 2H51.293L53.293 0L54 0.707031Z" fill="#444856"/>
<path d="M21.3594 12C21.178 12 21.0127 11.9573 20.8634 11.872C20.7194 11.7813 20.602 11.664 20.5114 11.52C20.426 11.3707 20.3834 11.208 20.3834 11.032V10.904H21.0474V11.032C21.0474 11.1173 21.0767 11.192 21.1354 11.256C21.1994 11.3147 21.274 11.344 21.3594 11.344H25.2394C25.3247 11.344 25.3967 11.3147 25.4554 11.256C25.5194 11.192 25.5514 11.1173 25.5514 11.032V9.696C25.5514 9.61067 25.5194 9.53867 25.4554 9.48C25.3967 9.416 25.3247 9.384 25.2394 9.384H21.4874V8.728H24.9834C25.0687 8.728 25.1407 8.69867 25.1994 8.64C25.2634 8.576 25.2954 8.50133 25.2954 8.416V7.208C25.2954 7.12267 25.2634 7.05067 25.1994 6.992C25.1407 6.928 25.0687 6.896 24.9834 6.896H21.3594C21.274 6.896 21.1994 6.928 21.1354 6.992C21.0767 7.05067 21.0474 7.12267 21.0474 7.208V7.416H20.3834V7.208C20.3834 7.02667 20.426 6.864 20.5114 6.72C20.602 6.57067 20.7194 6.45333 20.8634 6.368C21.0127 6.27733 21.178 6.232 21.3594 6.232H24.9834C25.1647 6.232 25.3274 6.27733 25.4714 6.368C25.6207 6.45333 25.738 6.57067 25.8234 6.72C25.9087 6.864 25.9514 7.02667 25.9514 7.208V8.416C25.9514 8.49067 25.9407 8.56533 25.9194 8.64C25.9034 8.70933 25.882 8.77333 25.8554 8.832C25.9887 8.96 26.0794 9.10133 26.1274 9.256C26.1807 9.41067 26.2074 9.55733 26.2074 9.696V11.032C26.2074 11.208 26.162 11.3707 26.0714 11.52C25.986 11.664 25.8687 11.7813 25.7194 11.872C25.5754 11.9573 25.4154 12 25.2394 12H21.3594ZM28.7928 12C28.6114 12 28.4461 11.9573 28.2968 11.872C28.1528 11.7813 28.0381 11.664 27.9528 11.52C27.8674 11.3707 27.8248 11.208 27.8248 11.032V7.216C27.8248 7.03467 27.8674 6.872 27.9528 6.728C28.0381 6.57867 28.1528 6.46133 28.2968 6.376C28.4461 6.28533 28.6114 6.24 28.7928 6.24H32.6728C32.8488 6.24 33.0088 6.28533 33.1528 6.376C33.3021 6.46133 33.4194 6.57867 33.5048 6.728C33.5954 6.872 33.6408 7.03467 33.6408 7.216V11.032C33.6408 11.208 33.5954 11.3707 33.5048 11.52C33.4194 11.664 33.3021 11.7813 33.1528 11.872C33.0088 11.9573 32.8488 12 32.6728 12H28.7928ZM28.5608 11.344H32.6728C32.7581 11.344 32.8301 11.3147 32.8888 11.256C32.9528 11.192 32.9848 11.1173 32.9848 11.032V7.696L28.5608 11.344ZM28.4808 10.552L32.8968 6.904H28.7928C28.7074 6.904 28.6328 6.936 28.5688 7C28.5101 7.05867 28.4808 7.13067 28.4808 7.216V10.552Z" fill="#444856"/>
</svg>
