<svg width="12" height="12" viewBox="0 0 12 12" fill="none" xmlns="http://www.w3.org/2000/svg">
<g clip-path="url(#clip0_185_6008)">
<path d="M6.00004 1.7998C4.48504 1.7998 3.27191 2.4898 2.38879 3.31105C1.51129 4.12668 0.924414 5.0998 0.645039 5.76918C0.583164 5.9173 0.583164 6.0823 0.645039 6.23043C0.924414 6.8998 1.51129 7.8748 2.38879 8.68855C3.27191 9.50793 4.48504 10.1998 6.00004 10.1998C7.51504 10.1998 8.72816 9.5098 9.61129 8.68855C10.4888 7.87293 11.0757 6.8998 11.355 6.23043C11.4169 6.0823 11.4169 5.9173 11.355 5.76918C11.0757 5.0998 10.4888 4.1248 9.61129 3.31105C8.72816 2.49168 7.51504 1.7998 6.00004 1.7998ZM3.30004 5.9998C3.30004 4.50918 4.50941 3.2998 6.00004 3.2998C7.49066 3.2998 8.70004 4.50918 8.70004 5.9998C8.70004 7.49043 7.49066 8.6998 6.00004 8.6998C4.50941 8.6998 3.30004 7.49043 3.30004 5.9998ZM6.00004 4.7998C6.00004 5.46168 5.46191 5.9998 4.80004 5.9998C4.58441 5.9998 4.38191 5.94355 4.20566 5.8423C4.18691 6.04668 4.20379 6.25668 4.26004 6.4648C4.51691 7.4248 5.50504 7.9948 6.46504 7.73793C7.42504 7.48105 7.99504 6.49293 7.73816 5.53293C7.50941 4.67605 6.69754 4.13043 5.84254 4.20543C5.94191 4.3798 6.00004 4.5823 6.00004 4.7998Z" fill="#B9B29D"/>
</g>
<defs>
<clipPath id="clip0_185_6008">
<rect width="12" height="12" fill="white"/>
</clipPath>
</defs>
</svg>
