<svg width="12" height="12" viewBox="0 0 12 12" fill="none" xmlns="http://www.w3.org/2000/svg">
<path d="M6 1C8.76172 1 11 3.23828 11 6C11 8.76172 8.76172 11 6 11C3.23828 11 1 8.76172 1 6C1 3.23828 3.23828 1 6 1ZM6 3.25C5.58579 3.25 5.25 3.58579 5.25 4V5.25H4C3.58579 5.25 3.25 5.58579 3.25 6C3.25 6.41421 3.58579 6.75 4 6.75H5.25V8C5.25 8.41421 5.58579 8.75 6 8.75C6.41421 8.75 6.75 8.41421 6.75 8V6.75H8C8.41421 6.75 8.75 6.41421 8.75 6C8.75 5.58579 8.41421 5.25 8 5.25H6.75V4C6.75 3.58579 6.41421 3.25 6 3.25Z" fill="#444856"/>
</svg>
