<svg width="12" height="12" viewBox="0 0 12 12" fill="none" xmlns="http://www.w3.org/2000/svg">
<path d="M4.36293 1.31053L4.1998 1.7999H2.3998C2.06793 1.7999 1.7998 2.06803 1.7998 2.3999C1.7998 2.73178 2.06793 2.9999 2.3998 2.9999H9.5998C9.93168 2.9999 10.1998 2.73178 10.1998 2.3999C10.1998 2.06803 9.93168 1.7999 9.5998 1.7999H7.7998L7.63668 1.31053C7.55418 1.0649 7.32543 0.899902 7.06668 0.899902H4.93293C4.67418 0.899902 4.44543 1.0649 4.36293 1.31053ZM9.5998 3.8999H2.3998L2.79543 9.95803C2.82543 10.4324 3.21918 10.7999 3.69355 10.7999H8.30606C8.78043 10.7999 9.17418 10.4324 9.20418 9.95803L9.5998 3.8999Z" fill="#444856"/>
</svg>
