<svg width="12" height="12" viewBox="0 0 12 12" fill="none" xmlns="http://www.w3.org/2000/svg">
<g clip-path="url(#clip0_218_4466)">
<path d="M4.9502 2.1002H7.0502C7.1327 2.1002 7.2002 2.1677 7.2002 2.2502V3.0002H4.8002V2.2502C4.8002 2.1677 4.8677 2.1002 4.9502 2.1002ZM3.9002 2.2502V3.0002H2.4002C1.73832 3.0002 1.2002 3.53832 1.2002 4.2002V6.0002H10.8002V4.2002C10.8002 3.53832 10.2621 3.0002 9.6002 3.0002H8.1002V2.2502C8.1002 1.67082 7.62957 1.2002 7.0502 1.2002H4.9502C4.37082 1.2002 3.9002 1.67082 3.9002 2.2502ZM10.8002 6.9002H7.2002V7.2002C7.2002 7.53207 6.93207 7.8002 6.6002 7.8002H5.4002C5.06832 7.8002 4.8002 7.53207 4.8002 7.2002V6.9002H1.2002V9.0002C1.2002 9.66207 1.73832 10.2002 2.4002 10.2002H9.6002C10.2621 10.2002 10.8002 9.66207 10.8002 9.0002V6.9002Z" fill="#B8A46A"/>
</g>
<defs>
<clipPath id="clip0_218_4466">
<rect width="12" height="12" fill="white"/>
</clipPath>
</defs>
</svg>
