<svg width="12" height="12" viewBox="0 0 12 12" fill="none" xmlns="http://www.w3.org/2000/svg">
<g clip-path="url(#clip0_218_4466)">
<path d="M6.4031 0.845723C6.32622 0.695723 6.1706 0.600098 6.00185 0.600098C5.8331 0.600098 5.67747 0.695723 5.6006 0.845723L4.2206 3.54947L1.22247 4.02572C1.0556 4.05197 0.91685 4.1701 0.86435 4.33135C0.81185 4.4926 0.854975 4.66885 0.9731 4.78885L3.1181 6.93572L2.6456 9.93385C2.61935 10.1007 2.68872 10.2695 2.8256 10.3688C2.96247 10.4682 3.14247 10.4832 3.29435 10.4063L6.00185 9.0301L8.70747 10.4063C8.85747 10.4832 9.03935 10.4682 9.17622 10.3688C9.3131 10.2695 9.38247 10.1026 9.35622 9.93385L8.88185 6.93572L11.0268 4.78885C11.1468 4.66885 11.1881 4.4926 11.1356 4.33135C11.0831 4.1701 10.9462 4.05197 10.7775 4.02572L7.78122 3.54947L6.4031 0.845723Z" fill="#B8A46A"/>
</g>
<defs>
<clipPath id="clip0_218_4466">
<rect width="12" height="12" fill="white"/>
</clipPath>
</defs>
</svg>
