<svg width="60" height="50" viewBox="0 0 60 50" fill="none" xmlns="http://www.w3.org/2000/svg">
<path d="M1 27.5V35.9998L11.9999 48.9905H17.4999L20.4999 45.9905H39.4999L42.4999 48.9905H47.9999L59 36.0001V27.5M1 27.5H59M1 27.5V13L11.9999 1H47.9999L59 13V27.5" stroke="#B9B29D"/>
<path d="M12.3779 40V34.24H13.0259V36.792H17.6259V34.24H18.2819V40H17.6259V37.448H13.0259V40H12.3779ZM19.5906 40V34.24H24.8466V34.888H20.2386V36.792H23.9426V37.448H20.2386V39.352H24.8466V40H19.5906ZM26.1796 40V34.24H26.8356V40H26.1796ZM29.1705 40C28.9945 40 28.8318 39.9573 28.6825 39.872C28.5385 39.7867 28.4238 39.672 28.3385 39.528C28.2532 39.3787 28.2105 39.216 28.2105 39.04V35.2C28.2105 35.024 28.2532 34.864 28.3385 34.72C28.4238 34.5707 28.5385 34.4533 28.6825 34.368C28.8318 34.2827 28.9945 34.24 29.1705 34.24H33.0105C33.1865 34.24 33.3465 34.2827 33.4905 34.368C33.6398 34.4533 33.7572 34.5707 33.8425 34.72C33.9278 34.864 33.9705 35.024 33.9705 35.2V35.432H33.3225V35.2C33.3225 35.1147 33.2905 35.0427 33.2265 34.984C33.1678 34.92 33.0958 34.888 33.0105 34.888H29.1705C29.0852 34.888 29.0105 34.92 28.9465 34.984C28.8878 35.0427 28.8585 35.1147 28.8585 35.2V39.04C28.8585 39.1253 28.8878 39.2 28.9465 39.264C29.0105 39.3227 29.0852 39.352 29.1705 39.352H33.0105C33.0958 39.352 33.1678 39.3227 33.2265 39.264C33.2905 39.2 33.3225 39.1253 33.3225 39.04V37.616H31.8985V36.96H33.9705V39.04C33.9705 39.216 33.9278 39.3787 33.8425 39.528C33.7572 39.672 33.6398 39.7867 33.4905 39.872C33.3465 39.9573 33.1865 40 33.0105 40H29.1705ZM35.2591 40V34.24H35.9071V36.792H40.5071V34.24H41.1631V40H40.5071V37.448H35.9071V40H35.2591ZM44.7278 40V34.888H42.1678V34.24H47.9278V34.888H45.3758V40H44.7278Z" fill="#B9B29D"/>
</svg>
