<svg width="60" height="50" viewBox="0 0 60 50" fill="none" xmlns="http://www.w3.org/2000/svg">
<path d="M1 27.5V35.9998L11.9999 48.9905H17.4999L20.4999 45.9905H39.4999L42.4999 48.9905H47.9999L59 36.0001V27.5M1 27.5H59M1 27.5V13L11.9999 1H47.9999L59 13V27.5" stroke="#B9B29D"/>
<path d="M11.0486 40C10.8726 40 10.71 39.9573 10.5606 39.872C10.4166 39.7867 10.302 39.672 10.2166 39.528C10.1313 39.3787 10.0886 39.216 10.0886 39.04V35.2C10.0886 35.024 10.1313 34.864 10.2166 34.72C10.302 34.5707 10.4166 34.4533 10.5606 34.368C10.71 34.2827 10.8726 34.24 11.0486 34.24H15.8326V34.888H11.0486C10.9633 34.888 10.8886 34.92 10.8246 34.984C10.766 35.0427 10.7366 35.1147 10.7366 35.2V39.04C10.7366 39.1253 10.766 39.2 10.8246 39.264C10.8886 39.3227 10.9633 39.352 11.0486 39.352H15.8326V40H11.0486ZM17.0827 40V35.2C17.0827 35.024 17.1254 34.864 17.2107 34.72C17.2961 34.5707 17.4107 34.4533 17.5547 34.368C17.7041 34.2827 17.8667 34.24 18.0427 34.24H21.8828C22.0587 34.24 22.2188 34.2827 22.3628 34.368C22.5121 34.4533 22.6294 34.5707 22.7147 34.72C22.8001 34.864 22.8428 35.024 22.8428 35.2V40H22.1947V37.896H17.7307V40H17.0827ZM17.7307 37.248H22.1947V35.2C22.1947 35.1147 22.1627 35.0427 22.0988 34.984C22.0401 34.92 21.9681 34.888 21.8828 34.888H18.0427C17.9574 34.888 17.8827 34.92 17.8187 34.984C17.7601 35.0427 17.7307 35.1147 17.7307 35.2V37.248ZM29.0182 40L27.1382 37.76H27.9862L29.8742 39.992V40H29.0182ZM24.1542 40V34.248H28.9542C29.1302 34.248 29.2902 34.2933 29.4342 34.384C29.5836 34.4693 29.7009 34.584 29.7862 34.728C29.8716 34.872 29.9142 35.032 29.9142 35.208V36.896C29.9142 37.072 29.8716 37.232 29.7862 37.376C29.7009 37.52 29.5836 37.6373 29.4342 37.728C29.2902 37.8133 29.1302 37.856 28.9542 37.856H24.8022V40H24.1542ZM25.1142 37.2H28.9542C29.0396 37.2 29.1116 37.1707 29.1702 37.112C29.2342 37.0533 29.2662 36.9813 29.2662 36.896V35.208C29.2662 35.1227 29.2342 35.0507 29.1702 34.992C29.1116 34.928 29.0396 34.896 28.9542 34.896H25.1142C25.0289 34.896 24.9542 34.928 24.8902 34.992C24.8316 35.0507 24.8022 35.1227 24.8022 35.208V36.896C24.8022 36.9813 24.8316 37.0533 24.8902 37.112C24.9542 37.1707 25.0289 37.2 25.1142 37.2ZM31.1718 40V34.24H36.4278V34.888H31.8198V36.792H35.5238V37.448H31.8198V39.352H36.4278V40H31.1718ZM37.6968 40V34.24H42.9528V34.888H38.3448V36.792H42.0488V37.448H38.3448V39.352H42.9528V40H37.6968ZM49.0698 40L47.1898 37.76H48.0378L49.9258 39.992V40H49.0698ZM44.2058 40V34.248H49.0058C49.1818 34.248 49.3418 34.2933 49.4858 34.384C49.6351 34.4693 49.7525 34.584 49.8378 34.728C49.9231 34.872 49.9658 35.032 49.9658 35.208V36.896C49.9658 37.072 49.9231 37.232 49.8378 37.376C49.7525 37.52 49.6351 37.6373 49.4858 37.728C49.3418 37.8133 49.1818 37.856 49.0058 37.856H44.8538V40H44.2058ZM45.1658 37.2H49.0058C49.0911 37.2 49.1631 37.1707 49.2218 37.112C49.2858 37.0533 49.3178 36.9813 49.3178 36.896V35.208C49.3178 35.1227 49.2858 35.0507 49.2218 34.992C49.1631 34.928 49.0911 34.896 49.0058 34.896H45.1658C45.0805 34.896 45.0058 34.928 44.9418 34.992C44.8831 35.0507 44.8538 35.1227 44.8538 35.208V36.896C44.8538 36.9813 44.8831 37.0533 44.9418 37.112C45.0058 37.1707 45.0805 37.2 45.1658 37.2Z" fill="#B9B29D"/>
</svg>
