<svg width="60" height="50" viewBox="0 0 60 50" fill="none" xmlns="http://www.w3.org/2000/svg">
<path d="M1 27.5V35.9998L11.9999 48.9905H17.4999L20.4999 45.9905H39.4999L42.4999 48.9905H47.9999L59 36.0001V27.5M1 27.5H59M1 27.5V13L11.9999 1H47.9999L59 13V27.5" stroke="#B9B29D"/>
<path d="M16.9221 40L14.8261 34.24H15.5141L17.2021 38.864L18.8821 34.24H19.6661L21.3541 38.864L23.0261 34.24H23.7301L21.6341 40H21.0661L19.2741 35.08L17.4821 40H16.9221ZM25.021 40V35.2C25.021 35.024 25.0637 34.864 25.149 34.72C25.2344 34.5707 25.349 34.4533 25.493 34.368C25.6424 34.2827 25.805 34.24 25.981 34.24H29.821C29.997 34.24 30.157 34.2827 30.301 34.368C30.4504 34.4533 30.5677 34.5707 30.653 34.72C30.7384 34.864 30.781 35.024 30.781 35.2V40H30.133V37.896H25.669V40H25.021ZM25.669 37.248H30.133V35.2C30.133 35.1147 30.101 35.0427 30.037 34.984C29.9784 34.92 29.9064 34.888 29.821 34.888H25.981C25.8957 34.888 25.821 34.92 25.757 34.984C25.6984 35.0427 25.669 35.1147 25.669 35.2V37.248ZM32.5005 40V34.232H33.1485V39.352H38.2605V40H32.5005ZM39.5349 40V34.24H40.1909V36.792H42.0469L44.1909 34.24H45.0229V34.248L42.6149 37.12L45.0309 39.992V40H44.1909L42.0469 37.448H40.1909V40H39.5349Z" fill="#B9B29D"/>
</svg>
