<svg width="60" height="50" viewBox="0 0 60 50" fill="none" xmlns="http://www.w3.org/2000/svg">
<path d="M1 27.5V35.9998L11.9999 48.9905H17.4999L20.4999 45.9905H39.4999L42.4999 48.9905H47.9999L59 36.0001V27.5M1 27.5H59M1 27.5V13L11.9999 1H47.9999L59 13V27.5" stroke="#B9B29D"/>
<path d="M11.4636 40V34.248H16.2636C16.4396 34.248 16.5996 34.2933 16.7436 34.384C16.893 34.4693 17.0103 34.584 17.0956 34.728C17.181 34.872 17.2236 35.032 17.2236 35.208V36.896C17.2236 37.072 17.181 37.232 17.0956 37.376C17.0103 37.52 16.893 37.6373 16.7436 37.728C16.5996 37.8133 16.4396 37.856 16.2636 37.856H12.1116V40H11.4636ZM12.4236 37.2H16.2636C16.349 37.2 16.421 37.1707 16.4796 37.112C16.5436 37.0533 16.5756 36.9813 16.5756 36.896V35.208C16.5756 35.1227 16.5436 35.0507 16.4796 34.992C16.421 34.928 16.349 34.896 16.2636 34.896H12.4236C12.3383 34.896 12.2636 34.928 12.1996 34.992C12.141 35.0507 12.1116 35.1227 12.1116 35.208V36.896C12.1116 36.9813 12.141 37.0533 12.1996 37.112C12.2636 37.1707 12.3383 37.2 12.4236 37.2ZM19.5358 40C19.3598 40 19.1971 39.9573 19.0478 39.872C18.9038 39.7867 18.7891 39.672 18.7038 39.528C18.6184 39.3787 18.5758 39.216 18.5758 39.04V35.2C18.5758 35.024 18.6184 34.864 18.7038 34.72C18.7891 34.5707 18.9038 34.4533 19.0478 34.368C19.1971 34.2827 19.3598 34.24 19.5358 34.24H23.3758C23.5518 34.24 23.7118 34.2827 23.8558 34.368C24.0051 34.4533 24.1224 34.5707 24.2078 34.72C24.2931 34.864 24.3358 35.024 24.3358 35.2V39.04C24.3358 39.216 24.2931 39.3787 24.2078 39.528C24.1224 39.672 24.0051 39.7867 23.8558 39.872C23.7118 39.9573 23.5518 40 23.3758 40H19.5358ZM19.5358 39.352H23.3758C23.4611 39.352 23.5331 39.3227 23.5918 39.264C23.6558 39.2 23.6878 39.1253 23.6878 39.04V35.2C23.6878 35.1147 23.6558 35.0427 23.5918 34.984C23.5331 34.92 23.4611 34.888 23.3758 34.888H19.5358C19.4504 34.888 19.3758 34.92 19.3118 34.984C19.2531 35.0427 19.2238 35.1147 19.2238 35.2V39.04C19.2238 39.1253 19.2531 39.2 19.3118 39.264C19.3758 39.3227 19.4504 39.352 19.5358 39.352ZM26.0968 40V34.24H26.7528V40H26.0968ZM28.5277 40V34.24H29.4157L33.6397 39.264V34.24H34.2877V40H33.3997L29.1757 34.976V40H28.5277ZM38.2559 40V34.888H35.6959V34.24H41.4559V34.888H38.9039V40H38.2559ZM43.7743 40C43.5983 40 43.4356 39.9573 43.2863 39.872C43.1423 39.7867 43.0276 39.672 42.9423 39.528C42.8569 39.3787 42.8143 39.216 42.8143 39.04V38.816H43.4622V39.04C43.4622 39.1253 43.4916 39.2 43.5503 39.264C43.6143 39.3227 43.6889 39.352 43.7743 39.352H47.6143C47.6996 39.352 47.7716 39.3227 47.8303 39.264C47.8943 39.2 47.9263 39.1253 47.9263 39.04V37.752C47.9263 37.6667 47.8943 37.5947 47.8303 37.536C47.7716 37.4773 47.6996 37.448 47.6143 37.448H43.7743C43.5983 37.448 43.4356 37.4053 43.2863 37.32C43.1423 37.2293 43.0276 37.112 42.9423 36.968C42.8569 36.824 42.8143 36.664 42.8143 36.488V35.2C42.8143 35.024 42.8569 34.864 42.9423 34.72C43.0276 34.5707 43.1423 34.4533 43.2863 34.368C43.4356 34.2827 43.5983 34.24 43.7743 34.24H47.6143C47.7903 34.24 47.9503 34.2827 48.0943 34.368C48.2436 34.4533 48.3609 34.5707 48.4463 34.72C48.5316 34.864 48.5743 35.024 48.5743 35.2V35.424H47.9263V35.2C47.9263 35.1147 47.8943 35.0427 47.8303 34.984C47.7716 34.92 47.6996 34.888 47.6143 34.888H43.7743C43.6889 34.888 43.6143 34.92 43.5503 34.984C43.4916 35.0427 43.4622 35.1147 43.4622 35.2V36.488C43.4622 36.5733 43.4916 36.6453 43.5503 36.704C43.6143 36.7627 43.6889 36.792 43.7743 36.792H47.6143C47.7903 36.792 47.9503 36.8373 48.0943 36.928C48.2436 37.0133 48.3609 37.128 48.4463 37.272C48.5316 37.416 48.5743 37.576 48.5743 37.752V39.04C48.5743 39.216 48.5316 39.3787 48.4463 39.528C48.3609 39.672 48.2436 39.7867 48.0943 39.872C47.9503 39.9573 47.7903 40 47.6143 40H43.7743Z" fill="#B9B29D"/>
</svg>
