<svg width="60" height="50" viewBox="0 0 60 50" fill="none" xmlns="http://www.w3.org/2000/svg">
<path d="M1 27.5V35.9998L11.9999 48.9905H17.4999L20.4999 45.9905H39.4999L42.4999 48.9905H47.9999L59 36.0001V27.5M1 27.5H59M1 27.5V13L11.9999 1H47.9999L59 13V27.5" stroke="#B9B29D"/>
<path d="M13.351 40C13.175 40 13.0123 39.9573 12.863 39.872C12.719 39.7867 12.6043 39.672 12.519 39.528C12.4336 39.3787 12.391 39.216 12.391 39.04V35.2C12.391 35.024 12.4336 34.864 12.519 34.72C12.6043 34.5707 12.719 34.4533 12.863 34.368C13.0123 34.2827 13.175 34.24 13.351 34.24H18.135V34.888H13.351C13.2656 34.888 13.191 34.92 13.127 34.984C13.0683 35.0427 13.039 35.1147 13.039 35.2V39.04C13.039 39.1253 13.0683 39.2 13.127 39.264C13.191 39.3227 13.2656 39.352 13.351 39.352H18.135V40H13.351ZM19.7851 40V35.2C19.7851 35.024 19.8278 34.864 19.9131 34.72C19.9984 34.5707 20.1131 34.4533 20.2571 34.368C20.4064 34.2827 20.5691 34.24 20.7451 34.24H24.5851C24.7611 34.24 24.9211 34.2827 25.0651 34.368C25.2144 34.4533 25.3318 34.5707 25.4171 34.72C25.5024 34.864 25.5451 35.024 25.5451 35.2V40H24.8971V37.896H20.4331V40H19.7851ZM20.4331 37.248H24.8971V35.2C24.8971 35.1147 24.8651 35.0427 24.8011 34.984C24.7424 34.92 24.6704 34.888 24.5851 34.888H20.7451C20.6598 34.888 20.5851 34.92 20.5211 34.984C20.4624 35.0427 20.4331 35.1147 20.4331 35.2V37.248ZM32.1206 40L30.2406 37.76H31.0886L32.9766 39.992V40H32.1206ZM27.2566 40V34.248H32.0566C32.2326 34.248 32.3926 34.2933 32.5366 34.384C32.6859 34.4693 32.8033 34.584 32.8886 34.728C32.9739 34.872 33.0166 35.032 33.0166 35.208V36.896C33.0166 37.072 32.9739 37.232 32.8886 37.376C32.8033 37.52 32.6859 37.6373 32.5366 37.728C32.3926 37.8133 32.2326 37.856 32.0566 37.856H27.9046V40H27.2566ZM28.2166 37.2H32.0566C32.1419 37.2 32.2139 37.1707 32.2726 37.112C32.3366 37.0533 32.3686 36.9813 32.3686 36.896V35.208C32.3686 35.1227 32.3366 35.0507 32.2726 34.992C32.2139 34.928 32.1419 34.896 32.0566 34.896H28.2166C28.1313 34.896 28.0566 34.928 27.9926 34.992C27.9339 35.0507 27.9046 35.1227 27.9046 35.208V36.896C27.9046 36.9813 27.9339 37.0533 27.9926 37.112C28.0566 37.1707 28.1313 37.2 28.2166 37.2ZM39.5222 40L37.6422 37.76H38.4902L40.3782 39.992V40H39.5222ZM34.6582 40V34.248H39.4582C39.6342 34.248 39.7942 34.2933 39.9382 34.384C40.0875 34.4693 40.2048 34.584 40.2902 34.728C40.3755 34.872 40.4182 35.032 40.4182 35.208V36.896C40.4182 37.072 40.3755 37.232 40.2902 37.376C40.2048 37.52 40.0875 37.6373 39.9382 37.728C39.7942 37.8133 39.6342 37.856 39.4582 37.856H35.3062V40H34.6582ZM35.6182 37.2H39.4582C39.5435 37.2 39.6155 37.1707 39.6742 37.112C39.7382 37.0533 39.7702 36.9813 39.7702 36.896V35.208C39.7702 35.1227 39.7382 35.0507 39.6742 34.992C39.6155 34.928 39.5435 34.896 39.4582 34.896H35.6182C35.5328 34.896 35.4582 34.928 35.3942 34.992C35.3355 35.0507 35.3062 35.1227 35.3062 35.208V36.896C35.3062 36.9813 35.3355 37.0533 35.3942 37.112C35.4582 37.1707 35.5328 37.2 35.6182 37.2ZM44.5157 40V37.832L41.8677 34.24H42.6117L44.8437 37.056L47.0517 34.24H47.8117L45.1637 37.832V40H44.5157Z" fill="#B9B29D"/>
</svg>
