<svg width="60" height="50" viewBox="0 0 60 50" fill="none" xmlns="http://www.w3.org/2000/svg">
<path d="M1 27.5V35.9998L11.9999 48.9905H17.4999L20.4999 45.9905H39.4999L42.4999 48.9905H47.9999L59 36.0001V27.5M1 27.5H59M1 27.5V13L11.9999 1H47.9999L59 13V27.5" stroke="#B9B29D"/>
<path d="M16.5685 40V34.232H17.2165V39.352H22.3285V40H16.5685ZM23.6109 40V34.24H28.8669V34.888H24.2589V36.792H27.9629V37.448H24.2589V39.352H28.8669V40H23.6109ZM30.5359 40V35.2C30.5359 35.024 30.5785 34.864 30.6639 34.72C30.7492 34.5707 30.8639 34.4533 31.0079 34.368C31.1572 34.2827 31.3199 34.24 31.4959 34.24H35.3359C35.5119 34.24 35.6719 34.2827 35.8159 34.368C35.9652 34.4533 36.0825 34.5707 36.1679 34.72C36.2532 34.864 36.2959 35.024 36.2959 35.2V40H35.6479V37.896H31.1839V40H30.5359ZM31.1839 37.248H35.6479V35.2C35.6479 35.1147 35.6159 35.0427 35.5519 34.984C35.4932 34.92 35.4212 34.888 35.3359 34.888H31.4959C31.4105 34.888 31.3359 34.92 31.2719 34.984C31.2132 35.0427 31.1839 35.1147 31.1839 35.2V37.248ZM38.0074 40V34.248H42.8074C42.9834 34.248 43.1434 34.2933 43.2874 34.384C43.4367 34.4693 43.554 34.584 43.6394 34.728C43.7247 34.872 43.7674 35.032 43.7674 35.208V36.896C43.7674 37.072 43.7247 37.232 43.6394 37.376C43.554 37.52 43.4367 37.6373 43.2874 37.728C43.1434 37.8133 42.9834 37.856 42.8074 37.856H38.6554V40H38.0074ZM38.9674 37.2H42.8074C42.8927 37.2 42.9647 37.1707 43.0234 37.112C43.0874 37.0533 43.1194 36.9813 43.1194 36.896V35.208C43.1194 35.1227 43.0874 35.0507 43.0234 34.992C42.9647 34.928 42.8927 34.896 42.8074 34.896H38.9674C38.882 34.896 38.8074 34.928 38.7434 34.992C38.6847 35.0507 38.6554 35.1227 38.6554 35.208V36.896C38.6554 36.9813 38.6847 37.0533 38.7434 37.112C38.8074 37.1707 38.882 37.2 38.9674 37.2Z" fill="#B9B29D"/>
</svg>
