<svg width="60" height="50" viewBox="0 0 60 50" fill="none" xmlns="http://www.w3.org/2000/svg">
<path d="M1 27.5V35.9998L11.9999 48.9905H17.4999L20.4999 45.9905H39.4999L42.4999 48.9905H47.9999L59 36.0001V27.5M1 27.5H59M1 27.5V13L11.9999 1H47.9999L59 13V27.5" stroke="#B9B29D"/>
<path d="M20.3374 40V35.2C20.3374 35.024 20.3801 34.864 20.4654 34.72C20.5508 34.5707 20.6654 34.4533 20.8094 34.368C20.9588 34.2827 21.1214 34.24 21.2974 34.24H25.1374C25.3134 34.24 25.4734 34.2827 25.6174 34.368C25.7668 34.4533 25.8841 34.5707 25.9694 34.72C26.0548 34.864 26.0974 35.024 26.0974 35.2V40H25.4494V37.896H20.9854V40H20.3374ZM20.9854 37.248H25.4494V35.2C25.4494 35.1147 25.4174 35.0427 25.3534 34.984C25.2948 34.92 25.2228 34.888 25.1374 34.888H21.2974C21.2121 34.888 21.1374 34.92 21.0734 34.984C21.0148 35.0427 20.9854 35.1147 20.9854 35.2V37.248ZM28.3689 40C28.1929 40 28.0303 39.9573 27.8809 39.872C27.7369 39.7867 27.6223 39.672 27.5369 39.528C27.4516 39.3787 27.4089 39.216 27.4089 39.04V35.2C27.4089 35.024 27.4516 34.864 27.5369 34.72C27.6223 34.5707 27.7369 34.4533 27.8809 34.368C28.0303 34.2827 28.1929 34.24 28.3689 34.24H32.2089C32.3849 34.24 32.5449 34.2827 32.6889 34.368C32.8383 34.4533 32.9556 34.5707 33.0409 34.72C33.1263 34.864 33.1689 35.024 33.1689 35.2V35.432H32.5209V35.2C32.5209 35.1147 32.4889 35.0427 32.4249 34.984C32.3663 34.92 32.2943 34.888 32.2089 34.888H28.3689C28.2836 34.888 28.2089 34.92 28.1449 34.984C28.0863 35.0427 28.0569 35.1147 28.0569 35.2V39.04C28.0569 39.1253 28.0863 39.2 28.1449 39.264C28.2089 39.3227 28.2836 39.352 28.3689 39.352H32.2089C32.2943 39.352 32.3663 39.3227 32.4249 39.264C32.4889 39.2 32.5209 39.1253 32.5209 39.04V37.616H31.0969V36.96H33.1689V39.04C33.1689 39.216 33.1263 39.3787 33.0409 39.528C32.9556 39.672 32.8383 39.7867 32.6889 39.872C32.5449 39.9573 32.3849 40 32.2089 40H28.3689ZM34.4656 40V34.24H39.7216V34.888H35.1136V36.792H38.8176V37.448H35.1136V39.352H39.7216V40H34.4656Z" fill="#B9B29D"/>
</svg>
