<svg width="60" height="50" viewBox="0 0 60 50" fill="none" xmlns="http://www.w3.org/2000/svg">
<path d="M1 27.5V35.9998L11.9999 48.9905H17.4999L20.4999 45.9905H39.4999L42.4999 48.9905H47.9999L59 36.0001V27.5M1 27.5H59M1 27.5V13L11.9999 1H47.9999L59 13V27.5" stroke="#B9B29D"/>
<path d="M12.4753 40V34.248H17.2753C17.4513 34.248 17.6113 34.2933 17.7553 34.384C17.9047 34.4693 18.022 34.584 18.1073 34.728C18.1927 34.872 18.2353 35.032 18.2353 35.208V36.896C18.2353 37.072 18.1927 37.232 18.1073 37.376C18.022 37.52 17.9047 37.6373 17.7553 37.728C17.6113 37.8133 17.4513 37.856 17.2753 37.856H13.1233V40H12.4753ZM13.4353 37.2H17.2753C17.3607 37.2 17.4327 37.1707 17.4913 37.112C17.5553 37.0533 17.5873 36.9813 17.5873 36.896V35.208C17.5873 35.1227 17.5553 35.0507 17.4913 34.992C17.4327 34.928 17.3607 34.896 17.2753 34.896H13.4353C13.35 34.896 13.2753 34.928 13.2113 34.992C13.1527 35.0507 13.1233 35.1227 13.1233 35.208V36.896C13.1233 36.9813 13.1527 37.0533 13.2113 37.112C13.2753 37.1707 13.35 37.2 13.4353 37.2ZM19.2835 40V34.24H19.9395V40H19.2835ZM22.2744 40C22.0984 40 21.9357 39.9573 21.7864 39.872C21.6424 39.7867 21.5277 39.672 21.4424 39.528C21.3571 39.3787 21.3144 39.216 21.3144 39.04V35.2C21.3144 35.024 21.3571 34.864 21.4424 34.72C21.5277 34.5707 21.6424 34.4533 21.7864 34.368C21.9357 34.2827 22.0984 34.24 22.2744 34.24H27.0584V34.888H22.2744C22.1891 34.888 22.1144 34.92 22.0504 34.984C21.9917 35.0427 21.9624 35.1147 21.9624 35.2V39.04C21.9624 39.1253 21.9917 39.2 22.0504 39.264C22.1144 39.3227 22.1891 39.352 22.2744 39.352H27.0584V40H22.2744ZM28.3005 40V34.24H28.9565V36.792H30.8125L32.9565 34.24H33.7885V34.248L31.3805 37.12L33.7965 39.992V40H32.9565L30.8125 37.448H28.9565V40H28.3005ZM36.0115 40C35.8355 40 35.6729 39.9573 35.5235 39.872C35.3795 39.7867 35.2649 39.672 35.1795 39.528C35.0942 39.3787 35.0515 39.216 35.0515 39.04V34.24H35.6995V39.04C35.6995 39.1253 35.7289 39.2 35.7875 39.264C35.8515 39.3227 35.9262 39.352 36.0115 39.352H39.8515C39.9369 39.352 40.0089 39.3227 40.0675 39.264C40.1315 39.2 40.1635 39.1253 40.1635 39.04V34.24H40.8115V39.04C40.8115 39.216 40.7689 39.3787 40.6835 39.528C40.5982 39.672 40.4809 39.7867 40.3315 39.872C40.1875 39.9573 40.0275 40 39.8515 40H36.0115ZM42.0925 40V34.248H46.8925C47.0685 34.248 47.2285 34.2933 47.3725 34.384C47.5219 34.4693 47.6392 34.584 47.7245 34.728C47.8099 34.872 47.8525 35.032 47.8525 35.208V36.896C47.8525 37.072 47.8099 37.232 47.7245 37.376C47.6392 37.52 47.5219 37.6373 47.3725 37.728C47.2285 37.8133 47.0685 37.856 46.8925 37.856H42.7405V40H42.0925ZM43.0525 37.2H46.8925C46.9779 37.2 47.0499 37.1707 47.1085 37.112C47.1725 37.0533 47.2045 36.9813 47.2045 36.896V35.208C47.2045 35.1227 47.1725 35.0507 47.1085 34.992C47.0499 34.928 46.9779 34.896 46.8925 34.896H43.0525C42.9672 34.896 42.8925 34.928 42.8285 34.992C42.7699 35.0507 42.7405 35.1227 42.7405 35.208V36.896C42.7405 36.9813 42.7699 37.0533 42.8285 37.112C42.8925 37.1707 42.9672 37.2 43.0525 37.2Z" fill="#B9B29D"/>
</svg>
