<svg width="60" height="50" viewBox="0 0 60 50" fill="none" xmlns="http://www.w3.org/2000/svg">
<path d="M1 27.5V35.9998L11.9999 48.9905H17.4999L20.4999 45.9905H39.4999L42.4999 48.9905H47.9999L59 36.0001V27.5M1 27.5H59M1 27.5V13L11.9999 1H47.9999L59 13V27.5" stroke="#B9B29D"/>
<path d="M11.9854 40L9.88938 34.24H10.5774L12.2654 38.864L13.9454 34.24H14.7294L16.4174 38.864L18.0894 34.24H18.7934L16.6974 40H16.1294L14.3374 35.08L12.5454 40H11.9854ZM20.3031 40V34.24H25.5591V34.888H20.9511V36.792H24.6551V37.448H20.9511V39.352H25.5591V40H20.3031ZM27.2921 40V34.24H27.9481V40H27.2921ZM30.683 40C30.507 40 30.3443 39.9573 30.195 39.872C30.051 39.7867 29.9363 39.672 29.851 39.528C29.7657 39.3787 29.723 39.216 29.723 39.04V35.2C29.723 35.024 29.7657 34.864 29.851 34.72C29.9363 34.5707 30.051 34.4533 30.195 34.368C30.3443 34.2827 30.507 34.24 30.683 34.24H34.523C34.699 34.24 34.859 34.2827 35.003 34.368C35.1523 34.4533 35.2697 34.5707 35.355 34.72C35.4403 34.864 35.483 35.024 35.483 35.2V35.432H34.835V35.2C34.835 35.1147 34.803 35.0427 34.739 34.984C34.6803 34.92 34.6083 34.888 34.523 34.888H30.683C30.5977 34.888 30.523 34.92 30.459 34.984C30.4003 35.0427 30.371 35.1147 30.371 35.2V39.04C30.371 39.1253 30.4003 39.2 30.459 39.264C30.523 39.3227 30.5977 39.352 30.683 39.352H34.523C34.6083 39.352 34.6803 39.3227 34.739 39.264C34.803 39.2 34.835 39.1253 34.835 39.04V37.616H33.411V36.96H35.483V39.04C35.483 39.216 35.4403 39.3787 35.355 39.528C35.2697 39.672 35.1523 39.7867 35.003 39.872C34.859 39.9573 34.699 40 34.523 40H30.683ZM37.1716 40V34.24H37.8196V36.792H42.4196V34.24H43.0756V40H42.4196V37.448H37.8196V40H37.1716ZM47.0403 40V34.888H44.4803V34.24H50.2403V34.888H47.6883V40H47.0403Z" fill="#B9B29D"/>
</svg>
