<svg width="60" height="50" viewBox="0 0 60 50" fill="none" xmlns="http://www.w3.org/2000/svg">
<path d="M1 27.5V35.9998L11.9999 48.9905H17.4999L20.4999 45.9905H39.4999L42.4999 48.9905H47.9999L59 36.0001V27.5M1 27.5H59M1 27.5V13L11.9999 1H47.9999L59 13V27.5" stroke="#B9B29D"/>
<path d="M19.9185 40V34.232H20.5665V39.352H25.6785V40H19.9185ZM26.6249 40V34.24H27.2809V40H26.6249ZM28.6718 40V34.24H33.9278V34.888H29.3198V36.792H33.0238V37.448H29.3198V40H28.6718ZM37.1872 40V34.888H34.6272V34.24H40.3872V34.888H37.8352V40H37.1872Z" fill="#B9B29D"/>
</svg>
