<svg width="60" height="50" viewBox="0 0 60 50" fill="none" xmlns="http://www.w3.org/2000/svg">
<path d="M1 27.5V35.9998L11.9999 48.9905H17.4999L20.4999 45.9905H39.4999L42.4999 48.9905H47.9999L59 36.0001V27.5M1 27.5H59M1 27.5V13L11.9999 1H47.9999L59 13V27.5" stroke="#B9B29D"/>
<path d="M24.5706 40L22.6906 37.76H23.5386L25.4266 39.992V40H24.5706ZM19.7066 40V34.248H24.5066C24.6826 34.248 24.8426 34.2933 24.9866 34.384C25.1359 34.4693 25.2533 34.584 25.3386 34.728C25.4239 34.872 25.4666 35.032 25.4666 35.208V36.896C25.4666 37.072 25.4239 37.232 25.3386 37.376C25.2533 37.52 25.1359 37.6373 24.9866 37.728C24.8426 37.8133 24.6826 37.856 24.5066 37.856H20.3546V40H19.7066ZM20.6666 37.2H24.5066C24.5919 37.2 24.6639 37.1707 24.7226 37.112C24.7866 37.0533 24.8186 36.9813 24.8186 36.896V35.208C24.8186 35.1227 24.7866 35.0507 24.7226 34.992C24.6639 34.928 24.5919 34.896 24.5066 34.896H20.6666C20.5813 34.896 20.5066 34.928 20.4426 34.992C20.3839 35.0507 20.3546 35.1227 20.3546 35.208V36.896C20.3546 36.9813 20.3839 37.0533 20.4426 37.112C20.5066 37.1707 20.5813 37.2 20.6666 37.2ZM28.0522 40C27.8762 40 27.7135 39.9573 27.5642 39.872C27.4202 39.7867 27.3055 39.672 27.2202 39.528C27.1348 39.3787 27.0922 39.216 27.0922 39.04V34.24H27.7402V39.04C27.7402 39.1253 27.7695 39.2 27.8282 39.264C27.8922 39.3227 27.9668 39.352 28.0522 39.352H31.8922C31.9775 39.352 32.0495 39.3227 32.1082 39.264C32.1722 39.2 32.2042 39.1253 32.2042 39.04V34.24H32.8522V39.04C32.8522 39.216 32.8095 39.3787 32.7242 39.528C32.6388 39.672 32.5215 39.7867 32.3722 39.872C32.2282 39.9573 32.0682 40 31.8922 40H28.0522ZM34.5332 40V34.24H35.4212L39.6452 39.264V34.24H40.2932V40H39.4052L35.1812 34.976V40H34.5332Z" fill="#B9B29D"/>
</svg>
