<svg width="60" height="10" viewBox="0 0 60 10" fill="none" xmlns="http://www.w3.org/2000/svg">
<circle cx="5" cy="5" r="4.5" stroke="#B9B29D"/>
<path d="M14.456 8L14.456 2.232H15.104V7.352L20.216 7.352V8L14.456 8ZM22.4264 8C22.2504 8 22.0877 7.95733 21.9384 7.872C21.7944 7.78667 21.6797 7.672 21.5944 7.528C21.509 7.37867 21.4664 7.216 21.4664 7.04V3.2C21.4664 3.024 21.509 2.864 21.5944 2.72C21.6797 2.57067 21.7944 2.45333 21.9384 2.368C22.0877 2.28267 22.2504 2.24 22.4264 2.24L26.2664 2.24C26.4424 2.24 26.6024 2.28267 26.7464 2.368C26.8957 2.45333 27.013 2.57067 27.0984 2.72C27.1837 2.864 27.2264 3.024 27.2264 3.2V7.04C27.2264 7.216 27.1837 7.37867 27.0984 7.528C27.013 7.672 26.8957 7.78667 26.7464 7.872C26.6024 7.95733 26.4424 8 26.2664 8H22.4264ZM22.4264 7.352H26.2664C26.3517 7.352 26.4237 7.32267 26.4824 7.264C26.5464 7.2 26.5784 7.12533 26.5784 7.04V3.2C26.5784 3.11467 26.5464 3.04267 26.4824 2.984C26.4237 2.92 26.3517 2.888 26.2664 2.888L22.4264 2.888C22.341 2.888 22.2664 2.92 22.2024 2.984C22.1437 3.04267 22.1144 3.11467 22.1144 3.2V7.04C22.1144 7.12533 22.1437 7.2 22.2024 7.264C22.2664 7.32267 22.341 7.352 22.4264 7.352ZM29.8674 8C29.6914 8 29.5287 7.95733 29.3794 7.872C29.2354 7.78667 29.1207 7.672 29.0354 7.528C28.95 7.37867 28.9074 7.216 28.9074 7.04V3.2C28.9074 3.024 28.95 2.864 29.0354 2.72C29.1207 2.57067 29.2354 2.45333 29.3794 2.368C29.5287 2.28267 29.6914 2.24 29.8674 2.24L34.6514 2.24V2.888L29.8674 2.888C29.782 2.888 29.7074 2.92 29.6434 2.984C29.5847 3.04267 29.5554 3.11467 29.5554 3.2V7.04C29.5554 7.12533 29.5847 7.2 29.6434 7.264C29.7074 7.32267 29.782 7.352 29.8674 7.352L34.6514 7.352V8L29.8674 8ZM36.2935 8V2.24H36.9495V4.792H38.8055L40.9495 2.24H41.7815V2.248L39.3735 5.12L41.7895 7.992V8H40.9495L38.8055 5.448H36.9495V8H36.2935Z" fill="#B9B29D"/>
</svg>
