<svg width="16" height="16" viewBox="0 0 16 16" fill="none" xmlns="http://www.w3.org/2000/svg">
<path d="M8.00016 11.3333C8.36835 11.3333 8.66683 11.0349 8.66683 10.6667C8.66683 10.2985 8.36835 10 8.00016 10C7.63197 10 7.3335 10.2985 7.3335 10.6667C7.3335 11.0349 7.63197 11.3333 8.00016 11.3333Z" stroke="#B9B29D" stroke-width="1.25" stroke-linecap="round" stroke-linejoin="round"/>
<path d="M12.6667 6.6665H3.33333C2.59695 6.6665 2 7.26346 2 7.99984V13.3332C2 14.0696 2.59695 14.6665 3.33333 14.6665H12.6667C13.403 14.6665 14 14.0696 14 13.3332V7.99984C14 7.26346 13.403 6.6665 12.6667 6.6665Z" stroke="#B9B29D" stroke-width="1.25" stroke-linecap="round" stroke-linejoin="round"/>
<path d="M4.6665 6.66683V4.66683C4.6665 3.78277 5.01769 2.93493 5.64281 2.30981C6.26794 1.68469 7.11578 1.3335 7.99984 1.3335C8.88389 1.3335 9.73174 1.68469 10.3569 2.30981C10.982 2.93493 11.3332 3.78277 11.3332 4.66683V6.66683" stroke="#B9B29D" stroke-width="1.25" stroke-linecap="round" stroke-linejoin="round"/>
</svg>
