<svg width="200" height="220" viewBox="0 0 200 220" fill="none" xmlns="http://www.w3.org/2000/svg">
<path d="M33.1553 0.720703H64.7783L71.1738 7.11719H190.36V9.45996H195.045V174.685L199.369 179.009V200.091L200 201.082V212.343L192.343 220H167.566L166.845 219.369H135.312L128.826 212.884H9.72949V210.541H4.9541V45.2246L0.720703 40.9912V19.9092L0 18.9189V7.6582L7.6582 0H32.5244L33.1553 0.720703ZM195.045 210.271L190.27 215.046H141.528L137.023 210.541H10.0908V212.343H129.006L135.402 218.829H166.396L165.674 218.198H191.531L198.198 211.531V198.379L198.829 199.37V179.189L195.045 175.405V210.271ZM5.85547 209.64H9.72949V50L5.85547 46.126V209.64ZM5.85547 45.4951L10.0908 49.7295V209.64H117.383L121.888 205.136H152.609L157.114 209.64H194.144V174.504L189.819 170.181V10.3613H82.6162L78.1113 14.8652H47.3887L42.8838 10.3613H5.85547V45.4951ZM190.36 170L194.144 173.783V10.3613H190.36V170ZM34.2363 1.80176H8.37891L1.80176 8.37891V21.6211L1.08105 20.6309V40.7207L4.9541 44.5938V9.72949L9.72852 4.95508H58.4707L62.9756 9.45996H189.819V7.56738H70.9941L64.5078 1.08105H33.6055L34.2363 1.80176Z" fill="#B8A46A"/>
</svg>
