<svg width="200" height="220" viewBox="0 0 200 220" fill="none" xmlns="http://www.w3.org/2000/svg">
<path d="M33.1553 0.720703H64.7783L71.1738 7.11719H190.36V9.45996H195.045V174.685L199.369 179.009V200.091L200 201.082V212.343L192.343 220H167.566L166.845 219.369H135.312L128.826 212.884H9.72949V210.541H4.9541V45.2246L0.720703 40.9912V19.9092L0 18.9189V7.6582L7.6582 0H32.5244L33.1553 0.720703ZM195.045 210.271L190.27 215.046H141.528L137.023 210.541H10.0908V212.343H129.006L135.402 218.829H166.396L165.674 218.198H191.531L198.198 211.531V198.379L198.829 199.37V179.189L195.045 175.405V210.271ZM5.85547 209.64H9.72949V50L5.85547 46.126V209.64ZM5.85547 45.4951L10.0908 49.7295V209.64H117.383L121.888 205.136H152.609L157.114 209.64H194.144V174.504L189.819 170.181V10.3613H82.6162L78.1113 14.8652H47.3887L42.8838 10.3613H5.85547V45.4951ZM190.36 170L194.144 173.783V10.3613H190.36V170ZM34.2363 1.80176H8.37891L1.80176 8.37891V21.6211L1.08105 20.6309V40.7207L4.9541 44.5938V9.72949L9.72852 4.95508H58.4707L62.9756 9.45996H189.819V7.56738H70.9941L64.5078 1.08105H33.6055L34.2363 1.80176Z" fill="#B8A46A"/>
<path d="M0 18.9189L0.720703 19.9092V40.9912L4.9541 45.2246V210.541H9.72949V212.884H128.826L135.312 219.369H166.845L167.566 220H0V18.9189Z" fill="#1A1A1A"/>
<path d="M200 220H192.343L200 212.343V220Z" fill="#1A1A1A"/>
<path d="M198.829 179.189V199.37L198.198 198.379V211.531L191.531 218.198H165.674L166.396 218.829H135.402L129.006 212.343H10.0908V210.541H137.023L141.528 215.046H190.27L195.045 210.271V175.405L198.829 179.189Z" fill="#1A1A1A"/>
<path d="M7.6582 0L0 7.6582V0H7.6582Z" fill="#1A1A1A"/>
<path d="M64.5078 1.08105L70.9941 7.56738H189.819V9.45996H62.9756L58.4707 4.95508H9.72852L4.9541 9.72949V44.5938L1.08105 40.7207V20.6309L1.80176 21.6211V8.37891L8.37891 1.80176H34.2363L33.6055 1.08105H64.5078Z" fill="#1A1A1A"/>
<path d="M200 201.082L199.369 200.091V179.009L195.045 174.685V9.45996H190.36V7.11719H71.1738L64.7783 0.720703H33.1553L32.5244 0H200V201.082Z" fill="#1A1A1A"/>
</svg>
