<svg width="20" height="20" viewBox="0 0 20 20" fill="none" xmlns="http://www.w3.org/2000/svg">
<path d="M9.99984 8.33317C10.4601 8.33317 10.8332 7.96007 10.8332 7.49984C10.8332 7.0396 10.4601 6.6665 9.99984 6.6665C9.5396 6.6665 9.1665 7.0396 9.1665 7.49984C9.1665 7.96007 9.5396 8.33317 9.99984 8.33317Z" stroke="#444856" stroke-width="1.25" stroke-linecap="round" stroke-linejoin="round"/>
<path d="M15.8333 8.33317C16.2936 8.33317 16.6667 7.96007 16.6667 7.49984C16.6667 7.0396 16.2936 6.6665 15.8333 6.6665C15.3731 6.6665 15 7.0396 15 7.49984C15 7.96007 15.3731 8.33317 15.8333 8.33317Z" stroke="#444856" stroke-width="1.25" stroke-linecap="round" stroke-linejoin="round"/>
<path d="M4.16683 8.33317C4.62707 8.33317 5.00016 7.96007 5.00016 7.49984C5.00016 7.0396 4.62707 6.6665 4.16683 6.6665C3.70659 6.6665 3.3335 7.0396 3.3335 7.49984C3.3335 7.96007 3.70659 8.33317 4.16683 8.33317Z" stroke="#444856" stroke-width="1.25" stroke-linecap="round" stroke-linejoin="round"/>
<path d="M9.99984 13.3332C10.4601 13.3332 10.8332 12.9601 10.8332 12.4998C10.8332 12.0396 10.4601 11.6665 9.99984 11.6665C9.5396 11.6665 9.1665 12.0396 9.1665 12.4998C9.1665 12.9601 9.5396 13.3332 9.99984 13.3332Z" stroke="#444856" stroke-width="1.25" stroke-linecap="round" stroke-linejoin="round"/>
<path d="M15.8333 13.3332C16.2936 13.3332 16.6667 12.9601 16.6667 12.4998C16.6667 12.0396 16.2936 11.6665 15.8333 11.6665C15.3731 11.6665 15 12.0396 15 12.4998C15 12.9601 15.3731 13.3332 15.8333 13.3332Z" stroke="#444856" stroke-width="1.25" stroke-linecap="round" stroke-linejoin="round"/>
<path d="M4.16683 13.3332C4.62707 13.3332 5.00016 12.9601 5.00016 12.4998C5.00016 12.0396 4.62707 11.6665 4.16683 11.6665C3.70659 11.6665 3.3335 12.0396 3.3335 12.4998C3.3335 12.9601 3.70659 13.3332 4.16683 13.3332Z" stroke="#444856" stroke-width="1.25" stroke-linecap="round" stroke-linejoin="round"/>
</svg>
