<svg width="60" height="50" viewBox="0 0 60 50" fill="none" xmlns="http://www.w3.org/2000/svg">
<path fill-rule="evenodd" clip-rule="evenodd" d="M21 47.1211L39 47.1211L42 50L47 50L60 37L60 3.4999L56.5 -0.00012701L56 -9.64484e-05L55 0.999904L55 1.4999L58 4.4999L58 9.9999L55 12.9999L5 12.9999L2 9.9999L2 4.4999L5 1.4999L5 0.999904L4 -9.57171e-05L3.5 -9.56734e-05L-3.42934e-06 3.4999L-1.1365e-06 37L13 50L18 50L21 47.1211ZM2 36L2 24.9999L12 14.9999L48 14.9999L58 24.9999L58 36L49 45L11 45L2 36Z" fill="#B8A46A"/>
</svg>
