<svg width="70" height="60" viewBox="0 0 70 60" fill="none" xmlns="http://www.w3.org/2000/svg">
<path d="M18 41H26V42H17V33H18V41Z" fill="#B9B29D"/>
<path d="M53 42H44V41H52V33H53V42Z" fill="#B9B29D"/>
<path fill-rule="evenodd" clip-rule="evenodd" d="M45.1582 16.6396C46.1569 16.6715 47.1048 16.9959 47.8936 17.5557C49.9926 19.0506 50.921 22.1992 48.79 25.2207L40.8584 36.4668C38.7275 39.4819 35.4513 39.6539 33.3457 38.1592C31.2465 36.6707 30.3173 33.5152 32.4482 30.5L40.3877 19.2471C41.6789 17.4217 43.3898 16.6461 44.999 16.6396H45.1582ZM44.8848 17.7393C43.6825 17.7647 42.4041 18.3889 41.3291 19.9092L37.2129 25.7354C38.5424 27.6882 41.4688 29.7682 43.7461 30.3789L47.8486 24.5586C49.6869 21.957 48.8671 19.648 47.2324 18.4902C46.6217 18.0513 45.8957 17.7779 45.126 17.7461C45.0498 17.7398 44.9673 17.7393 44.8848 17.7393Z" fill="#B9B29D"/>
<path d="M28.9502 25.8691C29.6054 28.0892 28.5113 30.456 26.3994 31.3848C24.2811 32.3071 21.8094 31.5052 20.6357 29.5078L28.9502 25.8691Z" fill="#B9B29D"/>
<path d="M24.5195 22.5869C26.1511 22.5679 27.6648 23.4204 28.498 24.8262L20.1826 28.458C19.5403 26.2444 20.6371 23.8911 22.7432 22.9688C23.3041 22.7208 23.9077 22.5933 24.5195 22.5869Z" fill="#B9B29D"/>
<path d="M36.7998 16.4424C35.871 18.5605 33.5105 19.6542 31.2969 18.9863C29.0899 18.3183 27.7226 16.105 28.1104 13.8223L36.7998 16.4424Z" fill="#B9B29D"/>
<path d="M32.7158 10C33.1293 10.0089 33.5431 10.0748 33.9375 10.1943C36.1382 10.8643 37.5056 13.0712 37.124 15.3477L28.4414 12.7256C29.1666 11.0889 30.7692 10.0299 32.5439 10H32.7158Z" fill="#B9B29D"/>
<path d="M26 7H18V15H17V6H26V7Z" fill="#B9B29D"/>
<path d="M53 15H52V7H44V6H53V15Z" fill="#B9B29D"/>
<path d="M16.964 56V50.24H21.764C21.94 50.24 22.1 50.2827 22.244 50.368C22.3933 50.4533 22.5107 50.5707 22.596 50.72C22.6813 50.864 22.724 51.024 22.724 51.2V55.04C22.724 55.216 22.6813 55.3787 22.596 55.528C22.5107 55.672 22.3933 55.7867 22.244 55.872C22.1 55.9573 21.94 56 21.764 56H16.964ZM17.924 55.352H21.764C21.8493 55.352 21.9213 55.3227 21.98 55.264C22.044 55.2 22.076 55.1253 22.076 55.04V51.2C22.076 51.1147 22.044 51.0427 21.98 50.984C21.9213 50.92 21.8493 50.888 21.764 50.888H17.924C17.8387 50.888 17.764 50.92 17.7 50.984C17.6413 51.0427 17.612 51.1147 17.612 51.2V55.04C17.612 55.1253 17.6413 55.2 17.7 55.264C17.764 55.3227 17.8387 55.352 17.924 55.352ZM29.2839 56L27.4039 53.76H28.2519L30.1399 55.992V56H29.2839ZM24.4199 56V50.248H29.2199C29.3959 50.248 29.5559 50.2933 29.6999 50.384C29.8492 50.4693 29.9665 50.584 30.0519 50.728C30.1372 50.872 30.1799 51.032 30.1799 51.208V52.896C30.1799 53.072 30.1372 53.232 30.0519 53.376C29.9665 53.52 29.8492 53.6373 29.6999 53.728C29.5559 53.8133 29.3959 53.856 29.2199 53.856H25.0679V56H24.4199ZM25.3799 53.2H29.2199C29.3052 53.2 29.3772 53.1707 29.4359 53.112C29.4999 53.0533 29.5319 52.9813 29.5319 52.896V51.208C29.5319 51.1227 29.4999 51.0507 29.4359 50.992C29.3772 50.928 29.3052 50.896 29.2199 50.896H25.3799C25.2945 50.896 25.2199 50.928 25.1559 50.992C25.0972 51.0507 25.0679 51.1227 25.0679 51.208V52.896C25.0679 52.9813 25.0972 53.0533 25.1559 53.112C25.2199 53.1707 25.2945 53.2 25.3799 53.2ZM32.7654 56C32.5894 56 32.4268 55.9573 32.2774 55.872C32.1334 55.7867 32.0188 55.672 31.9334 55.528C31.8481 55.3787 31.8054 55.216 31.8054 55.04V50.24H32.4534V55.04C32.4534 55.1253 32.4828 55.2 32.5414 55.264C32.6054 55.3227 32.6801 55.352 32.7654 55.352H36.6054C36.6908 55.352 36.7628 55.3227 36.8214 55.264C36.8854 55.2 36.9174 55.1253 36.9174 55.04V50.24H37.5654V55.04C37.5654 55.216 37.5228 55.3787 37.4374 55.528C37.3521 55.672 37.2348 55.7867 37.0854 55.872C36.9414 55.9573 36.7814 56 36.6054 56H32.7654ZM40.2064 56C40.0304 56 39.8678 55.9573 39.7184 55.872C39.5744 55.7867 39.4598 55.672 39.3744 55.528C39.2891 55.3787 39.2464 55.216 39.2464 55.04V51.2C39.2464 51.024 39.2891 50.864 39.3744 50.72C39.4598 50.5707 39.5744 50.4533 39.7184 50.368C39.8678 50.2827 40.0304 50.24 40.2064 50.24H44.0464C44.2224 50.24 44.3824 50.2827 44.5264 50.368C44.6758 50.4533 44.7931 50.5707 44.8784 50.72C44.9638 50.864 45.0064 51.024 45.0064 51.2V51.432H44.3584V51.2C44.3584 51.1147 44.3264 51.0427 44.2624 50.984C44.2038 50.92 44.1318 50.888 44.0464 50.888H40.2064C40.1211 50.888 40.0464 50.92 39.9824 50.984C39.9238 51.0427 39.8944 51.1147 39.8944 51.2V55.04C39.8944 55.1253 39.9238 55.2 39.9824 55.264C40.0464 55.3227 40.1211 55.352 40.2064 55.352H44.0464C44.1318 55.352 44.2038 55.3227 44.2624 55.264C44.3264 55.2 44.3584 55.1253 44.3584 55.04V53.616H42.9344V52.96H45.0064V55.04C45.0064 55.216 44.9638 55.3787 44.8784 55.528C44.7931 55.672 44.6758 55.7867 44.5264 55.872C44.3824 55.9573 44.2224 56 44.0464 56H40.2064ZM47.6071 56C47.4311 56 47.2684 55.9573 47.1191 55.872C46.9751 55.7867 46.8604 55.672 46.7751 55.528C46.6897 55.3787 46.6471 55.216 46.6471 55.04V54.816H47.2951V55.04C47.2951 55.1253 47.3244 55.2 47.3831 55.264C47.4471 55.3227 47.5217 55.352 47.6071 55.352H51.4471C51.5324 55.352 51.6044 55.3227 51.6631 55.264C51.7271 55.2 51.7591 55.1253 51.7591 55.04V53.752C51.7591 53.6667 51.7271 53.5947 51.6631 53.536C51.6044 53.4773 51.5324 53.448 51.4471 53.448H47.6071C47.4311 53.448 47.2684 53.4053 47.1191 53.32C46.9751 53.2293 46.8604 53.112 46.7751 52.968C46.6897 52.824 46.6471 52.664 46.6471 52.488V51.2C46.6471 51.024 46.6897 50.864 46.7751 50.72C46.8604 50.5707 46.9751 50.4533 47.1191 50.368C47.2684 50.2827 47.4311 50.24 47.6071 50.24H51.4471C51.6231 50.24 51.7831 50.2827 51.9271 50.368C52.0764 50.4533 52.1937 50.5707 52.2791 50.72C52.3644 50.864 52.4071 51.024 52.4071 51.2V51.424H51.7591V51.2C51.7591 51.1147 51.7271 51.0427 51.6631 50.984C51.6044 50.92 51.5324 50.888 51.4471 50.888H47.6071C47.5217 50.888 47.4471 50.92 47.3831 50.984C47.3244 51.0427 47.2951 51.1147 47.2951 51.2V52.488C47.2951 52.5733 47.3244 52.6453 47.3831 52.704C47.4471 52.7627 47.5217 52.792 47.6071 52.792H51.4471C51.6231 52.792 51.7831 52.8373 51.9271 52.928C52.0764 53.0133 52.1937 53.128 52.2791 53.272C52.3644 53.416 52.4071 53.576 52.4071 53.752V55.04C52.4071 55.216 52.3644 55.3787 52.2791 55.528C52.1937 55.672 52.0764 55.7867 51.9271 55.872C51.7831 55.9573 51.6231 56 51.4471 56H47.6071Z" fill="#B9B29D"/>
</svg>
