<svg width="70" height="60" viewBox="0 0 70 60" fill="none" xmlns="http://www.w3.org/2000/svg">
<path d="M18 41H26V42H17V33H18V41Z" fill="#B9B29D"/>
<path d="M53 42H44V41H52V33H53V42Z" fill="#B9B29D"/>
<path d="M35 20.4287C36.9805 20.4287 38.5713 22.0195 38.5713 24C38.5713 25.9805 36.9805 27.5713 35 27.5713C33.0195 27.5713 31.4287 25.9805 31.4287 24C31.4287 22.0195 33.0195 20.4287 35 20.4287Z" fill="#B9B29D"/>
<path fill-rule="evenodd" clip-rule="evenodd" d="M35 18.5459C37.9286 18.5459 40.89 19.2406 46.3965 20.6172C46.6886 21.63 46.8438 22.896 46.8828 24.123C37.487 26.0906 38.9932 28.1755 37.2725 35.6689C36.5323 35.8053 35.7791 35.8828 35 35.8828C34.2209 35.8828 33.4677 35.8053 32.7275 35.6689C31.0068 28.1755 32.513 26.0906 23.1172 24.123C23.1172 23.0193 23.2997 21.8637 23.6055 20.6172C29.1105 19.2406 32.0715 18.5459 35 18.5459ZM35 19.2598C32.3896 19.2598 30.2598 21.3896 30.2598 24C30.2598 26.6104 32.3896 28.7402 35 28.7402C37.6104 28.7402 39.7402 26.6104 39.7402 24C39.7402 21.3896 37.6104 19.2598 35 19.2598Z" fill="#B9B29D"/>
<path fill-rule="evenodd" clip-rule="evenodd" d="M35 9C43.2922 9 50 15.7078 50 24C50 32.2922 43.2922 39 35 39C26.7078 39 20 32.2922 20 24C20 15.7078 26.7078 9 35 9ZM35 10.9482C27.7987 10.9482 21.9482 16.7987 21.9482 24C21.9482 31.2013 27.7987 37.0518 35 37.0518C42.2013 37.0518 48.0518 31.2013 48.0518 24C48.0518 16.7987 42.2013 10.9482 35 10.9482Z" fill="#B9B29D"/>
<path d="M26 7H18V15H17V6H26V7Z" fill="#B9B29D"/>
<path d="M53 15H52V7H44V6H53V15Z" fill="#B9B29D"/>
<path d="M11.616 56L8.28 50.24H9.04L11.992 55.368L14.936 50.24H15.696L12.368 56H11.616ZM17.2874 56V50.24H22.5434V50.888H17.9354V52.792H21.6394V53.448H17.9354V55.352H22.5434V56H17.2874ZM24.2044 56V50.24H24.8524V52.792H29.4524V50.24H30.1084V56H29.4524V53.448H24.8524V56H24.2044ZM31.8811 56V50.24H32.5371V56H31.8811ZM35.2721 56C35.0961 56 34.9334 55.9573 34.7841 55.872C34.6401 55.7867 34.5254 55.672 34.4401 55.528C34.3547 55.3787 34.3121 55.216 34.3121 55.04V51.2C34.3121 51.024 34.3547 50.864 34.4401 50.72C34.5254 50.5707 34.6401 50.4533 34.7841 50.368C34.9334 50.2827 35.0961 50.24 35.2721 50.24H40.0561V50.888H35.2721C35.1867 50.888 35.1121 50.92 35.0481 50.984C34.9894 51.0427 34.9601 51.1147 34.9601 51.2V55.04C34.9601 55.1253 34.9894 55.2 35.0481 55.264C35.1121 55.3227 35.1867 55.352 35.2721 55.352H40.0561V56H35.2721ZM41.6982 56V50.232H42.3462V55.352H47.4582V56H41.6982ZM48.7406 56V50.24H53.9966V50.888H49.3886V52.792H53.0926V53.448H49.3886V55.352H53.9966V56H48.7406ZM56.5696 56C56.3936 56 56.2309 55.9573 56.0816 55.872C55.9376 55.7867 55.8229 55.672 55.7376 55.528C55.6522 55.3787 55.6096 55.216 55.6096 55.04V54.816H56.2576V55.04C56.2576 55.1253 56.2869 55.2 56.3456 55.264C56.4096 55.3227 56.4842 55.352 56.5696 55.352H60.4096C60.4949 55.352 60.5669 55.3227 60.6256 55.264C60.6896 55.2 60.7216 55.1253 60.7216 55.04V53.752C60.7216 53.6667 60.6896 53.5947 60.6256 53.536C60.5669 53.4773 60.4949 53.448 60.4096 53.448H56.5696C56.3936 53.448 56.2309 53.4053 56.0816 53.32C55.9376 53.2293 55.8229 53.112 55.7376 52.968C55.6522 52.824 55.6096 52.664 55.6096 52.488V51.2C55.6096 51.024 55.6522 50.864 55.7376 50.72C55.8229 50.5707 55.9376 50.4533 56.0816 50.368C56.2309 50.2827 56.3936 50.24 56.5696 50.24H60.4096C60.5856 50.24 60.7456 50.2827 60.8896 50.368C61.0389 50.4533 61.1562 50.5707 61.2416 50.72C61.3269 50.864 61.3696 51.024 61.3696 51.2V51.424H60.7216V51.2C60.7216 51.1147 60.6896 51.0427 60.6256 50.984C60.5669 50.92 60.4949 50.888 60.4096 50.888H56.5696C56.4842 50.888 56.4096 50.92 56.3456 50.984C56.2869 51.0427 56.2576 51.1147 56.2576 51.2V52.488C56.2576 52.5733 56.2869 52.6453 56.3456 52.704C56.4096 52.7627 56.4842 52.792 56.5696 52.792H60.4096C60.5856 52.792 60.7456 52.8373 60.8896 52.928C61.0389 53.0133 61.1562 53.128 61.2416 53.272C61.3269 53.416 61.3696 53.576 61.3696 53.752V55.04C61.3696 55.216 61.3269 55.3787 61.2416 55.528C61.1562 55.672 61.0389 55.7867 60.8896 55.872C60.7456 55.9573 60.5856 56 60.4096 56H56.5696Z" fill="#B9B29D"/>
</svg>
