<svg width="70" height="60" viewBox="0 0 70 60" fill="none" xmlns="http://www.w3.org/2000/svg">
<path d="M18 41H26V42H17V33H18V41Z" fill="#B9B29D"/>
<path d="M53 42H44V41H52V33H53V42Z" fill="#B9B29D"/>
<path fill-rule="evenodd" clip-rule="evenodd" d="M48.8936 20.1006C49.2772 22.6729 49.6067 25.9687 49.4824 29.0176C49.3582 32.0665 48.8238 34.8934 47.2295 36.5244L47.1094 36.6465L46.9414 36.6768C41.6426 37.6453 37.7748 37.9961 35.2354 38C33.9657 38.002 33.0335 37.9212 32.3818 37.7695C32.0561 37.6937 31.8001 37.6098 31.5723 37.4502C31.4584 37.3704 31.3442 37.2656 31.2666 37.1035C31.1891 36.9412 31.1765 36.7194 31.2334 36.5508C31.3473 36.2137 31.5789 36.0741 31.8252 35.9395C32.0715 35.8049 32.3722 35.6922 32.7441 35.585C33.4884 35.3703 34.5169 35.1858 35.8418 35.0537C38.432 34.7955 42.1563 34.7467 46.9395 35.1553C47.8412 33.7692 48.3044 31.4969 48.4072 28.9736C48.527 26.0342 48.2061 22.7868 47.8291 20.2588L48.8936 20.1006ZM40.6855 35.9297C38.8117 35.9199 37.2284 35.9973 35.9482 36.125C34.6684 36.2526 33.6893 36.4328 33.043 36.6191C32.9095 36.6576 32.7992 36.6965 32.6953 36.7344C33.2093 36.8451 34.0609 36.9256 35.2344 36.9238C37.2664 36.9207 40.268 36.6777 44.2402 36.0449C42.9635 35.9747 41.7698 35.9354 40.6855 35.9297Z" fill="#B9B29D"/>
<path d="M41.0947 21.1885C42.1083 21.188 42.8877 21.2178 42.8877 21.2178C40.0143 21.4159 36.5934 21.6545 35.9873 25.5859C35.9873 25.5859 35.8405 22.4704 36.5986 21.7314C37.0659 21.276 39.4055 21.1893 41.0947 21.1885Z" fill="#B9B29D"/>
<path fill-rule="evenodd" clip-rule="evenodd" d="M46.7539 19.6523V33.8828H22V19.6523H46.7539ZM27.6201 21.0273V26.2295H26.7832V22.9404H25.707V26.2295H24.8701V24.8545H23.7939V28.6807H24.8701V27.3057H25.707V30.5938H26.7832V27.3057H27.6201V32.5078H28.6963V27.3057H29.5342V30.5938H30.6104V27.3057H31.4473V28.6807H32.5234V24.8545H31.4473V26.2295H30.6104V22.9404H29.5342V26.2295H28.6963V21.0273H27.6201ZM41.6416 29.0996H35.8125V30.1758H45.3789V29.0996H43.376L42.5088 27.3652L41.6416 29.0996ZM35.2744 20.4893V26.3486H45.917V20.4893H35.2744Z" fill="#B9B29D"/>
<path d="M23.8535 17.7383C24.4102 17.7383 24.905 17.9044 25.2324 18.1377C25.4242 18.2744 25.5542 18.4233 25.6289 18.5762H22.0781C22.1529 18.4233 22.2828 18.2744 22.4746 18.1377C22.8021 17.9044 23.2968 17.7383 23.8535 17.7383Z" fill="#B9B29D"/>
<path d="M42.335 12.2197L26.5996 18.1211C26.4352 17.7808 26.1724 17.4863 25.8574 17.2617C25.8538 17.2591 25.8493 17.2565 25.8457 17.2539L41.9482 11.2158C42.0898 11.584 42.2174 11.9119 42.335 12.2197Z" fill="#B9B29D"/>
<path d="M26 7H18V15H17V6H26V7Z" fill="#B9B29D"/>
<path d="M53 15H52V7H44V6H53V15Z" fill="#B9B29D"/>
<path d="M45.5674 11.0078L43.3428 11.8418C43.2253 11.5342 43.0983 11.2079 42.9561 10.8379L45.1904 10L45.5674 11.0078Z" fill="#B9B29D"/>
<path d="M19.72 56V50.888H17.16V50.24H22.92V50.888H20.368V56H19.72ZM25.2623 56C25.0863 56 24.9236 55.9573 24.7743 55.872C24.6303 55.7867 24.5156 55.672 24.4303 55.528C24.345 55.3787 24.3023 55.216 24.3023 55.04V51.2C24.3023 51.024 24.345 50.864 24.4303 50.72C24.5156 50.5707 24.6303 50.4533 24.7743 50.368C24.9236 50.2827 25.0863 50.24 25.2623 50.24H29.1023C29.2783 50.24 29.4383 50.2827 29.5823 50.368C29.7316 50.4533 29.849 50.5707 29.9343 50.72C30.0196 50.864 30.0623 51.024 30.0623 51.2V55.04C30.0623 55.216 30.0196 55.3787 29.9343 55.528C29.849 55.672 29.7316 55.7867 29.5823 55.872C29.4383 55.9573 29.2783 56 29.1023 56H25.2623ZM25.2623 55.352H29.1023C29.1876 55.352 29.2596 55.3227 29.3183 55.264C29.3823 55.2 29.4143 55.1253 29.4143 55.04V51.2C29.4143 51.1147 29.3823 51.0427 29.3183 50.984C29.2596 50.92 29.1876 50.888 29.1023 50.888H25.2623C25.177 50.888 25.1023 50.92 25.0383 50.984C24.9796 51.0427 24.9503 51.1147 24.9503 51.2V55.04C24.9503 55.1253 24.9796 55.2 25.0383 55.264C25.1023 55.3227 25.177 55.352 25.2623 55.352ZM32.6873 56C32.5113 56 32.3486 55.9573 32.1993 55.872C32.0553 55.7867 31.9406 55.672 31.8553 55.528C31.77 55.3787 31.7273 55.216 31.7273 55.04V51.2C31.7273 51.024 31.77 50.864 31.8553 50.72C31.9406 50.5707 32.0553 50.4533 32.1993 50.368C32.3486 50.2827 32.5113 50.24 32.6873 50.24H36.5273C36.7033 50.24 36.8633 50.2827 37.0073 50.368C37.1566 50.4533 37.274 50.5707 37.3593 50.72C37.4446 50.864 37.4873 51.024 37.4873 51.2V55.04C37.4873 55.216 37.4446 55.3787 37.3593 55.528C37.274 55.672 37.1566 55.7867 37.0073 55.872C36.8633 55.9573 36.7033 56 36.5273 56H32.6873ZM32.6873 55.352H36.5273C36.6126 55.352 36.6846 55.3227 36.7433 55.264C36.8073 55.2 36.8393 55.1253 36.8393 55.04V51.2C36.8393 51.1147 36.8073 51.0427 36.7433 50.984C36.6846 50.92 36.6126 50.888 36.5273 50.888H32.6873C32.602 50.888 32.5273 50.92 32.4633 50.984C32.4046 51.0427 32.3753 51.1147 32.3753 51.2V55.04C32.3753 55.1253 32.4046 55.2 32.4633 55.264C32.5273 55.3227 32.602 55.352 32.6873 55.352ZM39.1763 56V50.232H39.8243V55.352H44.9363V56H39.1763ZM47.1227 56C46.9467 56 46.784 55.9573 46.6347 55.872C46.4907 55.7867 46.376 55.672 46.2907 55.528C46.2054 55.3787 46.1627 55.216 46.1627 55.04V54.816H46.8107V55.04C46.8107 55.1253 46.84 55.2 46.8987 55.264C46.9627 55.3227 47.0374 55.352 47.1227 55.352H50.9627C51.048 55.352 51.12 55.3227 51.1787 55.264C51.2427 55.2 51.2747 55.1253 51.2747 55.04V53.752C51.2747 53.6667 51.2427 53.5947 51.1787 53.536C51.12 53.4773 51.048 53.448 50.9627 53.448H47.1227C46.9467 53.448 46.784 53.4053 46.6347 53.32C46.4907 53.2293 46.376 53.112 46.2907 52.968C46.2054 52.824 46.1627 52.664 46.1627 52.488V51.2C46.1627 51.024 46.2054 50.864 46.2907 50.72C46.376 50.5707 46.4907 50.4533 46.6347 50.368C46.784 50.2827 46.9467 50.24 47.1227 50.24H50.9627C51.1387 50.24 51.2987 50.2827 51.4427 50.368C51.592 50.4533 51.7094 50.5707 51.7947 50.72C51.88 50.864 51.9227 51.024 51.9227 51.2V51.424H51.2747V51.2C51.2747 51.1147 51.2427 51.0427 51.1787 50.984C51.12 50.92 51.048 50.888 50.9627 50.888H47.1227C47.0374 50.888 46.9627 50.92 46.8987 50.984C46.84 51.0427 46.8107 51.1147 46.8107 51.2V52.488C46.8107 52.5733 46.84 52.6453 46.8987 52.704C46.9627 52.7627 47.0374 52.792 47.1227 52.792H50.9627C51.1387 52.792 51.2987 52.8373 51.4427 52.928C51.592 53.0133 51.7094 53.128 51.7947 53.272C51.88 53.416 51.9227 53.576 51.9227 53.752V55.04C51.9227 55.216 51.88 55.3787 51.7947 55.528C51.7094 55.672 51.592 55.7867 51.4427 55.872C51.2987 55.9573 51.1387 56 50.9627 56H47.1227Z" fill="#B9B29D"/>
</svg>
