<svg width="70" height="60" viewBox="0 0 70 60" fill="none" xmlns="http://www.w3.org/2000/svg">
<path d="M18 41H26V42H17V33H18V41Z" fill="#444856"/>
<path d="M53 42H44V41H52V33H53V42Z" fill="#444856"/>
<path d="M34.3857 29.6387V34.9805C35.0866 35.2038 35.5946 35.8606 35.5947 36.6357C35.5947 37.595 34.8178 38.3739 33.8584 38.374C32.8989 38.374 32.1201 37.5952 32.1201 36.6357C32.1202 35.875 32.6106 35.2289 33.292 34.9941V29.6387H34.3857Z" fill="#444856"/>
<path d="M39.0479 29.6387V38.3047H37.9551V29.6387H39.0479Z" fill="#444856"/>
<path d="M44.9648 26.5176V33.5215C45.6474 33.7558 46.1387 34.4029 46.1387 35.165C46.1385 36.1241 45.3615 36.9011 44.4023 36.9014C43.443 36.9014 42.6642 36.1243 42.6641 35.165C42.6641 34.3904 43.1715 33.7321 43.8721 33.5078V27.6123H41.0781V26.5176H44.9648Z" fill="#444856"/>
<path d="M29.0049 26.5176V27.6123H27.8193V31.7539C28.4912 31.9935 28.9717 32.6352 28.9717 33.3896C28.9716 34.349 28.1947 35.1279 27.2354 35.1279C26.2761 35.1277 25.4971 34.3489 25.4971 33.3896C25.4971 32.6073 26.0161 31.9459 26.7275 31.7285V26.5176H29.0049Z" fill="#444856"/>
<path d="M32.1299 29.6387V32.9814H31.0352V29.6387H32.1299Z" fill="#444856"/>
<path d="M36.6904 29.6387L36.6934 32.9814H35.5986V29.6387H36.6904Z" fill="#444856"/>
<path d="M29.0049 21.9561V23.0488H23.5117V27.5488C24.184 27.7886 24.666 28.4301 24.666 29.1846C24.6658 30.1437 23.8871 30.9219 22.9277 30.9219C21.9684 30.9218 21.1917 30.1437 21.1914 29.1846C21.1914 28.4022 21.7082 27.7408 22.4189 27.5234V21.9561H29.0049Z" fill="#444856"/>
<path fill-rule="evenodd" clip-rule="evenodd" d="M39.9854 18.6621V28.5439H30.0977V18.6621H39.9854ZM31.1846 24.9482L31.9424 25.7061C31.4846 25.7692 31.1319 26.1585 31.1318 26.6338C31.1318 27.1528 31.5522 27.573 32.0713 27.5732C32.5458 27.5732 32.938 27.2225 33.002 26.7656L33.8271 27.5908H38.9395V26.498H34.2812L32.2764 24.4932V19.6309H31.1846V24.9482ZM34.583 19.6396V24.1572H38.9277V23.0625H35.6777V19.6396H34.583Z" fill="#444856"/>
<path d="M47.2637 23.3154C48.223 23.3155 48.9998 24.0924 49 25.0518C49 26.0112 48.2231 26.79 47.2637 26.79C46.4078 26.79 45.6966 26.1702 45.5527 25.3555H41.0781V24.2607H45.7168C46.0051 23.6998 46.5895 23.3154 47.2637 23.3154Z" fill="#444856"/>
<path d="M29.0049 24.2607V25.3555H25.666V24.2607H29.0049Z" fill="#444856"/>
<path d="M44.417 21.9561V23.0488H41.0781V21.9561H44.417Z" fill="#444856"/>
<path d="M26.2129 16.1572V19.5996H29.0049V20.6924H25.1182V17.252H21V16.1572H26.2129Z" fill="#444856"/>
<path d="M47.2637 14.4795C48.2231 14.4796 49 15.2583 49 16.2178C49 16.9439 48.5553 17.5648 47.9229 17.8242V20.6924H41.0781V19.5996H46.8281V17.8994C46.0788 17.7066 45.5255 17.027 45.5254 16.2178C45.5254 15.2583 46.3042 14.4795 47.2637 14.4795Z" fill="#444856"/>
<path d="M26.5938 10.5391C27.347 10.5391 27.9889 11.0189 28.2295 11.6895H32.1299V17.5674H31.0352V12.7832H28.2549C28.0381 13.4949 27.3768 14.0137 26.5938 14.0137C25.6344 14.0136 24.8557 13.2366 24.8555 12.2773C24.8555 11.3179 25.6343 10.5391 26.5938 10.5391Z" fill="#444856"/>
<path d="M34.3857 10.5V17.5674H33.292V10.5H34.3857Z" fill="#444856"/>
<path d="M36.6904 14.2295V17.5674H35.5986V14.2295H36.6904Z" fill="#444856"/>
<path d="M38.5508 10.5391C39.5103 10.5391 40.2891 11.3178 40.2891 12.2773C40.2889 13.0638 39.7652 13.7278 39.0479 13.9414V17.5674H37.9561V13.9092C37.2902 13.6663 36.8146 13.0273 36.8145 12.2773C36.8145 11.3179 37.5914 10.5392 38.5508 10.5391Z" fill="#444856"/>
<path d="M26 7H18V15H17V6H26V7Z" fill="#444856"/>
<path d="M53 15H52V7H44V6H53V15Z" fill="#444856"/>
<path d="M2.408 56C2.232 56 2.06933 55.9573 1.92 55.872C1.776 55.7867 1.66133 55.672 1.576 55.528C1.49067 55.3787 1.448 55.216 1.448 55.04V51.2C1.448 51.024 1.49067 50.864 1.576 50.72C1.66133 50.5707 1.776 50.4533 1.92 50.368C2.06933 50.2827 2.232 50.24 2.408 50.24H7.192V50.888H2.408C2.32267 50.888 2.248 50.92 2.184 50.984C2.12533 51.0427 2.096 51.1147 2.096 51.2V55.04C2.096 55.1253 2.12533 55.2 2.184 55.264C2.248 55.3227 2.32267 55.352 2.408 55.352H7.192V56H2.408ZM11.2821 56V53.832L8.63413 50.24H9.37813L11.6101 53.056L13.8181 50.24H14.5781L11.9301 53.832V56H11.2821ZM16.0954 56V50.24H20.6474C20.8234 50.24 20.9834 50.2827 21.1274 50.368C21.2768 50.4533 21.3941 50.5707 21.4794 50.72C21.5648 50.864 21.6074 51.024 21.6074 51.2V52.424C21.6074 52.4987 21.5968 52.5733 21.5754 52.648C21.5594 52.7173 21.5354 52.784 21.5034 52.848C21.6208 53.024 21.7088 53.176 21.7674 53.304C21.8261 53.432 21.8554 53.5627 21.8554 53.696V55.04C21.8554 55.216 21.8128 55.3787 21.7274 55.528C21.6421 55.672 21.5248 55.7867 21.3754 55.872C21.2314 55.9573 21.0714 56 20.8954 56H16.0954ZM17.0554 55.352H20.8954C20.9808 55.352 21.0528 55.3227 21.1114 55.264C21.1754 55.2 21.2074 55.1253 21.2074 55.04V53.696C21.2074 53.6107 21.1754 53.5387 21.1114 53.48C21.0528 53.416 20.9808 53.384 20.8954 53.384H17.0554C16.9701 53.384 16.8954 53.416 16.8314 53.48C16.7728 53.5387 16.7434 53.6107 16.7434 53.696V55.04C16.7434 55.1253 16.7728 55.2 16.8314 55.264C16.8954 55.3227 16.9701 55.352 17.0554 55.352ZM17.0554 52.736H20.6474C20.7328 52.736 20.8048 52.7067 20.8634 52.648C20.9221 52.584 20.9514 52.5093 20.9514 52.424V51.2C20.9514 51.1147 20.9221 51.0427 20.8634 50.984C20.8048 50.92 20.7328 50.888 20.6474 50.888H17.0554C16.9701 50.888 16.8954 50.92 16.8314 50.984C16.7728 51.0427 16.7434 51.1147 16.7434 51.2V52.424C16.7434 52.5093 16.7728 52.584 16.8314 52.648C16.8954 52.7067 16.9701 52.736 17.0554 52.736ZM23.5437 56V50.24H28.7997V50.888H24.1917V52.792H27.8957V53.448H24.1917V55.352H28.7997V56H23.5437ZM35.3167 56L33.4367 53.76H34.2847L36.1727 55.992V56H35.3167ZM30.4527 56V50.248H35.2527C35.4287 50.248 35.5887 50.2933 35.7327 50.384C35.882 50.4693 35.9994 50.584 36.0847 50.728C36.17 50.872 36.2127 51.032 36.2127 51.208V52.896C36.2127 53.072 36.17 53.232 36.0847 53.376C35.9994 53.52 35.882 53.6373 35.7327 53.728C35.5887 53.8133 35.4287 53.856 35.2527 53.856H31.1007V56H30.4527ZM31.4127 53.2H35.2527C35.338 53.2 35.41 53.1707 35.4687 53.112C35.5327 53.0533 35.5647 52.9813 35.5647 52.896V51.208C35.5647 51.1227 35.5327 51.0507 35.4687 50.992C35.41 50.928 35.338 50.896 35.2527 50.896H31.4127C31.3274 50.896 31.2527 50.928 31.1887 50.992C31.13 51.0507 31.1007 51.1227 31.1007 51.208V52.896C31.1007 52.9813 31.13 53.0533 31.1887 53.112C31.2527 53.1707 31.3274 53.2 31.4127 53.2ZM39.6338 56L37.5378 50.24H38.2258L39.9138 54.864L41.5938 50.24H42.3778L44.0658 54.864L45.7378 50.24H46.4418L44.3458 56H43.7778L41.9858 51.08L40.1938 56H39.6338ZM47.7327 56V51.2C47.7327 51.024 47.7754 50.864 47.8607 50.72C47.9461 50.5707 48.0607 50.4533 48.2047 50.368C48.3541 50.2827 48.5167 50.24 48.6927 50.24H52.5327C52.7087 50.24 52.8687 50.2827 53.0127 50.368C53.1621 50.4533 53.2794 50.5707 53.3647 50.72C53.4501 50.864 53.4927 51.024 53.4927 51.2V56H52.8447V53.896H48.3807V56H47.7327ZM48.3807 53.248H52.8447V51.2C52.8447 51.1147 52.8127 51.0427 52.7487 50.984C52.6901 50.92 52.6181 50.888 52.5327 50.888H48.6927C48.6074 50.888 48.5327 50.92 48.4687 50.984C48.4101 51.0427 48.3807 51.1147 48.3807 51.2V53.248ZM60.0682 56L58.1882 53.76H59.0362L60.9242 55.992V56H60.0682ZM55.2042 56V50.248H60.0042C60.1802 50.248 60.3402 50.2933 60.4842 50.384C60.6336 50.4693 60.7509 50.584 60.8362 50.728C60.9216 50.872 60.9642 51.032 60.9642 51.208V52.896C60.9642 53.072 60.9216 53.232 60.8362 53.376C60.7509 53.52 60.6336 53.6373 60.4842 53.728C60.3402 53.8133 60.1802 53.856 60.0042 53.856H55.8522V56H55.2042ZM56.1642 53.2H60.0042C60.0896 53.2 60.1616 53.1707 60.2202 53.112C60.2842 53.0533 60.3162 52.9813 60.3162 52.896V51.208C60.3162 51.1227 60.2842 51.0507 60.2202 50.992C60.1616 50.928 60.0896 50.896 60.0042 50.896H56.1642C56.0789 50.896 56.0042 50.928 55.9402 50.992C55.8816 51.0507 55.8522 51.1227 55.8522 51.208V52.896C55.8522 52.9813 55.8816 53.0533 55.9402 53.112C56.0042 53.1707 56.0789 53.2 56.1642 53.2ZM62.6218 56V50.24H67.8778V50.888H63.2698V52.792H66.9738V53.448H63.2698V55.352H67.8778V56H62.6218Z" fill="#444856"/>
</svg>
