<svg width="70" height="60" viewBox="0 0 70 60" fill="none" xmlns="http://www.w3.org/2000/svg">
<path d="M18 41H26V42H17V33H18V41Z" fill="#444856"/>
<path d="M53 42H44V41H52V33H53V42Z" fill="#444856"/>
<path d="M39.5391 9.32031L37.2041 14.7461L38.2246 15.1855L40.7646 16.2754L41.7852 16.7148L44.1406 11.2432L44.8652 11.5469C43.7589 13.0258 43.2616 14.8726 43.4766 16.707C43.6915 18.5415 44.6022 20.2241 46.0205 21.4072V23.7354H40.0488V28.7256H46.0225V29.6377H40.0508V34.6279H46.0225V37.0762C44.9496 38.149 39.9753 38.6855 35.001 38.6855C30.0264 38.6855 25.0514 38.149 23.9785 37.0762V34.6279H29.9502V29.6367H23.9785V28.7256H29.9502V23.7412H23.9785V21.4131C25.3969 20.23 26.3075 18.5473 26.5225 16.7129C26.7374 14.8786 26.241 13.0316 25.1348 11.5527L25.8428 11.2559L28.0889 16.7275L31.6777 15.2549L32.7051 14.8359L30.4463 9.33008L30.9658 9.1123C31.3655 9.83167 31.95 10.4312 32.6592 10.8486C33.3685 11.266 34.177 11.4863 35 11.4863C35.8231 11.4863 36.6314 11.2661 37.3408 10.8486C38.0502 10.4312 38.6354 9.83183 39.0352 9.1123L39.5391 9.32031Z" fill="#444856"/>
<path d="M28.8398 30.748V33.5176H22.8662V30.748H28.8398Z" fill="#444856"/>
<path d="M47.1338 30.748V33.5176H41.1602V30.748H47.1338Z" fill="#444856"/>
<path d="M28.8398 24.8467V27.6152H22.8662V24.8467H28.8398Z" fill="#444856"/>
<path d="M47.1338 24.8467V27.6152H41.1602V24.8467H47.1338Z" fill="#444856"/>
<path d="M31.2568 14.2246L28.6943 15.2754L26.4307 9.75781L28.9922 8.70703L31.2568 14.2246Z" fill="#444856"/>
<path d="M43.5645 9.78027L41.207 15.2578L38.6631 14.1631L41.0215 8.68555L43.5645 9.78027Z" fill="#444856"/>
<path d="M26 7H18V15H17V6H26V7Z" fill="#444856"/>
<path d="M53 15H52V7H44V6H53V15Z" fill="#444856"/>
<path d="M13.892 56C13.716 56 13.5533 55.9573 13.404 55.872C13.26 55.7867 13.1453 55.672 13.06 55.528C12.9747 55.3787 12.932 55.216 12.932 55.04V51.2C12.932 51.024 12.9747 50.864 13.06 50.72C13.1453 50.5707 13.26 50.4533 13.404 50.368C13.5533 50.2827 13.716 50.24 13.892 50.24H17.732C17.908 50.24 18.068 50.2827 18.212 50.368C18.3613 50.4533 18.4787 50.5707 18.564 50.72C18.6493 50.864 18.692 51.024 18.692 51.2V55.04C18.692 55.216 18.6493 55.3787 18.564 55.528C18.4787 55.672 18.3613 55.7867 18.212 55.872C18.068 55.9573 17.908 56 17.732 56H13.892ZM13.892 55.352H17.732C17.8173 55.352 17.8893 55.3227 17.948 55.264C18.012 55.2 18.044 55.1253 18.044 55.04V51.2C18.044 51.1147 18.012 51.0427 17.948 50.984C17.8893 50.92 17.8173 50.888 17.732 50.888H13.892C13.8067 50.888 13.732 50.92 13.668 50.984C13.6093 51.0427 13.58 51.1147 13.58 51.2V55.04C13.58 55.1253 13.6093 55.2 13.668 55.264C13.732 55.3227 13.8067 55.352 13.892 55.352ZM21.317 56C21.141 56 20.9783 55.9573 20.829 55.872C20.685 55.7867 20.5703 55.672 20.485 55.528C20.3997 55.3787 20.357 55.216 20.357 55.04V50.24H21.005V55.04C21.005 55.1253 21.0343 55.2 21.093 55.264C21.157 55.3227 21.2317 55.352 21.317 55.352H25.157C25.2423 55.352 25.3143 55.3227 25.373 55.264C25.437 55.2 25.469 55.1253 25.469 55.04V50.24H26.117V55.04C26.117 55.216 26.0743 55.3787 25.989 55.528C25.9037 55.672 25.7863 55.7867 25.637 55.872C25.493 55.9573 25.333 56 25.157 56H21.317ZM30.07 56V50.888H27.51V50.24H33.27V50.888H30.718V56H30.07ZM34.6843 56V50.24H39.9403V50.888H35.3323V52.792H39.0363V53.448H35.3323V56H34.6843ZM41.3296 56V50.24H41.9856V56H41.3296ZM46.0325 56V50.888H43.4725V50.24H49.2325V50.888H46.6805V56H46.0325ZM51.5508 56C51.3748 56 51.2121 55.9573 51.0628 55.872C50.9188 55.7867 50.8041 55.672 50.7188 55.528C50.6335 55.3787 50.5908 55.216 50.5908 55.04V54.816H51.2388V55.04C51.2388 55.1253 51.2681 55.2 51.3268 55.264C51.3908 55.3227 51.4655 55.352 51.5508 55.352H55.3908C55.4761 55.352 55.5481 55.3227 55.6068 55.264C55.6708 55.2 55.7028 55.1253 55.7028 55.04V53.752C55.7028 53.6667 55.6708 53.5947 55.6068 53.536C55.5481 53.4773 55.4761 53.448 55.3908 53.448H51.5508C51.3748 53.448 51.2121 53.4053 51.0628 53.32C50.9188 53.2293 50.8041 53.112 50.7188 52.968C50.6335 52.824 50.5908 52.664 50.5908 52.488V51.2C50.5908 51.024 50.6335 50.864 50.7188 50.72C50.8041 50.5707 50.9188 50.4533 51.0628 50.368C51.2121 50.2827 51.3748 50.24 51.5508 50.24H55.3908C55.5668 50.24 55.7268 50.2827 55.8708 50.368C56.0201 50.4533 56.1375 50.5707 56.2228 50.72C56.3081 50.864 56.3508 51.024 56.3508 51.2V51.424H55.7028V51.2C55.7028 51.1147 55.6708 51.0427 55.6068 50.984C55.5481 50.92 55.4761 50.888 55.3908 50.888H51.5508C51.4655 50.888 51.3908 50.92 51.3268 50.984C51.2681 51.0427 51.2388 51.1147 51.2388 51.2V52.488C51.2388 52.5733 51.2681 52.6453 51.3268 52.704C51.3908 52.7627 51.4655 52.792 51.5508 52.792H55.3908C55.5668 52.792 55.7268 52.8373 55.8708 52.928C56.0201 53.0133 56.1375 53.128 56.2228 53.272C56.3081 53.416 56.3508 53.576 56.3508 53.752V55.04C56.3508 55.216 56.3081 55.3787 56.2228 55.528C56.1375 55.672 56.0201 55.7867 55.8708 55.872C55.7268 55.9573 55.5668 56 55.3908 56H51.5508Z" fill="#444856"/>
</svg>
