<svg width="70" height="60" viewBox="0 0 70 60" fill="none" xmlns="http://www.w3.org/2000/svg">
<path d="M18 41H26V42H17V33H18V41Z" fill="#444856"/>
<path d="M53 42H44V41H52V33H53V42Z" fill="#444856"/>
<path d="M30.8867 25.9492L27.4092 27.4238L24.0352 19.4639L27.5068 17.9902L30.8867 25.9492Z" fill="#444856"/>
<path fill-rule="evenodd" clip-rule="evenodd" d="M39.6865 10C39.9421 10.0025 40.1617 10.0449 40.3564 10.124C40.9531 10.3653 41.4884 11.0119 42.0303 12.3008L45.0693 19.4766C45.4955 20.481 45.6479 21.2115 45.5811 21.7656C46.0256 22.2345 46.4212 22.8012 46.75 23.4102C47.1215 24.1044 47.4014 24.8599 47.5293 25.6211C47.8947 25.8038 48.2299 26.0535 48.5283 26.3701C49.8924 27.8317 49.8192 30.1093 48.376 31.4795C47.353 32.4535 45.9223 32.7026 44.6924 32.2461L38.3037 38.3359L34.4795 39L35.5146 37.6904L35.2344 36.3203L36.6777 36.5889L36.8359 34.7979L38.5049 34.8467L38.4561 33.2578L39.7959 33.6162L42.8525 30.7119C41.994 29.287 42.2134 27.4113 43.4678 26.2178C44.1437 25.5783 44.9968 25.2497 45.8555 25.2314C46.0137 25.2315 46.1721 25.2376 46.3242 25.2559C46.1963 24.8052 46.0136 24.354 45.7822 23.9277C45.5691 23.5258 45.3131 23.1543 45.0391 22.8193C44.6798 23.1786 44.1198 23.5201 43.2979 23.8672L28.9434 29.9502C27.6525 30.4982 26.8182 30.5903 26.2275 30.3467C25.6315 30.1092 25.0989 29.4635 24.5527 28.1729L21.5107 20.999C20.9639 19.708 20.8698 18.8729 21.1104 18.2822C21.351 17.6856 21.9976 17.1503 23.2871 16.6084L37.6396 10.5234C38.4433 10.1819 39.0769 10.0165 39.5762 10H39.6865ZM46.3486 26.8262C45.9711 26.8383 45.5933 26.9788 45.2949 27.2588C44.6678 27.8555 44.6311 28.8723 45.2275 29.5117C45.8182 30.1451 46.8237 30.1761 47.457 29.5732C48.0842 28.9764 48.1141 27.9656 47.5234 27.3262C47.3955 27.9411 47.1153 28.5136 46.6465 28.9824L45.8799 28.2031C46.2451 27.8378 46.4393 27.3748 46.4941 26.833C46.4456 26.827 46.3972 26.8262 46.3486 26.8262ZM22.5986 18.8799L26.8242 28.8604L32.3232 26.5342L28.0908 16.5527L22.5986 18.8799ZM43.0781 19.5127C42.2439 19.5127 41.5557 20.2009 41.5557 21.0352C41.5557 21.8694 42.2438 22.5576 43.0781 22.5576C43.5409 22.5576 43.9611 22.3445 44.2412 22.0156C44.2412 22.0102 44.2354 22.0098 44.2354 22.0098C43.6752 21.5653 43.1515 21.4071 42.7861 21.4922L42.542 20.4199C42.6454 20.3956 42.7491 20.384 42.8525 20.3779C43.4554 20.3353 44.0527 20.5545 44.5947 20.9199C44.5338 20.1404 43.8759 19.5127 43.0781 19.5127ZM35.2529 19.8662L35.6787 20.877L41.0625 18.5996L40.6357 17.5889L35.2529 19.8662ZM35.1553 17.333L35.582 18.3438L40.0693 16.4434L39.6436 15.4326L35.1553 17.333ZM30.6611 16.5225L31.0879 17.5332L39.1621 14.1133L38.7363 13.1035L30.6611 16.5225Z" fill="#444856"/>
<path d="M26 7H18V15H17V6H26V7Z" fill="#444856"/>
<path d="M53 15H52V7H44V6H53V15Z" fill="#444856"/>
<path d="M1.408 56C1.232 56 1.06933 55.9573 0.92 55.872C0.776 55.7867 0.661333 55.672 0.576 55.528C0.490667 55.3787 0.448 55.216 0.448 55.04V51.2C0.448 51.024 0.490667 50.864 0.576 50.72C0.661333 50.5707 0.776 50.4533 0.92 50.368C1.06933 50.2827 1.232 50.24 1.408 50.24H6.192V50.888H1.408C1.32267 50.888 1.248 50.92 1.184 50.984C1.12533 51.0427 1.096 51.1147 1.096 51.2V55.04C1.096 55.1253 1.12533 55.2 1.184 55.264C1.248 55.3227 1.32267 55.352 1.408 55.352H6.192V56H1.408ZM8.61012 56C8.43412 56 8.27146 55.9573 8.12212 55.872C7.97812 55.7867 7.86346 55.672 7.77812 55.528C7.69279 55.3787 7.65012 55.216 7.65012 55.04V51.2C7.65012 51.024 7.69279 50.864 7.77812 50.72C7.86346 50.5707 7.97812 50.4533 8.12212 50.368C8.27146 50.2827 8.43412 50.24 8.61012 50.24H12.4501C12.6261 50.24 12.7861 50.2827 12.9301 50.368C13.0795 50.4533 13.1968 50.5707 13.2821 50.72C13.3675 50.864 13.4101 51.024 13.4101 51.2V55.04C13.4101 55.216 13.3675 55.3787 13.2821 55.528C13.1968 55.672 13.0795 55.7867 12.9301 55.872C12.7861 55.9573 12.6261 56 12.4501 56H8.61012ZM8.61012 55.352H12.4501C12.5355 55.352 12.6075 55.3227 12.6661 55.264C12.7301 55.2 12.7621 55.1253 12.7621 55.04V51.2C12.7621 51.1147 12.7301 51.0427 12.6661 50.984C12.6075 50.92 12.5355 50.888 12.4501 50.888H8.61012C8.52479 50.888 8.45012 50.92 8.38612 50.984C8.32746 51.0427 8.29812 51.1147 8.29812 51.2V55.04C8.29812 55.1253 8.32746 55.2 8.38612 55.264C8.45012 55.3227 8.52479 55.352 8.61012 55.352ZM14.9311 56V50.24H15.8191L18.2111 53.088L20.6031 50.24H21.4911V56H20.8431V50.976L18.2111 54.104L15.5791 50.976V56H14.9311ZM22.993 56V50.24H23.881L26.273 53.088L28.665 50.24H29.553V56H28.905V50.976L26.273 54.104L23.641 50.976V56H22.993ZM31.9989 56C31.8229 56 31.6602 55.9573 31.5109 55.872C31.3669 55.7867 31.2522 55.672 31.1669 55.528C31.0815 55.3787 31.0389 55.216 31.0389 55.04V51.2C31.0389 51.024 31.0815 50.864 31.1669 50.72C31.2522 50.5707 31.3669 50.4533 31.5109 50.368C31.6602 50.2827 31.8229 50.24 31.9989 50.24H35.8389C36.0149 50.24 36.1749 50.2827 36.3189 50.368C36.4682 50.4533 36.5855 50.5707 36.6709 50.72C36.7562 50.864 36.7989 51.024 36.7989 51.2V55.04C36.7989 55.216 36.7562 55.3787 36.6709 55.528C36.5855 55.672 36.4682 55.7867 36.3189 55.872C36.1749 55.9573 36.0149 56 35.8389 56H31.9989ZM31.9989 55.352H35.8389C35.9242 55.352 35.9962 55.3227 36.0549 55.264C36.1189 55.2 36.1509 55.1253 36.1509 55.04V51.2C36.1509 51.1147 36.1189 51.0427 36.0549 50.984C35.9962 50.92 35.9242 50.888 35.8389 50.888H31.9989C31.9135 50.888 31.8389 50.92 31.7749 50.984C31.7162 51.0427 31.6869 51.1147 31.6869 51.2V55.04C31.6869 55.1253 31.7162 55.2 31.7749 55.264C31.8389 55.3227 31.9135 55.352 31.9989 55.352ZM38.3359 56V50.24H43.1359C43.3119 50.24 43.4719 50.2827 43.6159 50.368C43.7652 50.4533 43.8825 50.5707 43.9679 50.72C44.0532 50.864 44.0959 51.024 44.0959 51.2V55.04C44.0959 55.216 44.0532 55.3787 43.9679 55.528C43.8825 55.672 43.7652 55.7867 43.6159 55.872C43.4719 55.9573 43.3119 56 43.1359 56H38.3359ZM39.2959 55.352H43.1359C43.2212 55.352 43.2932 55.3227 43.3519 55.264C43.4159 55.2 43.4479 55.1253 43.4479 55.04V51.2C43.4479 51.1147 43.4159 51.0427 43.3519 50.984C43.2932 50.92 43.2212 50.888 43.1359 50.888H39.2959C39.2105 50.888 39.1359 50.92 39.0719 50.984C39.0132 51.0427 38.9839 51.1147 38.9839 51.2V55.04C38.9839 55.1253 39.0132 55.2 39.0719 55.264C39.1359 55.3227 39.2105 55.352 39.2959 55.352ZM45.7118 56V50.24H46.3678V56H45.7118ZM50.2547 56V50.888H47.6947V50.24H53.4547V50.888H50.9027V56H50.2547ZM54.773 56V50.24H55.429V56H54.773ZM57.0599 56V50.24H62.3159V50.888H57.7079V52.792H61.4119V53.448H57.7079V55.352H62.3159V56H57.0599ZM64.7289 56C64.5529 56 64.3903 55.9573 64.2409 55.872C64.0969 55.7867 63.9823 55.672 63.8969 55.528C63.8116 55.3787 63.7689 55.216 63.7689 55.04V54.816H64.4169V55.04C64.4169 55.1253 64.4463 55.2 64.5049 55.264C64.5689 55.3227 64.6436 55.352 64.7289 55.352H68.5689C68.6543 55.352 68.7263 55.3227 68.7849 55.264C68.8489 55.2 68.8809 55.1253 68.8809 55.04V53.752C68.8809 53.6667 68.8489 53.5947 68.7849 53.536C68.7263 53.4773 68.6543 53.448 68.5689 53.448H64.7289C64.5529 53.448 64.3903 53.4053 64.2409 53.32C64.0969 53.2293 63.9823 53.112 63.8969 52.968C63.8116 52.824 63.7689 52.664 63.7689 52.488V51.2C63.7689 51.024 63.8116 50.864 63.8969 50.72C63.9823 50.5707 64.0969 50.4533 64.2409 50.368C64.3903 50.2827 64.5529 50.24 64.7289 50.24H68.5689C68.7449 50.24 68.9049 50.2827 69.0489 50.368C69.1983 50.4533 69.3156 50.5707 69.4009 50.72C69.4863 50.864 69.5289 51.024 69.5289 51.2V51.424H68.8809V51.2C68.8809 51.1147 68.8489 51.0427 68.7849 50.984C68.7263 50.92 68.6543 50.888 68.5689 50.888H64.7289C64.6436 50.888 64.5689 50.92 64.5049 50.984C64.4463 51.0427 64.4169 51.1147 64.4169 51.2V52.488C64.4169 52.5733 64.4463 52.6453 64.5049 52.704C64.5689 52.7627 64.6436 52.792 64.7289 52.792H68.5689C68.7449 52.792 68.9049 52.8373 69.0489 52.928C69.1983 53.0133 69.3156 53.128 69.4009 53.272C69.4863 53.416 69.5289 53.576 69.5289 53.752V55.04C69.5289 55.216 69.4863 55.3787 69.4009 55.528C69.3156 55.672 69.1983 55.7867 69.0489 55.872C68.9049 55.9573 68.7449 56 68.5689 56H64.7289Z" fill="#444856"/>
</svg>
