<svg width="70" height="60" viewBox="0 0 70 60" fill="none" xmlns="http://www.w3.org/2000/svg">
<path d="M18 41H26V42H17V33H18V41Z" fill="#B9B29D"/>
<path d="M53 42H44V41H52V33H53V42Z" fill="#B9B29D"/>
<path d="M27.916 34.293V35.3701H21.9238V34.293H27.916Z" fill="#B9B29D"/>
<path d="M50 19.2441L33.4141 20.0449C33.0895 20.8032 31.933 23.7609 31.041 26.0547L31.3525 26.7285L30.7344 26.8496C30.5067 27.439 29.9844 28.7857 29.7656 29.3545L30.0039 29.9932L29.4648 30.1855C28.6569 32.2929 28.3203 33.2158 28.3203 33.2158H21.79C21.79 33.2158 20.0001 32.634 20 32.1123C19.9919 29.2435 24.5191 23.5211 24.5977 21.1738C24.6246 20.3659 23.6445 18.999 22.582 18.999C21.2141 18.999 21.8259 18.4712 22.4951 18H50V19.2441Z" fill="#B9B29D"/>
<path d="M40.3047 25.1367H32.5625C32.7032 24.8002 32.8438 24.3962 32.9824 24.0596H39.2275V20.8418L40.3047 20.79V25.1367Z" fill="#B9B29D"/>
<path d="M35.2109 21.0371C35.2245 21.6483 35.3718 22.4351 35.9014 23.1533C35.2524 23.0185 34.4203 22.2381 33.9053 21.6895C33.9934 21.4675 34.0751 21.2658 34.1465 21.0889L35.2109 21.0371Z" fill="#B9B29D"/>
<path d="M25.3584 16.9219H22.8672V13.6904H25.3584V16.9219Z" fill="#B9B29D"/>
<path d="M27.5127 16.9219H26.4355V13.6904H27.5127V16.9219Z" fill="#B9B29D"/>
<path d="M29.667 16.9219H28.5898V13.6904H29.667V16.9219Z" fill="#B9B29D"/>
<path d="M31.8213 16.9219H30.7441V13.6904H31.8213V16.9219Z" fill="#B9B29D"/>
<path d="M50 16.9219H32.8984V13.6904H50V16.9219Z" fill="#B9B29D"/>
<path d="M26 7H18V15H17V6H26V7Z" fill="#B9B29D"/>
<path d="M53 15H52V7H44V6H53V15Z" fill="#B9B29D"/>
<path d="M24.4824 12.6133H23.4727V12.0078H24.4824V12.6133Z" fill="#B9B29D"/>
<path d="M49.6953 12.6133H48.7207V12L49.6953 12.6133Z" fill="#B9B29D"/>
<path d="M10.376 56L8.28 50.24H8.968L10.656 54.864L12.336 50.24H13.12L14.808 54.864L16.48 50.24H17.184L15.088 56H14.52L12.728 51.08L10.936 56H10.376ZM18.6937 56V50.24H23.9497V50.888H19.3417V52.792H23.0457V53.448H19.3417V55.352H23.9497V56H18.6937ZM25.6187 56V51.2C25.6187 51.024 25.6614 50.864 25.7467 50.72C25.832 50.5707 25.9467 50.4533 26.0907 50.368C26.24 50.2827 26.4027 50.24 26.5787 50.24H30.4187C30.5947 50.24 30.7547 50.2827 30.8987 50.368C31.048 50.4533 31.1654 50.5707 31.2507 50.72C31.336 50.864 31.3787 51.024 31.3787 51.2V56H30.7307V53.896H26.2667V56H25.6187ZM26.2667 53.248H30.7307V51.2C30.7307 51.1147 30.6987 51.0427 30.6347 50.984C30.576 50.92 30.504 50.888 30.4187 50.888H26.5787C26.4934 50.888 26.4187 50.92 26.3547 50.984C26.296 51.0427 26.2667 51.1147 26.2667 51.2V53.248ZM33.0902 56V50.248H37.8902C38.0662 50.248 38.2262 50.2933 38.3702 50.384C38.5195 50.4693 38.6369 50.584 38.7222 50.728C38.8075 50.872 38.8502 51.032 38.8502 51.208V52.896C38.8502 53.072 38.8075 53.232 38.7222 53.376C38.6369 53.52 38.5195 53.6373 38.3702 53.728C38.2262 53.8133 38.0662 53.856 37.8902 53.856H33.7382V56H33.0902ZM34.0502 53.2H37.8902C37.9755 53.2 38.0475 53.1707 38.1062 53.112C38.1702 53.0533 38.2022 52.9813 38.2022 52.896V51.208C38.2022 51.1227 38.1702 51.0507 38.1062 50.992C38.0475 50.928 37.9755 50.896 37.8902 50.896H34.0502C33.9649 50.896 33.8902 50.928 33.8262 50.992C33.7675 51.0507 33.7382 51.1227 33.7382 51.208V52.896C33.7382 52.9813 33.7675 53.0533 33.8262 53.112C33.8902 53.1707 33.9649 53.2 34.0502 53.2ZM41.1623 56C40.9863 56 40.8236 55.9573 40.6743 55.872C40.5303 55.7867 40.4156 55.672 40.3303 55.528C40.245 55.3787 40.2023 55.216 40.2023 55.04V51.2C40.2023 51.024 40.245 50.864 40.3303 50.72C40.4156 50.5707 40.5303 50.4533 40.6743 50.368C40.8236 50.2827 40.9863 50.24 41.1623 50.24H45.0023C45.1783 50.24 45.3383 50.2827 45.4823 50.368C45.6316 50.4533 45.749 50.5707 45.8343 50.72C45.9196 50.864 45.9623 51.024 45.9623 51.2V55.04C45.9623 55.216 45.9196 55.3787 45.8343 55.528C45.749 55.672 45.6316 55.7867 45.4823 55.872C45.3383 55.9573 45.1783 56 45.0023 56H41.1623ZM41.1623 55.352H45.0023C45.0876 55.352 45.1596 55.3227 45.2183 55.264C45.2823 55.2 45.3143 55.1253 45.3143 55.04V51.2C45.3143 51.1147 45.2823 51.0427 45.2183 50.984C45.1596 50.92 45.0876 50.888 45.0023 50.888H41.1623C41.077 50.888 41.0023 50.92 40.9383 50.984C40.8796 51.0427 40.8503 51.1147 40.8503 51.2V55.04C40.8503 55.1253 40.8796 55.2 40.9383 55.264C41.0023 55.3227 41.077 55.352 41.1623 55.352ZM47.6433 56V50.24H48.5313L52.7553 55.264V50.24H53.4033V56H52.5153L48.2913 50.976V56H47.6433ZM56.0196 56C55.8436 56 55.6809 55.9573 55.5316 55.872C55.3876 55.7867 55.2729 55.672 55.1876 55.528C55.1022 55.3787 55.0596 55.216 55.0596 55.04V54.816H55.7076V55.04C55.7076 55.1253 55.7369 55.2 55.7956 55.264C55.8596 55.3227 55.9342 55.352 56.0196 55.352H59.8596C59.9449 55.352 60.0169 55.3227 60.0756 55.264C60.1396 55.2 60.1716 55.1253 60.1716 55.04V53.752C60.1716 53.6667 60.1396 53.5947 60.0756 53.536C60.0169 53.4773 59.9449 53.448 59.8596 53.448H56.0196C55.8436 53.448 55.6809 53.4053 55.5316 53.32C55.3876 53.2293 55.2729 53.112 55.1876 52.968C55.1022 52.824 55.0596 52.664 55.0596 52.488V51.2C55.0596 51.024 55.1022 50.864 55.1876 50.72C55.2729 50.5707 55.3876 50.4533 55.5316 50.368C55.6809 50.2827 55.8436 50.24 56.0196 50.24H59.8596C60.0356 50.24 60.1956 50.2827 60.3396 50.368C60.4889 50.4533 60.6062 50.5707 60.6916 50.72C60.7769 50.864 60.8196 51.024 60.8196 51.2V51.424H60.1716V51.2C60.1716 51.1147 60.1396 51.0427 60.0756 50.984C60.0169 50.92 59.9449 50.888 59.8596 50.888H56.0196C55.9342 50.888 55.8596 50.92 55.7956 50.984C55.7369 51.0427 55.7076 51.1147 55.7076 51.2V52.488C55.7076 52.5733 55.7369 52.6453 55.7956 52.704C55.8596 52.7627 55.9342 52.792 56.0196 52.792H59.8596C60.0356 52.792 60.1956 52.8373 60.3396 52.928C60.4889 53.0133 60.6062 53.128 60.6916 53.272C60.7769 53.416 60.8196 53.576 60.8196 53.752V55.04C60.8196 55.216 60.7769 55.3787 60.6916 55.528C60.6062 55.672 60.4889 55.7867 60.3396 55.872C60.1956 55.9573 60.0356 56 59.8596 56H56.0196Z" fill="#B9B29D"/>
</svg>
