<svg width="70" height="60" viewBox="0 0 70 60" fill="none" xmlns="http://www.w3.org/2000/svg">
<path d="M18 41H26V42H17V33H18V41Z" fill="#444856"/>
<path d="M53 42H44V41H52V33H53V42Z" fill="#444856"/>
<path fill-rule="evenodd" clip-rule="evenodd" d="M30.0879 9.82715L28.5928 15.3965L28.4355 15.9863L35.9775 18.0068L35.04 21.5352C34.9024 21.5155 34.7578 21.5091 34.6201 21.5156C33.4266 21.5615 32.4099 22.381 32.1016 23.5352C31.7146 24.9846 32.574 26.4802 34.0234 26.8672C35.4727 27.2539 36.9674 26.3951 37.3545 24.9395C37.6562 23.7983 37.1911 22.5845 36.1943 21.9482L37.1582 18.3281L44.0449 20.1709L45.6514 14.1768L50 15.3896L43.6973 38.7383L20 32.9014L25.6611 11.667L28.9141 9.5L30.0879 9.82715ZM22.5361 30.2715L43.002 35.1709L43.29 33.9766L22.8223 29.0771L22.5361 30.2715Z" fill="#444856"/>
<path d="M44.458 13.5615L43.1855 18.6689L29.9307 15.1211L31.2031 10.0107L44.458 13.5615Z" fill="#444856"/>
<path d="M26 7H18V15H17V6H26V7Z" fill="#444856"/>
<path d="M53 15H52V7H44V6H53V15Z" fill="#444856"/>
<path d="M8.948 56V50.24H9.836L14.06 55.264V50.24H14.708V56H13.82L9.596 50.976V56H8.948ZM16.4203 56V50.24H21.6763V50.888H17.0683V52.792H20.7723V53.448H17.0683V55.352H21.6763V56H16.4203ZM25.6013 56V50.888H23.0413V50.24H28.8013V50.888H26.2493V56H25.6013ZM32.1276 56L30.0316 50.24H30.7196L32.4076 54.864L34.0876 50.24H34.8716L36.5596 54.864L38.2316 50.24H38.9356L36.8396 56H36.2716L34.4796 51.08L32.6876 56H32.1276ZM40.2265 56V51.2C40.2265 51.024 40.2692 50.864 40.3545 50.72C40.4398 50.5707 40.5545 50.4533 40.6985 50.368C40.8478 50.2827 41.0105 50.24 41.1865 50.24H45.0265C45.2025 50.24 45.3625 50.2827 45.5065 50.368C45.6558 50.4533 45.7732 50.5707 45.8585 50.72C45.9438 50.864 45.9865 51.024 45.9865 51.2V56H45.3385V53.896H40.8745V56H40.2265ZM40.8745 53.248H45.3385V51.2C45.3385 51.1147 45.3065 51.0427 45.2425 50.984C45.1838 50.92 45.1118 50.888 45.0265 50.888H41.1865C41.1012 50.888 41.0265 50.92 40.9625 50.984C40.9038 51.0427 40.8745 51.1147 40.8745 51.2V53.248ZM52.562 56L50.682 53.76H51.53L53.418 55.992V56H52.562ZM47.698 56V50.248H52.498C52.674 50.248 52.834 50.2933 52.978 50.384C53.1273 50.4693 53.2447 50.584 53.33 50.728C53.4153 50.872 53.458 51.032 53.458 51.208V52.896C53.458 53.072 53.4153 53.232 53.33 53.376C53.2447 53.52 53.1273 53.6373 52.978 53.728C52.834 53.8133 52.674 53.856 52.498 53.856H48.346V56H47.698ZM48.658 53.2H52.498C52.5833 53.2 52.6553 53.1707 52.714 53.112C52.778 53.0533 52.81 52.9813 52.81 52.896V51.208C52.81 51.1227 52.778 51.0507 52.714 50.992C52.6553 50.928 52.5833 50.896 52.498 50.896H48.658C48.5727 50.896 48.498 50.928 48.434 50.992C48.3753 51.0507 48.346 51.1227 48.346 51.208V52.896C48.346 52.9813 48.3753 53.0533 48.434 53.112C48.498 53.1707 48.5727 53.2 48.658 53.2ZM55.1156 56V50.24H60.3716V50.888H55.7636V52.792H59.4676V53.448H55.7636V55.352H60.3716V56H55.1156Z" fill="#444856"/>
</svg>
