<svg width="447" height="36" viewBox="0 0 447 36" fill="none" xmlns="http://www.w3.org/2000/svg">
<path d="M11.7871 2H86.1309C87.4258 2 88.3799 3.21207 88.0752 4.4707L81.2969 32.4707C81.0796 33.3681 80.2758 34 79.3525 34H5.07227C3.77922 33.9998 2.82639 32.7907 3.12793 31.5332L9.8418 3.5332C10.0576 2.63396 10.8623 2 11.7871 2Z" fill="#B9B29D" stroke="#B9B29D" stroke-width="4"/>
<path d="M100.287 2H174.631C175.926 2 176.88 3.21207 176.575 4.4707L169.797 32.4707C169.58 33.3681 168.776 34 167.853 34H93.5723C92.2792 33.9998 91.3264 32.7907 91.6279 31.5332L98.3418 3.5332C98.5576 2.63396 99.3623 2 100.287 2Z" fill="#B9B29D" stroke="#B9B29D" stroke-width="4"/>
<path d="M188.787 2H263.131C264.426 2 265.38 3.21207 265.075 4.4707L258.297 32.4707C258.08 33.3681 257.276 34 256.353 34H182.072C180.779 33.9998 179.826 32.7907 180.128 31.5332L186.842 3.5332C187.058 2.63396 187.862 2 188.787 2Z" fill="#B9B29D" stroke="#B9B29D" stroke-width="4"/>
<path d="M277.187 2H351.531C352.826 2 353.78 3.21207 353.475 4.4707L346.697 32.4707C346.48 33.3681 345.676 34 344.752 34H270.472C269.179 33.9998 268.226 32.7907 268.528 31.5332L275.242 3.5332C275.457 2.63396 276.262 2 277.187 2Z" fill="#B9B29D" stroke="#B9B29D" stroke-width="4"/>
<path d="M366.787 2H441.131C442.426 2 443.38 3.21207 443.075 4.4707L436.297 32.4707C436.08 33.3681 435.276 34 434.353 34H360.072C358.779 33.9998 357.826 32.7907 358.128 31.5332L364.842 3.5332C365.058 2.63396 365.862 2 366.787 2Z" fill="#B9B29D" stroke="#B9B29D" stroke-width="4"/>
</svg>
