<svg width="44" height="40" viewBox="0 0 44 40" fill="none" xmlns="http://www.w3.org/2000/svg">
<path d="M44 28.8V3L41 0H0V40H31L44 28.8Z" fill="#1A1A1A"/>
<path d="M7 29.6145C7 29.7465 6.968 29.8685 6.904 29.9805C6.84 30.0885 6.754 30.1745 6.646 30.2385C6.534 30.3025 6.412 30.3345 6.28 30.3345L3.4 30.3345C3.268 30.3345 3.148 30.3025 3.04 30.2385C2.928 30.1745 2.84 30.0885 2.776 29.9805C2.712 29.8685 2.68 29.7465 2.68 29.6145L2.68 26.7345C2.68 26.6025 2.712 26.4825 2.776 26.3745C2.84 26.2625 2.928 26.1745 3.04 26.1105C3.148 26.0465 3.268 26.0145 3.4 26.0145L3.574 26.0145L3.574 26.5005L3.4 26.5005C3.336 26.5005 3.282 26.5245 3.238 26.5725C3.19 26.6165 3.166 26.6705 3.166 26.7345L3.166 29.6145C3.166 29.6785 3.19 29.7345 3.238 29.7825C3.282 29.8265 3.336 29.8485 3.4 29.8485L6.28 29.8485C6.344 29.8485 6.4 29.8265 6.448 29.7825C6.492 29.7345 6.514 29.6785 6.514 29.6145L6.514 26.7345C6.514 26.6705 6.492 26.6165 6.448 26.5725C6.4 26.5245 6.344 26.5005 6.28 26.5005L5.212 26.5005L5.212 27.5685L4.72 27.5685L4.72 26.0145L6.28 26.0145C6.412 26.0145 6.534 26.0465 6.646 26.1105C6.754 26.1745 6.84 26.2625 6.904 26.3745C6.968 26.4825 7 26.6025 7 26.7345L7 29.6145ZM7 24.742L2.68 24.742L2.68 20.8L3.166 20.8L3.166 24.256L4.594 24.256L4.594 21.478L5.086 21.478L5.086 24.256L6.514 24.256L6.514 20.8L7 20.8L7 24.742ZM7 19.5483L3.4 19.5483C3.268 19.5483 3.148 19.5163 3.04 19.4523C2.928 19.3883 2.84 19.3023 2.776 19.1943C2.712 19.0823 2.68 18.9603 2.68 18.8283L2.68 15.9483C2.68 15.8163 2.712 15.6963 2.776 15.5883C2.84 15.4763 2.928 15.3883 3.04 15.3243C3.148 15.2603 3.268 15.2283 3.4 15.2283L7 15.2283L7 15.7143L5.422 15.7143L5.422 19.0623L7 19.0623L7 19.5483ZM4.936 19.0623L4.936 15.7143L3.4 15.7143C3.336 15.7143 3.282 15.7383 3.238 15.7863C3.19 15.8303 3.166 15.8843 3.166 15.9483L3.166 18.8283C3.166 18.8923 3.19 18.9483 3.238 18.9963C3.282 19.0403 3.336 19.0623 3.4 19.0623L4.936 19.0623ZM7 10.2967L5.32 11.7067L5.32 11.0707L6.994 9.65466L7 9.65466L7 10.2967ZM7 13.9447L2.686 13.9447L2.686 10.3447C2.686 10.2127 2.72 10.0927 2.788 9.98466C2.852 9.87266 2.938 9.78466 3.046 9.72066C3.154 9.65666 3.274 9.62466 3.406 9.62466L4.672 9.62466C4.804 9.62466 4.924 9.65666 5.032 9.72066C5.14 9.78466 5.228 9.87266 5.296 9.98466C5.36 10.0927 5.392 10.2127 5.392 10.3447L5.392 13.4587L7 13.4587L7 13.9447ZM4.9 13.2247L4.9 10.3447C4.9 10.2807 4.878 10.2267 4.834 10.1827C4.79 10.1347 4.736 10.1107 4.672 10.1107L3.406 10.1107C3.342 10.1107 3.288 10.1347 3.244 10.1827C3.196 10.2267 3.172 10.2807 3.172 10.3447L3.172 13.2247C3.172 13.2887 3.196 13.3447 3.244 13.3927C3.288 13.4367 3.342 13.4587 3.406 13.4587L4.672 13.4587C4.736 13.4587 4.79 13.4367 4.834 13.3927C4.878 13.3447 4.9 13.2887 4.9 13.2247Z" fill="#B9B29D"/>
<path d="M0 3H40L41 4V27.7273L30 37H0" stroke="#B9B29D"/>
<path d="M19.6665 18.6667C19.6665 17.9594 19.9475 17.2811 20.4476 16.781C20.9476 16.281 21.6259 16 22.3332 16H27.6665C28.3737 16 29.052 16.281 29.5521 16.781C30.0522 17.2811 30.3332 17.9594 30.3332 18.6667V25.3333C30.3332 25.687 30.1927 26.0261 29.9426 26.2761C29.6926 26.5262 29.3535 26.6667 28.9998 26.6667H20.9998C20.6462 26.6667 20.3071 26.5262 20.057 26.2761C19.807 26.0261 19.6665 25.687 19.6665 25.3333V18.6667Z" stroke="#B9B29D" stroke-linecap="round" stroke-linejoin="round"/>
<path d="M22.3335 18.6665H27.6668" stroke="#B9B29D" stroke-linecap="round" stroke-linejoin="round"/>
<path d="M22.3335 24H27.6668" stroke="#B9B29D" stroke-linecap="round" stroke-linejoin="round"/>
<path d="M22.3335 26.6668V22.6668C22.3335 22.3132 22.474 21.9741 22.724 21.724C22.9741 21.474 23.3132 21.3335 23.6668 21.3335H26.3335C26.6871 21.3335 27.0263 21.474 27.2763 21.724C27.5264 21.9741 27.6668 22.3132 27.6668 22.6668V26.6668" stroke="#B9B29D" stroke-linecap="round" stroke-linejoin="round"/>
<path d="M23 16.0002V14.6668C23 14.3132 23.1405 13.9741 23.3905 13.724C23.6406 13.474 23.9797 13.3335 24.3333 13.3335H25.6667C26.0203 13.3335 26.3594 13.474 26.6095 13.724C26.8595 13.9741 27 14.3132 27 14.6668V16.0002" stroke="#B9B29D" stroke-linecap="round" stroke-linejoin="round"/>
</svg>
