<svg width="44" height="40" viewBox="0 0 44 40" fill="none" xmlns="http://www.w3.org/2000/svg">
<path d="M44 28.8V3L41 0H0V40H31L44 28.8Z" fill="#1A1A1A"/>
<path d="M7 27.3333L2.68 27.3333L2.68 26.6673L6.448 23.4993L2.68 23.4993L2.68 23.0133L7 23.0133L7 23.6793L3.232 26.8473L7 26.8473L7 27.3333ZM7 21.7291L2.68 21.7291L2.68 17.7871L3.166 17.7871L3.166 21.2431L4.594 21.2431L4.594 18.4651L5.086 18.4651L5.086 21.2431L6.514 21.2431L6.514 17.7871L7 17.7871L7 21.7291ZM7 14.8434L3.166 14.8434L3.166 16.7634L2.68 16.7634L2.68 12.4434L3.166 12.4434L3.166 14.3574L7 14.3574L7 14.8434Z" fill="#B9B29D"/>
<path d="M0 3H40L41 4V27.7273L30 37H0" stroke="#B9B29D"/>
<path d="M27.0002 25.3332L29.0002 23.3332H30.3335C30.6871 23.3332 31.0263 23.1927 31.2763 22.9426C31.5264 22.6926 31.6668 22.3535 31.6668 21.9998V15.9998C31.6668 15.6462 31.5264 15.3071 31.2763 15.057C31.0263 14.807 30.6871 14.6665 30.3335 14.6665H19.6668C19.3132 14.6665 18.9741 14.807 18.724 15.057C18.474 15.3071 18.3335 15.6462 18.3335 15.9998V21.9998C18.3335 22.3535 18.474 22.6926 18.724 22.9426C18.9741 23.1927 19.3132 23.3332 19.6668 23.3332H21.0002L23.0002 25.3332H27.0002Z" stroke="#B9B29D" stroke-linecap="round" stroke-linejoin="round"/>
<path d="M21 17.3335V18.0002" stroke="#B9B29D" stroke-linecap="round" stroke-linejoin="round"/>
<path d="M23.6665 17.3335V18.0002" stroke="#B9B29D" stroke-linecap="round" stroke-linejoin="round"/>
<path d="M26.3335 17.3335V18.0002" stroke="#B9B29D" stroke-linecap="round" stroke-linejoin="round"/>
<path d="M29 17.3335V18.0002" stroke="#B9B29D" stroke-linecap="round" stroke-linejoin="round"/>
</svg>
