<svg width="44" height="40" viewBox="0 0 44 40" fill="none" xmlns="http://www.w3.org/2000/svg">
<path d="M44 28.8V3L41 0H0V40H31L44 28.8Z" fill="#1A1A1A"/>
<path d="M7 31.9982C7 32.1302 6.968 32.2522 6.904 32.3642C6.84 32.4722 6.754 32.5582 6.646 32.6222C6.534 32.6862 6.412 32.7182 6.28 32.7182L6.112 32.7182L6.112 32.2322L6.28 32.2322C6.344 32.2322 6.4 32.2102 6.448 32.1662C6.492 32.1182 6.514 32.0622 6.514 31.9982L6.514 29.1182C6.514 29.0542 6.492 29.0002 6.448 28.9562C6.4 28.9082 6.344 28.8842 6.28 28.8842L5.314 28.8842C5.25 28.8842 5.196 28.9082 5.152 28.9562C5.108 29.0002 5.086 29.0542 5.086 29.1182L5.086 31.9982C5.086 32.1302 5.054 32.2522 4.99 32.3642C4.922 32.4722 4.834 32.5582 4.726 32.6222C4.618 32.6862 4.498 32.7182 4.366 32.7182L3.4 32.7182C3.268 32.7182 3.148 32.6862 3.04 32.6222C2.928 32.5582 2.84 32.4722 2.776 32.3642C2.712 32.2522 2.68 32.1302 2.68 31.9982L2.68 29.1182C2.68 28.9862 2.712 28.8662 2.776 28.7582C2.84 28.6462 2.928 28.5582 3.04 28.4942C3.148 28.4302 3.268 28.3982 3.4 28.3982L3.568 28.3982L3.568 28.8842L3.4 28.8842C3.336 28.8842 3.282 28.9082 3.238 28.9562C3.19 29.0002 3.166 29.0542 3.166 29.1182L3.166 31.9982C3.166 32.0622 3.19 32.1182 3.238 32.1662C3.282 32.2102 3.336 32.2322 3.4 32.2322L4.366 32.2322C4.43 32.2322 4.484 32.2102 4.528 32.1662C4.572 32.1182 4.594 32.0622 4.594 31.9982L4.594 29.1182C4.594 28.9862 4.628 28.8662 4.696 28.7582C4.76 28.6462 4.846 28.5582 4.954 28.4942C5.062 28.4302 5.182 28.3982 5.314 28.3982L6.28 28.3982C6.412 28.3982 6.534 28.4302 6.646 28.4942C6.754 28.5582 6.84 28.6462 6.904 28.7582C6.968 28.8662 7 28.9862 7 29.1182L7 31.9982ZM7 25.4506L3.166 25.4506L3.166 27.3706L2.68 27.3706L2.68 23.0506L3.166 23.0506L3.166 24.9646L7 24.9646L7 25.4506ZM7 21.9899L3.4 21.9899C3.268 21.9899 3.148 21.9579 3.04 21.8939C2.928 21.8299 2.84 21.7439 2.776 21.6359C2.712 21.5239 2.68 21.4019 2.68 21.2699L2.68 18.3899C2.68 18.2579 2.712 18.1379 2.776 18.0299C2.84 17.9179 2.928 17.8299 3.04 17.7659C3.148 17.7019 3.268 17.6699 3.4 17.6699L7 17.6699L7 18.1559L5.422 18.1559L5.422 21.5039L7 21.5039L7 21.9899ZM4.936 21.5039L4.936 18.1559L3.4 18.1559C3.336 18.1559 3.282 18.1799 3.238 18.2279C3.19 18.2719 3.166 18.3259 3.166 18.3899L3.166 21.2699C3.166 21.3339 3.19 21.3899 3.238 21.4379C3.282 21.4819 3.336 21.5039 3.4 21.5039L4.936 21.5039ZM7 14.6823L3.166 14.6823L3.166 16.6023L2.68 16.6023L2.68 12.2823L3.166 12.2823L3.166 14.1963L7 14.1963L7 14.6823ZM7 11.2215L2.68 11.2215L2.68 7.27953L3.166 7.27953L3.166 10.7355L4.594 10.7355L4.594 7.95753L5.086 7.95753L5.086 10.7355L6.514 10.7355L6.514 7.27953L7 7.27953L7 11.2215Z" fill="#B9B29D"/>
<path d="M0 3H40L41 4V27.7273L30 37H0" stroke="#B9B29D"/>
<g clip-path="url(#clip0_523_3845)">
<path d="M18.3333 18.3333C18.3333 17.5915 18.5584 16.867 18.9787 16.2558C19.3991 15.6445 19.995 15.1751 20.6877 14.9096C21.3804 14.6441 22.1374 14.5949 22.8587 14.7687C23.5799 14.9424 24.2315 15.3308 24.7273 15.8827C24.7622 15.92 24.8045 15.9498 24.8514 15.9701C24.8983 15.9905 24.9489 16.001 25 16.001C25.0511 16.001 25.1017 15.9905 25.1486 15.9701C25.1955 15.9498 25.2377 15.92 25.2726 15.8827C25.7669 15.3273 26.4187 14.9356 27.1411 14.7597C27.8635 14.5839 28.6223 14.6322 29.3166 14.8983C30.0108 15.1644 30.6076 15.6356 31.0274 16.2493C31.4472 16.8629 31.6702 17.5898 31.6666 18.3333C31.6666 19.86 30.6666 21 29.6666 22L26.0053 25.542C25.8811 25.6847 25.7279 25.7993 25.556 25.8782C25.3841 25.9571 25.1973 25.9986 25.0082 25.9997C24.819 26.0009 24.6317 25.9619 24.4588 25.8851C24.2859 25.8084 24.1313 25.6957 24.0053 25.5547L20.3333 22C19.3333 21 18.3333 19.8667 18.3333 18.3333Z" stroke="#B9B29D" stroke-linecap="round" stroke-linejoin="round"/>
<path d="M19.1467 20.6666H23.3333L23.6667 20L25 23L26.3333 18.3333L27.3333 20.6666H30.8467" stroke="#B9B29D" stroke-linecap="round" stroke-linejoin="round"/>
</g>
<defs>
<clipPath id="clip0_523_3845">
<rect width="16" height="16" fill="white" transform="translate(17 12)"/>
</clipPath>
</defs>
</svg>
