<svg width="44" height="40" viewBox="0 0 44 40" fill="none" xmlns="http://www.w3.org/2000/svg">
<path d="M44 28.8V3L41 0H0V40H31L44 28.8Z" fill="#1A1A1A"/>
<path d="M0 3H40L41 4V27.7273L30 37H0" stroke="#B9B29D"/>
<g clip-path="url(#clip0_189_2487)">
<path d="M24.2348 21.8481L23.9795 22.4635" stroke="#B9B29D" stroke-linecap="round" stroke-linejoin="round"/>
<path d="M24.2348 18.152L23.9795 17.5366" stroke="#B9B29D" stroke-linecap="round" stroke-linejoin="round"/>
<path d="M25.7656 21.8481L26.0203 22.4641" stroke="#B9B29D" stroke-linecap="round" stroke-linejoin="round"/>
<path d="M26.021 17.5366L25.7656 18.152" stroke="#B9B29D" stroke-linecap="round" stroke-linejoin="round"/>
<path d="M26.8477 19.2348L27.463 18.9795" stroke="#B9B29D" stroke-linecap="round" stroke-linejoin="round"/>
<path d="M26.8477 20.7651L27.463 21.0205" stroke="#B9B29D" stroke-linecap="round" stroke-linejoin="round"/>
<path d="M28.732 16.3333C28.8854 16.0677 28.9757 15.7703 28.9957 15.4641C29.0158 15.158 28.9652 14.8514 28.8478 14.5679C28.7304 14.2845 28.5494 14.0319 28.3187 13.8296C28.0881 13.6273 27.814 13.4808 27.5177 13.4014C27.2213 13.322 26.9107 13.3118 26.6098 13.3717C26.3089 13.4315 26.0259 13.5598 25.7825 13.7466C25.5391 13.9333 25.3419 14.1736 25.2063 14.4487C25.0706 14.7239 25 15.0266 25 15.3333C25.0004 14.8892 24.853 14.4576 24.5809 14.1065C24.3089 13.7554 23.9277 13.5049 23.4976 13.3944C23.0674 13.2839 22.6127 13.3198 22.2051 13.4963C21.7976 13.6728 21.4604 13.98 21.2467 14.3693C21.0708 14.6895 20.986 15.0517 21.0014 15.4167C20.6095 15.5175 20.2456 15.7062 19.9375 15.9684C19.6293 16.2307 19.3848 16.5596 19.2226 16.9304C19.0604 17.3011 18.9847 17.7039 19.0012 18.1082C19.0178 18.5125 19.1261 18.9078 19.318 19.264" stroke="#B9B29D" stroke-linecap="round" stroke-linejoin="round"/>
<path d="M28.999 15.4165C29.3909 15.5173 29.7547 15.706 30.0629 15.9682C30.3711 16.2305 30.6155 16.5595 30.7777 16.9302C30.94 17.3009 31.0157 17.7037 30.9991 18.108C30.9826 18.5123 30.8743 18.9076 30.6824 19.2638" stroke="#B9B29D" stroke-linecap="round" stroke-linejoin="round"/>
<path d="M30.0029 18.8628C30.5757 19.0954 31.0499 19.5199 31.3443 20.0635C31.6387 20.6071 31.7351 21.2361 31.617 21.843C31.4989 22.4498 31.1736 22.9968 30.6968 23.3903C30.2199 23.7837 29.6212 23.9993 29.0029 24.0001" stroke="#B9B29D" stroke-linecap="round" stroke-linejoin="round"/>
<path d="M19.6877 23.6553C19.6074 24.2671 19.7418 24.8878 20.068 25.4116C20.3941 25.9354 20.8919 26.3299 21.4763 26.5279C22.0608 26.7258 22.6958 26.7149 23.2731 26.4971C23.8504 26.2793 24.3343 25.8679 24.6424 25.3333C24.7624 25.1259 25.237 25.1259 25.357 25.3333C25.6651 25.8678 26.1489 26.2791 26.7261 26.4969C27.3034 26.7147 27.9383 26.7256 28.5227 26.5278C29.107 26.3299 29.6047 25.9356 29.931 25.4119C30.2572 24.8883 30.3917 24.2677 30.3117 23.6559" stroke="#B9B29D" stroke-linecap="round" stroke-linejoin="round"/>
<path d="M20.0002 18.8608C19.4261 19.0927 18.9506 19.517 18.6552 20.0611C18.3598 20.6052 18.2629 21.2351 18.3811 21.8428C18.4994 22.4505 18.8254 22.9982 19.3033 23.3918C19.7811 23.7854 20.3811 24.0005 21.0002 24.0002" stroke="#B9B29D" stroke-linecap="round" stroke-linejoin="round"/>
<path d="M21.001 15.4165C21.0146 15.7391 21.1061 16.0536 21.2676 16.3332" stroke="#B9B29D" stroke-linecap="round" stroke-linejoin="round"/>
<path d="M23.1524 19.2348L22.5371 18.9795" stroke="#B9B29D" stroke-linecap="round" stroke-linejoin="round"/>
<path d="M23.1524 20.7651L22.5371 21.0205" stroke="#B9B29D" stroke-linecap="round" stroke-linejoin="round"/>
<path d="M25 22C26.1046 22 27 21.1046 27 20C27 18.8954 26.1046 18 25 18C23.8954 18 23 18.8954 23 20C23 21.1046 23.8954 22 25 22Z" stroke="#B9B29D" stroke-linecap="round" stroke-linejoin="round"/>
</g>
<defs>
<clipPath id="clip0_189_2487">
<rect width="16" height="16" fill="white" transform="translate(17 12)"/>
</clipPath>
</defs>
</svg>
