<svg width="44" height="40" viewBox="0 0 44 40" fill="none" xmlns="http://www.w3.org/2000/svg">
<path d="M44 28.8V3L41 0H0V40H31L44 28.8Z" fill="#1A1A1A"/>
<path d="M7 28.0023L2.674 28.0023L2.674 27.5163L6.514 27.5163L6.514 23.6823L7 23.6823L7 28.0023ZM7 22.6726L2.68 22.6726L2.68 22.1806L7 22.1806L7 22.6726ZM7 20.8374L2.68 20.8374L2.68 16.8954L3.166 16.8954L3.166 20.3514L4.594 20.3514L4.594 17.5734L5.086 17.5734L5.086 20.3514L7 20.3514L7 20.8374ZM7 15.9014L2.68 15.9014L2.68 11.9594L3.166 11.9594L3.166 15.4154L4.594 15.4154L4.594 12.6374L5.086 12.6374L5.086 15.4154L6.514 15.4154L6.514 11.9594L7 11.9594L7 15.9014Z" fill="#B9B29D"/>
<path d="M0 3H40L41 4V27.7273L30 37H0" stroke="#B9B29D"/>
<path d="M23.6665 13.3335V18.6668L25.6665 16.6668L27.6665 18.6668V13.3335" stroke="#B9B29D" stroke-linecap="round" stroke-linejoin="round"/>
<path d="M19.6665 25.0002V15.0002C19.6665 14.5581 19.8421 14.1342 20.1547 13.8217C20.4672 13.5091 20.8911 13.3335 21.3332 13.3335H29.6665C29.8433 13.3335 30.0129 13.4037 30.1379 13.5288C30.2629 13.6538 30.3332 13.8234 30.3332 14.0002V26.0002C30.3332 26.177 30.2629 26.3465 30.1379 26.4716C30.0129 26.5966 29.8433 26.6668 29.6665 26.6668H21.3332C20.8911 26.6668 20.4672 26.4912 20.1547 26.1787C19.8421 25.8661 19.6665 25.4422 19.6665 25.0002ZM19.6665 25.0002C19.6665 24.5581 19.8421 24.1342 20.1547 23.8217C20.4672 23.5091 20.8911 23.3335 21.3332 23.3335H30.3332" stroke="#B9B29D" stroke-linecap="round" stroke-linejoin="round"/>
</svg>
