<svg width="44" height="40" viewBox="0 0 44 40" fill="none" xmlns="http://www.w3.org/2000/svg">
<path d="M44 28.8V3L41 0H0V40H31L44 28.8Z" fill="#1A1A1A"/>
<path d="M0 3H40L41 4V27.7273L30 37H0" stroke="#B9B29D"/>
<path d="M19.667 18.6667C19.667 17.9594 19.9479 17.2811 20.448 16.781C20.9481 16.281 21.6264 16 22.3337 16H27.667C28.3742 16 29.0525 16.281 29.5526 16.781C30.0527 17.2811 30.3337 17.9594 30.3337 18.6667V25.3333C30.3337 25.687 30.1932 26.0261 29.9431 26.2761C29.6931 26.5262 29.3539 26.6667 29.0003 26.6667H21.0003C20.6467 26.6667 20.3076 26.5262 20.0575 26.2761C19.8075 26.0261 19.667 25.687 19.667 25.3333V18.6667Z" stroke="#B9B29D" stroke-linecap="round" stroke-linejoin="round"/>
<path d="M22.333 18.6665H27.6663" stroke="#B9B29D" stroke-linecap="round" stroke-linejoin="round"/>
<path d="M22.333 24H27.6663" stroke="#B9B29D" stroke-linecap="round" stroke-linejoin="round"/>
<path d="M22.333 26.6668V22.6668C22.333 22.3132 22.4735 21.9741 22.7235 21.724C22.9736 21.474 23.3127 21.3335 23.6663 21.3335H26.333C26.6866 21.3335 27.0258 21.474 27.2758 21.724C27.5259 21.9741 27.6663 22.3132 27.6663 22.6668V26.6668" stroke="#B9B29D" stroke-linecap="round" stroke-linejoin="round"/>
<path d="M23 16.0002V14.6668C23 14.3132 23.1405 13.9741 23.3905 13.724C23.6406 13.474 23.9797 13.3335 24.3333 13.3335H25.6667C26.0203 13.3335 26.3594 13.474 26.6095 13.724C26.8595 13.9741 27 14.3132 27 14.6668V16.0002" stroke="#B9B29D" stroke-linecap="round" stroke-linejoin="round"/>
</svg>
