<svg width="50" height="40" viewBox="0 0 50 40" fill="none" xmlns="http://www.w3.org/2000/svg">
<path d="M44 28.8V3L41 0H0V40H31L44 28.8Z" fill="#1A1A1A"/>
<path d="M0 3H40L41 4V27.7273L30 37H0" stroke="#B9B29D"/>
<g clip-path="url(#clip0_261_6209)">
<path d="M18.3333 18.3333C18.3333 17.5915 18.5584 16.867 18.9787 16.2558C19.3991 15.6445 19.995 15.1751 20.6877 14.9096C21.3804 14.6441 22.1374 14.5949 22.8587 14.7687C23.5799 14.9424 24.2315 15.3308 24.7273 15.8827C24.7622 15.92 24.8045 15.9498 24.8514 15.9701C24.8983 15.9905 24.9489 16.001 25 16.001C25.0511 16.001 25.1017 15.9905 25.1486 15.9701C25.1955 15.9498 25.2377 15.92 25.2726 15.8827C25.7669 15.3273 26.4187 14.9356 27.1411 14.7597C27.8635 14.5839 28.6223 14.6322 29.3166 14.8983C30.0108 15.1644 30.6076 15.6356 31.0274 16.2493C31.4472 16.8629 31.6702 17.5898 31.6666 18.3333C31.6666 19.86 30.6666 21 29.6666 22L26.0053 25.542C25.8811 25.6847 25.7279 25.7993 25.556 25.8782C25.3841 25.9571 25.1973 25.9986 25.0082 25.9997C24.819 26.0009 24.6317 25.9619 24.4588 25.8851C24.2859 25.8084 24.1313 25.6957 24.0053 25.5547L20.3333 22C19.3333 21 18.3333 19.8667 18.3333 18.3333Z" stroke="#B9B29D" stroke-linecap="round" stroke-linejoin="round"/>
<path d="M19.1467 20.6666H23.3333L23.6667 20L25 23L26.3333 18.3333L27.3333 20.6666H30.8467" stroke="#B9B29D" stroke-linecap="round" stroke-linejoin="round"/>
</g>
<defs>
<clipPath id="clip0_261_6209">
<rect width="16" height="16" fill="white" transform="translate(17 12)"/>
</clipPath>
</defs>
</svg>
