<svg width="44" height="40" viewBox="0 0 44 40" fill="none" xmlns="http://www.w3.org/2000/svg">
<path d="M44 28.8V3L41 0H0V40H31L44 28.8Z" fill="#1A1A1A"/>
<path d="M7 32.3656C7 32.4976 6.968 32.6196 6.904 32.7316C6.84 32.8396 6.754 32.9256 6.646 32.9896C6.534 33.0536 6.412 33.0856 6.28 33.0856L6.112 33.0856L6.112 32.5996L6.28 32.5996C6.344 32.5996 6.4 32.5776 6.448 32.5336C6.492 32.4856 6.514 32.4296 6.514 32.3656L6.514 29.4856C6.514 29.4216 6.492 29.3676 6.448 29.3236C6.4 29.2756 6.344 29.2516 6.28 29.2516L5.314 29.2516C5.25 29.2516 5.196 29.2756 5.152 29.3236C5.108 29.3676 5.086 29.4216 5.086 29.4856L5.086 32.3656C5.086 32.4976 5.054 32.6196 4.99 32.7316C4.922 32.8396 4.834 32.9256 4.726 32.9896C4.618 33.0536 4.498 33.0856 4.366 33.0856L3.4 33.0856C3.268 33.0856 3.148 33.0536 3.04 32.9896C2.928 32.9256 2.84 32.8396 2.776 32.7316C2.712 32.6196 2.68 32.4976 2.68 32.3656L2.68 29.4856C2.68 29.3536 2.712 29.2336 2.776 29.1256C2.84 29.0136 2.928 28.9256 3.04 28.8616C3.148 28.7976 3.268 28.7656 3.4 28.7656L3.568 28.7656L3.568 29.2516L3.4 29.2516C3.336 29.2516 3.282 29.2756 3.238 29.3236C3.19 29.3676 3.166 29.4216 3.166 29.4856L3.166 32.3656C3.166 32.4296 3.19 32.4856 3.238 32.5336C3.282 32.5776 3.336 32.5996 3.4 32.5996L4.366 32.5996C4.43 32.5996 4.484 32.5776 4.528 32.5336C4.572 32.4856 4.594 32.4296 4.594 32.3656L4.594 29.4856C4.594 29.3536 4.628 29.2336 4.696 29.1256C4.76 29.0136 4.846 28.9256 4.954 28.8616C5.062 28.7976 5.182 28.7656 5.314 28.7656L6.28 28.7656C6.412 28.7656 6.534 28.7976 6.646 28.8616C6.754 28.9256 6.84 29.0136 6.904 29.1256C6.968 29.2336 7 29.3536 7 29.4856L7 32.3656ZM7 27.816L2.68 27.816L2.68 27.324L4.594 27.324L4.594 25.932L2.68 24.324L2.68 23.7L2.686 23.7L4.84 25.506L6.994 23.694L7 23.694L7 24.324L5.086 25.932L5.086 27.324L7 27.324L7 27.816ZM7 22.6808L2.68 22.6808L2.68 22.1888L7 22.1888L7 22.6808ZM7 21.1516L2.674 21.1516L2.674 20.6656L6.514 20.6656L6.514 16.8316L7 16.8316L7 21.1516ZM7 16.1758L2.674 16.1758L2.674 15.6898L6.514 15.6898L6.514 11.8558L7 11.8558L7 16.1758ZM7 10.516C7 10.648 6.968 10.77 6.904 10.882C6.84 10.99 6.754 11.076 6.646 11.14C6.534 11.204 6.412 11.236 6.28 11.236L6.112 11.236L6.112 10.75L6.28 10.75C6.344 10.75 6.4 10.728 6.448 10.684C6.492 10.636 6.514 10.58 6.514 10.516L6.514 7.63599C6.514 7.57199 6.492 7.51799 6.448 7.47399C6.4 7.42599 6.344 7.40199 6.28 7.40199L5.314 7.40199C5.25 7.40199 5.196 7.42599 5.152 7.47399C5.108 7.51799 5.086 7.57199 5.086 7.63599L5.086 10.516C5.086 10.648 5.054 10.77 4.99 10.882C4.922 10.99 4.834 11.076 4.726 11.14C4.618 11.204 4.498 11.236 4.366 11.236L3.4 11.236C3.268 11.236 3.148 11.204 3.04 11.14C2.928 11.076 2.84 10.99 2.776 10.882C2.712 10.77 2.68 10.648 2.68 10.516L2.68 7.63599C2.68 7.50399 2.712 7.38399 2.776 7.27599C2.84 7.16399 2.928 7.07599 3.04 7.01199C3.148 6.94799 3.268 6.91599 3.4 6.91599L3.568 6.91599L3.568 7.40199L3.4 7.40199C3.336 7.40199 3.282 7.42599 3.238 7.47399C3.19 7.51799 3.166 7.57199 3.166 7.63599L3.166 10.516C3.166 10.58 3.19 10.636 3.238 10.684C3.282 10.728 3.336 10.75 3.4 10.75L4.366 10.75C4.43 10.75 4.484 10.728 4.528 10.684C4.572 10.636 4.594 10.58 4.594 10.516L4.594 7.63599C4.594 7.50399 4.628 7.38399 4.696 7.27599C4.76 7.16399 4.846 7.07599 4.954 7.01199C5.062 6.94799 5.182 6.91599 5.314 6.91599L6.28 6.91599C6.412 6.91599 6.534 6.94799 6.646 7.01199C6.754 7.07599 6.84 7.16399 6.904 7.27599C6.968 7.38399 7 7.50399 7 7.63599L7 10.516Z" fill="#B9B29D"/>
<path d="M0 3H40L41 4V27.7273L30 37H0" stroke="#B9B29D"/>
<g clip-path="url(#clip0_184_2713)">
<path d="M24.2348 21.8481L23.9795 22.4635" stroke="#B9B29D" stroke-linecap="round" stroke-linejoin="round"/>
<path d="M24.2348 18.152L23.9795 17.5366" stroke="#B9B29D" stroke-linecap="round" stroke-linejoin="round"/>
<path d="M25.7651 21.8481L26.0198 22.4641" stroke="#B9B29D" stroke-linecap="round" stroke-linejoin="round"/>
<path d="M26.0205 17.5366L25.7651 18.152" stroke="#B9B29D" stroke-linecap="round" stroke-linejoin="round"/>
<path d="M26.8481 19.2348L27.4635 18.9795" stroke="#B9B29D" stroke-linecap="round" stroke-linejoin="round"/>
<path d="M26.8481 20.7651L27.4635 21.0205" stroke="#B9B29D" stroke-linecap="round" stroke-linejoin="round"/>
<path d="M28.732 16.3333C28.8854 16.0677 28.9757 15.7703 28.9957 15.4641C29.0158 15.158 28.9652 14.8514 28.8478 14.5679C28.7304 14.2845 28.5494 14.0319 28.3187 13.8296C28.0881 13.6273 27.814 13.4808 27.5177 13.4014C27.2213 13.322 26.9107 13.3118 26.6098 13.3717C26.3089 13.4315 26.0259 13.5598 25.7825 13.7466C25.5391 13.9333 25.3419 14.1736 25.2063 14.4487C25.0706 14.7239 25 15.0266 25 15.3333C25.0004 14.8892 24.853 14.4576 24.5809 14.1065C24.3089 13.7554 23.9277 13.5049 23.4976 13.3944C23.0674 13.2839 22.6127 13.3198 22.2051 13.4963C21.7976 13.6728 21.4604 13.98 21.2467 14.3693C21.0708 14.6895 20.986 15.0517 21.0014 15.4167C20.6095 15.5175 20.2456 15.7062 19.9375 15.9684C19.6293 16.2307 19.3848 16.5596 19.2226 16.9304C19.0604 17.3011 18.9847 17.7039 19.0012 18.1082C19.0178 18.5125 19.1261 18.9078 19.318 19.264" stroke="#B9B29D" stroke-linecap="round" stroke-linejoin="round"/>
<path d="M28.9985 15.4165C29.3904 15.5173 29.7543 15.706 30.0624 15.9682C30.3706 16.2305 30.6151 16.5595 30.7773 16.9302C30.9395 17.3009 31.0152 17.7037 30.9986 18.108C30.9821 18.5123 30.8738 18.9076 30.6819 19.2638" stroke="#B9B29D" stroke-linecap="round" stroke-linejoin="round"/>
<path d="M30.0034 18.8628C30.5762 19.0954 31.0504 19.5199 31.3448 20.0635C31.6392 20.6071 31.7356 21.2361 31.6175 21.843C31.4994 22.4498 31.1741 22.9968 30.6972 23.3903C30.2204 23.7837 29.6217 23.9993 29.0034 24.0001" stroke="#B9B29D" stroke-linecap="round" stroke-linejoin="round"/>
<path d="M19.6882 23.6553C19.6079 24.2671 19.7423 24.8878 20.0685 25.4116C20.3946 25.9354 20.8924 26.3299 21.4768 26.5279C22.0612 26.7258 22.6963 26.7149 23.2736 26.4971C23.8509 26.2793 24.3348 25.8679 24.6429 25.3333C24.7629 25.1259 25.2375 25.1259 25.3575 25.3333C25.6655 25.8678 26.1494 26.2791 26.7266 26.4969C27.3039 26.7147 27.9388 26.7256 28.5231 26.5278C29.1075 26.3299 29.6052 25.9356 29.9315 25.4119C30.2577 24.8883 30.3922 24.2677 30.3122 23.6559" stroke="#B9B29D" stroke-linecap="round" stroke-linejoin="round"/>
<path d="M20.0002 18.8608C19.4261 19.0927 18.9506 19.517 18.6552 20.0611C18.3598 20.6052 18.2629 21.2351 18.3811 21.8428C18.4994 22.4505 18.8254 22.9982 19.3033 23.3918C19.7811 23.7854 20.3811 24.0005 21.0002 24.0002" stroke="#B9B29D" stroke-linecap="round" stroke-linejoin="round"/>
<path d="M21.0015 15.4165C21.0151 15.7391 21.1066 16.0536 21.2681 16.3332" stroke="#B9B29D" stroke-linecap="round" stroke-linejoin="round"/>
<path d="M23.152 19.2348L22.5366 18.9795" stroke="#B9B29D" stroke-linecap="round" stroke-linejoin="round"/>
<path d="M23.152 20.7651L22.5366 21.0205" stroke="#B9B29D" stroke-linecap="round" stroke-linejoin="round"/>
<path d="M25 22C26.1046 22 27 21.1046 27 20C27 18.8954 26.1046 18 25 18C23.8954 18 23 18.8954 23 20C23 21.1046 23.8954 22 25 22Z" stroke="#B9B29D" stroke-linecap="round" stroke-linejoin="round"/>
</g>
<defs>
<clipPath id="clip0_184_2713">
<rect width="16" height="16" fill="white" transform="translate(17 12)"/>
</clipPath>
</defs>
</svg>
