<svg width="44" height="40" viewBox="0 0 44 40" fill="none" xmlns="http://www.w3.org/2000/svg">
<path d="M44 28.8V3L41 0H0V40H31L44 28.8Z" fill="#1A1A1A"/>
<path d="M7 32.2963C7 32.4283 6.968 32.5503 6.904 32.6623C6.84 32.7703 6.754 32.8563 6.646 32.9203C6.534 32.9843 6.412 33.0163 6.28 33.0163L3.4 33.0163C3.268 33.0163 3.148 32.9843 3.04 32.9203C2.928 32.8563 2.84 32.7703 2.776 32.6623C2.712 32.5503 2.68 32.4283 2.68 32.2963L2.68 28.7083L3.166 28.7083L3.166 32.2963C3.166 32.3603 3.19 32.4163 3.238 32.4643C3.282 32.5083 3.336 32.5303 3.4 32.5303L6.28 32.5303C6.344 32.5303 6.4 32.5083 6.448 32.4643C6.492 32.4163 6.514 32.3603 6.514 32.2963L6.514 28.7083L7 28.7083L7 32.2963ZM7 25.6408L5.374 25.6408L2.68 27.6268L2.68 27.0688L4.792 25.3948L2.68 23.7388L2.68 23.1688L5.374 25.1547L7 25.1547L7 25.6408ZM7 22.0308L2.68 22.0308L2.68 18.6168C2.68 18.4848 2.712 18.3648 2.776 18.2568C2.84 18.1448 2.928 18.0568 3.04 17.9928C3.148 17.9288 3.268 17.8968 3.4 17.8968L4.318 17.8968C4.374 17.8968 4.43 17.9048 4.486 17.9208C4.538 17.9328 4.588 17.9508 4.636 17.9748C4.768 17.8868 4.882 17.8208 4.978 17.7768C5.074 17.7328 5.172 17.7108 5.272 17.7108L6.28 17.7108C6.412 17.7108 6.534 17.7428 6.646 17.8068C6.754 17.8708 6.84 17.9588 6.904 18.0708C6.968 18.1788 7 18.2988 7 18.4308L7 22.0308ZM6.514 21.3108L6.514 18.4308C6.514 18.3668 6.492 18.3128 6.448 18.2688C6.4 18.2208 6.344 18.1968 6.28 18.1968L5.272 18.1968C5.208 18.1968 5.154 18.2208 5.11 18.2688C5.062 18.3128 5.038 18.3668 5.038 18.4308L5.038 21.3108C5.038 21.3748 5.062 21.4308 5.11 21.4788C5.154 21.5228 5.208 21.5448 5.272 21.5448L6.28 21.5448C6.344 21.5448 6.4 21.5228 6.448 21.4788C6.492 21.4308 6.514 21.3748 6.514 21.3108ZM4.552 21.3108L4.552 18.6168C4.552 18.5528 4.53 18.4988 4.486 18.4548C4.438 18.4108 4.382 18.3888 4.318 18.3888L3.4 18.3888C3.336 18.3888 3.282 18.4108 3.238 18.4548C3.19 18.4988 3.166 18.5528 3.166 18.6168L3.166 21.3108C3.166 21.3748 3.19 21.4308 3.238 21.4788C3.282 21.5228 3.336 21.5448 3.4 21.5448L4.318 21.5448C4.382 21.5448 4.438 21.5228 4.486 21.4788C4.53 21.4308 4.552 21.3748 4.552 21.3108ZM7 16.4446L2.68 16.4446L2.68 12.5026L3.166 12.5026L3.166 15.9586L4.594 15.9586L4.594 13.1806L5.086 13.1806L5.086 15.9586L6.514 15.9586L6.514 12.5026L7 12.5026L7 16.4446ZM7 7.61483L5.32 9.02483L5.32 8.38883L6.994 6.97283L7 6.97283L7 7.61483ZM7 11.2628L2.686 11.2628L2.686 7.66283C2.686 7.53083 2.72 7.41083 2.788 7.30283C2.852 7.19083 2.938 7.10283 3.046 7.03883C3.154 6.97483 3.274 6.94283 3.406 6.94283L4.672 6.94283C4.804 6.94283 4.924 6.97483 5.032 7.03883C5.14 7.10283 5.228 7.19083 5.296 7.30283C5.36 7.41083 5.392 7.53083 5.392 7.66283L5.392 10.7768L7 10.7768L7 11.2628ZM4.9 10.5428L4.9 7.66283C4.9 7.59883 4.878 7.54483 4.834 7.50083C4.79 7.45283 4.736 7.42883 4.672 7.42883L3.406 7.42883C3.342 7.42883 3.288 7.45283 3.244 7.50083C3.196 7.54483 3.172 7.59883 3.172 7.66283L3.172 10.5428C3.172 10.6068 3.196 10.6628 3.244 10.7108C3.288 10.7548 3.342 10.7768 3.406 10.7768L4.672 10.7768C4.736 10.7768 4.79 10.7548 4.834 10.7108C4.878 10.6628 4.9 10.6068 4.9 10.5428Z" fill="#B9B29D"/>
<path d="M0 3H40L41 4V27.7273L30 37H0" stroke="#B9B29D"/>
<g clip-path="url(#clip0_184_2680)">
<path d="M25 25.3335V26.6668" stroke="#B9B29D" stroke-linecap="round" stroke-linejoin="round"/>
<path d="M25 13.3335V14.6668" stroke="#B9B29D" stroke-linecap="round" stroke-linejoin="round"/>
<path d="M28.3335 25.3335V26.6668" stroke="#B9B29D" stroke-linecap="round" stroke-linejoin="round"/>
<path d="M28.3335 13.3335V14.6668" stroke="#B9B29D" stroke-linecap="round" stroke-linejoin="round"/>
<path d="M18.3335 20H19.6668" stroke="#B9B29D" stroke-linecap="round" stroke-linejoin="round"/>
<path d="M18.3335 23.3335H19.6668" stroke="#B9B29D" stroke-linecap="round" stroke-linejoin="round"/>
<path d="M18.3335 16.6665H19.6668" stroke="#B9B29D" stroke-linecap="round" stroke-linejoin="round"/>
<path d="M30.3335 20H31.6668" stroke="#B9B29D" stroke-linecap="round" stroke-linejoin="round"/>
<path d="M30.3335 23.3335H31.6668" stroke="#B9B29D" stroke-linecap="round" stroke-linejoin="round"/>
<path d="M30.3335 16.6665H31.6668" stroke="#B9B29D" stroke-linecap="round" stroke-linejoin="round"/>
<path d="M21.6665 25.3335V26.6668" stroke="#B9B29D" stroke-linecap="round" stroke-linejoin="round"/>
<path d="M21.6665 13.3335V14.6668" stroke="#B9B29D" stroke-linecap="round" stroke-linejoin="round"/>
<path d="M28.9998 14.6665H20.9998C20.2635 14.6665 19.6665 15.2635 19.6665 15.9998V23.9998C19.6665 24.7362 20.2635 25.3332 20.9998 25.3332H28.9998C29.7362 25.3332 30.3332 24.7362 30.3332 23.9998V15.9998C30.3332 15.2635 29.7362 14.6665 28.9998 14.6665Z" stroke="#B9B29D" stroke-linecap="round" stroke-linejoin="round"/>
<path d="M27.0002 17.3335H23.0002C22.632 17.3335 22.3335 17.632 22.3335 18.0002V22.0002C22.3335 22.3684 22.632 22.6668 23.0002 22.6668H27.0002C27.3684 22.6668 27.6668 22.3684 27.6668 22.0002V18.0002C27.6668 17.632 27.3684 17.3335 27.0002 17.3335Z" stroke="#B9B29D" stroke-linecap="round" stroke-linejoin="round"/>
</g>
<defs>
<clipPath id="clip0_184_2680">
<rect width="16" height="16" fill="white" transform="translate(17 12)"/>
</clipPath>
</defs>
</svg>
