<svg width="44" height="40" viewBox="0 0 44 40" fill="none" xmlns="http://www.w3.org/2000/svg">
<path d="M44 28.8V3L41 0H0V40H31L44 28.8Z" fill="#1A1A1A"/>
<path d="M0 3H40L41 4V27.7273L30 37H0" stroke="#B9B29D"/>
<path d="M23.667 13.3335V18.6668L25.667 16.6668L27.667 18.6668V13.3335" stroke="#B9B29D" stroke-linecap="round" stroke-linejoin="round"/>
<path d="M19.667 25.0002V15.0002C19.667 14.5581 19.8426 14.1342 20.1551 13.8217C20.4677 13.5091 20.8916 13.3335 21.3337 13.3335H29.667C29.8438 13.3335 30.0134 13.4037 30.1384 13.5288C30.2634 13.6538 30.3337 13.8234 30.3337 14.0002V26.0002C30.3337 26.177 30.2634 26.3465 30.1384 26.4716C30.0134 26.5966 29.8438 26.6668 29.667 26.6668H21.3337C20.8916 26.6668 20.4677 26.4912 20.1551 26.1787C19.8426 25.8661 19.667 25.4422 19.667 25.0002ZM19.667 25.0002C19.667 24.5581 19.8426 24.1342 20.1551 23.8217C20.4677 23.5091 20.8916 23.3335 21.3337 23.3335H30.3337" stroke="#B9B29D" stroke-linecap="round" stroke-linejoin="round"/>
</svg>
