<svg width="60" height="10" viewBox="0 0 60 10" fill="none" xmlns="http://www.w3.org/2000/svg">
<circle cx="5" cy="5" r="4.5" stroke="#B9B29D"/>
<circle cx="5" cy="5" r="2.5" fill="#B9B29D"/>
<path d="M15.392 8C15.216 8 15.0533 7.95733 14.904 7.872C14.76 7.78667 14.6453 7.672 14.56 7.528C14.4747 7.37867 14.432 7.216 14.432 7.04V2.24H15.08V7.04C15.08 7.12533 15.1093 7.2 15.168 7.264C15.232 7.32267 15.3067 7.352 15.392 7.352L19.232 7.352C19.3173 7.352 19.3893 7.32267 19.448 7.264C19.512 7.2 19.544 7.12533 19.544 7.04V2.24H20.192V7.04C20.192 7.216 20.1493 7.37867 20.064 7.528C19.9787 7.672 19.8613 7.78667 19.712 7.872C19.568 7.95733 19.408 8 19.232 8L15.392 8ZM21.873 8V2.24H22.761L26.985 7.264V2.24H27.633V8H26.745L22.521 2.976V8L21.873 8ZM29.3373 8V2.232H29.9853V7.352L35.0973 7.352V8L29.3373 8ZM37.3076 8C37.1316 8 36.969 7.95733 36.8196 7.872C36.6756 7.78667 36.561 7.672 36.4756 7.528C36.3903 7.37867 36.3476 7.216 36.3476 7.04V3.2C36.3476 3.024 36.3903 2.864 36.4756 2.72C36.561 2.57067 36.6756 2.45333 36.8196 2.368C36.969 2.28267 37.1316 2.24 37.3076 2.24L41.1476 2.24C41.3236 2.24 41.4836 2.28267 41.6276 2.368C41.777 2.45333 41.8943 2.57067 41.9796 2.72C42.065 2.864 42.1076 3.024 42.1076 3.2V7.04C42.1076 7.216 42.065 7.37867 41.9796 7.528C41.8943 7.672 41.777 7.78667 41.6276 7.872C41.4836 7.95733 41.3236 8 41.1476 8L37.3076 8ZM37.3076 7.352L41.1476 7.352C41.233 7.352 41.305 7.32267 41.3636 7.264C41.4276 7.2 41.4596 7.12533 41.4596 7.04V3.2C41.4596 3.11467 41.4276 3.04267 41.3636 2.984C41.305 2.92 41.233 2.888 41.1476 2.888L37.3076 2.888C37.2223 2.888 37.1476 2.92 37.0836 2.984C37.025 3.04267 36.9956 3.11467 36.9956 3.2V7.04C36.9956 7.12533 37.025 7.2 37.0836 7.264C37.1476 7.32267 37.2223 7.352 37.3076 7.352ZM44.7486 8C44.5726 8 44.41 7.95733 44.2606 7.872C44.1166 7.78667 44.002 7.672 43.9166 7.528C43.8313 7.37867 43.7886 7.216 43.7886 7.04V3.2C43.7886 3.024 43.8313 2.864 43.9166 2.72C44.002 2.57067 44.1166 2.45333 44.2606 2.368C44.41 2.28267 44.5726 2.24 44.7486 2.24L49.5326 2.24V2.888L44.7486 2.888C44.6633 2.888 44.5886 2.92 44.5246 2.984C44.466 3.04267 44.4366 3.11467 44.4366 3.2V7.04C44.4366 7.12533 44.466 7.2 44.5246 7.264C44.5886 7.32267 44.6633 7.352 44.7486 7.352H49.5326V8H44.7486ZM51.1748 8V2.24L51.8308 2.24V4.792H53.6868L55.8308 2.24H56.6628V2.248L54.2548 5.12L56.6708 7.992V8H55.8308L53.6868 5.448H51.8308V8H51.1748Z" fill="#B9B29D"/>
</svg>
