<svg width="54" height="26" viewBox="0 0 54 26" fill="none" xmlns="http://www.w3.org/2000/svg">
<path d="M54 13.707L51.707 16H2.29297L0 13.707L0.707031 13L2.70703 15H51.293L53.293 13L54 13.707Z" fill="#B9B29D"/>
<path d="M9.49888 25C9.32288 25 9.16021 24.9573 9.01088 24.872C8.86688 24.7813 8.74954 24.664 8.65888 24.52C8.57354 24.3707 8.53088 24.208 8.53088 24.032V23.968H9.18688V24.032C9.18688 24.1173 9.21621 24.192 9.27488 24.256C9.33888 24.3147 9.41354 24.344 9.49888 24.344H12.2829C12.3682 24.344 12.4402 24.3147 12.4989 24.256C12.5629 24.192 12.5949 24.1173 12.5949 24.032V23.32C12.5949 23.2347 12.5629 23.1627 12.4989 23.104C12.4402 23.04 12.3682 23.008 12.2829 23.008H9.49888C9.32288 23.008 9.16021 22.9653 9.01088 22.88C8.86688 22.7893 8.74954 22.672 8.65888 22.528C8.57354 22.3787 8.53088 22.216 8.53088 22.04V21.328C8.53088 21.152 8.57354 20.992 8.65888 20.848C8.74954 20.6987 8.86688 20.5813 9.01088 20.496C9.16021 20.4053 9.32288 20.36 9.49888 20.36H12.2829C12.4642 20.36 12.6269 20.4053 12.7709 20.496C12.9202 20.5813 13.0375 20.6987 13.1229 20.848C13.2135 20.992 13.2589 21.152 13.2589 21.328V21.392H12.5949V21.328C12.5949 21.2427 12.5629 21.1707 12.4989 21.112C12.4402 21.048 12.3682 21.016 12.2829 21.016H9.49888C9.41354 21.016 9.33888 21.048 9.27488 21.112C9.21621 21.1707 9.18688 21.2427 9.18688 21.328V22.04C9.18688 22.1253 9.21621 22.2 9.27488 22.264C9.33888 22.3227 9.41354 22.352 9.49888 22.352H12.2829C12.4642 22.352 12.6269 22.3973 12.7709 22.488C12.9202 22.5733 13.0375 22.6907 13.1229 22.84C13.2135 22.984 13.2589 23.144 13.2589 23.32V24.032C13.2589 24.208 13.2135 24.3707 13.1229 24.52C13.0375 24.664 12.9202 24.7813 12.7709 24.872C12.6269 24.9573 12.4642 25 12.2829 25H9.49888ZM15.6901 25C15.5141 25 15.3514 24.9573 15.2021 24.872C15.0581 24.7813 14.9407 24.664 14.8501 24.52C14.7647 24.3707 14.7221 24.208 14.7221 24.032V21.328C14.7221 21.152 14.7647 20.992 14.8501 20.848C14.9407 20.6987 15.0581 20.5813 15.2021 20.496C15.3514 20.4053 15.5141 20.36 15.6901 20.36H18.4741C18.6554 20.36 18.8181 20.4053 18.9621 20.496C19.1114 20.5813 19.2287 20.6987 19.3141 20.848C19.4047 20.992 19.4501 21.152 19.4501 21.328V23.008H15.3781V24.032C15.3781 24.1173 15.4074 24.192 15.4661 24.256C15.5301 24.3147 15.6047 24.344 15.6901 24.344H19.4501V25H15.6901ZM15.3781 22.352H18.7861V21.328C18.7861 21.2427 18.7541 21.1707 18.6901 21.112C18.6314 21.048 18.5594 21.016 18.4741 21.016H15.6901C15.6047 21.016 15.5301 21.048 15.4661 21.112C15.4074 21.1707 15.3781 21.2427 15.3781 21.328V22.352ZM21.0301 25V21.328C21.0301 21.152 21.0727 20.992 21.1581 20.848C21.2487 20.6987 21.3661 20.5813 21.5101 20.496C21.6594 20.4053 21.8221 20.36 21.9981 20.36H24.6061V21.016H21.9981C21.9127 21.016 21.8381 21.048 21.7741 21.112C21.7154 21.1707 21.6861 21.2427 21.6861 21.328V25H21.0301ZM25.9238 25V20.36H26.5798V25H25.9238ZM25.9238 19.496V18.84H26.5798V19.496H25.9238ZM29.3479 25C29.1719 25 29.0092 24.9573 28.8599 24.872C28.7159 24.7813 28.5985 24.664 28.5079 24.52C28.4225 24.3707 28.3799 24.208 28.3799 24.032V21.328C28.3799 21.152 28.4225 20.992 28.5079 20.848C28.5985 20.6987 28.7159 20.5813 28.8599 20.496C29.0092 20.4053 29.1719 20.36 29.3479 20.36H32.1319C32.3132 20.36 32.4759 20.4053 32.6199 20.496C32.7692 20.5813 32.8865 20.6987 32.9719 20.848C33.0625 20.992 33.1079 21.152 33.1079 21.328V24.032C33.1079 24.208 33.0625 24.3707 32.9719 24.52C32.8865 24.664 32.7692 24.7813 32.6199 24.872C32.4759 24.9573 32.3132 25 32.1319 25H29.3479ZM29.3479 24.344H32.1319C32.2172 24.344 32.2892 24.3147 32.3479 24.256C32.4119 24.192 32.4439 24.1173 32.4439 24.032V21.328C32.4439 21.2427 32.4119 21.1707 32.3479 21.112C32.2892 21.048 32.2172 21.016 32.1319 21.016H29.3479C29.2625 21.016 29.1879 21.048 29.1239 21.112C29.0652 21.1707 29.0359 21.2427 29.0359 21.328V24.032C29.0359 24.1173 29.0652 24.192 29.1239 24.256C29.1879 24.3147 29.2625 24.344 29.3479 24.344ZM35.5154 25C35.3394 25 35.1768 24.9573 35.0274 24.872C34.8834 24.7813 34.7661 24.664 34.6754 24.52C34.5901 24.3707 34.5474 24.208 34.5474 24.032V20.36H35.2034V24.032C35.2034 24.1173 35.2328 24.192 35.2914 24.256C35.3554 24.3147 35.4301 24.344 35.5154 24.344H38.2994C38.3848 24.344 38.4594 24.3147 38.5234 24.256C38.5874 24.192 38.6194 24.1173 38.6194 24.032V20.36H39.2754V24.032C39.2754 24.208 39.2301 24.3707 39.1394 24.52C39.0541 24.664 38.9368 24.7813 38.7874 24.872C38.6434 24.9573 38.4808 25 38.2994 25H35.5154ZM41.7208 25C41.5448 25 41.3821 24.9573 41.2328 24.872C41.0888 24.7813 40.9714 24.664 40.8808 24.52C40.7954 24.3707 40.7528 24.208 40.7528 24.032V23.968H41.4088V24.032C41.4088 24.1173 41.4381 24.192 41.4968 24.256C41.5608 24.3147 41.6354 24.344 41.7208 24.344H44.5048C44.5901 24.344 44.6621 24.3147 44.7208 24.256C44.7848 24.192 44.8168 24.1173 44.8168 24.032V23.32C44.8168 23.2347 44.7848 23.1627 44.7208 23.104C44.6621 23.04 44.5901 23.008 44.5048 23.008H41.7208C41.5448 23.008 41.3821 22.9653 41.2328 22.88C41.0888 22.7893 40.9714 22.672 40.8808 22.528C40.7954 22.3787 40.7528 22.216 40.7528 22.04V21.328C40.7528 21.152 40.7954 20.992 40.8808 20.848C40.9714 20.6987 41.0888 20.5813 41.2328 20.496C41.3821 20.4053 41.5448 20.36 41.7208 20.36H44.5048C44.6861 20.36 44.8488 20.4053 44.9928 20.496C45.1421 20.5813 45.2594 20.6987 45.3448 20.848C45.4354 20.992 45.4808 21.152 45.4808 21.328V21.392H44.8168V21.328C44.8168 21.2427 44.7848 21.1707 44.7208 21.112C44.6621 21.048 44.5901 21.016 44.5048 21.016H41.7208C41.6354 21.016 41.5608 21.048 41.4968 21.112C41.4381 21.1707 41.4088 21.2427 41.4088 21.328V22.04C41.4088 22.1253 41.4381 22.2 41.4968 22.264C41.5608 22.3227 41.6354 22.352 41.7208 22.352H44.5048C44.6861 22.352 44.8488 22.3973 44.9928 22.488C45.1421 22.5733 45.2594 22.6907 45.3448 22.84C45.4354 22.984 45.4808 23.144 45.4808 23.32V24.032C45.4808 24.208 45.4354 24.3707 45.3448 24.52C45.2594 24.664 45.1421 24.7813 44.9928 24.872C44.8488 24.9573 44.6861 25 44.5048 25H41.7208Z" fill="#B9B29D"/>
</svg>
