<svg width="54" height="26" viewBox="0 0 54 26" fill="none" xmlns="http://www.w3.org/2000/svg">
<path d="M54 13.707L51.707 16H2.29297L0 13.707L0.707031 13L2.70703 15H51.293L53.293 13L54 13.707Z" fill="#B9B29D"/>
<path d="M5.96403 25V20.36H12.092C12.2734 20.36 12.436 20.4053 12.58 20.496C12.7294 20.5813 12.8467 20.6987 12.932 20.848C13.0174 20.992 13.06 21.152 13.06 21.328V25H12.412V21.328C12.412 21.2427 12.38 21.1707 12.316 21.112C12.252 21.048 12.1774 21.016 12.092 21.016H10.164C10.0787 21.016 10.004 21.048 9.94003 21.112C9.88137 21.1707 9.85203 21.2427 9.85203 21.328V25H9.18803V21.328C9.18803 21.2427 9.15603 21.1707 9.09203 21.112C9.03337 21.048 8.96137 21.016 8.87603 21.016H6.94003C6.8547 21.016 6.78003 21.048 6.71603 21.112C6.65737 21.1707 6.62803 21.2427 6.62803 21.328V25H5.96403ZM15.5283 25C15.3523 25 15.1897 24.9573 15.0403 24.872C14.8963 24.7813 14.779 24.664 14.6883 24.52C14.603 24.3707 14.5603 24.208 14.5603 24.032V21.328C14.5603 21.152 14.603 20.992 14.6883 20.848C14.779 20.6987 14.8963 20.5813 15.0403 20.496C15.1897 20.4053 15.3523 20.36 15.5283 20.36H18.3123C18.4937 20.36 18.6563 20.4053 18.8003 20.496C18.9497 20.5813 19.067 20.6987 19.1523 20.848C19.243 20.992 19.2883 21.152 19.2883 21.328V24.032C19.2883 24.208 19.243 24.3707 19.1523 24.52C19.067 24.664 18.9497 24.7813 18.8003 24.872C18.6563 24.9573 18.4937 25 18.3123 25H15.5283ZM15.5283 24.344H18.3123C18.3977 24.344 18.4697 24.3147 18.5283 24.256C18.5923 24.192 18.6243 24.1173 18.6243 24.032V21.328C18.6243 21.2427 18.5923 21.1707 18.5283 21.112C18.4697 21.048 18.3977 21.016 18.3123 21.016H15.5283C15.443 21.016 15.3683 21.048 15.3043 21.112C15.2457 21.1707 15.2163 21.2427 15.2163 21.328V24.032C15.2163 24.1173 15.2457 24.192 15.3043 24.256C15.3683 24.3147 15.443 24.344 15.5283 24.344ZM20.8293 25V21.328C20.8293 21.152 20.8719 20.992 20.9573 20.848C21.0479 20.6987 21.1653 20.5813 21.3093 20.496C21.4586 20.4053 21.6213 20.36 21.7973 20.36H24.4053V21.016H21.7973C21.7119 21.016 21.6373 21.048 21.5733 21.112C21.5146 21.1707 21.4853 21.2427 21.4853 21.328V25H20.8293ZM26.699 25C26.5177 25 26.3524 24.9573 26.203 24.872C26.059 24.7813 25.9444 24.664 25.859 24.52C25.7737 24.3707 25.731 24.208 25.731 24.032V18.84H26.387V20.36H28.395V21.016H26.387V24.032C26.387 24.1173 26.4164 24.192 26.475 24.256C26.539 24.3147 26.6137 24.344 26.699 24.344H28.395V25H26.699ZM30.7723 25C30.5963 25 30.4336 24.9573 30.2843 24.872C30.1403 24.7813 30.0229 24.664 29.9323 24.52C29.8469 24.3707 29.8043 24.208 29.8043 24.032V22.352H33.8683V21.328C33.8683 21.2427 33.8363 21.1707 33.7723 21.112C33.7136 21.048 33.6416 21.016 33.5563 21.016H29.8043V20.36H33.5563C33.7376 20.36 33.9003 20.4053 34.0443 20.496C34.1936 20.5813 34.3109 20.6987 34.3963 20.848C34.4869 20.992 34.5323 21.152 34.5323 21.328V25H30.7723ZM30.7723 24.344H33.8683V23.008H30.4603V24.032C30.4603 24.1173 30.4896 24.192 30.5483 24.256C30.6123 24.3147 30.6869 24.344 30.7723 24.344ZM37.0488 25C36.8728 25 36.7102 24.9573 36.5608 24.872C36.4168 24.7813 36.2995 24.664 36.2088 24.52C36.1235 24.3707 36.0808 24.208 36.0808 24.032V18.84H36.7368V24.032C36.7368 24.1173 36.7662 24.192 36.8248 24.256C36.8888 24.3147 36.9635 24.344 37.0488 24.344H37.8328V25H37.0488ZM43.2586 25C43.0773 25 42.9119 24.9573 42.7626 24.872C42.6186 24.7813 42.5013 24.664 42.4106 24.52C42.3253 24.3707 42.2826 24.208 42.2826 24.032V23.904H42.9466V24.032C42.9466 24.1173 42.9759 24.192 43.0346 24.256C43.0986 24.3147 43.1733 24.344 43.2586 24.344H47.1386C47.2239 24.344 47.2959 24.3147 47.3546 24.256C47.4186 24.192 47.4506 24.1173 47.4506 24.032V22.696C47.4506 22.6107 47.4186 22.5387 47.3546 22.48C47.2959 22.416 47.2239 22.384 47.1386 22.384H43.3866V21.728H46.8826C46.9679 21.728 47.0399 21.6987 47.0986 21.64C47.1626 21.576 47.1946 21.5013 47.1946 21.416V20.208C47.1946 20.1227 47.1626 20.0507 47.0986 19.992C47.0399 19.928 46.9679 19.896 46.8826 19.896H43.2586C43.1733 19.896 43.0986 19.928 43.0346 19.992C42.9759 20.0507 42.9466 20.1227 42.9466 20.208V20.416H42.2826V20.208C42.2826 20.0267 42.3253 19.864 42.4106 19.72C42.5013 19.5707 42.6186 19.4533 42.7626 19.368C42.9119 19.2773 43.0773 19.232 43.2586 19.232H46.8826C47.0639 19.232 47.2266 19.2773 47.3706 19.368C47.5199 19.4533 47.6373 19.5707 47.7226 19.72C47.8079 19.864 47.8506 20.0267 47.8506 20.208V21.416C47.8506 21.4907 47.8399 21.5653 47.8186 21.64C47.8026 21.7093 47.7813 21.7733 47.7546 21.832C47.8879 21.96 47.9786 22.1013 48.0266 22.256C48.0799 22.4107 48.1066 22.5573 48.1066 22.696V24.032C48.1066 24.208 48.0613 24.3707 47.9706 24.52C47.8853 24.664 47.7679 24.7813 47.6186 24.872C47.4746 24.9573 47.3146 25 47.1386 25H43.2586Z" fill="#B9B29D"/>
</svg>
