<svg width="54" height="14" viewBox="0 0 54 14" fill="none" xmlns="http://www.w3.org/2000/svg">
<path d="M54 0.707031L51.707 3H2.29297L0 0.707031L0.707031 0L2.70703 2H51.293L53.293 0L54 0.707031Z" fill="#B9B29D"/>
<path d="M6.34684 12V7.36H12.4748C12.6562 7.36 12.8188 7.40533 12.9628 7.496C13.1122 7.58133 13.2295 7.69867 13.3148 7.848C13.4002 7.992 13.4428 8.152 13.4428 8.328V12H12.7948V8.328C12.7948 8.24267 12.7628 8.17067 12.6988 8.112C12.6348 8.048 12.5602 8.016 12.4748 8.016H10.5468C10.4615 8.016 10.3868 8.048 10.3228 8.112C10.2642 8.17067 10.2348 8.24267 10.2348 8.328V12H9.57084V8.328C9.57084 8.24267 9.53884 8.17067 9.47484 8.112C9.41618 8.048 9.34418 8.016 9.25884 8.016H7.32284C7.23751 8.016 7.16284 8.048 7.09884 8.112C7.04018 8.17067 7.01084 8.24267 7.01084 8.328V12H6.34684ZM15.9112 12C15.7352 12 15.5725 11.9573 15.4232 11.872C15.2792 11.7813 15.1618 11.664 15.0712 11.52C14.9858 11.3707 14.9432 11.208 14.9432 11.032V8.328C14.9432 8.152 14.9858 7.992 15.0712 7.848C15.1618 7.69867 15.2792 7.58133 15.4232 7.496C15.5725 7.40533 15.7352 7.36 15.9112 7.36H18.6952C18.8765 7.36 19.0392 7.40533 19.1832 7.496C19.3325 7.58133 19.4498 7.69867 19.5352 7.848C19.6258 7.992 19.6712 8.152 19.6712 8.328V11.032C19.6712 11.208 19.6258 11.3707 19.5352 11.52C19.4498 11.664 19.3325 11.7813 19.1832 11.872C19.0392 11.9573 18.8765 12 18.6952 12H15.9112ZM15.9112 11.344H18.6952C18.7805 11.344 18.8525 11.3147 18.9112 11.256C18.9752 11.192 19.0072 11.1173 19.0072 11.032V8.328C19.0072 8.24267 18.9752 8.17067 18.9112 8.112C18.8525 8.048 18.7805 8.016 18.6952 8.016H15.9112C15.8258 8.016 15.7512 8.048 15.6872 8.112C15.6285 8.17067 15.5992 8.24267 15.5992 8.328V11.032C15.5992 11.1173 15.6285 11.192 15.6872 11.256C15.7512 11.3147 15.8258 11.344 15.9112 11.344ZM21.2121 12V8.328C21.2121 8.152 21.2548 7.992 21.3401 7.848C21.4308 7.69867 21.5481 7.58133 21.6921 7.496C21.8414 7.40533 22.0041 7.36 22.1801 7.36H24.7881V8.016H22.1801C22.0948 8.016 22.0201 8.048 21.9561 8.112C21.8974 8.17067 21.8681 8.24267 21.8681 8.328V12H21.2121ZM27.0818 12C26.9005 12 26.7352 11.9573 26.5858 11.872C26.4418 11.7813 26.3272 11.664 26.2418 11.52C26.1565 11.3707 26.1138 11.208 26.1138 11.032V5.84H26.7698V7.36H28.7778V8.016H26.7698V11.032C26.7698 11.1173 26.7992 11.192 26.8578 11.256C26.9218 11.3147 26.9965 11.344 27.0818 11.344H28.7778V12H27.0818ZM31.1551 12C30.9791 12 30.8164 11.9573 30.6671 11.872C30.5231 11.7813 30.4058 11.664 30.3151 11.52C30.2298 11.3707 30.1871 11.208 30.1871 11.032V9.352H34.2511V8.328C34.2511 8.24267 34.2191 8.17067 34.1551 8.112C34.0964 8.048 34.0244 8.016 33.9391 8.016H30.1871V7.36H33.9391C34.1204 7.36 34.2831 7.40533 34.4271 7.496C34.5764 7.58133 34.6938 7.69867 34.7791 7.848C34.8698 7.992 34.9151 8.152 34.9151 8.328V12H31.1551ZM31.1551 11.344H34.2511V10.008H30.8431V11.032C30.8431 11.1173 30.8724 11.192 30.9311 11.256C30.9951 11.3147 31.0698 11.344 31.1551 11.344ZM37.4317 12C37.2557 12 37.093 11.9573 36.9437 11.872C36.7997 11.7813 36.6823 11.664 36.5917 11.52C36.5063 11.3707 36.4637 11.208 36.4637 11.032V5.84H37.1197V11.032C37.1197 11.1173 37.149 11.192 37.2077 11.256C37.2717 11.3147 37.3463 11.344 37.4317 11.344H38.2157V12H37.4317ZM46.3054 12V10.512H42.2894V9.776L46.2254 6.232H46.9614V9.856H47.8574V10.512H46.9614V12H46.3054ZM43.1294 9.856H46.3054V7.12L43.1294 9.856Z" fill="#B9B29D"/>
</svg>
