<svg width="54" height="14" viewBox="0 0 54 14" fill="none" xmlns="http://www.w3.org/2000/svg">
<path d="M54 0.707031L51.707 3H2.29297L0 0.707031L0.707031 0L2.70703 2H51.293L53.293 0L54 0.707031Z" fill="#B60F3C"/>
<path d="M5.94841 12V7.36H12.0764C12.2577 7.36 12.4204 7.40533 12.5644 7.496C12.7137 7.58133 12.8311 7.69867 12.9164 7.848C13.0017 7.992 13.0444 8.152 13.0444 8.328V12H12.3964V8.328C12.3964 8.24267 12.3644 8.17067 12.3004 8.112C12.2364 8.048 12.1617 8.016 12.0764 8.016H10.1484C10.0631 8.016 9.98841 8.048 9.92441 8.112C9.86574 8.17067 9.83641 8.24267 9.83641 8.328V12H9.17241V8.328C9.17241 8.24267 9.14041 8.17067 9.07641 8.112C9.01774 8.048 8.94574 8.016 8.86041 8.016H6.92441C6.83907 8.016 6.76441 8.048 6.70041 8.112C6.64174 8.17067 6.61241 8.24267 6.61241 8.328V12H5.94841ZM15.5127 12C15.3367 12 15.1741 11.9573 15.0247 11.872C14.8807 11.7813 14.7634 11.664 14.6727 11.52C14.5874 11.3707 14.5447 11.208 14.5447 11.032V8.328C14.5447 8.152 14.5874 7.992 14.6727 7.848C14.7634 7.69867 14.8807 7.58133 15.0247 7.496C15.1741 7.40533 15.3367 7.36 15.5127 7.36H18.2967C18.4781 7.36 18.6407 7.40533 18.7847 7.496C18.9341 7.58133 19.0514 7.69867 19.1367 7.848C19.2274 7.992 19.2727 8.152 19.2727 8.328V11.032C19.2727 11.208 19.2274 11.3707 19.1367 11.52C19.0514 11.664 18.9341 11.7813 18.7847 11.872C18.6407 11.9573 18.4781 12 18.2967 12H15.5127ZM15.5127 11.344H18.2967C18.3821 11.344 18.4541 11.3147 18.5127 11.256C18.5767 11.192 18.6087 11.1173 18.6087 11.032V8.328C18.6087 8.24267 18.5767 8.17067 18.5127 8.112C18.4541 8.048 18.3821 8.016 18.2967 8.016H15.5127C15.4274 8.016 15.3527 8.048 15.2887 8.112C15.2301 8.17067 15.2007 8.24267 15.2007 8.328V11.032C15.2007 11.1173 15.2301 11.192 15.2887 11.256C15.3527 11.3147 15.4274 11.344 15.5127 11.344ZM20.8137 12V8.328C20.8137 8.152 20.8563 7.992 20.9417 7.848C21.0323 7.69867 21.1497 7.58133 21.2937 7.496C21.443 7.40533 21.6057 7.36 21.7817 7.36H24.3897V8.016H21.7817C21.6963 8.016 21.6217 8.048 21.5577 8.112C21.499 8.17067 21.4697 8.24267 21.4697 8.328V12H20.8137ZM26.6834 12C26.5021 12 26.3367 11.9573 26.1874 11.872C26.0434 11.7813 25.9287 11.664 25.8434 11.52C25.7581 11.3707 25.7154 11.208 25.7154 11.032V5.84H26.3714V7.36H28.3794V8.016H26.3714V11.032C26.3714 11.1173 26.4007 11.192 26.4594 11.256C26.5234 11.3147 26.5981 11.344 26.6834 11.344H28.3794V12H26.6834ZM30.7567 12C30.5807 12 30.418 11.9573 30.2687 11.872C30.1247 11.7813 30.0073 11.664 29.9167 11.52C29.8313 11.3707 29.7887 11.208 29.7887 11.032V9.352H33.8527V8.328C33.8527 8.24267 33.8207 8.17067 33.7567 8.112C33.698 8.048 33.626 8.016 33.5407 8.016H29.7887V7.36H33.5407C33.722 7.36 33.8847 7.40533 34.0287 7.496C34.178 7.58133 34.2953 7.69867 34.3807 7.848C34.4713 7.992 34.5167 8.152 34.5167 8.328V12H30.7567ZM30.7567 11.344H33.8527V10.008H30.4447V11.032C30.4447 11.1173 30.474 11.192 30.5327 11.256C30.5967 11.3147 30.6713 11.344 30.7567 11.344ZM37.0332 12C36.8572 12 36.6946 11.9573 36.5452 11.872C36.4012 11.7813 36.2839 11.664 36.1932 11.52C36.1079 11.3707 36.0652 11.208 36.0652 11.032V5.84H36.7212V11.032C36.7212 11.1173 36.7506 11.192 36.8092 11.256C36.8732 11.3147 36.9479 11.344 37.0332 11.344H37.8172V12H37.0332ZM43.267 12C43.0856 12 42.9203 11.9573 42.771 11.872C42.627 11.7813 42.5123 11.664 42.427 11.52C42.3416 11.3707 42.299 11.208 42.299 11.032V10.8H42.955V11.032C42.955 11.1173 42.9843 11.192 43.043 11.256C43.107 11.3147 43.1816 11.344 43.267 11.344H47.147C47.2323 11.344 47.3043 11.3147 47.363 11.256C47.427 11.192 47.459 11.1173 47.459 11.032V9.672C47.459 9.58667 47.427 9.51467 47.363 9.456C47.3043 9.392 47.2323 9.36 47.147 9.36H42.299V6.232H48.115V6.896H43.267C43.1816 6.896 43.107 6.928 43.043 6.992C42.9843 7.05067 42.955 7.12267 42.955 7.208V8.384C42.955 8.46933 42.9843 8.544 43.043 8.608C43.107 8.672 43.1816 8.704 43.267 8.704H47.147C47.323 8.704 47.483 8.74667 47.627 8.832C47.7763 8.91733 47.8936 9.03467 47.979 9.184C48.0696 9.328 48.115 9.49067 48.115 9.672V11.032C48.115 11.208 48.0696 11.3707 47.979 11.52C47.8936 11.664 47.7763 11.7813 47.627 11.872C47.483 11.9573 47.323 12 47.147 12H43.267Z" fill="#B60F3C"/>
</svg>
