<svg width="54" height="26" viewBox="0 0 54 26" fill="none" xmlns="http://www.w3.org/2000/svg">
<path d="M54 13.707L51.707 16H2.29297L0 13.707L0.707031 13L2.70703 15H51.293L53.293 13L54 13.707Z" fill="#B9B29D"/>
<path d="M10.7557 25C10.5797 25 10.417 24.9573 10.2677 24.872C10.1237 24.7813 10.0064 24.664 9.91569 24.52C9.83035 24.3707 9.78769 24.208 9.78769 24.032V21.328C9.78769 21.152 9.83035 20.992 9.91569 20.848C10.0064 20.6987 10.1237 20.5813 10.2677 20.496C10.417 20.4053 10.5797 20.36 10.7557 20.36H14.4997V21.016H10.7557C10.6704 21.016 10.5957 21.048 10.5317 21.112C10.473 21.1707 10.4437 21.2427 10.4437 21.328V24.032C10.4437 24.1173 10.473 24.192 10.5317 24.256C10.5957 24.3147 10.6704 24.344 10.7557 24.344H14.5157V25H10.7557ZM16.1582 25V21.328C16.1582 21.152 16.2009 20.992 16.2862 20.848C16.3769 20.6987 16.4942 20.5813 16.6382 20.496C16.7875 20.4053 16.9502 20.36 17.1262 20.36H19.7342V21.016H17.1262C17.0409 21.016 16.9662 21.048 16.9022 21.112C16.8435 21.1707 16.8142 21.2427 16.8142 21.328V25H16.1582ZM21.0519 25V20.36H21.7079V25H21.0519ZM21.0519 19.496V18.84H21.7079V19.496H21.0519ZM24.492 25C24.3107 25 24.1453 24.9573 23.996 24.872C23.852 24.7813 23.7373 24.664 23.652 24.52C23.5667 24.3707 23.524 24.208 23.524 24.032V18.84H24.18V20.36H26.188V21.016H24.18V24.032C24.18 24.1173 24.2093 24.192 24.268 24.256C24.332 24.3147 24.4067 24.344 24.492 24.344H26.188V25H24.492ZM27.6363 25V20.36H28.2923V25H27.6363ZM27.6363 19.496V18.84H28.2923V19.496H27.6363ZM30.9432 25C30.7672 25 30.6045 24.9573 30.4552 24.872C30.3112 24.7813 30.1939 24.664 30.1032 24.52C30.0179 24.3707 29.9752 24.208 29.9752 24.032V21.328C29.9752 21.152 30.0179 20.992 30.1032 20.848C30.1939 20.6987 30.3112 20.5813 30.4552 20.496C30.6045 20.4053 30.7672 20.36 30.9432 20.36H34.6872V21.016H30.9432C30.8579 21.016 30.7832 21.048 30.7192 21.112C30.6605 21.1707 30.6312 21.2427 30.6312 21.328V24.032C30.6312 24.1173 30.6605 24.192 30.7192 24.256C30.7832 24.3147 30.8579 24.344 30.9432 24.344H34.7032V25H30.9432ZM37.3137 25C37.1377 25 36.975 24.9573 36.8257 24.872C36.6817 24.7813 36.5644 24.664 36.4737 24.52C36.3884 24.3707 36.3457 24.208 36.3457 24.032V22.352H40.4097V21.328C40.4097 21.2427 40.3777 21.1707 40.3137 21.112C40.255 21.048 40.183 21.016 40.0977 21.016H36.3457V20.36H40.0977C40.279 20.36 40.4417 20.4053 40.5857 20.496C40.735 20.5813 40.8524 20.6987 40.9377 20.848C41.0284 20.992 41.0737 21.152 41.0737 21.328V25H37.3137ZM37.3137 24.344H40.4097V23.008H37.0017V24.032C37.0017 24.1173 37.031 24.192 37.0897 24.256C37.1537 24.3147 37.2284 24.344 37.3137 24.344ZM43.5902 25C43.4142 25 43.2516 24.9573 43.1022 24.872C42.9582 24.7813 42.8409 24.664 42.7502 24.52C42.6649 24.3707 42.6222 24.208 42.6222 24.032V18.84H43.2782V24.032C43.2782 24.1173 43.3076 24.192 43.3662 24.256C43.4302 24.3147 43.5049 24.344 43.5902 24.344H44.3742V25H43.5902Z" fill="#B9B29D"/>
</svg>
