<svg width="54" height="26" viewBox="0 0 54 26" fill="none" xmlns="http://www.w3.org/2000/svg">
<path d="M54 13.707L51.707 16H2.29297L0 13.707L0.707031 13L2.70703 15H51.293L53.293 13L54 13.707Z" fill="#B9B29D"/>
<path d="M5.98747 25V20.36H12.1155C12.2968 20.36 12.4595 20.4053 12.6035 20.496C12.7528 20.5813 12.8701 20.6987 12.9555 20.848C13.0408 20.992 13.0835 21.152 13.0835 21.328V25H12.4355V21.328C12.4355 21.2427 12.4035 21.1707 12.3395 21.112C12.2755 21.048 12.2008 21.016 12.1155 21.016H10.1875C10.1021 21.016 10.0275 21.048 9.96347 21.112C9.9048 21.1707 9.87547 21.2427 9.87547 21.328V25H9.21147V21.328C9.21147 21.2427 9.17947 21.1707 9.11547 21.112C9.0568 21.048 8.9848 21.016 8.89947 21.016H6.96347C6.87814 21.016 6.80347 21.048 6.73947 21.112C6.6808 21.1707 6.65147 21.2427 6.65147 21.328V25H5.98747ZM15.5518 25C15.3758 25 15.2131 24.9573 15.0638 24.872C14.9198 24.7813 14.8024 24.664 14.7118 24.52C14.6264 24.3707 14.5838 24.208 14.5838 24.032V21.328C14.5838 21.152 14.6264 20.992 14.7118 20.848C14.8024 20.6987 14.9198 20.5813 15.0638 20.496C15.2131 20.4053 15.3758 20.36 15.5518 20.36H18.3358C18.5171 20.36 18.6798 20.4053 18.8238 20.496C18.9731 20.5813 19.0904 20.6987 19.1758 20.848C19.2664 20.992 19.3118 21.152 19.3118 21.328V24.032C19.3118 24.208 19.2664 24.3707 19.1758 24.52C19.0904 24.664 18.9731 24.7813 18.8238 24.872C18.6798 24.9573 18.5171 25 18.3358 25H15.5518ZM15.5518 24.344H18.3358C18.4211 24.344 18.4931 24.3147 18.5518 24.256C18.6158 24.192 18.6478 24.1173 18.6478 24.032V21.328C18.6478 21.2427 18.6158 21.1707 18.5518 21.112C18.4931 21.048 18.4211 21.016 18.3358 21.016H15.5518C15.4664 21.016 15.3918 21.048 15.3278 21.112C15.2691 21.1707 15.2398 21.2427 15.2398 21.328V24.032C15.2398 24.1173 15.2691 24.192 15.3278 24.256C15.3918 24.3147 15.4664 24.344 15.5518 24.344ZM20.8527 25V21.328C20.8527 21.152 20.8954 20.992 20.9807 20.848C21.0714 20.6987 21.1887 20.5813 21.3327 20.496C21.4821 20.4053 21.6447 20.36 21.8207 20.36H24.4287V21.016H21.8207C21.7354 21.016 21.6607 21.048 21.5967 21.112C21.5381 21.1707 21.5087 21.2427 21.5087 21.328V25H20.8527ZM26.7225 25C26.5411 25 26.3758 24.9573 26.2265 24.872C26.0825 24.7813 25.9678 24.664 25.8825 24.52C25.7971 24.3707 25.7545 24.208 25.7545 24.032V18.84H26.4105V20.36H28.4185V21.016H26.4105V24.032C26.4105 24.1173 26.4398 24.192 26.4985 24.256C26.5625 24.3147 26.6371 24.344 26.7225 24.344H28.4185V25H26.7225ZM30.7957 25C30.6197 25 30.4571 24.9573 30.3077 24.872C30.1637 24.7813 30.0464 24.664 29.9557 24.52C29.8704 24.3707 29.8277 24.208 29.8277 24.032V22.352H33.8917V21.328C33.8917 21.2427 33.8597 21.1707 33.7957 21.112C33.7371 21.048 33.6651 21.016 33.5797 21.016H29.8277V20.36H33.5797C33.7611 20.36 33.9237 20.4053 34.0677 20.496C34.2171 20.5813 34.3344 20.6987 34.4197 20.848C34.5104 20.992 34.5557 21.152 34.5557 21.328V25H30.7957ZM30.7957 24.344H33.8917V23.008H30.4837V24.032C30.4837 24.1173 30.5131 24.192 30.5717 24.256C30.6357 24.3147 30.7104 24.344 30.7957 24.344ZM37.0723 25C36.8963 25 36.7336 24.9573 36.5843 24.872C36.4403 24.7813 36.3229 24.664 36.2323 24.52C36.1469 24.3707 36.1043 24.208 36.1043 24.032V18.84H36.7603V24.032C36.7603 24.1173 36.7896 24.192 36.8483 24.256C36.9123 24.3147 36.9869 24.344 37.0723 24.344H37.8563V25H37.0723ZM43.306 25C43.1247 25 42.9594 24.9573 42.81 24.872C42.666 24.7813 42.5514 24.664 42.466 24.52C42.3807 24.3707 42.338 24.208 42.338 24.032V20.208C42.338 20.0267 42.3807 19.864 42.466 19.72C42.5514 19.5707 42.666 19.4533 42.81 19.368C42.9594 19.2773 43.1247 19.232 43.306 19.232H47.146V19.896H43.306C43.2207 19.896 43.146 19.928 43.082 19.992C43.0234 20.0507 42.994 20.1227 42.994 20.208V21.36C42.994 21.4453 43.0234 21.52 43.082 21.584C43.146 21.648 43.2207 21.68 43.306 21.68H47.186C47.362 21.68 47.522 21.7227 47.666 21.808C47.8154 21.8933 47.9327 22.0107 48.018 22.16C48.1087 22.304 48.154 22.4667 48.154 22.648V24.032C48.154 24.208 48.1087 24.3707 48.018 24.52C47.9327 24.664 47.8154 24.7813 47.666 24.872C47.522 24.9573 47.362 25 47.186 25H43.306ZM43.306 24.344H47.186C47.2714 24.344 47.3434 24.3147 47.402 24.256C47.466 24.192 47.498 24.1173 47.498 24.032V22.648C47.498 22.5627 47.466 22.4907 47.402 22.432C47.3434 22.368 47.2714 22.336 47.186 22.336H42.994V24.032C42.994 24.1173 43.0234 24.192 43.082 24.256C43.146 24.3147 43.2207 24.344 43.306 24.344Z" fill="#B9B29D"/>
</svg>
