<svg width="54" height="14" viewBox="0 0 54 14" fill="none" xmlns="http://www.w3.org/2000/svg">
<path d="M54 0.707031L51.707 3H2.29297L0 0.707031L0.707031 0L2.70703 2H51.293L53.293 0L54 0.707031Z" fill="#B9B29D"/>
<path d="M7.70622 12V7.36H13.8342C14.0156 7.36 14.1782 7.40533 14.3222 7.496C14.4716 7.58133 14.5889 7.69867 14.6742 7.848C14.7596 7.992 14.8022 8.152 14.8022 8.328V12H14.1542V8.328C14.1542 8.24267 14.1222 8.17067 14.0582 8.112C13.9942 8.048 13.9196 8.016 13.8342 8.016H11.9062C11.8209 8.016 11.7462 8.048 11.6822 8.112C11.6236 8.17067 11.5942 8.24267 11.5942 8.328V12H10.9302V8.328C10.9302 8.24267 10.8982 8.17067 10.8342 8.112C10.7756 8.048 10.7036 8.016 10.6182 8.016H8.68222C8.59689 8.016 8.52222 8.048 8.45822 8.112C8.39955 8.17067 8.37022 8.24267 8.37022 8.328V12H7.70622ZM17.2705 12C17.0945 12 16.9319 11.9573 16.7825 11.872C16.6385 11.7813 16.5212 11.664 16.4305 11.52C16.3452 11.3707 16.3025 11.208 16.3025 11.032V8.328C16.3025 8.152 16.3452 7.992 16.4305 7.848C16.5212 7.69867 16.6385 7.58133 16.7825 7.496C16.9319 7.40533 17.0945 7.36 17.2705 7.36H20.0545C20.2359 7.36 20.3985 7.40533 20.5425 7.496C20.6919 7.58133 20.8092 7.69867 20.8945 7.848C20.9852 7.992 21.0305 8.152 21.0305 8.328V11.032C21.0305 11.208 20.9852 11.3707 20.8945 11.52C20.8092 11.664 20.6919 11.7813 20.5425 11.872C20.3985 11.9573 20.2359 12 20.0545 12H17.2705ZM17.2705 11.344H20.0545C20.1399 11.344 20.2119 11.3147 20.2705 11.256C20.3345 11.192 20.3665 11.1173 20.3665 11.032V8.328C20.3665 8.24267 20.3345 8.17067 20.2705 8.112C20.2119 8.048 20.1399 8.016 20.0545 8.016H17.2705C17.1852 8.016 17.1105 8.048 17.0465 8.112C16.9879 8.17067 16.9585 8.24267 16.9585 8.328V11.032C16.9585 11.1173 16.9879 11.192 17.0465 11.256C17.1105 11.3147 17.1852 11.344 17.2705 11.344ZM22.5715 12V8.328C22.5715 8.152 22.6141 7.992 22.6995 7.848C22.7901 7.69867 22.9075 7.58133 23.0515 7.496C23.2008 7.40533 23.3635 7.36 23.5395 7.36H26.1475V8.016H23.5395C23.4541 8.016 23.3795 8.048 23.3155 8.112C23.2568 8.17067 23.2275 8.24267 23.2275 8.328V12H22.5715ZM28.4412 12C28.2599 12 28.0946 11.9573 27.9452 11.872C27.8012 11.7813 27.6866 11.664 27.6012 11.52C27.5159 11.3707 27.4732 11.208 27.4732 11.032V5.84H28.1292V7.36H30.1372V8.016H28.1292V11.032C28.1292 11.1173 28.1586 11.192 28.2172 11.256C28.2812 11.3147 28.3559 11.344 28.4412 11.344H30.1372V12H28.4412ZM32.5145 12C32.3385 12 32.1758 11.9573 32.0265 11.872C31.8825 11.7813 31.7651 11.664 31.6745 11.52C31.5891 11.3707 31.5465 11.208 31.5465 11.032V9.352H35.6105V8.328C35.6105 8.24267 35.5785 8.17067 35.5145 8.112C35.4558 8.048 35.3838 8.016 35.2985 8.016H31.5465V7.36H35.2985C35.4798 7.36 35.6425 7.40533 35.7865 7.496C35.9358 7.58133 36.0531 7.69867 36.1385 7.848C36.2291 7.992 36.2745 8.152 36.2745 8.328V12H32.5145ZM32.5145 11.344H35.6105V10.008H32.2025V11.032C32.2025 11.1173 32.2318 11.192 32.2905 11.256C32.3545 11.3147 32.4291 11.344 32.5145 11.344ZM38.791 12C38.615 12 38.4524 11.9573 38.303 11.872C38.159 11.7813 38.0417 11.664 37.951 11.52C37.8657 11.3707 37.823 11.208 37.823 11.032V5.84H38.479V11.032C38.479 11.1173 38.5084 11.192 38.567 11.256C38.631 11.3147 38.7057 11.344 38.791 11.344H39.575V12H38.791ZM45.3528 12V6.976L44.4648 8.04H43.6088L45.1208 6.24H46.0168V12H45.3528Z" fill="#B9B29D"/>
</svg>
