<svg width="54" height="14" viewBox="0 0 54 14" fill="none" xmlns="http://www.w3.org/2000/svg">
<path d="M54 0.707031L51.707 3H2.29297L0 0.707031L0.707031 0L2.70703 2H51.293L53.293 0L54 0.707031Z" fill="#B9B29D"/>
<path d="M17.702 12C17.526 12 17.3633 11.9573 17.214 11.872C17.07 11.7813 16.9526 11.664 16.862 11.52C16.7766 11.3707 16.734 11.208 16.734 11.032V5.84H17.39V11.032C17.39 11.1173 17.4193 11.192 17.478 11.256C17.542 11.3147 17.6166 11.344 17.702 11.344H18.486V12H17.702ZM19.948 12V7.36H20.604V12H19.948ZM19.948 6.496V5.84H20.604V6.496H19.948ZM23.1801 13.832V13.168H26.0761C26.1614 13.168 26.2334 13.136 26.2921 13.072C26.3561 13.0133 26.3881 12.9413 26.3881 12.856V12H23.2921C23.1161 12 22.9534 11.9573 22.8041 11.872C22.6601 11.7813 22.5428 11.664 22.4521 11.52C22.3668 11.3707 22.3241 11.208 22.3241 11.032V8.328C22.3241 8.152 22.3668 7.992 22.4521 7.848C22.5428 7.69867 22.6601 7.58133 22.8041 7.496C22.9534 7.40533 23.1161 7.36 23.2921 7.36H26.0761C26.2574 7.36 26.4201 7.40533 26.5641 7.496C26.7134 7.58133 26.8308 7.69867 26.9161 7.848C27.0014 7.992 27.0441 8.152 27.0441 8.328V12.856C27.0441 13.0373 27.0014 13.2 26.9161 13.344C26.8308 13.4933 26.7134 13.6107 26.5641 13.696C26.4201 13.7867 26.2574 13.832 26.0761 13.832H23.1801ZM23.2921 11.344H26.0761C26.1614 11.344 26.2334 11.3147 26.2921 11.256C26.3561 11.192 26.3881 11.1173 26.3881 11.032V8.328C26.3881 8.24267 26.3561 8.17067 26.2921 8.112C26.2334 8.048 26.1614 8.016 26.0761 8.016H23.2921C23.2068 8.016 23.1321 8.048 23.0681 8.112C23.0094 8.17067 22.9801 8.24267 22.9801 8.328V11.032C22.9801 11.1173 23.0094 11.192 23.0681 11.256C23.1321 11.3147 23.2068 11.344 23.2921 11.344ZM28.689 12V5.84H29.345V7.36H32.449C32.625 7.36 32.785 7.40533 32.929 7.496C33.0784 7.58133 33.1957 7.69867 33.281 7.848C33.3717 7.992 33.417 8.152 33.417 8.328V12H32.761V8.328C32.761 8.24267 32.729 8.17067 32.665 8.112C32.6064 8.048 32.5344 8.016 32.449 8.016H29.665C29.5797 8.016 29.505 8.048 29.441 8.112C29.377 8.17067 29.345 8.24267 29.345 8.328V12H28.689ZM35.7928 12C35.6114 12 35.4461 11.9573 35.2968 11.872C35.1528 11.7813 35.0381 11.664 34.9528 11.52C34.8674 11.3707 34.8248 11.208 34.8248 11.032V5.84H35.4808V7.36H37.4888V8.016H35.4808V11.032C35.4808 11.1173 35.5101 11.192 35.5688 11.256C35.6328 11.3147 35.7074 11.344 35.7928 11.344H37.4888V12H35.7928Z" fill="#B9B29D"/>
</svg>
