<svg width="54" height="26" viewBox="0 0 54 26" fill="none" xmlns="http://www.w3.org/2000/svg">
<path d="M54 13.707L51.707 16H2.29297L0 13.707L0.707031 13L2.70703 15H51.293L53.293 13L54 13.707Z" fill="#B9B29D"/>
<path d="M6.34684 25V20.36H12.4748C12.6562 20.36 12.8188 20.4053 12.9628 20.496C13.1122 20.5813 13.2295 20.6987 13.3148 20.848C13.4002 20.992 13.4428 21.152 13.4428 21.328V25H12.7948V21.328C12.7948 21.2427 12.7628 21.1707 12.6988 21.112C12.6348 21.048 12.5602 21.016 12.4748 21.016H10.5468C10.4615 21.016 10.3868 21.048 10.3228 21.112C10.2642 21.1707 10.2348 21.2427 10.2348 21.328V25H9.57084V21.328C9.57084 21.2427 9.53884 21.1707 9.47484 21.112C9.41618 21.048 9.34418 21.016 9.25884 21.016H7.32284C7.23751 21.016 7.16284 21.048 7.09884 21.112C7.04018 21.1707 7.01084 21.2427 7.01084 21.328V25H6.34684ZM15.9112 25C15.7352 25 15.5725 24.9573 15.4232 24.872C15.2792 24.7813 15.1618 24.664 15.0712 24.52C14.9858 24.3707 14.9432 24.208 14.9432 24.032V21.328C14.9432 21.152 14.9858 20.992 15.0712 20.848C15.1618 20.6987 15.2792 20.5813 15.4232 20.496C15.5725 20.4053 15.7352 20.36 15.9112 20.36H18.6952C18.8765 20.36 19.0392 20.4053 19.1832 20.496C19.3325 20.5813 19.4498 20.6987 19.5352 20.848C19.6258 20.992 19.6712 21.152 19.6712 21.328V24.032C19.6712 24.208 19.6258 24.3707 19.5352 24.52C19.4498 24.664 19.3325 24.7813 19.1832 24.872C19.0392 24.9573 18.8765 25 18.6952 25H15.9112ZM15.9112 24.344H18.6952C18.7805 24.344 18.8525 24.3147 18.9112 24.256C18.9752 24.192 19.0072 24.1173 19.0072 24.032V21.328C19.0072 21.2427 18.9752 21.1707 18.9112 21.112C18.8525 21.048 18.7805 21.016 18.6952 21.016H15.9112C15.8258 21.016 15.7512 21.048 15.6872 21.112C15.6285 21.1707 15.5992 21.2427 15.5992 21.328V24.032C15.5992 24.1173 15.6285 24.192 15.6872 24.256C15.7512 24.3147 15.8258 24.344 15.9112 24.344ZM21.2121 25V21.328C21.2121 21.152 21.2548 20.992 21.3401 20.848C21.4308 20.6987 21.5481 20.5813 21.6921 20.496C21.8414 20.4053 22.0041 20.36 22.1801 20.36H24.7881V21.016H22.1801C22.0948 21.016 22.0201 21.048 21.9561 21.112C21.8974 21.1707 21.8681 21.2427 21.8681 21.328V25H21.2121ZM27.0818 25C26.9005 25 26.7352 24.9573 26.5858 24.872C26.4418 24.7813 26.3272 24.664 26.2418 24.52C26.1565 24.3707 26.1138 24.208 26.1138 24.032V18.84H26.7698V20.36H28.7778V21.016H26.7698V24.032C26.7698 24.1173 26.7992 24.192 26.8578 24.256C26.9218 24.3147 26.9965 24.344 27.0818 24.344H28.7778V25H27.0818ZM31.1551 25C30.9791 25 30.8164 24.9573 30.6671 24.872C30.5231 24.7813 30.4058 24.664 30.3151 24.52C30.2298 24.3707 30.1871 24.208 30.1871 24.032V22.352H34.2511V21.328C34.2511 21.2427 34.2191 21.1707 34.1551 21.112C34.0964 21.048 34.0244 21.016 33.9391 21.016H30.1871V20.36H33.9391C34.1204 20.36 34.2831 20.4053 34.4271 20.496C34.5764 20.5813 34.6938 20.6987 34.7791 20.848C34.8698 20.992 34.9151 21.152 34.9151 21.328V25H31.1551ZM31.1551 24.344H34.2511V23.008H30.8431V24.032C30.8431 24.1173 30.8724 24.192 30.9311 24.256C30.9951 24.3147 31.0698 24.344 31.1551 24.344ZM37.4317 25C37.2557 25 37.093 24.9573 36.9437 24.872C36.7997 24.7813 36.6823 24.664 36.5917 24.52C36.5063 24.3707 36.4637 24.208 36.4637 24.032V18.84H37.1197V24.032C37.1197 24.1173 37.149 24.192 37.2077 24.256C37.2717 24.3147 37.3463 24.344 37.4317 24.344H38.2157V25H37.4317ZM46.3054 25V23.512H42.2894V22.776L46.2254 19.232H46.9614V22.856H47.8574V23.512H46.9614V25H46.3054ZM43.1294 22.856H46.3054V20.12L43.1294 22.856Z" fill="#B9B29D"/>
</svg>
