<svg width="54" height="26" viewBox="0 0 54 26" fill="none" xmlns="http://www.w3.org/2000/svg">
<path d="M54 13.707L51.707 16H2.29297L0 13.707L0.707031 13L2.70703 15H51.293L53.293 13L54 13.707Z" fill="#B9B29D"/>
<path d="M5.94841 25V20.36H12.0764C12.2577 20.36 12.4204 20.4053 12.5644 20.496C12.7137 20.5813 12.8311 20.6987 12.9164 20.848C13.0017 20.992 13.0444 21.152 13.0444 21.328V25H12.3964V21.328C12.3964 21.2427 12.3644 21.1707 12.3004 21.112C12.2364 21.048 12.1617 21.016 12.0764 21.016H10.1484C10.0631 21.016 9.98841 21.048 9.92441 21.112C9.86574 21.1707 9.83641 21.2427 9.83641 21.328V25H9.17241V21.328C9.17241 21.2427 9.14041 21.1707 9.07641 21.112C9.01774 21.048 8.94574 21.016 8.86041 21.016H6.92441C6.83907 21.016 6.76441 21.048 6.70041 21.112C6.64174 21.1707 6.61241 21.2427 6.61241 21.328V25H5.94841ZM15.5127 25C15.3367 25 15.1741 24.9573 15.0247 24.872C14.8807 24.7813 14.7634 24.664 14.6727 24.52C14.5874 24.3707 14.5447 24.208 14.5447 24.032V21.328C14.5447 21.152 14.5874 20.992 14.6727 20.848C14.7634 20.6987 14.8807 20.5813 15.0247 20.496C15.1741 20.4053 15.3367 20.36 15.5127 20.36H18.2967C18.4781 20.36 18.6407 20.4053 18.7847 20.496C18.9341 20.5813 19.0514 20.6987 19.1367 20.848C19.2274 20.992 19.2727 21.152 19.2727 21.328V24.032C19.2727 24.208 19.2274 24.3707 19.1367 24.52C19.0514 24.664 18.9341 24.7813 18.7847 24.872C18.6407 24.9573 18.4781 25 18.2967 25H15.5127ZM15.5127 24.344H18.2967C18.3821 24.344 18.4541 24.3147 18.5127 24.256C18.5767 24.192 18.6087 24.1173 18.6087 24.032V21.328C18.6087 21.2427 18.5767 21.1707 18.5127 21.112C18.4541 21.048 18.3821 21.016 18.2967 21.016H15.5127C15.4274 21.016 15.3527 21.048 15.2887 21.112C15.2301 21.1707 15.2007 21.2427 15.2007 21.328V24.032C15.2007 24.1173 15.2301 24.192 15.2887 24.256C15.3527 24.3147 15.4274 24.344 15.5127 24.344ZM20.8137 25V21.328C20.8137 21.152 20.8563 20.992 20.9417 20.848C21.0323 20.6987 21.1497 20.5813 21.2937 20.496C21.443 20.4053 21.6057 20.36 21.7817 20.36H24.3897V21.016H21.7817C21.6963 21.016 21.6217 21.048 21.5577 21.112C21.499 21.1707 21.4697 21.2427 21.4697 21.328V25H20.8137ZM26.6834 25C26.5021 25 26.3367 24.9573 26.1874 24.872C26.0434 24.7813 25.9287 24.664 25.8434 24.52C25.7581 24.3707 25.7154 24.208 25.7154 24.032V18.84H26.3714V20.36H28.3794V21.016H26.3714V24.032C26.3714 24.1173 26.4007 24.192 26.4594 24.256C26.5234 24.3147 26.5981 24.344 26.6834 24.344H28.3794V25H26.6834ZM30.7567 25C30.5807 25 30.418 24.9573 30.2687 24.872C30.1247 24.7813 30.0073 24.664 29.9167 24.52C29.8313 24.3707 29.7887 24.208 29.7887 24.032V22.352H33.8527V21.328C33.8527 21.2427 33.8207 21.1707 33.7567 21.112C33.698 21.048 33.626 21.016 33.5407 21.016H29.7887V20.36H33.5407C33.722 20.36 33.8847 20.4053 34.0287 20.496C34.178 20.5813 34.2953 20.6987 34.3807 20.848C34.4713 20.992 34.5167 21.152 34.5167 21.328V25H30.7567ZM30.7567 24.344H33.8527V23.008H30.4447V24.032C30.4447 24.1173 30.474 24.192 30.5327 24.256C30.5967 24.3147 30.6713 24.344 30.7567 24.344ZM37.0332 25C36.8572 25 36.6946 24.9573 36.5452 24.872C36.4012 24.7813 36.2839 24.664 36.1932 24.52C36.1079 24.3707 36.0652 24.208 36.0652 24.032V18.84H36.7212V24.032C36.7212 24.1173 36.7506 24.192 36.8092 24.256C36.8732 24.3147 36.9479 24.344 37.0332 24.344H37.8172V25H37.0332ZM42.299 25V22.84C42.299 22.6587 42.3416 22.496 42.427 22.352C42.5123 22.2027 42.627 22.0853 42.771 22C42.9203 21.9147 43.0856 21.872 43.267 21.872H47.147C47.2323 21.872 47.3043 21.8427 47.363 21.784C47.427 21.72 47.459 21.6453 47.459 21.56V20.208C47.459 20.1227 47.427 20.0507 47.363 19.992C47.3043 19.928 47.2323 19.896 47.147 19.896H43.267C43.1816 19.896 43.107 19.928 43.043 19.992C42.9843 20.0507 42.955 20.1227 42.955 20.208V20.432H42.299V20.208C42.299 20.0267 42.3416 19.864 42.427 19.72C42.5123 19.5707 42.627 19.4533 42.771 19.368C42.9203 19.2773 43.0856 19.232 43.267 19.232H47.147C47.323 19.232 47.483 19.2773 47.627 19.368C47.7763 19.4533 47.8936 19.5707 47.979 19.72C48.0696 19.864 48.115 20.0267 48.115 20.208V21.56C48.115 21.736 48.0696 21.8987 47.979 22.048C47.8936 22.192 47.7763 22.3093 47.627 22.4C47.483 22.4853 47.323 22.528 47.147 22.528H43.267C43.1816 22.528 43.107 22.56 43.043 22.624C42.9843 22.6827 42.955 22.7547 42.955 22.84V24.032C42.955 24.1173 42.9843 24.192 43.043 24.256C43.107 24.3147 43.1816 24.344 43.267 24.344H48.115V25H42.299Z" fill="#B9B29D"/>
</svg>
