<svg width="54" height="26" viewBox="0 0 54 26" fill="none" xmlns="http://www.w3.org/2000/svg">
<path d="M54 13.707L51.707 16H2.29297L0 13.707L0.707031 13L2.70703 15H51.293L53.293 13L54 13.707Z" fill="#B9B29D"/>
<path d="M5.93278 25V20.36H12.0608C12.2421 20.36 12.4048 20.4053 12.5488 20.496C12.6981 20.5813 12.8154 20.6987 12.9008 20.848C12.9861 20.992 13.0288 21.152 13.0288 21.328V25H12.3808V21.328C12.3808 21.2427 12.3488 21.1707 12.2848 21.112C12.2208 21.048 12.1461 21.016 12.0608 21.016H10.1328C10.0474 21.016 9.97278 21.048 9.90878 21.112C9.85012 21.1707 9.82078 21.2427 9.82078 21.328V25H9.15678V21.328C9.15678 21.2427 9.12478 21.1707 9.06078 21.112C9.00212 21.048 8.93012 21.016 8.84478 21.016H6.90878C6.82345 21.016 6.74878 21.048 6.68478 21.112C6.62612 21.1707 6.59678 21.2427 6.59678 21.328V25H5.93278ZM15.4971 25C15.3211 25 15.1584 24.9573 15.0091 24.872C14.8651 24.7813 14.7478 24.664 14.6571 24.52C14.5718 24.3707 14.5291 24.208 14.5291 24.032V21.328C14.5291 21.152 14.5718 20.992 14.6571 20.848C14.7478 20.6987 14.8651 20.5813 15.0091 20.496C15.1584 20.4053 15.3211 20.36 15.4971 20.36H18.2811C18.4624 20.36 18.6251 20.4053 18.7691 20.496C18.9184 20.5813 19.0358 20.6987 19.1211 20.848C19.2118 20.992 19.2571 21.152 19.2571 21.328V24.032C19.2571 24.208 19.2118 24.3707 19.1211 24.52C19.0358 24.664 18.9184 24.7813 18.7691 24.872C18.6251 24.9573 18.4624 25 18.2811 25H15.4971ZM15.4971 24.344H18.2811C18.3664 24.344 18.4384 24.3147 18.4971 24.256C18.5611 24.192 18.5931 24.1173 18.5931 24.032V21.328C18.5931 21.2427 18.5611 21.1707 18.4971 21.112C18.4384 21.048 18.3664 21.016 18.2811 21.016H15.4971C15.4118 21.016 15.3371 21.048 15.2731 21.112C15.2144 21.1707 15.1851 21.2427 15.1851 21.328V24.032C15.1851 24.1173 15.2144 24.192 15.2731 24.256C15.3371 24.3147 15.4118 24.344 15.4971 24.344ZM20.798 25V21.328C20.798 21.152 20.8407 20.992 20.926 20.848C21.0167 20.6987 21.134 20.5813 21.278 20.496C21.4274 20.4053 21.59 20.36 21.766 20.36H24.374V21.016H21.766C21.6807 21.016 21.606 21.048 21.542 21.112C21.4834 21.1707 21.454 21.2427 21.454 21.328V25H20.798ZM26.6678 25C26.4864 25 26.3211 24.9573 26.1718 24.872C26.0278 24.7813 25.9131 24.664 25.8278 24.52C25.7424 24.3707 25.6998 24.208 25.6998 24.032V18.84H26.3558V20.36H28.3638V21.016H26.3558V24.032C26.3558 24.1173 26.3851 24.192 26.4438 24.256C26.5078 24.3147 26.5824 24.344 26.6678 24.344H28.3638V25H26.6678ZM30.741 25C30.565 25 30.4024 24.9573 30.253 24.872C30.109 24.7813 29.9917 24.664 29.901 24.52C29.8157 24.3707 29.773 24.208 29.773 24.032V22.352H33.837V21.328C33.837 21.2427 33.805 21.1707 33.741 21.112C33.6824 21.048 33.6104 21.016 33.525 21.016H29.773V20.36H33.525C33.7064 20.36 33.869 20.4053 34.013 20.496C34.1624 20.5813 34.2797 20.6987 34.365 20.848C34.4557 20.992 34.501 21.152 34.501 21.328V25H30.741ZM30.741 24.344H33.837V23.008H30.429V24.032C30.429 24.1173 30.4584 24.192 30.517 24.256C30.581 24.3147 30.6557 24.344 30.741 24.344ZM37.0176 25C36.8416 25 36.6789 24.9573 36.5296 24.872C36.3856 24.7813 36.2683 24.664 36.1776 24.52C36.0923 24.3707 36.0496 24.208 36.0496 24.032V18.84H36.7056V24.032C36.7056 24.1173 36.7349 24.192 36.7936 24.256C36.8576 24.3147 36.9323 24.344 37.0176 24.344H37.8016V25H37.0176ZM43.2513 25C43.07 25 42.9047 24.9573 42.7553 24.872C42.6113 24.7813 42.4967 24.664 42.4113 24.52C42.326 24.3707 42.2833 24.208 42.2833 24.032V20.216C42.2833 20.0347 42.326 19.872 42.4113 19.728C42.4967 19.5787 42.6113 19.4613 42.7553 19.376C42.9047 19.2853 43.07 19.24 43.2513 19.24H47.1313C47.3073 19.24 47.4673 19.2853 47.6113 19.376C47.7607 19.4613 47.878 19.5787 47.9633 19.728C48.054 19.872 48.0993 20.0347 48.0993 20.216V24.032C48.0993 24.208 48.054 24.3707 47.9633 24.52C47.878 24.664 47.7607 24.7813 47.6113 24.872C47.4673 24.9573 47.3073 25 47.1313 25H43.2513ZM43.0193 24.344H47.1313C47.2167 24.344 47.2887 24.3147 47.3473 24.256C47.4113 24.192 47.4433 24.1173 47.4433 24.032V20.696L43.0193 24.344ZM42.9393 23.552L47.3553 19.904H43.2513C43.166 19.904 43.0913 19.936 43.0273 20C42.9687 20.0587 42.9393 20.1307 42.9393 20.216V23.552Z" fill="#B9B29D"/>
</svg>
