<svg width="54" height="14" viewBox="0 0 54 14" fill="none" xmlns="http://www.w3.org/2000/svg">
<path d="M54 0.707031L51.707 3H2.29297L0 0.707031L0.707031 0L2.70703 2H51.293L53.293 0L54 0.707031Z" fill="#B60F3C"/>
<path d="M5.93278 12V7.36H12.0608C12.2421 7.36 12.4048 7.40533 12.5488 7.496C12.6981 7.58133 12.8154 7.69867 12.9008 7.848C12.9861 7.992 13.0288 8.152 13.0288 8.328V12H12.3808V8.328C12.3808 8.24267 12.3488 8.17067 12.2848 8.112C12.2208 8.048 12.1461 8.016 12.0608 8.016H10.1328C10.0474 8.016 9.97278 8.048 9.90878 8.112C9.85012 8.17067 9.82078 8.24267 9.82078 8.328V12H9.15678V8.328C9.15678 8.24267 9.12478 8.17067 9.06078 8.112C9.00212 8.048 8.93012 8.016 8.84478 8.016H6.90878C6.82345 8.016 6.74878 8.048 6.68478 8.112C6.62612 8.17067 6.59678 8.24267 6.59678 8.328V12H5.93278ZM15.4971 12C15.3211 12 15.1584 11.9573 15.0091 11.872C14.8651 11.7813 14.7478 11.664 14.6571 11.52C14.5718 11.3707 14.5291 11.208 14.5291 11.032V8.328C14.5291 8.152 14.5718 7.992 14.6571 7.848C14.7478 7.69867 14.8651 7.58133 15.0091 7.496C15.1584 7.40533 15.3211 7.36 15.4971 7.36H18.2811C18.4624 7.36 18.6251 7.40533 18.7691 7.496C18.9184 7.58133 19.0358 7.69867 19.1211 7.848C19.2118 7.992 19.2571 8.152 19.2571 8.328V11.032C19.2571 11.208 19.2118 11.3707 19.1211 11.52C19.0358 11.664 18.9184 11.7813 18.7691 11.872C18.6251 11.9573 18.4624 12 18.2811 12H15.4971ZM15.4971 11.344H18.2811C18.3664 11.344 18.4384 11.3147 18.4971 11.256C18.5611 11.192 18.5931 11.1173 18.5931 11.032V8.328C18.5931 8.24267 18.5611 8.17067 18.4971 8.112C18.4384 8.048 18.3664 8.016 18.2811 8.016H15.4971C15.4118 8.016 15.3371 8.048 15.2731 8.112C15.2144 8.17067 15.1851 8.24267 15.1851 8.328V11.032C15.1851 11.1173 15.2144 11.192 15.2731 11.256C15.3371 11.3147 15.4118 11.344 15.4971 11.344ZM20.798 12V8.328C20.798 8.152 20.8407 7.992 20.926 7.848C21.0167 7.69867 21.134 7.58133 21.278 7.496C21.4274 7.40533 21.59 7.36 21.766 7.36H24.374V8.016H21.766C21.6807 8.016 21.606 8.048 21.542 8.112C21.4834 8.17067 21.454 8.24267 21.454 8.328V12H20.798ZM26.6678 12C26.4864 12 26.3211 11.9573 26.1718 11.872C26.0278 11.7813 25.9131 11.664 25.8278 11.52C25.7424 11.3707 25.6998 11.208 25.6998 11.032V5.84H26.3558V7.36H28.3638V8.016H26.3558V11.032C26.3558 11.1173 26.3851 11.192 26.4438 11.256C26.5078 11.3147 26.5824 11.344 26.6678 11.344H28.3638V12H26.6678ZM30.741 12C30.565 12 30.4024 11.9573 30.253 11.872C30.109 11.7813 29.9917 11.664 29.901 11.52C29.8157 11.3707 29.773 11.208 29.773 11.032V9.352H33.837V8.328C33.837 8.24267 33.805 8.17067 33.741 8.112C33.6824 8.048 33.6104 8.016 33.525 8.016H29.773V7.36H33.525C33.7064 7.36 33.869 7.40533 34.013 7.496C34.1624 7.58133 34.2797 7.69867 34.365 7.848C34.4557 7.992 34.501 8.152 34.501 8.328V12H30.741ZM30.741 11.344H33.837V10.008H30.429V11.032C30.429 11.1173 30.4584 11.192 30.517 11.256C30.581 11.3147 30.6557 11.344 30.741 11.344ZM37.0176 12C36.8416 12 36.6789 11.9573 36.5296 11.872C36.3856 11.7813 36.2683 11.664 36.1776 11.52C36.0923 11.3707 36.0496 11.208 36.0496 11.032V5.84H36.7056V11.032C36.7056 11.1173 36.7349 11.192 36.7936 11.256C36.8576 11.3147 36.9323 11.344 37.0176 11.344H37.8016V12H37.0176ZM43.2513 12C43.07 12 42.9047 11.9573 42.7553 11.872C42.6113 11.7813 42.4967 11.664 42.4113 11.52C42.326 11.3707 42.2833 11.208 42.2833 11.032V7.216C42.2833 7.03467 42.326 6.872 42.4113 6.728C42.4967 6.57867 42.6113 6.46133 42.7553 6.376C42.9047 6.28533 43.07 6.24 43.2513 6.24H47.1313C47.3073 6.24 47.4673 6.28533 47.6113 6.376C47.7607 6.46133 47.878 6.57867 47.9633 6.728C48.054 6.872 48.0993 7.03467 48.0993 7.216V11.032C48.0993 11.208 48.054 11.3707 47.9633 11.52C47.878 11.664 47.7607 11.7813 47.6113 11.872C47.4673 11.9573 47.3073 12 47.1313 12H43.2513ZM43.0193 11.344H47.1313C47.2167 11.344 47.2887 11.3147 47.3473 11.256C47.4113 11.192 47.4433 11.1173 47.4433 11.032V7.696L43.0193 11.344ZM42.9393 10.552L47.3553 6.904H43.2513C43.166 6.904 43.0913 6.936 43.0273 7C42.9687 7.05867 42.9393 7.13067 42.9393 7.216V10.552Z" fill="#B60F3C"/>
</svg>
