<svg width="54" height="14" viewBox="0 0 54 14" fill="none" xmlns="http://www.w3.org/2000/svg">
<path d="M54 0.707031L51.707 3H2.29297L0 0.707031L0.707031 0L2.70703 2H51.293L53.293 0L54 0.707031Z" fill="#B9B29D"/>
<path d="M5.96403 12V7.36H12.092C12.2734 7.36 12.436 7.40533 12.58 7.496C12.7294 7.58133 12.8467 7.69867 12.932 7.848C13.0174 7.992 13.06 8.152 13.06 8.328V12H12.412V8.328C12.412 8.24267 12.38 8.17067 12.316 8.112C12.252 8.048 12.1774 8.016 12.092 8.016H10.164C10.0787 8.016 10.004 8.048 9.94003 8.112C9.88137 8.17067 9.85203 8.24267 9.85203 8.328V12H9.18803V8.328C9.18803 8.24267 9.15603 8.17067 9.09203 8.112C9.03337 8.048 8.96137 8.016 8.87603 8.016H6.94003C6.8547 8.016 6.78003 8.048 6.71603 8.112C6.65737 8.17067 6.62803 8.24267 6.62803 8.328V12H5.96403ZM15.5283 12C15.3523 12 15.1897 11.9573 15.0403 11.872C14.8963 11.7813 14.779 11.664 14.6883 11.52C14.603 11.3707 14.5603 11.208 14.5603 11.032V8.328C14.5603 8.152 14.603 7.992 14.6883 7.848C14.779 7.69867 14.8963 7.58133 15.0403 7.496C15.1897 7.40533 15.3523 7.36 15.5283 7.36H18.3123C18.4937 7.36 18.6563 7.40533 18.8003 7.496C18.9497 7.58133 19.067 7.69867 19.1523 7.848C19.243 7.992 19.2883 8.152 19.2883 8.328V11.032C19.2883 11.208 19.243 11.3707 19.1523 11.52C19.067 11.664 18.9497 11.7813 18.8003 11.872C18.6563 11.9573 18.4937 12 18.3123 12H15.5283ZM15.5283 11.344H18.3123C18.3977 11.344 18.4697 11.3147 18.5283 11.256C18.5923 11.192 18.6243 11.1173 18.6243 11.032V8.328C18.6243 8.24267 18.5923 8.17067 18.5283 8.112C18.4697 8.048 18.3977 8.016 18.3123 8.016H15.5283C15.443 8.016 15.3683 8.048 15.3043 8.112C15.2457 8.17067 15.2163 8.24267 15.2163 8.328V11.032C15.2163 11.1173 15.2457 11.192 15.3043 11.256C15.3683 11.3147 15.443 11.344 15.5283 11.344ZM20.8293 12V8.328C20.8293 8.152 20.8719 7.992 20.9573 7.848C21.0479 7.69867 21.1653 7.58133 21.3093 7.496C21.4586 7.40533 21.6213 7.36 21.7973 7.36H24.4053V8.016H21.7973C21.7119 8.016 21.6373 8.048 21.5733 8.112C21.5146 8.17067 21.4853 8.24267 21.4853 8.328V12H20.8293ZM26.699 12C26.5177 12 26.3524 11.9573 26.203 11.872C26.059 11.7813 25.9444 11.664 25.859 11.52C25.7737 11.3707 25.731 11.208 25.731 11.032V5.84H26.387V7.36H28.395V8.016H26.387V11.032C26.387 11.1173 26.4164 11.192 26.475 11.256C26.539 11.3147 26.6137 11.344 26.699 11.344H28.395V12H26.699ZM30.7723 12C30.5963 12 30.4336 11.9573 30.2843 11.872C30.1403 11.7813 30.0229 11.664 29.9323 11.52C29.8469 11.3707 29.8043 11.208 29.8043 11.032V9.352H33.8683V8.328C33.8683 8.24267 33.8363 8.17067 33.7723 8.112C33.7136 8.048 33.6416 8.016 33.5563 8.016H29.8043V7.36H33.5563C33.7376 7.36 33.9003 7.40533 34.0443 7.496C34.1936 7.58133 34.3109 7.69867 34.3963 7.848C34.4869 7.992 34.5323 8.152 34.5323 8.328V12H30.7723ZM30.7723 11.344H33.8683V10.008H30.4603V11.032C30.4603 11.1173 30.4896 11.192 30.5483 11.256C30.6123 11.3147 30.6869 11.344 30.7723 11.344ZM37.0488 12C36.8728 12 36.7102 11.9573 36.5608 11.872C36.4168 11.7813 36.2995 11.664 36.2088 11.52C36.1235 11.3707 36.0808 11.208 36.0808 11.032V5.84H36.7368V11.032C36.7368 11.1173 36.7662 11.192 36.8248 11.256C36.8888 11.3147 36.9635 11.344 37.0488 11.344H37.8328V12H37.0488ZM43.2586 12C43.0773 12 42.9119 11.9573 42.7626 11.872C42.6186 11.7813 42.5013 11.664 42.4106 11.52C42.3253 11.3707 42.2826 11.208 42.2826 11.032V10.904H42.9466V11.032C42.9466 11.1173 42.9759 11.192 43.0346 11.256C43.0986 11.3147 43.1733 11.344 43.2586 11.344H47.1386C47.2239 11.344 47.2959 11.3147 47.3546 11.256C47.4186 11.192 47.4506 11.1173 47.4506 11.032V9.696C47.4506 9.61067 47.4186 9.53867 47.3546 9.48C47.2959 9.416 47.2239 9.384 47.1386 9.384H43.3866V8.728H46.8826C46.9679 8.728 47.0399 8.69867 47.0986 8.64C47.1626 8.576 47.1946 8.50133 47.1946 8.416V7.208C47.1946 7.12267 47.1626 7.05067 47.0986 6.992C47.0399 6.928 46.9679 6.896 46.8826 6.896H43.2586C43.1733 6.896 43.0986 6.928 43.0346 6.992C42.9759 7.05067 42.9466 7.12267 42.9466 7.208V7.416H42.2826V7.208C42.2826 7.02667 42.3253 6.864 42.4106 6.72C42.5013 6.57067 42.6186 6.45333 42.7626 6.368C42.9119 6.27733 43.0773 6.232 43.2586 6.232H46.8826C47.0639 6.232 47.2266 6.27733 47.3706 6.368C47.5199 6.45333 47.6373 6.57067 47.7226 6.72C47.8079 6.864 47.8506 7.02667 47.8506 7.208V8.416C47.8506 8.49067 47.8399 8.56533 47.8186 8.64C47.8026 8.70933 47.7813 8.77333 47.7546 8.832C47.8879 8.96 47.9786 9.10133 48.0266 9.256C48.0799 9.41067 48.1066 9.55733 48.1066 9.696V11.032C48.1066 11.208 48.0613 11.3707 47.9706 11.52C47.8853 11.664 47.7679 11.7813 47.6186 11.872C47.4746 11.9573 47.3146 12 47.1386 12H43.2586Z" fill="#B9B29D"/>
</svg>
