<svg width="54" height="14" viewBox="0 0 54 14" fill="none" xmlns="http://www.w3.org/2000/svg">
<path d="M54 0.707031L51.707 3H2.29297L0 0.707031L0.707031 0L2.70703 2H51.293L53.293 0L54 0.707031Z" fill="#B60F3C"/>
<path d="M9.49888 12C9.32288 12 9.16021 11.9573 9.01088 11.872C8.86688 11.7813 8.74954 11.664 8.65888 11.52C8.57354 11.3707 8.53088 11.208 8.53088 11.032V10.968H9.18688V11.032C9.18688 11.1173 9.21621 11.192 9.27488 11.256C9.33888 11.3147 9.41354 11.344 9.49888 11.344H12.2829C12.3682 11.344 12.4402 11.3147 12.4989 11.256C12.5629 11.192 12.5949 11.1173 12.5949 11.032V10.32C12.5949 10.2347 12.5629 10.1627 12.4989 10.104C12.4402 10.04 12.3682 10.008 12.2829 10.008H9.49888C9.32288 10.008 9.16021 9.96533 9.01088 9.88C8.86688 9.78933 8.74954 9.672 8.65888 9.528C8.57354 9.37867 8.53088 9.216 8.53088 9.04V8.328C8.53088 8.152 8.57354 7.992 8.65888 7.848C8.74954 7.69867 8.86688 7.58133 9.01088 7.496C9.16021 7.40533 9.32288 7.36 9.49888 7.36H12.2829C12.4642 7.36 12.6269 7.40533 12.7709 7.496C12.9202 7.58133 13.0375 7.69867 13.1229 7.848C13.2135 7.992 13.2589 8.152 13.2589 8.328V8.392H12.5949V8.328C12.5949 8.24267 12.5629 8.17067 12.4989 8.112C12.4402 8.048 12.3682 8.016 12.2829 8.016H9.49888C9.41354 8.016 9.33888 8.048 9.27488 8.112C9.21621 8.17067 9.18688 8.24267 9.18688 8.328V9.04C9.18688 9.12533 9.21621 9.2 9.27488 9.264C9.33888 9.32267 9.41354 9.352 9.49888 9.352H12.2829C12.4642 9.352 12.6269 9.39733 12.7709 9.488C12.9202 9.57333 13.0375 9.69067 13.1229 9.84C13.2135 9.984 13.2589 10.144 13.2589 10.32V11.032C13.2589 11.208 13.2135 11.3707 13.1229 11.52C13.0375 11.664 12.9202 11.7813 12.7709 11.872C12.6269 11.9573 12.4642 12 12.2829 12H9.49888ZM15.6901 12C15.5141 12 15.3514 11.9573 15.2021 11.872C15.0581 11.7813 14.9407 11.664 14.8501 11.52C14.7647 11.3707 14.7221 11.208 14.7221 11.032V8.328C14.7221 8.152 14.7647 7.992 14.8501 7.848C14.9407 7.69867 15.0581 7.58133 15.2021 7.496C15.3514 7.40533 15.5141 7.36 15.6901 7.36H18.4741C18.6554 7.36 18.8181 7.40533 18.9621 7.496C19.1114 7.58133 19.2287 7.69867 19.3141 7.848C19.4047 7.992 19.4501 8.152 19.4501 8.328V10.008H15.3781V11.032C15.3781 11.1173 15.4074 11.192 15.4661 11.256C15.5301 11.3147 15.6047 11.344 15.6901 11.344H19.4501V12H15.6901ZM15.3781 9.352H18.7861V8.328C18.7861 8.24267 18.7541 8.17067 18.6901 8.112C18.6314 8.048 18.5594 8.016 18.4741 8.016H15.6901C15.6047 8.016 15.5301 8.048 15.4661 8.112C15.4074 8.17067 15.3781 8.24267 15.3781 8.328V9.352ZM21.0301 12V8.328C21.0301 8.152 21.0727 7.992 21.1581 7.848C21.2487 7.69867 21.3661 7.58133 21.5101 7.496C21.6594 7.40533 21.8221 7.36 21.9981 7.36H24.6061V8.016H21.9981C21.9127 8.016 21.8381 8.048 21.7741 8.112C21.7154 8.17067 21.6861 8.24267 21.6861 8.328V12H21.0301ZM25.9238 12V7.36H26.5798V12H25.9238ZM25.9238 6.496V5.84H26.5798V6.496H25.9238ZM29.3479 12C29.1719 12 29.0092 11.9573 28.8599 11.872C28.7159 11.7813 28.5985 11.664 28.5079 11.52C28.4225 11.3707 28.3799 11.208 28.3799 11.032V8.328C28.3799 8.152 28.4225 7.992 28.5079 7.848C28.5985 7.69867 28.7159 7.58133 28.8599 7.496C29.0092 7.40533 29.1719 7.36 29.3479 7.36H32.1319C32.3132 7.36 32.4759 7.40533 32.6199 7.496C32.7692 7.58133 32.8865 7.69867 32.9719 7.848C33.0625 7.992 33.1079 8.152 33.1079 8.328V11.032C33.1079 11.208 33.0625 11.3707 32.9719 11.52C32.8865 11.664 32.7692 11.7813 32.6199 11.872C32.4759 11.9573 32.3132 12 32.1319 12H29.3479ZM29.3479 11.344H32.1319C32.2172 11.344 32.2892 11.3147 32.3479 11.256C32.4119 11.192 32.4439 11.1173 32.4439 11.032V8.328C32.4439 8.24267 32.4119 8.17067 32.3479 8.112C32.2892 8.048 32.2172 8.016 32.1319 8.016H29.3479C29.2625 8.016 29.1879 8.048 29.1239 8.112C29.0652 8.17067 29.0359 8.24267 29.0359 8.328V11.032C29.0359 11.1173 29.0652 11.192 29.1239 11.256C29.1879 11.3147 29.2625 11.344 29.3479 11.344ZM35.5154 12C35.3394 12 35.1768 11.9573 35.0274 11.872C34.8834 11.7813 34.7661 11.664 34.6754 11.52C34.5901 11.3707 34.5474 11.208 34.5474 11.032V7.36H35.2034V11.032C35.2034 11.1173 35.2328 11.192 35.2914 11.256C35.3554 11.3147 35.4301 11.344 35.5154 11.344H38.2994C38.3848 11.344 38.4594 11.3147 38.5234 11.256C38.5874 11.192 38.6194 11.1173 38.6194 11.032V7.36H39.2754V11.032C39.2754 11.208 39.2301 11.3707 39.1394 11.52C39.0541 11.664 38.9368 11.7813 38.7874 11.872C38.6434 11.9573 38.4808 12 38.2994 12H35.5154ZM41.7208 12C41.5448 12 41.3821 11.9573 41.2328 11.872C41.0888 11.7813 40.9714 11.664 40.8808 11.52C40.7954 11.3707 40.7528 11.208 40.7528 11.032V10.968H41.4088V11.032C41.4088 11.1173 41.4381 11.192 41.4968 11.256C41.5608 11.3147 41.6354 11.344 41.7208 11.344H44.5048C44.5901 11.344 44.6621 11.3147 44.7208 11.256C44.7848 11.192 44.8168 11.1173 44.8168 11.032V10.32C44.8168 10.2347 44.7848 10.1627 44.7208 10.104C44.6621 10.04 44.5901 10.008 44.5048 10.008H41.7208C41.5448 10.008 41.3821 9.96533 41.2328 9.88C41.0888 9.78933 40.9714 9.672 40.8808 9.528C40.7954 9.37867 40.7528 9.216 40.7528 9.04V8.328C40.7528 8.152 40.7954 7.992 40.8808 7.848C40.9714 7.69867 41.0888 7.58133 41.2328 7.496C41.3821 7.40533 41.5448 7.36 41.7208 7.36H44.5048C44.6861 7.36 44.8488 7.40533 44.9928 7.496C45.1421 7.58133 45.2594 7.69867 45.3448 7.848C45.4354 7.992 45.4808 8.152 45.4808 8.328V8.392H44.8168V8.328C44.8168 8.24267 44.7848 8.17067 44.7208 8.112C44.6621 8.048 44.5901 8.016 44.5048 8.016H41.7208C41.6354 8.016 41.5608 8.048 41.4968 8.112C41.4381 8.17067 41.4088 8.24267 41.4088 8.328V9.04C41.4088 9.12533 41.4381 9.2 41.4968 9.264C41.5608 9.32267 41.6354 9.352 41.7208 9.352H44.5048C44.6861 9.352 44.8488 9.39733 44.9928 9.488C45.1421 9.57333 45.2594 9.69067 45.3448 9.84C45.4354 9.984 45.4808 10.144 45.4808 10.32V11.032C45.4808 11.208 45.4354 11.3707 45.3448 11.52C45.2594 11.664 45.1421 11.7813 44.9928 11.872C44.8488 11.9573 44.6861 12 44.5048 12H41.7208Z" fill="#B60F3C"/>
</svg>
