<svg width="54" height="14" viewBox="0 0 54 14" fill="none" xmlns="http://www.w3.org/2000/svg">
<path d="M54 0.707031L51.707 3H2.29297L0 0.707031L0.707031 0L2.70703 2H51.293L53.293 0L54 0.707031Z" fill="#B9B29D"/>
<path d="M10.7557 12C10.5797 12 10.417 11.9573 10.2677 11.872C10.1237 11.7813 10.0064 11.664 9.91569 11.52C9.83035 11.3707 9.78769 11.208 9.78769 11.032V8.328C9.78769 8.152 9.83035 7.992 9.91569 7.848C10.0064 7.69867 10.1237 7.58133 10.2677 7.496C10.417 7.40533 10.5797 7.36 10.7557 7.36H14.4997V8.016H10.7557C10.6704 8.016 10.5957 8.048 10.5317 8.112C10.473 8.17067 10.4437 8.24267 10.4437 8.328V11.032C10.4437 11.1173 10.473 11.192 10.5317 11.256C10.5957 11.3147 10.6704 11.344 10.7557 11.344H14.5157V12H10.7557ZM16.1582 12V8.328C16.1582 8.152 16.2009 7.992 16.2862 7.848C16.3769 7.69867 16.4942 7.58133 16.6382 7.496C16.7875 7.40533 16.9502 7.36 17.1262 7.36H19.7342V8.016H17.1262C17.0409 8.016 16.9662 8.048 16.9022 8.112C16.8435 8.17067 16.8142 8.24267 16.8142 8.328V12H16.1582ZM21.0519 12V7.36H21.7079V12H21.0519ZM21.0519 6.496V5.84H21.7079V6.496H21.0519ZM24.492 12C24.3107 12 24.1453 11.9573 23.996 11.872C23.852 11.7813 23.7373 11.664 23.652 11.52C23.5667 11.3707 23.524 11.208 23.524 11.032V5.84H24.18V7.36H26.188V8.016H24.18V11.032C24.18 11.1173 24.2093 11.192 24.268 11.256C24.332 11.3147 24.4067 11.344 24.492 11.344H26.188V12H24.492ZM27.6363 12V7.36H28.2923V12H27.6363ZM27.6363 6.496V5.84H28.2923V6.496H27.6363ZM30.9432 12C30.7672 12 30.6045 11.9573 30.4552 11.872C30.3112 11.7813 30.1939 11.664 30.1032 11.52C30.0179 11.3707 29.9752 11.208 29.9752 11.032V8.328C29.9752 8.152 30.0179 7.992 30.1032 7.848C30.1939 7.69867 30.3112 7.58133 30.4552 7.496C30.6045 7.40533 30.7672 7.36 30.9432 7.36H34.6872V8.016H30.9432C30.8579 8.016 30.7832 8.048 30.7192 8.112C30.6605 8.17067 30.6312 8.24267 30.6312 8.328V11.032C30.6312 11.1173 30.6605 11.192 30.7192 11.256C30.7832 11.3147 30.8579 11.344 30.9432 11.344H34.7032V12H30.9432ZM37.3137 12C37.1377 12 36.975 11.9573 36.8257 11.872C36.6817 11.7813 36.5644 11.664 36.4737 11.52C36.3884 11.3707 36.3457 11.208 36.3457 11.032V9.352H40.4097V8.328C40.4097 8.24267 40.3777 8.17067 40.3137 8.112C40.255 8.048 40.183 8.016 40.0977 8.016H36.3457V7.36H40.0977C40.279 7.36 40.4417 7.40533 40.5857 7.496C40.735 7.58133 40.8524 7.69867 40.9377 7.848C41.0284 7.992 41.0737 8.152 41.0737 8.328V12H37.3137ZM37.3137 11.344H40.4097V10.008H37.0017V11.032C37.0017 11.1173 37.031 11.192 37.0897 11.256C37.1537 11.3147 37.2284 11.344 37.3137 11.344ZM43.5902 12C43.4142 12 43.2516 11.9573 43.1022 11.872C42.9582 11.7813 42.8409 11.664 42.7502 11.52C42.6649 11.3707 42.6222 11.208 42.6222 11.032V5.84H43.2782V11.032C43.2782 11.1173 43.3076 11.192 43.3662 11.256C43.4302 11.3147 43.5049 11.344 43.5902 11.344H44.3742V12H43.5902Z" fill="#B9B29D"/>
</svg>
