<svg width="54" height="26" viewBox="0 0 54 26" fill="none" xmlns="http://www.w3.org/2000/svg">
<path d="M54 13.707L51.707 16H2.29297L0 13.707L0.707031 13L2.70703 15H51.293L53.293 13L54 13.707Z" fill="#B9B29D"/>
<path d="M7.70622 25V20.36H13.8342C14.0156 20.36 14.1782 20.4053 14.3222 20.496C14.4716 20.5813 14.5889 20.6987 14.6742 20.848C14.7596 20.992 14.8022 21.152 14.8022 21.328V25H14.1542V21.328C14.1542 21.2427 14.1222 21.1707 14.0582 21.112C13.9942 21.048 13.9196 21.016 13.8342 21.016H11.9062C11.8209 21.016 11.7462 21.048 11.6822 21.112C11.6236 21.1707 11.5942 21.2427 11.5942 21.328V25H10.9302V21.328C10.9302 21.2427 10.8982 21.1707 10.8342 21.112C10.7756 21.048 10.7036 21.016 10.6182 21.016H8.68222C8.59689 21.016 8.52222 21.048 8.45822 21.112C8.39955 21.1707 8.37022 21.2427 8.37022 21.328V25H7.70622ZM17.2705 25C17.0945 25 16.9319 24.9573 16.7825 24.872C16.6385 24.7813 16.5212 24.664 16.4305 24.52C16.3452 24.3707 16.3025 24.208 16.3025 24.032V21.328C16.3025 21.152 16.3452 20.992 16.4305 20.848C16.5212 20.6987 16.6385 20.5813 16.7825 20.496C16.9319 20.4053 17.0945 20.36 17.2705 20.36H20.0545C20.2359 20.36 20.3985 20.4053 20.5425 20.496C20.6919 20.5813 20.8092 20.6987 20.8945 20.848C20.9852 20.992 21.0305 21.152 21.0305 21.328V24.032C21.0305 24.208 20.9852 24.3707 20.8945 24.52C20.8092 24.664 20.6919 24.7813 20.5425 24.872C20.3985 24.9573 20.2359 25 20.0545 25H17.2705ZM17.2705 24.344H20.0545C20.1399 24.344 20.2119 24.3147 20.2705 24.256C20.3345 24.192 20.3665 24.1173 20.3665 24.032V21.328C20.3665 21.2427 20.3345 21.1707 20.2705 21.112C20.2119 21.048 20.1399 21.016 20.0545 21.016H17.2705C17.1852 21.016 17.1105 21.048 17.0465 21.112C16.9879 21.1707 16.9585 21.2427 16.9585 21.328V24.032C16.9585 24.1173 16.9879 24.192 17.0465 24.256C17.1105 24.3147 17.1852 24.344 17.2705 24.344ZM22.5715 25V21.328C22.5715 21.152 22.6141 20.992 22.6995 20.848C22.7901 20.6987 22.9075 20.5813 23.0515 20.496C23.2008 20.4053 23.3635 20.36 23.5395 20.36H26.1475V21.016H23.5395C23.4541 21.016 23.3795 21.048 23.3155 21.112C23.2568 21.1707 23.2275 21.2427 23.2275 21.328V25H22.5715ZM28.4412 25C28.2599 25 28.0946 24.9573 27.9452 24.872C27.8012 24.7813 27.6866 24.664 27.6012 24.52C27.5159 24.3707 27.4732 24.208 27.4732 24.032V18.84H28.1292V20.36H30.1372V21.016H28.1292V24.032C28.1292 24.1173 28.1586 24.192 28.2172 24.256C28.2812 24.3147 28.3559 24.344 28.4412 24.344H30.1372V25H28.4412ZM32.5145 25C32.3385 25 32.1758 24.9573 32.0265 24.872C31.8825 24.7813 31.7651 24.664 31.6745 24.52C31.5891 24.3707 31.5465 24.208 31.5465 24.032V22.352H35.6105V21.328C35.6105 21.2427 35.5785 21.1707 35.5145 21.112C35.4558 21.048 35.3838 21.016 35.2985 21.016H31.5465V20.36H35.2985C35.4798 20.36 35.6425 20.4053 35.7865 20.496C35.9358 20.5813 36.0531 20.6987 36.1385 20.848C36.2291 20.992 36.2745 21.152 36.2745 21.328V25H32.5145ZM32.5145 24.344H35.6105V23.008H32.2025V24.032C32.2025 24.1173 32.2318 24.192 32.2905 24.256C32.3545 24.3147 32.4291 24.344 32.5145 24.344ZM38.791 25C38.615 25 38.4524 24.9573 38.303 24.872C38.159 24.7813 38.0417 24.664 37.951 24.52C37.8657 24.3707 37.823 24.208 37.823 24.032V18.84H38.479V24.032C38.479 24.1173 38.5084 24.192 38.567 24.256C38.631 24.3147 38.7057 24.344 38.791 24.344H39.575V25H38.791ZM45.3528 25V19.976L44.4648 21.04H43.6088L45.1208 19.24H46.0168V25H45.3528Z" fill="#B9B29D"/>
</svg>
