<svg width="54" height="27" viewBox="0 0 54 27" fill="none" xmlns="http://www.w3.org/2000/svg">
<path d="M54 13.707L51.707 16H2.29297L0 13.707L0.707031 13L2.70703 15H51.293L53.293 13L54 13.707Z" fill="#B60F3C"/>
<path d="M17.702 25C17.526 25 17.3633 24.9573 17.214 24.872C17.07 24.7813 16.9526 24.664 16.862 24.52C16.7766 24.3707 16.734 24.208 16.734 24.032V18.84H17.39V24.032C17.39 24.1173 17.4193 24.192 17.478 24.256C17.542 24.3147 17.6166 24.344 17.702 24.344H18.486V25H17.702ZM19.948 25V20.36H20.604V25H19.948ZM19.948 19.496V18.84H20.604V19.496H19.948ZM23.1801 26.832V26.168H26.0761C26.1614 26.168 26.2334 26.136 26.2921 26.072C26.3561 26.0133 26.3881 25.9413 26.3881 25.856V25H23.2921C23.1161 25 22.9534 24.9573 22.8041 24.872C22.6601 24.7813 22.5428 24.664 22.4521 24.52C22.3668 24.3707 22.3241 24.208 22.3241 24.032V21.328C22.3241 21.152 22.3668 20.992 22.4521 20.848C22.5428 20.6987 22.6601 20.5813 22.8041 20.496C22.9534 20.4053 23.1161 20.36 23.2921 20.36H26.0761C26.2574 20.36 26.4201 20.4053 26.5641 20.496C26.7134 20.5813 26.8308 20.6987 26.9161 20.848C27.0014 20.992 27.0441 21.152 27.0441 21.328V25.856C27.0441 26.0373 27.0014 26.2 26.9161 26.344C26.8308 26.4933 26.7134 26.6107 26.5641 26.696C26.4201 26.7867 26.2574 26.832 26.0761 26.832H23.1801ZM23.2921 24.344H26.0761C26.1614 24.344 26.2334 24.3147 26.2921 24.256C26.3561 24.192 26.3881 24.1173 26.3881 24.032V21.328C26.3881 21.2427 26.3561 21.1707 26.2921 21.112C26.2334 21.048 26.1614 21.016 26.0761 21.016H23.2921C23.2068 21.016 23.1321 21.048 23.0681 21.112C23.0094 21.1707 22.9801 21.2427 22.9801 21.328V24.032C22.9801 24.1173 23.0094 24.192 23.0681 24.256C23.1321 24.3147 23.2068 24.344 23.2921 24.344ZM28.689 25V18.84H29.345V20.36H32.449C32.625 20.36 32.785 20.4053 32.929 20.496C33.0784 20.5813 33.1957 20.6987 33.281 20.848C33.3717 20.992 33.417 21.152 33.417 21.328V25H32.761V21.328C32.761 21.2427 32.729 21.1707 32.665 21.112C32.6064 21.048 32.5344 21.016 32.449 21.016H29.665C29.5797 21.016 29.505 21.048 29.441 21.112C29.377 21.1707 29.345 21.2427 29.345 21.328V25H28.689ZM35.7928 25C35.6114 25 35.4461 24.9573 35.2968 24.872C35.1528 24.7813 35.0381 24.664 34.9528 24.52C34.8674 24.3707 34.8248 24.208 34.8248 24.032V18.84H35.4808V20.36H37.4888V21.016H35.4808V24.032C35.4808 24.1173 35.5101 24.192 35.5688 24.256C35.6328 24.3147 35.7074 24.344 35.7928 24.344H37.4888V25H35.7928Z" fill="#B60F3C"/>
</svg>
