<svg width="54" height="14" viewBox="0 0 54 14" fill="none" xmlns="http://www.w3.org/2000/svg">
<path d="M54 0.707031L51.707 3H2.29297L0 0.707031L0.707031 0L2.70703 2H51.293L53.293 0L54 0.707031Z" fill="#B9B29D"/>
<path d="M5.98747 12V7.36H12.1155C12.2968 7.36 12.4595 7.40533 12.6035 7.496C12.7528 7.58133 12.8701 7.69867 12.9555 7.848C13.0408 7.992 13.0835 8.152 13.0835 8.328V12H12.4355V8.328C12.4355 8.24267 12.4035 8.17067 12.3395 8.112C12.2755 8.048 12.2008 8.016 12.1155 8.016H10.1875C10.1021 8.016 10.0275 8.048 9.96347 8.112C9.9048 8.17067 9.87547 8.24267 9.87547 8.328V12H9.21147V8.328C9.21147 8.24267 9.17947 8.17067 9.11547 8.112C9.0568 8.048 8.9848 8.016 8.89947 8.016H6.96347C6.87814 8.016 6.80347 8.048 6.73947 8.112C6.6808 8.17067 6.65147 8.24267 6.65147 8.328V12H5.98747ZM15.5518 12C15.3758 12 15.2131 11.9573 15.0638 11.872C14.9198 11.7813 14.8024 11.664 14.7118 11.52C14.6264 11.3707 14.5838 11.208 14.5838 11.032V8.328C14.5838 8.152 14.6264 7.992 14.7118 7.848C14.8024 7.69867 14.9198 7.58133 15.0638 7.496C15.2131 7.40533 15.3758 7.36 15.5518 7.36H18.3358C18.5171 7.36 18.6798 7.40533 18.8238 7.496C18.9731 7.58133 19.0904 7.69867 19.1758 7.848C19.2664 7.992 19.3118 8.152 19.3118 8.328V11.032C19.3118 11.208 19.2664 11.3707 19.1758 11.52C19.0904 11.664 18.9731 11.7813 18.8238 11.872C18.6798 11.9573 18.5171 12 18.3358 12H15.5518ZM15.5518 11.344H18.3358C18.4211 11.344 18.4931 11.3147 18.5518 11.256C18.6158 11.192 18.6478 11.1173 18.6478 11.032V8.328C18.6478 8.24267 18.6158 8.17067 18.5518 8.112C18.4931 8.048 18.4211 8.016 18.3358 8.016H15.5518C15.4664 8.016 15.3918 8.048 15.3278 8.112C15.2691 8.17067 15.2398 8.24267 15.2398 8.328V11.032C15.2398 11.1173 15.2691 11.192 15.3278 11.256C15.3918 11.3147 15.4664 11.344 15.5518 11.344ZM20.8527 12V8.328C20.8527 8.152 20.8954 7.992 20.9807 7.848C21.0714 7.69867 21.1887 7.58133 21.3327 7.496C21.4821 7.40533 21.6447 7.36 21.8207 7.36H24.4287V8.016H21.8207C21.7354 8.016 21.6607 8.048 21.5967 8.112C21.5381 8.17067 21.5087 8.24267 21.5087 8.328V12H20.8527ZM26.7225 12C26.5411 12 26.3758 11.9573 26.2265 11.872C26.0825 11.7813 25.9678 11.664 25.8825 11.52C25.7971 11.3707 25.7545 11.208 25.7545 11.032V5.84H26.4105V7.36H28.4185V8.016H26.4105V11.032C26.4105 11.1173 26.4398 11.192 26.4985 11.256C26.5625 11.3147 26.6371 11.344 26.7225 11.344H28.4185V12H26.7225ZM30.7957 12C30.6197 12 30.4571 11.9573 30.3077 11.872C30.1637 11.7813 30.0464 11.664 29.9557 11.52C29.8704 11.3707 29.8277 11.208 29.8277 11.032V9.352H33.8917V8.328C33.8917 8.24267 33.8597 8.17067 33.7957 8.112C33.7371 8.048 33.6651 8.016 33.5797 8.016H29.8277V7.36H33.5797C33.7611 7.36 33.9237 7.40533 34.0677 7.496C34.2171 7.58133 34.3344 7.69867 34.4197 7.848C34.5104 7.992 34.5557 8.152 34.5557 8.328V12H30.7957ZM30.7957 11.344H33.8917V10.008H30.4837V11.032C30.4837 11.1173 30.5131 11.192 30.5717 11.256C30.6357 11.3147 30.7104 11.344 30.7957 11.344ZM37.0723 12C36.8963 12 36.7336 11.9573 36.5843 11.872C36.4403 11.7813 36.3229 11.664 36.2323 11.52C36.1469 11.3707 36.1043 11.208 36.1043 11.032V5.84H36.7603V11.032C36.7603 11.1173 36.7896 11.192 36.8483 11.256C36.9123 11.3147 36.9869 11.344 37.0723 11.344H37.8563V12H37.0723ZM43.306 12C43.1247 12 42.9594 11.9573 42.81 11.872C42.666 11.7813 42.5514 11.664 42.466 11.52C42.3807 11.3707 42.338 11.208 42.338 11.032V7.208C42.338 7.02667 42.3807 6.864 42.466 6.72C42.5514 6.57067 42.666 6.45333 42.81 6.368C42.9594 6.27733 43.1247 6.232 43.306 6.232H47.146V6.896H43.306C43.2207 6.896 43.146 6.928 43.082 6.992C43.0234 7.05067 42.994 7.12267 42.994 7.208V8.36C42.994 8.44533 43.0234 8.52 43.082 8.584C43.146 8.648 43.2207 8.68 43.306 8.68H47.186C47.362 8.68 47.522 8.72267 47.666 8.808C47.8154 8.89333 47.9327 9.01067 48.018 9.16C48.1087 9.304 48.154 9.46667 48.154 9.648V11.032C48.154 11.208 48.1087 11.3707 48.018 11.52C47.9327 11.664 47.8154 11.7813 47.666 11.872C47.522 11.9573 47.362 12 47.186 12H43.306ZM43.306 11.344H47.186C47.2714 11.344 47.3434 11.3147 47.402 11.256C47.466 11.192 47.498 11.1173 47.498 11.032V9.648C47.498 9.56267 47.466 9.49067 47.402 9.432C47.3434 9.368 47.2714 9.336 47.186 9.336H42.994V11.032C42.994 11.1173 43.0234 11.192 43.082 11.256C43.146 11.3147 43.2207 11.344 43.306 11.344Z" fill="#B9B29D"/>
</svg>
